<svg xmlns="http://www.w3.org/2000/svg" width="24" height="24" viewBox="0 0 24 24"><g fill="none" stroke="currentColor" stroke-linecap="round" stroke-linejoin="round" stroke-width="1"><path stroke-width="1.5" d="M16 2v4M8 2v4m5-2h-2C7.229 4 5.343 4 4.172 5.172S3 8.229 3 12v2c0 3.771 0 5.657 1.172 6.828S7.229 22 11 22h2c3.771 0 5.657 0 6.828-1.172S21 17.771 21 14v-2c0-3.771 0-5.657-1.172-6.828S16.771 4 13 4M3 10h18"/><path stroke-width="2" d="M11.996 14h.008m-.008 4h.008m3.987-4H16m-8 0h.009M8 18h.009"/></g></svg>