<?xml version="1.0" encoding="UTF-8"?>
<svg width="279.47" height="271.35" style="-webkit-print-color-adjust:exact" version="1.1" viewBox="-4.8499 -5.1683 279.47 271.35" xmlns="http://www.w3.org/2000/svg">
 <g id="shape-90c96e60-696b-11ec-bd6f-fd00fbb0d00c" transform="translate(-2.8421 5.2745)" width="210mm" height="297mm" version="1.1">
  <g id="shape-90c99570-696b-11ec-bd6f-fd00fbb0d00c">
   <g id="shape-90d220f0-696b-11ec-bd6f-fd00fbb0d00c">
    <path d="m277.61-6.5015c-0.69366 0.25707-2.5619 1.4307-3.7786 2.2212-7.5233 5.6056-18.893 15.747-26.175 21.66-15.848 12.957-31.527 26.126-47.487 38.946-2.4053 2.0744-5.3521 3.5841-8.5381 3.926-4.8433 0.56909-9.7283 0.05285-14.567-0.32358-14.575-1.3872-29.333-2.4263-43.904-0.42291-8.3592 1.0857-16.526 3.2495-24.593 5.6421-1.813 0.48841-3.6217 1.1088-5.4373 1.5153-7.6809-1.6972-15.425-3.3049-22.948-5.4451-3.3479-1.0248-6.8499-1.9325-9.6912-4.0762-15.467-10.632-30.593-21.781-45.921-32.647-6.6439-4.6497-13.247-9.3675-20.094-13.716-1.106-0.59812-7.5921-5.4141-8.921-4.8891-2.3086 0.79301-3.3935 4.0396-1.8438 5.9902 1.8238 2.3582 9.5775 7.8445 11.884 9.6953 8.0963 6.123 16.405 11.96 24.609 17.937 10.199 7.3311 20.326 14.773 30.718 21.832 5.1087 3.3944 10.347 6.8711 16.359 8.4206 2.9256 0.7729 5.8735 1.458 8.7988 2.2349-3.0231 0.8193-5.9492 2.252-8.0759 4.6038-3.2838 3.5446-5.5606 7.8598-7.9234 12.037-5.8705 10.864-11.379 21.918-16.992 32.916-2.9824 5.9979-6.1259 11.927-8.7279 18.104-0.8502 2.1279-1.7957 4.5618-0.8435 6.8216 1.3707 3.5335 4.8102 5.7321 8.2227 7.0078 5.1922 1.9122 10.972 1.9917 16.277 0.48242 6.4597-1.7428 12.662-5.0734 17.048-10.206 3.419-4.2905 6.0892-9.1132 8.7405-13.899 2.5074-4.6839 4.9468-9.4038 7.4241-14.104 4.3762-0.83888 8.7525-1.6775 13.129-2.5156 5.871 9.1636 14.463 16.415 24.095 21.379 5.623 2.8713 11.687 4.992 17.986 5.6823 6.99 0.80725 14.161 0.62096 21.008-1.0906 2.6887-0.7013 5.258-1.7792 7.882-2.6816 12.049 7.0939 24.196 14.018 36.351 20.927 2.9382 1.7618 6.0311 3.3552 8.5966 5.6553 1.4903 1.5297 2.463 3.5196 3.0833 5.5462 1.2728 4.7414-0.0365 10.142-3.4283 13.706-1.9518 1.6327-4.252 2.868-6.673 3.644-0.75847 0.29209-1.4215-0.43485-2.1147-0.6603-13.957-7.1401-27.176-15.626-41.131-22.767-1.1602-0.5707-2.4556-1.3074-3.773-0.7751-2.4675 0.84293-3.9761 4.1168-2.4932 6.4098 1.6007 1.3543 3.4971 2.3066 5.2588 3.4322 11.936 7.2194 24.162 13.951 36 21.284 0.50006 0.36497 1.1848 0.63854 1.5418 1.0909-0.12399 2.626-1.1205 5.1446-2.3263 7.4528-1.8939 3.179-5.2382 5.4546-8.8576 6.1524-1.7314-0.10904-3.2578-1.0921-4.8023-1.7992-8.0477-4.2358-15.831-8.9497-23.785-13.355-5.1648-2.8475-10.311-5.7513-15.665-8.2308-1.1702-0.61063-2.5433-0.84751-3.812-0.40425-1.5312 0.44256-2.2568 2.1718-1.972 3.6559 0.1542 1.983 1.9933 3.1782 3.4287 4.2826 5.0947 3.5387 10.529 6.5493 15.875 9.6859 6.7873 3.9632 13.684 7.7467 20.351 11.913 1.1486 0.81293 2.4913 1.4926 3.3161 2.6595 0.31503 3.8298-1.5979 7.5584-4.452 10.029-1.5764 1.353-3.3195 2.6497-5.3527 3.1956-5.2972-2.6046-10.41-5.5677-15.561-8.4476-9.1364-5.1663-18.172-10.525-27.527-15.293-1.0333-0.53169-2.2131-1.0438-3.373-0.58398-2.3606 0.69165-3.3642 3.7086-2.277 5.8161 0.74678 1.6729 2.5718 2.3608 3.9896 3.3433 10.097 6.2104 20.482 11.935 30.667 17.997 2.5208 1.5948 5.2059 3.0404 7.3154 5.1837 0.62794 0.54806 0.67104 1.4139 0.33789 2.1328-0.83035 2.6045-2.523 4.9685-4.9398 6.3095-4.0943 2.337-9.0178 2.4578-13.593 1.9952-5.8038-0.60781-11.341-2.5478-16.838-4.4004 2.6496-2.9633 4.3823-6.7861 4.5478-10.782 0.22017-4.7878-1.496-9.572-4.3857-13.356-2.5257-3.1559-6.4499-4.5509-9.9473-6.3066 1.027-2.4405 1.8934-4.9978 1.9667-7.671 0.3694-6.9739-3.6456-13.811-9.6463-17.266-4.6115-2.7552-10.503-3.3119-15.487-1.2436-1.06 0.41556-2.0569 0.96946-3.0695 1.4858-0.67424-6.104-4.5126-11.797-10.045-14.521-3.2065-1.6566-6.898-1.96-10.448-1.8479-3.7665 0.12494-7.1576 2.0374-10.123 4.2124-3.2845 2.3554-6.3478 4.9993-9.568 7.4396-0.61006 0.45436-1.4476 1.0773-2.1719 1.5605-1.0671-4.5287-3.1343-9.0827-6.9527-11.935-3.4524-2.5729-7.8143-3.9767-12.13-3.6466-2.1749 0.10977-4.3314 0.43593-6.4822 0.76297-1.8735-2.0463-3.1716-4.5374-4.618-6.8879-4.7446-8.0362-9.1541-16.27-14.083-24.196-1.9926-3.2298-4.3622-6.2658-7.3511-8.6354-3.5911-2.8422-7.1007-5.8158-10.963-8.2897-1.626-0.9891-7.3043-4.453-9.2531-3.7386-1.8608 0.80099-2.5959 3.2222-1.9799 5.0536 0.93994 2.2912 6.7685 6.0968 8.5882 7.6551 2.1302 1.6693 4.1583 3.2262 6.2276 4.9881 1.5195 1.3601 3.203 2.5865 4.4618 4.2033 3.0815 4.561 5.8537 9.2651 8.6762 13.938 3.2862 5.5055 6.5564 11.081 9.6656 16.613 0.91053 1.6544 1.7566 3.1528 2.6094 4.8418-2.9152 2.8628-6.3598 5.3511-8.3079 9.0424-1.6209 3.069-2.3532 6.61-2.1639 10.071 0.37766 6.5375 4.5862 12.567 10.4 15.486 2.4393 1.3431 5.2501 1.8538 8.0152 1.7184 1.689-0.0537 3.3742-0.18875 5.061-0.28869-0.0571 5.8296 3.3358 11.268 7.9336 14.658 1.9746 1.4882 4.2598 2.5877 6.7227 2.9409 3.5436 0.58182 7.2412 0.60006 10.725-0.34323-0.07599 4.4492 1.849 8.8152 5.036 11.894 3.8765 3.9541 9.4993 6.2714 15.057 5.6913 4.2436-0.37015 8.1971-2.3461 11.434-5.0527 0.42506-0.40094 0.79081-0.67188 0.71692 0.0727 0.6677 5.4681 4.3039 10.331 9.034 13.032 2.2639 1.467 4.925 2.2603 7.6218 2.2868 3.3624 0.17484 6.8399-0.15085 9.8816-1.6991 2.5197-1.2227 4.7874-2.8912 7.0096-4.5802 3.7582 0.59252 7.3747 1.8438 10.997 2.9738 4.8892 1.5397 9.8331 3.4028 15.04 3.2743 5.7324-0.0854 11.726-0.50877 16.852-3.3262 3.9683-2.1394 6.8291-5.9662 8.2186-10.211 0.69786-1.7848 0.83383-3.7864 1.8282-5.4476 1.0957-1.1577 2.7579-1.4712 4.0714-2.3171 6.037-3.3393 10.357-9.6202 11.179-16.485 0.17543-0.92582 0.11373-1.9581 0.5391-2.8032 1.6378-0.69751 3.4583-0.91844 5.0347-1.7888 4.9499-2.4878 8.7581-6.9557 10.948-11.997 1.0274-2.369 1.5695-4.9359 1.5954-7.5159-0.0405-0.70612 0.83525-0.57225 1.2749-0.83479 5.7761-2.0338 11.107-5.9061 13.969-11.422 2.1799-4.1125 2.778-8.9246 2.1123-13.5-0.37142-1.972 0.57721-3.8146 1.4681-5.5001 3.1525-5.7178 6.6492-11.237 9.9972-16.841 2.7085-4.3178 5.224-8.8249 8.6943-12.595 0.42337-0.45317 0.82584-0.84851 1.3402-1.3302 3.814-3.6008 12.781-8.8786 16.323-12.771 1.0585-1.172 1.9059-2.7944 1.3832-4.3981-0.28996-1.6578-1.8086-3.045-3.5355-2.9027-2.4048 0.2291-8.8426 4.2578-10.742 5.6094-3.463 2.6828-6.8024 5.5306-10.007 8.5169-4.8416 4.5365-8.0879 10.402-11.53 15.994-2.9019 4.8001-5.7709 9.6204-8.7182 14.393-2.8415-2.6693-6.0443-4.9376-9.4755-6.7862-13.946-7.9842-27.839-16.061-41.753-24.102-3.965 1.5267-7.8097 3.4655-12.006 4.2957-1.8215 0.39204-3.7508 0.68326-5.5005 0.84931-3.7551 0.36436-7.5542 0.3583-11.298-0.12937-0.33001-0.0418-1.0532-0.15165-1.5254-0.23438-7.16-1.3974-13.894-4.5992-19.843-8.7759-5.3509-3.7632-10.035-8.4786-13.679-13.916-1.3619-1.7768-2.818-3.8018-5.0733-4.4542-1.6607-0.31178-3.3482 0.1633-4.9956 0.38089-4.971 0.9098-9.9282 1.9798-14.751 3.5013-1.1365 0.33713-2.3018 0.88076-2.8449 2.0037-5.3114 8.7144-9.3458 18.186-15.28 26.523-2.4117 3.3627-5.9214 5.8195-9.6611 7.5081-4.3843 1.9145-9.4916 2.8071-14.124 1.2616-1.1688-0.41655-2.2883-0.97369-3.334-1.6412 4.5984-9.6918 9.5016-19.236 14.346-28.806 3.1468-6.1464 6.3512-12.378 9.5852-18.407 2.2613-4.1 4.4116-8.2856 7.1128-12.119 1.6865-2.225 4.4766-3.1186 6.9737-4.103 6.7302-2.3841 13.592-4.3758 20.43-6.4218 11.854-3.4404 24.051-6.6346 36.502-6.9319 4.6803-0.14343 9.3906 0.06046 13.997 0.41824 8.9273 0.70355 17.831 1.9258 26.799 1.9533 4.5933 0.01122 9.4081-0.61565 13.339-3.1625 5.79-3.9531 11.234-8.3849 16.74-12.717 15.324-12.284 30.452-24.817 45.313-37.658 4.2898-3.7854 12.788-11.67 16.781-15.774 0.80714-0.81861 1.5518-1.892 1.2637-3.1016-0.22617-1.7233-1.6409-3.4254-3.4553-3.4429l-0.21659 0.034736zm-227.49 184.83c2.2607 0.20265 4.7456 0.56951 6.3732 2.319 2.8552 2.8865 3.9031 7.5971 2.2007 11.336-1.0311 1.7736-2.6176 3.1483-4.0583 4.5852-2.3311 2.1248-4.6879 4.2934-7.4492 5.8496-2.4728 0.91116-5.2396 0.73599-7.7574 0.096-2.8504-0.65934-4.6884-3.3061-5.6363-5.9079-0.84289-2.2572-1.0004-4.9128 0.27652-7.0455 2-3.4177 5.2092-5.8855 8.307-8.2527 1.9189-1.416 3.9721-3.0803 6.4976-2.9953 0.41562-0.0153 0.83069 2e-3 1.2461 0.0156zm41.617 2.0137c2.8386 0.27482 5.6208 1.4754 7.7324 3.3984 1.678 1.7705 2.156 4.3508 2.178 6.7132-0.0738 1.7572-0.31123 3.7504-1.7203 4.9758-4.8663 4.8426-10.098 9.3002-15.29 13.786-4.2434 3.5703-8.441 7.2151-12.952 10.447-2.7385 1.7641-6.3421 1.695-9.303 0.543-2.0674-0.77993-3.835-2.3641-4.623-4.4551-1.1268-2.8083-1.3043-6.1721 0.11328-8.9082 2.4294-2.8186 5.2842-5.2337 8.0371-7.7266 5.4287-4.7091 10.979-9.2783 16.572-13.789 2.1879-1.6548 4.2918-3.5352 6.8559-4.5865 0.76746-0.27204 1.5801-0.46421 2.3997-0.39748zm27.666 14.162c2.0827 0.14441 4.4538 0.11945 6.0508 1.6904 1.4029 1.3273 2.7834 2.7146 3.9042 4.292 0.72377 1.2976 0.29828 2.8537 0.24183 4.2568-0.23583 1.7706-0.57051 3.6252-1.5434 5.151-2.6131 2.6817-5.5239 5.0558-8.3422 7.5167-7.1417 6.0566-14.328 12.071-21.786 17.736-1.8428 1.5214-4.1319 2.5991-6.5588 2.5804-3.6851 0.0798-7.0396-2.4575-8.4886-5.7604-1.1744-2.4312-1.6949-5.4439-0.34373-7.9162 1.2955-2.5232 3.6906-4.1746 5.7157-6.0668 6.8305-5.9507 13.834-11.79 20.915-17.494 2.4245-1.8657 4.7312-3.931 7.4098-5.4316 0.86591-0.46267 1.8565-0.58949 2.826-0.55415zm13.369 27.086c2.8895 0.12317 5.6545 1.5859 7.4883 3.8047 0.1308 0.14494 0.56115 0.70939 0.76966 1.0573 1.889 2.8484 1.9927 6.8579-0.0275 9.6634-2.7522 3.3027-6.0766 6.0775-9.4453 8.7266-2.3021 1.7144-4.7623 3.5807-7.7246 3.8262-1.8617-0.0577-3.542-1.0237-5.1543-1.8652-3.4869-2.1271-5.6918-6.5811-4.5545-10.614 0.82729-2.3361 2.7722-4.0154 4.449-5.7519 2.8907-2.7967 5.8728-5.5505 9.2519-7.7508 1.5151-0.78707 3.241-1.1729 4.9473-1.0957z"/>
   </g>
  </g>
 </g>
</svg>
