<svg xmlns="http://www.w3.org/2000/svg" width="24" height="24" viewBox="0 0 24 24"><g fill="none" stroke="currentColor" stroke-linecap="round" stroke-linejoin="round" stroke-width="1.5"><path d="M20 15c0 1.864 0 2.796-.304 3.53a4 4 0 0 1-2.165 2.165C16.796 21 15.864 21 14 21h-3c-3.772 0-5.658 0-6.83-1.172C3 18.657 3 16.771 3 13V7a4 4 0 0 1 4-4"/><path d="m10 8.5l.434 3.969a.94.94 0 0 0 .552.753c.686.295 1.971.778 3.014.778s2.328-.483 3.014-.778a.94.94 0 0 0 .553-.753L18 8.5m2.5-1v3.77M14 4L7 7l7 3l7-3z"/></g></svg>