<svg xmlns="http://www.w3.org/2000/svg" width="24" height="24" viewBox="0 0 24 24"><g fill="none" stroke="currentColor" stroke-width="1.5"><path d="M4.268 18.845c.225 1.67 1.608 2.979 3.292 3.056c1.416.065 2.855.099 4.44.099s3.024-.034 4.44-.1c1.684-.076 3.067-1.385 3.292-3.055c.147-1.09.268-2.207.268-3.345s-.121-2.255-.268-3.345c-.225-1.67-1.608-2.979-3.292-3.056A95 95 0 0 0 12 9c-1.585 0-3.024.034-4.44.1c-1.684.076-3.067 1.385-3.292 3.055C4.12 13.245 4 14.362 4 15.5s.121 2.255.268 3.345Z"/><path stroke-linecap="round" stroke-linejoin="round" d="M7.5 9V6.5a4.5 4.5 0 0 1 9 0V9"/><path stroke-linecap="round" d="M8 17.5V16a4 4 0 0 1 8 0v1.5"/><path stroke-linecap="round" d="M10.5 19v-3a1.5 1.5 0 0 1 3 0m0 3v-1"/></g></svg>