<?xml version="1.0" encoding="UTF-8" standalone="no"?>
<!DOCTYPE svg PUBLIC "-//W3C//DTD SVG 1.1//EN" "http://www.w3.org/Graphics/SVG/1.1/DTD/svg11.dtd">
<svg width="100%" height="100%" viewBox="0 0 865 981" version="1.1" xmlns="http://www.w3.org/2000/svg" xmlns:xlink="http://www.w3.org/1999/xlink" xml:space="preserve" xmlns:serif="http://www.serif.com/" style="fill-rule:evenodd;clip-rule:evenodd;stroke-linejoin:round;stroke-miterlimit:2;">
    <g transform="matrix(1,0,0,1,-68,-10)">
        <path d="M68,10.3C68.5,15 68.8,19.2 69.2,23.5C72.9,65.1 76.5,106.7 80.3,148.3C85.1,201.1 89.8,254.1 94.5,306.9C98.5,351.3 102.4,395.9 106.3,440.4C110.8,490.5 115.3,540.6 119.8,590.7C123.7,635.1 127.7,679.7 131.6,724.2C136.4,778.4 141.3,832.5 146,886.7C146.3,890.2 147.4,891.7 150.9,892.6C265.5,924.9 380,957.3 494.5,989.5C497.4,990.3 500.8,990.3 503.7,989.5C618.7,957.3 733.6,925 848.6,892.8C852.5,891.7 853.7,890 854,886.1C856.4,855.9 859.2,825.8 861.9,795.6C864.9,762.3 867.9,729 870.8,695.7C873.5,665.9 876,636.2 878.8,606.4C881.8,573 884.8,539.7 887.7,506.4C890.3,476.7 892.9,446.9 895.7,417.1C898.7,383.9 901.6,350.7 904.6,317.5C907.3,287.6 909.8,257.8 912.6,227.8C915.6,194.6 918.5,161.4 921.5,128.2C924.2,98 926.9,67.7 929.7,37.4C930.5,28.4 931.2,19.3 932.1,10C643.8,10.3 356.2,10.3 68,10.3ZM761.4,297.3L347.6,297.3C350.9,334.6 354.1,371.5 357.2,408.5L751.7,408.5C750.7,416.3 749.5,423.7 748.8,431.2C747,450 745.2,468.8 743.5,487.5C740.5,521.5 737.5,555.7 734.6,589.8C732,620.4 729.4,650.8 726.6,681.3C724.9,700.6 723,719.9 721.4,739.2C721.1,742.2 719.1,742.3 717.4,742.8C670.8,755.7 624.2,768.6 577.6,781.3C552,788.4 526.5,795.6 500.9,802.6C499.8,803 498.2,802.7 496.9,802.4C424.5,782.5 352.2,762.6 279.9,742.8C276.6,742 276.5,739.9 276.3,737.6C274.5,714.4 272.6,691.3 270.9,668.1C268.5,636.9 266,605.8 263.6,574.5C263.5,573.7 263.5,572.7 263.4,571.6L370.6,571.6C371.5,581.7 372.5,591.9 373.3,601.8C374.9,619.5 376.5,637.1 378,654.9C378.1,656.9 378.8,657.7 380.7,658.3C419.5,668.6 458.2,679.1 497.1,689.5C498.5,689.9 500.1,689.7 501.5,689.4C539.8,679.1 578.1,668.7 616.5,658.5C618.8,657.8 619.8,656.8 620.1,654.5C624.3,609.2 628.6,563.9 633,518.8C633,518.7 632.9,518.4 632.9,518L257.7,518C247.9,408.7 238.1,299.7 228.3,190.5L771.4,190.5C768.2,226 764.8,261.5 761.4,297.3Z" style="fill-rule:nonzero;"/>
    </g>
</svg>
