<svg xmlns="http://www.w3.org/2000/svg" width="24" height="24" viewBox="0 0 24 24"><path fill="currentColor" d="M12 0C5.377 0 0 5.377 0 12s5.377 12 12 12s12-5.377 12-12S18.623 0 12 0m-1.613 6.15a.9.9 0 0 1 .59.176q.647.477 1.177 1.082h2.588a.91.91 0 0 1 .912.906a.91.91 0 0 1-.912.907h-1.43c.4.908.604 1.889.602 2.88a7.1 7.1 0 0 1-.601 2.883h1.427a.91.91 0 0 1 .914.907a.91.91 0 0 1-.914.906h-2.588a7.4 7.4 0 0 1-1.175 1.082a.92.92 0 0 1-1.28-.19a.904.904 0 0 1 .191-1.268a5.32 5.32 0 0 0 2.2-4.32c0-1.715-.801-3.29-2.2-4.32a.906.906 0 0 1-.191-1.268H9.7a.92.92 0 0 1 .688-.363zm-.778 4.295a1.36 1.36 0 0 1 1.354 1.354v.033a1.36 1.36 0 0 1-1.354 1.32a1.36 1.36 0 0 1-1.353-1.32v-.033a1.36 1.36 0 0 1 1.353-1.354"/></svg>