<svg xmlns="http://www.w3.org/2000/svg" width="24" height="24" viewBox="0 0 24 24"><path fill="none" stroke="currentColor" stroke-linecap="round" stroke-linejoin="round" stroke-width="1.5" d="M18.5 3h-13c-.465 0-.697 0-.89.038A2 2 0 0 0 3.038 4.61C3 4.803 3 5.035 3 5.5s0 .697.038.89A2 2 0 0 0 4.61 7.962C4.803 8 5.035 8 5.5 8h13c.465 0 .697 0 .89-.038a2 2 0 0 0 1.572-1.572C21 6.197 21 5.965 21 5.5s0-.697-.038-.89a2 2 0 0 0-1.572-1.572C19.197 3 18.965 3 18.5 3m0 8h-13c-.465 0-.697 0-.89.038a2 2 0 0 0-1.572 1.572C3 12.803 3 13.035 3 13.5s0 .697.038.89a2 2 0 0 0 1.572 1.572c.193.038.425.038.89.038h13c.465 0 .697 0 .89-.038a2 2 0 0 0 1.572-1.572c.038-.193.038-.425.038-.89s0-.697-.038-.89a2 2 0 0 0-1.572-1.572C19.197 11 18.965 11 18.5 11M12 19v2m-7 0h14M6 13.5h.01M6 5.5h.01m2.99 8h.01M9 5.5h.01"/></svg>