<svg xmlns="http://www.w3.org/2000/svg" width="24px" height="24px" viewBox="0 0 24 24"><g fill="none" stroke="currentColor" stroke-width="1.5"><path stroke-linecap="round" stroke-linejoin="round" d="m16 10l1.227 1.057c.515.445.773.667.773.943s-.258.498-.773.943L16 14m-8-4l-1.227 1.057C6.258 11.502 6 11.724 6 12s.258.498.773.943L8 14m5-5l-2 6"/><path d="M2.5 12c0-4.478 0-6.718 1.391-8.109S7.521 2.5 12 2.5c4.478 0 6.718 0 8.109 1.391S21.5 7.521 21.5 12c0 4.478 0 6.718-1.391 8.109S16.479 21.5 12 21.5c-4.478 0-6.718 0-8.109-1.391S2.5 16.479 2.5 12Z"/></g></svg>
