<svg xmlns="http://www.w3.org/2000/svg" width="24" height="24" viewBox="0 0 24 24"><g fill="none" stroke="currentColor" stroke-width="1.5"><path stroke-linecap="round" d="M20 10.128c0-3.832 0-5.747-1.172-6.938S15.771 2 12 2h-2C6.229 2 4.343 2 3.172 3.19S2 6.296 2 10.128s0 5.747 1.172 6.938c.47.477 1.054.763 1.828.934"/><path d="M22 17.5c0-1.875 0-2.812-.477-3.47a2.5 2.5 0 0 0-.553-.553C20.312 13 19.375 13 17.5 13h-5c-1.875 0-2.812 0-3.47.477a2.5 2.5 0 0 0-.553.553C8 14.689 8 15.626 8 17.5s0 2.812.477 3.47a2.5 2.5 0 0 0 .554.553C9.688 22 10.625 22 12.5 22h5c1.875 0 2.812 0 3.47-.477a2.5 2.5 0 0 0 .553-.553C22 20.312 22 19.375 22 17.5Z"/><path stroke-linecap="round" stroke-linejoin="round" d="m16.5 16l.92.793c.387.333.58.5.58.707s-.193.374-.58.707L16.5 19m-3-3l-.92.793c-.387.333-.58.5-.58.707s.193.374.58.707l.92.793M2.5 6h17"/></g></svg>