<?xml version="1.0" encoding="UTF-8" standalone="no"?>
<svg
   xmlns:dc="http://purl.org/dc/elements/1.1/"
   xmlns:cc="http://creativecommons.org/ns#"
   xmlns:rdf="http://www.w3.org/1999/02/22-rdf-syntax-ns#"
   xmlns:svg="http://www.w3.org/2000/svg"
   xmlns="http://www.w3.org/2000/svg"
   id="Layer_1"
   data-name="Layer 1"
   viewBox="0 0 160.42611 23.926155"
   version="1.1"
   width="160.42612"
   height="23.926155">
  <defs
     id="defs4">
    <style
       id="style2">.cls-1{fill:#221f20;}.cls-2{fill:#539350;}</style>
  </defs>
  <path
     class="cls-1"
     d="m 56.836119,14.466155 c 0,3.36 -2.65,5.57 -6.16,5.57 -3.51,0 -6.13,-2.21 -6.13,-5.57 0,-3.36 2.63,-5.5700004 6.16,-5.5700004 3.53,0 6.13,2.2000004 6.13,5.5700004 z m -2.34,0 a 3.83,3.83 0 1 0 -3.82,3.6 3.51,3.51 0 0 0 3.87,-3.6 z"
     id="path8" />
  <path
     class="cls-1"
     d="m 65.416119,20.036155 a 4.86,4.86 0 0 1 -3.65,-1.49 v 5.38 h -2.22 V 9.2261546 h 2.25 v 1.2200004 a 4.83,4.83 0 0 1 3.65,-1.5500004 c 3.57,0 5.87,2.1800004 5.87,5.5700004 0,3.39 -2.46,5.57 -5.9,5.57 z m -0.24,-9.17 c -2.23,0 -3.58,1.06 -3.58,3.6 0,2.54 1.35,3.6 3.58,3.6 a 3.54,3.54 0 0 0 3.77,-3.6 3.44,3.44 0 0 0 -3.77,-3.6 z"
     id="path10" />
  <path
     class="cls-1"
     d="m 84.346119,15.106155 h -8.51 a 3.41,3.41 0 0 0 3.55,3 8.05,8.05 0 0 0 4,-1 v 2 a 8.61,8.61 0 0 1 -4,0.85 5.5,5.5 0 0 1 -5.78,-5.57 5.3,5.3 0 0 1 5.33,-5.5700004 c 3.22,0 5.4,1.9400004 5.4,5.7900004 z m -2.2,-1.78 a 2.88,2.88 0 0 0 -3.2,-2.53 3.09,3.09 0 0 0 -3,2.53 z"
     id="path12" />
  <path
     class="cls-1"
     d="m 95.026119,19.726155 v -6.7 c 0,-1.45 -0.54,-2.16 -2.23,-2.16 -2.2,0 -3.51,1.07 -3.51,2.85 v 6 h -2.25 V 9.2261546 h 2.25 v 1.2600004 a 4.48,4.48 0 0 1 3.51,-1.5900004 c 2.89,0 4.48,1.4300004 4.48,3.8700004 v 7 z"
     id="path14" />
  <path
     class="cls-1"
     d="m 109.11612,16.996155 c 0,1.95 -1.61,3 -5,3 a 9,9 0 0 1 -4.07,-0.85 v -2.05 a 7.94,7.94 0 0 0 4.07,1 c 2,0 2.69,-0.4 2.69,-1.14 0,-0.94 -1.12,-1.3 -3,-1.82 -1.88,-0.52 -3.74,-1.33 -3.74,-3.43 0,-1.8000004 1.72,-2.8500004 4.78,-2.8500004 a 7.94,7.94 0 0 1 3.77,0.81 v 2.1100004 a 6.57,6.57 0 0 0 -3.74,-1 c -1.43,0 -2.5,0.28 -2.5,1 0,0.72 0.74,1 2.71,1.63 1.97,0.63 4.03,1.14 4.03,3.59 z"
     id="path16" />
  <path
     class="cls-1"
     d="m 121.03612,9.7461546 v 2.1200004 a 6.39,6.39 0 0 0 -3.46,-1 c -2.23,0 -3.88,1.25 -3.88,3.6 0,2.35 1.68,3.6 3.88,3.6 a 6.56,6.56 0 0 0 3.46,-1 v 2.15 a 7.34,7.34 0 0 1 -3.46,0.83 c -3.65,0 -6.21,-2.25 -6.21,-5.57 0,-3.5 2.47,-5.5700004 6.21,-5.5700004 a 6.89,6.89 0 0 1 3.46,0.84 z"
     id="path18" />
  <path
     class="cls-1"
     d="m 130.95612,9.2261546 v 2.1800004 a 3.53,3.53 0 0 0 -1.72,-0.44 2.92,2.92 0 0 0 -3.27,3.17 v 5.59 h -2.25 V 9.2261546 h 2.25 v 1.4700004 a 3.94,3.94 0 0 1 3.29,-1.8000004 3.8,3.8 0 0 1 1.7,0.33 z"
     id="path20" />
  <path
     class="cls-1"
     d="m 134.32612,7.5461546 a 1.36,1.36 0 1 1 1.35,-1.34 1.35,1.35 0 0 1 -1.35,1.34 z m -1.12,1.67 h 2.25 V 19.716155 h -2.25 z"
     id="path22" />
  <path
     class="cls-1"
     d="m 144.54612,20.036155 a 4.86,4.86 0 0 1 -3.64,-1.49 v 5.38 h -2.25 V 9.2261546 h 2.25 v 1.2200004 a 4.83,4.83 0 0 1 3.64,-1.5500004 c 3.56,0 5.86,2.1800004 5.86,5.5700004 0,3.39 -2.41,5.57 -5.86,5.57 z m -0.24,-9.17 c -2.24,0 -3.59,1.06 -3.59,3.6 0,2.54 1.35,3.6 3.59,3.6 a 3.54,3.54 0 0 0 3.77,-3.6 3.44,3.44 0 0 0 -3.76,-3.6 z"
     id="path24" />
  <path
     class="cls-1"
     d="m 160.42612,17.216155 v 2.18 a 5.71,5.71 0 0 1 -2.88,0.64 c -2.49,0 -3.73,-1.28 -3.73,-3.82 v -5.06 h -2.1 V 9.2261546 h 2.1 v -2.44 h 2.25 v 2.44 h 3.72 v 1.9300004 h -3.72 v 5.16 c 0,1.14 0.53,1.75 1.69,1.75 a 4.74,4.74 0 0 0 2.67,-0.85 z"
     id="path26" />
  <path
     class="cls-2"
     d="m 19.016119,0.66615457 c -9,-2.09999997 -17.47,0.93000003 -18.82999998,6.77000003 C -1.173881,13.276155 5.066119,19.706155 14.106119,21.806155 c 0.41,0.1 0.82,0.17 1.23,0.25 l -5.43,-9.61 1.78,-1 4.8,8.49 V 7.6161546 h 2 V 19.976155 l 3.83,-6.79 1.79,1 -4.67,8.28 c 6.8,0.09 12.38,-2.77 13.46,-7.42 1.4,-5.8400004 -4.83,-12.2800004 -13.88,-14.38000043 z"
     id="path28" />
</svg>
