<svg xmlns:xlink="http://www.w3.org/1999/xlink" width="214.1220736368727" xmlns="http://www.w3.org/2000/svg" id="screenshot" version="1.1" viewBox="-0.122072291683196 0.20277110149572763 214.1220736368727 183.94682932432988" height="183.94682932432988" style="-webkit-print-color-adjust: exact;"><g id="shape-77fbf930-698d-11ec-8dda-41b397486b5e"><g id="shape-77fc2040-698d-11ec-8dda-41b397486b5e"><g id="shape-77fc6e60-698d-11ec-8dda-41b397486b5e"><g id="shape-77fe1c10-698d-11ec-8dda-41b397486b5e"><path d="M74.84099583333443,183.12091861297995C73.43727347907782,182.3900657755289,72.2819702281621,181.32229431048427,71.70715451957255,180.09049678461497L0.3152340314883304,25.463324638358245C-0.8344446888874018,22.99970495804928,0.3081059416309131,21.449147303537757,3.4447368045072153,21.21685396523708L20.98525075626992,19.918261489036468L23.537632455066046,25.38770297723704L11.219454694506453,26.29965466020394C8.278903085573006,26.517472611155426,7.207643176176703,27.97116967052216,8.285452194280083,30.28080542438329L75.21661561190388,175.24651171856658C75.75575663693792,176.4014527383506,76.8389421281646,177.40253466540025,78.15491705303123,178.08770150408282C79.47089197789808,178.77286834276447,81.01965633640464,179.14212009307812,82.4897185800163,179.03327761653645L200.13684254476573,170.32436706226918C203.07554793609563,170.10594325206284,204.58559616091213,168.0590636999791,203.50826017477323,165.7496742318258L197.96263851891206,153.86729798451324L200.9357153394859,153.64722386281892L208.549009320889,169.96057490481462C209.6986407380681,172.42416995655276,208.08738087165113,174.60706023216153,204.95115208594473,174.83956291331378L79.46530585688822,184.12944939220415C77.89685964518878,184.2457056602875,76.24471818759105,183.851771450431,74.84099583333443,183.12091861297995Z" style="fill-rule: nonzero; stroke: none; fill: rgb(179, 179, 179); fill-opacity: 1;"/></g><g id="shape-77feb850-698d-11ec-8dda-41b397486b5e"><path d="M203.50826017477323,165.7496742318258C204.58559616091213,168.0590636999791,203.07554793609586,170.10594325206284,200.13684254476573,170.32436706226872L82.4897185800163,179.03327761653645C79.5495940927932,179.2509625696198,76.29466114598938,177.5562706152814,75.21661561190388,175.24651171856658L8.285452194280083,30.280805424382834C7.207643176176703,27.97116967052216,8.278903085573234,26.517472611155426,11.219454694506453,26.29965466020394L128.86539607934503,17.590128391666894C131.80575708255026,17.37256658143815,135.06069002935408,19.067258535776546,136.13849904745746,21.376894289637676L203.50826017477323,165.7496742318258Z" style="fill-rule: nonzero; stroke: none; fill: rgb(59, 59, 59); fill-opacity: 1;"/></g><g id="shape-77ff0670-698d-11ec-8dda-41b397486b5e"><path d="M208.59184243211428,152.2241698624539C197.61314665017028,162.3786454150163,196.86348068140353,168.0600007626781,196.86348068140353,168.0600007626781L79.46341372105246,176.4408787745142L91.19059289185213,160.60443216002113L208.59184243211428,152.2241698624539Z" style="fill-rule: nonzero; stroke: none; fill: rgb(234, 226, 202); fill-opacity: 1;"/></g><g id="shape-77ff5490-698d-11ec-8dda-41b397486b5e"><path d="M208.59184243211428,152.2241698624539L91.19035637587001,160.604309017167L88.59766761566596,164.10606787174083L204.7684829843414,155.99814767150383C205.88023602208466,154.81856423249246,207.1443074842456,153.56085245256372,208.59184243211428,152.2241698624539Z" style="fill-rule: nonzero; stroke: none; fill: rgb(178, 172, 153); fill-opacity: 1;"/></g><g id="shape-77ffa2b0-698d-11ec-8dda-41b397486b5e"><path d="M194.61872467977594,154.07020776760965L183.4738171543105,169.04701193941855L167.06334236651185,170.21858273122098L178.07809716549616,155.33642287009343L194.61872467977594,154.07020776760965Z" style="fill-rule: nonzero; stroke: none; fill: rgb(32, 32, 32); fill-opacity: 1;"/></g><g id="shape-77fff0d0-698d-11ec-8dda-41b397486b5e"><path d="M84.1406332496482,176.10696622181285L95.01926457301226,161.48799063901424C95.01926457301226,161.48799063901424,91.80447495550754,160.19267940762438,88.9153782268537,164.25371597416097C87.4082249065624,166.37211267653583,79.72750541982293,176.42201171133001,79.72750541982293,176.42201171133001L84.1406332496482,176.10696622181285Z" style="fill-rule: nonzero; stroke: none; fill: rgb(178, 172, 153); fill-opacity: 1;"/></g><g id="shape-78006600-698d-11ec-8dda-41b397486b5e"><path d="M213.6510513295683,148.38003775683364C214.73075247552913,150.69065865352513,213.22089485644085,152.73728206488704,210.2796336995608,152.95473058727703L92.63506550036129,161.66461642936065C89.69451389142785,161.8824343803126,86.43958094462403,160.1877424259742,85.36196253224887,157.87785053139032L17.99319337911595,13.505942444193806C16.91526610302151,11.196245118905608,18.423870187404304,9.148969050419055,21.3643744931411,8.931126470896288L139.01031587797968,0.22160020235969569C141.9506768811849,0.004038392130496504,145.20560982798872,1.6987303464693468,146.2834188460921,4.008366100330022L213.6510513295683,148.38003775683364Z" style="fill-rule: nonzero; stroke: none; fill: rgb(59, 59, 59); fill-opacity: 1;"/></g><g id="shape-780213b0-698d-11ec-8dda-41b397486b5e"><path d="M91.66348414093034,161.18825583700254C91.34876110679636,160.34028724191057,90.88808624909814,159.54248831860878,90.5058153023416,158.73149286197076C89.76670982150347,157.16219271107047,89.02741373493734,155.59314870089247,88.28788113238909,154.02398154786079C87.24077711948883,151.80140850891667,86.19343659060644,149.5787123271184,85.14609606172382,147.35601614532106C83.83654615387638,144.57638492449132,82.52680564030072,141.79700984438387,81.21725573245305,139.01737862355458C79.69066787129907,135.77753935129658,78.16408001014508,132.53770007903813,76.63772866497322,129.29798394963382C74.93989200361,125.69427447495946,73.24186473651855,122.09082114100738,71.5438374694271,118.48736780705485C69.72039646547762,114.61676140327472,67.89676485579992,110.74641114021688,66.07308733586831,106.87568159358307C64.16897689900918,102.83478210544581,62.26505706787805,98.79362647658718,60.36118314700104,94.75285013130451C58.42242894631147,90.63811855067706,56.4834841398939,86.5236431107719,54.544920544932324,82.40865538942262C52.616930522053394,78.31694184676144,50.688894588920334,74.22484902052474,48.76090456604118,70.13313547786356C46.88923135808784,66.16065467932776,45.01755815013428,62.188173880791055,43.14588494218049,58.2156930822548C41.37593649079338,54.45929515830039,39.60622455538862,50.703020377199664,37.83608549827329,46.94687859396754C36.21388747253184,43.50302453646009,34.591071719352044,40.05955961754398,32.96868308788237,36.61596170075927C31.53897979173496,33.581511495171526,30.109085889859784,30.54731743030561,28.6796191096945,27.512990367571547C27.488482122474693,24.984784289345043,26.297299225000756,22.45619892754212,25.105925721798826,19.92786970646148C24.19848055891123,18.00225545962303,23.291035396023403,16.076641212784125,22.3837808388638,14.150770825223844C21.80605316938761,12.924209401639018,21.227898378201303,11.697780975923251,20.650170708725113,10.47121955233888C20.446904836608724,10.040570937480425,20.244302602184803,9.609912467607046,20.041227335796634,9.17900771202585C18.834037965816265,8.987953526211186,17.366447656346168,10.060452728525433,17.366447656346168,10.060452728525433L17.382925741908252,10.094974857967827C17.303528179630234,10.168068685076832,17.227660248834923,10.247620170062874,17.160021652856017,10.337853130743042L17.145345011795257,10.357575966357672L7.1776184628355395,23.752455037431446C6.808605773309068,24.248343475744605,6.53127233550947,24.772419116051424,6.341494527377222,25.300501405222803C6.230623851837095,25.60881786224718,6.242630477963871,25.918919263046973,6.362826990632925,26.174826841392132C6.362826990632925,26.174826841392132,75.83274741981029,174.52746025010129,75.84713026372708,174.5584038231068C76.27079534513916,175.4623827066598,76.59649832134357,176.60428142518958,77.38524600424796,177.25269498410535C77.60919849631762,177.43681886054446,77.88071187915227,177.5799601317617,78.19824766171553,177.62729997983024C78.36798156533757,177.65277021293787,78.60556002145324,177.57780869020826,78.75721011777125,177.6095002580887C78.80719160183924,177.61597737495276,78.84500089889968,177.60794325543702,78.8665393461705,177.57899935382056C80.14111984971566,175.86618634400565,81.41589095898883,174.15311719346846,82.690280856806,172.44056032437584C84.66038166204646,169.79308981900022,86.75684596343456,167.21922926482648,88.87322351758019,164.6560919939493C89.60610069429492,163.76824876184492,90.2937231530235,162.74454334869733,91.23362942102233,162.02916972465482C91.77037785217078,161.62096885327946,91.906583909897,161.8436323672072,91.66348414093034,161.18825583700254Z" style="fill-rule: nonzero; stroke: none; fill: rgb(25, 25, 25); fill-opacity: 1;"/></g><g id="shape-780261d0-698d-11ec-8dda-41b397486b5e"><path d="M15.204978700132301,12.965088519059464C15.126258534443082,13.07087463735661,87.44246286882742,166.05445983675781,87.44246286882742,166.05445983675781L83.74814264754548,171.01897931578105L11.510849084578581,17.92935185736087L15.204978700132301,12.965088519059464Z" style="fill-rule: nonzero; stroke: none; fill: rgb(47, 47, 47); fill-opacity: 1;"/></g><g id="shape-78032520-698d-11ec-8dda-41b397486b5e"><path d="M105.94995543344214,156.44767489033757C105.53368730479986,156.2309434676058,105.75968813229372,155.44701188739327,106.41352320373142,155.37448150490854C112.08895530727216,154.7464709760443,117.75190593376931,154.19476552073593,123.4084092256013,153.6795058261123C132.68893490616222,152.83495455325283,141.95339370366185,152.08651979503702,151.19921308040068,151.4495650224644C159.32078401170213,150.88933985484073,167.43186722176404,150.3925979869664,175.526199016938,149.99730231382955L176.5579434204193,152.20832451722163C167.93144753900913,152.99110820061014,159.32398621923915,153.65835306685722,150.72889366186962,154.25385411747675C141.4822979327954,154.89538000299171,132.2546240507187,155.42592832929267,123.04278053572068,155.8602369980963C117.42850359037072,156.12383919518197,111.81967504079205,156.35189705161747,106.22432690715107,156.50274841446299C106.11297350558573,156.5055419076475,106.02185629202575,156.48511031790076,105.94995543344214,156.44767489033757ZM193.0020111526211,150.60575413681863L192.39039105553036,149.29509039914547C193.5211156895258,149.25904756966247,194.65192517931803,149.22553658235938,195.7818205860125,149.19545885726984C195.8929374715957,149.19254222123163,195.9842912011378,149.21309695383206,196.0559555437393,149.25040923854112C196.47222367238157,149.46714066127288,196.24617693463358,150.25069295790945,195.592768984906,150.32309034252603C194.72881248963188,150.41913249994423,193.86529008077957,150.51326838446766,193.0020111526211,150.60575413681863Z" style="fill-rule: nonzero; stroke: none; fill: rgb(96, 96, 96); fill-opacity: 1;"/></g><g id="shape-78037340-698d-11ec-8dda-41b397486b5e"><path d="M194.61872467977594,154.07020776760965L178.00059781442508,155.3003371312443L106.72920422396999,2.564704469191838L123.34709457333872,1.3344519627039517L194.61872467977594,154.07020776760965Z" style="fill-rule: nonzero; stroke: none; fill: rgb(41, 41, 41); fill-opacity: 1;"/></g><g id="shape-7803e870-698d-11ec-8dda-41b397486b5e"><path d="M176.5579434204193,152.20832451722163L175.526199016938,149.99730231382955C176.64647388019,149.94266970644003,177.76631465702042,149.88994337194572,178.88614846913936,149.83899031247802C183.39262890134216,149.62692235174927,187.894892270666,149.43860152075285,192.39039105553036,149.29509039914547L193.0020111526211,150.60575413681863C188.16665439486553,151.12351180500082,183.34074463118543,151.5893272436292,178.5186846483515,152.02836128391664C177.8647536344207,152.08911416551382,177.21139443767413,152.1490986249437,176.5579434204193,152.20832451722163Z" style="fill-rule: nonzero; stroke: none; fill: rgb(81, 81, 81); fill-opacity: 1;"/></g></g></g><g id="shape-78040f80-698d-11ec-8dda-41b397486b5e"><g id="shape-78040f81-698d-11ec-8dda-41b397486b5e"><g id="shape-7804abc0-698d-11ec-8dda-41b397486b5e"><path d="M98.62808643821006,141.32214719355306L192.0711081423782,134.65152752319955L136.94615280212872,16.518240907557356L43.50313109796059,23.188860577910873Z" style="fill-rule: nonzero; stroke: none; fill: rgb(255, 255, 255); fill-opacity: 1;"/></g><g id="shape-7804d2d0-698d-11ec-8dda-41b397486b5e"><path d="M98.62808643821006,141.32214719355306L192.07111209814082,134.65152724081008L136.94615509100925,16.518237053023768L43.50312943107849,23.188857005767204L98.62808643821006,141.32214719355306Z" style="fill: none; stroke-linejoin: miter; stroke-miterlimit: 4; stroke-dasharray: none; stroke-opacity: 1; stroke-width: 2.835; stroke: rgb(35, 31, 32);"/></g><g id="shape-780520f0-698d-11ec-8dda-41b397486b5e"><path d="M99.708387408764,139.50038338682134L189.41360912951552,133.0965941510849L135.8637461761681,18.338745016334542L46.15852445541634,24.742534252070982Z" style="fill-rule: nonzero; stroke: none; fill: rgb(0, 127, 70); fill-opacity: 1;"/></g><g id="shape-78054800-698d-11ec-8dda-41b397486b5e"><path d="M87.380965882125,26.159351964348843L90.56627770346051,25.931962018004015L103.97173538180425,56.44636083538944L93.16044141240184,57.27523657786014L87.380965882125,26.159351964348843Z" style="fill-rule: nonzero; stroke: none; fill: rgb(255, 255, 255); fill-opacity: 1;"/></g><g id="shape-78059620-698d-11ec-8dda-41b397486b5e"><path d="M95.77825851075966,25.559894194633216L98.8455567509344,25.34092888719124L121.21497275863555,55.27250694403892L110.49103248801464,56.03805717570185L95.77825851075966,25.559894194633216Z" style="fill-rule: nonzero; stroke: none; fill: rgb(255, 255, 255); fill-opacity: 1;"/></g><g id="shape-78060b50-698d-11ec-8dda-41b397486b5e"><path d="M70.35781154810672,64.1832204376642L148.84828835935934,58.580018518422094L150.85438087484852,62.8790932414222L141.20864960216034,63.56767333642665L145.15532616960843,72.0254375421996L140.541192934356,72.35482680379846L134.4482514947848,64.0502780700067L88.68403516697492,67.31724949352383L90.12842823756989,75.95364428305265L85.50981180482097,76.28335358679988L81.56313523737288,67.82558938102693L72.36390406359612,68.48229516066431L70.35781154810672,64.1832204376642Z" style="fill-rule: nonzero; stroke: none; fill: rgb(255, 255, 255); fill-opacity: 1;"/></g><g id="shape-78063260-698d-11ec-8dda-41b397486b5e"><path d="M95.64821174380347,71.20529173763089L110.10996325905774,70.28389046142684L137.56567100088284,132.44395882042454L107.45597599283167,134.59340048151444L95.64821174380347,71.20529173763089Z" style="fill-rule: nonzero; stroke: none; fill: rgb(255, 255, 255); fill-opacity: 1;"/></g><g id="shape-78068080-698d-11ec-8dda-41b397486b5e"><path d="M117.03715142384033,69.67839888725484L131.26853444180267,68.66246273959314L176.60350877879148,129.65716357536303L146.67566017272736,131.7936237621384L117.03715142384033,69.67839888725484Z" style="fill-rule: nonzero; stroke: none; fill: rgb(255, 255, 255); fill-opacity: 1;"/></g></g></g><g id="shape-7806a790-698d-11ec-8dda-41b397486b5e"><path d="M194.69622925524743,154.10628833761666L178.078095358302,155.3364238186591L106.80670336325818,2.600784910061975L123.42460495131706,1.3705379031921439L194.69622925524743,154.10628833761666Z" style="fill-rule: nonzero; stroke: none; fill: rgb(41, 41, 41); fill-opacity: 1; stroke-width: 0.0262924;"/></g></g></svg>