<?xml version="1.0" encoding="UTF-8" standalone="no"?>
<!DOCTYPE svg PUBLIC "-//W3C//DTD SVG 1.1//EN" "http://www.w3.org/Graphics/SVG/1.1/DTD/svg11.dtd">
<svg width="100%" height="100%" viewBox="0 0 313 317" version="1.1" xmlns="http://www.w3.org/2000/svg" xmlns:xlink="http://www.w3.org/1999/xlink" xml:space="preserve" xmlns:serif="http://www.serif.com/" style="fill-rule:evenodd;clip-rule:evenodd;stroke-linejoin:round;stroke-miterlimit:2;">
    <g transform="matrix(1,0,0,1,-159.522,-23.7719)">
        <path id="path496" d="M166.736,133.828C192.808,127.65 214.245,119.194 241.736,125.039C267.137,130.438 288.798,148.644 315.736,147.785C343.077,146.913 365.419,129.88 391.736,124.494C417.126,119.297 441.436,126.269 464.736,135.828C461.804,115.972 448.397,94.959 435.815,79.828C374.238,5.77 256.339,4.407 194.997,79.828C182.964,94.622 169.585,114.533 166.736,133.828M316.736,25.828L352.536,85.828L368.736,115.828L261.736,115.828L278.736,84.828L313.736,25.828L316.736,25.828M159.736,170.828C181.19,164.647 199.21,152.757 222.736,154.998C255.192,158.088 282.793,180.409 315.736,179.774C349.842,179.116 377.637,156.432 411.736,154.932C433.621,153.97 452.413,164.544 471.736,172.828C471.564,151.989 451.306,148.147 433.736,143.958C416.49,139.847 396.565,140.861 379.736,146.347C354.425,154.596 333.603,168.355 305.736,165.658C276.111,162.791 252.112,141.84 221.736,141.828C201.234,141.82 159.753,144.485 159.736,170.828M159.736,201.828C181.155,198.01 198.514,184.779 221.736,186.998C258.365,190.498 287.792,212.465 325.736,210.789C349.52,209.738 369.088,195.322 391.736,190.253C421.183,183.662 444.471,192.565 470.736,204.828C470.815,200.977 472.965,194.828 470.707,191.438C468.019,187.399 461.028,185.184 456.736,183.431C444.295,178.352 431.186,174.839 417.736,173.918C382.421,171.499 354.2,196.969 319.736,197.813C284.794,198.669 256.901,174.238 222.736,173.832C206.625,173.64 190.763,176.267 175.736,182.228C171.283,183.995 163.48,185.961 160.764,190.218C158.824,193.26 159.736,198.375 159.736,201.828M163.736,221.828C176.482,266.745 205.434,306.625 248.736,326.519C334.358,365.856 446.824,319.045 466.736,222.828C444.193,210.34 420.695,203.261 394.736,208.138C379.206,211.056 365.588,219.42 350.736,224.309C336.67,228.939 321.478,230.434 306.736,229.789C284.55,228.817 265.459,217.167 244.736,210.867C217.706,202.65 187.574,206.638 163.736,221.828M369.736,247.828C356.514,279.419 334.394,309.5 316.736,338.828L314.736,338.828L260.736,247.828C271.816,244.553 286.195,246.828 297.736,246.828C320.313,246.828 347.779,242.6 369.736,247.828L369.736,247.828Z" style="fill:rgb(5,165,251);fill-rule:nonzero;"/>
    </g>
</svg>
