<?xml version="1.0" encoding="UTF-8"?>
<!-- Generator: Adobe Illustrator 21.1.0, SVG Export Plug-In . SVG Version: 6.00 Build 0)  -->
<svg version="1.1" id="Слой_1" xmlns="http://www.w3.org/2000/svg" xmlns:xlink="http://www.w3.org/1999/xlink" x="0px" y="0px" viewBox="0 0 1275.6 311.8" style="enable-background:new 0 0 1275.6 311.8;" xml:space="preserve">
<style type="text/css">
	.st0{fill:#6F4926;}
	.st1{fill:#FFFFFF;}
</style>
<g>
	<g>
		<path class="st0" d="M49.7,169.6l-34.1-139H5.8V2.2h75v28.4H61.7l10.2,48.6c3.5,16.8,5.7,27.6,6.2,32.2c0.5,3,1.1,9.4,1.9,19h1.5    c1.1-9.8,1.9-16.3,2.3-19.4c0.7-6.2,3.2-19,7.5-38.4L107.1,2h51.5L172,64.7c4.8,22.9,7.8,38.4,8.9,46.6c0.4,3,1.1,9.3,1.9,19.1    h1.9c0.9-9.7,1.8-16.2,2.2-19.1c0.8-5.8,3.1-17.5,6.7-35l9.7-45.8h-18.6V2.2h67.2v28.4h-9.8l-34.8,139H152L142,123    c-4.3-19.9-7.3-37.7-9-53.1c-0.7-5.1-1.6-15.8-3-32.1h-2.7c-1.3,16.6-2.3,27.3-3,32.5c-2.2,19-5.8,40-10.9,62.9l-8.4,36.4H49.7    L49.7,169.6z"/>
		<path class="st0" d="M378.3,2.2l55.1,139h10.1v28.4H364v-28.4h18.7l-7.3-19.7h-59.8l-7.3,19.7h18.9v28.4h-72.1v-28.4h10.2    l55.9-139C321.3,2.2,378.3,2.2,378.3,2.2z M327.4,93.9H364l-18.3-55.4L327.4,93.9z"/>
		<path class="st0" d="M599.3,151.2c-2.2,5.3-5.4,9.6-9.6,12.7c-4,3-9.7,5.4-16.7,7.3c-7,1.8-14.4,2.7-22.1,2.7    c-26.1,0-46.7-8.8-61.6-26.1C475.7,132,469,111,469,85c0-28.6,7.5-50.8,22.8-66.5C505,4.7,523.9-2,548.4-2    c19.3,0,33.3,3.9,42,11.6c3.4,3,6.3,7,8.9,11.9V2.2h38.3v58.6h-41.9c-0.8-7-3-13.3-6.3-19.1c-2.4-4-6.2-7.3-11.2-9.7    c-5.4-2.6-11.2-3.9-17.5-3.9c-8.4,0-15.5,2.2-21.7,6.3c-6.1,4.3-10.8,10.4-14,18.5c-3.9,9.4-5.8,20.6-5.8,33.5    c0,16.2,2.8,29.1,8.6,39.1c7,12,19.5,18.1,37.9,18.1c12.5,0,21.8-4.7,27.9-14c3.2-5,5.3-11.3,5.9-18.9h-20.9V82.2h74.1v28.6h-13.1    v58.9h-40.1v-18.5H599.3z"/>
		<path class="st0" d="M801.8,169.6l-42.6-83.8c-6.6-13.1-12.9-29.4-19.3-48.8H739c1.8,23,2.8,38.1,3.1,45.4    c0.5,9.3,1.1,29,1.5,58.7h17.2v28.4h-73v-28.4h16.6V30.7h-16.6V2.2h81l36.2,74c7.1,15,14.1,32.6,21,52.8h0.9    c-2.6-30-4-49.7-4.2-59c-0.3-6.2-0.5-19.3-0.7-39.2h-17V2.2h73v28.4h-16.7v139H801.8z"/>
		<path class="st0" d="M966.3,70.6h17.1V54.2h29.4v60.6h-29.4V98.2h-17.1v43h56.7v-26.4h36.5v54.8H903.8v-28.4h16.6V30.7h-16.6V2.2    h155.7v52H1023V30.6h-56.7V70.6z"/>
		<path class="st0" d="M1165.3,102.7v38.5h18.2v28.4h-80.7v-28.4h16.6V30.7h-16.6V2.2h97.7c15,0,26.5,2.2,34.6,6.5    c14,7.5,21.1,20.6,21.1,39.1c0,15.5-5.7,26.7-17.1,33.7c-5.1,3.2-13.2,5.4-24,6.5v1.8c7.4-0.1,13.9,1.3,19.5,4.4    c4.8,2.7,8.9,9,12.4,19l9.2,28.2h14.8v28.4h-55.9l-17-51.5c-1.8-5.5-4-9.3-6.7-11.6c-3.1-2.6-7.7-3.8-13.6-3.8h-12.5V102.7z     M1165.3,74.1h15.5c10.5,0,18.1-2.8,22.6-8.6c3.2-4,4.8-8.9,4.8-14.4c0-13.6-8.4-20.3-24.9-20.3h-18.2v43.4L1165.3,74.1    L1165.3,74.1z"/>
	</g>
	<g>
		<path class="st1" d="M76.9,234.4l-10.4,1.3l-0.3,42.7c0,23.6-11.2,33.3-27.6,33.3c-16.8,0-28.3-9.4-28.3-31.7v-12.7    c0-10.6,0-21.4-0.3-31.9l-10-1v-3.8h32.1v3.8l-12.3,1.3c-0.1,10.4-0.1,20.9-0.1,31.7v10c0,20.5,7.9,27.3,20.5,27.3    c14.5,0,21.4-8.1,21.4-29.4l-0.1-39.5l-12.8-1.5v-3.8H77L76.9,234.4L76.9,234.4z"/>
		<path class="st1" d="M159.2,234.4l-10.1,1.5l-0.1,75h-3.6l-48.5-67.2l0.1,61l12.7,1.5v3.9h-28v-3.9l10.2-1.3l0.1-68l-0.9-1.5    l-8.9-1.1v-3.6h17l45.1,63l-0.1-57.8l-12.8-1.5v-3.8h27.9L159.2,234.4L159.2,234.4z"/>
		<path class="st1" d="M198.7,235.5c-0.3,10.4-0.3,21-0.3,31.9v5.9c0,10.5,0,21.1,0.3,31.7l12.5,1.2v3.9h-34.8v-3.9l12.7-1.2    c0.3-10.4,0.3-20.9,0.3-31.7v-5.9c0-10.6,0-21.4-0.3-31.9h-19.9l-3.1,15.9h-5.4l0.8-20.7H226l1.1,20.7h-5.4l-3.1-15.9H198.7    L198.7,235.5z"/>
		<path class="st1" d="M291.8,289.5l-0.8,20.6h-60.5v-3.9l11.3-1.2c0.3-10.4,0.3-20.9,0.3-31.7v-5.9c0-10.5,0-21.3-0.3-31.7    l-11.3-1.2v-3.9h58.3l0.8,20.5h-5.4l-3-15.6h-29.8c-0.3,10.2-0.3,20.9-0.3,32.1h19.1l1.6-11.7h4.4v27.6H272l-1.5-11.5h-19.1    c0,12.1,0,22.8,0.3,33.3h31.9l2.8-15.6h5.4V289.5z"/>
		<path class="st1" d="M368.3,306.2v3.9c-2,0.5-4.8,1.1-8.4,1.1c-7.1,0-10-2-11.2-6.9l-5.4-19.7c-2.6-9.4-6.3-11.6-16.3-11.6h-7.3    c0,11.2,0,21.6,0.3,31.8l11.3,1.2v3.9H299V306l11.3-1.2c0.3-10.4,0.3-20.9,0.3-31.7v-5.9c0-10.5,0-21.3-0.3-31.7l-11.3-1.2v-3.8    h32.5c17.8,0,28.2,7.5,28.2,20.7c0,9.6-6.9,17.9-19.9,20.2c6.7,1.5,10.4,5.5,13.1,14.1l5.9,19.3L368.3,306.2z M330.3,268.8    c12.8,0,19.7-7.4,19.7-17.4c0-10.4-5.9-16.3-18.9-16.3h-11.2c-0.3,10.5-0.3,21-0.3,33.7H330.3z"/>
		<path class="st1" d="M449.3,234.4l-10.1,1.5l-0.1,75h-3.6L387,243.7l0.1,61l12.7,1.5v3.9h-28v-3.9l10.2-1.3l0.1-68l-0.9-1.5    l-8.9-1.1v-3.6h17l45.1,63l-0.1-57.8l-12.8-1.5v-3.8h27.9v3.8L449.3,234.4L449.3,234.4z"/>
		<path class="st1" d="M513.9,289.5l-0.8,20.6h-60.5v-3.9l11.3-1.2c0.3-10.4,0.3-20.9,0.3-31.7v-5.9c0-10.5,0-21.3-0.3-31.7    l-11.3-1.2v-3.9h58.3l0.8,20.5h-5.4l-3-15.6h-29.8c-0.3,10.2-0.3,20.9-0.3,32.1h19.1l1.6-11.7h4.4v27.6h-4.4l-1.5-11.5h-19.1    c0,12.1,0,22.8,0.3,33.3h31.9l2.8-15.6h5.4v-0.2L513.9,289.5L513.9,289.5z"/>
		<path class="st1" d="M586.4,235.6c-0.3,10.4-0.3,20.9-0.3,31.7v5.9c0,10.5,0,21.1,0.3,31.7l11.5,1.2v3.9h-32.5v-3.9l11.3-1.1    c0.3-10.2,0.3-20.9,0.3-33.7h-40.7c0,12.7,0,23.3,0.3,33.5l11.3,1.2v3.9h-32.3V306l11.3-1.2c0.3-10.4,0.3-20.9,0.3-31.7v-5.9    c0-10.5,0-21.3-0.3-31.7l-11.3-1.2v-3.8h32.3v3.8l-11.3,1.2c-0.3,10.1-0.3,20.6-0.3,31.1H577c0-10.5,0-20.9-0.3-31.1l-11.3-1.2    v-3.8h32.5v3.8L586.4,235.6z"/>
		<path class="st1" d="M686.5,235.6c-0.3,10.4-0.3,20.9-0.3,31.7v5.9c0,10.5,0,21.1,0.3,31.7l11.3,1.1v3.9h-31.5V306l10.6-1.1    c0.3-10.5,0.1-21,0.3-31.4l0.1-32.7L649.9,310h-4.4l-28.6-68.7c0.3,10.4,0.5,24.8,0.5,24.8v38.7l10.5,1.3v3.9h-26.3v-3.9l10.5-1.3    l0.1-69.1l-11-1.3v-3.6h20.2l27.8,67.5l26.8-67.5h21.6v3.8L686.5,235.6z"/>
		<path class="st1" d="M777.9,234.4l-10.4,1.3l-0.3,42.7c0,23.6-11,33.3-27.6,33.3c-16.8,0-28.3-9.4-28.3-31.7v-12.7    c0-10.6,0-21.4-0.3-31.9l-10.1-1.1v-3.8H733v3.8l-12.3,1.3c-0.1,10.4-0.1,20.9-0.1,31.7v10c0,20.5,7.9,27.3,20.5,27.3    c14.5,0,21.4-8.1,21.4-29.4l-0.1-39.5l-12.8-1.5v-3.8h28.3L777.9,234.4L777.9,234.4z"/>
		<path class="st1" d="M859,234.4l-10.1,1.5l-0.1,75h-3.6l-48.5-67.2l0.1,61l12.7,1.5v3.9h-28v-3.9l10.2-1.3l0.1-68l-0.9-1.5    l-8.9-1.1v-3.6h17l45.1,63l-0.1-57.8l-12.8-1.5v-3.8H859V234.4z"/>
		<path class="st1" d="M936,276.2l-7.5,0.8c-0.3,7.1-0.3,14.5-0.3,22.5v5.4c-8.2,4.4-15.9,7.1-25.6,7.1c-23.7,0-39.7-17.4-39.7-41.5    S879.4,229,903,229c10,0,17.1,2,23.7,6.1l0.4,17.1H921l-2.4-14.4c-4.6-2.7-9.3-3.9-14.7-3.9c-17.9,0-30.4,13.6-30.4,36.8    c0,22.8,11.7,36.5,30.7,36.5c5.4,0,10-1.1,14.8-3.1v-4.7c0-7.1-0.1-14.7-0.3-22.1l-12.8-0.9v-3.9h30L936,276.2L936,276.2z"/>
		<path class="st1" d="M1003.6,289.5l-0.8,20.6h-60.5v-3.9l11.3-1.2c0.3-10.4,0.3-20.9,0.3-31.7v-5.9c0-10.5,0-21.3-0.3-31.7    l-11.3-1.2v-3.9h58.3l0.8,20.5H996l-3-15.6h-29.8c-0.3,10.2-0.3,20.9-0.3,32.1H982l1.6-11.7h4.4v27.6h-4.4l-1.5-11.5H963    c0,12.1,0,22.8,0.3,33.3h31.9l2.8-15.6h5.4v-0.2L1003.6,289.5L1003.6,289.5z"/>
		<path class="st1" d="M1090.4,234.4l-10.1,1.5l-0.1,75h-3.6l-48.5-67.2l0.1,61l12.7,1.5v3.9h-28v-3.9l10.2-1.3l0.1-68l-0.9-1.5    l-8.9-1.1v-3.6h17l45.1,63l-0.1-57.8l-12.8-1.5v-3.8h27.9L1090.4,234.4L1090.4,234.4z"/>
		<path class="st1" d="M1194,306.2v3.9h-31.5v-3.9l12-1.2l-7.1-21.7h-28l-7.1,21.4l11.5,1.5v3.9h-26.1v-3.9l9.8-1.3l25.2-74.9h6.1    l25.6,75.2L1194,306.2z M1165.8,278.9l-12.5-37.7l-12.4,37.7H1165.8z"/>
		<path class="st1" d="M1275.6,276.2l-7.5,0.8c-0.3,7.1-0.3,14.5-0.3,22.5v5.4c-8.2,4.4-15.9,7.1-25.6,7.1    c-23.7,0-39.7-17.4-39.7-41.5s16.6-41.5,40.1-41.5c10,0,17.1,2,23.7,6.1l0.4,17.1h-6.1l-2.4-14.4c-4.6-2.7-9.3-3.9-14.7-3.9    c-17.9,0-30.4,13.6-30.4,36.8c0,22.8,11.7,36.5,30.7,36.5c5.4,0,10-1.1,14.8-3.1v-4.7c0-7.1-0.1-14.7-0.3-22.1l-12.8-0.9v-3.9h30    L1275.6,276.2L1275.6,276.2z"/>
	</g>
</g>
</svg>