<?xml version="1.0" encoding="UTF-8" standalone="no"?>
<!DOCTYPE svg PUBLIC "-//W3C//DTD SVG 1.1//EN" "http://www.w3.org/Graphics/SVG/1.1/DTD/svg11.dtd">
<svg width="100%" height="100%" viewBox="0 0 896 981" version="1.1" xmlns="http://www.w3.org/2000/svg" xmlns:xlink="http://www.w3.org/1999/xlink" xml:space="preserve" xmlns:serif="http://www.serif.com/" style="fill-rule:evenodd;clip-rule:evenodd;stroke-linejoin:round;stroke-miterlimit:2;">
    <g transform="matrix(1,0,0,1,-52.18,-10.001)">
        <g transform="matrix(0.1,0,0,-0.1,0,511)">
            <path d="M2771,4975.4C2734.5,4956.2 2686.4,4917.7 2665.3,4888.9C2628.8,4837 2626.9,4806.2 2621.1,3920C2617.3,3260.6 2623,2989.5 2638.4,2951.1C2649.9,2920.3 2690.3,2870.4 2726.8,2839.6C2849.8,2731.9 3069,2772.3 3149.7,2920.3C3182.4,2978 3184.3,3054.9 3184.3,3900.8C3184.3,4800.5 3184.3,4817.8 3143.9,4871.6C3044,5006.1 2901.8,5046.5 2771,4975.4Z" />
            <path d="M6963.9,4969.6C6927.4,4946.5 6879.3,4900.4 6858.2,4871.6C6819.7,4817.8 6817.8,4794.7 6812,3923.8C6806.2,3070.2 6808.2,3027.9 6844.7,2945.3C6894.7,2833.8 6977.3,2781.9 7110,2781.9C7188.8,2781.9 7221.5,2791.5 7269.6,2831.9C7388.8,2931.9 7385,2905 7385,3887.3C7385,4675.5 7381.2,4792.8 7354.2,4850.5C7285,4996.5 7088.9,5056.1 6963.9,4969.6Z" />
            <path d="M1238.8,4166C981.2,4127.6 725.5,3935.3 602.5,3687.3L531.4,3543.1L525.6,-269.2L521.8,-4081.5L562.2,-4200.7C644.9,-4446.8 827.5,-4639 1075.5,-4739L1185.1,-4783.2L4943.5,-4789C7579.2,-4792.8 8732.7,-4787.1 8801.9,-4773.6C9099.9,-4710.2 9342.1,-4492.9 9442.1,-4198.8C9480.5,-4081.5 9480.5,-4068.1 9476.7,-269.3L9470.9,3541L9409.4,3671.7C9286.4,3931.2 9030.7,4123.5 8750,4167.7C8680.8,4177.3 8379,4183.1 8077.1,4181.2L7529.2,4175.4L7517.6,3610.2L8123.2,3604.4C8700,3598.6 8730.7,3596.7 8780.7,3558.3C8809.5,3537.1 8851.8,3494.9 8873,3466C8911.5,3414.1 8913.4,3391 8913.4,2679.7L8913.4,1945.3L4995.4,1939.5L1077.4,1935.6L1083.2,2673.8C1089,3385.1 1090.9,3415.9 1129.3,3465.9C1150.4,3494.7 1192.7,3537 1221.6,3558.2C1271.6,3596.6 1302.4,3598.6 1867.6,3604.3L2459.7,3610.1L2467.4,3788.9C2469.3,3886.9 2469.3,4017.7 2467.4,4077.3L2459.7,4185L1900.3,4183.1C1590.6,4181.4 1294.6,4173.7 1238.8,4166ZM8919.1,-1326.5L8913.3,-4014.1L8869.1,-4083.3C8780.6,-4227.5 9117.1,-4216 4997.2,-4216C1427.2,-4216 1296.4,-4214.1 1233,-4179.5C1196.5,-4160.3 1148.4,-4114.2 1127.3,-4079.5C1088.9,-4014.1 1088.9,-3975.7 1083.1,-1326.5L1079.2,1359.2L8922.8,1359.2L8919.1,-1326.5Z" />
            <path d="M2398.1,496C2288.5,422.9 2271.2,373 2271.2,119.2C2271.2,-140.3 2294.3,-203.8 2409.6,-274.9C2467.3,-309.5 2507.6,-313.3 2859.5,-313.3C3228.6,-313.3 3249.8,-311.4 3309.4,-269.1C3438.2,-182.6 3453.6,-142.2 3453.6,105.8C3453.6,359.6 3430.5,428.8 3322.9,494.1C3267.1,528.7 3224.9,532.6 2857.7,532.6C2494.2,532.6 2448.1,528.7 2398.1,496Z" />
            <path d="M4537.8,488.3C4426.3,413.3 4403.2,344.1 4409,90.3C4414.8,-107.7 4420.5,-138.5 4460.9,-196.1C4535.9,-301.8 4589.7,-313.4 5003,-313.4C5410.5,-313.4 5466.3,-301.9 5545.1,-190.4C5581.6,-138.5 5587.4,-102 5593.2,90.3C5598.9,344.1 5575.9,413.3 5464.4,488.3C5401,530.6 5383.7,532.5 5001.1,532.5C4618.5,532.6 4601.2,530.6 4537.8,488.3Z" />
            <path d="M6679.4,494.1C6571.7,428.7 6548.7,359.5 6548.7,105.8C6548.7,-142.2 6564.1,-182.6 6692.9,-269.1C6752.5,-311.4 6773.6,-313.3 7142.8,-313.3C7494.6,-313.3 7535,-309.5 7592.6,-274.9C7708,-203.8 7731,-140.3 7731,119.2C7731,373 7713.7,423 7604.1,496C7554.1,528.7 7508,532.5 7144.6,532.5C6777.5,532.6 6735.2,528.7 6679.4,494.1Z" />
            <path d="M2432.7,-1024.6C2411.5,-1032.3 2365.4,-1072.7 2330.8,-1111.1L2267.4,-1182.2L2275.1,-1439.8C2280.9,-1691.6 2280.9,-1695.5 2336.6,-1753.2C2427,-1847.4 2463.5,-1853.2 2888.4,-1847.4C3321,-1841.6 3340.2,-1835.9 3419,-1707.1C3470.9,-1618.7 3469,-1234.2 3415.2,-1143.8C3336.4,-1013.1 3303.7,-1005.4 2865.4,-1007.3C2649.9,-1007.4 2455.8,-1015 2432.7,-1024.6Z" />
            <path d="M4537.8,-1049.6C4432.1,-1118.8 4405.2,-1195.7 4405.2,-1428.3C4405.2,-1660.9 4432.1,-1737.8 4537.8,-1807C4601.2,-1849.3 4618.5,-1851.2 5001.1,-1851.2C5381.7,-1851.2 5401,-1849.3 5462.5,-1807C5570.2,-1733.9 5597.1,-1659 5597.1,-1428.3C5597.1,-1195.7 5570.2,-1118.8 5464.4,-1049.6C5401,-1007.3 5383.7,-1005.4 5001.1,-1005.4C4618.5,-1005.4 4601.2,-1007.4 4537.8,-1049.6Z" />
            <path d="M6671.7,-1051.6C6571.7,-1120.8 6548.7,-1191.9 6548.7,-1438C6548.7,-1624.5 6554.5,-1657.2 6592.9,-1718.7C6666,-1839.8 6715.9,-1851.3 7144.7,-1851.3C7550.3,-1851.3 7581.1,-1845.5 7673.4,-1745.6C7719.6,-1695.6 7721.5,-1686 7721.5,-1426.5L7721.5,-1159.3L7648.5,-1088.2L7577.4,-1015.1L7158.3,-1009.3C6740.9,-1003.5 6740.9,-1003.5 6671.7,-1051.6Z" />
            <path d="M2415.4,-2579.9C2286.6,-2658.7 2280.8,-2674.1 2280.8,-2968.2L2280.8,-3235.4L2353.8,-3306.5L2424.9,-3379.5L2834.4,-3385.3C3293.9,-3393 3330.4,-3385.3 3411.1,-3256.5C3447.6,-3195 3453.4,-3162.3 3453.4,-2966.2C3453.4,-2770.1 3447.6,-2737.4 3409.2,-2675.9C3334.2,-2554.8 3286.2,-2543.2 2853.6,-2543.2C2517.3,-2543.4 2467.3,-2547.2 2415.4,-2579.9Z" />
            <path d="M4537.8,-2587.6C4432.1,-2656.8 4405.2,-2733.7 4405.2,-2966.3C4405.2,-3198.9 4432.1,-3275.8 4537.8,-3345C4601.2,-3387.3 4618.5,-3389.2 5001.1,-3389.2C5383.7,-3389.2 5401,-3387.3 5464.4,-3345C5570.1,-3275.8 5597.1,-3198.9 5597.1,-2966.3C5597.1,-2733.7 5570.2,-2656.8 5464.4,-2587.6C5401,-2545.3 5383.7,-2543.4 5001.1,-2543.4C4618.5,-2543.4 4601.2,-2545.3 4537.8,-2587.6Z" />
            <path d="M3328.6,4185.3L3328.6,3608.5L6673.7,3608.5L6673.7,4185.3L3328.6,4185.3Z" />
        </g>
    </g>
</svg>
