<svg xmlns="http://www.w3.org/2000/svg" viewBox="0 0 3233.5 1080" preserveAspectRatio="xMinYMin slice"><g fill="#ede9df"><path d="M-7.5 0h1080v1080H-7.5zm1080 0h1080v1080h-1080z"/><path d="M2150.9 0h1082.4v1080H2150.9z"/></g><path fill="#c9e2c0" stroke="#000" stroke-miterlimit="10" stroke-width="1.5" d="M-517.2 1108.4c62.5-.2 124.8-.6 184-1.2 12.8-2.9 328.4 3 341.3-.2 338.6 4.1 161.5-358 2.2-392.7C-93 692-398.8 696.8-420.4 673.5c-19.4-20.9 67.8-47.8 36.3-70-29.7-21-178.5-14.6-212-34-13.1-7.5 50-27.3 46-42.8-4.3-16.2-66-21.4-118.6-27.6-41.3-5 155.8-30.2 62.8-49.9-140-29.6-132.9 50.7-138.7 53.8-25.8 13.7 116.7 9.5 116.7 29.2 0 11.5-44.2 31.4-43.3 46.7 2.2 37.2 161.2 29.5 166 50.8 12.4 55.4-176.6 33.4-178.3 67.1-4.6 88.6 223.8 49.7 277.6 56C-258.7 769.9-156 792-87.9 821c80.3 34.2 63.1 125-8.5 142.3-98.3 23.7-264.5 32.7-420.8 22.6"/><g fill="#c9e2c0"><path d="M1396.5 392c-177.5-44-266.4-94.2-297.4-89.1-37.2 6-160 94.4-323.4 168.9-1.5.6-420-305.8-432.2-303.3-49.6 10.1-333 153.6-358.4 167l36 26.4c58.4 31.6 168.6-62.1 190.7-63 79-22.3 263.3 172.7 413.5 209 111.4 26.9 165 54.7 407.8 53.1 101-.7 525.7 37.3 561.3 70.7l13.8-309c-223.8 78.9-211.7 69.4-211.7 69.4z"/><path d="m1594.4 631.7-.4 8.9c3.6-3 3.6-6 .4-9zm222.8-526.3c-8-12.4-15.8-23.6-24.8-35.9-1.1-2 .7-4.4-.5-6.4-14.8-23.7-32.5-46.1-45.3-70a186.5 186.5 0 0 0-29.2-40.8c-1.1-2.1.7-4.4-.4-6.5l-421 21.9c-3.4 1-6.9 2-10.3 2.8-14.7 4.4-26.2 11.7-41 16-3 .3-6-.6-8 .6-13.5 6.4-24.8 16-38.4 22.3-41.7 19.3-87.3 35-125.8 71.6-17.9 17-53.8 26.8-59.5 44.4-7.4 21-16.6 43.2-38 52.4s-13.4 16 23 35.2c-4.7 4.7-23 14.6-26 16-12.7 3-24.9 1.8-34.7-8.2-23-26.3-22.6-73.9-56.4-82.1 0 0-41 12.8-52.9 14.8-13.9 2.1-20.9 15.6-32.4 21.8-4.8 3.6-2.2 12-2.7 17.5-.9 2.2-4.7 4.6-5.5 6.9-6.1 26.3-30.3 37.8-48.2 26.2-59-36.5-93.3-94.3-141.1-143.5-8.6-7-16-14-25.5-18.6-16.7-9.5-33-12.6-51-24.2-10.6-7.8-23.8-10-36.2-15.6-4.1-1.8-6.5-7-10.5-6.8-7.3-1.5-9.3-69.5-16.3-71.4L319-26.5C382.5 237.2 562 96.7 594.8 145c33.5 49.3 50.3 168.6 198.3 184.4 173.8 18.6 192.2-97 347-117.5 78.6-10.4 122.1 79 201.2 85.2 104.8 8.2 180.2-53.8 239.8-76 21.2-8 81.5-10.5 89.5-10l3.3 3c3-.2 5.9-1.5 9-.7 2.7 1 5.5 2 8.3 2.6 73.8 28.9 240.1 19.9 274.2-127-40-40-142.5 25.4-148.2 16.3z"/></g><path fill="#6da56a" d="M1118.1-3c-9.2 10.5-18.7 18.7-28 28-16 15.3-31.9 29.4-48.8 44.7-1.8 2.3-5.7 3.7-10.6 5.1-33.5 7.9-67.1 14.7-100 3.2a166.8 166.8 0 0 0-89-10.6c-8 1.7-12.2 11.7-19 14.4a54.1 54.1 0 0 1-32 2.3C734.5 67.4 685.8 36.3 635 2L392.8-22.3c7 2 74.8 38 82 39.5 4-.3 6.4 5 10.6 6.8 12.4 5.5 25.6 7.8 36.2 15.6 18 11.6 34.2 14.7 51 24.2 9.4 4.7 17 11.7 25.5 18.6 47.8 49.2 69.6 153.3 138.3 160.7 46.8 5 97.3-93.6 127.6-91.2 34.4 2.8 52.5 40.6 73.4 68.9 27.9 37.8 55.9-3.1 60.5-7.8 10.4-9.4 61.5-159.6 201.8-166.5 26.6-47.3-43-17.8-1.4-37 13.6-6.5 24.9-16 38.4-22.4 2-1.2 5-.3 8-.6 14.8-4.3 26.2-11.6 41-16a339 339 0 0 0 10.3-2.9l-112.5 5.9-13.8 2.5c-19.9 2.5-38.8 4-51.6 21z"/><g fill="#c9e2c0"><path d="M1115.5 1047c-.4-4.4 2.2-5.2 7-3.2a1039.3 1039.3 0 0 1-40-55.8c-29-44-90-71-132-36-36 30-23 81-37 121-2.4 6-5.8 11.6-10.1 16.5h213.5c0-14.2-.3-28.4-1.4-42.5z"/><path d="M1354.6 965.1c-67.6-16-144.3 10-185.5-63.8-10.8-19.4-68-79.6-96.7-99-48.6-32.9-98.4-47-162.7 1-125.2 93.6-168 28.1-278.6 87.5-42.9 23.2-114.8 100.8-209.6 106.8-170.3 10.9-237.4 58.7-357.2 22.3-.2 28.3-86.2-39-88.7-10.9 57.4-3.9 114.2.4 171.8 4 104 7 199 38 304 57 85.4 16.3 167 17 251.2 19.6h200.7a56.4 56.4 0 0 0 10.1-16.6c14-40 1-91 37-121 42-35 103-8 132 36a1055 1055 0 0 0 40.1 55.8c11.4 4.5 35 23.5 61 45.4l11.9-.2c144.6-3.7 289.2-4 433.8-1 51-10.5 87-20.5 87.4-29.2 0-5-217.8-59.4-362-93.7z"/><path d="M2721.3 986c-37.9-2.5-75.1-6-110.7-10.8-353.5-47-415-327-684.7-62.7-97.7 95.7-252.9 146.3-384.6 174.7 28.6.5 57.1 1 85.6 1.8 38.9.8 79 2.2 116.7 13.4 32.6-3.1 64.8-4.4 97.3-4.4 33 0 65 4 98 3 67.6-2.8 135.2-4.6 202.6-5.3l26.1-.8 4 .5a7002 7002 0 0 1 474 13h75.7"/></g><path fill="#539350" d="M1082.5 988c-29-44-90-71-132-36-36 30-23 81-37 121a57.3 57.3 0 0 1-10.9 17.4c87 .2 174 .6 261-.8-31.4-30.2-55.5-64.1-81.1-101.6z"/><path fill="#6da56a" d="M1281.5 1043.7c-27-18.4-90.8-14.6-117.2-29.3-25.2-14-69.6-87.5-71.6-90.9-49.7-82.9-134.3-41.2-185.9 10-20.6 20.5-57.3 62.8-79.3 83.3-46 42.9-278.3 82.7-390 68.7l-3-.4c12.4 2.6 26.8 6.2 37.8 11 15-1.1 30.1-3 45.2-4.1 19.3-1 38.6-1 58 0 27 2 55 1 82 0 81.5-1.8 163.3-1.8 245.1-1.6 4.7-5 8.3-11 10.9-17.5 14-40 1-91 37-121 42-35 103-8 132 36 25.6 37.5 49.7 71.4 81 101.7l32-.7c44-1 88-1.9 131.9-2.4a338 338 0 0 0-46-42.8zm1103.8-23.2c-31.2-26-42.8-73.6-141-123.1-36.5-18.4-155 22.3-170 50.3-7.4 14 52.5 14.7 50.8 32.5-2 33 33.5-1.8 35.5 31.2 0 .5 66.8-9.4 79.8 10.3a233.5 233.5 0 0 1 30 73.7 7024 7024 0 0 1 396.4 14.3c-20.8-14.1-42-28.4-63.8-41.5-88.2-53.1-154.4 5-217.7-47.7zM2533.4-5.2c-6.6 4.5-13.4 9-20.5 14.2-31 21-54 60-97 43-32-11-56 28-84 42-51 25-78-47-99-87a82 82 0 0 0-13-18.4c-69.4-1.2-128.7-1.7-164.3-.2-7.3 22.3-16.1 46.2-26.2 58.7-4 6-13 10-21 8-15-4-24-17-38-20-36-7-53 35-79 51-70.1 41.1-131.3-37.4-170.3-93.4-32.2-.6-64.5-1.4-96.7-2.3a92.2 92.2 0 0 1-37.1 7.8c-2.6 20.4-8.6 38.9-27.3 51.2-40.4 27-84-5.5-128.4-14.3-15-3.1-29.3 0-42.8 6.4-20.4 8.7-44.5-23.6-69.4-60.8-73.8-1-147.4 1-221 4-3.2 17.2-31-7.6-39 8.2 10.5 88 72.2 40 140.4 53.6 20.7 4.2 36 50.9 49.2 66.9a224.4 224.4 0 0 0 138.6 79c54.8 9.3 143.4-7.6 175.5-61 5.7-9.4 20.7-49.3 25.8-55.7 10.7-13.4 69.6 59.6 135.8 104.8 81.1 55.3 149.4-26.2 149.4-26.2s82 16.2 137.2-33c21.8-19.4 47.8-55.7 83.8-66 39.9-11.4 65.8 95 146.7 113.2 71.8 16 139.3-42.3 169.9-66.9C2466 57.6 2512.9 9 2595 15.3c18 1.3 94.3 61 147.4 55.7 29.8-3 61.2-21.1 86.4-38.7 10.8-7.5 55.3-2.4 64.8.7 33.1 10.9 98.3-34.4-15-36.3 40.2.6-268.1-.9-345.3-2z"/><g fill="#539350"><path d="M2332 94c28-14 52-53 84-42 43 17 66-22 97-43 7-5.2 13.8-9.7 20.4-14.2-99.9-1.3-216.6-4.5-313.5-6.2a82 82 0 0 1 13 18.4c21 40 48 112 99 87zM1588.8 3c12.1.4 25.3-3 37-7.8l-36-1.2-1 8.9zm133.8-5.4.3.4c39 56 100 134 170 93 26-16 43-58 79-51 14 3 23 16 38 20 8 2 17-2 21-8a233.2 233.2 0 0 0 34.8-59.1C2009-4.7 1952-3.1 1895-2c-57.4 1-114.8.6-172.3-.4z"/><path d="M1175.4-13c26.3 13.4 55.4 22.5 68.6 37.6 19.6 22.6 21 94.9 65.2 100.3 48.2 5.8 87.3-39.7 130.8-60 14.6-7.5 30-11.2 46.2-7.5 48 10.3 81.6 52.3 138.7 16.8 35.5-22 27.3-52.7 43.2-77.8-108.4-2.8-216.7-7.5-325.1-10.4a3228 3228 0 0 0-167.6 1z"/></g><path fill="#6da56a" d="M2138 1020a1375 1375 0 0 1 22.6-8.5c-2.6-34-.1-72.6-1.6-106.7-24.4 7.6-71 21.8-93.3 43-11.5 10.8-17.6 20.7-42.1 72-12 25-55-5-136.5 2.3-49.5 4.4-98.5 51.3-123 78.6a1053 1053 0 0 1 76.9-2.7c33 0 65 4 98 3 42-1.7 84-3 126-4l1-4c10-36 39-60 72-73z"/><path fill="#539350" d="M2276.2 1076.8c-13-19.8-14.8-59.6-65.3-84.8-121.6-60.8-185.3 67.7-215 106.9a6520 6520 0 0 1 296.6-3.2 89.4 89.4 0 0 1-16.3-19z"/><path fill="#6da56a" d="M451.5 1070c-105-19-209.3-73.3-279.9-59.2C118 1021 13.1 1041.8 0 1080l702.7 9.6c-84.2-2.6-165.8-3.3-251.2-19.6z"/><path fill="#539350" d="M753.8 120.6c72.1 7.2 74.3-18 94.3-34.5 17.7-14.4 42.9-21.9 68.1-5 56.6 37.7 95.8 55 122.4 21.6 14.4-18.1 35.6-62.4 51.5-77.6 9.3-9.4 18.8-17.6 28-28 12.8-17.1 31.7-18.5 51.6-21.1l13.8-2.5L635 1.9c50.7 34.4 78.6 114.7 118.8 118.7z"/><path fill="#c9e2c0" d="M1790.5 296.4c-5.5 1.5 6 300.4 6 300.4S2016.9 484 2119 452c123-38.4 299.2-21.6 299.2-21.6s89.4 74 211.5 46.5c147.5-33.4 201-129.3 285-170.7 184.6-90.7 366.3 10.7 366.3 10.7l-8.6-57.9s-240-35.6-357.7-20c-147 19.6-221.7 113.6-364.2 133.4-104.5 14.6-299.9-58.3-409.3-84.3-77.6-18.4-199.5-33.5-350.6 8.2z"/><path fill="none" stroke="#231f20" stroke-linecap="round" stroke-miterlimit="10" stroke-width="1.5" d="M560 1115.9c24 5 45.6-2.2 67.1-14 21.5-11.8 41.1-35.3 58-53.2 58-61.4 107.3-136 184.1-171.1 47.4-21.7 101-25.9 153-23.6"/><path fill="none" stroke="#231f20" stroke-linecap="round" stroke-miterlimit="10" stroke-width="1.5" d="M569.8 1097.4a83.4 83.4 0 0 0 67-24.4 114.5 114.5 0 0 0 33-58.7c4.4-17.2 3-43 1.8-57.8m11.9 4.8c2.4 29-.5 56.5-7.8 80.5a176.6 176.6 0 0 0 44.9-56.2m97.9-76.3a90.8 90.8 0 0 1 84.8 24.1m-878 133.3c6.3-30.3 38.1-51.6 69-49.8 30.8 1.8 58.4 24 71 52.1 29.7-29.8 79-27.3 118.7-13.2 39.7 14 76.4 37.4 118 43.7M-9 330.8C101 281 307.2 167.6 340.8 170.5c58.7 5.1 403.3 306.7 498.1 330.1 113.6 28.1 166.8 12 262.3-16 124.6-36.6 504.2-159.9 504.2-159.9"/><path fill="#c9e2c0" d="M-1448 296.4c-5.5 1.5 6.1 300.4 6.1 300.4S-1221.7 484-1119.5 452c123-38.4 299.2-21.6 299.2-21.6s89.4 74 211.4 46.5c147.5-33.4 201-129.3 285-170.7C-139.2 215.6 21 362 21 362l98.8-87.9s-291.4-53.4-443.8-34.9c-147 19.6-221.7 113.6-364.1 133.4-104.5 14.6-300-58.3-409.4-84.3-77.6-18.4-199.5-33.5-350.6 8.2z"/><path fill="none" stroke="#231f20" stroke-linecap="round" stroke-miterlimit="10" stroke-width="1.5" d="M775.6 471.7C953 382.7 1077.6 303 1099 303c40 0 171.5 61 297.4 89.2M496.3 85.4c-6-1.4-12.2.9-15.8 5.9-.8 1-1.2 2.2-1 3.5.8 2.2 3.8 2.2 6 1.6 5.3-1.6 11-5.3 11.3-10.9m8.6 11.9c-6.1.6-11.2 4.9-13 10.8-.5 1.2-.3 2.5.3 3.6 1.4 1.8 4.3.8 6.1-.5 4.6-3.2 8.6-8.6 7.1-14m23.8 17.7a15.2 15.2 0 0 0-6.4 15.5 4 4 0 0 0 2 3.1c2 1 4.1-1.2 5.1-3.3 2.6-5 3.6-11.6-.2-15.7m-206.7 941.1c-.8-3-1-6.1-.2-9a8.5 8.5 0 0 1 2.4-4.7 4.1 4.1 0 0 1 5-.6 6 6 0 0 1 1.8 4c.4 3.4 0 6.8-1.3 10-.8 1.7-2 3.5-3.8 4.1-1.8.7-4.3-.6-4.3-2.5m11.9 5.9c-.3-3.2-.5-6.5.7-9.3 1.3-2.9 4.7-5 7.7-3.9 2.5 1 3.6 4.1 3.2 6.8-.3 2.7-1.8 5-3.3 7.3-1.1 1.7-2.4 3.6-4.4 4.1-2 .5-4.5-1.4-3.7-3.3m272.1-16.6c-.7-4.4-2.3-8.7-4.6-12.6-1.3-2-3.3-4.3-5.7-4.1-2.8.1-4.6 3.2-4.6 6-.2 5.6 4 10.5 8.8 13.5 1.5 1 3.2 1.7 4.8 1.2 1.6-.6 2.4-5.5.9-6.1m-12.6 14.5c-2-5.9-8.2-11.8-14-13.8a2 2 0 0 0-.8-.1c-5 .4-4.5 5.2-2.8 8.2 2.5 4.5 6.7 7.8 11.7 9.1 1.8.6 4 .7 5.4-.6 1.5-1.2.5-3.2-.3-4.9M726 975.7c5.7-2.5 8.3-5 11.2-10.3a7 7 0 0 0 1-3.6c-.1-3.2-4.1-4.9-7-4-3 1-5 3.7-6.8 6.3-1.4 2-2.6 4.3-2.6 6.7 0 2.4 1.9 5 4.3 5M906.5 948l-.2 11c-.1 3.3.6 7.5 3.8 8.1 1.8.2 3.5-.6 4.4-2.2a9 9 0 0 0 1.1-5c0-3.9-1.4-7.7-3.8-10.8-1.2-1.5-3.1-3-4.9-2.1m77-78.7a15.6 15.6 0 0 0-7 14c.2 2 1 4.4 3 5a5 5 0 0 0 4.4-1.2c3.4-2.5 4.7-6.9 5.6-11 .4-2 .7-4.3-.3-6-1-1.9-3.8-2.7-5.1-1m14.7 1.5a25 25 0 0 0-3.7 15c.2 2.2.8 4.7 4.7 4.3 6.3-3.3 6.2-10.8 4.5-16.9a5 5 0 0 0-1.2-2.4c-.7-.7-1.8-.7-2.5-.1m23.2-3c-1 3 .1 6.5 2.2 9a24 24 0 0 0 7.7 5.7c1 .6 2.3 1 3.5 1 2.3-.2 3.8-2.5 3.8-4.8a9.6 9.6 0 0 0-2.7-6c-3.6-4-9.1-6-14.5-5m11.1-14.7a72 72 0 0 0 15-5.5 6 6 0 0 0 1.8-1.3c.7-1.1.9-2.5.3-3.7-1.2-3-4.7-4.5-7.8-4.2-3.1.3-6 2-8.4 4-1.8 1.4-3.5 3.2-3.9 5.5-.4 2.2 1.2 4.9 3.5 4.8m1134.9-7a115.8 115.8 0 0 0 42.3 61.8 197.2 197.2 0 0 0 75.8 34.4c30.3 7.4 61.4 11 92.2 15.5 31 4.5 62 9.9 92.3 17.8a403.3 403.3 0 0 1 94 36.7"/><path fill="none" stroke="#231f20" stroke-linecap="round" stroke-miterlimit="10" stroke-width="1.5" d="M2241.7 996.9c42.3-2.3 83-17.4 116.5-43.4m-57.5 51.7c-.7 4-1.5 8.5 0 12.3 1.6 3.8 6.4 6 8.8 2.9 1.3-1.8 1.3-4.4 1-6.7-.4-3.2-1.3-6.6-3.5-8.6s-6-1.6-7.1 1.3m120.1-63.2a20 20 0 0 1-3.2-9.6c-.2-2.2.5-5 2.7-5.2 1.5-.1 2.8 1.2 3.6 2.5 2 3.3 3 7.2 2.7 11-.1 1.6-.6 3.5-2 4.2-1.4.7-2.9-.9-3.7-3m11.9 2.8c-2-3.8-2.8-8.1-2.3-12.4a6 6 0 0 1 1.5-3.8c2.1-2 6-.6 7.4 2.1 1.4 2.7 1 5.9.4 8.9a8.3 8.3 0 0 1-1.8 4.8c-1.2 1.3-4.2 1.8-5.3.4m41.5 13.5a25 25 0 0 1-7-8.5c-1.2-2.9-.3-6.9 2.7-8 2.3-.8 5 .6 6.5 2.8a17 17 0 0 1 2.3 7.2c.2 1.7.5 3.5-.2 5-.8 1.6-3 2.6-4.3 1.5m-291.2-115a32 32 0 0 1-3.3-10c-.4-1.4-.2-2.9.4-4.1 1.2-1.9 4.1-1.9 6-.6 1.7 1.3 2.5 3.5 3.1 5.7.5 2 .9 4 1 6 .1 2 0 4.4-1.7 5.8-1.5 1.3-3.6.7-5-2M1603.6 81c6.9 31 5.8 63.3 4.9 95a10698 10698 0 0 0-3 333.5m185.9-295.3c-1.7 143.7-3.5 287.8 8.8 430.6 2.5 29 5.7 58.5 14.9 85.3s25.1 51.2 46.7 61.6"/><path fill="none" stroke="#231f20" stroke-linecap="round" stroke-miterlimit="10" stroke-width="1.5" d="M1438 248c31.3-10.6 66.7-7.2 96.6 6.9s54.5 38.4 71.2 67m-163-86.5a124 124 0 0 1 47.2-6.7 96.8 96.8 0 0 1-15.6-102.2"/><path fill="none" stroke="#231f20" stroke-linecap="round" stroke-miterlimit="10" stroke-width="1.5" d="M1479.4 194.4c9.6 17.6 21 34 40.3 41.5 10.2 4 20.9 6.5 31 11 10.1 4.4 20 9.9 29.8 15.3 9.2 5 18.5 10.5 26 18M1429.4 235a33 33 0 0 0-11.8-10.4c-1.5-.8-3.4-1.5-5-.9a4.3 4.3 0 0 0-2.4 4.2c.2 1.7.9 3.3 2 4.6a18 18 0 0 0 11.5 7.2c2 .4 4.4.3 5.9-1.2 1.4-1.6.7-4.8-1.4-4.8m49.9-70.7a29 29 0 0 0 13.6-7.5c.6-.4 1-1 1.2-1.8.4-2-2.2-3.3-4.3-3.3a19 19 0 0 0-10.9 4c-1.8 1.2-3.6 2.9-3.6 5 0 2.2 2.8 4.2 4.3 2.6m-2.2 13.6c3.3 3.9 8.8 5 14 4.9 1.6 0 3.5-.3 4.5-1.7s.5-3.7-.7-5a9.1 9.1 0 0 0-4.9-2.2 39 39 0 0 0-7.2-1c-1.9-.2-4 0-5.2 1.5-1.2 1.5.2 4.4 2 3.7m-.6-56.3c4.3-2.7 7.6-6.7 9.5-11.5.7-1.7 1.1-4-.2-5.3-1-1.2-3-1.2-4.5-.9a12.5 12.5 0 0 0-8.8 15c.4 1.3 1.5 2.7 2.6 2.2"/><path fill="none" stroke="#231f20" stroke-linecap="round" stroke-miterlimit="10" stroke-width="1.5" d="M1874 146.7c-28 47.3-87.6 65-136.8 41a191.2 191.2 0 0 1-34.8-23.6c-14-11.2-27.6-22.8-41-34.7-38.4-34.2-77.4-72.8-127.9-82.9-15.8-3-32-3.5-48-1.4A187.2 187.2 0 0 0 1321.2 219m-175.3 33.6c50.4-4.5 96.6-31.1 135.4-63.7 14.4-12.1 28-25.1 40.8-39a208.6 208.6 0 0 0-8.7 81"/><path fill="none" stroke="#231f20" stroke-linecap="round" stroke-miterlimit="10" stroke-width="1.5" d="M1191.9 233c33-15 62-36 89-62 17-18 34-33 51-52 16-17 33-32 50-48 7-6 14-11 21-17 13-11 27-19 40.6-26.6m-266.3 198.2c0-4.1-1.6-8.2-4.6-11-2.2-2-5.9-3-7.8-1-2 2.1-.4 6 1.7 8 2 2 4.2 3.5 6.7 4.6 1.7.7 4.6.6 4.5-1.3m105.2 43.9c-5.7 3.6-6.4 9.3-5.6 15.2a4 4 0 0 0 1.8 2.8 3 3 0 0 0 4-.7c2.1-2.2 3.1-5.2 2.8-8.2-.4-3-1.3-6-2.7-8.6m8.2 3.7c-1.4 4.7.2 9.2 2.4 13.7a5 5 0 0 0 1.5 2c1.7 1.3 4.3.3 5.4-1.4 1-2 1.2-4.1.6-6.1a18 18 0 0 0-5.6-9.3c-.7-.7-1.5-1-2.4-1.1-.9 0-1.3.5-2 2.1m28.7 11.6a21 21 0 0 0 2.1 15.7c1.2 1.9 3 3.7 5.3 3.5 2.2-.3 3.5-2.7 3.4-4.8s-1.1-4.2-2.2-6c-2-3.4-4.3-7-8-8.4m550.7-122.8a29.6 29.6 0 0 0 9.9 17c1.2 1 2.6 1.9 4 1.6 3.2-.6 3-5.1 2-8a22.2 22.2 0 0 0-6-10.2c-3-2.5-7.8-3.3-10.7-.6m17.5-9.6c2 5.4 7.3 9 13 8.8 1.2 0 2.3-.4 3-1.3.6-1 .1-2.4-.5-3.4a17 17 0 0 0-10.9-7.9c-1.7-.4-4.2 0-4.3 1.9m159.5-37.3c-2.8 4-.1 9.4 2.8 13.4a10 10 0 0 0 3.5 3.4c1.5.7 3.5.5 4.4-.9a4 4 0 0 0 .3-3.4c-1-5.1-4.1-9.6-8.5-12.4m-424.3 950c41.3 22.9 93 15.9 137-1.4s83.7-44 128-60.6c44.2-16.6 96.5-21.8 136.6 3.2a69 69 0 0 1 20-58.5 104 104 0 0 1 56.8-27.7c23-4 47.3-1.8 68.6 7.8a93.6 93.6 0 0 1 48.4 48.5m-606.5 70.3c1.4-7.4-.8-15-5.8-20.6a5.6 5.6 0 0 0-2.2-1.6 4 4 0 0 0-4.5 2c-.8 1.6-1 3.4-.8 5.2.4 4.9 2.6 9.5 6 13 1.9 2 4.5 3.6 7.1 2.8m-13.9 1.8c-2.5-5-6.1-9-10.6-12.1-1.6-1-3.4-2-5.2-1.4-3 .9-3.4 5.1-2.4 8.2a20 20 0 0 0 8.4 10.6c2.2 1.3 5 2.3 7.4 1.4 2.5-.8 4.1-4.1 2.5-6.2"/><path fill="none" stroke="#231f20" stroke-linecap="round" stroke-miterlimit="10" stroke-width="1.5" d="M1764 1023.3c-1.1 6.9 5.2 12.7 11.1 16.5 1.6 1 3.7 2.1 5.3 1 .8-.7 1.3-1.7 1.4-2.8a16 16 0 0 0-7.5-16.1c-3.3-2-8.4-2-10 1.6m-157.5-89.9v10m10-15.3c-1.7 4-2.4 8.3-2 12.7m9.8-5.4a26 26 0 0 0-.7 13.4m-465.7-75.4c1.6 4.2 4.1 8 7.3 11.3m18.1-16.6 3.8 10.7m6.8-7.4a14 14 0 0 1 2 8m554.7-42.1c-1.8 4.5-4 9-6.4 13.2m17.3-11.3c-1.5 3-3.5 5.7-5.7 8.2m11.3-8.6v8.7m5.6-9.5c1.2 2.8 1.3 5.9.4 8.7m41.1-8.7a47 47 0 0 1-5.2 10.7M1466.9 829l3.1 7.4m7.7-15.4 1.9 11.3m4.5-10.7a31 31 0 0 0 1.2 10.7m1084.5 180.1a202.3 202.3 0 0 1 72.5 89.6m-91.8-86c30 19.5 50.5 50.7 56.5 86m787.8-819c9-2.5-424.8-92.7-592.2-15.6-65.5 30.2-158.6 87.4-252.3 105.1-96.5 18.2-288.8-58-384.8-79.2-215.7-47.8-375 3-375 3m640-188.3c-.1 4 1.1 8.1 3.5 11.5 1.2 1.7 3.1 3.3 5.2 3 2-.3 3.1-2.4 3.6-4.3a13 13 0 0 0-11-15.2c-1.7 1-1.7 1-1.3 5m11.7-17.4c1.7 3.2 4.4 5.7 7.7 7.2 1.6.8 3.7 1.2 5.1 0 1.4-1.2 1.4-3.1.9-4.8a11.3 11.3 0 0 0-14.7-6.8c-1 1.6-1 1.6 1 4.3M156.4 283c9-2.5-424.8-92.7-592.2-15.6-65.5 30.2-158.6 87.4-252.3 105.1-96.5 18.2-288.8-58-384.8-79.2-215.7-47.8-375.1 3-375.1 3"/><path fill="#c9e2c0" stroke="#000" stroke-miterlimit="10" stroke-width="1.5" d="M2721.3 1108.4c62.5-.2 124.7-.6 184-1.2 12.8-2.9 328.3 3 341.3-.2 338.6 4.1 161.5-358 2.2-392.7-103.4-22.4-409.1-17.5-430.8-40.8-19.4-20.9 67.9-47.8 36.4-70-29.7-21-178.5-14.6-212-34-13.2-7.5 50-27.3 46-42.8-4.4-16.2-66-21.4-118.6-27.6-41.3-5 155.8-30.2 62.7-49.9-139.9-29.6-132.8 50.7-138.6 53.8-25.9 13.7 116.6 9.5 116.6 29.2 0 11.5-44.1 31.4-43.2 46.7 2.1 37.2 161.1 29.5 165.9 50.8 12.4 55.4-176.5 33.4-178.3 67.1-4.5 88.6 223.9 49.7 277.7 56 147.2 17.1 249.7 39.3 317.9 68.2 80.4 34.2 63.2 125-8.4 142.3-98.3 23.7-264.5 32.7-420.8 22.6"/><path fill="#c9e2c0" d="M4634.8 392c-177.4-44-266.4-94.2-297.4-89.1-37.2 6-160 94.4-323.4 168.9-1.5.6-419.9-305.8-432.2-303.3-49.6 10.1-333 153.6-358.4 167l36 26.4c58.4 31.6 168.6-62.1 190.7-63 79-22.3 263.3 172.7 413.5 209 111.5 26.9 165 54.7 407.9 53.1 101-.7 525.6 37.3 561.2 70.7l13.8-309c-223.8 78.9-211.7 69.4-211.7 69.4z"/><path fill="#c9e2c0" d="M1790.5 296.4c-5.5 1.5 6 300.4 6 300.4S2016.9 484 2119 452c123-38.4 299.2-21.6 299.2-21.6s89.4 74 211.5 46.5c147.5-33.4 201-129.3 285-170.7 184.6-90.7 345 55.6 345 55.6l98.7-87.9S3067 220.5 2914.7 239c-147.1 19.6-221.7 113.6-364.2 133.4-104.5 14.6-299.9-58.3-409.3-84.3a696 696 0 0 0-350.6 8.2z"/><path fill="none" stroke="#231f20" stroke-linecap="round" stroke-miterlimit="10" stroke-width="1.5" d="M3394.8 283c9-2.5-424.8-92.7-592.2-15.6-65.5 30.2-158.6 87.4-252.3 105.1-96.5 18.2-288.8-58-384.8-79.2-215.7-47.8-375 3-375 3"/><g fill="#e2ac6a"><path d="M727.6 361.3c4.6-44-8.7-58.3-32.5-65-5.6-1.5-20.2 1.8-25.8.6-4.2-1-7.7-6.5-14.2-10.7l-4 110.6s68.3 41.9 76.5-35.5z"/><path d="m655 286.2-65.7 5.3-.8 66.2 112.1 41.7z"/><path d="M551.3 215c3.4-5.1 17.9-4.1 23.5 7.2 2.4 4.8-2 16.3.3 21 2.6 5.4 15.2 7.8 20.1 10.6 13.8 8 14.3 26 20.9 31 9.6 7.2 18.9-5.1 39 1.5-31.2 6.3-40.3 41.1-48.2 67.4-1.1 3 1.7 7.9 6 11 .6 2.5 2.1 4.8 4.2 6.4 7.1 5.7 13.3-.6 13.3-.6l-1.1 18s-2.7-4-5.3-4.2c-4.3-.5-10.4 5-16 5.2-10.1.5-9-9-12.3-10.5-7.8-3.7-19.5-3.4-30.6-16-12-13.7.6-36.2-3.3-46.9-2.7-7.4-10-15.5-11.5-23.3-4-20.7 9.8-41.5 10-51.9 0-10.1-14.3-18-9-26z"/></g><path fill="#c49057" d="M551.3 215c3.4-5.1 17.9-4.1 23.5 7.2 2.4 4.8-1.7 19.6 3 21.9 20 9.9 17.4 9.7 17.4 9.7-36.4 29.7-20 123.4 52.4 101 8.2-2.4 17 30.9 17 30.9s-23.2 20.6-29 19.5c-5.8-1-8-10.5-10.6-10.8-4.3-.4-10.4 5-16 5.3-10.1.5-11.5-12-15.2-16.3-5.8-6.7-17.6-7.8-28.7-20.4-12-13.6.6-36.1-3.3-46.8-2.7-7.5-10-15.6-11.5-23.3-4-20.8 9.8-41.6 10-52 0-10.1-14.3-18-9-26z"/><path fill="#f9d4bb" d="m692 414.6-2.4.6 2.3-.6c1.2-5.9 3-12.2 3-12.2s13 .2 16-2.8c5-5 5.7-11.9 4.2-23-.2-1.7 4.6-4.8 4.4-6.3-.5-3.2-6.6-7.3-7-9.4-1-7.9-7-35-7-35l-39.5-4.7s-21.8 46.1-14.5 63.1c7.9 18.3 19.8 12.5 19.8 12.5a70.5 70.5 0 0 0-5.4 28.7c5.3 9 16.8 2 25-1.4-.5-1.1 0-5.2 1-9.5z"/><g fill="#e2b2a1"><path d="M672.8 396v.2c.6.6.2 0 0-.3zm0 .2v-.3c-.2-.2-.3-.3 0 .3z"/><path d="m709 340.7-3-14.4-39.5-4.7s-18.6 44.6-15 62.7c4 20 21.4 12 21.4 12-.3-.7-.2-.6 0-.4-1.7-13-5.2-1-6.4-11.6 2.3-3.5 15.5-2.5 15-8.8-2.8-33.3 11-28 27.5-34.8z"/></g><path fill="none" stroke="#000" stroke-linecap="round" stroke-linejoin="round" stroke-width="1.1" d="M704.4 381s.8 5.6 9 2.3"/><path d="M706.2 360.5c.4 1 0 2-.8 2.4-.9.4-2 0-2.3-1-.5-1 0-2 .8-2.4.8-.3 1.9.1 2.3 1z"/><path fill="none" stroke="#000" stroke-linecap="round" stroke-linejoin="round" stroke-width="1.1" d="M703.4 351.7s-4.7-2.8-6.7 6.4"/><path fill="#e2b2a1" d="M695.2 402.6v.2c.2 0 .2 0 0-.2zm-5.6 12.6 2.6-.7a129 129 0 0 1 3-11.7c-2 0-16.3-3.3-16.3-3.3 4.5 9.5 6.3 19 12 19.8.3-.6.8-2.5 1.3-4.8l-2.6.7z"/><path fill="none" stroke="#000" stroke-linecap="round" stroke-linejoin="round" stroke-width="1.1" d="M662.2 381.4c1.6.6 3 1.6 4.2 3 0 0-1.2 1.8.2 3.2 2.4 2.5 4.6 1 4.6 1m-13.3-2.4c0-.8.2-1.7.5-2.5.6-1.2 2.7-2 3.8-2.3"/><path fill="none" stroke="#000" stroke-linecap="round" stroke-linejoin="round" stroke-width="1.1" d="M662 388.4s-2.9-4.9.5-6.7"/><path fill="#c49057" d="M642.4 385.6c-2-28.3-34-46.3 3.7-79.7a59.7 59.7 0 0 1 28.3-4.8c21.6 2.4 25.1 17.5 25.1 17.5s10.8-4.2 14.3-1.6c3.5 2.5 4.2 18.1 4.2 18.1l-8.1 1.6s4.2 6 4.5 8.4c.2 2.6-2.6 13-2.8 10.1-.7-9.4-6.7-17.5-6.7-17.5l-19 6-6.8-6.2s-5.3 7.7-4.8 13.7c.3 4.5.8 14 .3 18.3-1.3 12.8-22.3 13.2-22.3 13.2s-1.2 6.3 5.6 13c-11.5 0-15.5-6.8-15.5-10.1z"/><path fill="#211f20" d="M641.3 515s16.6-6.1 12.8-14.7c-1.2-2.5-15.6-36.2-15-33.5 7 35.9 2.2 48.1 2.2 48.1z"/><path fill="#211f20" d="M690.6 414.9c-1 2.5-3.2 8.3-5.3 9.1-4.6 1.9-19-5.6-19-5.6s-15.6 2.2-22 5c-8.8 6.2-10.5 9.8-10.2 20.6.4 14 8.9 38.3 8.9 62.7l3-13 3.6-.5c1.4 2.4 3 4.8 4.5 7.1l5.6-19 13.5-4 52.2-15.8 1.3-20.6 16.2-13s19.3-8.2 19.4-11.5c0-3.6-11-26.6-11.1-26.8-26.4 13.2-38.1 19.4-60.6 25.3z"/><path fill="#c4491e" d="M679.6 445.7s-6-13.2-8.2-17.4c-1.4-2.7-8-7.9-11.2-8.9-2.6-.8-17.2 4.6-17.2 4.6a82 82 0 0 1 9 21.2c3 11.7 4.2 23.9 3.5 36-.6 5.7-1.5 11.4-2.8 17 5.8 9 12.2 17.6 18.8 26 2.6-25.5 18-44.7 8.1-78.5z"/><path fill="#c4491e" d="M726.8 673.4C710.3 658 705.5 640.9 690 623c-20-26-25.4-48.2-21.4-77.2 1-7.2 2-14.4 2.7-21.6a334 334 0 0 1-18.7-26c-3 14.8-9.7 12-9.7 12s-17.7 50.4-22.2 61.6c-12 30.4-29.4 127.4-29.4 127.4l59.4 6.6 12-27 3.4 28.6 62.2-9.3z"/><path fill="#fa5100" d="M725.4 461.4s.2-18.5-4.6-28.5c-2.3-4.7-8.4-15.8-13.7-21.5-4.3.7-8.6 1.6-12.9 2.6a46 46 0 0 1 7.5 8.7c3 7 5.1 14.2 6.4 21.6l-27.5 5.8c4 24.8-6.5 48.6-9.2 74 7 9 14.2 17.5 21.2 26-7-8.5-14.2-17-21.2-26-.7 7.3-1.6 14.5-2.7 21.7-4 29-1.7 54.4 18.3 80.4 15.4 17.9 22 27.6 39.8 47.2l-9.5-145.5z"/><path fill="#e2b2a1" d="m760.7 381.7-12.4 10.4 11.4-8.5-11.4 8.5 7.7 12.1c1.8 3 4.9 12.5 4.9 12.5l15-13a43 43 0 0 0-15.2-22z"/><path fill="#f9d4bb" d="M836.4 286.2s-3.6 3.2-3.5 5.2c0 2.8 2.5 7.3.6 9.3-1.3 1.5-3 2.8-3.5.8-1.5-6.4-.5-23-.5-23s-4.8-5.7-7-6.6c-4.5-1.8-10.9 3.3-11.5 10-.4 4.2 1.4 15.8 1.4 15.8-2.6 0-4.3-16-7-13.9-2.7 2.2.6 18.2.6 18.2l6 18.8-50.8 60.5-.5.5c7.3 4.8 12 13 15.3 22 3.8-3.2 7.4-6.6 10.9-10.2 13-15 45.2-65.8 45.2-65.8l3-6.6c-1-1.6-.2-4.3 2-4.5a53.4 53.4 0 0 0 4.9-16.2 37.8 37.8 0 0 0-5.6-14.3z"/><path fill="#e2b2a1" d="m635 704.5-43.8-7-10.4 48.5c14-12 29.5-22.4 47.5-25.6z"/><path fill="#f9d4bb" d="M580.8 746 557 857.4l9.6 5.6 12.7-8.2 4.6-5.9s25.2-44.8 29.4-61.3c2.1-8.5 1.6-35 1.6-35l13.4-32c-18 3-33.5 13.4-47.5 25.4z"/><path fill="#e2b2a1" d="m713.8 717.7-.1-17.4-37.1 5.5 3 37-.2 1.8a131 131 0 0 1 34.4-27z"/><path fill="#f9d4bb" d="M679.4 744.6a253 253 0 0 0-4.6 36.9c.8 20.1 16.6 79 16.6 79l13.8 6.1 9.5-9.1-.9-139.8c-12.9 7-24.5 16-34.4 26.9z"/><path fill="#ede9df" d="M680 814.3c15.3 6 34.7-5 34.7-5l-.2 46-14.3 7.7s-7.8-10.2-9.7-9.4z"/><path fill="#d6d0cc" d="M680 814.3c5.7 2.3 17.7 1.1 17.7 1.1-10.6 14.6 2.5 47.6 2.5 47.6s-8.8-9.5-10.8-8.5z"/><path fill="none" stroke="#000" stroke-linecap="round" stroke-linejoin="round" stroke-width="1.1" d="M713.8 700.8c0 29.2.4 56.5.4 84.5.1 32.8-4.2 66 6.6 97"/><path fill="#211f20" d="M690.6 852.9c2.6-.9 5 4.7 7.6 5.7 3.1 1.2 16.3-4.8 16.3-4.8s15.8 19.7 23.2 23.2c4.4 2 15.3 1 19 4.3 2.6 2.2 4 11.9 4 11.9l-76.4.2c-2.8 0-4.1-2.9-3.4-5.6a62.8 62.8 0 0 1 6.5-16.2c2.7-3.9-1.4-17.3 3.2-18.7z"/><path fill="#d6d0cc" d="M602.2 814c-16 2.7-33.3-12.3-33.3-12.3l-11 50.5 14.6 5.3s9.6-8.4 11.3-7.2z"/><path fill="#211f20" d="M581.7 850.2c-2.7-1-5.3 4.8-8 6-3.3 1.2-17.5-6.4-17.5-6.4s-16.1 21.8-24 25.4c-4.6 2.1-16 1-19.8 4.3-2.8 2.3-4.3 12.5-4.3 12.5l79.7 1c3 0 4.3-3 3.6-5.8-1.4-6.2-4.4-14-6.6-17.2-2.8-4.2 1.6-18.3-3-19.8z"/><path fill="none" stroke="#000" stroke-linecap="round" stroke-linejoin="round" stroke-width="1.1" d="M593.1 697.6c14 2.5 27.9 4.6 41.9 6.4l-17.8 41.3m221.4-431.6c3.4-6.1 4.5-13.8 1.3-19-.7-3-.2-8-3.3-7.3-6.7.6-1.5 9.1-2.4 13.3l-3.4 2a63.9 63.9 0 0 1-1.3-24.3m-6.5 17.7c-.7-6.5-.8-16.2 2.7-21.7m-7.1 21.9a37 37 0 0 1 1-24.8m-7.2 26.1c-1.1-6.9-2-9-1.6-14.5.4-3 1.5-5.6 3.1-8m-9.1 9.4c-1.8 5.6.3 11.7 1.5 17.4 1.2 5.4 3.4 12.1 4.9 17.4.1.5.2 1 .1 1.6 0 .4-.3.8-.5 1.2a505 505 0 0 1-24.4 28.9M456.6 596a20 20 0 0 1 9-5.8c3.4-1 7-1.8 10.6-2.2m-23.4-2.5c.8-1.7 2.8-2.4 4.6-3a61.9 61.9 0 0 1 17-2.3m-21.9 0c5-3.6 13.4-6 19.5-6.4l4.6-.4"/><path fill="#6da56a" d="M720.8 355.5c1.1-5.5-2.5-13.8-8.2-14.3l1.2 19.9h1c2-1.5 5-3.4 6-5.6z"/><path fill="#539350" d="m755.4 334.8-42.8 6.4c14 7.6 4.1 18.4 2.1 19.9l44.3 2.4c.4-9.6 1-20.4-3.6-28.7z"/><path fill="#211f20" d="M759.4 334.8v-.6l-4 .6c3.3 8.8 3.4 19 2.9 28.7l3.3.2c1.1-9.7.4-19.5-2.2-28.9z"/><path fill="#539350" d="m766.6 333.1-7.2 1.1v.6a75.5 75.5 0 0 1 2.2 28.9l6.9.4s8.4-16.1-2-31z"/><path fill="#211f20" d="M711.5 357.5c0 1 3.8.3 3.8.3 4.4-5-.6-10.2-.6-10.2l-4.4 1.2 1.2 8.7"/><path fill="#539350" d="M728.8 364c1.2-5.6-2.7-13.9-8.9-14.3l1.3 19.8h1c2.2-1.5 5.4-3.3 6.6-5.6z"/><path fill="#6da56a" d="m766.2 343-46.2 6.6c15.1 7.6 4.4 18.4 2.2 20l47.7 2.2c.5-9.7 1.1-20.5-3.7-28.8z"/><path fill="#211f20" d="M770.5 343v-.6l-4.3.6a66 66 0 0 1 3 28.7l3.5.2a70 70 0 0 0-2.2-28.8z"/><path fill="#6da56a" d="m778.2 341.3-7.7 1.1v.7a70 70 0 0 1 2.2 28.8l7.5.4s9.1-16.1-2-31z"/><path fill="#211f20" d="m709 357.5 13.3-3.4s5.3 5.1.6 10.2l-13.6-1z"/><path fill="#e2b2a1" d="M709.8 431.5c-9-.4-18-1.5-26.9-3.5-9.6-2.1.5 22.3 1.8 32.2 7-.4 16.6-.4 26.3-.6a83 83 0 0 0-1.2-28.1z"/><path fill="#f9d4bb" d="M726.3 429.6c-1.8 1-3.8 1.5-5.9 1.8-3.5.2-7 .3-10.6 0 2 9.3 2.4 18.8 1.2 28.2 10.4-.1 21-.5 28.5-1.6l3.9-.8c3.6-.7 7.2-5.6 9.6-8.2a29.7 29.7 0 0 1-26.7-19.4z"/><path fill="#f9d4bb" d="m766.2 340.3-4.7 14.1s-3.7-10-6.4-12.1c-2.7-2.2-13.6-3.7-13.6-3.7L732 342s4.9 7.6 5.7 10.5c.5 2 .7 6.5.7 10v4.8l-10 2.4s2.3 5.9 4 7a32.7 32.7 0 0 0 10.5 1.7l-16.6 51.2c-1.4 3.6-6 1.2-9.3 3 5 10.9 13.8 20.9 27.2 21.3 1.5-1.8 8.2-2.6 8.8-5l9.2-55.6 4.3-23.3 5.5-28.2c1-3.9-4.8-5.4-5.8-1.5z"/><path fill="#211f20" d="M636.1 433.4c8.7-24 58.3-5 58.3-5v32l-49.4-1c-6.1 0-8.8-6.3-8.7-12.4.2-7.7-1-11.4-.2-13.6z"/><path fill="none" stroke="#000" stroke-linecap="round" stroke-linejoin="round" stroke-width="1.1" d="M746.4 360.2s-.6-9.4-3-13.2c-1-2-8-6.2-8-6.2m19.6 15.8s-2.7-9.6-5-12.1a63.6 63.6 0 0 0-8.5-5.9M727.8 425l15-46.6-5.5-.9c-3.2-.5-5.9-2.4-7.5-5.1l-1.5-2.7"/><path fill="#539350" d="M629.5 547.9c2.5 8.2 9.2 14 17 14.7 0 0 20.8 2.8 27.8 2.7 7.7-.2 30.6-4 30.6-4v17.5l-22.7 23.5c-9.7 10-44.1 11.1-53.9 7.6-11.1-4-14.2-19.4-14.2-40.6V565c0-9.4 6.9-17.1 15.4-17.1z"/><path fill="#211f20" d="m705 561.4 13.6-7.3.8 15.3-14.5 9.4z"/><path fill="none" stroke="#000" stroke-linecap="round" stroke-linejoin="round" stroke-width="2" d="m624.7 550.6 2.7 18.8c3.5 20.1 29.4 19 39.3 15.2 8.4-3.2 30.6-20.5 30.6-20.5"/><path fill="#211f20" d="m617.4 554 18-22.5-5.7 17z"/><path fill="none" stroke="#231f20" stroke-linecap="round" stroke-miterlimit="10" stroke-width="1.5" d="M1103.3 43.9c19.3 37-25.6 71.4-29.5 73.9a119.3 119.3 0 0 1-56.7 19.9c-8.3.4-17-.4-24.5 3a43.3 43.3 0 0 0-13 10.6c-14 15-26.7 31.6-43.3 43.9A112.4 112.4 0 0 1 823 205.4"/><path fill="none" stroke="#231f20" stroke-linecap="round" stroke-miterlimit="10" stroke-width="1.5" d="M1050.6 129.8a57.2 57.2 0 0 0-9.3 88.2M984 165.4c6-1.8 12.5.2 16.5 5a4 4 0 0 1 1.1 3.4c-.6 2.2-3.6 2.4-5.9 2-5.5-1.3-11.4-4.7-12.1-10.2m-8.1 12.2c6.2.3 11.7 4.3 13.8 10.1.5 1.2.5 2.5 0 3.7-1.4 1.8-4.4 1-6.3-.2-4.8-3-9.2-8.1-8-13.6m-23.2 18.8c5.4 3.1 8.3 9.2 7.4 15.3 0 1.3-.7 2.5-1.8 3.2-2 1-4.2-1-5.4-3-2.9-4.9-4.3-11.4-.7-15.7m-69.6 118.2a31 31 0 0 1 5.4-2c1.8-.5 3.7-.7 5.6-.4 1.9.3 3.5 1.6 4.3 3.3.8 1.8 0 4-1.7 4.9a6 6 0 0 1-4.2-.2c-2.6-.9-5-2-7.5-3.2-1-.5-2-1.5-1.4-2.4m-5 7.8c4.2-.3 8.3 1.7 10.7 5.1.6.8 1 1.9.8 3a3.1 3.1 0 0 1-3 1.8 7.2 7.2 0 0 1-3.4-1.3c-1.6-1-3.1-2-4.5-3.3-1-.7-1.7-1.7-2-3 0-1.1.5-3 1.4-2.3M811.7 62.7a12.2 12.2 0 0 0-13.4 5.9c-.4.6-.6 1.4-.5 2.2.2 1.2 1.5 1.9 2.7 2.2 3.2.8 6.5.3 9.3-1.3 2.5-1.5 4.5-4.8 2.8-7.2m-1 144.1a15 15 0 0 0-10.2 7.3c-1 1.6-1.5 3.8-.3 5.2 1 1.2 2.8 1.2 4.3.9 3-.5 5.8-1.9 7.4-4.3 1.6-2.5 1.4-6.2-1-8M832.7 84a11.7 11.7 0 0 0-1.4 11c1.2 2.7 4.1 5.3 7 4.3 2-.8 3.3-2.7 3.4-4.8 0-2-.5-4.1-1.4-6-.8-1.9-1.8-3.8-3.6-4.8-1.7-1-4.4-.6-5.2 1.3m52.9 130.4s-49 29.2-40 75c5.4 27.4 21.7 31.5 21.7 31.5"/><path fill="#fa5100" d="M410.7 384.7c0 21-14.7 38.4-33.5 40.3-1.1.1-128 17.8-129 17.8-20.4 0-37-18.2-37-40.6 0-22.3 16.6-40.5 37-40.5 1.7 0 129-17.4 130.7-17.2 18 2.8 31.8 19.7 31.8 40.2z"/><path fill="#c4491e" d="M279.5 406s-66.3-16.6-63.3 86.1c.7 23.9 2.8 76.4 20.1 91.7 15 13.2 78.6 21.8 78.6 21.8l4-155.7z"/><path fill="#211f20" d="m305.2 574.5 106.2 2.8L444 691.5a35 35 0 0 1 1.2 12.6l-1.7 20.5-10.2 132.2-30.8 2.1s-13.7-17.3-15.8-24.4c-6.6-21.9-1.7-93-1.7-93l-24.7-79.8L322 857l-29.6 2.3s-11.4-17.9-12.7-24.8c-11.4-61.4 25.5-260 25.5-260z"/><path fill="#d6d0cc" d="M420.9 401.3c-11.7-9.3-55-11.1-55-11.1l-10.3 15.9-38.6-13.3s-23.2 6-35.3 12a52.5 52.5 0 0 0-15 33.3 39.6 39.6 0 0 1 36.4 21.1c36.7-5 72.6-13.3 108.9-11.2-.4-10.3 10.4-16.5 19.9-17.5 1.9-.3 24.7 34.2 26.6 34 0 .1-30.7-57.6-37.6-63.2z"/><path fill="#e2ac6a" d="M414.9 484.8s32.9 46.3 41.4 50.1c8.6 3.9 46.4-1.4 41.4-8-13.6-18.1-51.8-85.3-51.8-85.3-8.2 9.4-23.2 20.4-29.3 30.6m-2.2 2.7-1.2 1c-35-6.2-69.7 1-105.2 4.2-2 0-4.2 4.1-6 4.3-1.4 19.6-3 39.2-6 58.8l3.8 34.8 104.2.4 10.5-74.7"/><path fill="#eceae0" d="M439.2 429.6c-2 .1-5.4.7-7.3 1-9.4 1-20.3 7.1-20 17.4a519.4 519.4 0 0 0-106.8 5.1c-7.3-14-23.7-15.3-38.4-15-1.3 10-1 20.5-.3 30.4 17.2-9.3 27.2-6.3 34.6-.3 5 3.1 11 13.4 11 13.4 35.5-3 66.2-12 101.2-5.7 9.4-8 26.7-18.3 38-24.7z"/><path fill="#d19a82" d="m295.5 882.7-3-23.3L322 857l.3 29.5zm109.3-1.9-2.2-21.9 30.8-2.1-1.2 22.8z"/><path fill="#211f20" d="m295.5 882.7 25.8-1.7 12 40.8-5.9 11.6h-43l-5.6-9zm109.3-1.9 27.4-1.2 19.3 20.3 33.9 11.9 1.4 3.5c1.8 4.6-2.1 9.9-7.2 9.6l-49.4-2-38.8-2.1v-13.5zm-37.3-485.1s15 14.7 18.8 20.5c5.1 7.9 11.2 25.9 13.8 35a912.8 912.8 0 0 1 12.4 66.7l9-25.4-1.5-35.4s-6-26.2-13-40.5c-7-14.4-21.6-26.5-21.6-26.5-.9-1.8-2.7-3-4.7-3h-10.3c-4.8-.1-6.9 3.5-3 8.6z"/><path fill="#b77b67" d="m420 335.4 5.8-29-31.6-16-27.6 21.8c17.7 2.8 43.4 10.4 53.3 23.2z"/><path fill="#d19a82" d="M336 359.4c-5 14.4-17 33.8-17 33.8l29.9 15c3.5 1.6 7.6.4 9.7-2.9l6.6-10s6.4-11 7.7-16.6c-12-8.5 15-62.6-37-19.3z"/><path fill="#d19a82" d="M394 387a38 38 0 0 0 19.2-23.9l6.8-29.3c-10-12.8-35.7-18.8-53.5-21.5L346.7 328a18.7 18.7 0 0 0-3.5 18.8c.1 2.3 13.3 8 13.3 8-.2 11.6 9 34 9 34 6.9 3.3 21.8 1.2 28.5-1.7z"/><path fill="#b77b67" d="M358.5 346.4c1-.7 3.7-1.6 2.6-2.6-2.3-2.1-3.3-3.5-2.6-4.6.9-1.4 3-1.6 3-1.6s-.5-6.6-1.9-7.1c-2.1-.8-5-1.1-6.8 1-7.5 9.1 1.6 17.4 5.7 14.9zm11.9 43.8a34 34 0 0 1-20-26.9c-.4-2.5-4-2.5-4.8 0a295 295 0 0 0-5.3 23.7c-1.2 6.5 9.6 14.9 17.8 19z"/><path fill="#211f20" d="M344.7 344.4c-.4-4.1 0-12.8 3.4-16.5 7.4-7.8 14.6.1 14.6.1s-1.7 9.4 3.6 8.8c10-1 8.6-13.2 12.2-24.5 1.3-3.9 9.4-3 12.5-2.5 8.2 1.4 32.8 6.6 32.8 6.6s5.5-1 10.9-14.6c4-10.4-13.4-23.2-21.4-27.4-5.5-3-19.8 2.5-26.4 2.5-8.5 0-23.3-3-33.5 1.2-15.2 6.1-37.5 27-20.3 59.5 6.7 12.6-5 9.2 0 29.8 0 1.7 12.7-16 14.3-15.2l2.1-.7s-4.3-2.4-4.8-7.1z"/><path fill="none" stroke="#000" stroke-linecap="round" stroke-linejoin="round" stroke-width="1.1" d="M382.4 364.1s.6 8.2 9.1 8.9"/><path d="M386.6 344.5a2 2 0 0 0 2.1-1.9c.3-1-.5-2-1.5-2-1.1 0-2 .8-2.2 1.9-.2 1 .6 2 1.6 2z"/><path fill="#211f20" d="m374.4 335.4 21.3-1.6c-1.8-9.8-21.3 1.6-21.3 1.6z"/><path fill="none" stroke="#000" stroke-linecap="round" stroke-linejoin="round" stroke-width="1.1" d="M353 331.4s3.4-2.9 6.3-.8c2.5 1.8 1.8 6.7 1.8 6.7s-2.4 1.5-2.4 2.3c-.2 3.6 2.4 4.2 2.4 4.2"/><path fill="none" stroke="#000" stroke-linecap="round" stroke-linejoin="round" stroke-width="1.1" d="M355 336.4s-.3-6 5.8-3.7M319 393.2c6.2-11.2 10-17.1 16.9-31.3"/><path fill="#211f20" d="M294.2 400.9s18.3 21.2 23.2 51.6c1 6.3-5.2 33.6-5.2 33.6l-18.9 39.4V549c0 3.5 4.3 4.8 6.6 2 9-10.7 17.3-22 24.9-33.8 12.3-19.8 15-28.1 16.6-53.1 1-14.8-5.3-37.3-10.3-48.7-2.9-6.4-10.6-20.7-10.6-20.7a5 5 0 0 0-6.3-2.8l-16.4 2.3a5.6 5.6 0 0 0-3.6 6.7z"/><path fill="#e2ac6a" d="m354.6 564.3-49.4-46 13.1-42.3s-9-15.7-28.3-14.9c-6.2.3-29 12.4-29 12.4l-8.3 57.5c.2 13 6 25.3 16 33.7 0 0 44 23.8 62 32.2 1-13.5 14.2-22.1 23.9-32.6z"/><path fill="#eceae0" d="M317.4 452.5c2.2 4.9 1 23.5 1 23.5s-29.7-15.4-57.4-2.5l5.7-35.3h20.6c9.1 0 19.3 1.5 24.8 8.4.9 1.1 4.8 4.8 5.3 5.9z"/><path fill="#d6d0cc" d="m295.9 407.6 21.5 43.8s-12.4-17-50.6-14zM351 561c-15.7 9.5-19.4 22.4-20.2 35.9 3.5 1.6 17 7.7 20.8 7l3.6-8.4 9.8-19 .3-4.3z"/><path fill="none" stroke="#211f20" stroke-linecap="round" stroke-miterlimit="10" stroke-width="1.1" d="M365.4 572.3 326.3 538l-18.4-17.2-2.7-2.4"/><path fill="#6da56a" d="M402.3 648.1c-.2.3-.3.4-.4.3l52-21.1 58.9-124.2h-.1l-52.2 17"/><path fill="#539350" d="M460.5 520.2 419 486l-52.7 132.4 35.7 30s6.4-7.7.4-.4"/><path fill="#6da56a" d="M554.7 529.7 486 659.4l.2.1 43.1-25.9 72.3-126.9z"/><path fill="#539350" d="m554.7 529.7-42-26.6L454 627.3l32 32c9.8-17.5 68.8-129.6 68.8-129.6z"/><path fill="#d19a82" d="m365.4 572.3 8.5 4.8 12.2-8.7c-1.2 5.2-1.5 10-.4 13.1 1 3 31.2 7.9 31.2 7.9a5 5 0 0 1 5.2 5.4S420 605.2 416 610l-17.3 8.3 6.6 3.1c2.9 1.4 1.6 5.8-1.6 5.7-6 0-12.4-1-15-2.6l-37-20.5z"/><path d="M411.8 348.1c-1-.2-1.7-1.3-1.3-2.3a2 2 0 0 1 2.2-1.6c1 .2 1.6 1.3 1.3 2.3a2 2 0 0 1-2.2 1.6z"/><path fill="#211f20" d="m418.8 339-9.8-3.3c2.5-4.2 7-3 11-.5"/><path fill="none" stroke="#000" stroke-linecap="round" stroke-linejoin="round" stroke-width="1.1" d="m402.7 339.8 1.6 25.5-9.8-1.2"/><path fill="#d19a82" d="m573.3 555.8 2.4 12.4-15.2 25.6a14.7 14.7 0 0 1-12.7 7.2h-.4z"/><path fill="none" stroke="#211f20" stroke-dasharray="12" stroke-linecap="round" stroke-miterlimit="10" stroke-width="2" d="M409.9 552.3c5.8-2.4 12.6-.8 16.7 4a23 23 0 0 1 4.2 11.3c1 6.7 1 13.5-.3 20-.4 2.3-1 4.7-.6 7 .5 2.2 2.1 4.4 4.4 4.6 1.2 0 2.3-.4 3.2-1 6.2-4 5.7-13.8 11.4-18.4.5-.5 1.2-.8 2-1 1 .2 2 .8 2.4 1.7 3 4.3 1 10.2-.5 15.3-.3.8-.4 1.6-.2 2.5.7 2.6 4.8 1.9 6.9.1 10-8.5 28-47 35.7-50.7 3.8-1.8 8.4-3.6 12-1.4 1.3.9 2.4 2.1 3.2 3.6 4.4 7.7-6.2 42.1-8.6 50.6-2.3 8.6-2.4 18.4 2.8 25.6 1.8 2.3 39-66.7 50.1-56.3"/><path stroke="#211f20" stroke-miterlimit="10" stroke-width=".3" d="M512.1 526.5h10.5l-.6 1.3-8.8-.2 5.1 7.1-.6 1.3-6-8.6zm6.3 10.8 11.7-10.3 1.2.6-11.7 10.4zm18.2 3.2H526l.6-1.3 8.9.2-5.2-7.2.6-1.2 6 8.5z"/><path d="M476 529.7c-.4-.8 0-1.7.9-2 2-.6 3 2.4 1 3-.8.3-1.7-.1-2-1zm4.9-1.7a1.5 1.5 0 1 1 2.9-.8 1.5 1.5 0 0 1-3 .8z"/><path fill="none" stroke="#211f20" stroke-linecap="round" stroke-miterlimit="10" stroke-width="1.1" d="m392.3 594.5 9.9 4.4c3 1.3 6.5 1.6 9.7.7l9.7-2.7m-32.8 7.1 8.7 4.6c2.9 1.2 6 1.3 9 .4l12.2-3.7m-31.9 7.2 11.8 5.7"/><g fill="#e95c1f"><path d="M1599.6 530c-8 2.3-9.6-4.3-13.7-9.7-2.9-3.6-12.9-2.2-13.9-8.6-.9-5.7 9.4-7.3 8.8-11-2.6-14.4 4.5-18.3 12.8-9.6 2.6 2.7 11-7.2 17.4-2.3 4.6 3.5-3 9.8-.3 14.4 3.4 6 9.2 6.2 7 11.7-1.9 4.6-8 1-11.7 3.6-6.2 4.5-2.4 10.3-6.4 11.5zm-44.7-73c.4 5.2-5.2 6.2-8.2 11.8-2 3.7 2 10 0 14s-13.5-2.6-17-2.3c-8.9.6-8.5 2.8-13.1-5.6-1.7-3-8.9-7.5-9.1-10.7-.4-5.3 7.4-5.7 10.3-9.7 3.7-5 .9-14.3 7.6-14.8 4.6-.3 9.9 6.5 13.5 8.6 6.1 3.6 15.5 1.2 16 8.8zm-64 29.3c-3.8-2.4-3.9-8.2-14.2-4.5-4.6 1.6-8.3 13.1-12.6 9.7-4-3-4-13-7.8-16-3.7-2.7-16.3 0-14.7 5.2 2 6.2 9.8-2.3 15.1 7.5 2.8 6.5 2.8 26.4 4.7 34.7a25.6 25.6 0 0 0 11 14.8 62.6 62.6 0 0 1 18.5-51.4z"/><path d="M1484.8 517.7c4.6-8.6 18.4-17 35.1-6 19.5 13 30.7 37.3 56.8 39.2h4.1a45.8 45.8 0 0 0 7-16.7 60.6 60.6 0 0 0-4.8-35.2c-11-23.2-46.8-35-72.8-19.2-15 9-15.8 8.8-19.3 6.5a62.6 62.6 0 0 0-18.6 51.4c9.7 2.5 9.6-14.7 12.5-20z"/></g><path fill="#c4491e" d="M1570 563.6c3.8-2.8 8-9.1 10.9-12.7a31 31 0 0 1-4.2 0c-26-1.9-37.2-26-56.7-39-16.8-11.2-26.7-12.3-34.2-.2-3.2 5.1-3.7 28.6-13.4 26 .5 6.3 2.2 12.4 4.8 18.2 17.7 36.2 66 30 92.9 7.7z"/><path fill="#f9d4bb" d="M1555.8 594.3s-9.4-27.4-8.2-31.7c0 0 16 4.8 19.2-16 2.6-18-15.3-59.3-15.3-59.3l-37.7 3.2s-9.9 24.7-13.5 38c-2.5 9.3-7.7 27.1 1 34.8 2.2 2 8.5 4 19 3.8l3.8 23.3-10.7-2.5s2.5 28.6 8.8 31.6c18.8 9.2 33.6-25.2 33.6-25.2z"/><path fill="#f9d4bb" d="M1511.6 494.8a37.7 37.7 0 0 0-9.2 15c-1.5 4.4-3.5 13.9-5.4 18-2 4-4.3 5.3-6.4 7.3-.9 1-.9 2.4 0 3.3l3.5 3.7s-1.5 18 1.5 23.3c.8 1.5 4.2 3.7 6 4 7.2 1 28.5-3.5 28.5-3.5l9.3-15 11.3.5 10.9-9.9 1-14.3-16.5-8.3-5.4-20.8z"/><path fill="#e2b2a1" d="M1522.9 585.4s19.3-25.2 14.2-22.1c-3.4 2-18.4 4.5-18.4 4.5zm24.9-36.5c-7 1.1-15.1-2.8-17.5-9.6-10.7-30.8-28.8-26.8-28.8-26.8s4-16.1 12.7-20.7c8.7-4.7 36.7-2.4 36.7-2.4a363 363 0 0 1 16.7 38.3"/><path d="M1508.4 525.4c.8.8 1 2 .3 2.8-.7.7-2 .7-2.8 0-.8-.8-1-2-.3-2.8.7-.7 2-.7 2.8 0z"/><path fill="none" stroke="#231f20" stroke-linecap="round" stroke-miterlimit="10" stroke-width="1.1" d="M1504.6 516.1s5.4-2.8 10.8 7.6"/><path fill="#e2b2a1" d="M1553 556.5c-5.7 1.3-10-3.5-10-3.5s4.9.3 5.4-1.4c.2-1 .1-2 0-3.1 0 0 3.4-2.6 4.6-3 4.3-1 6.2 4.8 6.2 4.8-.5 3.2-3 5.7-6.2 6.2z"/><path fill="none" stroke="#231f20" stroke-linecap="round" stroke-miterlimit="10" stroke-width="1.1" d="M1552.6 545.5c-1.7.6-3.2 1.6-4.4 3 0 0 1.5 1.6.1 3a4.4 4.4 0 0 1-5.1 1m15.3-2.5-.8-2.4a5.7 5.7 0 0 0-4.9-2.2"/><path fill="none" stroke="#231f20" stroke-linecap="round" stroke-miterlimit="10" stroke-width="1.1" d="M1553.8 552.1s6.8-4.5-.7-6.5"/><path fill="#c4491e" d="M1544.5 483.1c-15.2-.1-29.8 12-43.4 7-7.3-2.4-1.8-15.9-9.6-17.5-5.9-1.2-16.5 8.6-14.9 9.2 18.5 7.2 9.4 21.4 22.8 23.7 6.3 1.1 21.2-4 26.5-.3 5.9 4 6.9 23.7 12.7 29.5 7.4 7.2 13.2 5.6 16.7 4.4 11-4 10.7 11 10.7 11s12.6 4.7 14.8.8c12.1-22.4 5.8-67.4-36.3-67.8z"/><path fill="#211f20" d="m1563.6 706.7 18.8 50.3 7.6 61s-9.5 15.3-19.6 18.4c-6.3 1.9-26.3 2.2-26.3 2.2l-49-3.1s-1.2 12.8-2.9 16.2a80 80 0 0 1-10.2 12l-20.2-.3-4.1-51-71.7-47.6a9.6 9.6 0 0 0-11.8.9c-15 13.6-56.7 51-75.3 61.3-6 3.3-26.3 8.7-26.3 8.7l-18.9-11.7s66.6-82.8 94-105a62.3 62.3 0 0 1 25.4-11c18.3-1.3 70.6 19.6 70.6 19.6s-2.7-32 1.7-41c3-6.2 14-12 20.8-11.5 9.7.8 33.7 22.2 33.7 22.2l8.4 8z"/><path fill="#f9d4bb" d="M1494.9 585.8c-22.8-3.4-56.8-8.6-75.2-11.8-4.4-.8-11.8-4-15.7-6.3-12-7-26-18-48.5-31.7-9.3-5.5-19-10.1-24.5-12.8-9.5-4.8-36-14.6-44.4-17.5-1.2-.5-2.6.4-2.8 1.7 0 0 .2 4.1-.7 5-.9.3-1.8.5-2.8.5-1.2.1-2 1.5-1.3 2.6 0 0 3.5 3 5 3.4 2.3.7 9.8 0 9.8 0 2.2 0 4.3.7 6 2l13.3 10.6a2 2 0 0 1 0 3.2l-1.6 1.2s-6.2 2.3-7.7 4.2c-4.2 5.6-1.6 9-1.6 9s7.1-5.9 10-6c5.3-.4 10.5-1.2 15.6-2.5 1.5-.2 5.7 1.6 6.8 2.7 8.6 7.6 42.6 38.6 59 48.3a119 119 0 0 0 30.3 13.2l45.5 11a85.3 85.3 0 0 1 25.5-30z"/><path fill="#e2b2a1" d="m1518.2 589.2-23.2-3.4a85.1 85.1 0 0 0-25.6 30l22 5.2z"/><path fill="#f9d4bb" d="M1565 588.4s10.3-4.2 13.5-3.1c3.9 1.3 9.3 8.6 10.5 12.4 8.8 28.3 8.3 118.3 8.3 118.3s-2.1 69.7 3.1 92.3c.4 1.5 1.8 4.5 2.5 7 .6 2.7 2.6 3.5 5 4.7 4.1 2 8.4 3.8 12.8 5.2 6 2 18.3 3.2 20.2 9.2.8 2.5 2.4 7.7.1 9-5.1 3.1-23.2-1.6-28.4-2.6-4.7-.8-11.4-.2-16.2.3-3.3.5-5.6 3.5-5.5 5 .3 2.8 3.6 5.6 3.6 9 0 4-3.9 8.2-5.8 7-.8-.5-1.1-3.7-2.2-7-1.2-3.4-4.3-7.2-4.8-9.7-1-5.5.8-22.1.8-22.1s-14-85.1-12.9-100.6c.3-4.2 3-25 3-25z"/><path fill="#e2b2a1" d="m1500.9 678-1.4 9.7a174 174 0 0 0 63.7 12.7l-.9-12.6z"/><path fill="#f9d4bb" d="m1498.2 695.9 10 9.3 55.3 1.5-.4-6.2a174 174 0 0 1-63.7-12.7z"/><path fill="#e2ac6a" d="m1510.5 587 7.7 2.2s-2.2 27 4.8 29.7c10 3.7 32.7-27 32.7-27l9.2-3.4 5.4 79-8.1 20.4-61.4-10s-15.4-30.6-15.7-40.5c-.2-5 6.3-16.4 6.3-16.4z"/><path fill="#211f20" d="M1491 904c-1.4-6.4-10-24.2-10-24.2l-21.9.8-11.6 14.2c-2 2.4-4.4 4.2-7.3 5.3 0 0-25.8 6.5-31.7 12.7a32.7 32.7 0 0 0-4.3 11.1 3 3 0 0 0 3 3.8l78.4-2c3.7 0 6.5-3 6.5-6.7-.1-5-.4-11.9-1-15zm-250.8-66.3 17.2 11.8s1 18.2-.5 24c-.7 3.1-3.9 9.4-6.3 14a6.3 6.3 0 0 1-8.5 2.7l-72.2-37.3a4.8 4.8 0 0 1-1.3-7.6c2.5-2.6 5.6-5.4 7.5-6 8.1-2.4 33.4 5.4 33.4 5.4 6.1 1 12.4.3 18.1-2z"/><path fill="#e2b2a1" d="m1240.2 837.7 13.5-13.8 18.9 11.8-15.1 13.8zm221.6 25.8 20.2.2-1 16.1-21.8.8z"/><path fill="none" stroke="#231f20" stroke-linecap="round" stroke-miterlimit="10" stroke-width="1.1" d="M1282 512.5a62 62 0 0 1 24.4 2.5m241.4 49.6c1.5 9.7 5.7 18.6 8.4 28l7.4-3.8m-66.6 22.3c-5.5 10.6-11.6 18.2-11.8 25 0 6.7 4.5 18 7.4 24.2l8.2 17.7c1.3 2.7-2.5 16.8-2.6 19.8-.2 8 2.4 2.5 2.1 10.5M1581 822c2.1 5.5.9 11.6.3 17.5a18 18 0 0 0 .6 8c.9 2.4 2.7 4.4 4 6.6 1 2.2 1.7 4.4 2.2 6.7.2.9 1.1 1.4 2 1.2 1.6-.4 3.9-1.8 4.3-6.9.2-2.2-1-4.4-2.2-6.3a7 7 0 0 1-1.3-2.3c-.5-2.2 1.8-4 3.8-5.2m4.2-41.3c3.5 16.5 3.9 17.7 8.3 20a92 92 0 0 0 14.7 5.7c6.6 2 17 2.5 19 9.1m-25.9-1.3c6.3.6 12.6 1.3 18.6 3.2 3.5 1.2 7.2 3.2 8 6.7m-17.9-13.4c3.6.5 7 1.3 10.4 2.7 3.4 1.3 6.2 3.8 8 7M1498 552.5c2.7.4 5.5-.5 7.6-2.4"/><path d="M1282.4 498.7c1 3.3 1.5 6.8 1.2 10.3a17 17 0 0 1-1-5 19 19 0 0 1-.2-5.3zm3.1 0a24.6 24.6 0 0 1 3.9 9.7 24 24 0 0 1-3.9-9.7z"/><path fill="#c4491e" d="M1256.2 445c20.3 1.1 24.8 6 34.4 16.3 3.8 4 8.1 10.6 5.6 15.6-1.2 2.5 2.8 14.3-7.1 21.3-7.3 5-15 4.1-18 5.4"/><g fill="#e95c1f"><path d="M1273 470.4a46.5 46.5 0 0 0-43.9-.3l36 25.8c4.9-5 14-11 18.6-16-1.7-4-5.7-7.2-10.7-9.5z"/><path d="M1285.8 486.4a12.9 12.9 0 1 1-25.8 0 12.9 12.9 0 0 1 25.8 0zm12.8-22.8 4-4.1.2 5.8 5 1.7-4.5 3z"/><path d="M1262 493.4c8.5 10.6-30.2 17.8-30.2 17.8l12.7 11.8 35.2-25.6zm42-21.6a11.8 11.8 0 1 1-23.6 0 11.8 11.8 0 0 1 23.6 0z"/></g><path d="M1294.3 470a1.8 1.8 0 1 1-3.5 0 1.8 1.8 0 0 1 3.5 0zm-61.6 41.7c2.5 2.5 5.3 4.8 8 7.2a74.2 74.2 0 0 1 4.2 3.7c.2 0 .4-.1.5-.3l1-.8 2.1-1.7c5.6-4.4 11.5-8.5 17.2-12.8l4.2-3.3c.7-.7 1.5-1.1 2.4-1.5 1-.2 1.9-.3 2.8-.2 3.6-.1 7-.9 10.3-2.3 3.3-1.3 6-3.6 8-6.5 1.9-3.1 2.8-6.6 2.7-10.2.3 3.6-.5 7.2-2.3 10.4a18 18 0 0 1-8.1 7 27 27 0 0 1-10.5 2.5c-.9 0-1.7 0-2.6.2-.8.3-1.5.7-2.1 1.3l-4.2 3.3-17.3 12.7-2.2 1.6-1 .8a2 2 0 0 1-.7.4 1 1 0 0 1-1-.2 90 90 0 0 0-3.7-3.8c-2.6-2.5-5.3-4.8-7.7-7.5z"/><g clip-path="url(#a)" opacity=".9" transform="scale(1.333)"><path fill="none" stroke="#427f3e" stroke-miterlimit="10" stroke-width="7.5" d="M979.4 322.9a18 18 0 0 1 21.1 14"/></g><g clip-path="url(#b)" opacity=".8" transform="scale(1.333)"><path fill="none" stroke="#427f3e" stroke-miterlimit="10" stroke-width="7.5" d="M977 311.5a29.6 29.6 0 0 1 34.9 23.1"/></g><g clip-path="url(#c)" opacity=".7" transform="scale(1.333)"><path fill="none" stroke="#427f3e" stroke-miterlimit="10" stroke-width="7.5" d="M974.8 300.1a41.2 41.2 0 0 1 48.5 32.3"/></g><path fill="none" stroke="#427f3e" stroke-miterlimit="10" stroke-width="10" d="M1308 444a9.7 9.7 0 0 1 11.4 7.6"/><path fill="#b2765b" d="m1758 302.9 3.5 31.1s39.5 22.2 64.6 43.7c5.6 4.8 17.5-37 14.5-39-26.8-16.6-82.5-35.8-82.5-35.8z"/><path fill="#211f20" d="m1864.4 370-3.9-6-26.6-5-7.7 22.1a4.4 4.4 0 0 0 1 4.5l8.2 8.3c1.9 1.9 4.4 1.1 6.6-.3 13-8.5 14-16.8 22.4-23.6z"/><path fill="#c49057" d="M1866.5 365.6c-9.7 8-10.6 18.7-24.5 28l14.4 15 29-13.7z"/><path fill="#b2765b" d="m1889.4 330.5-3.6-30.4-22-3.7-18.7 21.1c15.4-2.8 30.5 4.7 44.3 13z"/><path fill="#d49675" d="M1889.4 330.5c-13.8-8.3-29-15.8-44.3-13l-1.5 1.7L1825 333l5.4 7.7s-11 28.1-4.8 36.3c5.6 7.6 16.8 4.8 25 5.2 9.8-4.9 25.3 12.5 35.6 11 4.3-.6 27.7 0 11.5-19.7-4.1-5 8.1-24.3 8.1-24.3l-11-13.3z"/><path fill="#b2765b" d="M1886.4 343.5c-1.9-.5-7.4 6-7.4 6a5 5 0 0 1 .6 3.4c-.2 1.7-3 4-6.4 3.4-2-.4-.5 3.3.5 4.5 4.2 5 18.7 3.5 18.9-11.5 0-3.3-3.3-5.1-6.2-5.8zm-35.6 38.7c12.1 3.6 16.5 20.1 16.5 20.1l20-13s-6.9-7.5-9.8-8.8c-10.2-4.5-14.4-2.4-26.7 1.7z"/><path fill="none" stroke="#231f20" stroke-linecap="round" stroke-miterlimit="10" stroke-width="1.1" d="M1840.6 351.4s-6 5.2-12.2.7"/><path d="M1849.8 324c.7.6.8 1.7.1 2.5-.6.9-1.7 1.1-2.4.5-.8-.5-.8-1.6-.1-2.5.6-.8 1.7-1 2.4-.5z"/><path fill="#211f20" d="M1860.2 332a37 37 0 0 1-3.3-4.5c-1-1.4-1.8-3-2.7-4.3-.8-1.3-1.8-2.4-2.9-3.5-.5-.5-1-.8-1.7-1-.9-.2-1.8-.2-2.6 0 .5-1 1.4-1.6 2.4-2a5 5 0 0 1 3.4.2c2 .8 3.6 2.2 4.7 4a17.6 17.6 0 0 1 2.7 11z"/><path fill="none" stroke="#231f20" stroke-linecap="round" stroke-miterlimit="10" stroke-width="1.1" d="M1892.4 349.2s-1-5.5-6-5.4c-4 .1-7.5 5.7-7.5 5.7s1.2 3.3.5 4.2c-3 3.8-6.2 2.6-6.2 2.6"/><path fill="none" stroke="#231f20" stroke-linecap="round" stroke-miterlimit="10" stroke-width="1.1" d="M1886 353s5.6-6.1-2.7-8m-23.5-44.2-14.8 16.7-19.9 15.5 5.5 7.3s-5.5 12.9-7.1 23c-1.9 11.7 3.9 15.6 3.9 15.6"/><path fill="#211f20" d="m1885.2 315.8-9.3 20s3.2 3.2 4.6 3.7c2.8 1 6-2.7 9-2.4 5.4.5 9 6.3 9 13 0 4.6-2.4 11.4-9 16.3-1.8 1.4-4 5.8-4.3 7.8-.6 4 5.7 6.4 5.7 6.4l8-1.7s9.3-3.1 11.7-4.8c8-5.5 15.5-4.6 22-34.2a47 47 0 0 0-20.7-44.3c-7-4.5-25-7.2-30.6-13-2.9-3-4.7-12.7-4.7-12.7s-17 12.7-19 19c-.9 3 2.3 11.9 2.3 11.9z"/><path fill="#d6d0cc" d="m1849.8 521.5 20 54.4 49 31.1 31-41-8.6-65.4c-30.5 7.5-61 13.7-91.4 21z"/><path fill="#e2ac6a" d="m1834.5 417.2-52 20.7 22.4 40 29.2-4.4c1-.2 2-.1 3 .1a170 170 0 0 1 4.5-18.4 50 50 0 0 0-7.1-38z"/><path fill="#e2ac6a" d="M1934 443.1a111.3 111.3 0 0 0-19.6-47.5l-41 11.7h-7.2l-11 1.3-26 10.8c2.5 13.3 15.9 15.1 8.2 26.6-3.7 5.1-7.3 10.3-10.6 15.7 1.3.9 2.3 2.2 2.9 3.7l20.6 56.1c17.3-1 34.6-3.4 51.5-7.2a151 151 0 0 0 39.8-13.7s-5.5-43.2-7.6-57.5z"/><path fill="#211f20" d="m1869.8 575.9-41.8 316 29 4 4.9-13.1 9.4-9.2c5.7-5.7 10-12.6 12.3-20.3l28.2-93.4 81.5 117.9 23.5-10-8-22V830c0-8.7-2.1-17.3-6-25.1l-36.3-72c-4.1-8-6.5-16.9-7.1-26l-9.5-141s-14.2 6-38.4 9.9c-18.2 2.9-41.7 0-41.7 0zm-14.1-168.3 46.8-30.5 11.6 14.5v4l-41.2 18.4c-2.2 1-4.9.4-6.4-1.5a15 15 0 0 0-2.3-2.1c-1.8-1-8.5-2.8-8.5-2.8zm-56.4 50.3a100.8 100.8 0 0 0-16.8-20l-18.8 5.5s9 15.4 12 21l9.6 19.9c1 2 3.2 3 5.4 2.4l14.3-3.9c2.5-.6 4-3.3 3.2-5.8a83.3 83.3 0 0 0-9-19.1zm25.9 446.9 27.6 2 6 22.7s7.2 9.5 8 13.3c.6 2.8-1.5 11.5-1.5 11.5l-104.5-.2 1.5-7.6c1-5.4 4.8-9.7 10-11.4l33.3-10.5a15 15 0 0 0 7-4.7zm175.9-15.4 21.8-12.2 18.3 11.6s6.3 0 12.2 7.1l3.4 8.2-48.6 43.6h-52.8v-6a11 11 0 0 1 7-10l22-8.8a14 14 0 0 0 6.8-7.6l5.5-14.5z"/><path fill="#b2765b" d="m1852.9 906.7-27.7-2 2.9-12.9 29 4.1zm170-29.5-21.8 12.2-7.8-11.6 23.4-10z"/><path fill="#d49675" d="M1678.9 412.4a72.5 72.5 0 0 0-13.6-14.4c-4.9-2.6-20.8 3-20.8 3l3 4.6c2.2 2.7 8.6.6 10.9 3.1.6.7-.1 2 .7 3.7 6.7.7 13 0 19.8 0z"/><path fill="#211f20" d="M1692 449a3638 3638 0 0 1-3.8 56c-.2 2.2-.1 4.8-.8 7-3.3 10-17.4 11-23.7 3.7-4.5-5.3-3.9-14.4-4.3-21-2.2-36.7-2.4-73.5-2.7-110.2l-.1-36.3c0-2-3-2-3 0 0 32.3.3 64.7 1 97 .4 18.6.8 37.2 2.2 55.8.5 7.1 1 14.4 7.2 19a17.6 17.6 0 0 0 21.8-.7c6-5.4 5.3-13 5.9-20.2 1.3-16.7 2.3-33.4 3.4-50 0-2-3-2-3 0zm78.9 294.8c16.5-.6 27.3 17.4 26.2 32.2a34 34 0 0 1-24 30.3c-9.7 2.7-21 2.1-31 1.9-9.5-.2-18.4-3-25.3-10-11.7-11.7-10-27.4-10-42.5V525.3c0-19.8.2-39.7-.1-59.5l-.7-34.2c0-3.4.3-7.1-2.9-9.2a6.8 6.8 0 0 0-7.3.2c-1.7 1-.2 3.6 1.6 2.6 7.1-4.3 5.7 11.5 5.8 15l.3 16.5.4 23.7v252.3c0 14.3-.6 28.7 0 43 .7 15.5 11 29 25.8 33.8 9.6 3 20.5 1.9 30.3 1.4 7.7-.4 15-1.2 21.7-5a37.4 37.4 0 0 0 18.3-35.4c-1.4-14.6-13.3-30.2-29.2-29.7-1.9.1-1.9 3.1 0 3z"/><path fill="#c4491e" d="m1642.5 361.6 44 8.3-23-98.5 45.4-67.4h-43.1l-45.8 66z"/><path fill="#e95c1f" d="m1686.5 369.9 77.4-22-3-95.6-52-48.3-45.4 67.4z"/><path fill="#d49675" d="m1754 446-3.3.2c-1.6.1-3.2-.2-4.7-.9l-64.7-29.7-2.4-3.1c-6.8 0-16.7-3.5-23.3-4.1.3.7-6.8-3.3-6.8-3.3l-3.3-4.4a3.1 3.1 0 0 0-4.7-.2c-3.2 5.7-3.8 7 .4 12 2.4 2.9 7 21.7 8.9 22.7 7.7 4.5 35.1 7.3 35.1 7.3l47.3 37.5a60 60 0 0 0 21.7 7c3.3-12.9-1.6-27.8-.1-41z"/><path fill="#d49675" d="M1773 483.2a499.8 499.8 0 0 1-17.6-37.1l-3.2 1c1.6 13.3 2.4 26.6 2.1 40l.7-.1z"/><path fill="#211f20" d="M1699.8 421.4c-6.2.2-6.5 5.8-6.8 10.7l-1.5 24.3c-.1 1.9 2.9 1.9 3 0l1-15.8c.2-3.6-1-16 4.3-16.2 2 0 2-3 0-3z"/><path fill="#b2765b" d="M1775.6 464.5c-3-5.7-12-21.1-12-21.1l-8.4 2.7a504 504 0 0 0 17.7 37.1l10.7-2.2-8-16.5z"/><path fill="#211f20" d="M1718.4 262.9a7.5 7.5 0 1 1-13.8 5.9 7.5 7.5 0 0 1 13.8-5.9zm117 119.3c1.7.2 3.4.2 5.1 0l5.1-.3a18 18 0 0 1 5.2.2c1.8.2 3.5.9 5 1.9a37.2 37.2 0 0 1 7 7.6c2 2.9 3.3 6 4.1 9.5a31.2 31.2 0 0 0-4.7-9 48.5 48.5 0 0 0-7-7.3c-2.7-2-6.2-2.2-9.5-2.1-3.4 0-7 .3-10.3-.5z"/><path fill="none" stroke="#231f20" stroke-linecap="round" stroke-miterlimit="10" stroke-width="2" d="M1659.7 274.7c17.6-23.2 34.5-46.9 50.6-71.1 19.2 19.8 34 34.7 56.2 51.3"/><path fill="#231f20" d="M1772.8 743a13.5 13.5 0 0 1-26.8 0 13 13 0 0 1 3.9-9.3 13.5 13.5 0 0 1 22.9 9.3z"/><g fill="#211f20"><path d="M1715.3 296.8a7.5 7.5 0 1 1-13.7 5.9 7.5 7.5 0 0 1 13.7-6zm26.7-13.4a7.5 7.5 0 1 1-13.8 5.9 7.5 7.5 0 0 1 13.8-5.9z"/><path d="m1710.4 267 23.6 20.4.4-2.3-26.8 13.3c-1.7 1-.2 3.5 1.5 2.6l26.8-13.3c.9-.5 1-1.7.3-2.4l-23.7-20.5c-1.4-1.3-3.6.9-2 2.1z"/></g><path fill="#ede9df" stroke="#000" stroke-miterlimit="10" stroke-width="1.1" d="m1749.3 729 10.8-.2c.2 0 .2.3 0 .3-6 1.2-11.8 5.3-11.9 13.5-.2 12 9.7 13 13.2 13.9v.4c-2.6.2-12.8.2-13.2.2a13.5 13.5 0 0 1-13.3-14.2c.2-7.8 6.6-14 14.4-14z"/><path fill="#231f20" d="m1759.3 729.2 12.3 3c12.1 3.1 11.6 20.5-.7 22.8l-9.5 1.8z"/><g fill="#e2ac6a"><path d="M2422 387c2.2 1.7 4.5 3.2 7 4.4 11.4 5.6 26.2 5.5 42.3.4l-58.8-76.1c-9.6 30.8-7 57.8 9.6 71.3z"/><path d="m2453.7 243.8-3.9 4.6a206 206 0 0 0-37.4 67.3c19.9 25.5 39.5 50.9 58.9 76.1 20-6.3 42-20 62.4-39.9-27.5-36.5-52.5-72.6-80-108z"/><path d="M2552 331.8c43.7-53.5 56.2-115.6 27.9-138.6-27.4-22.4-83.2.3-126.3 50.6 27.5 35.5 52.5 71.6 80 108.1 6.6-6.3 12.7-13 18.5-20.1zm-128.2-1.4-29-37.1a41.8 41.8 0 0 0 29 37.1z"/><path d="M2478.3 290.6a41.8 41.8 0 1 0-83.5 0l.1 2.7a11884 11884 0 0 1 29 37.1 41.8 41.8 0 0 0 54.5-39.8z"/></g><g fill="#e2b2a1"><path d="M2496.7 304.4c.3-.5.7-.9 1.2-1.1l-14.7-20.2-16.8 14.8a86 86 0 0 1 19 10.1c3.4 2.5 9 2.5 11.3-3.6z"/><path d="M2505.8 304.4c6.8 6 18.2 3.6 19.3-2.4 2-15.5 5.3 1.6 15.9-1.2l4.2-23.4-36.3-17-25.8 22.7 14.8 20.2c2-1.2 6-.9 7.9 1zm-5.3 59.8a5.5 5.5 0 0 1-1.5-4.7l1.5-8.1c-3.8-4.7-8-9.5-11.6-14.2a20.8 20.8 0 0 0 11.6 27z"/></g><g fill="#f9d4bb"><path d="m2450 368.2-8 7.8c-3 14.9-11 59.8 5.4 65.6 3.6 1.6 37 .7 61.7-.9-18.9-24.3-37.8-48.8-56.7-73.5z"/><path d="m2525.1 376-21.5-10.2a5 5 0 0 1-3.2-1.6 20.8 20.8 0 0 1-11.6-27c3.6 4.8 7.8 9.5 11.6 14.2l.1-.5s11.3 10.6 22 6.4c2.5-1 5.5-5.4 7.9-9.8a3814.5 3814.5 0 0 1-32.5-44.2 2 2 0 0 0-1.1 1.1c-2.3 6.1-8 6.1-11.4 3.7a86.4 86.4 0 0 0-19-10.1l-10.7 9.5 20.1 27.8-3.7 23.2-19.8 8.7 56.7 73.6c14.1-.9 25.4-2 26.6-2.8-1.8-31-10.5-62-10.5-62z"/><path d="M2534.7 338.6h6l-1.4-22 1.7-15.9c-10.6 3-13.8-14.2-15.9 1.3-1.1 6-12.4 8.5-19.2 2.4-1.9-2-5.9-2.3-8-1.2 10.7 14.7 21.4 29.5 32.5 44.3 2.5-4.5 4.3-8.9 4.3-8.9zM2442 376l8-7.8-6.9 3-1 4.8z"/></g><path fill="#ede9df" d="M2414.9 303.5c2.1 4 .4 13.1 3.7 16.3 2.9 2.8 9.1 0 12.7 1.6 3.1 1.4 6.2 6.7 8.8 9 4 3.4 12.7-6 17.8-5 4.4 1 .4 13.2 12.8 13.2 5 0 13.6-15.6 13.6-15.6s-9.8 1.2-12.8 0c-7.8-3.1-4.5-13.2-4.5-13.2s18.6 4.3 22.7 0c2-2.2-2.1-10.4 0-12.7.8-.8 2-1.2 3-1-14.2-19.6-28.5-39-43.6-58.3-2.9 5.9-2.6 13.1-5.3 18.3-2.3 4.3-12.5 0-19.2 3-11.6 5-11.8 13.1-15.4 17.6-1.7 2.1-8.2 5.2-8.2 8 0 11.2 11.2 13.5 13.9 18.8z"/><path fill="#ede9df" d="M2511.5 301c5-3 2.4-23.8 8-23 2.3.3 10-.6 13.6 1.8 7.6 5.2 10 11.7 6.4 33.8-1.3 8.1.8 18 .8 18s28.7 7.1 30.2-16.2c1.4-22.3-11.2-28.4-9-30.5 4.3-3.7 4.8 2.8 12.7-6.3 5.1-6 1.5-20.9-6-22-13.3-1.7-21.8 17-28 8.9-3.5-4.8 2.5-18.8-12.8-20.3-6.3-.5-17.2 10.6-23.5 9.8-10.6-1.6-6.6-27.3-35.1-26.8-12.2.3-17.3 4.4-19.8 9.6a2158 2158 0 0 1 43.7 58.3c5.5.5 15 7.4 18.8 5z"/><g fill="#d6d0cc"><path d="M2411.5 326.5c2 1.6 6 1 9.8.6l-13-16.7c-1.7 4.5-3.8 10.3 3.2 16.1z"/><path d="M2426.7 327.4c3.1 1.4 6.9 15 10.2 16 12.9 3.4 15.8-18.9 20.9-17.9 4.4.8.4 13.2 12.8 13.2 5 0 13.7-15.6 13.7-15.6s-10 1.3-12.9 0a8.4 8.4 0 0 1-5.2-8.6s12.9 4.2 22.4-4.2c4-3.6-1.1-10.9 1-13.2.8-.8 2-1.2 3-1l-9.4-13c-1.8-.1-3.5.5-4.7 1.8-5.7 7.3-11.4 19.5-19.3 12.2-5.7-6-4.5-18.2-11.3-25.5-3.5-2.5-9.2 5.8-12.5 2.4-4.5-5.5 1-11 2.5-15.9-4 0-9.4-.9-13.4 1-11.6 5-11.8 13.1-15.4 17.6-1.7 2.1-7.5 5.3-8.2 8-4.2 16.1 5.5 15 8.2 20.1.7 1.4 0 3.3-.8 5.6l13 16.7a12 12 0 0 1 5.4.3zm84.8-26.4c4.6-2.8 2.2-16.9 6.7-23-2.3-.2-3-.5-5.6 2-4.6 7.9-10.2 13.4-16 9.8-4-2.6-9-6.4-13.3-6.7l9.4 13c5.5.5 15 7.4 18.8 5z"/><path d="M2448 255.8c2.3 2.4-.5 7.7 2.3 11 5.3 2 12.5-1 19-2.6-6.6-8.8-13.3-17.5-20.2-26.3-2.7 5.7-2.5 12.8-5 17.9 1.2 0 1.9-1.8 4 0z"/><path d="M2485.4 275.2s4.4 10.2 13 4.5c8-7.3 19-7.7 29.1-4 0-18.7-15.1-10.4-17.9-22-1.7.9-3.6 1.4-5.6 1.3-10.7-1.5-6.6-27.3-35.2-26.8-12.2.3-17.3 4.4-19.8 9.7 6.9 8.8 13.5 17.5 20.1 26.3 7.4-1.6 14-1.1 16.3 11z"/></g><path d="M2529.1 319.3a2 2 0 0 0 .6-2.5 1.6 1.6 0 0 0-2.2-.6 2 2 0 0 0-.6 2.4c.4.9 1.5 1.1 2.2.7zm2.4-7.5c-.4-.6-1-1.1-1.8-1.4-.6-.2-1.4-.3-2-.1l-2.2.7-2.1 1a8.2 8.2 0 0 1 2.8-2.3l1.3-.4a4 4 0 0 1 2.6.4c.7.5 1.3 1.2 1.4 2zm-10.1 25.4c0 .8 0 1.6.3 2.3.3.7.7 1.3 1.3 1.7.6.5 1.3.9 2 1.2l1 .5 1.2.5h-1.3l-1.2-.2-1.2-.5-1.1-.7a3.9 3.9 0 0 1-1.4-2.3c-.2-.8 0-1.8.4-2.5z"/><path fill="#eceae0" d="m2529 277.1-5 7s4.8 1.4 5-7z"/><path fill="#eceae0" d="m2529 276.4-.3 13.7s8.5-4.4.3-13.7z"/><path d="M2530.7 279c1.7.1 3.2.9 4.4 2a16.8 16.8 0 0 1 4.3 6l1 2.2a84.2 84.2 0 0 1-.3 24.4l.6 12.5.6 12.5v.5h-6.5l.4-.3a114.8 114.8 0 0 1-8.4 15 11 11 0 0 1-3.2 3 9.7 9.7 0 0 1-4 1.5c-3 .3-5.9 0-8.6-1.1 2.7.9 5.6 1.2 8.5.7 1.4-.2 2.7-.7 3.9-1.4 1.1-.8 2.1-1.9 2.9-3a165.9 165.9 0 0 0 8-15l.2-.3h6.3l-.5.4-.6-12.5-.6-12.5v-.1a145.8 145.8 0 0 0 1.2-19.4 26 26 0 0 0-.5-4.8l-.8-2.2-1.1-2.2c-.8-1.4-1.8-2.7-3-3.8a7.4 7.4 0 0 0-4.2-2.1zm-28.9 11.8c2.4-1.1 4.4-2.8 5.8-5 1.6-2 2.9-4.4 4.8-6.4l.7-.7 1-.6.5-.2.2-.1h.3l1-.1h4c2.7 0 5.3.2 8 .7h-8l-3.9.2-1 .1h-.3l-.4.3-.7.4-.7.7-2.4 3-2.4 3.1c-.9 1-1.9 2-2.9 2.8a11 11 0 0 1-3.6 1.8zm-63.8-32.7a126.4 126.4 0 0 0-3.3 7.6 11 11 0 0 0-.6 2.6c-.2 1.7.3 3.5 1.4 4.9.6.6 1.3 1 2.2 1.1h1.2l1.2-.4c1.6-.8 3.2-1.8 4.9-2.5l1.4-.4a3 3 0 0 1 1.6.2 6 6 0 0 1 2.2 2c1 1.5 1.9 3.2 2.5 5l1.8 5.1c1.1 3.5 2.1 7 3.5 10.4l1.2 2.4a8 8 0 0 0 1.6 2 3 3 0 0 0 2.2.8 9 9 0 0 0 2.6-.6c1.6-.7 3-1.8 4.3-3 1.2-1.4 2.3-2.8 3.3-4.3a68.5 68.5 0 0 1 5.2-6.5c.7-.6 1.5-1 2.4-1-.9.1-1.7.5-2.4 1.1a13 13 0 0 0-1.8 2l-3 4.6c-1 1.6-2 3-3.3 4.4a13 13 0 0 1-4.4 3.4 9 9 0 0 1-2.8.7c-1 0-2-.3-2.8-1a8.6 8.6 0 0 1-1.8-2.2 15 15 0 0 1-1.3-2.5c-1.5-3.4-2.5-7-3.6-10.4a86 86 0 0 0-1.7-5.2c-.7-1.7-1.5-3.2-2.5-4.7a6 6 0 0 0-1.8-1.8c-.7-.2-1.6 0-2.3.3-1.6.6-3.2 1.6-4.9 2.4l-1.4.4h-1.4c-1-.2-2-.7-2.6-1.4a6.9 6.9 0 0 1-1.4-5.4 47.7 47.7 0 0 1 4.3-10zm51.7 39a3 3 0 0 0-.4 2.3c0 .7.2 1.5.4 2.3.4 1.5.7 3 .9 4.6a4 4 0 0 1-.4 2.4l-1.5 1.7c-1.3 1-2.6 2-4 2.6-3 1.3-6 2.2-9.1 2.6-3.2.5-6.4.2-9.4-1l.2-.5c2.9 1.2 6 1.5 9.1 1a28 28 0 0 0 9-2.4 15 15 0 0 0 5.6-4.2c.3-.7.5-1.5.4-2.2a34 34 0 0 0-.9-4.6l-.3-2.4a3 3 0 0 1 .4-2.2z"/><path d="M2466.2 314.4c0 2 .6 4 1.6 5.8a8 8 0 0 0 2.1 2 7 7 0 0 0 2.9.7 41.7 41.7 0 0 0 12-1.1l1-.1-.5.9a88.2 88.2 0 0 1-9.2 12.7 14.9 14.9 0 0 1-4.2 3.4l-1.4.3-1.3.1c-1 0-1.9-.1-2.7-.4a7 7 0 0 1-4.2-3.3c-.8-1.6-1.3-3.3-1.7-5l-.6-2.6c-.2-.8-.7-1.6-1.4-2 .7.4 1.3 1.1 1.5 2l.8 2.5a20 20 0 0 0 2 4.8 6.2 6.2 0 0 0 3.8 3 8.6 8.6 0 0 0 3.7 0c.4 0 .8 0 1.1-.2a14 14 0 0 0 4-3.2l3.2-4c2-2.8 4-5.7 5.8-8.6l.5.6a54.8 54.8 0 0 1-12.3.8 8 8 0 0 1-3-1c-1-.5-1.7-1.3-2.2-2.2-1-1.8-1.4-3.8-1.3-5.9z"/><path fill="none" stroke="#000" stroke-linecap="round" stroke-linejoin="round" stroke-width="1.1" d="M2546.6 332.1c3 .1 5.3-7 5.3-16s-2.3-16.2-5.2-16.3c-2.9-.1-5.3 7-5.3 16s2.3 16.2 5.2 16.3zm-27.9-.3-.8-1.1.8 1.1zm0 0a9 9 0 0 0 5.8 3.5c6.3.8 12.3-6.4 13.4-16.1 1-9.7-3.3-18.2-9.6-19-6.3-.8-12.3 6.4-13.3 16.1-.6 5.6.6 10.8 2.9 14.3z"/><path fill="#e2b2a1" d="m2417.4 436.8 16.5-12.2 2.6 7.3c23.2-3.8 13.3-55.7 12-62.3a128 128 0 0 0-31 67.2z"/><path fill="#f9d4bb" d="M2417.1 385.5a735.6 735.6 0 0 1-45.1 37.6c-.6.5-30.4-56.7-33-59.1-2.2-2.1 9.2-20.6 6.9-23.7a22 22 0 0 0-12.4-8c-2.9-.6-8.5-30.1-14.3-30.1-6.4 0 1.2 26.8.5 27.4-14 13.5-13.1 21.1-3.9 43.6 2 5 12 52.1 17.2 69.2 1.5 5 3.4 12.5 9.1 18.3 6.5 6.4 18.5 6 24.5 4.5 7.5-1.9 21.5-8.6 28.2-12.4 8.7-5 32.7-23.7 32.7-23.7 1.2-20.4 6.8-45.9 21-59.5l-.2-.7s-23 9.5-31.2 16.6zm266 73.7s17.9-5.4 22.2-9c5.5-4.7 7-25 5.5-32.3-1.6-8-4.8-4.4-4.8-4.4l-4.7-6.5-9.6 5.5c-1 .6-1.8 1.3-2.5 2.1l-14.7 17.3s-44.8 7.2-69.8 5.2l28 31.1c25.2-3.6 50.4-9 50.4-9zM2552 455c12.3 6.4 29 14.5 37.5 15.8 9.3 1.4 26.2-.2 43-2.6l-28-31.1a44 44 0 0 1-10.7-2c-13.3-4.6-36.6-26.3-52.4-42.1a86 86 0 0 1 10.7 62z"/><path fill="#e2b2a1" d="M2537.8 447.4s6.1 3.4 14.3 7.7a86 86 0 0 0-10.6-62.1 614 614 0 0 1-16.4-17l13.4 56z"/><path fill="#f9d4bb" d="M2406.9 783a309.4 309.4 0 0 1 19.7-73.2 67.8 67.8 0 0 1-26.4-23.4L2376.7 825l37.2 2 23-76 3.1-30.6 1.3-4.2c-5-1.8-10-4-14.7-6.4-9.6 23.5-16.2 48-19.7 73.2z"/><g fill="#e2b2a1"><path d="M2426.6 709.8c4.8 2.5 9.7 4.6 14.7 6.4l13.1-42.7-11.6 1.6c-6 11.3-11.4 22.8-16.2 34.7z"/><path d="m2403.4 668.9-3 17.5a67.7 67.7 0 0 0 26.4 23.4 354 354 0 0 1 16.1-34.7l-21.3 3zm168.4-8.6-35 11.2-11.6 1.4 3.5 22c13 13.6 31.5 20 50.4 22.5l-.5-19.5z"/></g><path fill="#f9d4bb" d="m2528.6 695 2 13v28l12.2 89s37.7 8.4 38.4-1.1c.8-11.2-2.3-106.5-2.3-106.5-18.9-2.6-37.4-9-50.3-22.5z"/><path fill="#e95c1f" d="m2362.7 823.6 52.2.3-5.8 57-5 5.8h-67s-1-9 .3-11.2c3-5.4 22.4-8 22.4-8zm179.8-1.6 53.7 1.5-2.8 45s13.7 5.6 16.1 8.5c2 2.4.8 9.7.8 9.7h-64.7l-3.1-5.5z"/><path fill="#c4491e" d="m2469.8 673.2 15-61.1a403.4 403.4 0 0 0-43.6 66.3c9.7-.8 19.3-2.6 28.6-5.2z"/><path fill="#c4491e" d="M2411.5 675.8a71.7 71.7 0 0 0 29.6 2.6c12.4-23.5 27-45.7 43.7-66.3l3.8-15.3-1.3 2a300.7 300.7 0 0 1-75.8 77z"/><path fill="#e95c1f" d="m2446.3 484.8-21.5 53.5-34.9 126c6.4 5.2 13.8 9 21.7 11.4a300.6 300.6 0 0 0 75.7-76.9l1.3-2v-.5.2c21.6-34.5 42.7-74.8 44.5-114.5l-39.2 5.5z"/><path fill="#c4491e" d="M2552.9 544c-6 4.7-12 9.7-17.9 15a473 473 0 0 0-45.1 47l7.4 64.9s23.6 6.7 41.4 4a98.9 98.9 0 0 0 42.5-17.6l-25.8-103.5z"/><path fill="#c4491e" d="M2533.1 482c-1.8 39.7-22.9 80-44.4 114.6l1.1 9.4c14-16.7 29-32.4 45.1-47 5.9-5.3 11.8-10.3 17.9-15l-16-62.4z"/><g fill="#211f20"><path d="m2448.5 369.7 1.5-1.5-1.6.7z"/><path d="m2450 368.2-1.6 1.5c.7 5.8 4.8 46-11.8 62.2l9.8 53s37.7 3.8 47.6 2.6c8.4-1 42.8-6 42.8-6l.3-4.6a25528 25528 0 0 1-84.7-109.8z"/><path d="m2525.1 376-24.7-11.8s12.5 48.6 0 50.2c-14.9 1.8-28.3-56-28.3-56l-19.8 8.8c28.5 37 56.6 73.6 84.8 109.8l3.6-53.9c1-12.2-15.6-47.2-15.6-47.2z"/></g><path fill="#c4491e" d="m2719 251.6.4-39.4c0-6.9 5.6-12.3 12.5-12.3l48.8.5c6.9 0 12.3 5.6 12.3 12.5l-.4 39.4c0 6.9-5.7 12.4-12.5 12.3l-48.8-.5c-6.9 0-12.4-5.6-12.3-12.5z"/><path fill="#e95c1f" d="m2798.2 153 48.8.2c6.9 0 12.4 5.6 12.3 12.4l-.1 39.5c0 6.8-5.6 12.3-12.5 12.3l-48.8-.2c-6.9 0-12.3-5.6-12.3-12.5l.2-39.4c0-6.9 5.5-12.4 12.4-12.3zm-159.5-13.3 74.6-1.4c8.2-.1 14.9 6.3 15 14.5l.6 34.7c.2 8.2-6.3 14.9-14.4 15l-74.6 1.4c-8.1.1-14.8-6.3-15-14.5l-.6-34.7a14.7 14.7 0 0 1 14.4-15z"/><path fill="#ede9df" stroke="#000" stroke-miterlimit="10" stroke-width="1.5" d="M2697.1 452c-1.5 39.2-1.5 78.3.4 117.4 1.9 39.2 6 78.2 12 116.9 2.4 14.6 9.5 54.1 15.4 85.2.8 4.1 11.7.3 12.5 4 2 10.2-13.9-77-12.7-71.8"/><path fill="none" stroke="#231f20" stroke-linecap="round" stroke-miterlimit="10" stroke-width="2" d="M2701.3 404.4a1190 1190 0 0 0-1.7 26.2"/><path fill="none" stroke="#231f20" stroke-linecap="round" stroke-miterlimit="10" stroke-width=".8" d="m2752.5 811.9-71.4 4.4c17-5.2 33.2-9.3 51-8.8l16.3-.3"/><path fill="none" stroke="#231f20" stroke-linecap="round" stroke-miterlimit="10" stroke-width="2" d="M2762 454.8c-32.8 15-53.6 38-57.4 63.4"/><path fill="none" stroke="#231f20" stroke-linecap="round" stroke-miterlimit="10" stroke-width="2" d="M2742.3 475.8c2.3-.1 3.3.7 5.2 1.7 1.8 1.2 3.3 2.8 4.4 4.6 1 1.4.8 3.6-.6 4.5-1.5 1-3.5 0-5-1a17.8 17.8 0 0 1-5.2-7.2c-.3-.5-.4-1-.3-1.6.2-.6.9-1 1.4-.7m-8.2 6.2c4.8 1 8.7 4.2 9.4 9.1.1 1 0 2.2-.9 2.7-.5.2-1 .2-1.4.1-3.7-.6-6.5-3.6-8.6-6.7a5 5 0 0 1-1.2-3.5c.1-1.2 1.5-2.3 2.6-1.7m28.6-32a13 13 0 0 0 5-10.2c0-1.3-.2-2.8-1.3-3.4-1.5-.9-3.4.4-4.4 1.8-2 2.8-2.8 6.2-2.5 9.5 0 .9.3 1.7.9 2.4.6.7 1.7.6 2.3 0m-118.2-144.5a13 13 0 0 1-7-5.3 4.5 4.5 0 0 1-.2-5 5 5 0 0 1 3.4-2.3c1 0 2.1.2 3 .8 3 1.6 5.4 4.2 6.8 7.3.5 1 .5 2 0 2.9-.5.8-1.4 1.4-2.3 1.7-1.4.5-2.9.5-4.2.1m97.2-30.8c1-4.6-.9-9.3-4.6-12-.5-.4-1.1-.6-1.8-.6-1 0-1.9.8-2.1 1.7-.3 1-.3 2 0 3 .6 2.4 1.6 4.6 3 6.5 1.2 1.6 3.2 3 5 2.2m7-11.5c1.2-2.3 2-4.8 2.2-7.4.2-1.5 0-3-.6-4.4a3.7 3.7 0 0 0-7 .3 8.3 8.3 0 0 0-.1 4.6c.3 1.7 1 3.3 1.7 4.7.4.9 1 1.6 1.9 2 .9.5 2 .2 2.5-.6m39.3 52.6c2.4-1.7 4.7-2.4 6.4-4.8a8.4 8.4 0 0 0 1.7-4c.2-1.4-.5-2.9-1.7-3.6a4 4 0 0 0-2.3-.4c-4.2.5-7.2 4.8-7.7 9a5 5 0 0 0 .5 3.4c.7 1 2.4 1.3 3.1.4m-126.5-166.8c0-2.5.4-4.9-.5-7.2a9 9 0 0 0-3.6-4.7c-1.7-1.2-4-.9-5.5.6-1.5 1.7-.8 4.5.3 6.5s2.6 3.8 4.3 5.3c.7.7 1.7 1.2 2.8 1.4a2 2 0 0 0 2.2-1.9m-8.4 168a10.2 10.2 0 0 1-8.3 3.5c-3-.1-5-.5-7-2.8a5.4 5.4 0 0 1-1.5-2.9c0-2 1.3-3.8 3.3-4.3 2-.4 4-.1 5.8.7a21 21 0 0 1 7.7 5.8"/><path fill="#211f20" d="M2372 423.1c7-5.1 13.6-10.9 20-16.7 6.6-5.9 13-11.8 19.8-17.3a121 121 0 0 1 21.9-14.6l3-1.4c1-.5 2-1 3-1.3l3-1.2c1-.4 2-.8 3.1-1 2.1-.7 4.2-1.4 6.4-1.9l6.4-1.3a94.5 94.5 0 0 0-24.6 8.8 130 130 0 0 0-21.6 14.6c-6.8 5.5-13.2 11.4-19.8 17.2l-5 4.2-5 4.2-5.3 4z"/><path d="M2537.8 447.4c10.4 5.8 21.3 10.5 32.2 15.3l8 3.7a74 74 0 0 0 8.3 3.1 26 26 0 0 0 8.7 1.4c3 .1 5.9 0 8.8-.3a826.2 826.2 0 0 0 70.6-9.6 541.2 541.2 0 0 1-35 6.3 715.7 715.7 0 0 1-35.5 4.3 45.2 45.2 0 0 1-26.2-4.3l-8.1-3.8-16.1-7.6a215 215 0 0 1-15.7-8.5zm-135.1 224.9a70.2 70.2 0 0 0 24.8 6.1c8.6.6 17.1-.4 25.6-1.8h.6l-.2.6a459.6 459.6 0 0 0-13 45.7l-1 4.6a34 34 0 0 0-.6 4.6c0 3.2.2 6.4 0 9.6-.2 3.2-.7 6.3-1.5 9.4-3.2 12.3-7 24.4-10.8 36.6l-11.6 36.2 11-36.4c3.8-12.2 7.4-24.3 10.6-36.6.8-3 1.2-6.1 1.4-9.3.2-3.1 0-6.3 0-9.5 0-1.6.2-3.2.6-4.8l1-4.7 2.2-9.2c3-12.3 6.8-24.5 11-36.5l.4.5c-8.5 1.3-17 2.2-25.7 1.6-8.6-.7-17-3-24.8-6.7zm122.8 3.1a93 93 0 0 0 35.5-7.6c3.7-1.6 7.4-3.4 11-5.2l.6-.3.1.6c.6 3.3 1.6 6.5 2.3 9.8a273.4 273.4 0 0 1 3.8 30.1c1 13.4 1.5 27 1.8 40.4l.5 20.1.2 20.2V824c-.1-13.5-.2-27-.5-40.4-.2-13.4-.4-26.9-.9-40.3a962 962 0 0 0-2-40.3c-.5-6.7-1-13.4-2-20l-1.8-9.9c-.8-3.3-1.8-6.5-2.4-9.8l.7.3a124.2 124.2 0 0 1-22.6 9.2 84.5 84.5 0 0 1-24.3 2.7zM2700 407.7c-1.8.9-3.5 2-5.1 3.2l-4.9 3.8a61 61 0 0 0-3.3 3l-.8 1.2-3.6 5-3.8 4.9-2 2.3-1 1.2-.9.4-.8.2c-4.1.8-8.2.5-12.3.9 2-.4 4-.6 6.1-.8a42.1 42.1 0 0 0 6.7-1l.6-.4 1-1a79.6 79.6 0 0 0 5.6-7.3c1.2-1.6 2.5-3.2 3.6-5l.9-1.3c.3-.4.7-.8 1.1-1 .8-.8 1.7-1.3 2.5-2 3.3-2.2 6.6-5 10.5-6.3z"/><path fill="#f9d4bb" d="m2696 449.2 10-35.7s-2.6-4-12.9 5.5c-5.3 4.8-4.7 28.5-4.7 28.5z"/><path d="M2691.1 429.6c.1 1 .6 1.8 1.3 2.4.8.5 1.6 0 2.5-.5a34.2 34.2 0 0 1 11-3.4h.3l1.6.1.7.4.6.5c.7.7 1.3 1.6 1.6 2.6l-2-2-.7-.3-.5-.3h-2.7c-.5 0-1 .2-1.4.3a44.4 44.4 0 0 0-9.7 3.3 2 2 0 0 1-1.6-.4c-.4-.3-.6-.8-.8-1.3l-.2-1.4zm0 5.8c-.7.9-1.3 2-1.6 3 0 .6 0 1.2.3 1.7.2.5.6 1 1 1.2.5.2 1 .3 1.6.2l.3-.1.4-.3.8-.4a78.5 78.5 0 0 1 6.4-3.3c1.1-.5 2.3-1 3.6-1.1h1.8l1 .1.5.3.4.2c.6.4 1 .8 1.4 1.4l.7 1.6-1.2-1.3c-.3-.4-.8-.7-1.3-1l-.4-.2h-.3l-.8-.1h-1.7c-2.3.5-4.5 1.4-6.6 2.5l-3.2 1.6-.8.4-.4.2-.5.2a3 3 0 0 1-3.2-1.8 4 4 0 0 1-.2-2 4 4 0 0 1 .8-1.6l1.2-1.4z"/><path d="M2694 441.1a33 33 0 0 0-2.7 5.7l.1.2.4.6c.3.3.6.6 1 .7a3.8 3.8 0 0 0 2 0l.2-.1h.1l.4-.3c1.7-1.1 3.6-1.9 5.7-2.2h1l.7.1c.3 0 .6.2.8.4l.6.6c.4.4.7.8.8 1.3l.5 1.5-1.9-2.3-.5-.4-.5-.2h-1.3c-2 .3-3.8 1-5.5 1.9l-.4.1-.2.1-.2.1-.8.2c-.6 0-1.1 0-1.6-.2a2.7 2.7 0 0 1-1.9-2.2v-.4l1.5-2.7c.4-.9 1-1.7 1.6-2.5zm-1.3-19.5c.2 1 .6 1.8 1.2 2.4.7.6 1.5.2 2.3-.3a30.1 30.1 0 0 1 8-3l1.3-.3.8-.1h.7c.6 0 1 .2 1.6.3l.3.2.3.2.6.5a6 6 0 0 1 1.4 2.6c-.5-.8-1.2-1.4-1.8-2l-.6-.4-.3-.1-.3-.2-1.2-.1h-.7a42 42 0 0 0-11.2 3.6 3 3 0 0 1-1.5-.5c-.6-.8-.9-1.8-.9-2.8z"/><g fill="#211f20"><path d="M2319.8 329.6c1.9.9 3.5 2.2 4.8 3.8a29 29 0 0 1 3.3 5.3c.5.9 1 1.8 1.3 2.7.5 1 .8 2 .8 3.2 0 .5-.2 1.1-.5 1.6s-.8.8-1.3 1c-1 .4-2 .4-3.1.3 1 0 2-.3 2.9-.7.8-.4 1.3-1.3 1.2-2.2-.1-1-.4-2-.8-2.8a69.4 69.4 0 0 0-4.4-7.9 17 17 0 0 0-4.2-4.3z"/><path d="M2315.4 335a21.4 21.4 0 0 1 5.5 5.2 32 32 0 0 1 5.3 10.1v3c0 .4-.2.7-.4 1-.5.6-1.3 1-2 1s-1.4-.2-2-.5c-1.2-.7-2.2-1.5-3-2.4 1 .8 2 1.4 3.1 1.9l1.8.3c.5 0 1-.3 1.3-.7.2-.5.3-1 .3-1.6l-.1-1.8-1.3-3.4a43.2 43.2 0 0 0-8.5-12.2z"/><path d="M2310.2 343.7a54.6 54.6 0 0 1 6.2 4.2 14 14 0 0 1 4.2 6.3 10.2 10.2 0 0 1 .4 3c0 .4-.3.7-.5 1-1 1-2.5 1.4-3.9 1.2l-1.8-.6c-.4-.2-.6-.4-.8-.8a3 3 0 0 1-.3-1c0-.5-.3-1.1-.7-1.6-.4-.4-1-.7-1.5-.9.6 0 1.2.4 1.7.7.5.5.8 1 1 1.7 0 .7.3 1 .8 1.3l1.7.4a4 4 0 0 0 3-1l.3-.6v-.8a15.2 15.2 0 0 0-4.1-7.7 63.4 63.4 0 0 0-5.7-4.8zm19.8-8.7c-1.2.2-2 1.5-1.8 2.8a4.5 4.5 0 0 0 2.3 2.9l3.6 1.7c1.3.5 2.5 1.1 3.7 1.8a45 45 0 0 1-7.9-2.7c-1.3-.7-2.2-2-2.4-3.6-.1-.8.1-1.5.6-2.1.5-.6 1.2-1 2-.9zm16.2 6.5c-.3 3-1 5.9-2.3 8.6-1 2.8-2.3 5.5-3.5 8.3a9.9 9.9 0 0 0-.8 6.1l1 2 2.3 3.8 2.3 3.8c3 5.2 5.8 10.5 8.6 15.7l8.4 15.8c-3.2-5-6.2-10.2-9.1-15.4l-8.7-15.6-2.3-3.8a58 58 0 0 1-3.3-6c-.3-.7-.4-1.5-.3-2.3.2-1.6.6-3 1.3-4.4l3.7-8.2c1.3-2.6 2.2-5.5 2.7-8.4z"/></g><path fill="none" stroke="#231f20" stroke-linecap="round" stroke-miterlimit="10" stroke-width="2" d="M2720.3 241.3c-1.4 18.8-4 37.5-6.5 56.2-3 23.5-6.3 47-9.2 70.6-1.5 12-2.7 25.9-3.8 38"/><path fill="none" stroke="#231f20" stroke-linecap="round" stroke-miterlimit="10" stroke-width="2" d="m2656.5 283.6 1.6 31.4c.1 2.5.4 5.2 2.1 7 2 2 5.2 2 8 2l104.4-3c1.7 0 3.5-.2 4.8-1.3 1.2-1.2 1.3-2.8 1.5-4.3a678 678 0 0 0 4-46.3"/><path fill="none" stroke="#231f20" stroke-linecap="round" stroke-miterlimit="10" stroke-width="2" d="M2717.1 282.8c10.7-.3 16-.4 25.8-1 1.2 0 2.3-.5 3.1-1.4.6-.8 1-1.7 1-2.6a157 157 0 0 0 2.8-21.5m32.2 29c7 .1 26.2-.5 28-1.2 3.4-1.4 3-4 3.6-7a686 686 0 0 0 9.7-71.3m-147.8-15.5c0 15.2-1 27-.5 41.7.2 3.4 1.2 7.3 4.3 7.7 17.4 2.3 27 .2 41 1m-63.6 42.3a4.8 4.8 0 1 0-.3-9.5 4.8 4.8 0 0 0 .3 9.5zm126.7-14.4a4.8 4.8 0 1 0-.4-9.5 4.8 4.8 0 0 0 .4 9.5zm36.9-34.2 17.2-.7m10-1.1a4.8 4.8 0 1 1-9.5 0 4.8 4.8 0 0 1 9.5 0zm-142.9 215.2c-3.6 100 9.6 222.1 33.8 320.3"/><path fill="#d49675" d="M2935.7 474.7a30 30 0 0 1 3-17.6c8.5-16.6-49.8-41.7-49.8-41.7l-18.6 15.6a24.8 24.8 0 0 0-5.7 31.2c2.3 4.1 4.5 8 5.6 10.4 1 2-3.2 4-2.8 7.4.5 5.2 5.8 4.3 6.6 6 1 2.2.1 4 1.3 6.2.2.4 3.5 2.1 3.5 2.5-.8 5.7 2.3 3.4 3.7 4.7 4.3 4.6 9.7 7.1 13.8 7 11-.5 22.6-13.7 22.6-13.7s6.2 3 15.7 6.8c4 1.6 18.3 4.2 20.8 3.4 29.9-9-4-37.9-4-37.9s-16.7 15.5-15.7 9.7z"/><path fill="#b2765b" d="M2875.4 491.4c2-4.5 7-.3 9.6-4.7 0 0 .6 3-1.5 4.7l-5.3 2.9s-3.5-1.3-2.8-3zm47.7-21.7c-3.9-1.6-10.5 5.6-15-2-17.5-28.9-28-14.3-45.6-10.7a23.5 23.5 0 0 1-1-14.2l27.2-26.8s54.3 26.6 54.8 45.3c.4 17.9-17.8 17.9-17.8 17.9s3.3-6-2.6-9.5z"/><path fill="none" stroke="#000" stroke-linecap="round" stroke-miterlimit="10" stroke-width="1.1" d="M2885.1 487s2.2 4-6.3 7"/><path d="M2882.2 468.7c.4 1 .1 2-.7 2.4-.9.5-2 0-2.4-.9-.5-1-.1-2 .7-2.4.9-.5 2 0 2.4.9zm-8.2-6.5s1-5.4 9.4-.8"/><path fill="#b2765b" d="M2923.8 486.2s-6.5 8.1-8.3 10c0 0 11.7.8 16.6 2.4.2 0-.3.6 0 .7 1 .3 2 .3 3 .1 4.4-3.9-3-10.6-11.3-13.2z"/><path fill="none" stroke="#000" stroke-linecap="round" stroke-linejoin="round" stroke-width="1.1" d="M2924.2 465.1a10 10 0 0 0-1 5.1s2.2.5 2.2 2.5c0 3.6-2.7 4-2.7 4m8.8-11.5c-.6-.6-1.3-1-2.1-1.5-1.3-.3-4 1-4.7 1"/><path fill="none" stroke="#000" stroke-linecap="round" stroke-linejoin="round" stroke-width="1.1" d="M2929.4 470s1.2-7.7-5.1-4.8"/><path fill="#211f20" d="m2907.1 444.4 3.8 10.5c.4.9 1.2 1.6 2.2 1.7l6.8 1.3c1 .2 2 1 2.2 2l1.2 4.9c7.7 4.6 10.7-8.2 12-7.2 8.9 9 1 18.4 1 18.4.7 2.4 18.3-8.9 19.4-11.1 1.2-2.5-.4-7.1-.2-8.7.4-3.1 1.5-10.9-9.6-8.2-1 .3-1.5-1.7-1.3-2.8 1.3-6.5 5.7-17.5.2-29.2-3.8-8-5.4-10.3-12.5-15-.7-.4 0 0 3.3-1.1 3.1-1.1 4-5.1 1.7-7.5a4.5 4.5 0 0 1-.2-6l2.4-3c2.5-2.9 0-10-3.8-10h-2.3c-1.8 0-3.3-1-4.1-2.5-1-2.2-.5-5.1-1.2-6.6-.9-1.7-3.3-2.6-4.9-1.3a15 15 0 0 1-4.3 2.3c-1.1.3-3.9.5-4.9-1l-2.6-4c-1.3-2-6.3-1.6-7 .6l-1.5 4.7c-.7 2-3.4 1.5-4.6 1.2a23 23 0 0 1-4.2-1.4c-1.8-1.2-4.7-.5-4.7 2v7.5c0 1.6-1.2 2.8-2.8 2.8l-7.7-.1c-2.1 0-3.2 5-2 6.8 0 0 2.4 5 3.8 6.1 3.2 2.6 10.7 9.5-5.8 15.7a65 65 0 0 0-17.3 8.8 67.4 67.4 0 0 0-8.3 16 3 3 0 0 1-2.6 1.7h-9c-1.3 0-4.5 1.8-4.6 4.2-.2 3.3-.2 11-.2 11-.2 1-.8 1.8-1.6 2.2 0 0-5.8 1.4-6.9 3-1 1.5-.6 6.8-1 7.6-.6 1.5-3.8-4-5 .8-2.3 9.7 9.7 6.7 11 .3.4-1.2 1.5-2 2.7-2h11.4c1.5 0 2.7-1.3 2.7-2.8v-8.9c0-2 2.3-3.4 4.1-2.4a45 45 0 0 0 13.1 5c13.6 1 18.3-8.2 22.3-10.8a3 3 0 0 1 2.6-.2l7.6 3.2c.7.3 5.5 0 7.3 0 1 0 3.4-.1 4 1.5z"/><path fill="#e2ac6a" d="M2862.3 411.8s19.6-6.8 43.1 2.7c24 9.7 39.6 32.5 39.6 32.5s3.7-12.4 2-16c-4.7-10.1-18.3-37.7-45-39.4-5.3-.4-20.6-.5-20.6-.5 1-4.2 1-8.6 0-12.8-4.8-18.4-21.3-5.7-21.3-5.7-8.4-7.4-21.7 2.4-20 21.7 1 11.9 13.8 23.5 22.5 10.6l2.5 1.3zm60.3 147.2s1.4-29.9 3-39.6c1.2-6.2 6-20.7 6-20.7s26.3 5.6 30 .1c4.6-6.7-11-29.6-11-29.6l5-7 43.8-47.2 20.5 25.3-9.8 16.9a10.3 10.3 0 0 0 1.9 12.6l38.1 35.7v5.7l-66.2 36.5-26-23.5-3.5 34.7z"/><path fill="#211f20" d="M3104 568.3c-12-35.9-61.7-70-61.7-70s-10.3 5.1-14 5c-11.7-.3-32.8-13.5-41.6-21.2-7-6.2-21.6-30.7-21.6-30.7l-9.2 9.8s10.8 21.8 16.1 27.4c6.3 6.6 15.7 15.5 15.7 15.5l-21 25s-14.8-9.1-19.3-12.8a229 229 0 0 1-16-17.4l-4.8 12.3s10.3 13.8 13.8 18.2c4.6 5.6 14 16.7 19.4 21.4a424 424 0 0 0 29.1 20l-34 126.6 41.8 16 42.5-86 11.9 86 43.8-6.4s20-105.8 9-138.8z"/><path fill="#b2765b" d="m2992 724 4.8-10.6-41.8-16-11.4 32.2c16.3.4 32.6-1.5 48.5-5.6z"/><path fill="#d49675" d="M2992 724a171 171 0 0 1-48.4 5.6l-2 5.8c-.7 1.9-1.2 3.9-1.3 6l-8.3 102.5 32.4 3 21.5-84.6c.6-2.3 1-4.8.9-7.2l-.3-12.7c-.1-3.7.6-7.4 2.2-10.8z"/><path fill="#b2765b" d="m3094.9 707-44 6.3 1.4 27.3a93.2 93.2 0 0 0 41.9-26z"/><path fill="#d49675" d="M3095.8 739a78.5 78.5 0 0 1-1.6-23.8l.1-.7a93.2 93.2 0 0 1-41.9 26L3058 854l32.3-3.3 8.5-79.2c.9-8.5.4-17-1.4-25.3z"/><path fill="#b2765b" d="M2954.3 559h-31.8s-1.1 25.6-4.7 40.3c12.4-3.3 24.1-9 34.5-16.7 1.4-12.8 2-23.7 2-23.7z"/><path fill="#d49675" d="M2917.8 599.3a38 38 0 0 1-2 6.4c-8.6 18.6-52.7 60.2-56.2 62.7l-12.5 2.4s-5.3 4.7-6.8 9c-1 2.9-3.4 9.4-3.7 11.2-.2 1.4 4.9-1.2 4.9-1.2l-13.1 15.4c-2 2.4-.9 6 2.1 6.8 3.7 1 7.9 2 9.5 1.5 11.1-2.9 33.8-29.4 33.8-29.4s59.3-43.7 70.7-64.9c3.7-7 6.3-22.9 7.8-36.6a103 103 0 0 1-34.5 16.7z"/><path fill="none" stroke="#000" stroke-linecap="round" stroke-miterlimit="10" stroke-width="1.1" d="M2832.7 703.8a20.1 20.1 0 0 0 18 2.7m-10.9-9.7c1.5 2.2 4.2 3 6.8 3.5 2.6.6 5.3.5 8-.1m-8-9.2c1.3 1.4 3 2.3 5 2.6 1.8.2 3.8.2 5.7 0"/><path fill="#e95c1f" d="m2930.5 842.4 51.2 3.5-7.1 55-3.6 4.5-64.8 1.6-.4-3.9a8.8 8.8 0 0 1 5-8.9l16.7-7.9zm126.2 5.9 53.1 1.1-4.8 56-2.4 10.8-62.5.3-.5-4.9a10 10 0 0 1 3.3-8.7l10.7-9.9z"/><path fill="#d6d0cc" d="M2722 853.4c35.1-10 71.5-54.7 71.5-54.7l-42-21-26.2-40.2s-72.7 56.5-52.5 95.6l25.4 3.3z"/><path fill="#d6d0cc" d="M2722 853.4c34.5-11 66.4-56.9 66.4-56.9l-3.9-2a71.4 71.4 0 0 1-37.7 16.3c-25.2 1.7-55.3-9-77.4 8.4 0 4.3 1.8 9.9 3.6 14 0 0 17.2 2.7 23.1 5a266 266 0 0 1 26 15.2z"/><path fill="none" stroke="#000" stroke-linecap="round" stroke-miterlimit="10" stroke-width="1.1" d="M2691.4 770.3a270.6 270.6 0 0 1 33.5-32.8c7.1 10.8 23.8 37.4 25.2 38.6a718 718 0 0 0 43.3 22.6"/><path fill="#e2ac6a" d="m3129.5 430.3-.2-.3a2.8 2.8 0 0 0-4-.1L2731 790.4a2.8 2.8 0 0 0-.2 4l.3.3c1 1 2.8 1.2 3.9.1l394.3-360.5c1.2-1 1.2-2.8.2-4z"/><path fill="#d49675" d="m2999.4 415 20.4 25.3 4-4.8c-5.9-9.1-13-17.7-18.7-26.9l-5.7 6.4z"/><path fill="#d49675" d="m3080.5 477.5 7.7-11.6a6.8 6.8 0 0 0 0-7.7l-7.5-10.9s-18.2-61.8-34-74c-2.6-2-6 0-9.4 2.6-7.9 6-23.7 23.3-32.2 32.7 5.7 9.1 12.8 17.7 18.7 26.9l18.3-21.5 22 47.2-10.3 21.6a8.6 8.6 0 0 0 0 7.2l7.7 6.3s12-4 15.7-6.7c12.4-9.3 3.3-12.1 3.3-12.1z"/><path fill="none" stroke="#000" stroke-linecap="round" stroke-miterlimit="10" stroke-width="1.1" d="M2861.5 371.7c-4.7 4-10 8.6-10.1 14.8a10 10 0 0 0 5.9 9.4c3.6 1.4 8.3-.3 9.9-3.9.8-1.8.6-4-.6-5.5-1.3-1.5-3.9-1.8-5.2-.3m215.1 85.3a12.5 12.5 0 0 0 1.3 17m-10.4-13.8a15 15 0 0 0 5.4 17m-13-12.2c-1 2.9-.7 6 .7 8.7 1.5 2.6 3.7 4.8 6.3 6.3"/><path fill="none" stroke="#211f20" stroke-linecap="round" stroke-miterlimit="10" stroke-width="1.1" d="m2962.6 679.5-14.7 36.9c-2.4 5.9-4.7 11.8-6 18a120 120 0 0 0-2 19c-.8 20-5 45.5-6 65.5"/><path fill="none" stroke="#211f20" stroke-miterlimit="10" stroke-width="1.1" d="M3095.7 701.4c-1.4 9.4-2.3 17.4-1.5 26.8.6 7.2 1.9 14.2 3.8 21a57.3 57.3 0 0 1 1.2 17.6c-2.4 23.7-4.2 40.2-6.3 58.7-1 10-1.9 14-2.4 23.5"/><path fill="#d49675" d="M2840.3 689.4s2.4 1 5.3-2.4c3.3-3.8 1.8-6.4 1.8-6.4z"/><path fill="none" stroke="#000" stroke-linecap="round" stroke-miterlimit="10" stroke-width="1.1" d="m2859.7 668.4-9.9 1.6a5 5 0 0 0-4.6 2.9l-4.9 6.9a6 6 0 0 0-1.1 2.2v2.4c-.1 1.8-1.4 3.3-2.3 4.8-.4.5-.5 1.2-.2 1.8.4.8 1.6.5 2.5 0 2.2-.9 4.2-2.2 6-3.7 2-1.6 3-3.8 3.2-6.2l5.1-2.7m-123.3 113.3a4 4 0 0 0 .9 3c1.2 1.4 3 1.4 5.2-.7 5.6-5.5 24.8-23.2 30.6-28.3"/><path fill="none" stroke="#231f20" stroke-linecap="round" stroke-miterlimit="10" stroke-width="2" d="M2639.5 838.1a86.5 86.5 0 0 1 91.7 24.2c16-1 32 2.8 46 10.9"/><path d="m2809.1 201.1-1.5-.1-1-.2V197a12.1 12.1 0 0 0 2 .3c.5 0 1-.1 1.4-.3a2 2 0 0 0 1-1.1c.2-.6.3-1.4.3-2.4V174h4.5v19.6c0 1.8-.3 3.2-.9 4.3a5 5 0 0 1-2.3 2.4c-1 .6-2.2.8-3.5.8zm24.3-12c0 1.9-.7 3.4-2 4.5a8.7 8.7 0 0 1-5.7 1.6c-2.2 0-4.2-.4-6-1.2v-4.2c1 .5 2 .9 3.1 1.2 1.1.4 2.2.6 3.2.6 1.1 0 1.9-.2 2.3-.6.5-.5.8-1 .8-1.7 0-.5-.2-1-.6-1.3a35.8 35.8 0 0 0-5.1-3c-.6-.2-1.1-.6-1.6-1.1a5.6 5.6 0 0 1-1.8-4.2c0-2 .6-3.4 1.9-4.4 1.3-1 3-1.6 5.2-1.6 1 0 2.1.1 3.1.4 1 .2 2 .6 3.1 1l-1.4 3.5a24 24 0 0 0-2.6-.9l-2.4-.3c-.8 0-1.4.2-1.9.6a2 2 0 0 0-.7 1.5 2 2 0 0 0 1 1.8l3 1.6 2.7 1.5a5.4 5.4 0 0 1 2.4 4.7zm-182.9-7.6h-4.5v-9h-8.3v9h-4.4v-21h4.4v8.3h8.3v-8.3h4.5zm13.3 0h-4.4v-17.3h-5.7v-3.7h15.8v3.7h-5.7zm17.9 0-5-16.4h-.2v1.7a196.8 196.8 0 0 1 .3 5v9.7h-4v-21h6l5 16h.1l5.2-16h6v21h-4v-10a118.2 118.2 0 0 1 0-4.6l.2-1.8h-.2l-5.4 16.4zm18.8 0v-21h4.4v17.3h8.5v3.7zm35.8 43.6c-1.7 0-3 .6-3.9 2-.9 1.2-1.3 3-1.3 5.1 0 2.3.4 4 1.2 5.2.9 1.2 2.2 1.8 4 1.8.9 0 1.7 0 2.6-.2l2.8-.9v3.8a15 15 0 0 1-5.8 1c-2.1 0-4-.4-5.3-1.3a8 8 0 0 1-3.1-3.7c-.7-1.7-1-3.5-1-5.7 0-2.1.4-4 1.1-5.6a8.9 8.9 0 0 1 3.4-3.8 9 9 0 0 1 5.3-1.4 15.6 15.6 0 0 1 6.1 1.5l-1.4 3.6a22 22 0 0 0-2.4-1 7 7 0 0 0-2.3-.4zm22.2 11.7c0 1.9-.7 3.4-2 4.5a8.7 8.7 0 0 1-5.7 1.6c-2.3 0-4.2-.4-6-1.2v-4.1l3.1 1.2c1 .3 2.1.5 3.2.5s1.9-.2 2.3-.6c.5-.5.7-1 .7-1.6 0-.6-.2-1-.5-1.4a39.6 39.6 0 0 0-5.1-3c-.6-.2-1.2-.6-1.7-1.1-.5-.5-1-1-1.2-1.8-.4-.7-.5-1.5-.5-2.4 0-2 .6-3.4 1.9-4.4a8 8 0 0 1 5.2-1.6c1 0 2 .1 3 .4l3.2 1-1.5 3.5-2.5-.9-2.4-.3c-.8 0-1.5.2-2 .6a2 2 0 0 0-.6 1.5 2 2 0 0 0 1 1.8l3 1.6 2.7 1.5a5.6 5.6 0 0 1 2.4 4.7zm16.2 0c0 1.9-.6 3.4-2 4.5a8.7 8.7 0 0 1-5.7 1.6c-2.2 0-4.2-.4-6-1.2v-4.1l3.2 1.2c1 .3 2.1.5 3.2.5 1 0 1.8-.2 2.3-.6.5-.5.7-1 .7-1.6 0-.6-.2-1-.6-1.4a37.6 37.6 0 0 0-5.1-3 10 10 0 0 1-1.6-1.1 5.7 5.7 0 0 1-1.8-4.2c0-2 .7-3.4 2-4.4a8 8 0 0 1 5.1-1.6c1.1 0 2.2.1 3.1.4l3.1 1-1.4 3.5-2.6-.9c-.7-.2-1.5-.3-2.3-.3a3 3 0 0 0-2 .6 2 2 0 0 0-.6 1.5 2 2 0 0 0 1 1.8c.6.4 1.6 1 3 1.6l2.7 1.5a5.6 5.6 0 0 1 2.4 4.7z"/></svg>
