<?xml version="1.0" encoding="UTF-8" standalone="no"?>
<!DOCTYPE svg PUBLIC "-//W3C//DTD SVG 1.1//EN" "http://www.w3.org/Graphics/SVG/1.1/DTD/svg11.dtd">
<svg width="100%" height="100%" viewBox="0 0 20 20" version="1.1" xmlns="http://www.w3.org/2000/svg" xmlns:xlink="http://www.w3.org/1999/xlink" xml:space="preserve" xmlns:serif="http://www.serif.com/" style="fill-rule:evenodd;clip-rule:evenodd;stroke-linejoin:round;stroke-miterlimit:2;">
    <g transform="matrix(1,0,0,1,-2.003,-2)">
        <path d="M11.751,21.997C6.53,21.869 2.301,17.74 2.015,12.559L2.003,12.246L11.751,21.997ZM12,2C15.261,1.998 18.325,3.592 20.193,6.265L18.555,7.413C17.059,5.276 14.608,4.001 11.999,4.001C8.699,4.001 5.723,6.042 4.534,9.12L14.88,19.466C17.286,18.535 19.101,16.498 19.748,14L15.5,14L15.5,12L22,12C22,16.726 18.721,20.686 14.315,21.73L2.269,9.686C3.314,5.28 7.274,2 12,2Z" style="fill-rule:nonzero;"/>
    </g>
</svg>
