<?xml version="1.0" encoding="UTF-8" standalone="no"?>
<!DOCTYPE svg PUBLIC "-//W3C//DTD SVG 1.1//EN" "http://www.w3.org/Graphics/SVG/1.1/DTD/svg11.dtd">
<svg width="100%" height="100%" viewBox="0 0 335 233" version="1.1" xmlns="http://www.w3.org/2000/svg" xmlns:xlink="http://www.w3.org/1999/xlink" xml:space="preserve" xmlns:serif="http://www.serif.com/" style="fill-rule:evenodd;clip-rule:evenodd;stroke-linejoin:round;stroke-miterlimit:2;">
    <g transform="matrix(1,0,0,1,66.5711,-135.14)">
        <g transform="matrix(1,0,0,1,-87.5389,130.14)">
            <path d="M310.1,89C308.4,76.4 301.4,65.6 288.7,55.7L281.4,50.8L276.5,58.1C270.3,67.5 267.1,80.6 268.1,93.1C268.6,97.5 270,105.4 274.5,112.3C270,114.7 261.1,118.1 249.2,117.9L22.2,117.9L21.8,120.5C19.7,133.1 19.7,172.3 45.2,202.5C64.6,225.4 93.6,237.1 131.6,237.1C213.8,237.1 274.6,199.3 303.1,130.5C314.3,130.7 338.4,130.6 350.8,106.9C351.1,106.4 351.9,104.9 354,100.5L355.2,98L348.2,93.3C340.7,88.3 323.4,86.5 310.1,89ZM203.8,5L169.3,5L169.3,36.4L203.8,36.4L203.8,5ZM203.8,42.7L169.3,42.7L169.3,74L203.8,74L203.8,42.7ZM163,42.7L128.5,42.7L128.5,74L163,74L163,42.7ZM122.2,42.7L87.7,42.7L87.7,74L122.2,74L122.2,42.7ZM81.4,80.3L46.9,80.3L46.9,111.7L81.4,111.7L81.4,80.3ZM122.2,80.3L87.7,80.3L87.7,111.7L122.2,111.7L122.2,80.3ZM163,80.3L128.5,80.3L128.5,111.7L163,111.7L163,80.3ZM203.8,80.3L169.3,80.3L169.3,111.7L203.8,111.7L203.8,80.3ZM244.6,80.3L210.1,80.3L210.1,111.7L244.6,111.7L244.6,80.3Z" style="fill-rule:nonzero;"/>
        </g>
    </g>
</svg>
