<?xml version="1.0" encoding="UTF-8" standalone="no"?>
<!DOCTYPE svg PUBLIC "-//W3C//DTD SVG 1.1//EN" "http://www.w3.org/Graphics/SVG/1.1/DTD/svg11.dtd">
<svg width="100%" height="100%" viewBox="0 0 256 255" version="1.1" xmlns="http://www.w3.org/2000/svg" xmlns:xlink="http://www.w3.org/1999/xlink" xml:space="preserve" xmlns:serif="http://www.serif.com/" style="fill-rule:evenodd;clip-rule:evenodd;stroke-linejoin:round;stroke-miterlimit:2;">
    <path d="M150.736,0C148.885,0 147.166,0.397 145.579,0.926C148.951,3.173 150.802,6.148 151.727,9.52C151.794,9.983 151.926,10.314 151.992,10.776C152.058,11.173 152.124,11.57 152.124,11.966C152.389,17.784 150.604,18.511 149.347,21.949C147.43,26.379 147.959,31.139 150.273,34.973C150.471,35.436 150.736,35.965 151.066,36.428C148.554,19.701 162.504,17.189 165.082,11.966C165.28,7.405 161.512,4.363 158.537,2.248C155.694,0.529 153.116,0 150.736,0ZM171.759,3.768C171.495,5.289 171.693,4.892 171.627,5.686C171.561,6.215 171.561,6.876 171.495,7.405C171.363,7.933 171.231,8.462 171.032,8.991C170.9,9.52 170.702,10.049 170.504,10.578C170.239,11.107 170.041,11.57 169.776,12.099C169.578,12.363 169.446,12.627 169.247,12.892C169.115,13.09 168.983,13.289 168.851,13.487C168.52,13.95 168.19,14.413 167.859,14.809C167.462,15.206 167.132,15.669 166.669,15.999L166.669,16.065C166.272,16.396 165.876,16.793 165.413,17.123C164.025,18.181 162.438,18.974 160.983,19.966C160.521,20.297 160.058,20.561 159.661,20.958C159.198,21.288 158.802,21.619 158.405,22.016C157.942,22.412 157.612,22.809 157.215,23.272C156.884,23.668 156.488,24.131 156.223,24.594C155.893,25.057 155.562,25.519 155.298,25.982C155.033,26.511 154.835,26.974 154.57,27.503C154.372,28.032 154.174,28.495 154.042,29.023C153.843,29.618 153.711,30.147 153.579,30.676C153.513,30.941 153.513,31.271 153.447,31.536C153.38,31.8 153.38,32.065 153.315,32.329C153.315,32.858 153.248,33.453 153.248,33.982C153.248,34.379 153.248,34.775 153.315,35.172C153.315,35.701 153.381,36.23 153.513,36.825C153.579,37.354 153.711,37.882 153.843,38.411C154.042,38.94 154.174,39.469 154.372,39.998C154.504,40.329 154.703,40.659 154.835,40.924L139.629,35.04C137.051,34.312 134.539,33.651 131.96,33.056C130.572,32.726 129.184,32.395 127.795,32.065C123.828,31.271 119.796,30.676 115.763,30.28C115.631,30.28 115.564,30.213 115.432,30.213C111.465,29.817 107.565,29.618 103.598,29.618C100.689,29.618 97.78,29.75 94.937,29.949C90.904,30.213 86.872,30.742 82.839,31.403C81.847,31.536 80.855,31.734 79.864,31.932C77.814,32.329 75.831,32.792 73.914,33.255C72.922,33.519 71.93,33.783 70.938,34.048C69.947,34.445 69.021,34.907 68.096,35.304C67.368,35.635 66.641,35.965 65.914,36.296C65.782,36.362 65.649,36.362 65.583,36.428C64.922,36.758 64.327,37.023 63.732,37.353C63.534,37.42 63.402,37.486 63.269,37.552C62.542,37.882 61.815,38.279 61.22,38.61C60.757,38.808 60.294,39.072 59.898,39.271C59.699,39.403 59.435,39.535 59.303,39.601C58.708,39.932 58.113,40.262 57.584,40.593C56.989,40.923 56.46,41.254 55.997,41.585C55.534,41.915 55.072,42.18 54.675,42.51C54.609,42.576 54.543,42.576 54.476,42.642C54.08,42.907 53.617,43.237 53.22,43.568C53.22,43.568 53.154,43.634 53.088,43.7C52.758,43.965 52.427,44.229 52.097,44.493C51.964,44.56 51.832,44.692 51.7,44.758C51.369,45.022 51.039,45.353 50.708,45.617C50.642,45.749 50.51,45.816 50.444,45.882C50.047,46.279 49.65,46.609 49.254,47.006C49.187,47.006 49.187,47.072 49.122,47.138C48.725,47.469 48.328,47.865 47.931,48.262C47.865,48.328 47.865,48.394 47.799,48.394C47.469,48.725 47.138,49.055 46.808,49.452C46.676,49.584 46.477,49.716 46.345,49.848C46.014,50.245 45.618,50.642 45.221,51.038C45.155,51.171 45.023,51.237 44.956,51.369C44.428,51.898 43.965,52.427 43.436,52.956C43.37,53.022 43.304,53.088 43.238,53.154C42.18,54.278 41.056,55.402 39.866,56.394C38.676,57.451 37.42,58.443 36.163,59.303C34.841,60.228 33.585,61.021 32.197,61.815C30.874,62.542 29.486,63.203 28.032,63.798C26.643,64.393 25.189,64.922 23.734,65.385C20.958,65.98 18.115,67.104 15.669,67.302C15.14,67.302 14.545,67.434 14.016,67.5C13.421,67.633 12.892,67.765 12.363,67.897C11.834,68.095 11.305,68.294 10.776,68.492C10.247,68.69 9.719,68.955 9.19,69.219C8.727,69.55 8.198,69.814 7.735,70.145C7.272,70.475 6.81,70.872 6.413,71.269C5.95,71.599 5.487,72.062 5.091,72.459C4.694,72.922 4.297,73.318 3.967,73.781C3.636,74.31 3.24,74.773 2.975,75.302C2.644,75.765 2.314,76.293 2.049,76.822C1.785,77.417 1.521,77.946 1.322,78.541C1.124,79.07 0.926,79.665 0.727,80.26C0.595,80.789 0.463,81.318 0.397,81.847C0.397,81.913 0.33,81.979 0.33,82.045C0.198,82.64 0.198,83.434 0.132,83.83C0.066,84.293 0,84.69 0,85.152C0,85.417 0,85.747 0.066,86.012C0.132,86.475 0.198,86.871 0.331,87.268C0.463,87.665 0.595,88.061 0.794,88.458L0.794,88.524C0.992,88.921 1.256,89.318 1.521,89.714C1.785,90.111 2.05,90.508 2.38,90.904C2.711,91.235 3.107,91.632 3.504,91.962C3.901,92.359 4.298,92.689 4.76,93.02C6.347,94.408 6.744,94.871 8.793,95.929C9.124,96.127 9.454,96.259 9.851,96.458C9.917,96.458 9.983,96.524 10.049,96.524C10.049,96.656 10.049,96.722 10.116,96.855C10.182,97.383 10.314,97.912 10.446,98.441C10.578,99.036 10.777,99.565 10.975,100.028C11.173,100.425 11.306,100.821 11.504,101.218C11.57,101.35 11.636,101.483 11.702,101.549C11.967,102.077 12.231,102.54 12.496,103.003C12.826,103.466 13.157,103.929 13.487,104.391C13.818,104.788 14.214,105.251 14.611,105.648C15.008,106.044 15.405,106.375 15.867,106.771C15.867,106.771 15.934,106.838 15.999,106.838C16.396,107.168 16.793,107.499 17.189,107.763C17.652,108.094 18.115,108.358 18.644,108.623C19.107,108.887 19.636,109.152 20.165,109.35C20.561,109.548 21.024,109.681 21.487,109.813C21.553,109.879 21.619,109.879 21.751,109.945C22.016,110.011 22.346,110.077 22.611,110.143C22.412,113.713 22.346,117.085 22.875,118.275C23.47,119.597 26.379,115.564 29.288,110.937C28.892,115.498 28.627,120.853 29.288,122.44C30.015,124.093 33.982,118.936 37.42,113.251C84.294,102.408 127.068,134.803 131.564,180.553C130.705,173.413 121.912,169.446 117.879,170.438C115.895,175.33 112.524,181.611 107.103,185.511C107.565,181.148 107.367,176.652 106.441,172.289C104.987,178.371 102.144,184.057 98.243,188.949C91.963,189.412 85.682,186.371 82.376,181.809C82.112,181.611 82.046,181.214 81.848,180.95C81.649,180.487 81.451,180.024 81.319,179.561C81.12,179.098 80.988,178.636 80.922,178.173C80.856,177.71 80.856,177.247 80.856,176.718L80.856,175.727C80.922,175.264 81.054,174.801 81.186,174.338C81.318,173.876 81.451,173.413 81.649,172.95C81.914,172.487 82.112,172.024 82.442,171.562C83.566,168.388 83.566,165.81 81.517,164.289C81.12,164.025 80.724,163.826 80.261,163.628C79.996,163.562 79.666,163.43 79.401,163.364C79.203,163.297 79.071,163.231 78.872,163.165C78.41,163.033 77.947,162.901 77.484,162.835C77.021,162.703 76.558,162.636 76.096,162.636C75.633,162.57 75.104,162.504 74.641,162.504C74.311,162.504 73.98,162.57 73.649,162.57C73.121,162.57 72.658,162.637 72.195,162.769C71.732,162.835 71.269,162.901 70.807,163.033C70.344,163.165 69.881,163.298 69.418,163.496C68.956,163.694 68.559,163.893 68.096,164.091C67.699,164.289 67.303,164.554 66.84,164.752C51.436,174.801 60.625,198.337 71.137,205.147C67.17,205.874 63.138,206.734 62.014,207.593C61.948,207.659 61.882,207.725 61.882,207.725C64.724,209.444 67.699,210.899 70.807,212.155C75.038,213.543 79.534,214.799 81.517,215.328L81.517,215.394C87.004,216.518 92.558,216.915 98.177,216.584C127.465,214.535 151.464,192.255 155.827,162.901C155.959,163.496 156.092,164.025 156.224,164.62C156.422,165.81 156.687,167.066 156.819,168.322L156.819,168.389C156.951,168.984 157.017,169.579 157.084,170.108L157.084,170.372C157.15,170.967 157.216,171.562 157.216,172.091C157.282,172.818 157.348,173.545 157.348,174.273L157.348,175.33C157.348,175.661 157.414,176.058 157.414,176.388C157.414,176.785 157.348,177.182 157.348,177.578L157.348,178.504C157.348,178.967 157.282,179.363 157.282,179.826C157.282,180.091 157.282,180.355 157.215,180.686C157.215,181.148 157.149,181.611 157.149,182.14C157.083,182.338 157.083,182.537 157.083,182.735C157.017,183.264 156.951,183.727 156.884,184.256C156.884,184.454 156.884,184.652 156.818,184.851C156.752,185.512 156.62,186.107 156.554,186.768L156.554,186.9C156.422,187.495 156.289,188.157 156.157,188.752L156.157,188.95C156.025,189.545 155.892,190.14 155.76,190.735C155.76,190.801 155.694,190.933 155.694,190.999C155.562,191.594 155.43,192.19 155.231,192.785L155.231,192.983C155.033,193.644 154.835,194.239 154.703,194.834C154.636,194.9 154.636,194.966 154.636,194.966C154.438,195.627 154.24,196.288 154.041,196.949C153.777,197.611 153.579,198.206 153.314,198.867C153.05,199.528 152.851,200.189 152.587,200.784C152.322,201.445 152.058,202.04 151.794,202.701L151.727,202.701C151.463,203.296 151.198,203.957 150.868,204.552C150.802,204.751 150.736,204.883 150.669,205.015C150.603,205.082 150.603,205.147 150.537,205.214C146.24,213.874 139.893,221.477 131.96,227.427C131.431,227.758 130.902,228.155 130.373,228.551C130.241,228.683 130.042,228.75 129.91,228.882C129.447,229.212 128.985,229.543 128.456,229.873L128.654,230.27L128.72,230.27C129.646,230.138 130.571,230.006 131.497,229.873L131.563,229.873C133.282,229.609 135.001,229.278 136.72,228.948C137.183,228.882 137.712,228.75 138.174,228.617C138.505,228.551 138.769,228.485 139.1,228.419C139.563,228.353 140.026,228.221 140.488,228.154C140.885,228.022 141.282,227.956 141.678,227.824C148.29,226.237 154.703,224.055 160.851,221.477C150.339,235.823 136.257,247.393 119.795,254.996C127.398,254.467 135.001,253.211 142.34,251.095C168.983,243.228 191.395,225.312 204.816,201.181C202.105,216.453 196.023,230.997 187.031,243.691C193.444,239.46 199.328,234.567 204.683,229.014C219.493,213.544 229.211,193.908 232.517,172.818C234.765,183.264 235.426,194.04 234.434,204.685C282.167,138.109 238.401,69.088 220.088,50.907C220.021,50.775 219.956,50.709 219.956,50.577C219.889,50.643 219.889,50.643 219.889,50.709C219.889,50.642 219.889,50.642 219.823,50.577C219.823,51.37 219.757,52.163 219.691,52.957C219.493,54.477 219.294,55.932 219.03,57.386C218.699,58.841 218.303,60.295 217.906,61.75C217.443,63.138 216.914,64.592 216.319,65.981C215.724,67.303 215.063,68.691 214.336,70.014C213.609,71.27 212.815,72.592 211.956,73.782C211.096,75.038 210.171,76.228 209.245,77.352C208.253,78.542 207.196,79.6 206.138,80.658C205.477,81.253 204.882,81.782 204.221,82.31C203.692,82.773 203.229,83.17 202.7,83.633C201.51,84.558 200.32,85.418 198.998,86.211C197.742,87.004 196.419,87.798 195.097,88.459C193.709,89.12 192.32,89.715 190.932,90.31C189.544,90.839 188.089,91.302 186.635,91.698C185.18,92.095 183.66,92.426 182.205,92.69C180.685,92.955 179.164,93.087 177.71,93.219C176.652,93.285 175.594,93.351 174.536,93.351C173.016,93.351 171.495,93.219 170.041,93.087C168.52,92.954 166.999,92.756 165.545,92.425C164.024,92.161 162.57,91.764 161.115,91.302L161.049,91.302C162.504,91.169 163.958,91.037 165.413,90.773C166.933,90.508 168.388,90.178 169.842,89.781C171.297,89.384 172.751,88.921 174.139,88.393C175.594,87.864 176.982,87.203 178.305,86.541C179.693,85.88 180.949,85.153 182.271,84.36C183.527,83.5 184.784,82.641 185.974,81.715C187.164,80.79 188.287,79.798 189.345,78.74C190.469,77.748 191.461,76.625 192.453,75.501C193.444,74.311 194.37,73.121 195.229,71.931C195.361,71.732 195.494,71.468 195.626,71.27C196.287,70.212 196.948,69.154 197.543,68.096C198.27,66.774 198.932,65.452 199.527,64.063C200.122,62.675 200.65,61.287 201.113,59.832C201.576,58.444 201.907,56.989 202.237,55.535C202.502,54.014 202.766,52.56 202.898,51.105C203.03,49.585 203.163,48.064 203.163,46.61C203.163,45.552 203.097,44.494 203.031,43.436C202.899,41.916 202.7,40.461 202.502,39.007C202.237,37.486 201.907,36.032 201.51,34.577C201.047,33.189 200.585,31.734 200.056,30.346C199.527,28.958 198.866,27.569 198.205,26.247C197.477,24.925 196.75,23.602 195.957,22.346C195.097,21.09 194.238,19.9 193.312,18.71C192.321,17.586 191.329,16.462 190.271,15.338C189.742,14.81 189.147,14.215 188.552,13.686C185.577,11.372 182.47,9.19 179.363,7.207C178.9,6.942 178.503,6.744 178.04,6.545C175.859,5.157 173.809,4.43 171.76,3.769L171.759,3.768Z" style="fill-rule:nonzero;"/>
</svg>
