<?xml version="1.0" encoding="UTF-8" standalone="no"?>
<!DOCTYPE svg PUBLIC "-//W3C//DTD SVG 1.1//EN" "http://www.w3.org/Graphics/SVG/1.1/DTD/svg11.dtd">
<svg width="100%" height="100%" viewBox="0 0 65 40" version="1.1" xmlns="http://www.w3.org/2000/svg" xmlns:xlink="http://www.w3.org/1999/xlink" xml:space="preserve" xmlns:serif="http://www.serif.com/" style="fill-rule:evenodd;clip-rule:evenodd;stroke-linejoin:round;stroke-miterlimit:2;">
    <g transform="matrix(1,0,0,1,0.00680882,-12.1)">
        <path d="M64,17.5C63.9,13.4 62.6,12.5 61.6,12.4C51.2,13 45,13.2 39.6,13.3L39.6,25.5L38,24.6L38,13.3C32.2,13.3 27.2,13 18.1,12.5L16.3,12.4C15.8,12.4 15.1,12.3 14.4,12.3C13.5,12.2 12.4,12.2 11.3,12.1C8.2,12.1 5.2,13.4 3.1,15.5C0.9,17.7 -0.1,20.9 0,24.5C0.2,30.5 2.8,34.8 7.5,37.3C10.3,38.8 13.9,39.6 18.1,39.8C18.9,42.6 24.6,51.2 29,51.7L48,51.7C50.3,51.5 54.9,49.5 59.5,38.1C62.3,31.3 64.1,22.8 64,17.5ZM16.3,34.3C11,33.6 6.2,31.8 5.3,24.8C5,22.7 5.5,20.8 6.7,19.5C7.9,18.2 9.8,17.5 12.3,17.5L12.5,17.5C13.1,24.4 14.2,28.5 16.3,34.3ZM46.8,29.8C48.2,30.5 48.8,32.2 48.1,33.5L42.8,44.4C42.1,45.8 40.4,46.4 39.1,45.7L28.2,40.4C26.8,39.7 26.2,38 26.9,36.7L32.2,25.8C32.9,24.4 34.6,23.8 35.9,24.5L37.9,25.5L36.5,28.4C36.3,28.4 36.1,28.4 35.9,28.5C35,28.8 34.5,29.9 34.8,30.8C34.9,31 35,31.2 35.1,31.3L32.7,36.3C32.5,36.3 32.3,36.3 32.1,36.4C31.2,36.7 30.7,37.8 31,38.7C31.3,39.6 32.4,40.1 33.3,39.8C34.2,39.5 34.7,38.4 34.4,37.5C34.3,37.2 34.2,37 34,36.8L36.4,31.9C36.7,31.9 36.9,31.9 37.2,31.8C37.4,31.7 37.6,31.6 37.8,31.5C37.9,31.5 38,31.6 38.1,31.6C39.9,32.5 41,33 41.2,33.6C41.5,34.4 40.7,36 39.2,39L39.2,39.1C39,39.1 38.8,39.1 38.5,39.2C37.6,39.5 37.1,40.6 37.4,41.5C37.7,42.4 38.8,42.9 39.7,42.6C40.6,42.3 41.1,41.2 40.8,40.3C40.7,40.1 40.6,39.9 40.4,39.7L40.4,39.6C42.2,36 42.9,34.4 42.5,33.1C42.1,32 40.9,31.4 38.7,30.3C38.6,30.3 38.5,30.2 38.4,30.2C38.4,30 38.4,29.7 38.3,29.5C38.2,29.3 38.1,29.1 37.9,28.9L39,26L46.8,29.8Z" style="fill-rule:nonzero;"/>
    </g>
</svg>
