<?xml version="1.0" encoding="UTF-8" standalone="no"?>
<!DOCTYPE svg PUBLIC "-//W3C//DTD SVG 1.1//EN" "http://www.w3.org/Graphics/SVG/1.1/DTD/svg11.dtd">
<svg width="100%" height="100%" viewBox="0 0 924 325" version="1.1" xmlns="http://www.w3.org/2000/svg" xmlns:xlink="http://www.w3.org/1999/xlink" xml:space="preserve" xmlns:serif="http://www.serif.com/" style="fill-rule:evenodd;clip-rule:evenodd;stroke-linejoin:round;stroke-miterlimit:2;">
    <g transform="matrix(1,0,0,1,-138.462,-237.721)">
        <path d="M941.928,520.077L941.928,562.279L1018.17,562.279C1033.79,562.279 1060.61,550.854 1061.54,518.911L1061.54,502.59C1061.54,475.31 1039.15,459.222 1018.17,459.222L980.166,459.222L980.166,439.637L1055.48,439.637L1055.48,397.202L983.197,397.202C964.544,397.202 939.596,412.591 939.596,441.269L939.596,455.958C939.596,484.637 964.311,499.326 983.197,499.326C1035.66,499.559 970.606,499.326 1019.1,499.326L1019.1,519.844M533.433,509.818C533.433,509.818 574.236,506.321 574.236,453.627C574.236,400.933 524.806,396.036 524.806,396.036L435.739,396.036L435.739,562.279L480.506,562.279L480.506,522.175L519.21,562.279L585.428,562.279L533.433,509.818ZM516.179,475.777L480.506,475.777L480.506,437.772L516.412,437.772C516.412,437.772 526.438,441.502 526.438,456.658C526.438,471.813 516.179,475.777 516.179,475.777ZM684.753,397.202L639.287,397.202C606.878,397.202 595.92,426.58 595.92,440.57L595.92,562.279L641.386,562.279L641.386,533.134L684.054,533.134L684.054,562.279L728.121,562.279L728.121,440.57C728.121,405.13 695.945,397.202 684.753,397.202ZM684.054,486.036L641.153,486.036L641.153,445.699C641.153,445.699 641.153,436.606 655.375,436.606L670.997,436.606C683.588,436.606 683.821,445.699 683.821,445.699L683.821,486.036L684.054,486.036ZM748.872,397.202L796.203,397.202L796.203,562.279L748.872,562.279L748.872,397.202ZM815.556,397.202L815.556,562.279L926.306,562.279L926.306,519.611L862.654,519.611L862.654,397.202L815.556,397.202Z"/>
        <path d="M154.783,562.279L338.978,562.279C338.978,562.279 303.771,401.632 420.351,336.581C445.765,324.223 526.671,278.058 659.106,375.985C663.303,372.487 667.266,369.689 667.266,369.689C667.266,369.689 546.024,248.68 411.025,262.203C343.175,268.265 259.704,330.052 210.741,411.658C161.777,493.264 154.783,562.279 154.783,562.279Z"/>
        <path d="M154.783,562.279L338.978,562.279C338.978,562.279 303.771,401.632 420.351,336.581C445.765,324.223 526.671,278.058 659.106,375.985C663.303,372.487 667.266,369.689 667.266,369.689C667.266,369.689 546.024,248.68 411.025,262.203C343.175,268.265 259.704,330.052 210.741,411.658C161.777,493.264 154.783,562.279 154.783,562.279Z"/>
        <path d="M154.783,562.279L338.978,562.279C338.978,562.279 303.771,401.632 420.351,336.581C445.765,324.223 526.671,278.058 659.106,375.985C663.303,372.487 667.266,369.689 667.266,369.689C667.266,369.689 546.024,248.68 411.025,262.203C342.942,268.265 259.471,330.052 210.508,411.658C161.544,493.264 154.783,562.279 154.783,562.279ZM538.563,275.26L539.495,259.638C537.397,258.472 531.568,255.675 516.879,251.478L515.946,266.866C523.64,269.431 531.101,272.229 538.563,275.26Z"/>
        <path d="M516.412,324.69L515.48,339.379C523.174,339.612 530.868,340.544 538.563,342.177L539.495,327.721C531.568,326.089 523.874,325.156 516.412,324.69ZM430.144,251.944L432.475,251.944L427.812,237.721C420.584,237.721 413.123,238.188 405.429,239.12L409.859,252.877C416.62,252.177 423.382,251.944 430.144,251.944ZM441.335,337.747L446.698,353.834C453.459,350.57 460.221,347.772 466.983,345.674L461.853,330.285C453.926,332.617 447.164,335.182 441.335,337.747ZM335.481,276.426L324.989,260.338C319.16,263.369 313.098,266.633 306.802,270.364L317.528,286.685C323.59,282.954 329.419,279.457 335.481,276.426ZM383.279,381.347L394.47,398.135C398.434,392.306 403.097,386.943 408.227,381.58L397.734,365.726C392.372,370.622 387.475,375.985 383.279,381.347ZM349.471,456.425L368.356,471.347C369.289,462.253 370.921,453.16 373.253,444.067L356.465,430.777C353.434,439.404 351.336,448.031 349.471,456.425ZM247.347,345.674L230.793,331.218C224.73,337.047 218.901,342.876 213.539,348.705L231.492,364.093C236.388,357.798 241.751,351.503 247.347,345.674ZM176.933,449.896L150.119,440.103C145.689,450.129 140.793,461.787 138.462,468.082L165.275,477.875C168.306,469.948 173.202,458.523 176.933,449.896ZM345.973,515.647C346.439,528.004 347.605,538.03 348.771,545.025L376.75,555.051C374.652,545.958 372.553,535.699 371.154,524.74L345.973,515.647Z"/>
    </g>
</svg>
