<?xml version="1.0" encoding="UTF-8" standalone="no"?>
<!DOCTYPE svg PUBLIC "-//W3C//DTD SVG 1.1//EN" "http://www.w3.org/Graphics/SVG/1.1/DTD/svg11.dtd">
<svg width="100%" height="100%" viewBox="0 0 23 21" version="1.1" xmlns="http://www.w3.org/2000/svg" xmlns:xlink="http://www.w3.org/1999/xlink" xml:space="preserve" xmlns:serif="http://www.serif.com/" style="fill-rule:evenodd;clip-rule:evenodd;stroke-linejoin:round;stroke-miterlimit:2;">
    <g transform="matrix(1,0,0,1,0,0.0172582)">
        <circle cx="11.5" cy="10.232" r="2.55"/>
        <g transform="matrix(1,0,0,1,11.5,10.2317)">
            <path d="M0,-4.7C-3.738,-4.7 -7.052,-3.993 -9.107,-2.923C-10.652,-2.119 -11.5,-1.073 -11.5,0C-11.5,1.073 -10.652,2.119 -9.107,2.923C-7.052,3.993 -3.738,4.7 0,4.7C3.738,4.7 7.052,3.993 9.107,2.923C10.652,2.119 11.5,1.073 11.5,0C11.5,-1.073 10.652,-2.119 9.107,-2.923C7.052,-3.993 3.738,-4.7 0,-4.7ZM0,-3.7C3.547,-3.7 6.696,-3.052 8.646,-2.036C9.249,-1.722 9.733,-1.375 10.062,-0.998C10.338,-0.683 10.5,-0.351 10.5,0C10.5,0.351 10.338,0.683 10.062,0.998C9.733,1.375 9.249,1.722 8.646,2.036C6.696,3.052 3.547,3.7 0,3.7C-3.547,3.7 -6.696,3.052 -8.646,2.036C-9.249,1.722 -9.733,1.375 -10.062,0.998C-10.338,0.683 -10.5,0.351 -10.5,0C-10.5,-0.351 -10.338,-0.683 -10.062,-0.998C-9.733,-1.375 -9.249,-1.722 -8.646,-2.036C-6.696,-3.052 -3.547,-3.7 0,-3.7Z"/>
        </g>
        <g transform="matrix(1,0,0,1,11.5,10.2317)">
            <g transform="matrix(0.5,0.866025,-0.866025,0.5,0,0)">
                <path d="M-0,-4.7C-3.738,-4.7 -7.052,-3.993 -9.107,-2.923C-10.652,-2.119 -11.5,-1.073 -11.5,0C-11.5,1.073 -10.652,2.119 -9.107,2.923C-7.052,3.993 -3.738,4.7 -0,4.7C3.738,4.7 7.052,3.993 9.107,2.923C10.652,2.119 11.5,1.073 11.5,0C11.5,-1.073 10.652,-2.119 9.107,-2.923C7.052,-3.993 3.738,-4.7 0,-4.7L-0,-4.7ZM0,-3.7C3.547,-3.7 6.696,-3.052 8.646,-2.036C9.249,-1.722 9.733,-1.375 10.062,-0.998C10.338,-0.683 10.5,-0.351 10.5,-0C10.5,0.351 10.338,0.683 10.062,0.998C9.733,1.375 9.249,1.722 8.646,2.036C6.696,3.052 3.547,3.7 0,3.7C-3.547,3.7 -6.696,3.052 -8.646,2.036C-9.249,1.722 -9.733,1.375 -10.062,0.998C-10.338,0.683 -10.5,0.351 -10.5,0C-10.5,-0.351 -10.338,-0.683 -10.062,-0.998C-9.733,-1.375 -9.249,-1.722 -8.646,-2.036C-6.696,-3.052 -3.547,-3.7 -0,-3.7L0,-3.7Z"/>
            </g>
        </g>
        <g transform="matrix(1,0,0,1,11.5,10.2317)">
            <g transform="matrix(-0.5,0.866025,-0.866025,-0.5,0,0)">
                <path d="M-0,-4.7C-3.738,-4.7 -7.052,-3.993 -9.107,-2.923C-10.652,-2.119 -11.5,-1.073 -11.5,0C-11.5,1.073 -10.652,2.119 -9.107,2.923C-7.052,3.993 -3.738,4.7 -0,4.7C3.738,4.7 7.052,3.993 9.107,2.923C10.652,2.119 11.5,1.073 11.5,-0C11.5,-1.073 10.652,-2.119 9.107,-2.923C7.052,-3.993 3.738,-4.7 0,-4.7L-0,-4.7ZM0,-3.7C3.547,-3.7 6.696,-3.052 8.646,-2.036C9.249,-1.722 9.733,-1.375 10.062,-0.998C10.338,-0.683 10.5,-0.351 10.5,0C10.5,0.351 10.338,0.683 10.062,0.998C9.733,1.375 9.249,1.722 8.646,2.036C6.696,3.052 3.547,3.7 0,3.7C-3.547,3.7 -6.696,3.052 -8.646,2.036C-9.249,1.722 -9.733,1.375 -10.062,0.998C-10.338,0.683 -10.5,0.351 -10.5,-0C-10.5,-0.351 -10.338,-0.683 -10.062,-0.998C-9.733,-1.375 -9.249,-1.722 -8.646,-2.036C-6.696,-3.052 -3.547,-3.7 -0,-3.7L0,-3.7Z"/>
            </g>
        </g>
    </g>
</svg>
