<?xml version="1.0" encoding="UTF-8" standalone="no"?>
<!DOCTYPE svg PUBLIC "-//W3C//DTD SVG 1.1//EN" "http://www.w3.org/Graphics/SVG/1.1/DTD/svg11.dtd">
<svg width="100%" height="100%" viewBox="0 0 2192 2500" version="1.1" xmlns="http://www.w3.org/2000/svg" xmlns:xlink="http://www.w3.org/1999/xlink" xml:space="preserve" xmlns:serif="http://www.serif.com/" style="fill-rule:evenodd;clip-rule:evenodd;stroke-linejoin:round;stroke-miterlimit:2;">
    <g transform="matrix(1,0,0,1,-154.094,-1.58109e-13)">
        <path d="M154.094,30.04C154.094,46.729 196.373,536.271 248.665,1118.16C299.844,1698.93 344.348,2191.81 345.461,2212.95L348.798,2250.78L799.399,2375.39L1248.89,2500L1339.01,2475.52C1387.96,2462.17 1589.34,2406.54 1787.38,2352.03C2094.46,2267.47 2146.75,2249.67 2151.2,2230.75C2156.76,2204.05 2345.91,60.08 2345.91,24.477L2345.91,0L154.094,0L154.094,30.04ZM1942.03,502.893C1937.58,529.595 1908.66,845.572 1877.5,1207.16C1845.24,1567.65 1818.54,1865.82 1816.31,1868.05C1811.86,1873.61 1265.58,2024.92 1250,2024.92C1238.87,2024.92 940.699,1943.7 737.094,1885.85L680.352,1869.16L667,1722.3C660.325,1641.08 651.424,1543.17 646.974,1504.23L640.298,1435.25L779.372,1435.25C936.248,1435.25 931.798,1433.02 932.911,1529.82C932.911,1554.3 936.248,1592.12 939.586,1614.38L946.262,1654.43L1098.69,1694.48L1250,1734.54L1400.2,1694.48C1482.53,1672.23 1551.51,1653.32 1551.51,1653.32C1552.63,1652.2 1559.3,1586.56 1565.98,1507.57C1572.65,1427.46 1580.44,1349.58 1583.78,1331.78L1589.34,1301.74L634.735,1301.74L629.172,1276.15C625.834,1262.8 619.159,1198.26 614.709,1131.51L606.92,1012.46L1609.37,1012.46L1616.04,936.805C1620.49,895.639 1627.17,832.221 1630.51,796.618C1634.96,751.001 1633.85,733.2 1624.94,738.763C1618.27,742.101 1381.29,742.101 1096.46,737.65L579.105,730.975L572.43,651.98C567.98,608.589 562.417,546.284 559.079,514.019L552.403,456.164L1947.6,456.164L1942.03,502.893Z" style="fill-rule:nonzero;"/>
    </g>
</svg>
