<?xml version="1.0" encoding="UTF-8" standalone="no"?>
<!DOCTYPE svg PUBLIC "-//W3C//DTD SVG 1.1//EN" "http://www.w3.org/Graphics/SVG/1.1/DTD/svg11.dtd">
<svg width="100%" height="100%" viewBox="0 0 488 506" version="1.1" xmlns="http://www.w3.org/2000/svg" xmlns:xlink="http://www.w3.org/1999/xlink" xml:space="preserve" xmlns:serif="http://www.serif.com/" style="fill-rule:evenodd;clip-rule:evenodd;stroke-linejoin:round;stroke-miterlimit:2;">
    <g transform="matrix(1,0,0,1,-356.083,-147.652)">
        <g>
            <path d="M592.162,476.387C590.465,537.049 592.979,598.114 598.915,612.96C598.915,612.96 598.915,612.961 598.916,612.961C602.86,622.82 609.772,638.06 624.904,646.603C635.044,652.329 648.949,655.26 668.401,651.093C668.401,651.093 668.402,651.093 668.402,651.093C688.089,646.872 701.389,640.418 710.669,630.773C720.001,621.073 725.416,608.011 728.542,589.884C732.723,565.656 740.782,498.377 741.816,484.592C742.124,480.482 739.038,476.895 734.928,476.587C730.818,476.279 727.231,479.365 726.922,483.475C725.903,497.074 717.949,563.445 713.824,587.344C713.824,587.345 713.824,587.345 713.824,587.345C711.311,601.921 707.41,612.618 699.906,620.418C692.351,628.271 681.299,633.053 665.272,636.489C650.525,639.648 639.935,637.938 632.246,633.597C620.634,627.041 615.81,614.981 612.783,607.415C607.108,593.221 605.469,534.802 607.092,476.804C607.207,472.684 603.955,469.246 599.836,469.131C595.716,469.015 592.277,472.267 592.162,476.387ZM551.215,172.259C551.208,172.256 516.009,157.859 475.863,154.912C448.205,152.881 418.341,156.394 395.405,172.779C370.811,190.349 353.517,222.777 356.396,280.324C357.762,307.643 384.8,441.362 422.882,492.616C434.383,508.096 447.305,516.282 460.263,515.17C469.048,514.417 478.356,509.476 487.585,498.382C487.585,498.381 487.586,498.38 487.586,498.38C510.475,470.844 531.173,449.246 531.173,449.246C534.025,446.271 533.925,441.54 530.95,438.688C527.974,435.836 523.243,435.936 520.391,438.912C520.391,438.912 499.357,460.854 476.101,488.833C470.175,495.956 464.629,499.806 458.987,500.29C450.3,501.035 442.58,494.085 434.87,483.708C398.271,434.451 372.625,305.833 371.313,279.578C371.313,279.578 371.313,279.578 371.313,279.578C368.793,229.195 382.555,200.315 404.087,184.932C424.202,170.562 450.513,168.026 474.769,169.807C512.489,172.577 545.564,186.084 545.564,186.084C549.38,187.643 553.743,185.812 555.302,181.997C556.862,178.181 555.03,173.818 551.215,172.259ZM656.292,171.4L656.78,171.228C670.309,166.631 764.064,139.498 819.688,210.575C825.812,218.401 827.249,233.58 825.742,253.112C821.857,303.432 795.831,380.527 752.095,445.427C749.791,448.845 750.696,453.49 754.114,455.793C757.532,458.096 762.177,457.191 764.48,453.774C809.834,386.473 836.605,306.443 840.633,254.261C842.517,229.858 839.102,211.148 831.451,201.37C831.45,201.37 831.45,201.37 831.45,201.37C770.095,122.971 666.898,152.016 651.975,157.087C648.423,158.293 646.948,159.974 646.855,160.087C645.372,161.908 645.152,163.669 645.178,164.957C645.22,167.031 645.984,168.86 647.65,170.359C647.854,170.542 650.392,173.355 655.16,171.86C655.556,171.736 655.934,171.582 656.292,171.4ZM551.215,172.259L551.215,172.259L551.215,172.259ZM655.435,157.703C654.296,157.223 652.715,156.974 650.692,157.609C652.303,157.103 653.958,157.173 655.435,157.703Z"/>
            <path d="M752.115,272.513C723.467,269.627 706.787,275.903 697.917,286.052C687.691,297.752 686.851,315.634 691.677,334.982C700.088,368.704 725.084,407.222 728.746,416.096C734.058,428.976 740.948,437.262 746.075,443.697C747.23,445.146 748.317,446.418 749.186,447.624C747.279,448.216 745.018,448.987 743.244,449.786C734.931,453.53 725.589,461.167 726.916,484.458C727.306,491.292 733.408,497.39 744.59,499.761C761.995,503.451 792.998,499.785 809.582,492.088C824.532,485.145 836.255,475.628 840.742,468.86C844.363,463.399 844.212,458.497 842.477,455.27C841.18,452.86 838.846,450.665 834.745,449.702C831.868,449.026 827.424,448.971 821.195,450.257C793.456,455.983 778.639,454.616 770.75,451.35C767.375,449.953 765.677,447.814 765.466,447.535C764.444,443.493 761.677,439.311 757.756,434.39C753.288,428.782 747.182,421.626 742.552,410.401C738.98,401.742 714.374,364.266 706.168,331.368C702.684,317.399 701.78,304.328 709.162,295.881C712.633,291.91 717.943,289.202 725.36,287.783C734.113,286.108 745.467,286.279 759.974,288.602L762.668,288.541C764.989,288.061 768.319,286.485 768.916,281.448C769.156,279.43 768.402,273.819 765.63,266.014C754.229,233.909 709.775,154.827 612.039,153.225C549.614,152.201 519.326,190.446 504.744,229.086C490.583,266.61 491.594,304.386 491.594,304.386C491.702,308.506 495.136,311.763 499.256,311.654C503.376,311.546 506.633,308.113 506.524,303.993L518.717,234.359C531.393,200.773 557.533,167.268 611.794,168.158C702.799,169.65 743.037,244.987 752.115,272.513ZM757.358,460.805C755.959,461.274 754.334,461.721 752.59,462.244C750.243,462.95 747.445,463.84 745.339,466.313C742.718,469.389 741.389,474.486 741.797,482.95C742.173,483.197 742.917,483.666 743.48,483.903C744.695,484.412 746.115,484.816 747.687,485.15C754.021,486.493 762.477,486.623 771.179,485.889C782.93,484.899 795.145,482.323 803.293,478.541C812.103,474.45 819.649,469.412 824.544,464.821L824.215,464.884C798.554,470.181 782.442,469.69 772.356,467.425C765.277,465.836 760.534,463.357 757.358,460.805Z"/>
            <path d="M561.394,457.061C556.42,462.618 553.371,466.796 550.653,470.113C548.613,472.603 546.87,474.501 544.113,476.073C539.74,478.566 533.291,480.345 521.455,482.781C521.454,482.781 521.454,482.781 521.453,482.782C511.98,484.734 506.206,487.295 502.974,489.743C498.93,492.805 497.522,496.248 497.325,499.396C497.109,502.834 498.461,506.447 501.552,509.648C505.654,513.896 513.608,517.698 520.194,519.345C537.131,523.583 576.213,529.274 602.689,492.203C607.774,485.084 608.106,475.877 605.073,467.694C602.156,459.822 596.144,453.139 589.425,450.353C589.424,450.353 589.423,450.353 589.422,450.352C586.021,448.944 582.002,447.568 577.417,447.969C572.775,448.374 567.31,450.44 561.394,457.061L561.394,457.061ZM513.918,500.56C514.096,500.469 514.276,500.384 514.453,500.307C516.88,499.255 520.166,498.296 524.468,497.409C538.645,494.491 546.273,492.034 551.51,489.048C559.328,484.59 561.939,478.844 572.526,467.018C572.527,467.017 572.529,467.015 572.53,467.013C574.925,464.333 576.837,463.011 578.715,462.847C580.649,462.679 582.275,463.558 583.709,464.152C586.992,465.513 589.642,469.034 591.069,472.884C592.38,476.423 592.735,480.442 590.535,483.521C590.535,483.522 590.535,483.522 590.535,483.522C569.181,513.422 537.479,508.274 523.818,504.856C523.818,504.856 523.817,504.856 523.817,504.855C520.81,504.104 517.327,502.744 514.593,501.035C514.379,500.901 514.148,500.738 513.918,500.56Z"/>
            <path d="M558.211,459.861C558.263,460.874 558.365,461.872 558.515,462.853C559.14,466.927 562.955,469.727 567.029,469.103C571.103,468.478 573.903,464.663 573.278,460.589C571.794,450.913 576.93,439.515 581.927,426.045C590.519,402.926 610.208,379.785 594.347,306.437C594.347,306.437 594.347,306.436 594.347,306.436C589.446,283.777 574.689,275.404 557.659,274.371C542.535,273.454 525.298,278.969 512.636,285.187C503.336,289.755 496.484,294.839 494.042,297.877C492.11,300.28 491.601,302.554 491.59,304.139C491.59,304.14 491.59,304.14 491.59,304.14C491.544,311.191 495.057,339.889 490.384,373.306C483.915,419.566 517.619,458.794 558.211,459.861ZM559.934,444.952C561.735,437.565 564.705,429.528 567.925,420.85C567.925,420.848 567.926,420.847 567.926,420.846C575.921,399.334 594.505,377.833 579.749,309.594C576.663,295.325 567.478,289.929 556.754,289.279C544.123,288.513 529.795,293.399 519.221,298.593C514.027,301.144 508.668,304.996 506.587,306.551C507.012,316.526 509.575,343.916 505.175,375.375C499.945,412.777 527.008,445.012 559.934,444.952Z"/>
            <path d="M547.686,303.117C547.341,305.561 552.159,312.079 558.441,312.95C564.713,313.825 570.081,308.73 570.421,306.29C570.761,303.846 565.949,301.155 559.665,300.281C553.39,299.406 548.02,300.68 547.688,303.117L547.686,303.117Z" style="fill-rule:nonzero;"/>
            <path d="M545.217,302.81C545.123,303.536 545.25,304.514 545.652,305.606L547.686,305.606C547.686,305.606 545.652,305.606 545.652,305.606C545.865,306.191 546.158,306.809 546.538,307.439C548.537,310.755 552.91,314.696 558.099,315.416C563.399,316.155 568.18,313.405 570.703,310.652C572.026,309.209 572.736,307.714 572.886,306.633L572.886,306.633C573.082,305.228 572.582,303.698 571.191,302.314C569.243,300.378 565.066,298.519 560.008,297.815C554.958,297.111 550.431,297.758 548.03,299.086C546.309,300.038 545.413,301.375 545.221,302.781L545.217,302.81ZM567.909,306.134C567.721,306.692 567.05,307.356 566.24,308.053C564.479,309.568 561.768,310.901 558.785,310.485L558.784,310.485C555.689,310.056 553.059,307.908 551.486,305.865C550.991,305.222 550.603,304.589 550.359,304.018C550.307,303.896 550.258,303.738 550.221,303.608C550.424,303.48 550.793,303.261 551.092,303.153C553.03,302.446 556.035,302.288 559.321,302.746L559.321,302.746C562.613,303.204 565.46,304.177 567.132,305.387C567.436,305.607 567.773,305.978 567.909,306.134ZM545.217,302.81L545.222,302.769L544.821,305.606L545.652,305.606L545.652,305.606L544.836,305.606L545.217,302.81Z"/>
            <path d="M738.707,298.136C739.047,300.58 734.235,307.098 727.952,307.969C721.676,308.844 716.308,303.749 715.964,301.309C715.632,298.866 720.445,296.174 726.722,295.3C733,294.425 738.366,295.699 738.707,298.137L738.707,298.136Z" style="fill-rule:nonzero;"/>
            <path d="M739.939,297.964C739.79,296.897 739.063,295.917 737.757,295.194C735.51,293.952 731.274,293.409 726.551,294.067C721.828,294.725 717.901,296.405 716.078,298.215C715.018,299.267 714.585,300.409 714.73,301.476L714.731,301.479C714.896,302.65 715.941,304.381 717.713,305.904C720.166,308.012 723.968,309.781 728.123,309.203C732.917,308.538 736.941,304.879 738.787,301.816C739.701,300.3 740.068,298.888 739.94,297.964L739.939,297.964ZM737.471,298.296L737.476,298.336L737.478,298.351C737.497,298.579 737.423,298.857 737.313,299.174C737.058,299.911 736.563,300.77 735.891,301.643C734.147,303.909 731.213,306.261 727.781,306.736L727.78,306.736C724.404,307.207 721.329,305.728 719.336,304.015C718.145,302.992 717.31,301.924 717.197,301.138C717.169,300.925 717.262,300.717 717.4,300.502C717.644,300.122 718.035,299.756 718.529,299.399C720.324,298.1 723.367,297.024 726.894,296.533C730.421,296.041 733.642,296.245 735.723,297.003C736.295,297.211 736.77,297.456 737.108,297.754C737.294,297.919 737.438,298.09 737.471,298.296ZM738.703,299.378C738.631,299.289 737.462,297.851 737.462,298.136C737.462,298.192 737.465,298.245 737.471,298.296L737.474,298.309L737.474,298.309L737.478,298.351C737.62,299.261 738.658,299.376 738.705,299.381L737.474,298.309L737.474,298.308L738.703,299.378Z"/>
            <path d="M753.698,281.631C754.719,300.563 749.556,313.452 748.912,333.605C748.517,345.779 750.711,358.66 752.05,371.963C753.846,389.805 754.084,408.553 741.555,427.265C739.262,430.69 740.181,435.332 743.605,437.625C747.03,439.918 751.672,439 753.965,435.575C766.37,417.049 768.582,398.566 767.698,380.642C766.898,364.414 763.365,348.724 763.84,334.088C763.84,334.087 763.84,334.085 763.84,334.084C764.499,313.437 769.658,300.221 768.612,280.826C768.389,276.71 764.868,273.549 760.752,273.771C756.637,273.993 753.476,277.515 753.698,281.631Z"/>
        </g>
    </g>
</svg>
