<?xml version="1.0" encoding="UTF-8" standalone="no"?>
<!DOCTYPE svg PUBLIC "-//W3C//DTD SVG 1.1//EN" "http://www.w3.org/Graphics/SVG/1.1/DTD/svg11.dtd">
<svg width="100%" height="100%" viewBox="0 0 1073 1307" version="1.1" xmlns="http://www.w3.org/2000/svg" xmlns:xlink="http://www.w3.org/1999/xlink" xml:space="preserve" xmlns:serif="http://www.serif.com/" style="fill-rule:evenodd;clip-rule:evenodd;stroke-linejoin:round;stroke-miterlimit:2;">
    <g transform="matrix(1,0,0,1,-463.765,-346.636)">
        <path d="M732.621,501.812C747.635,560.003 800.6,603.138 863.352,603.138L945.812,603.138C1020.26,603.138 1080.79,542.555 1080.79,468.111C1080.79,455.977 1070.92,446.102 1058.78,446.102L750.379,446.102C738.246,446.102 728.37,455.977 728.37,468.111C728.37,479.714 729.832,490.963 732.576,501.68C732.621,501.724 732.621,501.768 732.621,501.812Z" style="fill-rule:nonzero;"/>
        <path d="M904.582,423.959C889.348,423.959 876.992,411.603 876.992,396.369C876.992,381.135 889.348,368.779 904.582,368.779C919.816,368.779 932.215,381.135 932.215,396.369C932.215,411.603 919.816,423.959 904.582,423.959ZM945.987,423.959C951.259,416.076 954.357,406.555 954.357,396.369C954.357,368.957 932.038,346.636 904.582,346.636C877.169,346.636 854.85,368.957 854.85,396.369C854.85,406.555 857.948,416.076 863.218,423.959C872.12,437.289 887.354,446.102 904.582,446.102C921.853,446.102 937.043,437.289 945.987,423.959Z" style="fill-rule:nonzero;"/>
        <path d="M1160.06,1296.16C1055.68,1296.16 970.744,1211.22 970.744,1106.84C970.744,1002.42 1055.68,917.52 1160.06,917.52C1264.44,917.52 1349.38,1002.42 1349.38,1106.84C1349.38,1211.22 1264.44,1296.16 1160.06,1296.16ZM1529.76,1039.61L1474.49,1034.96C1469.84,1034.57 1465.9,1031.29 1464.7,1026.73C1457.48,999.182 1446.5,972.744 1432.11,948.077C1429.72,944.003 1430.16,938.909 1433.17,935.322L1469,892.941C1443.18,855.653 1411.25,823.723 1373.96,797.905L1364.35,806.009L1363.33,806.895L1331.58,833.687C1327.99,836.743 1322.86,837.186 1318.83,834.794C1294.16,820.401 1267.68,809.419 1240.13,802.201C1235.62,801.005 1232.34,797.063 1231.94,792.413L1227.24,737.101C1183.18,729.13 1136.77,729.174 1092.88,737.101L1088.23,792.413C1087.83,797.063 1084.51,801.005 1080,802.201C1052.45,809.419 1025.97,820.401 1001.3,834.794C997.27,837.186 992.177,836.743 988.59,833.731L946.164,797.905C908.876,823.723 876.947,855.653 851.173,892.941L886.957,935.322C890.012,938.909 890.455,944.003 888.063,948.032C873.625,972.7 862.643,999.182 855.425,1026.73C854.229,1031.29 850.332,1034.57 845.638,1034.96L790.37,1039.61C786.384,1061.62 784.345,1084.17 784.345,1106.8C784.345,1129.47 786.384,1152.06 790.37,1174.02L845.638,1178.67C850.332,1179.07 854.229,1182.35 855.425,1186.91C862.643,1214.45 873.625,1240.94 888.063,1265.6C890.41,1269.63 890.012,1274.73 886.957,1278.31L851.173,1320.69C876.992,1357.98 908.876,1389.91 946.164,1415.73L988.547,1379.95C992.134,1376.89 997.27,1376.45 1001.3,1378.84C1025.97,1393.28 1052.45,1404.26 1080,1411.48C1084.51,1412.67 1087.83,1416.57 1088.23,1421.27L1092.88,1476.53C1136.77,1484.51 1183.14,1484.51 1227.24,1476.58L1231.94,1421.27C1232.34,1416.57 1235.62,1412.67 1240.13,1411.48C1267.68,1404.26 1294.16,1393.28 1318.83,1378.84C1322.9,1376.45 1327.99,1376.89 1331.58,1379.95L1363.24,1406.7L1364.35,1407.63L1373.96,1415.73C1411.29,1389.87 1443.22,1357.94 1469,1320.69L1433.22,1278.31C1430.16,1274.73 1429.72,1269.63 1432.11,1265.56C1446.5,1240.89 1457.48,1214.45 1464.7,1186.91C1465.9,1182.35 1469.84,1179.07 1474.49,1178.67L1529.76,1174.02C1533.74,1152.06 1535.78,1129.47 1535.78,1106.8C1535.78,1084.17 1533.74,1061.62 1529.76,1039.61Z" style="fill-rule:nonzero;"/>
        <path d="M1253.33,1430.79L1248.63,1486.81C1248.19,1491.68 1244.6,1495.71 1239.78,1496.73C1213.78,1502 1186.94,1504.7 1160.06,1504.7C1133.14,1504.7 1106.3,1502 1080.3,1496.68C1075.52,1495.67 1071.94,1491.64 1071.49,1486.76L1066.8,1430.79C1042.53,1423.83 1019.1,1414.09 996.96,1401.82L954.048,1438.05C950.329,1441.19 944.925,1441.55 940.806,1438.8C895.768,1409.04 857.859,1371.13 828.056,1326.05C825.354,1321.98 825.664,1316.58 828.854,1312.81L865.08,1269.94C852.813,1247.8 843.069,1224.37 836.117,1200.1L780.14,1195.37C775.224,1194.97 771.194,1191.38 770.218,1186.55C764.905,1160.6 762.203,1133.76 762.203,1106.8C762.203,1079.87 764.905,1053.08 770.218,1027.08C771.194,1022.25 775.224,1018.67 780.14,1018.27L836.117,1013.58C843.069,989.307 852.767,965.835 865.08,943.692L828.854,900.824C825.664,897.104 825.354,891.701 828.056,887.583C857.816,842.544 895.725,804.592 940.806,774.788C944.925,772.086 950.329,772.397 954.048,775.585L996.96,811.811C1019.1,799.543 1042.53,789.801 1066.8,782.848L1071.49,726.916C1071.94,722 1075.52,717.97 1080.3,716.996C1132.21,706.367 1187.65,706.367 1239.78,716.951C1244.6,717.925 1248.19,721.955 1248.63,726.871L1253.33,782.848C1277.6,789.801 1301.02,799.543 1323.17,811.811L1345.44,792.989L1345.44,516.028L1095.45,516.028C1075.17,579.312 1015.74,625.28 945.812,625.28L863.352,625.28C793.425,625.28 733.995,579.312 713.711,516.028L463.765,516.028L463.765,1653.45L1345.44,1653.45L1345.44,1420.65L1323.17,1401.82C1301.02,1414.09 1277.6,1423.83 1253.33,1430.79Z" style="fill-rule:nonzero;"/>
    </g>
</svg>
