<?xml version="1.0" encoding="UTF-8" standalone="no"?>
<!DOCTYPE svg PUBLIC "-//W3C//DTD SVG 1.1//EN" "http://www.w3.org/Graphics/SVG/1.1/DTD/svg11.dtd">
<svg width="100%" height="100%" viewBox="0 0 128 67" version="1.1" xmlns="http://www.w3.org/2000/svg" xmlns:xlink="http://www.w3.org/1999/xlink" xml:space="preserve" xmlns:serif="http://www.serif.com/" style="lip-rule:evenodd;stroke-linejoin:round;stroke-miterlimit:2;">
    <g id="shape-3d006d11-a9a1-8060-8001-c999c7dc643d">
        <g id="shape-3d006d11-a9a1-8060-8001-c999c7dc643e">
            <g id="shape-3d006d11-a9a1-8060-8001-c999c7dc643f">
                <g id="shape-3d006d11-a9a1-8060-8001-c999c7dc6440">
                    <g id="fills-3d006d11-a9a1-8060-8001-c999c7dc6440">
                        <path d="M69.667,0.78C69.381,1.49 50.644,63.987 50.069,66.185C49.854,67 49.854,67 54.52,67C58.684,67 59.223,66.93 59.402,66.362C63.027,54.38 79,0.673 79,0.39C79,0.142 77.492,0 74.514,0C70.171,0 69.991,0.035 69.667,0.78Z"/>
                    </g>
                </g>
                <g id="shape-3d006d11-a9a1-8060-8001-c999c7dc6441">
                    <g id="fills-3d006d11-a9a1-8060-8001-c999c7dc6441">
                        <path d="M21.648,24.965L0.176,34.894L0.106,38.894L0,42.893L21.683,52.891C33.58,58.399 43.506,62.959 43.683,62.996C43.894,63.102 44,61.276 43.928,58.295L43.824,53.453L27.386,46.261C18.306,42.331 10.914,38.999 10.914,38.893C10.914,38.787 18.164,35.525 27.034,31.7C35.868,27.841 43.33,24.543 43.578,24.367C43.861,24.122 44,22.717 44,19.525C44,16.123 43.894,15 43.578,15C43.33,15 33.473,19.491 21.648,24.965Z" />
                    </g>
                </g>
                <g id="shape-3d006d11-a9a1-8060-8001-c999c7dc6442">
                    <g id="fills-3d006d11-a9a1-8060-8001-c999c7dc6442">
                        <path d="M84,19.693L84,24.388L100.922,31.501C110.221,35.423 117.847,38.752 117.847,38.858C117.847,38.998 110.221,42.292 100.922,46.216L84,53.364L84,63L85.176,62.474C85.781,62.158 95.686,57.71 107.158,52.524L128,43.134L128,34.585L106.267,24.81C94.332,19.413 84.427,15 84.284,15C84.106,14.996 84,17.099 84,19.693Z" />
                    </g>
                </g>
            </g>
        </g>
    </g>
</svg>
