<?xml version="1.0" encoding="UTF-8" standalone="no"?>
<!DOCTYPE svg PUBLIC "-//W3C//DTD SVG 1.1//EN" "http://www.w3.org/Graphics/SVG/1.1/DTD/svg11.dtd">
<svg width="100%" height="100%" viewBox="0 0 18 18" version="1.1" xmlns="http://www.w3.org/2000/svg" xmlns:xlink="http://www.w3.org/1999/xlink" xml:space="preserve" xmlns:serif="http://www.serif.com/" style="fill-rule:evenodd;clip-rule:evenodd;stroke-linejoin:round;stroke-miterlimit:2;">
    <g transform="matrix(1,0,0,1,-3.5,-2.78812)">
        <path d="M5,4.5C4.726,4.5 4.5,4.726 4.5,5L4.5,10C4.5,10.274 4.726,10.5 5,10.5L10,10.5C10.274,10.5 10.5,10.274 10.5,10L10.5,5C10.5,4.726 10.274,4.5 10,4.5L5,4.5ZM5,3.5L10,3.5C10.823,3.5 11.5,4.177 11.5,5L11.5,10C11.5,10.823 10.823,11.5 10,11.5L5,11.5C4.177,11.5 3.5,10.823 3.5,10L3.5,5C3.5,4.177 4.177,3.5 5,3.5ZM5,13.5C4.726,13.5 4.5,13.726 4.5,14L4.5,19C4.5,19.274 4.726,19.5 5,19.5L10,19.5C10.274,19.5 10.5,19.274 10.5,19L10.5,14C10.5,13.726 10.274,13.5 10,13.5L5,13.5ZM5,12.5L10,12.5C10.823,12.5 11.5,13.177 11.5,14L11.5,19C11.5,19.823 10.823,20.5 10,20.5L5,20.5C4.177,20.5 3.5,19.823 3.5,19L3.5,14C3.5,13.177 4.177,12.5 5,12.5ZM14,13.5C13.726,13.5 13.5,13.726 13.5,14L13.5,19C13.5,19.274 13.726,19.5 14,19.5L19,19.5C19.274,19.5 19.5,19.274 19.5,19L19.5,14C19.5,13.726 19.274,13.5 19,13.5L14,13.5ZM14,12.5L19,12.5C19.823,12.5 20.5,13.177 20.5,14L20.5,19C20.5,19.823 19.823,20.5 19,20.5L14,20.5C13.177,20.5 12.5,19.823 12.5,19L12.5,14C12.5,13.177 13.177,12.5 14,12.5ZM20.034,7.402C20.121,7.315 20.121,7.171 20.034,7.084L16.852,3.902C16.765,3.815 16.621,3.815 16.534,3.902L13.352,7.084C13.265,7.171 13.265,7.315 13.352,7.402L16.534,10.584C16.621,10.672 16.764,10.672 16.852,10.584L20.034,7.402ZM20.776,8.144L17.594,11.326C17.099,11.821 16.286,11.821 15.791,11.326L12.61,8.144C12.115,7.649 12.115,6.836 12.61,6.341L15.792,3.159C16.287,2.664 17.1,2.664 17.595,3.159L20.777,6.341C21.272,6.836 21.272,7.649 20.777,8.144L20.776,8.144Z" />
    </g>
</svg>
