<?xml version="1.0" standalone="no"?>
<!DOCTYPE svg PUBLIC "-//W3C//DTD SVG 1.1//EN" "http://www.w3.org/Graphics/SVG/1.1/DTD/svg11.dtd" >
<svg xmlns="http://www.w3.org/2000/svg" xmlns:xlink="http://www.w3.org/1999/xlink" version="1.1">
<metadata>
Created by FontForge 20170731 at Fri Dec 31 00:30:05 2021
 By Aleksey,,,
Copyright (c) 2018 by Igor Kosinsky. All rights reserved.
</metadata>
<defs>
<font id="2MASSJ1808-Normal" horiz-adv-x="1536" >
  <font-face 
    font-family="2MASS J1808"
    font-weight="400"
    font-stretch="normal"
    units-per-em="2048"
    panose-1="2 0 8 7 4 0 0 2 0 4"
    ascent="1638"
    descent="-410"
    x-height="1243"
    cap-height="1532"
    bbox="-117 -557 2970 2238"
    underline-thickness="102"
    underline-position="-307"
    unicode-range="U+0020-FB02"
  />
<missing-glyph horiz-adv-x="1826" 
d="M205 1532h1417v-1532h-1417v1532zM1407 205v1122h-987v-1122h987z" />
    <glyph glyph-name="fi" unicode="fi" horiz-adv-x="1597" 
d="M573 1243h840v-1243h-266v1014h-574v-1014h-266v1014h-246v229h246v33q0 266 151.5 400t418.5 134q101 0 201 -22.5t155 -54.5v-246q-137 90 -373 90q-142 0 -214.5 -72t-72.5 -231v-31z" />
    <glyph glyph-name="fl" unicode="fl" horiz-adv-x="1599" 
d="M1151 1774h264v-1774h-266v1534q-111 43 -287 43q-142 0 -214.5 -72t-72.5 -231v-31h318v-229h-318v-1014h-266v1014h-248v229h248v33q0 266 151.5 400t418.5 134q150 0 272 -36z" />
    <glyph glyph-name=".notdef" horiz-adv-x="1826" 
d="M205 1532h1417v-1532h-1417v1532zM1407 205v1122h-987v-1122h987z" />
    <glyph glyph-name=".null" horiz-adv-x="0" 
 />
    <glyph glyph-name="nonmarkingreturn" horiz-adv-x="682" 
 />
    <glyph glyph-name="space" unicode=" " horiz-adv-x="849" 
 />
    <glyph glyph-name="exclam" unicode="!" horiz-adv-x="759" 
d="M242 1532h276v-1065h-276v1065zM559 143q0 74 -51.5 126.5t-124.5 52.5q-74 0 -128 -53t-54 -126q0 -74 54 -127t128 -53q73 0 124.5 52.5t51.5 127.5z" />
    <glyph glyph-name="quotedbl" unicode="&#x22;" horiz-adv-x="778" 
d="M477 1569h209v-498h-209v498zM92 1569h209v-498h-209v498z" />
    <glyph glyph-name="numbersign" unicode="#" horiz-adv-x="2105" 
d="M1860 903h-371l-76 -274h373l-64 -226h-370l-111 -403h-233l110 403h-362l-111 -403h-233l110 403h-370l61 226h371l75 274h-370l61 225h371l110 404h234l-111 -404h363l110 404h234l-111 -404h371zM1180 629l75 274h-362l-76 -274h363z" />
    <glyph glyph-name="dollar" unicode="$" 
d="M1382 401q0 -374 -487 -430v-227h-246v219q-297 10 -495 121v270q220 -143 559 -143q208 0 299.5 49.5t91.5 142.5q0 44 -21.5 81t-55 64.5t-92.5 55t-116.5 47t-144.5 45.5q-61 18 -106 33t-101.5 39t-97 48.5t-82 60t-67 75.5t-42 93t-16.5 114q0 166 125.5 270
t361.5 130v229h246v-221q255 -15 426 -115v-278q-91 67 -222.5 107t-277.5 40q-76 0 -143 -9.5t-121 -28.5t-85.5 -51t-31.5 -73q0 -21 4.5 -39t16.5 -33.5t24 -27.5t37 -25t44 -21.5t57.5 -21.5t64.5 -21.5t77 -24.5t85 -27q89 -29 155.5 -56t142 -72.5t123 -96.5
t79.5 -126.5t32 -165.5z" />
    <glyph glyph-name="percent" unicode="%" horiz-adv-x="2156" 
d="M1464 1532h222l-996 -1532h-219zM547 1569q188 0 299.5 -115.5t111.5 -282.5q0 -109 -47.5 -198t-142.5 -144t-221 -55q-190 0 -302 114.5t-112 282.5q0 108 48 197.5t143.5 145t222.5 55.5zM547 946q101 0 154 63t53 162t-53 162.5t-154 63.5q-103 0 -156 -63.5
t-53 -162.5t53 -162t156 -63zM1610 758q127 0 222.5 -55.5t143 -145t47.5 -197.5q0 -168 -111.5 -282.5t-301.5 -114.5q-126 0 -221 55t-143 144t-48 198q0 167 112 282.5t300 115.5zM1610 135q103 0 156 63t53 162t-53 162.5t-156 63.5q-101 0 -154 -63.5t-53 -162.5
t53 -162t154 -63z" />
    <glyph glyph-name="ampersand" unicode="&#x26;" horiz-adv-x="1679" 
d="M1346 319l305 -319h-357l-139 143q-115 -94 -233 -137t-258 -43q-242 0 -386.5 118t-144.5 312q0 71 21 135.5t52.5 111t80 91t90.5 73.5t96 60l-260 273v395h995v-244h-782l729 -766q32 34 65.5 106.5t49.5 137.5h305q-25 -107 -98 -241t-131 -206zM662 207
q81 0 164.5 32.5t150.5 94.5l-334 348q-233 -103 -233 -297q0 -80 72.5 -129t179.5 -49z" />
    <glyph glyph-name="quotesingle" unicode="'" horiz-adv-x="393" 
d="M92 1569h209v-498h-209v498z" />
    <glyph glyph-name="parenleft" unicode="(" horiz-adv-x="831" 
d="M739 1747q-179 -260 -262.5 -486t-83.5 -495t83.5 -495t262.5 -486h-286q-299 465 -299 981t299 981h286z" />
    <glyph glyph-name="parenright" unicode=")" horiz-adv-x="831" 
d="M92 1747h287q299 -465 299 -981t-299 -981h-287q179 260 262.5 486t83.5 495t-83.5 495t-262.5 486z" />
    <glyph glyph-name="asterisk" unicode="*" horiz-adv-x="1062" 
d="M940 1348l-258 -160l258 -160l-100 -151l-224 155l7 -225h-183l6 225l-223 -155l-100 151l256 160l-256 160l100 151l223 -156l-6 226h183l-9 -226l226 156z" />
    <glyph glyph-name="plus" unicode="+" horiz-adv-x="1255" 
d="M1081 877v-220h-346v-344h-219v344h-342v220h342v344h219v-344h346z" />
    <glyph glyph-name="comma" unicode="," horiz-adv-x="645" 
d="M584 311l-316 -497h-237l248 497h305z" />
    <glyph glyph-name="hyphen" unicode="-" horiz-adv-x="1128" 
d="M143 877h842v-220h-842v220z" />
    <glyph glyph-name="period" unicode="." horiz-adv-x="563" 
d="M461 143q0 -75 -51.5 -127.5t-124.5 -52.5q-74 0 -128.5 53t-54.5 127q0 73 54.5 126t128.5 53q73 0 124.5 -52.5t51.5 -126.5z" />
    <glyph glyph-name="slash" unicode="/" horiz-adv-x="1067" 
d="M750 1532h245l-678 -1532h-245z" />
    <glyph glyph-name="zero" unicode="0" horiz-adv-x="1712" 
d="M856 1569q130 0 243.5 -43t197 -119t143 -177t89.5 -219.5t30 -244.5t-30 -244.5t-89.5 -219.5t-143 -177t-197 -119t-243.5 -43t-243.5 43t-196.5 119t-143 177t-89.5 219.5t-29.5 244.5t29.5 244.5t89.5 219.5t143 177t196.5 119t243.5 43zM856 209q128 0 227 81.5
t149 207t50 268.5t-50 268.5t-149 207t-227 81.5t-227 -81.5t-149 -207t-50 -268.5t50 -268.5t149 -207t227 -81.5z" />
    <glyph glyph-name="one" unicode="1" horiz-adv-x="1167" 
d="M492 1532h450v-1532h-276v1354l-373 -373l-180 184z" />
    <glyph glyph-name="two" unicode="2" horiz-adv-x="1392" 
d="M360 242h859v-242h-1065v395l458 338q150 109 198 153q113 111 116 220q0 118 -75.5 167.5t-240.5 49.5q-108 0 -228.5 -33t-213.5 -100v266q187 113 438 113q300 0 448 -121t148 -344q0 -51 -13 -100.5t-34 -90.5t-56 -84t-69 -77t-84 -75.5t-90.5 -72t-98.5 -72.5
q-35 -25 -52 -38z" />
    <glyph glyph-name="three" unicode="3" horiz-adv-x="1357" 
d="M936 834q123 -43 195.5 -145.5t72.5 -258.5q0 -101 -34.5 -181.5t-92.5 -133t-139 -87.5t-168.5 -50t-185.5 -15q-229 0 -430 105v266q196 -125 424 -125q160 0 255 53.5t95 163.5q0 266 -334 266h-90v236h80q111 0 203 54.5t92 143.5q0 197 -295 197q-91 0 -208.5 -27
t-207.5 -84v256q175 101 420 101q259 0 408 -112t149 -320q0 -100 -60.5 -178t-148.5 -125z" />
    <glyph glyph-name="four" unicode="4" horiz-adv-x="1513" 
d="M1188 289v-289h-270v289h-785v364l612 879h443v-1008h223v-235h-223zM340 524h578v830z" />
    <glyph glyph-name="five" unicode="5" horiz-adv-x="1409" 
d="M758 979q125 0 221.5 -39t156 -108.5t89.5 -158.5t30 -194q0 -107 -35.5 -198t-106 -163t-189 -113.5t-273.5 -41.5q-286 0 -477 109v260q92 -60 216 -91.5t239 -31.5q181 0 265.5 76t84.5 194q0 117 -59.5 188.5t-194.5 71.5q-119 0 -190 -80h-326v873h1032v-240h-772
v-430q44 51 120 84t169 33z" />
    <glyph glyph-name="six" unicode="6" horiz-adv-x="1449" 
d="M739 1004q140 0 248 -40.5t174.5 -112t100.5 -164.5t34 -204q0 -105 -37 -198t-106 -165t-176.5 -114.5t-239.5 -42.5q-283 0 -433 201t-150 579q0 243 85.5 432t236.5 291.5t343 102.5q251 0 426 -101v-260q-183 119 -418 119q-156 0 -269 -123t-136 -319q59 49 142 84
t175 35zM737 203q127 0 205 79.5t78 200.5q0 287 -281 287q-75 0 -146 -25.5t-165 -89.5q0 -213 86 -332.5t223 -119.5z" />
    <glyph glyph-name="seven" unicode="7" horiz-adv-x="1232" 
d="M1151 1532v-399l-639 -1133h-315l747 1286h-862v246h1069z" />
    <glyph glyph-name="eight" unicode="8" horiz-adv-x="1495" 
d="M1073 825q268 -103 268 -391q0 -77 -21.5 -146t-68 -129t-114.5 -103t-167.5 -68t-221.5 -25t-222 25t-168 68t-114.5 103t-68 129t-21.5 146q0 288 268 391q-90 49 -145.5 128.5t-55.5 174.5q0 92 31 170t93.5 139.5t165.5 96.5t237 35t237 -35t165 -96.5t93 -139.5
t31 -170q0 -95 -55.5 -174.5t-145.5 -128.5zM748 1333q-130 0 -193 -54.5t-63 -150.5q0 -102 75.5 -153t180.5 -51t180.5 51t75.5 153q0 96 -63 150.5t-193 54.5zM748 203q143 0 230 63.5t87 175.5t-80 182t-237 70q-158 0 -238 -70t-80 -182t86.5 -175.5t231.5 -63.5z" />
    <glyph glyph-name="nine" unicode="9" horiz-adv-x="1449" 
d="M713 1569q283 0 433 -201.5t150 -579.5q0 -244 -83.5 -432t-235 -290.5t-348.5 -102.5q-251 0 -426 98v263q92 -60 191.5 -89.5t226.5 -29.5q165 0 274 121.5t131 320.5q-55 -48 -139 -83.5t-178 -35.5q-139 0 -247 40.5t-174 112t-100 165t-34 203.5q0 105 36.5 198
t105.5 165.5t176.5 114.5t240.5 42zM709 762q76 0 146.5 24.5t166.5 87.5q0 214 -86 334.5t-223 120.5q-128 0 -205.5 -79.5t-77.5 -200.5q0 -287 279 -287z" />
    <glyph glyph-name="colon" unicode=":" horiz-adv-x="563" 
d="M461 1065q0 -75 -51.5 -127.5t-124.5 -52.5q-74 0 -128.5 53t-54.5 127q0 73 54.5 125.5t128.5 52.5q73 0 124.5 -52t51.5 -126zM461 143q0 -75 -51.5 -127.5t-124.5 -52.5q-74 0 -128.5 53t-54.5 127q0 73 54.5 126t128.5 53q73 0 124.5 -52.5t51.5 -126.5z" />
    <glyph glyph-name="semicolon" unicode=";" horiz-adv-x="665" 
d="M543 311l-316 -497h-237l248 497h305zM543 1065q0 -75 -51.5 -127.5t-124.5 -52.5q-74 0 -128.5 53t-54.5 127q0 73 54.5 125.5t128.5 52.5q73 0 124.5 -52t51.5 -126z" />
    <glyph glyph-name="less" unicode="&#x3c;" horiz-adv-x="1161" 
d="M1008 1370v-256l-727 -348l727 -342v-256l-854 424v354z" />
    <glyph glyph-name="equal" unicode="=" horiz-adv-x="1277" 
d="M154 895v219h970v-219h-970zM154 426v219h970v-219h-970z" />
    <glyph glyph-name="greater" unicode="&#x3e;" horiz-adv-x="1161" 
d="M154 1114v256l854 -424v-354l-854 -424v256l727 342z" />
    <glyph glyph-name="question" unicode="?" horiz-adv-x="1267" 
d="M707 467h-277v412q81 0 152 14.5t127.5 43t89 75.5t32.5 108q0 92 -72.5 144.5t-199.5 52.5q-233 0 -436 -129v270q183 111 436 111q156 0 280 -51t199.5 -154.5t75.5 -243.5q0 -89 -36 -165.5t-95 -128.5t-130 -85.5t-146 -44.5v-229zM745 143q0 -75 -51.5 -127.5
t-124.5 -52.5q-74 0 -128 53t-54 127q0 73 54 126t128 53q73 0 124.5 -52.5t51.5 -126.5z" />
    <glyph glyph-name="at" unicode="@" horiz-adv-x="2086" 
d="M1047 1591q178 0 331.5 -56t265 -156.5t175 -248t63.5 -323.5q0 -74 -10 -141t-36 -132t-65 -112t-102 -76t-143 -29q-137 0 -201 109q-57 -50 -128 -77t-183 -27q-189 0 -305.5 124.5t-116.5 315.5q0 194 128.5 325.5t323.5 131.5q92 0 170 -24t131 -64t88 -85t54 -94
v-366q0 -34 21 -56t57 -22q41 0 69 31t41 81.5t18 95.5t5 93q0 141 -50 256.5t-138 192.5t-206.5 119t-256.5 42q-188 -1 -338 -85.5t-234 -234.5t-84 -337q0 -202 87 -352.5t236 -227t339 -76.5q214 0 333 80v-192q-127 -60 -333 -60q-182 0 -338.5 60.5t-268.5 168.5
t-175.5 263.5t-63.5 339.5q0 236 112 425.5t303.5 294.5t424.5 105zM1272 645v258q-28 52 -88.5 79.5t-130.5 27.5q-103 0 -164.5 -69.5t-61.5 -178.5q0 -105 60 -168.5t166 -63.5q69 0 129 30t90 85z" />
    <glyph glyph-name="A" unicode="A" horiz-adv-x="1910" 
d="M508 342l-148 -342h-294l679 1532h416l684 -1532h-299l-149 342h-889zM608 578h688l-344 778z" />
    <glyph glyph-name="B" unicode="B" horiz-adv-x="1597" 
d="M1171 850q128 -44 205.5 -139t77.5 -238q0 -122 -41 -214.5t-114 -148t-166.5 -83t-206.5 -27.5h-721v1532h608q243 0 382.5 -104.5t139.5 -301.5q0 -175 -164 -276zM477 1298v-376h316q51 0 97 10.5t86 31t63.5 57t23.5 83.5q0 194 -248 194h-338zM870 236
q67 0 117.5 10.5t95 35.5t68 73t23.5 118q0 58 -20 100t-50 65.5t-76.5 37t-87.5 17t-96 3.5h-367v-460h393z" />
    <glyph glyph-name="C" unicode="C" horiz-adv-x="1615" 
d="M1010 1569q135 0 252 -32t200 -87v-274q-81 62 -202.5 101.5t-249.5 39.5q-165 0 -293 -63.5t-202.5 -189.5t-74.5 -298q0 -167 76.5 -294t205.5 -192t288 -65q239 0 452 139v-276q-92 -57 -211.5 -86t-240.5 -29q-184 0 -342 58.5t-271.5 162.5t-178 254.5t-64.5 327.5
q0 245 107.5 428t301 279t447.5 96z" />
    <glyph glyph-name="D" unicode="D" horiz-adv-x="1787" 
d="M788 1532q198 0 359 -58.5t267 -161.5t163 -241.5t57 -300.5q-1 -162 -58.5 -301.5t-165 -244.5t-273.5 -164.5t-371 -59.5h-561v1532h583zM764 240q274 0 429 143t155 389q0 245 -155.5 382.5t-434.5 137.5h-277v-1052h283z" />
    <glyph glyph-name="E" unicode="E" horiz-adv-x="1511" 
d="M481 240h877v-240h-1153v1532h1141v-240h-865v-364h828v-236h-828v-452z" />
    <glyph glyph-name="F" unicode="F" horiz-adv-x="1384" 
d="M1282 1292h-801v-362h666v-240h-666v-690h-276v1532h1077v-240z" />
    <glyph glyph-name="G" unicode="G" horiz-adv-x="1708" 
d="M1274 784h270v-688q-105 -62 -255.5 -97.5t-291.5 -35.5q-182 0 -338 58.5t-267.5 162.5t-174.5 254t-63 328q0 245 108.5 428t303 279t448.5 96q271 0 469 -117v-276q-94 68 -217.5 104.5t-251.5 36.5q-165 0 -294 -63.5t-204.5 -189.5t-75.5 -298q0 -167 75.5 -294
t201 -192t280.5 -65q70 0 150 15.5t127 33.5v520z" />
    <glyph glyph-name="H" unicode="H" horiz-adv-x="1849" 
d="M1368 1532h277v-1532h-277v690h-887v-690h-276v1532h276v-602h887v602z" />
    <glyph glyph-name="I" unicode="I" horiz-adv-x="706" 
d="M215 1532h277v-1532h-277v1532z" />
    <glyph glyph-name="J" unicode="J" horiz-adv-x="1222" 
d="M225 1532h793v-993q0 -289 -150 -432.5t-424 -143.5q-98 0 -200.5 29t-151.5 65v267q60 -46 151.5 -77.5t196.5 -31.5q301 0 301 315v756h-516v246z" />
    <glyph glyph-name="K" unicode="K" horiz-adv-x="1718" 
d="M1628 1532l-694 -539l715 -993h-336l-584 836l-248 -195v-641h-276v1532h276v-582l746 582h401z" />
    <glyph glyph-name="L" unicode="L" horiz-adv-x="1349" 
d="M481 246h807v-246h-1083v1532h276v-1286z" />
    <glyph glyph-name="M" unicode="M" horiz-adv-x="2418" 
d="M2214 1532v-1532h-270v1354l-527 -1354h-420l-522 1354v-1354h-270v1532h481l520 -1354l525 1354h483z" />
    <glyph glyph-name="N" unicode="N" horiz-adv-x="1859" 
d="M1384 1532h271v-1532h-471l-709 1352v-1352h-270v1532h467l712 -1354v1354z" />
    <glyph glyph-name="O" unicode="O" horiz-adv-x="2033" 
d="M1016 -37q-254 0 -449.5 99t-304 282t-108.5 422t108.5 421.5t304 282t449.5 99.5q255 0 451 -99.5t304.5 -282t108.5 -421.5q0 -240 -108.5 -422.5t-304.5 -281.5t-451 -99zM1016 1317q-254 0 -415 -149t-161 -402q0 -169 75 -295.5t204.5 -191t296.5 -64.5t297 65
t205 191t75 295q0 127 -43 231t-120 174t-183 108t-231 38z" />
    <glyph glyph-name="P" unicode="P" horiz-adv-x="1538" 
d="M874 1532q110 0 206.5 -33.5t169 -95t114 -155.5t41.5 -208q0 -152 -71 -265t-189 -169.5t-266 -56.5h-398v-549h-276v1532h669zM879 788q109 0 176 68t67 184t-69 183t-179 67h-393v-502h398z" />
    <glyph glyph-name="Q" unicode="Q" horiz-adv-x="2033" 
d="M1931 -37h-344l-104 109q-204 -109 -467 -109q-254 0 -449.5 99t-304 282t-108.5 422t108.5 421.5t304 282t449.5 99.5q255 0 451 -99.5t304.5 -282t108.5 -421.5q0 -326 -201 -543zM1016 215q146 0 272 55l-327 334h346l178 -182q108 139 108 344q0 127 -43 231
t-120 174t-183 108t-231 38q-254 0 -415 -149t-161 -402q0 -169 75 -295.5t204.5 -191t296.5 -64.5z" />
    <glyph glyph-name="R" unicode="R" horiz-adv-x="1570" 
d="M1106 666l430 -666h-324l-378 610h-353v-610h-276v1532h672q218 0 363.5 -131t145.5 -326q0 -138 -78 -245t-202 -164zM821 844q75 0 138 22.5t106 73.5t43 123q0 113 -66 170t-178 57h-383v-446h340z" />
    <glyph glyph-name="S" unicode="S" 
d="M850 918q89 -29 155.5 -56t142 -72.5t123 -96.5t79.5 -126.5t32 -165.5q0 -438 -669 -438q-338 0 -559 123v268q217 -143 559 -143q208 0 299.5 49.5t91.5 142.5q0 44 -21.5 81t-55 64.5t-92.5 55t-116.5 47t-144.5 45.5q-61 18 -106 33t-101.5 39t-97 48.5t-82 60
t-67 75.5t-42 93t-16.5 114q0 195 170 302.5t485 107.5q302 0 504 -117v-278q-91 67 -222.5 107t-277.5 40q-77 0 -144 -9.5t-121 -28.5t-85 -51t-31 -73q0 -21 4.5 -39t16.5 -33.5t24 -27.5t37 -25t44 -21.5t57.5 -21.5t64.5 -21.5t77 -24.5t85 -27z" />
    <glyph glyph-name="T" unicode="T" horiz-adv-x="1517" 
d="M61 1532h1395v-246h-559v-1286h-276v1286h-560v246z" />
    <glyph glyph-name="U" unicode="U" horiz-adv-x="1789" 
d="M1309 1532h276v-965q0 -297 -180.5 -450.5t-509.5 -153.5t-509.5 153.5t-180.5 450.5v965h276v-973q0 -171 106 -257.5t308 -86.5t308 86.5t106 257.5v973z" />
    <glyph glyph-name="V" unicode="V" horiz-adv-x="1828" 
d="M1456 1532h301l-620 -1532h-447l-618 1532h299l542 -1356z" />
    <glyph glyph-name="W" unicode="W" horiz-adv-x="2811" 
d="M2740 1532l-526 -1532h-442l-373 1352l-375 -1352h-446l-506 1532h293l438 -1356l368 1356h463l357 -1356l456 1356h293z" />
    <glyph glyph-name="X" unicode="X" horiz-adv-x="1738" 
d="M1675 0h-325l-476 729l-485 -729h-326l566 825l-492 707h328l412 -610l413 610h320l-486 -707z" />
    <glyph glyph-name="Y" unicode="Y" horiz-adv-x="1652" 
d="M1288 1532h295l-795 -1532h-294l270 522h-156l-538 1010h307l459 -873z" />
    <glyph glyph-name="Z" unicode="Z" horiz-adv-x="1517" 
d="M338 242h1067v-242h-1282v387l1014 903h-969v242h1184v-387z" />
    <glyph glyph-name="bracketleft" unicode="[" horiz-adv-x="847" 
d="M725 1532h-285v-1532h285v-215h-520v1962h520v-215z" />
    <glyph glyph-name="backslash" unicode="\" horiz-adv-x="1067" 
d="M72 1532h245l678 -1532h-245z" />
    <glyph glyph-name="bracketright" unicode="]" horiz-adv-x="847" 
d="M408 1532h-285v215h520v-1962h-520v215h285v1532z" />
    <glyph glyph-name="asciicircum" unicode="^" horiz-adv-x="1568" 
d="M948 1569l467 -877h-256l-375 727l-372 -727h-258l467 877h327z" />
    <glyph glyph-name="underscore" unicode="_" horiz-adv-x="1429" 
d="M0 -246h1430v-205h-1430v205z" />
    <glyph glyph-name="grave" unicode="`" horiz-adv-x="733" 
d="M385 2001l287 -291h-301l-310 291h324z" />
    <glyph glyph-name="a" unicode="a" horiz-adv-x="1490" 
d="M1399 209q13 0 31 6v-227q-41 -13 -84 -13q-100 0 -175.5 47.5t-117.5 120.5q-56 -74 -159 -127t-232 -53q-239 0 -384 117.5t-145 318.5q0 90 43.5 170.5t114 135t160.5 86.5t182 32q84 0 164 -24t135.5 -48t79.5 -24v90q0 115 -95 176.5t-245 61.5q-151 0 -256 -33.5
t-203 -103.5v247q182 117 446 117q273 0 444 -125.5t171 -314.5v-533q0 -100 125 -100zM1012 434v86q-28 0 -87.5 22.5t-136 45t-145.5 22.5q-103 0 -170 -58.5t-67 -152.5q0 -103 73 -160t209 -57q137 0 230.5 68t93.5 184z" />
    <glyph glyph-name="b" unicode="b" horiz-adv-x="1710" 
d="M883 1282q311 0 502.5 -181.5t191.5 -479.5q0 -297 -191.5 -477.5t-502.5 -180.5q-126 0 -241.5 46t-190.5 136v-145h-267v1774h267v-676q75 90 190.5 137t241.5 47zM854 197q196 0 321 114t125 310q0 197 -125 312.5t-321 115.5q-424 0 -424 -428q0 -424 424 -424z" />
    <glyph glyph-name="c" unicode="c" horiz-adv-x="1411" 
d="M868 1282q119 0 228.5 -28t181.5 -72v-252q-72 52 -183 85.5t-227 33.5q-205 0 -331.5 -111.5t-126.5 -314.5q0 -200 128.5 -313t329.5 -113q220 0 410 118v-254q-82 -46 -192.5 -72t-217.5 -26q-214 0 -381.5 82.5t-260.5 233t-93 344.5q0 307 200 483t535 176z" />
    <glyph glyph-name="d" unicode="d" horiz-adv-x="1708" 
d="M133 621q0 299 190.5 480t501.5 181q123 0 239.5 -48.5t192.5 -135.5v676h267v-1774h-267v145q-75 -90 -190.5 -136t-241.5 -46q-311 0 -501.5 180.5t-190.5 477.5zM410 621q0 -196 124 -310t320 -114q424 0 424 424q0 428 -424 428q-196 0 -320 -115.5t-124 -312.5z" />
    <glyph glyph-name="e" unicode="e" 
d="M1403 596v-49h-1008q25 -163 138.5 -260t281.5 -97q277 0 479 115v-242q-195 -100 -477 -100q-148 0 -276 51t-217.5 139t-140 210t-50.5 260q0 145 50 269.5t135.5 209.5t201 132.5t244.5 47.5q294 0 466.5 -176t172.5 -510zM406 758h737q-27 146 -121.5 222.5
t-257.5 76.5q-127 0 -223 -77t-135 -222z" />
    <glyph glyph-name="f" unicode="f" horiz-adv-x="1161" 
d="M815 1810q173 0 295 -63v-240q-144 70 -297 70q-126 0 -182 -72.5t-56 -230.5v-31h445v-229h-445v-1014h-266v1014h-248v229h248v33q0 265 136 399.5t370 134.5z" />
    <glyph glyph-name="g" unicode="g" horiz-adv-x="1710" 
d="M1260 1243h266v-1071q0 -333 -174 -516.5t-529 -183.5q-195 0 -319 29t-244 89v265q132 -77 257.5 -111.5t287.5 -34.5q237 0 346 102t109 318v47q-78 -88 -193 -132t-240 -44q-201 0 -358 76t-246.5 218.5t-89.5 328.5q0 301 188.5 480t505.5 179q121 0 238 -48.5
t195 -135.5v145zM856 229q199 0 310.5 102.5t111.5 291.5q0 426 -422 426q-200 0 -323 -113.5t-123 -312.5q0 -120 62 -211t162.5 -137t221.5 -46z" />
    <glyph glyph-name="h" unicode="h" horiz-adv-x="1581" 
d="M1397 0h-267v793q0 134 -58.5 195t-203.5 61q-196 0 -306.5 -90t-110.5 -248v-711h-267v1774h267v-680q73 94 186.5 141t228.5 47q255 0 393 -120.5t138 -338.5v-823z" />
    <glyph glyph-name="i" unicode="i" horiz-adv-x="655" 
d="M487 1599q0 -66 -46.5 -112.5t-112.5 -46.5q-67 0 -114.5 46.5t-47.5 112.5q0 67 47 114.5t115 47.5q66 0 112.5 -47.5t46.5 -114.5zM195 0v1243h266v-1243h-266z" />
    <glyph glyph-name="j" unicode="j" horiz-adv-x="880" 
d="M705 1599q0 -66 -47 -112.5t-113 -46.5q-67 0 -114.5 46.5t-47.5 112.5q0 67 47.5 114.5t114.5 47.5q66 0 113 -47.5t47 -114.5zM123 1243h573v-1196q0 -575 -520 -575q-96 0 -162 20v234q78 -21 158 -21q56 0 100 15.5t81 52t57 103.5t20 163v975h-307v229z" />
    <glyph glyph-name="k" unicode="k" horiz-adv-x="1492" 
d="M827 825l596 -825h-325l-471 680l-176 -129v-551h-267v1774h267v-951l567 420h379z" />
    <glyph glyph-name="l" unicode="l" horiz-adv-x="655" 
d="M195 1774h266v-1774h-266v1774z" />
    <glyph glyph-name="m" unicode="m" horiz-adv-x="2340" 
d="M2157 0h-267v793q0 130 -49 193t-155 63q-168 0 -274.5 -93.5t-106.5 -244.5v-711h-267v793q0 132 -46.5 194t-151.5 62q-169 0 -279 -94.5t-110 -243.5v-711h-267v1243h267v-149q61 86 171 137t232 51q144 0 244 -65t145 -173q61 103 188 170.5t269 67.5
q213 0 335 -126.5t122 -332.5v-823z" />
    <glyph glyph-name="n" unicode="n" horiz-adv-x="1581" 
d="M1397 0h-267v793q0 134 -59 195t-205 61q-195 0 -305 -90t-110 -248v-711h-267v1243h267v-149q73 94 186.5 141t228.5 47q255 0 393 -120.5t138 -338.5v-823z" />
    <glyph glyph-name="o" unicode="o" horiz-adv-x="1724" 
d="M862 1282q207 0 372.5 -80.5t261 -231.5t95.5 -347q0 -195 -95.5 -346t-261 -232.5t-372.5 -81.5q-208 0 -373.5 81.5t-260.5 232.5t-95 346q0 196 95 347t260.5 231.5t373.5 80.5zM862 197q198 0 325.5 115.5t127.5 310.5q0 197 -127.5 311.5t-325.5 114.5
q-199 0 -325.5 -114.5t-126.5 -311.5q0 -196 126.5 -311t325.5 -115z" />
    <glyph glyph-name="p" unicode="p" horiz-adv-x="1710" 
d="M1577 623q0 -195 -88 -345.5t-246 -232.5t-360 -82q-124 0 -239.5 46.5t-192.5 135.5v-637h-267v1735h267v-145q77 90 192.5 137t239.5 47q317 0 505.5 -179t188.5 -480zM1300 623q0 199 -123 312.5t-323 113.5q-424 0 -424 -426t424 -426q191 0 318.5 116.5t127.5 309.5
z" />
    <glyph glyph-name="q" unicode="q" horiz-adv-x="1708" 
d="M825 -37q-201 0 -358.5 82t-245.5 232.5t-88 345.5q0 301 188.5 480t503.5 179q123 0 239.5 -48.5t192.5 -135.5v145h267v-1735h-267v637q-75 -89 -191 -135.5t-241 -46.5zM854 1049q-200 0 -322 -113.5t-122 -312.5q0 -193 126.5 -309.5t317.5 -116.5q424 0 424 426
t-424 426z" />
    <glyph glyph-name="r" unicode="r" horiz-adv-x="1112" 
d="M840 1282q114 0 200 -39v-258q-89 51 -202 51q-191 0 -289 -99t-98 -275v-662h-267v1243h267v-174q61 100 169.5 156.5t219.5 56.5z" />
    <glyph glyph-name="s" unicode="s" horiz-adv-x="1349" 
d="M741 752q182 -56 256 -93q172 -87 209 -237q11 -45 11 -98q0 -176 -147.5 -268.5t-444.5 -92.5q-286 0 -482 100v248q217 -123 482 -123q172 0 245.5 33.5t73.5 102.5q0 33 -17 59.5t-42.5 46t-76 39.5t-95.5 34.5t-123 35.5q-71 20 -127 41t-118 55.5t-103 75.5t-68 101
t-27 132q0 160 147.5 249t418.5 89q274 0 446 -96v-250q-78 56 -192.5 88.5t-249.5 32.5t-216 -28t-81 -85q0 -60 66.5 -97t254.5 -95z" />
    <glyph glyph-name="t" unicode="t" horiz-adv-x="1163" 
d="M776 197q165 0 316 100v-258q-78 -39 -153 -57.5t-187 -18.5q-443 0 -443 453v598h-248v229h248v289h266v-289h441v-229h-441v-611q0 -206 201 -206z" />
    <glyph glyph-name="u" unicode="u" horiz-adv-x="1564" 
d="M1114 1243h266v-754q0 -250 -157 -388t-441 -138q-283 0 -440.5 138t-157.5 388v754h267v-745q0 -301 331 -301q169 0 250.5 78t81.5 223v745z" />
    <glyph glyph-name="v" unicode="v" horiz-adv-x="1507" 
d="M1161 1243h285l-485 -1243h-414l-486 1243h285l408 -1087z" />
    <glyph glyph-name="w" unicode="w" horiz-adv-x="2318" 
d="M2257 1243l-410 -1243h-413l-277 1090l-291 -1090h-413l-392 1243h275l328 -1085l282 1085h430l266 -1085l343 1085h272z" />
    <glyph glyph-name="x" unicode="x" horiz-adv-x="1435" 
d="M944 676l432 -676h-299l-358 578l-363 -578h-297l439 674l-383 569h299l307 -471l313 471h295z" />
    <glyph glyph-name="y" unicode="y" horiz-adv-x="1538" 
d="M1194 1243h285l-801 -1735h-285l314 666h-132l-516 1069h295l426 -909z" />
    <glyph glyph-name="z" unicode="z" horiz-adv-x="1306" 
d="M1159 883l-840 -658h885v-225h-1091v362l835 656h-796v225h1007v-360z" />
    <glyph glyph-name="braceleft" unicode="{" horiz-adv-x="917" 
d="M510 1044q0 -113 -27.5 -180t-95.5 -98q68 -31 95.5 -98.5t27.5 -178.5v-331q0 -68 35 -113t96 -45h154v-215h-154q-181 0 -274 100.5t-93 266.5v280q0 44 -1 66.5t-4.5 53t-11.5 45.5t-22.5 30.5t-37 21.5t-54.5 6v222q32 0 54.5 6t37 21.5t22.5 30.5t11.5 45.5t4.5 53
t1 66.5v280q0 166 93 266.5t274 100.5h154v-215h-154q-61 0 -96 -45t-35 -113v-330z" />
    <glyph glyph-name="bar" unicode="|" horiz-adv-x="614" 
d="M205 -276v2086h205v-2086h-205z" />
    <glyph glyph-name="braceright" unicode="}" horiz-adv-x="917" 
d="M408 1044v330q0 68 -35.5 113t-96.5 45h-153v215h153q181 0 274 -100.5t93 -266.5v-280q0 -44 1 -66.5t4.5 -53t11.5 -45.5t22.5 -30.5t37 -21.5t54.5 -6v-222q-32 0 -54.5 -6t-37 -21.5t-22.5 -30.5t-11.5 -45.5t-4.5 -53t-1 -66.5v-280q0 -166 -93 -266.5t-274 -100.5
h-153v215h153q61 0 96.5 45t35.5 113v331q0 112 27 179t95 98q-68 31 -95 98t-27 180z" />
    <glyph glyph-name="asciitilde" unicode="~" horiz-adv-x="1644" 
d="M580 795q-67 0 -110.5 -35t-59.5 -94h-277q10 93 53 163t107 109t135.5 57.5t149.5 18.5q76 0 148 -21t118 -46.5t102 -46.5t103 -21q72 0 121.5 33.5t64.5 95.5h276q-19 -169 -136.5 -257.5t-315.5 -88.5q-78 0 -150 21t-117.5 45.5t-103 45.5t-108.5 21z" />
    <glyph glyph-name="exclamdown" unicode="&#xa1;" horiz-adv-x="759" 
d="M518 -412h-276v1065h276v-1065zM201 977q0 75 51.5 127.5t124.5 52.5q74 0 128 -53t54 -127q0 -73 -54 -125.5t-128 -52.5q-73 0 -124.5 52t-51.5 126z" />
    <glyph glyph-name="sterling" unicode="&#xa3;" horiz-adv-x="1329" 
d="M471 246h756v-246h-1104v246q53 0 89 40.5t36 94.5v283h-125v213h125v116q0 143 44 253.5t124 180.5t187.5 106t238.5 36q217 0 332 -68v-264q-138 80 -328 80q-66 0 -122 -17.5t-102 -53.5t-72 -98.5t-26 -146.5v-124h467v-213h-467v-281q0 -42 -15.5 -80t-37.5 -57z
" />
    <glyph glyph-name="currency" unicode="&#xa4;" horiz-adv-x="1570" 
d="M1346 766q0 -179 -99 -317l193 -193l-146 -145l-190 192q-146 -98 -318 -98q-174 0 -317 98l-193 -192l-143 145l191 193q-99 145 -99 317q0 170 99 315l-191 193l143 145l193 -192q143 98 317 98q172 0 318 -98l190 192l146 -145l-193 -193q99 -138 99 -315zM786 440
q134 0 229 95.5t95 230.5q0 134 -95 229t-229 95q-135 0 -230 -95t-95 -229q0 -135 95 -230.5t230 -95.5z" />
    <glyph glyph-name="yen" unicode="&#xa5;" horiz-adv-x="1665" 
d="M1593 1532l-465 -645h291v-201h-448v-194h448v-201h-448v-291h-277v291h-448v201h448v194h-448v201h291l-465 645h317l445 -635l442 635h317z" />
    <glyph glyph-name="brokenbar" unicode="&#xa6;" horiz-adv-x="614" 
d="M205 920v890h205v-890h-205zM205 -276v888h205v-888h-205z" />
    <glyph glyph-name="section" unicode="&#xa7;" horiz-adv-x="1427" 
d="M1096 436q178 -111 178 -276q0 -95 -44 -164t-123.5 -107.5t-177.5 -56.5t-220 -18q-297 0 -494 120v246q220 -151 502 -151q311 0 311 133q0 37 -29.5 69.5t-85.5 58.5t-103.5 43.5t-118 39t-95.5 30.5q-169 61 -232 94q-189 98 -208 250q-2 18 -2 37q0 89 44 148.5
t134 107.5q-178 111 -178 277q0 94 44 163t123.5 108t178 57t219.5 18q139 0 275.5 -34t217.5 -89v-246q-101 71 -232.5 112.5t-268.5 41.5q-312 0 -312 -133q0 -38 29.5 -70.5t85 -59t104 -44t118.5 -38.5t95 -30q169 -61 232 -94q189 -97 209 -248q2 -19 2 -39
q0 -89 -44 -148.5t-134 -107.5zM399 786q0 -32 23 -60.5t65.5 -50.5t75.5 -35t82.5 -28.5t56.5 -17.5q83 -25 197 -66q56 17 92.5 62t36.5 100q0 24 -12.5 45.5t-36 39t-48 31.5t-58.5 26.5t-57 20.5t-53 16.5t-38 11.5q-22 7 -63.5 20.5t-73.5 24.5t-60 22
q-56 -17 -92.5 -62t-36.5 -100z" />
    <glyph glyph-name="dieresis" unicode="&#xa8;" horiz-adv-x="1032" 
d="M383 1860q0 -62 -44.5 -106t-107.5 -44q-61 0 -105 44t-44 106q0 63 43.5 107t105.5 44q63 0 107.5 -44t44.5 -107zM950 1860q0 -62 -44 -106t-107 -44q-61 0 -105.5 44t-44.5 106q0 63 44 107t106 44q63 0 107 -44t44 -107z" />
    <glyph glyph-name="copyright" unicode="&#xa9;" horiz-adv-x="1792" 
d="M895 1419q-147 0 -271.5 -73t-197 -197.5t-72.5 -269.5q0 -148 73.5 -272.5t198 -196.5t269.5 -72q148 0 273 73.5t197.5 198t72.5 269.5q0 147 -73.5 271.5t-198.5 196.5t-271 72zM895 1569q188 0 347.5 -92.5t252 -251.5t92.5 -346q0 -140 -54.5 -268t-147 -220.5
t-221 -147.5t-269.5 -55q-187 0 -346 92.5t-251.5 252t-92.5 346.5t92.5 346t251.5 251.5t346 92.5zM547 879q0 159 103 254.5t274 95.5q117 0 200 -49v-176q-86 57 -200 57q-86 0 -138.5 -53.5t-52.5 -128.5q0 -73 52.5 -127t138.5 -54q113 0 200 64v-178q-80 -54 -200 -54
q-171 0 -274 95t-103 254z" />
    <glyph glyph-name="guillemotleft" unicode="&#xab;" horiz-adv-x="1359" 
d="M649 1221v-289l-352 -314l352 -311v-289l-495 439v325zM1206 1221v-289l-352 -314l352 -311v-289l-495 439v325z" />
    <glyph glyph-name="logicalnot" unicode="&#xac;" horiz-adv-x="1298" 
d="M1145 442h-219v265h-772v219h991v-484z" />
    <glyph glyph-name="uni00AD" unicode="&#xad;" horiz-adv-x="811" 
 />
    <glyph glyph-name="registered" unicode="&#xae;" horiz-adv-x="1789" 
d="M895 1419q-147 0 -271.5 -73t-197 -197.5t-72.5 -269.5q0 -146 73 -270.5t197.5 -197.5t270.5 -73q145 0 269.5 72t198 197t73.5 272t-73.5 271.5t-198 196.5t-269.5 72zM895 1569q187 0 346 -92.5t251.5 -251.5t92.5 -346t-92.5 -346.5t-251.5 -252t-346 -92.5
t-346 92.5t-251.5 252t-92.5 346.5t92.5 346t251.5 251.5t346 92.5zM1161 987q0 -105 -84 -176l113 -268h-191l-75 223h-109v-223h-170v671h279q96 0 166.5 -65.5t70.5 -161.5zM911 905q27 0 48.5 25t21.5 59q0 29 -22 54.5t-48 25.5h-96v-164h96z" />
    <glyph glyph-name="macron" unicode="&#xaf;" horiz-adv-x="1021" 
d="M102 1710v184h818v-184h-818z" />
    <glyph glyph-name="degree" unicode="&#xb0;" horiz-adv-x="970" 
d="M485 1395q-65 0 -111 -46t-46 -112q0 -65 46.5 -111.5t110.5 -46.5q65 0 111.5 46.5t46.5 111.5q0 66 -46.5 112t-111.5 46zM485 1569q137 0 234.5 -97t97.5 -235q0 -137 -97.5 -234.5t-234.5 -97.5q-136 0 -233.5 97.5t-97.5 234.5q0 138 97 235t234 97z" />
    <glyph glyph-name="plusminus" unicode="&#xb1;" horiz-adv-x="1255" 
d="M1081 389v-219h-907v219h907zM737 1081h344v-219h-344v-317h-219v317h-344v219h344v353h219v-353z" />
    <glyph glyph-name="acute" unicode="&#xb4;" horiz-adv-x="733" 
d="M61 1710l287 291h324l-310 -291h-301z" />
    <glyph glyph-name="mu" unicode="&#xb5;" horiz-adv-x="1564" 
d="M1114 1243h266v-754q0 -250 -157 -388t-441 -138q-103 0 -192 33t-139 98v-586h-267v1735h267v-745q0 -301 331 -301q169 0 250.5 78t81.5 223v745z" />
    <glyph glyph-name="paragraph" unicode="&#xb6;" horiz-adv-x="1193" 
d="M952 1356v-1356h-204v1356h-173v-1356h-186v897q-82 0 -149 47.5t-102.5 120.5t-35.5 152q0 134 100 224.5t236 90.5h654v-176h-140z" />
    <glyph glyph-name="periodcentered" unicode="&#xb7;" horiz-adv-x="563" 
d="M461 764q0 -75 -51.5 -127.5t-124.5 -52.5q-74 0 -128.5 53t-54.5 127q0 73 54.5 125.5t128.5 52.5q73 0 124.5 -52t51.5 -126z" />
    <glyph glyph-name="cedilla" unicode="&#xb8;" horiz-adv-x="647" 
d="M330 -135q97 -11 160 -63.5t63 -129.5q0 -128 -75 -178.5t-228 -50.5q-80 0 -141 18v166q56 -24 127 -24q137 0 137 65q0 51 -51.5 71.5t-145.5 20.5v240h154v-135z" />
    <glyph glyph-name="guillemotright" unicode="&#xbb;" horiz-adv-x="1359" 
d="M711 932v289l495 -439v-325l-495 -439v289l352 311zM154 932v289l495 -439v-325l-495 -439v289l352 311z" />
    <glyph glyph-name="onequarter" unicode="&#xbc;" horiz-adv-x="1783" 
d="M1294 1532h222l-996 -1532h-219zM291 1532h282v-766h-188v616l-160 -159l-123 127zM1589 297h113v-152h-113v-145h-174v145h-395v211l317 410h252v-469zM1415 297v319l-248 -319h248z" />
    <glyph glyph-name="onehalf" unicode="&#xbd;" horiz-adv-x="1849" 
d="M1348 164h378v-164h-542v236l219 172q9 7 30.5 23.5t37.5 29.5t34 28.5t27.5 29t9.5 22.5q0 39 -36.5 55t-86.5 16q-72 0 -118 -19.5t-111 -68.5v191q88 65 227 65q141 0 224 -61.5t83 -188.5q0 -24 -11 -49t-24 -43.5t-41.5 -45t-44.5 -39.5t-53.5 -41.5t-48.5 -37.5
q-14 -11 -70.5 -50t-82.5 -60zM1292 1532h221l-995 -1532h-219zM289 1532h282v-766h-188v616l-160 -159l-123 127z" />
    <glyph glyph-name="threequarters" unicode="&#xbe;" horiz-adv-x="1728" 
d="M1239 1532h219l-993 -1532h-221zM1534 297h113v-152h-113v-145h-176v145h-393v211l315 410h254v-469zM1358 297v319l-246 -319h246zM526 1206q54 -30 81.5 -79.5t27.5 -108.5q0 -66 -26 -114.5t-71.5 -76t-99.5 -40.5t-116 -13q-132 0 -226 47v189q62 -38 109 -54
t114 -16q18 0 38 3t44 10t39 23.5t15 39.5q0 98 -129 98h-60v154h49q56 0 87.5 20t31.5 49q0 66 -112 66q-64 0 -111.5 -16.5t-108.5 -55.5v187q102 51 222 51q57 0 106 -12.5t90 -38.5t64.5 -71.5t23.5 -105.5q0 -37 -23 -74t-59 -61z" />
    <glyph glyph-name="questiondown" unicode="&#xbf;" horiz-adv-x="1196" 
d="M541 653h276v-411q-110 0 -198 -24.5t-145.5 -80.5t-57.5 -137q0 -92 72.5 -144.5t199.5 -52.5q233 0 436 129v-270q-183 -111 -436 -111q-156 0 -280 51t-199.5 154.5t-75.5 243.5q0 89 36 165.5t95 128.5t130.5 85.5t146.5 44.5v229zM502 977q0 75 51.5 127.5
t124.5 52.5q74 0 128 -53t54 -127q0 -73 -54 -125.5t-128 -52.5q-73 0 -124.5 52t-51.5 126z" />
    <glyph glyph-name="Agrave" unicode="&#xc0;" horiz-adv-x="1910" 
d="M508 342l-148 -342h-294l679 1532h416l684 -1532h-299l-149 342h-889zM608 578h688l-344 778zM846 2007l287 -291h-302l-309 291h324z" />
    <glyph glyph-name="Aacute" unicode="&#xc1;" horiz-adv-x="1910" 
d="M508 342l-148 -342h-294l679 1532h416l684 -1532h-299l-149 342h-889zM608 578h688l-344 778zM772 1716l287 291h323l-309 -291h-301z" />
    <glyph glyph-name="Acircumflex" unicode="&#xc2;" horiz-adv-x="1910" 
d="M508 342l-148 -342h-294l679 1532h416l684 -1532h-299l-149 342h-889zM608 578h688l-344 778zM1141 2007l243 -291h-258l-176 178l-176 -178h-254l238 291h383z" />
    <glyph glyph-name="Atilde" unicode="&#xc3;" horiz-adv-x="1910" 
d="M508 342l-148 -342h-294l679 1532h416l684 -1532h-299l-149 342h-889zM608 578h688l-344 778zM762 1722h-209q0 70 24 123.5t64.5 83.5t86.5 45t95 15q50 0 98 -19.5t84.5 -39t57.5 -19.5q40 0 58.5 16.5t21.5 54.5h209q0 -134 -76 -200t-201 -66q-50 0 -97.5 19.5
t-83.5 39t-58 19.5q-68 0 -74 -72z" />
    <glyph glyph-name="Adieresis" unicode="&#xc4;" horiz-adv-x="1910" 
d="M819 1866q0 -62 -44 -106t-107 -44q-62 0 -106 44t-44 106q0 63 44 107t106 44q63 0 107 -44t44 -107zM1386 1866q0 -62 -44 -106t-107 -44q-61 0 -105.5 44t-44.5 106q0 63 44 107t106 44q63 0 107 -44t44 -107zM508 342l-148 -342h-294l679 1532h416l684 -1532h-299
l-149 342h-889zM608 578h688l-344 778z" />
    <glyph glyph-name="Aring" unicode="&#xc5;" horiz-adv-x="1910" 
d="M508 342l-148 -342h-294l679 1532h416l684 -1532h-299l-149 342h-889zM608 578h688l-344 778zM952 2009q-41 0 -69.5 -28.5t-28.5 -69.5q0 -42 28.5 -71.5t69.5 -29.5t70 30t29 71t-29 69.5t-70 28.5zM952 2152q100 0 171 -70.5t71 -170.5q0 -101 -71 -172.5t-171 -71.5
t-170.5 71.5t-70.5 172.5q0 100 70.5 170.5t170.5 70.5z" />
    <glyph glyph-name="AE" unicode="&#xc6;" horiz-adv-x="2449" 
d="M1481 240h815v-240h-1092v342h-672l-170 -342h-299l783 1532h1438v-240h-803v-364h766v-236h-766v-452zM1204 578v714h-186l-365 -714h551z" />
    <glyph glyph-name="Ccedilla" unicode="&#xc7;" horiz-adv-x="1615" 
d="M1010 1317q-165 0 -293 -63.5t-202.5 -189.5t-74.5 -298q0 -167 76.5 -294t205.5 -192t288 -65q239 0 452 139v-276q-166 -100 -397 -113v-100q97 -11 160 -63.5t63 -129.5q0 -128 -75 -178.5t-228 -50.5q-80 0 -141 18v166q55 -24 127 -24q137 0 137 65q0 51 -51.5 71.5
t-145.5 20.5v207q-165 15 -304.5 79.5t-239.5 167t-156.5 244.5t-56.5 308q0 245 107.5 428t301 279t447.5 96q135 0 252 -32t200 -87v-274q-81 62 -202.5 101.5t-249.5 39.5z" />
    <glyph glyph-name="Egrave" unicode="&#xc8;" horiz-adv-x="1511" 
d="M481 240h877v-240h-1153v1532h1141v-240h-865v-364h828v-236h-828v-452zM737 2007l287 -291h-301l-309 291h323z" />
    <glyph glyph-name="Eacute" unicode="&#xc9;" horiz-adv-x="1511" 
d="M481 240h877v-240h-1153v1532h1141v-240h-865v-364h828v-236h-828v-452zM590 1716l287 291h323l-309 -291h-301z" />
    <glyph glyph-name="Ecircumflex" unicode="&#xca;" horiz-adv-x="1511" 
d="M481 240h877v-240h-1153v1532h1141v-240h-865v-364h828v-236h-828v-452zM989 2007l244 -291h-258l-176 178l-176 -178h-254l237 291h383z" />
    <glyph glyph-name="Edieresis" unicode="&#xcb;" horiz-adv-x="1511" 
d="M481 240h877v-240h-1153v1532h1141v-240h-865v-364h828v-236h-828v-452zM668 1866q0 -62 -44.5 -106t-107.5 -44q-61 0 -105 44t-44 106q0 63 43.5 107t105.5 44q63 0 107.5 -44t44.5 -107zM1235 1866q0 -62 -44.5 -106t-107.5 -44q-61 0 -105 44t-44 106q0 63 43.5 107
t105.5 44q63 0 107.5 -44t44.5 -107z" />
    <glyph glyph-name="Igrave" unicode="&#xcc;" horiz-adv-x="706" 
d="M215 1532h277v-1532h-277v1532zM324 2007l286 -291h-301l-309 291h324z" />
    <glyph glyph-name="Iacute" unicode="&#xcd;" horiz-adv-x="706" 
d="M215 1532h277v-1532h-277v1532zM96 1716l287 291h324l-310 -291h-301z" />
    <glyph glyph-name="Icircumflex" unicode="&#xce;" horiz-adv-x="706" 
d="M215 1532h277v-1532h-277v1532zM541 2007l243 -291h-258l-176 178l-176 -178h-254l238 291h383z" />
    <glyph glyph-name="Idieresis" unicode="&#xcf;" horiz-adv-x="706" 
d="M215 1532h277v-1532h-277v1532zM219 1866q0 -62 -44 -106t-107 -44q-62 0 -106 44t-44 106q0 63 44 107t106 44q63 0 107 -44t44 -107zM786 1866q0 -62 -44 -106t-107 -44q-61 0 -105.5 44t-44.5 106q0 63 44 107t106 44q63 0 107 -44t44 -107z" />
    <glyph glyph-name="Eth" unicode="&#xd0;" horiz-adv-x="1871" 
d="M874 1532q198 0 358.5 -58.5t266 -161.5t162.5 -241.5t57 -300.5t-57.5 -301.5t-164.5 -244.5t-273.5 -164.5t-372.5 -59.5h-559v692h-250v236h250v604h583zM848 240q275 0 429.5 143t154.5 389q0 245 -154.5 382.5t-433.5 137.5h-277v-364h383v-236h-383v-452h281z" />
    <glyph glyph-name="Ntilde" unicode="&#xd1;" horiz-adv-x="1859" 
d="M1384 1532h271v-1532h-471l-709 1352v-1352h-270v1532h467l712 -1354v1354zM758 1722h-209q0 70 24 123.5t64.5 83.5t86.5 45t95 15q50 0 98 -19.5t84.5 -39t57.5 -19.5q40 0 58.5 16.5t21.5 54.5h209q0 -134 -76 -200t-201 -66q-50 0 -98 19.5t-84 39t-58 19.5
q-67 0 -73 -72z" />
    <glyph glyph-name="Ograve" unicode="&#xd2;" horiz-adv-x="2033" 
d="M1016 -37q-254 0 -449.5 99t-304 282t-108.5 422t108.5 421.5t304 282t449.5 99.5q255 0 451 -99.5t304.5 -282t108.5 -421.5q0 -240 -108.5 -422.5t-304.5 -281.5t-451 -99zM1016 1317q-254 0 -415 -149t-161 -402q0 -169 75 -295.5t204.5 -191t296.5 -64.5t297 65
t205 191t75 295q0 127 -43 231t-120 174t-183 108t-231 38zM911 2007l287 -291h-301l-309 291h323z" />
    <glyph glyph-name="Oacute" unicode="&#xd3;" horiz-adv-x="2033" 
d="M1016 -37q-254 0 -449.5 99t-304 282t-108.5 422t108.5 421.5t304 282t449.5 99.5q255 0 451 -99.5t304.5 -282t108.5 -421.5q0 -240 -108.5 -422.5t-304.5 -281.5t-451 -99zM1016 1317q-254 0 -415 -149t-161 -402q0 -169 75 -295.5t204.5 -191t296.5 -64.5t297 65
t205 191t75 295q0 127 -43 231t-120 174t-183 108t-231 38zM788 1716l287 291h324l-309 -291h-302z" />
    <glyph glyph-name="Ocircumflex" unicode="&#xd4;" horiz-adv-x="2033" 
d="M1016 -37q-254 0 -449.5 99t-304 282t-108.5 422t108.5 421.5t304 282t449.5 99.5q255 0 451 -99.5t304.5 -282t108.5 -421.5q0 -240 -108.5 -422.5t-304.5 -281.5t-451 -99zM1016 1317q-254 0 -415 -149t-161 -402q0 -169 75 -295.5t204.5 -191t296.5 -64.5t297 65
t205 191t75 295q0 127 -43 231t-120 174t-183 108t-231 38zM1204 2007l244 -291h-258l-176 178l-176 -178h-254l237 291h383z" />
    <glyph glyph-name="Otilde" unicode="&#xd5;" horiz-adv-x="2033" 
d="M1016 -37q-254 0 -449.5 99t-304 282t-108.5 422t108.5 421.5t304 282t449.5 99.5q255 0 451 -99.5t304.5 -282t108.5 -421.5q0 -240 -108.5 -422.5t-304.5 -281.5t-451 -99zM1016 1317q-254 0 -415 -149t-161 -402q0 -169 75 -295.5t204.5 -191t296.5 -64.5t297 65
t205 191t75 295q0 127 -43 231t-120 174t-183 108t-231 38zM825 1722h-209q0 70 24.5 123.5t64.5 83.5t86.5 45t95.5 15q50 0 97.5 -19.5t84 -39t57.5 -19.5q40 0 58.5 16.5t21.5 54.5h209q0 -134 -75.5 -200t-200.5 -66q-50 0 -98 19.5t-84 39t-58 19.5q-68 0 -74 -72z" />
    <glyph glyph-name="Odieresis" unicode="&#xd6;" horiz-adv-x="2033" 
d="M1016 -37q-254 0 -449.5 99t-304 282t-108.5 422t108.5 421.5t304 282t449.5 99.5q255 0 451 -99.5t304.5 -282t108.5 -421.5q0 -240 -108.5 -422.5t-304.5 -281.5t-451 -99zM1016 1317q-254 0 -415 -149t-161 -402q0 -169 75 -295.5t204.5 -191t296.5 -64.5t297 65
t205 191t75 295q0 127 -43 231t-120 174t-183 108t-231 38zM883 1866q0 -62 -44.5 -106t-107.5 -44q-61 0 -105 44t-44 106q0 63 43.5 107t105.5 44q63 0 107.5 -44t44.5 -107zM1450 1866q0 -62 -44.5 -106t-107.5 -44q-61 0 -105 44t-44 106q0 63 43.5 107t105.5 44
q63 0 107.5 -44t44.5 -107z" />
    <glyph glyph-name="multiply" unicode="&#xd7;" horiz-adv-x="1101" 
d="M827 1194l152 -152l-277 -276l277 -277l-152 -151l-276 276l-275 -276l-153 151l276 277l-276 276l153 152l275 -276z" />
    <glyph glyph-name="Oslash" unicode="&#xd8;" horiz-adv-x="2033" 
d="M1673 1317q207 -213 207 -551q0 -240 -108.5 -422.5t-304.5 -281.5t-451 -99q-275 0 -486 119l-190 -207l-158 145l178 195q-206 215 -206 551q0 239 108.5 421.5t304 282t449.5 99.5q279 0 487 -119l193 207l157 -146zM440 766q0 -203 111 -346l768 829q-130 68 -303 68
q-254 0 -415 -149t-161 -402zM1016 215q167 0 297 65t205 191t75 295q0 207 -108 346l-768 -829q136 -68 299 -68z" />
    <glyph glyph-name="Ugrave" unicode="&#xd9;" horiz-adv-x="1789" 
d="M1309 1532h276v-965q0 -297 -180.5 -450.5t-509.5 -153.5t-509.5 153.5t-180.5 450.5v965h276v-973q0 -171 106 -257.5t308 -86.5t308 86.5t106 257.5v973zM823 2007l287 -291h-301l-309 291h323z" />
    <glyph glyph-name="Uacute" unicode="&#xda;" horiz-adv-x="1789" 
d="M1309 1532h276v-965q0 -297 -180.5 -450.5t-509.5 -153.5t-509.5 153.5t-180.5 450.5v965h276v-973q0 -171 106 -257.5t308 -86.5t308 86.5t106 257.5v973zM684 1716l287 291h323l-309 -291h-301z" />
    <glyph glyph-name="Ucircumflex" unicode="&#xdb;" horiz-adv-x="1789" 
d="M1309 1532h276v-965q0 -297 -180.5 -450.5t-509.5 -153.5t-509.5 153.5t-180.5 450.5v965h276v-973q0 -171 106 -257.5t308 -86.5t308 86.5t106 257.5v973zM1085 2007l244 -291h-258l-176 178l-176 -178h-254l237 291h383z" />
    <glyph glyph-name="Udieresis" unicode="&#xdc;" horiz-adv-x="1789" 
d="M1309 1532h276v-965q0 -297 -180.5 -450.5t-509.5 -153.5t-509.5 153.5t-180.5 450.5v965h276v-973q0 -171 106 -257.5t308 -86.5t308 86.5t106 257.5v973zM764 1866q0 -62 -44.5 -106t-107.5 -44q-61 0 -105 44t-44 106q0 63 43.5 107t105.5 44q63 0 107.5 -44
t44.5 -107zM1331 1866q0 -62 -44 -106t-107 -44q-62 0 -106 44t-44 106q0 63 44 107t106 44q63 0 107 -44t44 -107z" />
    <glyph glyph-name="Yacute" unicode="&#xdd;" horiz-adv-x="1652" 
d="M1288 1532h295l-795 -1532h-294l270 522h-156l-538 1010h307l459 -873zM643 1716l287 291h323l-309 -291h-301z" />
    <glyph glyph-name="Thorn" unicode="&#xde;" horiz-adv-x="1558" 
d="M877 1309q154 0 278 -63.5t197 -185.5t73 -282t-72.5 -279.5t-194.5 -180t-277 -60.5h-400v-258h-276v1532h276v-223h396zM881 498q115 0 188.5 73t73.5 207q0 135 -76 213t-190 78h-396v-571h400z" />
    <glyph glyph-name="germandbls" unicode="&#xdf;" horiz-adv-x="1591" 
d="M1176 987q126 -50 209 -167t83 -290q0 -257 -148.5 -400.5t-426.5 -143.5q-142 0 -223 37v237q37 -19 98 -30t109 -11q164 0 241.5 79.5t77.5 240.5q0 153 -97 232t-253 79h-35v223h41q116 0 184 61.5t68 172.5q0 73 -26.5 126.5t-73 84t-103.5 45t-125 14.5
q-140 0 -232.5 -90.5t-92.5 -257.5v-1229h-267v1227q0 136 46.5 247t127 184t187 112.5t227.5 39.5q169 0 302.5 -55.5t213.5 -166.5t80 -261q0 -127 -51.5 -206t-140.5 -134z" />
    <glyph glyph-name="agrave" unicode="&#xe0;" horiz-adv-x="1490" 
d="M1399 209q13 0 31 6v-227q-41 -13 -84 -13q-100 0 -175.5 47.5t-117.5 120.5q-56 -74 -159 -127t-232 -53q-239 0 -384 117.5t-145 318.5q0 90 43.5 170.5t114 135t160.5 86.5t182 32q84 0 164 -24t135.5 -48t79.5 -24v90q0 115 -95 176.5t-245 61.5q-151 0 -256 -33.5
t-203 -103.5v247q182 117 446 117q273 0 444 -125.5t171 -314.5v-533q0 -100 125 -100zM1012 434v86q-28 0 -87.5 22.5t-136 45t-145.5 22.5q-103 0 -170 -58.5t-67 -152.5q0 -103 73 -160t209 -57q137 0 230.5 68t93.5 184zM629 1731l286 -291h-301l-309 291h324z" />
    <glyph glyph-name="aacute" unicode="&#xe1;" horiz-adv-x="1490" 
d="M1399 209q13 0 31 6v-227q-41 -13 -84 -13q-100 0 -175.5 47.5t-117.5 120.5q-56 -74 -159 -127t-232 -53q-239 0 -384 117.5t-145 318.5q0 90 43.5 170.5t114 135t160.5 86.5t182 32q84 0 164 -24t135.5 -48t79.5 -24v90q0 115 -95 176.5t-245 61.5q-151 0 -256 -33.5
t-203 -103.5v247q182 117 446 117q273 0 444 -125.5t171 -314.5v-533q0 -100 125 -100zM1012 434v86q-28 0 -87.5 22.5t-136 45t-145.5 22.5q-103 0 -170 -58.5t-67 -152.5q0 -103 73 -160t209 -57q137 0 230.5 68t93.5 184zM485 1440l287 291h324l-310 -291h-301z" />
    <glyph glyph-name="acircumflex" unicode="&#xe2;" horiz-adv-x="1490" 
d="M1399 209q13 0 31 6v-227q-41 -13 -84 -13q-100 0 -175.5 47.5t-117.5 120.5q-56 -74 -159 -127t-232 -53q-239 0 -384 117.5t-145 318.5q0 90 43.5 170.5t114 135t160.5 86.5t182 32q84 0 164 -24t135.5 -48t79.5 -24v90q0 115 -95 176.5t-245 61.5q-151 0 -256 -33.5
t-203 -103.5v247q182 117 446 117q273 0 444 -125.5t171 -314.5v-533q0 -100 125 -100zM1012 434v86q-28 0 -87.5 22.5t-136 45t-145.5 22.5q-103 0 -170 -58.5t-67 -152.5q0 -103 73 -160t209 -57q137 0 230.5 68t93.5 184zM870 1731l244 -291h-258l-176 178l-176 -178
h-254l237 291h383z" />
    <glyph glyph-name="atilde" unicode="&#xe3;" horiz-adv-x="1490" 
d="M1399 209q13 0 31 6v-227q-41 -13 -84 -13q-100 0 -175.5 47.5t-117.5 120.5q-56 -74 -159 -127t-232 -53q-239 0 -384 117.5t-145 318.5q0 90 43.5 170.5t114 135t160.5 86.5t182 32q84 0 164 -24t135.5 -48t79.5 -24v90q0 115 -95 176.5t-245 61.5q-151 0 -256 -33.5
t-203 -103.5v247q182 117 446 117q273 0 444 -125.5t171 -314.5v-533q0 -100 125 -100zM1012 434v86q-28 0 -87.5 22.5t-136 45t-145.5 22.5q-103 0 -170 -58.5t-67 -152.5q0 -103 73 -160t209 -57q137 0 230.5 68t93.5 184zM498 1446h-209q0 56 16 102t42.5 76t62.5 50.5
t73 29t76 8.5q50 0 98 -19.5t84.5 -39t57.5 -19.5q40 0 58.5 17t21.5 55h208q0 -134 -75.5 -200t-200.5 -66q-50 0 -98 19.5t-84 39t-58 19.5q-67 0 -73 -72z" />
    <glyph glyph-name="adieresis" unicode="&#xe4;" horiz-adv-x="1490" 
d="M1399 209q13 0 31 6v-227q-41 -13 -84 -13q-100 0 -175.5 47.5t-117.5 120.5q-56 -74 -159 -127t-232 -53q-239 0 -384 117.5t-145 318.5q0 90 43.5 170.5t114 135t160.5 86.5t182 32q84 0 164 -24t135.5 -48t79.5 -24v90q0 115 -95 176.5t-245 61.5q-151 0 -256 -33.5
t-203 -103.5v247q182 117 446 117q273 0 444 -125.5t171 -314.5v-533q0 -100 125 -100zM1012 434v86q-28 0 -87.5 22.5t-136 45t-145.5 22.5q-103 0 -170 -58.5t-67 -152.5q0 -103 73 -160t209 -57q137 0 230.5 68t93.5 184zM543 1589q0 -62 -44.5 -105.5t-107.5 -43.5
q-61 0 -105 44t-44 105q0 63 43.5 107.5t105.5 44.5q63 0 107.5 -44.5t44.5 -107.5zM1110 1589q0 -62 -44.5 -105.5t-107.5 -43.5q-62 0 -105.5 44t-43.5 105q0 63 43.5 107.5t105.5 44.5q63 0 107.5 -44.5t44.5 -107.5z" />
    <glyph glyph-name="aring" unicode="&#xe5;" horiz-adv-x="1490" 
d="M1399 209q13 0 31 6v-227q-41 -13 -84 -13q-100 0 -175.5 47.5t-117.5 120.5q-56 -74 -159 -127t-232 -53q-239 0 -384 117.5t-145 318.5q0 90 43.5 170.5t114 135t160.5 86.5t182 32q84 0 164 -24t135.5 -48t79.5 -24v90q0 115 -95 176.5t-245 61.5q-151 0 -256 -33.5
t-203 -103.5v247q182 117 446 117q273 0 444 -125.5t171 -314.5v-533q0 -100 125 -100zM1012 434v86q-28 0 -87.5 22.5t-136 45t-145.5 22.5q-103 0 -170 -58.5t-67 -152.5q0 -103 73 -160t209 -57q137 0 230.5 68t93.5 184zM672 1780q-41 0 -70 -29t-29 -70t29 -70.5
t70 -29.5t69.5 29.5t28.5 70.5t-28.5 70t-69.5 29zM672 1923q100 0 170.5 -71t70.5 -171q0 -101 -70.5 -172t-170.5 -71t-171 71t-71 172q0 100 71 171t171 71z" />
    <glyph glyph-name="ae" unicode="&#xe6;" horiz-adv-x="2396" 
d="M2263 596v-49h-1001q5 -103 62.5 -185.5t151 -128t205.5 -45.5q275 0 467 115v-242q-192 -98 -465 -98q-166 0 -308 66t-236 178q-74 -124 -206 -184t-271 -60q-239 0 -384 117.5t-145 318.5q0 125 74 226.5t188 155t238 53.5q84 0 164 -19t135.5 -38t79.5 -19v59
q0 116 -95.5 178t-244.5 62q-151 0 -256 -33.5t-203 -103.5v245q182 117 446 117q170 0 307 -56.5t208 -152.5q75 96 198.5 152.5t257.5 56.5q293 0 463 -175.5t170 -510.5zM1012 434v113q-28 0 -87.5 19t-136 38t-145.5 19q-104 0 -170.5 -59.5t-66.5 -164.5
q0 -103 72.5 -157t209.5 -54q138 0 231 65.5t93 180.5zM1272 758h731q-54 299 -373 299q-131 0 -235.5 -80.5t-122.5 -218.5z" />
    <glyph glyph-name="ccedilla" unicode="&#xe7;" horiz-adv-x="1411" 
d="M868 1049q-205 0 -331.5 -111.5t-126.5 -314.5q0 -200 128.5 -313t329.5 -113q220 0 410 118v-254q-144 -83 -354 -96v-100q97 -11 160 -63.5t63 -129.5q0 -128 -75 -178.5t-228 -50.5q-81 0 -142 18v166q56 -24 127 -24q138 0 138 65q0 51 -51.5 71.5t-145.5 20.5v209
q-286 28 -461.5 206t-175.5 448q0 307 200 483t535 176q119 0 228.5 -28t181.5 -72v-252q-72 52 -183 85.5t-227 33.5z" />
    <glyph glyph-name="egrave" unicode="&#xe8;" 
d="M1403 596v-49h-1008q25 -163 138.5 -260t281.5 -97q277 0 479 115v-242q-195 -100 -477 -100q-148 0 -276 51t-217.5 139t-140 210t-50.5 260q0 145 50 269.5t135.5 209.5t201 132.5t244.5 47.5q294 0 466.5 -176t172.5 -510zM406 758h737q-27 146 -121.5 222.5
t-257.5 76.5q-127 0 -223 -77t-135 -222zM692 1731l287 -291h-301l-309 291h323z" />
    <glyph glyph-name="eacute" unicode="&#xe9;" 
d="M1403 596v-49h-1008q25 -163 138.5 -260t281.5 -97q277 0 479 115v-242q-195 -100 -477 -100q-148 0 -276 51t-217.5 139t-140 210t-50.5 260q0 145 50 269.5t135.5 209.5t201 132.5t244.5 47.5q294 0 466.5 -176t172.5 -510zM406 758h737q-27 146 -121.5 222.5
t-257.5 76.5q-127 0 -223 -77t-135 -222zM553 1440l287 291h323l-309 -291h-301z" />
    <glyph glyph-name="ecircumflex" unicode="&#xea;" 
d="M1403 596v-49h-1008q25 -163 138.5 -260t281.5 -97q277 0 479 115v-242q-195 -100 -477 -100q-148 0 -276 51t-217.5 139t-140 210t-50.5 260q0 145 50 269.5t135.5 209.5t201 132.5t244.5 47.5q294 0 466.5 -176t172.5 -510zM406 758h737q-27 146 -121.5 222.5
t-257.5 76.5q-127 0 -223 -77t-135 -222zM948 1731l244 -291h-258l-176 178l-176 -178h-254l237 291h383z" />
    <glyph glyph-name="edieresis" unicode="&#xeb;" 
d="M1403 596v-49h-1008q25 -163 138.5 -260t281.5 -97q277 0 479 115v-242q-195 -100 -477 -100q-148 0 -276 51t-217.5 139t-140 210t-50.5 260q0 145 50 269.5t135.5 209.5t201 132.5t244.5 47.5q294 0 466.5 -176t172.5 -510zM406 758h737q-27 146 -121.5 222.5
t-257.5 76.5q-127 0 -223 -77t-135 -222zM633 1589q0 -62 -44.5 -105.5t-107.5 -43.5q-61 0 -105 44t-44 105q0 63 43.5 107.5t105.5 44.5q63 0 107.5 -44.5t44.5 -107.5zM1200 1589q0 -62 -44 -105.5t-107 -43.5q-62 0 -106 44t-44 105q0 63 44 107.5t106 44.5
q63 0 107 -44.5t44 -107.5z" />
    <glyph glyph-name="igrave" unicode="&#xec;" horiz-adv-x="655" 
d="M195 0v1243h266v-1243h-266zM346 1731l287 -291h-301l-309 291h323z" />
    <glyph glyph-name="iacute" unicode="&#xed;" horiz-adv-x="655" 
d="M195 0v1243h266v-1243h-266zM23 1440l286 291h324l-309 -291h-301z" />
    <glyph glyph-name="icircumflex" unicode="&#xee;" horiz-adv-x="655" 
d="M195 0v1243h266v-1243h-266zM516 1731l244 -291h-258l-176 178l-176 -178h-254l237 291h383z" />
    <glyph glyph-name="idieresis" unicode="&#xef;" horiz-adv-x="655" 
d="M195 0v1243h266v-1243h-266zM184 1589q0 -62 -44 -105.5t-107 -43.5q-62 0 -106 44t-44 105q0 63 44 107.5t106 44.5q63 0 107 -44.5t44 -107.5zM752 1589q0 -62 -44.5 -105.5t-107.5 -43.5q-62 0 -105.5 44t-43.5 105q0 63 43.5 107.5t105.5 44.5q63 0 107.5 -44.5
t44.5 -107.5z" />
    <glyph glyph-name="eth" unicode="&#xf0;" horiz-adv-x="1812" 
d="M1751 1587v-205h-227v-1382h-267v147q-75 -90 -190.5 -137t-241.5 -47q-314 0 -503 169.5t-189 463.5q0 188 86.5 328t243 214t362.5 74q135 0 253 -54.5t179 -131.5v356h-565v205h565v187h267v-187h227zM854 197q424 0 424 395q0 185 -114 286t-310 101
q-199 0 -321.5 -99.5t-122.5 -283.5q0 -193 122 -296t322 -103z" />
    <glyph glyph-name="ntilde" unicode="&#xf1;" horiz-adv-x="1581" 
d="M1397 0h-267v793q0 134 -59 195t-205 61q-195 0 -305 -90t-110 -248v-711h-267v1243h267v-149q73 94 186.5 141t228.5 47q255 0 393 -120.5t138 -338.5v-823zM655 1446h-209q0 70 24.5 123.5t64.5 83.5t86 44.5t96 14.5t97.5 -19.5t84 -39t57.5 -19.5q40 0 58.5 17
t21.5 55h209q0 -134 -75.5 -200t-200.5 -66q-50 0 -98 19.5t-84 39t-58 19.5q-68 0 -74 -72z" />
    <glyph glyph-name="ograve" unicode="&#xf2;" horiz-adv-x="1724" 
d="M862 1282q207 0 372.5 -80.5t261 -231.5t95.5 -347q0 -195 -95.5 -346t-261 -232.5t-372.5 -81.5q-208 0 -373.5 81.5t-260.5 232.5t-95 346q0 196 95 347t260.5 231.5t373.5 80.5zM862 197q198 0 325.5 115.5t127.5 310.5q0 197 -127.5 311.5t-325.5 114.5
q-199 0 -325.5 -114.5t-126.5 -311.5q0 -196 126.5 -311t325.5 -115zM836 1731l286 -291h-301l-309 291h324z" />
    <glyph glyph-name="oacute" unicode="&#xf3;" horiz-adv-x="1724" 
d="M862 1282q207 0 372.5 -80.5t261 -231.5t95.5 -347q0 -195 -95.5 -346t-261 -232.5t-372.5 -81.5q-208 0 -373.5 81.5t-260.5 232.5t-95 346q0 196 95 347t260.5 231.5t373.5 80.5zM862 197q198 0 325.5 115.5t127.5 310.5q0 197 -127.5 311.5t-325.5 114.5
q-199 0 -325.5 -114.5t-126.5 -311.5q0 -196 126.5 -311t325.5 -115zM602 1440l287 291h323l-309 -291h-301z" />
    <glyph glyph-name="ocircumflex" unicode="&#xf4;" horiz-adv-x="1724" 
d="M862 1282q207 0 372.5 -80.5t261 -231.5t95.5 -347q0 -195 -95.5 -346t-261 -232.5t-372.5 -81.5q-208 0 -373.5 81.5t-260.5 232.5t-95 346q0 196 95 347t260.5 231.5t373.5 80.5zM862 197q198 0 325.5 115.5t127.5 310.5q0 197 -127.5 311.5t-325.5 114.5
q-199 0 -325.5 -114.5t-126.5 -311.5q0 -196 126.5 -311t325.5 -115zM1055 1731l243 -291h-258l-176 178l-176 -178h-254l238 291h383z" />
    <glyph glyph-name="otilde" unicode="&#xf5;" horiz-adv-x="1724" 
d="M862 1282q207 0 372.5 -80.5t261 -231.5t95.5 -347q0 -195 -95.5 -346t-261 -232.5t-372.5 -81.5q-208 0 -373.5 81.5t-260.5 232.5t-95 346q0 196 95 347t260.5 231.5t373.5 80.5zM862 197q198 0 325.5 115.5t127.5 310.5q0 197 -127.5 311.5t-325.5 114.5
q-199 0 -325.5 -114.5t-126.5 -311.5q0 -196 126.5 -311t325.5 -115zM688 1446h-209q0 70 24.5 123.5t64.5 83.5t86 44.5t96 14.5t97.5 -19.5t84 -39t57.5 -19.5q40 0 58.5 17t21.5 55h209q0 -134 -76 -200t-201 -66q-50 0 -97.5 19.5t-83.5 39t-58 19.5q-68 0 -74 -72z" />
    <glyph glyph-name="odieresis" unicode="&#xf6;" horiz-adv-x="1724" 
d="M862 1282q207 0 372.5 -80.5t261 -231.5t95.5 -347q0 -195 -95.5 -346t-261 -232.5t-372.5 -81.5q-208 0 -373.5 81.5t-260.5 232.5t-95 346q0 196 95 347t260.5 231.5t373.5 80.5zM862 197q198 0 325.5 115.5t127.5 310.5q0 197 -127.5 311.5t-325.5 114.5
q-199 0 -325.5 -114.5t-126.5 -311.5q0 -196 126.5 -311t325.5 -115zM731 1589q0 -62 -44 -105.5t-107 -43.5q-62 0 -106 44t-44 105q0 63 44 107.5t106 44.5q63 0 107 -44.5t44 -107.5zM1298 1589q0 -62 -44 -105.5t-107 -43.5q-62 0 -106 44t-44 105q0 63 44 107.5
t106 44.5q63 0 107 -44.5t44 -107.5z" />
    <glyph glyph-name="divide" unicode="&#xf7;" horiz-adv-x="1249" 
d="M786 1186q0 -66 -47.5 -113t-113.5 -47t-113 47t-47 113t47 113t113 47t113.5 -47t47.5 -113zM786 362q0 -66 -47.5 -112.5t-113.5 -46.5t-113 46.5t-47 112.5t47 113t113 47t113.5 -47t47.5 -113zM1106 885v-219h-963v219h963z" />
    <glyph glyph-name="oslash" unicode="&#xf8;" horiz-adv-x="1724" 
d="M1409 1077q182 -182 182 -454q0 -196 -95 -347t-260.5 -232t-373.5 -81q-214 0 -389 90l-176 -192l-143 131l161 176q-182 179 -182 455q0 195 95 346t260.5 232t373.5 81q211 0 389 -90l174 192l144 -131zM410 623q0 -155 82 -263l587 644q-98 45 -217 45
q-199 0 -325.5 -115t-126.5 -311zM862 197q198 0 325.5 114.5t127.5 311.5q0 151 -82 260l-588 -641q98 -45 217 -45z" />
    <glyph glyph-name="ugrave" unicode="&#xf9;" horiz-adv-x="1564" 
d="M1114 1243h266v-754q0 -250 -157 -388t-441 -138q-283 0 -440.5 138t-157.5 388v754h267v-745q0 -301 331 -301q169 0 250.5 78t81.5 223v745zM625 1731l286 -291h-301l-309 291h324z" />
    <glyph glyph-name="uacute" unicode="&#xfa;" horiz-adv-x="1564" 
d="M1114 1243h266v-754q0 -250 -157 -388t-441 -138q-283 0 -440.5 138t-157.5 388v754h267v-745q0 -301 331 -301q169 0 250.5 78t81.5 223v745zM610 1440l287 291h324l-310 -291h-301z" />
    <glyph glyph-name="ucircumflex" unicode="&#xfb;" horiz-adv-x="1564" 
d="M1114 1243h266v-754q0 -250 -157 -388t-441 -138q-283 0 -440.5 138t-157.5 388v754h267v-745q0 -301 331 -301q169 0 250.5 78t81.5 223v745zM975 1731l244 -291h-258l-177 178l-176 -178h-254l238 291h383z" />
    <glyph glyph-name="udieresis" unicode="&#xfc;" horiz-adv-x="1564" 
d="M1114 1243h266v-754q0 -250 -157 -388t-441 -138q-283 0 -440.5 138t-157.5 388v754h267v-745q0 -301 331 -301q169 0 250.5 78t81.5 223v745zM649 1589q0 -62 -44 -105.5t-107 -43.5q-62 0 -106 44t-44 105q0 63 44 107.5t106 44.5q63 0 107 -44.5t44 -107.5zM1217 1589
q0 -62 -44.5 -105.5t-107.5 -43.5q-62 0 -106 44t-44 105q0 63 44 107.5t106 44.5q63 0 107.5 -44.5t44.5 -107.5z" />
    <glyph glyph-name="yacute" unicode="&#xfd;" horiz-adv-x="1538" 
d="M1194 1243h285l-801 -1735h-285l314 666h-132l-516 1069h295l426 -909zM565 1440l287 291h324l-310 -291h-301z" />
    <glyph glyph-name="thorn" unicode="&#xfe;" horiz-adv-x="1708" 
d="M883 1282q316 0 504 -179t188 -480q0 -295 -192.5 -477.5t-499.5 -182.5q-125 0 -240 46.5t-192 135.5v-637h-267v2266h267v-676q76 90 191 136t241 48zM854 197q191 0 317.5 116.5t126.5 309.5q0 199 -122 312.5t-322 113.5q-424 0 -424 -426t424 -426z" />
    <glyph glyph-name="ydieresis" unicode="&#xff;" horiz-adv-x="1538" 
d="M1194 1243h285l-801 -1735h-285l314 666h-132l-516 1069h295l426 -909zM647 1589q0 -62 -44 -105.5t-107 -43.5q-62 0 -106 44t-44 105q0 63 44 107.5t106 44.5q63 0 107 -44.5t44 -107.5zM1214 1589q0 -62 -44 -105.5t-107 -43.5q-62 0 -106 44t-44 105q0 63 44 107.5
t106 44.5q63 0 107 -44.5t44 -107.5z" />
    <glyph glyph-name="Amacron" unicode="&#x100;" horiz-adv-x="1910" 
d="M508 342l-148 -342h-294l679 1532h416l684 -1532h-299l-149 342h-889zM608 578h688l-344 778zM545 1716v185h817v-185h-817z" />
    <glyph glyph-name="amacron" unicode="&#x101;" horiz-adv-x="1490" 
d="M1399 209q13 0 31 6v-227q-41 -13 -84 -13q-100 0 -175.5 47.5t-117.5 120.5q-56 -74 -159 -127t-232 -53q-239 0 -384 117.5t-145 318.5q0 90 43.5 170.5t114 135t160.5 86.5t182 32q84 0 164 -24t135.5 -48t79.5 -24v90q0 115 -95 176.5t-245 61.5q-151 0 -256 -33.5
t-203 -103.5v247q182 117 446 117q273 0 444 -125.5t171 -314.5v-533q0 -100 125 -100zM1012 434v86q-28 0 -87.5 22.5t-136 45t-145.5 22.5q-103 0 -170 -58.5t-67 -152.5q0 -103 73 -160t209 -57q137 0 230.5 68t93.5 184zM287 1440v184h817v-184h-817z" />
    <glyph glyph-name="Abreve" unicode="&#x102;" horiz-adv-x="1910" 
d="M508 342l-148 -342h-294l679 1532h416l684 -1532h-299l-149 342h-889zM608 578h688l-344 778zM952 1716q-309 0 -393 279h248q19 -36 61.5 -55t83.5 -19t84 19.5t62 54.5h250q-84 -279 -396 -279z" />
    <glyph glyph-name="abreve" unicode="&#x103;" horiz-adv-x="1490" 
d="M1399 209q13 0 31 6v-227q-41 -13 -84 -13q-100 0 -175.5 47.5t-117.5 120.5q-56 -74 -159 -127t-232 -53q-239 0 -384 117.5t-145 318.5q0 90 43.5 170.5t114 135t160.5 86.5t182 32q84 0 164 -24t135.5 -48t79.5 -24v90q0 115 -95 176.5t-245 61.5q-151 0 -256 -33.5
t-203 -103.5v247q182 117 446 117q273 0 444 -125.5t171 -314.5v-533q0 -100 125 -100zM1012 434v86q-28 0 -87.5 22.5t-136 45t-145.5 22.5q-103 0 -170 -58.5t-67 -152.5q0 -103 73 -160t209 -57q137 0 230.5 68t93.5 184zM670 1440q-311 0 -394 278h248q19 -35 61.5 -54
t84.5 -19t84 19t61 54h250q-83 -278 -395 -278z" />
    <glyph glyph-name="Aogonek" unicode="&#x104;" horiz-adv-x="1910" 
d="M1544 -229q0 -49 29.5 -72t66.5 -23q35 0 80.5 11.5t79.5 33.5v-182q-66 -31 -168 -31q-129 0 -203.5 63.5t-74.5 192.5q0 76 58.5 146t127.5 106l-143 326h-889l-148 -342h-294l679 1532h416l684 -1532h-125q-77 -54 -126.5 -116t-49.5 -113zM608 578h688l-344 778z" />
    <glyph glyph-name="aogonek" unicode="&#x105;" horiz-adv-x="1490" 
d="M1307 -23q-60 -48 -96.5 -100t-36.5 -96q0 -49 29.5 -71.5t66.5 -22.5q93 0 160 45v-183q-64 -30 -168 -30q-129 0 -204 63.5t-75 192.5q0 74 58 143.5t126 106.5q-71 46 -114 118q-56 -74 -159 -127t-232 -53q-239 0 -384 117.5t-145 318.5q0 90 43.5 170.5t114 135
t160.5 86.5t182 32q84 0 164 -24t135.5 -48t79.5 -24v90q0 115 -95 176.5t-245 61.5q-151 0 -256 -33.5t-203 -103.5v247q182 117 446 117q273 0 444 -125.5t171 -314.5v-533q0 -100 125 -100q13 0 31 6v-227q-41 -13 -84 -13q-27 0 -39 2zM1012 434v86q-28 0 -87.5 22.5
t-136 45t-145.5 22.5q-103 0 -170 -58.5t-67 -152.5q0 -103 73 -160t209 -57q137 0 230.5 68t93.5 184z" />
    <glyph glyph-name="Cacute" unicode="&#x106;" horiz-adv-x="1615" 
d="M1010 1569q135 0 252 -32t200 -87v-274q-81 62 -202.5 101.5t-249.5 39.5q-165 0 -293 -63.5t-202.5 -189.5t-74.5 -298q0 -167 76.5 -294t205.5 -192t288 -65q239 0 452 139v-276q-92 -57 -211.5 -86t-240.5 -29q-184 0 -342 58.5t-271.5 162.5t-178 254.5t-64.5 327.5
q0 245 107.5 428t301 279t447.5 96zM762 1716l287 291h323l-309 -291h-301z" />
    <glyph glyph-name="cacute" unicode="&#x107;" horiz-adv-x="1411" 
d="M868 1282q119 0 228.5 -28t181.5 -72v-252q-72 52 -183 85.5t-227 33.5q-205 0 -331.5 -111.5t-126.5 -314.5q0 -200 128.5 -313t329.5 -113q220 0 410 118v-254q-82 -46 -192.5 -72t-217.5 -26q-214 0 -381.5 82.5t-260.5 233t-93 344.5q0 307 200 483t535 176z
M551 1440l287 291h323l-309 -291h-301z" />
    <glyph glyph-name="Ccaron" unicode="&#x10c;" horiz-adv-x="1615" 
d="M1010 1569q135 0 252 -32t200 -87v-274q-81 62 -202.5 101.5t-249.5 39.5q-165 0 -293 -63.5t-202.5 -189.5t-74.5 -298q0 -167 76.5 -294t205.5 -192t288 -65q239 0 452 139v-276q-92 -57 -211.5 -86t-240.5 -29q-184 0 -342 58.5t-271.5 162.5t-178 254.5t-64.5 327.5
q0 245 107.5 428t301 279t447.5 96zM1434 2007l-244 -291h-383l-238 291h254l176 -178l177 178h258z" />
    <glyph glyph-name="ccaron" unicode="&#x10d;" horiz-adv-x="1411" 
d="M868 1282q119 0 228.5 -28t181.5 -72v-252q-72 52 -183 85.5t-227 33.5q-205 0 -331.5 -111.5t-126.5 -314.5q0 -200 128.5 -313t329.5 -113q220 0 410 118v-254q-82 -46 -192.5 -72t-217.5 -26q-214 0 -381.5 82.5t-260.5 233t-93 344.5q0 307 200 483t535 176z
M1284 1731l-244 -291h-383l-237 291h254l176 -179l176 179h258z" />
    <glyph glyph-name="Dcaron" unicode="&#x10e;" horiz-adv-x="1787" 
d="M788 1532q198 0 359 -58.5t267 -161.5t163 -241.5t57 -300.5q-1 -162 -58.5 -301.5t-165 -244.5t-273.5 -164.5t-371 -59.5h-561v1532h583zM764 240q274 0 429 143t155 389q0 245 -155.5 382.5t-434.5 137.5h-277v-1052h283zM1163 2007l-243 -291h-383l-238 291h254
l176 -178l176 178h258z" />
    <glyph glyph-name="dcaron" unicode="&#x10f;" horiz-adv-x="2109" 
d="M2109 1774l-243 -326h-211l176 326h278zM133 621q0 299 190.5 480t501.5 181q123 0 239.5 -48.5t192.5 -135.5v676h267v-1774h-267v145q-75 -90 -190.5 -136t-241.5 -46q-311 0 -501.5 180.5t-190.5 477.5zM410 621q0 -196 124 -310t320 -114q424 0 424 424
q0 428 -424 428q-196 0 -320 -115.5t-124 -312.5z" />
    <glyph glyph-name="Dcroat" unicode="&#x110;" horiz-adv-x="1871" 
d="M874 1532q198 0 358.5 -58.5t266 -161.5t162.5 -241.5t57 -300.5t-57.5 -301.5t-164.5 -244.5t-273.5 -164.5t-372.5 -59.5h-559v692h-250v236h250v604h583zM848 240q275 0 429.5 143t154.5 389q0 245 -154.5 382.5t-433.5 137.5h-277v-364h383v-236h-383v-452h281z" />
    <glyph glyph-name="dcroat" unicode="&#x111;" horiz-adv-x="1802" 
d="M1751 1587v-205h-227v-1382h-267v147q-75 -90 -190.5 -137t-241.5 -47q-314 0 -503 169.5t-189 463.5q0 188 86.5 328t243 214t362.5 74q135 0 253 -54.5t179 -131.5v356h-565v205h565v187h267v-187h227zM854 197q424 0 424 395q0 185 -114 286t-310 101
q-199 0 -321.5 -99.5t-122.5 -283.5q0 -193 122 -296t322 -103z" />
    <glyph glyph-name="Emacron" unicode="&#x112;" horiz-adv-x="1511" 
d="M481 240h877v-240h-1153v1532h1141v-240h-865v-364h828v-236h-828v-452zM381 1716v185h817v-185h-817z" />
    <glyph glyph-name="emacron" unicode="&#x113;" 
d="M1403 596v-49h-1008q25 -163 138.5 -260t281.5 -97q277 0 479 115v-242q-195 -100 -477 -100q-148 0 -276 51t-217.5 139t-140 210t-50.5 260q0 145 50 269.5t135.5 209.5t201 132.5t244.5 47.5q294 0 466.5 -176t172.5 -510zM406 758h737q-27 146 -121.5 222.5
t-257.5 76.5q-127 0 -223 -77t-135 -222zM367 1440v184h817v-184h-817z" />
    <glyph glyph-name="Edotaccent" unicode="&#x116;" horiz-adv-x="1511" 
d="M481 240h877v-240h-1153v1532h1141v-240h-865v-364h828v-236h-828v-452zM1006 1876q0 -66 -47.5 -113t-114.5 -47q-66 0 -113 47t-47 113q0 67 47 114.5t113 47.5q68 0 115 -47t47 -115z" />
    <glyph glyph-name="edotaccent" unicode="&#x117;" 
d="M1403 596v-49h-1008q25 -163 138.5 -260t281.5 -97q277 0 479 115v-242q-195 -100 -477 -100q-148 0 -276 51t-217.5 139t-140 210t-50.5 260q0 145 50 269.5t135.5 209.5t201 132.5t244.5 47.5q294 0 466.5 -176t172.5 -510zM406 758h737q-27 146 -121.5 222.5
t-257.5 76.5q-127 0 -223 -77t-135 -222zM932 1599q0 -66 -47.5 -112.5t-114.5 -46.5q-66 0 -113 46.5t-47 112.5q0 67 47 114.5t113 47.5q68 0 115 -47.5t47 -114.5z" />
    <glyph glyph-name="Eogonek" unicode="&#x118;" horiz-adv-x="1511" 
d="M1276 0q-76 -54 -125 -115.5t-49 -113.5q0 -49 29.5 -72t66.5 -23q35 0 80.5 11.5t79.5 33.5v-182q-66 -31 -168 -31q-129 0 -204 63.5t-75 192.5q0 68 48 131.5t112 104.5h-866v1532h1141v-240h-865v-364h828v-236h-828v-452h877v-240h-82z" />
    <glyph glyph-name="eogonek" unicode="&#x119;" horiz-adv-x="1529" 
d="M1397 596v-49h-1002q25 -163 138.5 -260t281.5 -97q130 0 243.5 23.5t223.5 89.5v-242q-75 -34 -108 -45q-80 -57 -131.5 -120t-51.5 -115q0 -49 29.5 -71.5t66.5 -22.5q93 0 160 45v-183q-64 -30 -168 -30q-129 0 -203.5 63.5t-74.5 192.5q0 97 102 192q-62 -4 -86 -4
q-148 0 -276 51t-217.5 139t-140 210t-50.5 260q0 145 50 269.5t135.5 209.5t201 132.5t244.5 47.5q293 0 463 -175.5t170 -510.5zM406 758h731q-54 299 -373 299q-127 0 -223 -77t-135 -222z" />
    <glyph glyph-name="Ecaron" unicode="&#x11a;" horiz-adv-x="1511" 
d="M481 240h877v-240h-1153v1532h1141v-240h-865v-364h828v-236h-828v-452zM1233 2007l-244 -291h-383l-237 291h254l176 -178l176 178h258z" />
    <glyph glyph-name="ecaron" unicode="&#x11b;" 
d="M1403 596v-49h-1008q25 -163 138.5 -260t281.5 -97q277 0 479 115v-242q-195 -100 -477 -100q-148 0 -276 51t-217.5 139t-140 210t-50.5 260q0 145 50 269.5t135.5 209.5t201 132.5t244.5 47.5q294 0 466.5 -176t172.5 -510zM406 758h737q-27 146 -121.5 222.5
t-257.5 76.5q-127 0 -223 -77t-135 -222zM1208 1731l-243 -291h-383l-238 291h254l176 -179l176 179h258z" />
    <glyph glyph-name="Gbreve" unicode="&#x11e;" horiz-adv-x="1708" 
d="M1274 784h270v-688q-105 -62 -255.5 -97.5t-291.5 -35.5q-182 0 -338 58.5t-267.5 162.5t-174.5 254t-63 328q0 245 108.5 428t303 279t448.5 96q271 0 469 -117v-276q-94 68 -217.5 104.5t-251.5 36.5q-165 0 -294 -63.5t-204.5 -189.5t-75.5 -298q0 -167 75.5 -294
t201 -192t280.5 -65q70 0 150 15.5t127 33.5v520zM1001 1716q-309 0 -393 279h248q19 -36 61.5 -55t83.5 -19t84 19.5t62 54.5h250q-84 -279 -396 -279z" />
    <glyph glyph-name="gbreve" unicode="&#x11f;" horiz-adv-x="1710" 
d="M1260 1243h266v-1071q0 -333 -174 -516.5t-529 -183.5q-195 0 -319 29t-244 89v265q132 -77 257.5 -111.5t287.5 -34.5q237 0 346 102t109 318v47q-78 -88 -193 -132t-240 -44q-201 0 -358 76t-246.5 218.5t-89.5 328.5q0 301 188.5 480t505.5 179q121 0 238 -48.5
t195 -135.5v145zM856 229q199 0 310.5 102.5t111.5 291.5q0 426 -422 426q-200 0 -323 -113.5t-123 -312.5q0 -120 62 -211t162.5 -137t221.5 -46zM836 1440q-311 0 -394 278h248q19 -35 61.5 -54t84.5 -19t84 19t61 54h250q-83 -278 -395 -278z" />
    <glyph glyph-name="Gcommaaccent" unicode="&#x122;" horiz-adv-x="1708" 
d="M1114 -137l-285 -355h-215l236 355h264zM1274 784h270v-688q-105 -62 -255.5 -97.5t-291.5 -35.5q-182 0 -338 58.5t-267.5 162.5t-174.5 254t-63 328q0 245 108.5 428t303 279t448.5 96q271 0 469 -117v-276q-94 68 -217.5 104.5t-251.5 36.5q-165 0 -294 -63.5
t-204.5 -189.5t-75.5 -298q0 -167 75.5 -294t201 -192t280.5 -65q70 0 150 15.5t127 33.5v520z" />
    <glyph glyph-name="gcommaaccent" unicode="&#x123;" horiz-adv-x="1710" 
d="M713 1440l284 354h215l-235 -354h-264zM1260 1243h266v-1071q0 -333 -174 -516.5t-529 -183.5q-195 0 -319 29t-244 89v265q132 -77 257.5 -111.5t287.5 -34.5q237 0 346 102t109 318v47q-78 -88 -193 -132t-240 -44q-201 0 -358 76t-246.5 218.5t-89.5 328.5
q0 301 188.5 480t505.5 179q121 0 238 -48.5t195 -135.5v145zM856 229q199 0 310.5 102.5t111.5 291.5q0 426 -422 426q-200 0 -323 -113.5t-123 -312.5q0 -120 62 -211t162.5 -137t221.5 -46z" />
    <glyph glyph-name="Imacron" unicode="&#x12a;" horiz-adv-x="706" 
d="M215 1532h277v-1532h-277v1532zM-55 1716v185h817v-185h-817z" />
    <glyph glyph-name="imacron" unicode="&#x12b;" horiz-adv-x="655" 
d="M195 0v1243h266v-1243h-266zM-80 1440v184h817v-184h-817z" />
    <glyph glyph-name="Iogonek" unicode="&#x12e;" horiz-adv-x="706" 
d="M340 -324q35 0 80.5 11.5t79.5 33.5v-182q-66 -31 -168 -31q-129 0 -204 63.5t-75 192.5q0 67 49 131t113 105v1532h277v-1532h-74q-76 -54 -125 -115.5t-49 -113.5q0 -49 29.5 -72t66.5 -23z" />
    <glyph glyph-name="iogonek" unicode="&#x12f;" horiz-adv-x="655" 
d="M328 1440q-67 0 -114.5 46.5t-47.5 112.5q0 67 47 114.5t115 47.5q66 0 112.5 -47.5t46.5 -114.5q0 -66 -46.5 -112.5t-112.5 -46.5zM315 -313q93 0 160 45v-183q-64 -30 -168 -30q-129 0 -203.5 63.5t-74.5 192.5q0 69 50.5 134.5t115.5 104.5v1229h266v-1243h-80
q-71 -52 -116.5 -111t-45.5 -108t29.5 -71.5t66.5 -22.5z" />
    <glyph glyph-name="Idotaccent" unicode="&#x130;" horiz-adv-x="706" 
d="M215 1532h277v-1532h-277v1532zM514 1876q0 -66 -47.5 -113t-114.5 -47q-66 0 -112.5 47t-46.5 113q0 67 46.5 114.5t112.5 47.5q68 0 115 -47t47 -115z" />
    <glyph glyph-name="dotlessi" unicode="&#x131;" horiz-adv-x="655" 
d="M195 0v1243h266v-1243h-266z" />
    <glyph glyph-name="Kcommaaccent" unicode="&#x136;" horiz-adv-x="1718" 
d="M967 -137l-285 -355h-215l235 355h265zM1628 1532l-694 -539l715 -993h-336l-584 836l-248 -195v-641h-276v1532h276v-582l746 582h401z" />
    <glyph glyph-name="kcommaaccent" unicode="&#x137;" horiz-adv-x="1492" 
d="M899 -137l-285 -355h-215l236 355h264zM827 825l596 -825h-325l-471 680l-176 -129v-551h-267v1774h267v-951l567 420h379z" />
    <glyph glyph-name="Lacute" unicode="&#x139;" horiz-adv-x="1349" 
d="M481 246h807v-246h-1083v1532h276v-1286zM475 1716l287 291h323l-309 -291h-301z" />
    <glyph glyph-name="lacute" unicode="&#x13a;" horiz-adv-x="655" 
d="M195 1774h266v-1774h-266v1774zM23 1948l286 290h324l-309 -290h-301z" />
    <glyph glyph-name="Lcommaaccent" unicode="&#x13b;" horiz-adv-x="1349" 
d="M1006 -137l-285 -355h-215l235 355h265zM481 246h807v-246h-1083v1532h276v-1286z" />
    <glyph glyph-name="lcommaaccent" unicode="&#x13c;" horiz-adv-x="655" 
d="M514 -137l-285 -355h-215l236 355h264zM195 1774h266v-1774h-266v1774z" />
    <glyph glyph-name="Lcaron" unicode="&#x13d;" horiz-adv-x="1349" 
d="M1225 1532l-244 -326h-211l176 326h279zM481 246h807v-246h-1083v1532h276v-1286z" />
    <glyph glyph-name="lcaron" unicode="&#x13e;" horiz-adv-x="1042" 
d="M1044 1774l-243 -326h-211l176 326h278zM195 1774h266v-1774h-266v1774z" />
    <glyph glyph-name="Lslash" unicode="&#x141;" horiz-adv-x="1425" 
d="M557 246h807v-246h-1083v651l-250 -88v250l250 86v633h276v-537l438 154v-250l-438 -151v-502z" />
    <glyph glyph-name="lslash" unicode="&#x142;" horiz-adv-x="884" 
d="M834 1253v-227l-259 -90v-936h-266v842l-258 -92v227l258 90v707h266v-611z" />
    <glyph glyph-name="Nacute" unicode="&#x143;" horiz-adv-x="1859" 
d="M1384 1532h271v-1532h-471l-709 1352v-1352h-270v1532h467l712 -1354v1354zM801 1716l286 291h324l-309 -291h-301z" />
    <glyph glyph-name="nacute" unicode="&#x144;" horiz-adv-x="1581" 
d="M1397 0h-267v793q0 134 -59 195t-205 61q-195 0 -305 -90t-110 -248v-711h-267v1243h267v-149q73 94 186.5 141t228.5 47q255 0 393 -120.5t138 -338.5v-823zM627 1440l286 291h324l-309 -291h-301z" />
    <glyph glyph-name="Ncommaaccent" unicode="&#x145;" horiz-adv-x="1859" 
d="M973 -137l-285 -355h-215l236 355h264zM1384 1532h271v-1532h-471l-709 1352v-1352h-270v1532h467l712 -1354v1354z" />
    <glyph glyph-name="ncommaaccent" unicode="&#x146;" horiz-adv-x="1581" 
d="M985 -137l-285 -355h-215l236 355h264zM1397 0h-267v793q0 134 -59 195t-205 61q-195 0 -305 -90t-110 -248v-711h-267v1243h267v-149q73 94 186.5 141t228.5 47q255 0 393 -120.5t138 -338.5v-823z" />
    <glyph glyph-name="Ncaron" unicode="&#x147;" horiz-adv-x="1859" 
d="M1384 1532h271v-1532h-471l-709 1352v-1352h-270v1532h467l712 -1354v1354zM1399 2007l-244 -291h-383l-237 291h253l177 -178l176 178h258z" />
    <glyph glyph-name="ncaron" unicode="&#x148;" horiz-adv-x="1581" 
d="M1397 0h-267v793q0 134 -59 195t-205 61q-195 0 -305 -90t-110 -248v-711h-267v1243h267v-149q73 94 186.5 141t228.5 47q255 0 393 -120.5t138 -338.5v-823zM1282 1731l-244 -291h-383l-237 291h254l176 -179l176 179h258z" />
    <glyph glyph-name="Ohungarumlaut" unicode="&#x150;" horiz-adv-x="2033" 
d="M1016 -37q-254 0 -449.5 99t-304 282t-108.5 422t108.5 421.5t304 282t449.5 99.5q255 0 451 -99.5t304.5 -282t108.5 -421.5q0 -240 -108.5 -422.5t-304.5 -281.5t-451 -99zM1016 1317q-254 0 -415 -149t-161 -402q0 -169 75 -295.5t204.5 -191t296.5 -64.5t297 65
t205 191t75 295q0 127 -43 231t-120 174t-183 108t-231 38zM1135 1716l286 291h324l-309 -291h-301zM584 1716l286 291h324l-309 -291h-301z" />
    <glyph glyph-name="ohungarumlaut" unicode="&#x151;" horiz-adv-x="1724" 
d="M862 1282q207 0 372.5 -80.5t261 -231.5t95.5 -347q0 -195 -95.5 -346t-261 -232.5t-372.5 -81.5q-208 0 -373.5 81.5t-260.5 232.5t-95 346q0 196 95 347t260.5 231.5t373.5 80.5zM862 197q198 0 325.5 115.5t127.5 310.5q0 197 -127.5 311.5t-325.5 114.5
q-199 0 -325.5 -114.5t-126.5 -311.5q0 -196 126.5 -311t325.5 -115zM946 1440l287 291h323l-309 -291h-301zM395 1440l287 291h324l-310 -291h-301z" />
    <glyph glyph-name="OE" unicode="&#x152;" horiz-adv-x="2506" 
d="M2353 240v-240h-1059q-124 -37 -278 -37q-254 0 -449.5 99t-304 282t-108.5 422t108.5 421.5t304 282t449.5 99.5q154 0 278 -37h1047v-240h-791v-364h754v-236h-754v-452h803zM440 766q0 -169 75 -295.5t204.5 -191t296.5 -64.5q148 0 258 55v992q-104 55 -258 55
q-254 0 -415 -149t-161 -402z" />
    <glyph glyph-name="oe" unicode="&#x153;" horiz-adv-x="2678" 
d="M2546 594v-49h-1002q13 -157 131.5 -256t288.5 -99q130 0 243.5 23.5t223.5 89.5v-244q-188 -96 -465 -96q-169 0 -311 67t-230 183q-89 -120 -237.5 -185t-329.5 -65q-208 0 -372.5 82t-258.5 233t-94 345q0 196 95 347t260.5 231.5t373.5 80.5q175 0 322 -64.5
t235 -179.5q78 113 211 178.5t283 65.5q293 0 463 -176.5t170 -511.5zM852 190q205 0 326.5 117t121.5 316q0 200 -118.5 316t-319.5 116q-200 0 -326 -117t-126 -315q0 -197 122.5 -315t319.5 -118zM1554 756h732q-54 299 -373 299q-131 0 -232 -77t-127 -222z" />
    <glyph glyph-name="Racute" unicode="&#x154;" horiz-adv-x="1570" 
d="M1106 666l430 -666h-324l-378 610h-353v-610h-276v1532h672q218 0 363.5 -131t145.5 -326q0 -138 -78 -245t-202 -164zM821 844q75 0 138 22.5t106 73.5t43 123q0 113 -66 170t-178 57h-383v-446h340zM489 1716l287 291h324l-309 -291h-302z" />
    <glyph glyph-name="racute" unicode="&#x155;" horiz-adv-x="1112" 
d="M840 1282q114 0 200 -39v-258q-89 51 -202 51q-191 0 -289 -99t-98 -275v-662h-267v1243h267v-174q61 100 169.5 156.5t219.5 56.5zM434 1440l287 291h323l-309 -291h-301z" />
    <glyph glyph-name="Rcaron" unicode="&#x158;" horiz-adv-x="1570" 
d="M1106 666l430 -666h-324l-378 610h-353v-610h-276v1532h672q218 0 363.5 -131t145.5 -326q0 -138 -78 -245t-202 -164zM821 844q75 0 138 22.5t106 73.5t43 123q0 113 -66 170t-178 57h-383v-446h340zM1188 2007l-244 -291h-383l-237 291h254l176 -178l176 178h258z" />
    <glyph glyph-name="rcaron" unicode="&#x159;" horiz-adv-x="1112" 
d="M840 1282q114 0 200 -39v-258q-89 51 -202 51q-191 0 -289 -99t-98 -275v-662h-267v1243h267v-174q61 100 169.5 156.5t219.5 56.5zM1112 1731l-244 -291h-383l-237 291h254l176 -179l176 179h258z" />
    <glyph glyph-name="Sacute" unicode="&#x15a;" 
d="M850 918q89 -29 155.5 -56t142 -72.5t123 -96.5t79.5 -126.5t32 -165.5q0 -438 -669 -438q-338 0 -559 123v268q217 -143 559 -143q208 0 299.5 49.5t91.5 142.5q0 44 -21.5 81t-55 64.5t-92.5 55t-116.5 47t-144.5 45.5q-61 18 -106 33t-101.5 39t-97 48.5t-82 60
t-67 75.5t-42 93t-16.5 114q0 195 170 302.5t485 107.5q302 0 504 -117v-278q-91 67 -222.5 107t-277.5 40q-77 0 -144 -9.5t-121 -28.5t-85 -51t-31 -73q0 -21 4.5 -39t16.5 -33.5t24 -27.5t37 -25t44 -21.5t57.5 -21.5t64.5 -21.5t77 -24.5t85 -27zM604 1716l287 291h323
l-309 -291h-301z" />
    <glyph glyph-name="sacute" unicode="&#x15b;" horiz-adv-x="1349" 
d="M741 752q182 -56 256 -93q172 -87 209 -237q11 -45 11 -98q0 -176 -147.5 -268.5t-444.5 -92.5q-286 0 -482 100v248q217 -123 482 -123q172 0 245.5 33.5t73.5 102.5q0 33 -17 59.5t-42.5 46t-76 39.5t-95.5 34.5t-123 35.5q-71 20 -127 41t-118 55.5t-103 75.5t-68 101
t-27 132q0 160 147.5 249t418.5 89q274 0 446 -96v-250q-78 56 -192.5 88.5t-249.5 32.5t-216 -28t-81 -85q0 -60 66.5 -97t254.5 -95zM483 1440l287 291h324l-310 -291h-301z" />
    <glyph glyph-name="Scedilla" unicode="&#x15e;" 
d="M1382 401q0 -407 -583 -436v-100q97 -11 160 -63.5t63 -129.5q0 -128 -75 -178.5t-228 -50.5q-80 0 -141 18v166q56 -24 127 -24q137 0 137 65q0 51 -51.5 71.5t-145.5 20.5v205q-293 10 -491 121v268q217 -143 559 -143q208 0 299.5 49.5t91.5 142.5q0 44 -21.5 81
t-55 64.5t-92.5 55t-116.5 47t-144.5 45.5q-61 18 -106 33t-101.5 39t-97 48.5t-82 60t-67 75.5t-42 93t-16.5 114q0 195 170 302.5t485 107.5q302 0 504 -117v-278q-91 67 -222.5 107t-277.5 40q-77 0 -144 -9.5t-121 -28.5t-85 -51t-31 -73q0 -21 4.5 -39t16.5 -33.5
t24 -27.5t37 -25t44 -21.5t57.5 -21.5t64.5 -21.5t77 -24.5t85 -27q89 -29 155.5 -56t142 -72.5t123 -96.5t79.5 -126.5t32 -165.5z" />
    <glyph glyph-name="scedilla" unicode="&#x15f;" horiz-adv-x="1349" 
d="M1217 324q0 -165 -130.5 -257t-392.5 -102v-100q97 -11 160.5 -63.5t63.5 -129.5q0 -128 -75 -178.5t-229 -50.5q-80 0 -141 18v166q55 -24 127 -24q137 0 137 65q0 51 -51 71.5t-145 20.5v207q-235 13 -398 96v248q217 -123 482 -123q172 0 245.5 33.5t73.5 102.5
q0 33 -17 59.5t-42.5 46t-76 39.5t-95.5 34.5t-123 35.5q-71 20 -127 41t-118 55.5t-103 75.5t-68 101t-27 132q0 160 147.5 249t418.5 89q274 0 446 -96v-250q-78 56 -192.5 88.5t-249.5 32.5t-216 -28t-81 -85q0 -60 66.5 -97t254.5 -95q182 -56 256 -93q172 -87 209 -237
q11 -45 11 -98z" />
    <glyph glyph-name="Scaron" unicode="&#x160;" 
d="M850 918q89 -29 155.5 -56t142 -72.5t123 -96.5t79.5 -126.5t32 -165.5q0 -438 -669 -438q-338 0 -559 123v268q217 -143 559 -143q208 0 299.5 49.5t91.5 142.5q0 44 -21.5 81t-55 64.5t-92.5 55t-116.5 47t-144.5 45.5q-61 18 -106 33t-101.5 39t-97 48.5t-82 60
t-67 75.5t-42 93t-16.5 114q0 195 170 302.5t485 107.5q302 0 504 -117v-278q-91 67 -222.5 107t-277.5 40q-77 0 -144 -9.5t-121 -28.5t-85 -51t-31 -73q0 -21 4.5 -39t16.5 -33.5t24 -27.5t37 -25t44 -21.5t57.5 -21.5t64.5 -21.5t77 -24.5t85 -27zM1243 2007l-244 -291
h-383l-237 291h254l176 -178l176 178h258z" />
    <glyph glyph-name="scaron" unicode="&#x161;" horiz-adv-x="1349" 
d="M741 752q182 -56 256 -93q172 -87 209 -237q11 -45 11 -98q0 -176 -147.5 -268.5t-444.5 -92.5q-286 0 -482 100v248q217 -123 482 -123q172 0 245.5 33.5t73.5 102.5q0 33 -17 59.5t-42.5 46t-76 39.5t-95.5 34.5t-123 35.5q-71 20 -127 41t-118 55.5t-103 75.5t-68 101
t-27 132q0 160 147.5 249t418.5 89q274 0 446 -96v-250q-78 56 -192.5 88.5t-249.5 32.5t-216 -28t-81 -85q0 -60 66.5 -97t254.5 -95zM1126 1731l-243 -291h-383l-238 291h254l176 -179l176 179h258z" />
    <glyph glyph-name="Tcommaaccent" unicode="&#x162;" horiz-adv-x="1517" 
d="M897 -137l-285 -355h-215l236 355h264zM61 1532h1395v-246h-559v-1286h-276v1286h-560v246z" />
    <glyph glyph-name="tcommaaccent" unicode="&#x163;" horiz-adv-x="1163" 
d="M864 -137l-284 -355h-215l235 355h264zM776 197q165 0 316 100v-258q-78 -39 -153 -57.5t-187 -18.5q-443 0 -443 453v598h-248v229h248v289h266v-289h441v-229h-441v-611q0 -206 201 -206z" />
    <glyph glyph-name="Tcaron" unicode="&#x164;" horiz-adv-x="1517" 
d="M61 1532h1395v-246h-559v-1286h-276v1286h-560v246zM1190 2007l-244 -291h-383l-237 291h254l176 -178l176 178h258z" />
    <glyph glyph-name="tcaron" unicode="&#x165;" horiz-adv-x="1263" 
d="M1257 1774l-243 -326h-211l176 326h278zM776 197q165 0 316 100v-258q-78 -39 -153 -57.5t-187 -18.5q-443 0 -443 453v598h-248v229h248v289h266v-289h441v-229h-441v-611q0 -206 201 -206z" />
    <glyph glyph-name="Umacron" unicode="&#x16a;" horiz-adv-x="1789" 
d="M1309 1532h276v-965q0 -297 -180.5 -450.5t-509.5 -153.5t-509.5 153.5t-180.5 450.5v965h276v-973q0 -171 106 -257.5t308 -86.5t308 86.5t106 257.5v973zM487 1716v185h818v-185h-818z" />
    <glyph glyph-name="umacron" unicode="&#x16b;" horiz-adv-x="1564" 
d="M1114 1243h266v-754q0 -250 -157 -388t-441 -138q-283 0 -440.5 138t-157.5 388v754h267v-745q0 -301 331 -301q169 0 250.5 78t81.5 223v745zM375 1440v184h817v-184h-817z" />
    <glyph glyph-name="Uring" unicode="&#x16e;" horiz-adv-x="1789" 
d="M1309 1532h276v-965q0 -297 -180.5 -450.5t-509.5 -153.5t-509.5 153.5t-180.5 450.5v965h276v-973q0 -171 106 -257.5t308 -86.5t308 86.5t106 257.5v973zM895 2009q-41 0 -69.5 -28.5t-28.5 -69.5q0 -42 28.5 -71.5t69.5 -29.5t69.5 29.5t28.5 71.5q0 41 -28.5 69.5
t-69.5 28.5zM895 2152q100 0 171 -70.5t71 -170.5q0 -101 -71 -172.5t-171 -71.5t-171 71.5t-71 172.5q0 100 71 170.5t171 70.5z" />
    <glyph glyph-name="uring" unicode="&#x16f;" horiz-adv-x="1564" 
d="M1114 1243h266v-754q0 -250 -157 -388t-441 -138q-283 0 -440.5 138t-157.5 388v754h267v-745q0 -301 331 -301q169 0 250.5 78t81.5 223v745zM786 1739q-41 0 -69.5 -29t-28.5 -70t28.5 -70.5t69.5 -29.5t70 29.5t29 70.5t-29 70t-70 29zM786 1882q100 0 171 -71
t71 -171q0 -101 -71 -172t-171 -71t-170.5 71t-70.5 172q0 100 70.5 171t170.5 71z" />
    <glyph glyph-name="Uhungarumlaut" unicode="&#x170;" horiz-adv-x="1789" 
d="M1309 1532h276v-965q0 -297 -180.5 -450.5t-509.5 -153.5t-509.5 153.5t-180.5 450.5v965h276v-973q0 -171 106 -257.5t308 -86.5t308 86.5t106 257.5v973zM971 1716l286 291h324l-309 -291h-301zM420 1716l287 291h323l-309 -291h-301z" />
    <glyph glyph-name="uhungarumlaut" unicode="&#x171;" horiz-adv-x="1564" 
d="M1114 1243h266v-754q0 -250 -157 -388t-441 -138q-283 0 -440.5 138t-157.5 388v754h267v-745q0 -301 331 -301q169 0 250.5 78t81.5 223v745zM858 1440l287 291h323l-309 -291h-301zM307 1440l287 291h324l-310 -291h-301z" />
    <glyph glyph-name="Uogonek" unicode="&#x172;" horiz-adv-x="1789" 
d="M1309 1532h276v-965q0 -243 -122 -390.5t-351 -192.5q-68 -52 -109.5 -108.5t-41.5 -104.5q0 -49 29.5 -72t66.5 -23q86 0 160 45v-182q-66 -31 -168 -31q-129 0 -204 63.5t-75 192.5q0 107 111 199q-323 5 -499.5 158.5t-176.5 445.5v965h276v-973q0 -171 106 -257.5
t308 -86.5t308 86.5t106 257.5v973z" />
    <glyph glyph-name="uogonek" unicode="&#x173;" horiz-adv-x="1564" 
d="M1114 1243h266v-754q0 -191 -93.5 -317.5t-268.5 -177.5q-69 -53 -111.5 -109.5t-42.5 -103.5q0 -49 30 -71.5t67 -22.5q92 0 159 45v-183q-64 -30 -168 -30q-129 0 -203.5 63.5t-74.5 192.5q0 96 100 188q-280 3 -435 140.5t-155 385.5v754h267v-745q0 -301 331 -301
q169 0 250.5 78t81.5 223v745z" />
    <glyph glyph-name="Wcircumflex" unicode="&#x174;" horiz-adv-x="2811" 
d="M2740 1532l-526 -1532h-442l-373 1352l-375 -1352h-446l-506 1532h293l438 -1356l368 1356h463l357 -1356l456 1356h293zM1587 2007l244 -291h-258l-176 178l-176 -178h-254l237 291h383z" />
    <glyph glyph-name="wcircumflex" unicode="&#x175;" horiz-adv-x="2318" 
d="M2257 1243l-410 -1243h-413l-277 1090l-291 -1090h-413l-392 1243h275l328 -1085l282 1085h430l266 -1085l343 1085h272zM1346 1731l243 -291h-258l-176 178l-176 -178h-254l238 291h383z" />
    <glyph glyph-name="Ycircumflex" unicode="&#x176;" horiz-adv-x="1652" 
d="M1288 1532h295l-795 -1532h-294l270 522h-156l-538 1010h307l459 -873zM1028 2007l244 -291h-258l-176 178l-176 -178h-254l237 291h383z" />
    <glyph glyph-name="ycircumflex" unicode="&#x177;" horiz-adv-x="1538" 
d="M1194 1243h285l-801 -1735h-285l314 666h-132l-516 1069h295l426 -909zM969 1731l243 -291h-258l-176 178l-176 -178h-254l238 291h383z" />
    <glyph glyph-name="Ydieresis" unicode="&#x178;" horiz-adv-x="1652" 
d="M1288 1532h295l-795 -1532h-294l270 522h-156l-538 1010h307l459 -873zM707 1866q0 -62 -44.5 -106t-107.5 -44q-61 0 -105 44t-44 106q0 63 43.5 107t105.5 44q63 0 107.5 -44t44.5 -107zM1274 1866q0 -62 -44.5 -106t-107.5 -44q-61 0 -105 44t-44 106q0 63 43.5 107
t105.5 44q63 0 107.5 -44t44.5 -107z" />
    <glyph glyph-name="Zacute" unicode="&#x179;" horiz-adv-x="1517" 
d="M338 242h1067v-242h-1282v387l1014 903h-969v242h1184v-387zM528 1716l287 291h324l-310 -291h-301z" />
    <glyph glyph-name="zacute" unicode="&#x17a;" horiz-adv-x="1306" 
d="M1159 883l-840 -658h885v-225h-1091v362l835 656h-796v225h1007v-360zM420 1440l287 291h323l-309 -291h-301z" />
    <glyph glyph-name="Zdotaccent" unicode="&#x17b;" horiz-adv-x="1517" 
d="M338 242h1067v-242h-1282v387l1014 903h-969v242h1184v-387zM936 1876q0 -66 -47.5 -113t-114.5 -47q-66 0 -113 47t-47 113q0 67 47 114.5t113 47.5q68 0 115 -47t47 -115z" />
    <glyph glyph-name="zdotaccent" unicode="&#x17c;" horiz-adv-x="1306" 
d="M1159 883l-840 -658h885v-225h-1091v362l835 656h-796v225h1007v-360zM834 1599q0 -66 -47.5 -112.5t-114.5 -46.5q-66 0 -113 46.5t-47 112.5q0 67 47 114.5t113 47.5q68 0 115 -47.5t47 -114.5z" />
    <glyph glyph-name="Zcaron" unicode="&#x17d;" horiz-adv-x="1517" 
d="M338 242h1067v-242h-1282v387l1014 903h-969v242h1184v-387zM1210 2007l-243 -291h-383l-238 291h254l176 -178l176 178h258z" />
    <glyph glyph-name="zcaron" unicode="&#x17e;" horiz-adv-x="1306" 
d="M1159 883l-840 -658h885v-225h-1091v362l835 656h-796v225h1007v-360zM1092 1731l-244 -291h-383l-238 291h254l176 -179l177 179h258z" />
    <glyph glyph-name="Scommaaccent" unicode="&#x218;" 
d="M860 -137l-285 -355h-215l236 355h264zM850 918q89 -29 155.5 -56t142 -72.5t123 -96.5t79.5 -126.5t32 -165.5q0 -438 -669 -438q-338 0 -559 123v268q217 -143 559 -143q208 0 299.5 49.5t91.5 142.5q0 44 -21.5 81t-55 64.5t-92.5 55t-116.5 47t-144.5 45.5
q-61 18 -106 33t-101.5 39t-97 48.5t-82 60t-67 75.5t-42 93t-16.5 114q0 195 170 302.5t485 107.5q302 0 504 -117v-278q-91 67 -222.5 107t-277.5 40q-77 0 -144 -9.5t-121 -28.5t-85 -51t-31 -73q0 -21 4.5 -39t16.5 -33.5t24 -27.5t37 -25t44 -21.5t57.5 -21.5
t64.5 -21.5t77 -24.5t85 -27z" />
    <glyph glyph-name="scommaaccent" unicode="&#x219;" horiz-adv-x="1349" 
d="M801 -137l-285 -355h-215l236 355h264zM741 752q182 -56 256 -93q172 -87 209 -237q11 -45 11 -98q0 -176 -147.5 -268.5t-444.5 -92.5q-286 0 -482 100v248q217 -123 482 -123q172 0 245.5 33.5t73.5 102.5q0 33 -17 59.5t-42.5 46t-76 39.5t-95.5 34.5t-123 35.5
q-71 20 -127 41t-118 55.5t-103 75.5t-68 101t-27 132q0 160 147.5 249t418.5 89q274 0 446 -96v-250q-78 56 -192.5 88.5t-249.5 32.5t-216 -28t-81 -85q0 -60 66.5 -97t254.5 -95z" />
    <glyph glyph-name="circumflex" unicode="&#x2c6;" horiz-adv-x="987" 
d="M682 2001l244 -291h-258l-176 178l-177 -178h-254l238 291h383z" />
    <glyph glyph-name="caron" unicode="&#x2c7;" horiz-adv-x="987" 
d="M926 2001l-244 -291h-383l-238 291h254l177 -178l176 178h258z" />
    <glyph glyph-name="breve" unicode="&#x2d8;" horiz-adv-x="952" 
d="M475 1700q-310 0 -393 278h248q19 -35 61 -54t84 -19t84.5 19t61.5 54h249q-83 -278 -395 -278z" />
    <glyph glyph-name="dotaccent" unicode="&#x2d9;" horiz-adv-x="485" 
d="M403 1870q0 -66 -47 -113t-114 -47q-66 0 -113 47t-47 113q0 67 47 114.5t113 47.5q67 0 114 -47t47 -115z" />
    <glyph glyph-name="ring" unicode="&#x2da;" horiz-adv-x="667" 
d="M334 2009q-41 0 -69.5 -28.5t-28.5 -69.5q0 -42 28.5 -71.5t69.5 -29.5t69.5 29.5t28.5 71.5q0 41 -28.5 69.5t-69.5 28.5zM334 2152q100 0 170.5 -70.5t70.5 -170.5q0 -101 -70.5 -172.5t-170.5 -71.5t-171 71.5t-71 172.5q0 100 71 170.5t171 70.5z" />
    <glyph glyph-name="ogonek" unicode="&#x2db;" horiz-adv-x="651" 
d="M399 -324q35 0 80.5 11.5t79.5 33.5v-182q-66 -31 -168 -31q-129 0 -203.5 63.5t-74.5 192.5q0 77 62 149t130 105h201q-87 -56 -145 -123.5t-58 -123.5q0 -49 29.5 -72t66.5 -23z" />
    <glyph glyph-name="tilde" unicode="&#x2dc;" horiz-adv-x="962" 
d="M291 1706h-209q0 56 16 102t42.5 76t62.5 50.5t73 29t76 8.5q50 0 98 -19.5t84.5 -39t57.5 -19.5q40 0 58.5 17t21.5 55h209q0 -134 -76 -200t-201 -66q-50 0 -97.5 19.5t-83.5 39t-58 19.5q-68 0 -74 -72z" />
    <glyph glyph-name="hungarumlaut" unicode="&#x2dd;" horiz-adv-x="1284" 
d="M612 1710l287 291h324l-310 -291h-301zM61 1710l287 291h324l-310 -291h-301z" />
    <glyph glyph-name="uni0401" unicode="&#x401;" horiz-adv-x="1511" 
d="M481 240h877v-240h-1153v1532h1141v-240h-865v-364h828v-236h-828v-452zM655 1866q0 -62 -44 -106t-107 -44q-62 0 -106 44t-44 106q0 63 44 107t106 44q63 0 107 -44t44 -107zM1223 1866q0 -62 -44.5 -106t-107.5 -44q-61 0 -105 44t-44 106q0 63 43.5 107t105.5 44
q63 0 107.5 -44t44.5 -107z" />
    <glyph glyph-name="uni0402" unicode="&#x402;" horiz-adv-x="1775" 
d="M997 969q107 0 198.5 -18t166.5 -56t128.5 -94t82.5 -134.5t29 -174.5q0 -103 -29.5 -188t-80 -143.5t-120.5 -98t-149 -58t-166 -18.5q-78 0 -125 14v242q50 -17 121 -17q119 0 193.5 67.5t74.5 199.5q0 116 -84.5 176.5t-243.5 60.5q-210 0 -334 -127v-602h-276v1292
h-322v240h961v-240h-363v-420q138 97 338 97z" />
    <glyph glyph-name="uni0403" unicode="&#x403;" horiz-adv-x="1318" 
d="M596 1716l287 291h323l-309 -291h-301zM205 1532h1052v-246h-776v-1286h-276v1532z" />
    <glyph glyph-name="uni0404" unicode="&#x404;" horiz-adv-x="1613" 
d="M1001 1569q270 0 459 -119v-272q-81 63 -204 101t-255 38q-211 0 -362 -102.5t-197 -288.5h871v-236h-883q16 -145 98.5 -254.5t206.5 -165t271 -55.5q255 0 454 137v-274q-187 -115 -454 -115q-249 0 -442.5 99.5t-301.5 283t-108 420.5q0 184 61 335t171.5 253.5
t268 158.5t346.5 56z" />
    <glyph glyph-name="uni0405" unicode="&#x405;" 
d="M850 918q89 -29 155.5 -56t142 -72.5t123 -96.5t79.5 -126.5t32 -165.5q0 -438 -669 -438q-338 0 -559 123v268q217 -143 559 -143q208 0 299.5 49.5t91.5 142.5q0 44 -21.5 81t-55 64.5t-92.5 55t-116.5 47t-144.5 45.5q-61 18 -106 33t-101.5 39t-97 48.5t-82 60
t-67 75.5t-42 93t-16.5 114q0 195 170 302.5t485 107.5q302 0 504 -117v-278q-91 67 -222.5 107t-277.5 40q-77 0 -144 -9.5t-121 -28.5t-85 -51t-31 -73q0 -21 4.5 -39t16.5 -33.5t24 -27.5t37 -25t44 -21.5t57.5 -21.5t64.5 -21.5t77 -24.5t85 -27z" />
    <glyph glyph-name="uni0406" unicode="&#x406;" horiz-adv-x="706" 
d="M215 1532h277v-1532h-277v1532z" />
    <glyph glyph-name="uni0407" unicode="&#x407;" horiz-adv-x="706" 
d="M221 1866q0 -62 -44 -106t-107 -44q-62 0 -106 44t-44 106q0 63 44 107t106 44q63 0 107 -44t44 -107zM788 1866q0 -62 -44 -106t-107 -44q-61 0 -105.5 44t-44.5 106q0 63 44 107t106 44q63 0 107 -44t44 -107zM215 1532h277v-1532h-277v1532z" />
    <glyph glyph-name="uni0408" unicode="&#x408;" horiz-adv-x="1222" 
d="M225 1532h793v-993q0 -289 -150 -432.5t-424 -143.5q-98 0 -200.5 29t-151.5 65v267q60 -46 151.5 -77.5t196.5 -31.5q301 0 301 315v756h-516v246z" />
    <glyph glyph-name="uni0409" unicode="&#x409;" horiz-adv-x="2676" 
d="M1999 954q111 0 209 -31t173.5 -89.5t119 -150.5t43.5 -206t-43.5 -206t-119 -150.5t-173.5 -89.5t-209 -31h-678v1286h-655v-606q0 -136 -12.5 -239t-45 -191.5t-85.5 -144.5t-135.5 -87.5t-194.5 -31.5q-77 0 -132 16v248q46 -14 111 -14q54 0 92 18.5t62.5 52.5
t38 91.5t19 124.5t5.5 163v846h1208v-578h402zM1999 240q113 0 187.5 62.5t74.5 174.5q0 113 -74.5 175.5t-187.5 62.5h-402v-475h402z" />
    <glyph glyph-name="uni040A" unicode="&#x40a;" horiz-adv-x="2664" 
d="M1989 954q111 0 208.5 -31t172 -89.5t118 -150.5t43.5 -206t-43.5 -206t-118 -150.5t-172 -89.5t-208.5 -31h-678v715h-830v-715h-276v1532h276v-578h830v578h276v-578h402zM1989 240q113 0 187.5 62.5t74.5 174.5q0 113 -74.5 175.5t-187.5 62.5h-402v-475h402z" />
    <glyph glyph-name="uni040B" unicode="&#x40b;" horiz-adv-x="1781" 
d="M997 969q131 0 238.5 -27t189.5 -82.5t127 -147t45 -212.5v-500h-276v498q0 231 -328 231q-210 0 -334 -127v-602h-276v1292h-322v240h961v-240h-363v-420q134 97 338 97z" />
    <glyph glyph-name="uni040C" unicode="&#x40c;" horiz-adv-x="1718" 
d="M657 1716l287 291h324l-310 -291h-301zM1628 1532l-694 -539l715 -993h-336l-584 836l-248 -195v-641h-276v1532h276v-582l746 582h401z" />
    <glyph glyph-name="uni040E" unicode="&#x40e;" horiz-adv-x="1652" 
d="M1288 1532h295l-795 -1532h-294l270 522h-156l-538 1010h307l459 -873zM836 1716q-310 0 -394 279h248q19 -35 62 -54.5t84 -19.5t83.5 19t61.5 55h250q-84 -279 -395 -279z" />
    <glyph glyph-name="uni040F" unicode="&#x40f;" horiz-adv-x="1849" 
d="M1368 1532h277v-1532h-586v-377h-271v377h-583v1532h276v-1286h887v1286z" />
    <glyph glyph-name="uni0410" unicode="&#x410;" horiz-adv-x="1910" 
d="M508 342l-148 -342h-294l679 1532h416l684 -1532h-299l-149 342h-889zM608 578h688l-344 778z" />
    <glyph glyph-name="uni0411" unicode="&#x411;" horiz-adv-x="1626" 
d="M963 928q238 0 384 -123.5t146 -335.5q0 -228 -144 -348.5t-386 -120.5h-758v1532h1165v-240h-889v-364h482zM963 240q114 0 180.5 58.5t66.5 170.5q0 104 -67.5 163.5t-179.5 59.5h-482v-452h482z" />
    <glyph glyph-name="uni0412" unicode="&#x412;" horiz-adv-x="1597" 
d="M1171 850q128 -44 205.5 -139t77.5 -238q0 -122 -41 -214.5t-114 -148t-166.5 -83t-206.5 -27.5h-721v1532h608q243 0 382.5 -104.5t139.5 -301.5q0 -175 -164 -276zM477 1298v-376h316q51 0 97 10.5t86 31t63.5 57t23.5 83.5q0 194 -248 194h-338zM870 236
q67 0 117.5 10.5t95 35.5t68 73t23.5 118q0 58 -20 100t-50 65.5t-76.5 37t-87.5 17t-96 3.5h-367v-460h393z" />
    <glyph glyph-name="uni0413" unicode="&#x413;" horiz-adv-x="1318" 
d="M205 1532h1052v-246h-776v-1286h-276v1532z" />
    <glyph glyph-name="uni0414" unicode="&#x414;" horiz-adv-x="2007" 
d="M1698 238h227v-615h-270v377h-1303v-377h-270v615h174q86 106 134 270t48 344v680h1260v-1294zM1421 238v1056h-706v-442q0 -178 -37 -344t-105 -270h848z" />
    <glyph glyph-name="uni0415" unicode="&#x415;" horiz-adv-x="1511" 
d="M481 240h877v-240h-1153v1532h1141v-240h-865v-364h828v-236h-828v-452z" />
    <glyph glyph-name="uni0416" unicode="&#x416;" horiz-adv-x="2617" 
d="M1866 985l682 -985h-324l-557 825l-223 -184v-641h-270v641l-224 184l-557 -825h-323l682 985l-670 547h383l709 -582v582h270v-582l708 582h383z" />
    <glyph glyph-name="uni0417" unicode="&#x417;" horiz-adv-x="1488" 
d="M1055 817q301 -96 301 -393q0 -105 -39 -186.5t-103 -132.5t-155 -83.5t-187 -45.5t-208 -13q-326 0 -531 127v272q103 -68 238.5 -109.5t285.5 -41.5q420 0 420 213q0 152 -107.5 210t-348.5 58h-191v236h160q68 0 119.5 3t101 10t84 21t61 34.5t39.5 50.5t13 69
q0 61 -27 102.5t-78.5 63t-111.5 30.5t-140 9q-133 0 -251.5 -28.5t-241.5 -118.5v272q205 123 497 123q625 0 625 -436q0 -112 -65 -190t-160 -126z" />
    <glyph glyph-name="uni0418" unicode="&#x418;" horiz-adv-x="1861" 
d="M1186 1532h471v-1532h-277v1354l-702 -1354h-473v1532h276v-1354z" />
    <glyph glyph-name="uni0419" unicode="&#x419;" horiz-adv-x="1861" 
d="M905 1716q-309 0 -393 279h248q19 -36 61.5 -55t83.5 -19t84 19.5t62 54.5h249q-84 -279 -395 -279zM1186 1532h471v-1532h-277v1354l-702 -1354h-473v1532h276v-1354z" />
    <glyph glyph-name="uni041A" unicode="&#x41a;" horiz-adv-x="1718" 
d="M1628 1532l-694 -539l715 -993h-336l-584 836l-248 -195v-641h-276v1532h276v-582l746 582h401z" />
    <glyph glyph-name="uni041B" unicode="&#x41b;" horiz-adv-x="1861" 
d="M389 1532h1268v-1532h-277v1286h-714v-606q0 -136 -12.5 -239t-45 -191.5t-85.5 -144.5t-135.5 -87.5t-194.5 -31.5q-77 0 -132 16v248q46 -14 111 -14q54 0 92 18.5t62.5 52.5t38 91.5t19 124.5t5.5 163v846z" />
    <glyph glyph-name="uni041C" unicode="&#x41c;" horiz-adv-x="2418" 
d="M2214 1532v-1532h-270v1354l-527 -1354h-420l-522 1354v-1354h-270v1532h481l520 -1354l525 1354h483z" />
    <glyph glyph-name="uni041D" unicode="&#x41d;" horiz-adv-x="1849" 
d="M1368 1532h277v-1532h-277v690h-887v-690h-276v1532h276v-602h887v602z" />
    <glyph glyph-name="uni041E" unicode="&#x41e;" horiz-adv-x="2033" 
d="M1016 -37q-254 0 -449.5 99t-304 282t-108.5 422t108.5 421.5t304 282t449.5 99.5q255 0 451 -99.5t304.5 -282t108.5 -421.5q0 -240 -108.5 -422.5t-304.5 -281.5t-451 -99zM1016 1317q-254 0 -415 -149t-161 -402q0 -169 75 -295.5t204.5 -191t296.5 -64.5t297 65
t205 191t75 295q0 127 -43 231t-120 174t-183 108t-231 38z" />
    <glyph glyph-name="uni041F" unicode="&#x41f;" horiz-adv-x="1849" 
d="M205 1532h1440v-1532h-277v1286h-887v-1286h-276v1532z" />
    <glyph glyph-name="uni0420" unicode="&#x420;" horiz-adv-x="1538" 
d="M874 1532q110 0 206.5 -33.5t169 -95t114 -155.5t41.5 -208q0 -152 -71 -265t-189 -169.5t-266 -56.5h-398v-549h-276v1532h669zM879 788q109 0 176 68t67 184t-69 183t-179 67h-393v-502h398z" />
    <glyph glyph-name="uni0421" unicode="&#x421;" horiz-adv-x="1615" 
d="M1010 1569q135 0 252 -32t200 -87v-274q-81 62 -202.5 101.5t-249.5 39.5q-165 0 -293 -63.5t-202.5 -189.5t-74.5 -298q0 -167 76.5 -294t205.5 -192t288 -65q239 0 452 139v-276q-92 -57 -211.5 -86t-240.5 -29q-184 0 -342 58.5t-271.5 162.5t-178 254.5t-64.5 327.5
q0 245 107.5 428t301 279t447.5 96z" />
    <glyph glyph-name="uni0422" unicode="&#x422;" horiz-adv-x="1517" 
d="M61 1532h1395v-246h-559v-1286h-276v1286h-560v246z" />
    <glyph glyph-name="uni0423" unicode="&#x423;" horiz-adv-x="1652" 
d="M1288 1532h295l-795 -1532h-294l270 522h-156l-538 1010h307l459 -873z" />
    <glyph glyph-name="uni0424" unicode="&#x424;" horiz-adv-x="2107" 
d="M1202 1376q359 0 555.5 -149.5t196.5 -444.5q0 -297 -196.5 -446.5t-555.5 -149.5h-14v-223h-270v223h-15q-358 0 -553.5 149.5t-195.5 446.5q0 295 195.5 444.5t553.5 149.5h15v193h270v-193h14zM918 418v727h-19q-225 0 -347 -86t-122 -277q0 -364 469 -364h19z
M1208 418q469 0 469 364q0 191 -122 277t-347 86h-20v-727h20z" />
    <glyph glyph-name="uni0425" unicode="&#x425;" horiz-adv-x="1736" 
d="M1675 0h-325l-476 729l-485 -729h-326l566 825l-492 707h328l412 -610l413 610h320l-486 -707z" />
    <glyph glyph-name="uni0426" unicode="&#x426;" horiz-adv-x="1882" 
d="M1548 246h252v-623h-270v377h-1325v1532h276v-1286h791v1286h276v-1286z" />
    <glyph glyph-name="uni0427" unicode="&#x427;" horiz-adv-x="1646" 
d="M1165 1532h277v-1532h-277v606q-243 -47 -497 -47q-83 0 -157 17.5t-138 54t-110 89t-72.5 127.5t-26.5 165v520h276v-500q0 -114 74 -172.5t197 -58.5q93 0 220.5 13t233.5 36v682z" />
    <glyph glyph-name="uni0428" unicode="&#x428;" horiz-adv-x="2729" 
d="M205 1532h276v-1286h746v1286h276v-1286h746v1286h276v-1532h-2320v1532z" />
    <glyph glyph-name="uni0429" unicode="&#x429;" horiz-adv-x="2859" 
d="M2525 246h252v-623h-270v377h-2302v1532h276v-1286h746v1286h276v-1286h746v1286h276v-1286z" />
    <glyph glyph-name="uni042A" unicode="&#x42a;" horiz-adv-x="1830" 
d="M1153 954q111 0 209 -31t173.5 -89.5t119 -150.5t43.5 -206t-43.5 -206t-119 -150.5t-173.5 -89.5t-209 -31h-707v1292h-385v240h662v-578h430zM1153 240q113 0 187.5 62.5t74.5 174.5q0 113 -74.5 175.5t-187.5 62.5h-430v-475h430z" />
    <glyph glyph-name="uni042B" unicode="&#x42b;" horiz-adv-x="2105" 
d="M1624 1532h277v-1532h-277v1532zM870 954q111 0 209 -31t173.5 -89.5t119 -150.5t43.5 -206t-43.5 -206t-119 -150.5t-173.5 -89.5t-209 -31h-665v1532h276v-578h389zM870 240q113 0 188 62.5t75 174.5t-75 175t-188 63h-389v-475h389z" />
    <glyph glyph-name="uni042C" unicode="&#x42c;" horiz-adv-x="1587" 
d="M909 954q111 0 209 -31t173.5 -89.5t119 -150.5t43.5 -206t-43.5 -206t-119 -150.5t-173.5 -89.5t-209 -31h-704v1532h276v-578h428zM909 240q113 0 187.5 62.5t74.5 174.5q0 113 -74.5 175.5t-187.5 62.5h-428v-475h428z" />
    <glyph glyph-name="uni042D" unicode="&#x42d;" horiz-adv-x="1630" 
d="M625 1569q394 0 623 -215t229 -588q0 -238 -105.5 -420.5t-299.5 -282.5t-447 -100q-279 0 -471 117v274q215 -139 471 -139q229 0 389.5 126t187.5 349h-844v236h830q-42 185 -194.5 288t-368.5 103q-126 0 -251 -40t-220 -108v275q199 125 471 125z" />
    <glyph glyph-name="uni042E" unicode="&#x42e;" horiz-adv-x="2529" 
d="M1546 1569q236 -1 424 -100t297 -282.5t109 -420.5q0 -238 -109 -422t-297 -282.5t-424 -98.5q-219 0 -396.5 89t-286.5 254.5t-126 383.5h-256v-690h-276v1532h276v-602h269q35 192 145.5 337t278.5 223t372 79zM1546 215q148 0 270.5 64.5t197.5 191.5t75 295
q0 167 -75 294t-197.5 192t-270.5 65q-106 0 -203 -38.5t-171 -107.5t-118 -174.5t-44 -230.5q0 -126 44 -231.5t118 -174.5t170.5 -107t203.5 -38z" />
    <glyph glyph-name="uni042F" unicode="&#x42f;" horiz-adv-x="1572" 
d="M35 0l432 666q-126 57 -204.5 164t-78.5 245q0 195 146.5 326t363.5 131h674v-1532h-276v610h-353l-381 -610h-323zM465 1063q0 -71 42.5 -122.5t105.5 -74t137 -22.5h342v446h-385q-112 0 -177 -57t-65 -170z" />
    <glyph glyph-name="uni0430" unicode="&#x430;" horiz-adv-x="1490" 
d="M1399 209q13 0 31 6v-227q-41 -13 -84 -13q-100 0 -175.5 47.5t-117.5 120.5q-56 -74 -159 -127t-232 -53q-239 0 -384 117.5t-145 318.5q0 90 43.5 170.5t114 135t160.5 86.5t182 32q84 0 164 -24t135.5 -48t79.5 -24v90q0 115 -95 176.5t-245 61.5q-151 0 -256 -33.5
t-203 -103.5v247q182 117 446 117q273 0 444 -125.5t171 -314.5v-533q0 -100 125 -100zM1012 434v86q-28 0 -87.5 22.5t-136 45t-145.5 22.5q-103 0 -170 -58.5t-67 -152.5q0 -103 73 -160t209 -57q137 0 230.5 68t93.5 184z" />
    <glyph glyph-name="uni0431" unicode="&#x431;" horiz-adv-x="1693" 
d="M905 1745l580 65v-245l-559 -56q-223 -25 -355.5 -162.5t-142.5 -361.5q170 223 479 223q185 0 334.5 -79t234.5 -220t85 -315q0 -146 -57 -267t-155 -199.5t-227 -121.5t-274 -43q-198 0 -347 81t-237 230q-110 188 -110 523q0 231 52 404.5t152 285.5t235 174.5
t312 83.5zM860 975q-84 0 -159.5 -24t-137.5 -70.5t-98.5 -123t-36.5 -173.5q0 -164 120.5 -275.5t303.5 -111.5q197 0 314.5 112t117.5 287q0 171 -112.5 275t-311.5 104z" />
    <glyph glyph-name="uni0432" unicode="&#x432;" horiz-adv-x="1443" 
d="M1098 690q88 -41 150.5 -121.5t62.5 -183.5q0 -99 -38.5 -174.5t-106 -120.5t-151.5 -67.5t-181 -22.5h-650v1243h580q138 0 243.5 -36t167.5 -111t62 -181q0 -70 -40.5 -129.5t-98.5 -95.5zM440 1026v-264h348q193 0 193 135q0 129 -215 129h-326zM786 221q134 0 196 36
t62 128q0 88 -61 128t-184 40h-359v-332h346z" />
    <glyph glyph-name="uni0433" unicode="&#x433;" horiz-adv-x="1144" 
d="M184 1243h899v-229h-632v-1014h-267v1243z" />
    <glyph glyph-name="uni0434" unicode="&#x434;" horiz-adv-x="1691" 
d="M1419 223h191v-561h-256v338h-1016v-338h-256v561h149q154 188 154 455v565h1034v-1020zM1153 223v797h-502v-342q0 -133 -32.5 -251t-88.5 -204h623z" />
    <glyph glyph-name="uni0435" unicode="&#x435;" 
d="M1403 596v-49h-1008q25 -163 138.5 -260t281.5 -97q277 0 479 115v-242q-195 -100 -477 -100q-148 0 -276 51t-217.5 139t-140 210t-50.5 260q0 145 50 269.5t135.5 209.5t201 132.5t244.5 47.5q294 0 466.5 -176t172.5 -510zM406 758h737q-27 146 -121.5 222.5
t-257.5 76.5q-127 0 -223 -77t-135 -222z" />
    <glyph glyph-name="uni0436" unicode="&#x436;" horiz-adv-x="2226" 
d="M1597 813l562 -813h-312l-440 668l-164 -131v-537h-260v537l-164 131l-440 -668h-311l561 813l-545 430h367l532 -444v444h260v-444l533 444h364z" />
    <glyph glyph-name="uni0437" unicode="&#x437;" horiz-adv-x="1359" 
d="M1006 676q101 -40 161 -124.5t60 -201.5q0 -87 -30.5 -154t-84.5 -110.5t-134.5 -71.5t-173.5 -39.5t-208 -11.5q-128 0 -257 27.5t-206 68.5v246q213 -115 457 -115q196 0 280 40t84 124q0 112 -85 154.5t-289 42.5h-207v217h209q168 0 247.5 31t79.5 112
q0 78 -82.5 111t-240.5 33q-237 0 -430 -117v248q188 96 434 96q101 0 186.5 -11.5t160.5 -38t127 -67.5t82 -102t30 -139q0 -82 -49.5 -145t-120.5 -103z" />
    <glyph glyph-name="uni0438" unicode="&#x438;" horiz-adv-x="1601" 
d="M979 1243h438v-1243h-266v1087l-520 -1087h-447v1243h267v-1087z" />
    <glyph glyph-name="uni0439" unicode="&#x439;" horiz-adv-x="1601" 
d="M780 1440q-310 0 -393 278h248q19 -35 61 -54t84 -19q41 0 83 19t61 54h250q-83 -278 -394 -278zM979 1243h438v-1243h-266v1087l-520 -1087h-447v1243h267v-1087z" />
    <glyph glyph-name="uni043A" unicode="&#x43a;" horiz-adv-x="1482" 
d="M1415 0h-328l-462 657l-174 -135v-522h-267v1243h267v-448l567 448h371l-566 -440z" />
    <glyph glyph-name="uni043B" unicode="&#x43b;" horiz-adv-x="1564" 
d="M293 1243h1087v-1243h-266v1014h-555v-387q0 -115 -11.5 -210t-39 -179t-70.5 -141.5t-110 -90.5t-154 -33q-63 0 -113 9v227q37 -6 66 -6q52 0 86 31t51 92.5t23 129.5t6 165v622z" />
    <glyph glyph-name="uni043C" unicode="&#x43c;" horiz-adv-x="2107" 
d="M1462 1243h461v-1243h-260v1085l-412 -1085h-397l-410 1085v-1085h-260v1243h457l412 -1087z" />
    <glyph glyph-name="uni043D" unicode="&#x43d;" horiz-adv-x="1581" 
d="M1130 1243h267v-1243h-267v549h-679v-549h-267v1243h267v-471h679v471z" />
    <glyph glyph-name="uni043E" unicode="&#x43e;" horiz-adv-x="1724" 
d="M862 1282q207 0 372.5 -80.5t261 -231.5t95.5 -347q0 -195 -95.5 -346t-261 -232.5t-372.5 -81.5q-208 0 -373.5 81.5t-260.5 232.5t-95 346q0 196 95 347t260.5 231.5t373.5 80.5zM862 197q198 0 325.5 115.5t127.5 310.5q0 197 -127.5 311.5t-325.5 114.5
q-199 0 -325.5 -114.5t-126.5 -311.5q0 -196 126.5 -311t325.5 -115z" />
    <glyph glyph-name="uni043F" unicode="&#x43f;" horiz-adv-x="1579" 
d="M184 1243h1211v-1243h-267v1014h-677v-1014h-267v1243z" />
    <glyph glyph-name="uni0440" unicode="&#x440;" horiz-adv-x="1710" 
d="M1577 623q0 -195 -88 -345.5t-246 -232.5t-360 -82q-124 0 -239.5 46.5t-192.5 135.5v-637h-267v1735h267v-145q77 90 192.5 137t239.5 47q317 0 505.5 -179t188.5 -480zM1300 623q0 199 -123 312.5t-323 113.5q-424 0 -424 -426t424 -426q191 0 318.5 116.5t127.5 309.5
z" />
    <glyph glyph-name="uni0441" unicode="&#x441;" horiz-adv-x="1411" 
d="M868 1282q119 0 228.5 -28t181.5 -72v-252q-72 52 -183 85.5t-227 33.5q-205 0 -331.5 -111.5t-126.5 -314.5q0 -200 128.5 -313t329.5 -113q220 0 410 118v-254q-82 -46 -192.5 -72t-217.5 -26q-214 0 -381.5 82.5t-260.5 233t-93 344.5q0 307 200 483t535 176z" />
    <glyph glyph-name="uni0442" unicode="&#x442;" horiz-adv-x="1333" 
d="M1272 1243v-229h-473v-1014h-267v1014h-471v229h1211z" />
    <glyph glyph-name="uni0443" unicode="&#x443;" horiz-adv-x="1538" 
d="M1194 1243h285l-801 -1735h-285l314 666h-132l-516 1069h295l426 -909z" />
    <glyph glyph-name="uni0444" unicode="&#x444;" horiz-adv-x="2316" 
d="M711 1282q103 0 185.5 -37.5t129.5 -87.5v553h262v-553q48 50 131.5 87.5t184.5 37.5q111 0 214.5 -45.5t185 -128t130.5 -209t49 -276.5q0 -121 -32 -227.5t-87.5 -184.5t-129 -134.5t-158 -85t-172.5 -28.5q-102 0 -185.5 36t-130.5 85v-576h-262v576
q-46 -49 -128.5 -85t-186.5 -36q-111 0 -214 45.5t-184.5 128t-130.5 209.5t-49 277t49 276.5t130.5 209t184.5 128t214 45.5zM1575 195q153 0 244.5 110t91.5 318q0 207 -92 317.5t-244 110.5q-64 0 -109.5 -11t-83.5 -39t-61 -76.5t-35 -123.5t-12 -180q0 -130 17.5 -214
t57.5 -130.5t92.5 -64t133.5 -17.5zM739 195q81 0 134 17.5t92.5 64t57 130.5t17.5 214q0 105 -12 180t-34.5 123.5t-60.5 76.5t-83.5 39t-110.5 11q-151 0 -242 -110.5t-91 -317.5q0 -208 91 -318t242 -110z" />
    <glyph glyph-name="uni0445" unicode="&#x445;" horiz-adv-x="1435" 
d="M944 676l432 -676h-299l-358 578l-363 -578h-297l439 674l-383 569h299l307 -471l313 471h295z" />
    <glyph glyph-name="uni0446" unicode="&#x446;" horiz-adv-x="1667" 
d="M1370 229h215v-565h-256v336h-1145v1243h267v-1014h653v1014h266v-1014z" />
    <glyph glyph-name="uni0447" unicode="&#x447;" horiz-adv-x="1441" 
d="M1257 1243v-1243h-266v453q-201 -39 -377 -39q-221 0 -346 100t-125 299v430h267v-420q0 -92 66.5 -139t172.5 -47q142 0 342 45v561h266z" />
    <glyph glyph-name="uni0448" unicode="&#x448;" horiz-adv-x="2381" 
d="M1931 1243h267v-1243h-2014v1243h267v-1014h606v1014h266v-1014h608v1014z" />
    <glyph glyph-name="uni0449" unicode="&#x449;" horiz-adv-x="2496" 
d="M2200 229h215v-567h-256v338h-1975v1243h267v-1014h608v1014h266v-1014h608v1014h267v-1014z" />
    <glyph glyph-name="uni044A" unicode="&#x44a;" horiz-adv-x="1628" 
d="M1014 809q228 0 359.5 -102.5t131.5 -300.5t-132 -302t-359 -104h-623v1020h-330v223h596v-434h357zM1014 223q58 0 105.5 17t80.5 60t33 106q0 64 -33 106t-80 58t-106 16h-357v-363h357z" />
    <glyph glyph-name="uni044B" unicode="&#x44b;" horiz-adv-x="1845" 
d="M1395 0v1243h266v-1243h-266zM756 809q223 0 352 -102.5t129 -300.5t-129 -302t-352 -104h-572v1243h267v-434h305zM756 223q92 0 150.5 44t58.5 139t-58.5 137.5t-150.5 42.5h-305v-363h305z" />
    <glyph glyph-name="uni044C" unicode="&#x44c;" horiz-adv-x="1419" 
d="M805 809q228 0 359.5 -102.5t131.5 -300.5t-132 -302t-359 -104h-621v1243h267v-434h354zM805 223q58 0 105.5 17t80.5 60t33 106q0 64 -33 106t-80 58t-106 16h-354v-363h354z" />
    <glyph glyph-name="uni044D" unicode="&#x44d;" horiz-adv-x="1406" 
d="M545 1053q-116 0 -227.5 -34.5t-184.5 -86.5v248q72 45 182 73.5t230 28.5q336 0 532.5 -173.5t196.5 -485.5q0 -201 -93 -351.5t-257.5 -229.5t-378.5 -79q-108 0 -219.5 25t-192.5 71v250q187 -116 412 -116q185 0 305.5 93.5t148.5 262.5h-655v217h645
q-41 138 -158 212.5t-286 74.5z" />
    <glyph glyph-name="uni044E" unicode="&#x44e;" horiz-adv-x="2187" 
d="M1358 1282q196 -1 354 -82t250 -232t92 -345q0 -195 -92 -346.5t-250 -232.5t-354 -81q-176 0 -321.5 71.5t-237.5 205.5t-109 309h-239v-549h-267v1243h267v-471h247q49 233 230.5 370.5t429.5 139.5zM1358 197q184 0 302 114.5t118 311.5q0 196 -118 311t-302 115
q-185 0 -296.5 -114.5t-111.5 -311.5q0 -199 111.5 -312.5t296.5 -113.5z" />
    <glyph glyph-name="uni044F" unicode="&#x44f;" horiz-adv-x="1445" 
d="M672 1243h590v-1243h-267v477h-305l-313 -477h-311l360 522q-114 45 -188 134.5t-74 211.5q0 179 139.5 277t368.5 98zM995 688v338h-333q-43 0 -80 -7.5t-71.5 -25t-54.5 -53.5t-20 -86q0 -48 20 -82t54.5 -51.5t71.5 -25t80 -7.5h333z" />
    <glyph glyph-name="uni0451" unicode="&#x451;" 
d="M649 1589q0 -62 -44 -105.5t-107 -43.5q-62 0 -106 44t-44 105q0 63 44 107.5t106 44.5q63 0 107 -44.5t44 -107.5zM1217 1589q0 -62 -44.5 -105.5t-107.5 -43.5q-62 0 -106 44t-44 105q0 63 44 107.5t106 44.5q63 0 107.5 -44.5t44.5 -107.5zM1403 596v-49h-1008
q25 -163 138.5 -260t281.5 -97q277 0 479 115v-242q-195 -100 -477 -100q-148 0 -276 51t-217.5 139t-140 210t-50.5 260q0 145 50 269.5t135.5 209.5t201 132.5t244.5 47.5q294 0 466.5 -176t172.5 -510zM406 758h737q-27 146 -121.5 222.5t-257.5 76.5q-127 0 -223 -77
t-135 -222z" />
    <glyph glyph-name="uni0452" unicode="&#x452;" horiz-adv-x="1683" 
d="M1499 659v-102q0 -235 -34 -413t-97 -287t-147 -163t-189 -54q-88 0 -129 14v227q47 -12 82 -12q248 0 248 682v78q0 134 -58 196t-204 62q-195 0 -305.5 -90.5t-110.5 -249.5v-547h-266v1364h-228v205h228v205h266v-205h565v-205h-565v-432q73 94 187 141t229 47
q254 0 391 -121t137 -340z" />
    <glyph glyph-name="uni0453" unicode="&#x453;" horiz-adv-x="1144" 
d="M436 1440l287 291h324l-310 -291h-301zM184 1243h899v-229h-632v-1014h-267v1243z" />
    <glyph glyph-name="uni0454" unicode="&#x454;" horiz-adv-x="1417" 
d="M868 1053q-170 0 -289.5 -74.5t-160.5 -212.5h696v-219h-706q27 -167 151 -260.5t309 -93.5q226 0 416 116v-250q-82 -46 -195.5 -71t-220.5 -25q-332 0 -533.5 178t-201.5 480q0 315 196.5 488t538.5 173q119 0 230.5 -28.5t185.5 -73.5v-248q-72 52 -186 86.5
t-230 34.5z" />
    <glyph glyph-name="uni0455" unicode="&#x455;" horiz-adv-x="1349" 
d="M741 752q182 -56 256 -93q172 -87 209 -237q11 -45 11 -98q0 -176 -147.5 -268.5t-444.5 -92.5q-286 0 -482 100v248q217 -123 482 -123q172 0 245.5 33.5t73.5 102.5q0 33 -17 59.5t-42.5 46t-76 39.5t-95.5 34.5t-123 35.5q-71 20 -127 41t-118 55.5t-103 75.5t-68 101
t-27 132q0 160 147.5 249t418.5 89q274 0 446 -96v-250q-78 56 -192.5 88.5t-249.5 32.5t-216 -28t-81 -85q0 -60 66.5 -97t254.5 -95z" />
    <glyph glyph-name="uni0456" unicode="&#x456;" horiz-adv-x="655" 
d="M487 1599q0 -66 -46.5 -112.5t-112.5 -46.5q-67 0 -114.5 46.5t-47.5 112.5q0 67 47 114.5t115 47.5q66 0 112.5 -47.5t46.5 -114.5zM195 0v1243h266v-1243h-266z" />
    <glyph glyph-name="uni0457" unicode="&#x457;" horiz-adv-x="655" 
d="M195 0v1243h266v-1243h-266zM195 1589q0 -62 -44.5 -105.5t-107.5 -43.5q-61 0 -105 44t-44 105q0 63 43.5 107.5t105.5 44.5q63 0 107.5 -44.5t44.5 -107.5zM762 1589q0 -62 -44.5 -105.5t-107.5 -43.5q-62 0 -105.5 44t-43.5 105q0 63 43.5 107.5t105.5 44.5
q63 0 107.5 -44.5t44.5 -107.5z" />
    <glyph glyph-name="uni0458" unicode="&#x458;" horiz-adv-x="880" 
d="M705 1599q0 -66 -47 -112.5t-113 -46.5q-67 0 -114.5 46.5t-47.5 112.5q0 67 47.5 114.5t114.5 47.5q66 0 113 -47.5t47 -114.5zM123 1243h573v-1196q0 -575 -520 -575q-96 0 -162 20v234q78 -21 158 -21q56 0 100 15.5t81 52t57 103.5t20 163v975h-307v229z" />
    <glyph glyph-name="uni0459" unicode="&#x459;" horiz-adv-x="2265" 
d="M1649 809q228 0 360.5 -103t132.5 -300q0 -198 -133 -302t-360 -104h-576v1014h-514v-387q0 -115 -11.5 -210t-39 -179t-70.5 -141.5t-110 -90.5t-154 -33q-63 0 -113 9v227q37 -6 66 -6q52 0 86 31t51 92.5t23 129.5t6 165v622h1046v-434h310zM1649 223q92 0 156.5 44.5
t64.5 138.5q0 64 -33.5 106t-81 58t-106.5 16h-310v-363h310z" />
    <glyph glyph-name="uni045A" unicode="&#x45a;" horiz-adv-x="2283" 
d="M1669 809q228 0 360 -103t132 -300q0 -198 -132.5 -302t-359.5 -104h-575v586h-643v-586h-267v1243h267v-434h645v434h264v-434h309zM1669 223q58 0 105.5 17t80.5 60t33 106q0 64 -33 106t-80 58t-106 16h-309v-363h309z" />
    <glyph glyph-name="uni045B" unicode="&#x45b;" horiz-adv-x="1683" 
d="M1499 0h-266v629q0 134 -58.5 196t-203.5 62q-196 0 -307 -90.5t-111 -249.5v-547h-266v1364h-226v205h226v205h266v-205h565v-205h-565v-432q75 94 188 141t228 47q255 0 392.5 -121.5t137.5 -339.5v-659z" />
    <glyph glyph-name="uni045C" unicode="&#x45c;" horiz-adv-x="1480" 
d="M561 1440l287 291h323l-309 -291h-301zM1415 0h-328l-462 657l-174 -135v-522h-267v1243h267v-448l567 448h371l-566 -440z" />
    <glyph glyph-name="uni045E" unicode="&#x45e;" horiz-adv-x="1538" 
d="M784 1440q-310 0 -393 278h248q19 -35 61 -54t84 -19q41 0 83 19t61 54h250q-83 -278 -394 -278zM1194 1243h285l-801 -1735h-285l314 666h-132l-516 1069h295l426 -909z" />
    <glyph glyph-name="uni045F" unicode="&#x45f;" horiz-adv-x="1581" 
d="M1130 1243h267v-1243h-477v-338h-256v338h-480v1243h267v-1014h679v1014z" />
    <glyph glyph-name="uni0490" unicode="&#x490;" horiz-adv-x="1318" 
d="M993 1833h264v-547h-776v-1286h-276v1532h788v301z" />
    <glyph glyph-name="uni0491" unicode="&#x491;" horiz-adv-x="1142" 
d="M831 1509h250v-495h-630v-1014h-267v1243h647v266z" />
    <glyph glyph-name="figuredash" unicode="&#x2012;" horiz-adv-x="1947" 
d="M143 877h1661v-205h-1661v205z" />
    <glyph glyph-name="endash" unicode="&#x2013;" horiz-adv-x="1947" 
d="M143 877h1661v-205h-1661v205z" />
    <glyph glyph-name="emdash" unicode="&#x2014;" horiz-adv-x="2535" 
d="M143 877h2249v-205h-2249v205z" />
    <glyph glyph-name="quoteleft" unicode="&#x2018;" horiz-adv-x="649" 
d="M61 1071l316 498h211l-248 -498h-279z" />
    <glyph glyph-name="quoteright" unicode="&#x2019;" horiz-adv-x="647" 
d="M588 1569l-316 -498h-211l248 498h279z" />
    <glyph glyph-name="quotesinglbase" unicode="&#x201a;" horiz-adv-x="647" 
d="M588 311l-316 -497h-211l248 497h279z" />
    <glyph glyph-name="quotedblleft" unicode="&#x201c;" horiz-adv-x="1128" 
d="M61 1071l316 498h211l-248 -498h-279zM541 1071l315 498h211l-248 -498h-278z" />
    <glyph glyph-name="quotedblright" unicode="&#x201d;" horiz-adv-x="1126" 
d="M1067 1569l-315 -498h-211l247 498h279zM588 1569l-316 -498h-211l248 498h279z" />
    <glyph glyph-name="quotedblbase" unicode="&#x201e;" horiz-adv-x="1126" 
d="M1067 311l-315 -497h-211l247 497h279zM588 311l-316 -497h-211l248 497h279z" />
    <glyph glyph-name="bullet" unicode="&#x2022;" horiz-adv-x="892" 
d="M739 766q0 -122 -85.5 -207.5t-207.5 -85.5q-121 0 -206.5 85.5t-85.5 207.5t85.5 207.5t206.5 85.5q122 0 207.5 -85.5t85.5 -207.5z" />
    <glyph glyph-name="ellipsis" unicode="&#x2026;" horiz-adv-x="1689" 
d="M461 143q0 -75 -51.5 -127.5t-124.5 -52.5q-74 0 -128.5 53t-54.5 127q0 73 54.5 126t128.5 53q73 0 124.5 -52.5t51.5 -126.5zM1024 143q0 -75 -51.5 -127.5t-124.5 -52.5q-74 0 -128 53t-54 127q0 73 54 126t128 53q73 0 124.5 -52.5t51.5 -126.5zM1587 143
q0 -75 -51.5 -127.5t-124.5 -52.5q-74 0 -128 53t-54 127q0 73 54 126t128 53q73 0 124.5 -52.5t51.5 -126.5z" />
    <glyph glyph-name="perthousand" unicode="&#x2030;" horiz-adv-x="3102" 
d="M2556 758q127 0 222.5 -55.5t143.5 -145t48 -197.5q0 -168 -112 -282.5t-302 -114.5q-126 0 -221 55t-143 144t-48 198q0 167 112 282.5t300 115.5zM2556 135q103 0 156 63t53 162t-53 162.5t-156 63.5q-101 0 -154 -63.5t-53 -162.5t53 -162t154 -63zM1464 1532h222
l-996 -1532h-219zM547 1569q188 0 299.5 -115.5t111.5 -282.5q0 -109 -47.5 -198t-142.5 -144t-221 -55q-190 0 -302 114.5t-112 282.5q0 108 48 197.5t143.5 145t222.5 55.5zM547 946q101 0 154 63t53 162t-53 162.5t-154 63.5q-103 0 -156 -63.5t-53 -162.5t53 -162
t156 -63zM1610 758q127 0 222.5 -55.5t143 -145t47.5 -197.5q0 -168 -111.5 -282.5t-301.5 -114.5q-126 0 -221 55t-143 144t-48 198q0 167 112 282.5t300 115.5zM1610 135q103 0 156 63t53 162t-53 162.5t-156 63.5q-101 0 -154 -63.5t-53 -162.5t53 -162t154 -63z" />
    <glyph glyph-name="guilsinglleft" unicode="&#x2039;" horiz-adv-x="802" 
d="M649 1368v-289l-352 -313l352 -311v-289l-495 438v326z" />
    <glyph glyph-name="guilsinglright" unicode="&#x203a;" horiz-adv-x="802" 
d="M154 1079v289l495 -438v-326l-495 -438v289l352 311z" />
    <glyph glyph-name="zerosuperior" unicode="&#x2070;" horiz-adv-x="1003" 
d="M870 1171q0 -169 -100.5 -283t-267.5 -114q-168 0 -268.5 113.5t-100.5 283.5t100.5 284t268.5 114q167 0 267.5 -114.5t100.5 -283.5zM340 1171q0 -105 44 -165t118 -60t118 60t44 165t-44 165.5t-118 60.5t-118 -60.5t-44 -165.5z" />
    <glyph glyph-name="Euro" unicode="&#x20ac;" horiz-adv-x="1529" 
d="M1010 1323q-135 0 -250 -73.5t-176 -196.5h635v-201h-680q-4 -58 -4 -86q0 -47 4 -70h680v-200h-635q62 -129 178 -208t248 -79q242 0 387 117v-287q-146 -76 -387 -76q-251 0 -445 148.5t-270 384.5h-234v200h199q-2 23 -2 70q0 28 4 86h-201v201h234q77 231 269 373.5
t446 142.5q221 0 387 -78v-281q-67 55 -171 84t-216 29z" />
    <glyph glyph-name="rub" unicode="&#x20bd;" horiz-adv-x="1611" 
d="M958 1532q106 0 200 -31.5t165.5 -89.5t113.5 -147.5t42 -198.5q0 -108 -41 -195.5t-112 -143.5t-164 -86t-199 -30h-392v-157h682v-213h-682v-240h-276v240h-234v213h234v157h-234v228h234v694h663zM963 838q102 0 169.5 61t67.5 166t-70 168t-172 63h-387v-458h392z
" />
    <glyph glyph-name="uni2116" unicode="&#x2116;" horiz-adv-x="2758" 
d="M2247 774q-167 0 -267 113t-100 284t100 284.5t267 113.5q168 0 268 -114t100 -284t-100 -283.5t-268 -113.5zM2247 1397q-74 0 -118 -60.5t-44 -165.5t44 -165t118 -60t118.5 60t44.5 165t-44.5 165.5t-118.5 60.5zM1868 598h758v-184h-758v184zM1384 1532h271v-1532
h-471l-709 1352v-1352h-270v1532h467l712 -1354v1354z" />
    <glyph glyph-name="trademark" unicode="&#x2122;" horiz-adv-x="1968" 
d="M102 1376v156h664v-156h-246v-567h-174v567h-244zM1587 1532h279v-723h-166v573l-215 -573h-221l-213 575v-575h-166v723h278l211 -582z" />
    <glyph glyph-name="minus" unicode="&#x2212;" horiz-adv-x="1128" 
d="M143 901h842v-270h-842v270z" />
    <glyph glyph-name="notequal" unicode="&#x2260;" horiz-adv-x="1277" 
d="M1124 895h-286l-162 -250h448v-219h-592l-114 -176h-232l113 176h-145v219h288l162 250h-450v219h594l112 176h234l-115 -176h145v-219z" />
    </font>
</defs>
</svg>
