<?xml version="1.0" encoding="UTF-8"?>
<svg width="130.94mm" height="151.42mm" style="clip-rule:evenodd;fill-rule:evenodd;image-rendering:optimizeQuality;shape-rendering:geometricPrecision;text-rendering:geometricPrecision" version="1.1" viewBox="0 0 13094 15142" xmlns="http://www.w3.org/2000/svg">
 <defs>
  <style type="text/css"><![CDATA[
    .fil1 {fill:#4D4D4D}
    .fil5 {fill:#666666}
    .fil12 {fill:#736161}
    .fil14 {fill:#91726E}
    .fil13 {fill:#947C7C}
    .fil10 {fill:#C67D6A}
    .fil7 {fill:#CCCCCC}
    .fil9 {fill:#E9A188}
    .fil2 {fill:#F5F258}
    .fil4 {fill:#F8D9C4}
    .fil3 {fill:#FACCAA}
    .fil0 {fill:white}
    .fil8 {fill:white}
    .fil11 {fill:#4D4D4D;fill-rule:nonzero}
    .fil6 {fill:#4D4D4D;fill-opacity:0.501961}
   ]]></style>
 </defs>
 <g transform="translate(-8302.6 -1872.6)">
  <circle class="fil1" cx="14849" cy="10467" r="6546.9"/>
  <circle class="fil2" cx="14849" cy="10467" r="6339.3" style="fill:#ede9df"/>
  <path class="fil3" d="m20407 13519c-283.6-121.75-567.84-242.01-852.48-361.14-324.31-135.74-649.26-270.28-975.11-402.3l-11.47-4.65-5.69-10.98c-143.97-277.34-288.43-554.45-433.55-831.19-87.88-167.56-175.95-335.03-264.91-502.01-56.09-105.3-112.17-213.16-172.15-316.22-72.41-124.39-176.56-239.72-299.36-316.27l-16.42-10.23 0.64-19.35c2.93-88.11 9.52-177.73 24.55-264.65l0.34-2.04 0.6-1.97c57.44-189.76 107.13-383.1 154.87-575.5l9.4-37.88 36.04 14.98c156.62 65.13 290.5 17.3 403.37-100.59 68.75-71.81 130.34-171.98 167.96-264.51l0.89-2.17 1.19-2.04c220.98-380.23 394.32-819.55 449.93-1258v-0.33l0.27-2.09c20.32-161.35 27.02-341.54-3.07-502.15-17.02-90.93-58.23-224.52-144.06-274.58-17.22-10.03-35.77-16.42-55.56-18.94-57.4-7.29-115.26 2.57-169.53 21.5l-90.07 31.44 64.22-102.7 251.75-1567.2c8.81-168.91-16.62-340.98-65.06-502.72-20.61-68.81-48.28-148.45-81.15-212.84l-46.4-90.88 125.55 62.77c-98.31-376.71-254.14-809.79-500.49-1107.5-57.61-69.6-125.52-138.09-200.88-188.6-21.25-14.24-53.67-34.27-78.4-42.29l-16.04-5.2-5.39-15.96c-124.66-368.29-340.11-692.67-639.7-941.21-89.56-74.3-186.68-141.89-288.61-198.2-37.94-20.95-80.92-43.55-121.5-59.25l-8.33-3.22-5.62-6.93c-202.94-250.2-465.01-435.59-775.3-525.59-91.74-26.6-187.32-44.75-282.64-51.82-35.39-2.61-75.79-4.66-111.36-2.05l-5.7 0.43-5.51-1.5c-64.15-17.34-130.11-27.81-196.33-32.94-217.66-16.89-447.63 22.35-656.4 83.18-100.79 29.36-212.34 67.06-307.86 111.75l-4.59 2.16-5.02 0.69c-654.89 90.51-1258.6 359.23-1687.2 873.63-122.13 146.62-227.4 310.67-307.08 484.2-30.04 65.43-63.1 144.19-81.17 214.38l-3.84 14.87-13.75 6.81c-355.21 176.09-564.98 486.49-657.24 864.74-31.84 130.55-48.98 266.21-52.34 400.53-0.89 35.43-1.21 73.28 0.25 110.39l69.71-51.12-12.31 80.03c-17.83 115.79-31.03 232.32-40.85 349.06-32.01 380.15-30.17 768.13-9.56 1149 9.45 174.52 21.88 353.31 42.83 527.07l47.12 108.11-38.15 9.95-7.24 1.97-7.4-1.3c-159.94-28.23-251.27 51.38-287.95 206.21-19.56 82.58 6.02 247.78 19.57 331.74 27.87 172.61 66.81 345.44 107.8 515.38 70.06 290.49 149.26 581.48 234.53 867.98l0.98 3.31 0.29 3.44c13.36 158.16 77.51 469.89 259.77 517.14l20.92 5.43 3.71 21.29c25.37 145.84 52.42 291.68 83.49 436.42 23.52 109.6 49.21 221.47 82.79 328.46 100.77 321.09 313.24 636.87 523.48 896.71 64.98 80.3 132.55 158.53 202.11 234.87l5.23 5.74 2.18 7.46c3.18 10.88 6.28 21.79 9.3 32.72l4.62 16.65-1183.2 1461.7-8.11 3.24c-413.38 165.35-826.72 330.83-1240 496.4-245.28 98.27-490.54 196.56-735.74 295.02l0.06 0.09c123.56 188.55 256.9 370.13 399.29 543.99l1.94 2.36c121.18 147.82 248.91 290.06 382.75 426.28l4.85 4.95c21.16 21.49 42.48 42.83 63.94 64.02l5.32 5.23c112.26 110.58 228.61 216.98 348.83 319l5.5 4.69c21.59 18.29 43.35 36.4 65.19 54.4l13.56 11.15c21.16 17.35 42.43 34.56 63.82 51.62l13.61 10.81c22.07 17.52 44.22 34.94 66.53 52.17l4.82 3.68c75.1 57.88 151.49 114.13 229.2 168.66l0.49 0.34c22.04 15.47 44.24 30.72 66.49 45.91 6.46 4.41 12.89 8.85 19.36 13.23 20.63 13.98 41.38 27.79 62.18 41.54 7.99 5.27 15.98 10.52 23.99 15.76 20.47 13.38 41 26.67 61.63 39.82 7.94 5.06 15.92 10.06 23.88 15.09 21.14 13.35 42.32 26.65 63.63 39.76 5.36 3.29 10.76 6.51 16.13 9.79 71.37 43.58 143.66 85.76 216.85 126.57 8.76 4.89 17.48 9.83 26.27 14.68 19.48 10.74 39.08 21.3 58.69 31.84 11.43 6.16 22.88 12.31 34.36 18.39 18.86 9.99 37.79 19.87 56.76 29.68 12.2 6.31 24.44 12.56 36.68 18.79 18.75 9.53 37.53 19.03 56.38 28.38 12.81 6.35 25.68 12.6 38.54 18.86 18.57 9.06 37.12 18.13 55.79 27.01 12.43 5.92 24.96 11.66 37.43 17.49 36.56 17.09 73.3 33.84 110.24 50.25 12.23 5.43 24.41 10.96 36.68 16.33 18.01 7.86 36.14 15.51 54.23 23.22 14.65 6.23 29.3 12.49 44 18.62 17.63 7.35 35.32 14.55 53.02 21.74 15.5 6.29 31.01 12.55 46.58 18.72 17.13 6.8 34.3 13.52 51.5 20.17 16.64 6.44 33.33 12.77 50.03 19.06 16.6 6.26 33.2 12.51 49.87 18.64 17.56 6.45 35.2 12.73 52.83 19.03 16.06 5.73 32.07 11.54 48.18 17.15 25.47 8.86 51.06 17.48 76.68 26.03 18.81 6.28 37.68 12.42 56.57 18.53 21.96 7.09 43.92 14.18 65.99 21.04 15.19 4.73 30.46 9.28 45.71 13.9 19.45 5.89 38.92 11.75 58.45 17.46 15.62 4.56 31.29 9 46.96 13.45 19.32 5.49 38.68 10.9 58.09 16.2 15.83 4.34 31.68 8.62 47.56 12.83 19.82 5.26 39.7 10.36 59.59 15.43 15.27 3.88 30.51 7.8 45.82 11.57 22.53 5.56 45.16 10.9 67.79 16.21 12.69 2.99 25.35 6.08 38.07 8.99 34.62 7.91 69.35 15.52 104.18 22.86 10.97 2.32 22.01 4.44 33 6.7 24.79 5.09 49.6 10.1 74.49 14.89 14.26 2.75 28.57 5.34 42.86 7.99 22.12 4.1 44.26 8.13 66.45 12 14.77 2.58 29.57 5.07 44.37 7.54 22.05 3.68 44.13 7.23 66.26 10.69 14.62 2.28 29.24 4.55 43.88 6.73 23.37 3.48 46.81 6.76 70.25 9.99 13.22 1.82 26.43 3.71 39.67 5.45 29.24 3.83 58.56 7.38 87.93 10.81 7.56 0.89 15.08 1.88 22.66 2.74 36.62 4.16 73.35 7.94 110.16 11.47 11.25 1.07 22.55 1.97 33.81 2.99 25.94 2.34 51.9 4.6 77.94 6.63 14.07 1.1 28.17 2.05 42.26 3.06 23.68 1.69 47.4 3.27 71.15 4.7 14.42 0.87 28.85 1.66 43.3 2.44 23.79 1.27 47.64 2.36 71.49 3.38 14.36 0.61 28.73 1.2 43.11 1.72 25.43 0.92 50.93 1.55 76.43 2.16 12.32 0.3 24.61 0.67 36.94 0.9 37.86 0.73 75.82 1.07 113.85 1.07 39.23 0 78.37-0.4 117.43-1.11 12.49-0.22 24.92-0.67 37.38-0.97 26.45-0.63 52.89-1.28 79.26-2.24 15.4-0.55 30.74-1.33 46.11-2 23.36-1.02 46.72-2.04 70.01-3.31 16.45-0.9 32.87-1.97 49.28-2.99 22.12-1.38 44.23-2.77 66.29-4.38 16.93-1.22 33.82-2.59 50.71-3.95 21.6-1.75 43.18-3.55 64.71-5.51 17.1-1.55 34.17-3.2 51.22-4.89 21.19-2.1 42.36-4.3 63.48-6.61 17.03-1.86 34.05-3.77 51.05-5.76 21.26-2.5 42.48-5.13 63.67-7.84 16.75-2.14 33.48-4.28 50.18-6.55 21.48-2.91 42.91-6.01 64.32-9.14 16.3-2.39 32.61-4.73 48.86-7.24 21.89-3.37 43.7-6.97 65.51-10.57 15.67-2.58 31.38-5.08 47.01-7.79 23.13-3.99 46.16-8.24 69.2-12.49 14.18-2.61 28.39-5.1 42.53-7.8 27.44-5.25 54.78-10.82 82.1-16.42 9.71-1.99 19.48-3.84 29.17-5.87 36.21-7.61 72.31-15.56 108.3-23.78 14.77-3.37 29.45-6.99 44.19-10.47 21.7-5.12 43.43-10.21 65.05-15.55 16.6-4.11 33.12-8.44 49.67-12.68 19.64-5.03 39.3-10.02 58.86-15.23 17.09-4.55 34.1-9.29 51.14-13.98 19.02-5.23 38.03-10.48 56.99-15.89 17.26-4.93 34.46-9.99 51.67-15.07 18.33-5.4 36.65-10.84 54.92-16.41 17.51-5.34 34.98-10.78 52.44-16.26 18.11-5.7 36.18-11.46 54.22-17.3 17.34-5.63 34.65-11.31 51.93-17.09 17.87-5.97 35.7-12.04 53.5-18.16 17.34-5.96 34.67-11.96 51.94-18.07 17.64-6.24 35.21-12.61 52.76-19 17.21-6.26 34.43-12.5 51.56-18.91 17.26-6.45 34.42-13.07 51.6-19.66 17.54-6.73 35.1-13.41 52.56-20.29 15.98-6.3 31.87-12.8 47.79-19.22 18.37-7.41 36.78-14.75 55.06-22.32 14.24-5.91 28.37-12.02 42.56-18.02 72.36-30.63 144.03-62.56 214.99-95.77 12.88-6.02 25.81-11.94 38.65-18.05 19.63-9.35 39.11-18.93 58.62-28.48 13.12-6.41 26.29-12.76 39.35-19.26 19.19-9.55 38.26-19.31 57.34-29.04 13.5-6.88 27.02-13.73 40.47-20.72 18.76-9.74 37.42-19.66 56.07-29.58 13.3-7.08 26.61-14.16 39.86-21.33 19-10.29 37.92-20.71 56.81-31.19 12.62-7 25.21-14.02 37.77-21.1 19.1-10.77 38.14-21.64 57.12-32.59 12.29-7.11 24.55-14.26 36.8-21.45 19.12-11.21 38.2-22.49 57.19-33.9 11.67-7.01 23.29-14.1 34.91-21.19 19.39-11.82 38.76-23.67 58-35.69 10.66-6.66 21.24-13.41 31.85-20.13 20.28-12.82 40.54-25.66 60.66-38.71 8.19-5.32 16.32-10.74 24.49-16.1 22.14-14.5 44.27-29.04 66.22-43.81 3.54-2.39 7.04-4.84 10.58-7.23 107.58-72.74 212.76-148.73 315.5-227.76 5.2-4.01 10.45-7.95 15.65-11.97 21.25-16.46 42.33-33.14 63.37-49.86 7.09-5.63 14.21-11.22 21.27-16.88 20.18-16.18 40.21-32.54 60.19-48.96 7.69-6.32 15.4-12.62 23.07-18.98 19.59-16.27 39.06-32.68 58.46-49.17 7.82-6.64 15.64-13.3 23.42-19.98 19.45-16.71 38.8-33.54 58.05-50.47 7.21-6.34 14.38-12.69 21.56-19.06 19.61-17.41 39.13-34.93 58.53-52.58 6.62-6.02 13.21-12.08 19.8-18.14 19.9-18.27 39.73-36.62 59.39-55.13 5.31-5 10.56-10.05 15.85-15.06 20.86-19.77 41.63-39.62 62.22-59.67 2.95-2.88 5.88-5.8 8.82-8.69 145-141.76 283.21-290.45 414.14-445.49l5.08-5.98c19.59-23.26 38.97-46.7 58.23-70.25l10.36-12.64c18.46-22.68 36.73-45.51 54.87-68.46l11.72-14.81c17.85-22.7 35.53-45.53 53.08-68.47l11.84-15.55c17.62-23.2 35.11-46.52 52.42-69.97l10.13-13.79c17.77-24.21 35.4-48.52 52.84-72.98l7.44-10.54c18.19-25.64 36.25-51.38 54.06-77.3l2.87-4.21c117.22-170.79 226.28-347.63 326.64-529.92l0.4-0.72z"/>
  <path class="fil1" d="m17677 9296.8 238.85-1065.9s131.9-281.63 249.54-281.63c117.65 0 231.72 238.84 178.24 534.73-53.47 295.89-409.96 723.68-409.96 723.68s363.62-613.17 320.84-805.67c-42.78-192.51-236-133.64-315.49-26.74-79.5 106.9 40.99 310.15 37.43 427.79-3.57 117.64-94.51 87.73-161.89 134.15-67.39 46.42-137.57 359.59-137.57 359.59z" style="fill:#c67d6a"/>
  <path class="fil4" d="m15978 5369.3s94.48-3.57 94.48 114.08c0 117.64-30.3 194.28-92.69 108.73s-42.78-181.81-1.79-222.8zm-540.94 3629s82-55.25 156.85 14.26c74.87 69.52 181.81 171.11 135.47 221.02-46.34 49.92-292.32-235.28-292.32-235.28zm156.84-1292.3s10.69-0.9 125.67 15.15 340.45 4.45 368.97 21.39-290.53 103.39-494.63-36.54zm-589.1 1318.1s82.89-5.35 77.54 104.28c-5.35 109.62-122.11 73.98-111.41 19.61 10.69-54.37 39.22-67.74 33.87-123.89zm-615.86-60.59c20.5 16.94 90.01 75.76 77.54 178.24-12.48 102.5-57.93 147.05-93.58 106.06s-58.83-81.1-26.74-114.08c32.09-32.97 25.84-53.47 7.13-80.21-18.72-26.74 7.13-74.87 35.65-90.02zm-35.64-891.21c12.47 3.57 53.46-12.47 42.77 196.07-10.69 208.55-40.99 431.34-46.34 304.8-5.35-126.55 3.57-500.87 3.57-500.87zm1685.3-1400.1-323.33-93.64s186.08-95.3 289.47-79.26c103.38 16.04 297.88 51.07 345.79 105.16 47.92 54.08 69.52 121.22 69.52 121.22z"/>
  <path class="fil5" d="m10223 14800 1115.7-134.15-132.48 259.23 2399.4 1754.8-2.99 3.48c-1320.8-263.58-2493.5-937.45-3379.6-1883.3zm-620.22-775.33c238.34-95.73 476.75-191.28 715.18-286.81 319.05-127.85 638.14-255.6 957.23-383.3l119.56-47.84-1191.6 1472.1c-218.53-235.43-419.21-487.62-600.32-754.18zm6198 267.66c271.54-441.83 541.5-884.74 808.71-1329.2 194.67-323.81 388.72-648.59 576.76-976.29 66.76-116.33 133.3-233.37 196.15-351.85 20.44-38.56 40.71-77.48 59.35-116.95 9-19.06 21.24-44.19 26.56-64.56 32.94-125.93 19.34-258.67-77.83-352.27l-9.57-9.21-0.66-13.28c-2-40.28-3.56-80.59-4.57-120.91l-1.93-77.2 57.74 51.28c67.64 60.08 124.56 132.1 170.01 210.19 60.07 103.2 116.21 211.22 172.37 316.66 88.72 166.6 176.59 333.68 264.25 500.83 143.57 273.82 286.49 548 428.93 822.4l6.88 13.24-967.95 2585.8-1722.8-1060.1 17.54-28.55zm-3836.5-850.88-568.72 1112.9-972.31 116.92 2319.3-2865.2 14.1 69.87c70.1 347.4 98.67 716.25 112.19 1070.2l0.15 3.81-0.71 3.75c-70.92 371.95-136.57 746.26-195.27 1120.3-26.96 171.77-52.58 344.18-74.08 516.82 74.76-79.88 125.3-229.78 150.46-313.02l25.49-84.28 37.05 79.87c133.03 286.84 282.37 569.67 432.17 848.1 213.44 396.72 434.31 790.26 659.25 1180.6l11.96 20.75-15.75 18.05c-68.79 78.83-137.45 157.76-205.91 236.86l-20.22 23.35-2335.1-1707.8 13.01-25.45c46.71-91.4 101.94-180.85 153.52-269.72 69.1-119.04 135.54-239.02 195.54-362.97 123.13-254.3 215.94-517.57 263.86-793.79zm3726.6 1029.3 3.03-4.91c5.73-9.28 11.47-18.58 17.19-27.86l17.59-28.53 1829.8 1126c329.9-881.12 659.79-1762.2 989.53-2643.4l12.09-32.31 31.95 12.98c589.71 239.7 1178.3 484.91 1763.8 736.37-1092.1 1909.9-3148.8 3197.2-5506.4 3197.2-390 0-771.68-35.43-1142.2-102.91l7.09-8.05c266.18-301.95 533.45-602.99 800.79-903.89 390.75-439.79 782.39-878.77 1173.5-1318.2l2.18-2.45z"/>
  <path class="fil6" d="m10223 14800 1115.7-134.15-132.48 259.23 2399.4 1754.8-2.99 3.48c-1320.8-263.58-2493.5-937.45-3379.6-1883.3zm-533.36-650.56c541.86-216.6 1248.2-493.61 1503.4-593.54l-989.93 1223c-184.15-198.39-355.65-408.69-513.46-629.41zm1068.4 481.59 1998.1-2758.1 0.6 2.97c70.1 347.4 98.67 716.25 112.19 1070.2l0.15 3.81-0.71 3.75c-70.92 371.95-136.57 746.26-195.27 1120.3-26.96 171.77-52.58 344.18-74.08 516.82 74.76-79.88 125.3-229.78 150.46-313.02l25.49-84.28 37.05 79.87c133.03 286.84 282.37 569.67 432.17 848.1 213.44 396.72 434.31 790.26 659.25 1180.6l11.96 20.75-15.75 18.05c-68.79 78.83-137.45 157.76-205.91 236.86l-20.22 23.35-2335.1-1707.8 13.01-25.45c46.71-91.4 101.94-180.85 153.52-269.72 69.1-119.04 135.54-239.02 195.54-362.97 123.13-254.3 215.94-517.57 263.86-793.79l-568.72 1112.9-637.61 76.66zm5340.1-116.42 1511.1-2565.8s527.6 912.62 527.6 983.91c0 65.09-769.04 1952.4-903.02 2280.7l-1135.6-698.83zm790.03 608.24-569.46-243.69s-663.08 955.39-762.89 1055.2c-99.81 99.83-1468.7 805.67-1468.7 805.67s841.31-655.95 905.49-734.36c64.18-78.43 178.24-356.49 178.24-356.49l-295.66-262.34c271.17-304.61 542.55-609.03 813.69-913.66l2.18-2.45 3.03-4.91c5.73-9.28 11.47-18.58 17.19-27.86l17.59-28.53 1159.3 713.41z"/>
  <path class="fil1" d="m11510 8460.9s-183.16-498.2-96.26-714.76c86.9-216.57 122.99-224.59 122.99-224.59l126.57 1192.5-142.6-855.57s-190.72-130.13-10.69 602.47z" style="fill:#c67d6a"/>
  <path class="fil7" d="m15377 7595.4s216.83-203.83 391.33-175.26c174.49 28.57 642.51 218.04 642.51 218.04l-50.29 54.5s-619.93 141.56-983.54-97.28zm-2831.4 24.05s289.64-230.81 543.65-224.58c254 6.23 454.24 107.24 454.24 107.24l-12.19 99.54s-665.76 269.15-985.7 17.81z"/>
  <path class="fil8" d="m16192 7719.9c-176.68 20.78-459.92 32.11-690.96-60.61-11.54-31.64-8.04-61.33 24.25-82.56 113.9-74.87 631.02 8.94 664.88 87.37 6.98 16.15 6.68 35.41 1.83 55.8zm-3483.9-20.39c12.33-52.11 63.63-135.48 261.12-162.91 295-41 367.18-39.22 398.38 54.36 7.5 22.49 9.78 43.63 8.95 62.78-170.3 49.69-448.76 108.41-668.45 45.78z"/>
  <path class="fil9" d="m13393 4350.4s-299.45 206.76-427.79 491.95c-128.34 285.2-21.39 1368.9-85.55 1440.2-64.17 71.3-171.12 78.44-270.94 142.59-99.81 64.17-163.97 163.98-39.21 221.02 124.78 57.05 1071.2 146.19 1071.2 146.19l-90.91-352.92s454.54 299.44 508.01 595.33 35.64 481.26 35.64 481.26 264.7-147.05 371.65-16.93c22.25 27.07 41.18 62.8 57.21 102.39l0.02 0.02s107.63-704.07 229.74-794.94c122.11-90.86 461.84-194.15 461.84-194.15l962.34 277.93 586.43 35.65 189.94 320.15 45.35 232.41s-80.22 94.47-315.5-203.2-708.83-325.91-814.58-269.15-115.87 262.02-155.07 265.58c-39.21 3.57-137.26-17.82-186.27 1.79-49.01 19.6-88.23 66.84-88.23 66.84s289.62 19.62 589.07 57.05 465.54 143.43 537.12 276.26c71.58 132.84 116.15 138.18 153.57 166.7 37.43 28.52-176.69 137.28-303.02-12.48-126.33-149.75-344.93-360.93-534.76-393.9-189.83-32.98-313.72-19.59-534.75 106.96-221.03 126.56-274.5 124.79-310.15 21.39-35.65-103.39-263.83-149.73-345.82 7.13-81.99 156.85-21.37 443.84-21.37 443.84l114.08 254.89-171.12-135.47s-8.91 99.81-62.39 112.29c-53.47 12.48-45.32-94.55-45.32-94.55s10.21-248.29-17.84-339.57c-17.44-56.72-140.23-126.23-251.03-100.96-28.12 12.46-58.17 29.76-90.33 52.91 0 0-73.98 73.1-68.63 163.1 0 0-4.48 722.79-25.87 760.22s-252.49 241.54-155.07 500.87c97.43 259.32 413.54 333.29 625.65 206.74 212.12-126.56 311.93-153.28 488.4-53.47 176.46 99.82 299.46-131.91 158.64-281.63s-201.43-388.59-78.44-279.85c123 108.74 450.99 529.39 395.74 545.44-55.26 16.05-162.2-160.41-181.81-115.86-19.6 44.56 37.43 317.26-262.02 390.34-299.46 73.08-377.89 463.43-532.96 511.56-155.06 48.14-306.59-80.2-474.13-46.34-167.54 33.87-436.92 188.39-474.12 249.55-37.21 61.17 146.88 110.78 146.88 110.78l1584.8 110.24 52.56 16.93s120.33-8.03 158.64-106.07c38.32-98.04 232.61 57.05 125.67 180.92-106.95 123.89-240.64-81.11-360.06-61.49-119.43 19.61-1389.5 221.53-1389.5 221.53s67.83 247.23 488.48 266.84c420.64 19.6 641.67-133.7 695.15-83.78 53.48 49.91-235.26 536.5-743.26 484.81s-957.19 629.19-415.32 1010.6c541.86 381.45 1436.6-42.78 1436.6-42.78s1222.8-741.5 1222.8-695.17c0 46.35-606.03 1169.3-1333.3 1483-727.24 313.7-1276.2-342.24-1490.1-171.12-213.89 171.12-349.36 698.74-527.6 848.45-178.24 149.72-427.79 185.37-427.79 185.37s21.4-691.6 128.35-1219.2l-44.46-362.29c22.55 44.24 36.56 79.39 40.09 103 35.65 238.86 106.95 830.62 106.95 830.62 225.99-533.39-32.1-1582.8-32.1-1582.8l-607.18-628.99c-32.45-51-65.5-106.35-98.61-166.17-13.05-46.9-33.18-118.54-64.23-227.97-91.06-320.92-392.14-2481.2-392.14-2481.2l-179.13-393.48c-70.96-888.69-98.1-1607.4-98.1-1607.4l698.74-2281.5 1150.5 295.01zm-813.44 3292.4s319.05-304.8 618.51-253.11c299.45 51.7 402.85 151.51 402.85 151.51l-16.05 62.38-130.15 36.15s-358.26 115.37-875.16 3.07zm-137.26-253.11s62.39-299.45 360.06-352.93 374.88 75.16 347.58 126.56c-27.29 51.4-627.43 140.81-707.63 226.37zm303.01 443.83s58.82-51.69 153.29-51.69 456.31-33.87 481.26-16.04c24.95 17.82-311.94 295.89-634.56 67.73zm2545 19.44s89.13-30.3 247.77 32.09c158.63 62.39 616.72 44.57 586.42 96.26s-454.52 249.54-834.19-128.35zm-1834.9 406.37s46.34 449.17 7.13 577.51-463.43 680.9-823.5 698.72c-360.06 17.83-320.83-577.51-292.31-787.83 28.51-210.32 249.55-303.03 409.97-317.28 313.3-27.85 638.68-169.26 698.72-171.11zm219.83 778.88c-6.78 47.8-4.2 105.81 25.23 163.13 69.51 135.47-29.49 215.99-130.13 147.94-93.18-63.01-39.18-250.69 26.13-319.69 108.44-114.61 86.65-46.97 78.77 8.61z"/>
  <path class="fil10" d="m13232 6826.2 247.21-319.26s326.01 190.5 447.12 338.25c121.13 147.74 150.54 1328.5 104.2 1382s-75.65-217.53-139.03-417.1c-63.38-199.55-146.16-329.74-208.55-347.57-62.38-17.83-75.01 19.37-23.52 69.07 51.49 49.71-57.93 62.32-97.69 37.88-39.77-24.44-90.03-173.79-316.4-205.88-226.38-32.09-611.38 156.85-657.73 215.68-46.35 58.82 37.43 81.99 37.43 81.99l144.37 12.48 49.92 48.13s-42.79-19.59-247.77 19.62c-204.97 39.21-242.4-23.18-233.49-53.48s95.41-52.42 142.59-71.3c47.19-18.87 238.85-147.94 238.85-147.94s-71.31 10.7-105.17 19.61c-33.87 8.91-195.97 93.31-195.97 93.31s115.77-155.68 201.32-207.38c85.56-51.7 531.17-128.34 620.29-160.41 89.13-32.09-194.28-304.8-194.28-304.8l186.28-82.9zm822.83 4204s354.42 54.15 567.03 14.26c212.61-39.9 352.72 133.69 19.39 215.67-333.32 82-573.95 28.52-586.42-229.93zm1329.6-486.51s112.33-33.82 145.38-80.31c33.05-46.48 141.47 63.86 66.84 131.91-74.64 68.05-212.22-51.6-212.22-51.6zm-1654-72.29s-224.58 37.45-331.53-103.37-340.45-110.53-201.42 153.28c139.04 263.8 532.95-49.92 532.95-49.92zm-172.05-1600.6s71.73 5.04 0 142.59-83.77 352.92 5.35 385.01 178.25-99.82 295.89-81.99c117.65 17.82 238.87 171.11 415.34 201.41 176.45 30.3 431.34-196.07 545.43-188.94s286.21 90.99 342.23 74.87c56.03-16.12 67.75-294.1-1.77-426-69.51-131.9-32.08-194.28 51.7-69.52 83.78 124.78 301.24 409.98 254.89 393.93-46.35-16.04-133.31-162.22-164.69-93.59-31.38 68.64-156.15 373.44-247.06 352.04-90.91-21.39-311.93-137.25-438.48-57.03-126.56 80.21-376.1 178.23-488.39 99.82-112.3-78.43-133.69-156.85-372.54-110.52-238.85 46.34-297.68-153.29-301.24-238.85-3.57-85.56-53.47 71.3-96.25 49.91-42.79-21.39 199.6-433.13 199.6-433.13zm-756.7-943.86s29.42-20.49 152.4-15.15c122.99 5.34 300.33-78.43 360.94-67.74 60.61 10.7-128.34 228.16-513.34 82.89zm2584.6-12.49s63.26-16.04 190.71 20.5 346.69 54.38 320.84 96.26c-25.84 41.89-352.03 79.32-511.55-116.76zm-773.6-520.48c0-10.7 103.38-436.7 285.19-531.17 181.81-94.48 1828.8 103.38 1828.8 103.38l188.94 388.57s28.51 149.73-281.63-94.46c-310.14-244.2-786.1-284.15-869.86-232.98-83.75 51.17-119.41 179.5-187.14 193.76s-203.19 55.26-203.19 55.26l-58.08 118.12s99.08-128.82 603.51-66.43 720.1 288.76 718.32 310.15-122.99-32.08-228.15-71.3c-105.17-39.22-120.89-32.77-120.89-32.77s241.94 106.2 299.05 179.91 164.06 129.14 164.06 129.14-247.75 35.65-376.09-131.91c-128.34-167.55-276.63-282.91-443.83-326.19-167.21-43.27-388.38 96.04-552.46 137.15s-185.47 66.05-169.43-17.72c16.04-83.78-64.67-158.8-279.84-137.25-215.18 21.55-235.28 349.36-288.76 349.36s-28.54-322.62-28.54-322.62z"/>
  <path class="fil10" d="m13446 10483-56.19-37.44s501.81-281.63 647.97-263.8c146.15 17.83 304.79 85.57 386.79 98.04 82 12.48 311.07-121.24 425.14-96.28 114.08 24.95 616.72 349.37 616.72 349.37l-142.63 65.08s-931.26 781.58-1877.8-114.97z"/>
  <path class="fil9" d="m15090 10746c-156.11 80.18-380.36 163.63-641.91 167.25-47.9-16.04-91.21-43.2-98.53-89.18-17.49-109.91 463.41-303.06 670.21-229.93 92.3 32.64 116.35 91.18 70.23 151.85z"/>
  <path class="fil1" d="m15422 7601.5c-15.68 45.87-1.76 38.5-1.76 38.5l49.98 14.92 33.6 24.84s-60.08-4.51-67.2-4.09-207.9 47.5-207.9 47.5-12.55-76.5 7.29-103.55c19.83-27.06 257.8-231.21 488.02-248.32 230.22-17.1 693.29 220.82 719.66 244.27 26.38 23.45 121.63 124.98 121.63 124.98s-127.49 3.03-148.99 1.63c-21.52-1.41-70.66-17.27-70.66-17.27l-102.47 3.34 113.62-56.68s-383.72-195.77-576.87-215.14c-121.63-12.2-342.27 99.22-357.95 145.07z"/>
  <path class="fil1" d="m13484 7562c14.71 45.97 1.44 38.51 1.44 38.51l-47.89 14.59-32.27 24.62s57.47-4.12 64.28-3.65c6.8 0.46 198.5 48.85 198.5 48.85s12.48-76.42-6.32-103.6c-18.8-27.19-245.09-232.88-465.12-251.48-220.04-18.61-664.32 216.3-689.69 239.57-25.36 23.28-117.08 124.19-117.08 124.19s121.89 3.86 142.46 2.6c20.58-1.27 67.67-16.81 67.67-16.81l97.97 4.01-108.3-57.42s368.14-193.27 552.96-211.39c116.38-11.4 326.67 101.45 341.38 147.41z"/>
  <path class="fil1" d="m15112 7515.4s195.41-168.62 481.48-192.58 765.55 113.92 858.19 170.96 156.15 165.79 156.15 165.79-109.37-129.27-230.47-154.28c-121.11-25.02-548-194.54-938.58-110.89 0 0-129.85 23.71-326.78 121z"/>
  <path class="fil1" d="m13781 7477.9s-185.82-169.88-459.21-195.7c-273.4-25.83-732.75 108.93-821.69 165.36-88.94 56.45-150.35 164.78-150.35 164.78s105.39-128.56 221.34-152.78c115.97-24.24 525.23-190.98 898.19-104.78 0 0 124.02 24.55 311.73 123.12z"/>
  <path class="fil1" d="m15646 7444.7s-47.43 165.28 98.17 272.79c0 0 121.31 28.59 240.21 16.24 0 0 162.45-46.16 161.51-183.59 0 0-272.35-198.25-499.89-105.44z"/>
  <path class="fil1" d="m13271 7403.7s44.32 165.58-95.57 272.14c0 0-116.18 27.8-229.8 14.68 0 0-155.05-47.22-153.3-184.64 0 0 261.66-196.47 478.67-102.18z"/>
  <path class="fil1" d="m14913 7059.6s-51.68-383.23 301.24-541.86c0 0-90.91 64.17-105.17 279.85 0 0 90.91-196.08 153.29-238.85 62.39-42.78 201.41-71.3 201.41-71.3s-121.21 46.34-160.41 119.42c-39.22 73.09-62.39 119.43-62.39 119.43s137.26-192.49 420.65-203.19c0 0-142.59 26.73-229.93 163.98 0 0 240.63-119.44 368.97-121.21 128.34-1.78 584.65 82 584.65 82l229.93 192.49-183.59-197.85s600.73 265.62 513.39 737.96c0 0 16.05-322.63-554.33-319.06-570.39 3.56-1258.4 0-1258.4 0l33.87-58.83-153.29 99.82-48.13-85.55-49.91 103.38-1.84-60.63z"/>
  <path class="fil1" d="m13762 7005.3s49.04-383.23-285.89-541.86c0 0 86.27 64.17 99.81 279.85 0 0-86.27-196.08-145.47-238.86-59.21-42.77-191.15-71.29-191.15-71.29s115.04 46.34 152.24 119.42c37.22 73.08 59.21 119.43 59.21 119.43s-130.27-192.5-399.23-203.19c0 0 135.34 26.73 218.22 163.97 0 0-228.37-119.43-350.16-121.21-121.8-1.78-554.86 82-554.86 82l-218.2 192.5 174.23-197.85s-513.08 155.1-419.51 720.13c0 0-82.97-304.8 458.35-301.24l26.93 0.17c64.64-13.76 141.38-27.48 229.47-38.79 171.38-22.01 299.92 8.89 379.62 40.18 313.78-0.22 558.26-1.56 558.26-1.56l-32.14-58.82 145.47 99.82 45.68-85.56 47.37 103.39 1.74-60.63z"/>
  <path class="fil1" d="m14918 6605.1s-50.8 77.54-64.17 228.16c-13.37 150.61 21.39 290.53 21.39 290.53s-202.31-237.06 42.78-518.69z"/>
  <path class="fil1" d="m13758 6550.8s48.21 77.55 60.9 228.16-20.3 290.54-20.3 290.54 192-237.07-40.6-518.7z"/>
  <path class="fil1" d="m14707 6800.3s-3.57 134.57 81.99 229.04c0 0-167.54-90.91-81.99-229.04z"/>
  <path class="fil1" d="m13957 6746s3.39 134.57-77.82 229.03c0 0 159-90.91 77.82-229.03z"/>
  <path class="fil1" d="m13390 10446s114.08 28.52 158.63 28.52c44.56 0 440.26-163.99 525.83-158.63 85.56 5.35 267.37 98.04 344.02 96.26 76.65-1.79 340.45-79.34 408.19-69.53s393.93 173.79 442.94 180.92c49.03 7.13 248.66-0.88 256.68 5.35 8.02 6.24 26.75 37.44 23.18 47.24-3.56 9.8-62.39 0-62.39 0s-137.26 20.5-163.1 22.28-134.57-35.65-162.19-42.78c-27.64-7.13-542.72 65.05-795.83 63.27-253.12-1.77-711.2-89.11-729.03-90.9-17.82-1.78-94.47-1.78-139.04 0-44.56 1.78-124.79-40.1-131.02-57.92-6.23-17.83-5.34-35.65-5.34-35.65z"/>
  <path class="fil0" d="m13881 10429s92.7 73.09 155.08 85.57c62.38 12.47 766.44 3.56 796.75-10.7s140.81-53.48 140.81-53.48-160.41-58.81-224.58-46.34c-64.18 12.48-299.45 51.68-347.59 49.91-48.13-1.78-256.67-57.04-313.71-57.04s-172.89 41-206.77 32.08z"/>
  <path class="fil1" d="m14534 9510.6s116.77-124.77 241.53-132.79c124.78-8.03 188.05 57.93 188.05 57.93s-132.34-45.02-191.61-8.03c-59.27 37-54.66 0-123.89 20.95-69.24 20.95-114.09 61.94-114.09 61.94z"/>
  <path class="fil1" d="m14092 9540.1s-96.78-124.77-200.18-132.79c-103.41-8.03-155.86 57.93-155.86 57.93s109.69-45.02 158.81-8.03c49.13 37 45.3 0 102.68 20.95s94.56 61.94 94.56 61.94z"/>
  <path class="fil1" d="m15007 9476.7s381.46 44.55 203.2-486.62c0 0 137.26 459.87-203.2 486.62z"/>
  <path class="fil1" d="m13676 9490.6s-316.15 44.54-168.42-486.63c0 0-113.76 459.88 168.42 486.63z"/>
  <path class="fil11" d="m17887 7693.1c0.77-0.87 267.91-308.29 539.74-274.04 24.36 3.15 47.17 10.96 68.23 23.24 74.43 43.4 132.07 147.47 160.13 297.38 24.82 132.49 29.2 307.53 3.38 512.51v0.33c-44.48 352.99-179.02 798.86-454.48 1272.8-29.23 71.83-287.85 662.31-759.84 297.02l104.27-135.02c318.66 246.6 498.79-229.25 499.31-230.6l2.68-6.9 3-5.14c264.96-454.44 393.82-879.11 435.95-1213.6 23.47-186.15 19.87-343.02-2.04-460.04-18.67-99.66-46.57-162.78-77.93-181.06-2.02-1.18-3.29-1.82-3.72-1.86h-0.33c-180.89-22.79-390.09 217.22-390.69 217.9l-127.67-112.97z"/>
  <path class="fil11" d="m15817 12067c3.28-2.4 1143-834.49 1376.2-1403.8 238.79-582.99 774.14-3288 775.68-3295.8l167.77 32.76c-1.55 7.83-539.71 2727.3-785.7 3327.8-251.62 614.28-1429.6 1474.1-1433 1476.6l-100.95-137.7z"/>
  <path class="fil11" d="m17291 11602c-0.27-2.08-99.19-723.8-25.16-1147.4l168.43 29.41c-69.66 398.74 21.65 1063.7 21.92 1065.7z"/>
  <path class="fil11" d="m11637 7566.4c0.85 6.34 250.02 2215.7 458.35 2879.6 87.19 277.82 275.69 574.53 499.34 850.94 297.56 367.76 655.11 696.73 921.83 899.75l2.01 1.66c168.15 137.09 468.13 230.05 783.34 271.78 335.22 44.37 682.71 30.01 905.26-51.3 175.42-64.09 611.96-352.98 613.22-353.81l94.25 142.37c-1.3 0.86-454.03 300.51-649.32 371.86-247.64 90.47-625.52 107.63-985.45 59.98-342.39-45.33-673.02-149.98-866.88-306.89-275.98-210.01-645.17-549.49-951.27-927.79-235.44-290.98-434.9-606.59-529.42-907.76-212.32-676.55-463.51-2901.2-464.36-2907.6l169.1-22.73z"/>
  <path class="fil11" d="m12841 13571c0.09-3.53 35.79-1227.2-181.75-1948.8l163.77-48.79c225.06 746.57 190.17 1680.6 190.07 1684.2z"/>
  <path class="fil11" d="m9525.2 13909c744.36-298.9 2010-805.16 2014.9-807.11l62.83 158.42c-4.8 1.91-1233 493.2-1981.1 793.59-32.88-47.83-65.12-96.14-96.7-144.9z"/>
  <polygon class="fil11" points="11419 14518 11439 14688 10104 14849 12702 11639 12834 11747 10501 14629"/>
  <path class="fil11" d="m11381 14884 2330 1704-100.94 137.69-2447-1789.6 860.18-1683.3c-72.86 776.22-493.9 1341-642.2 1631.2z"/>
  <path class="fil11" d="m13005 12972c-66.32 348.39-138.8 1550.9-448.39 1692.9 78.76-673.08 280.03-1721.9 280.61-1725z"/>
  <path class="fil11" d="m13929 16414c-2.98-5.13-1037.1-1781.9-1268-2408.9l160.41-58.82c225.96 613.63 1252.4 2377.1 1255.4 2382.2l-147.73 85.57z"/>
  <path class="fil11" d="m13565 16676c644.77-749.53 1938.7-2201.2 2017.2-2289.3 95.03-154.04 1698-2754.5 1753.6-2967.3 44.53-170.2-48.47-226.37-48.73-226.53l89.57-145.72c0.57 0.35 200.94 121.83 124.26 415.04-63.93 244.44-1773.3 3013.5-1778.2 3021.5l-4.57 7.39-4.12 4.64c-5.01 5.61-1309.4 1467.9-1967.9 2214.8-60.68-10.66-121.07-22.15-181.13-34.52z"/>
  <path class="fil11" d="m17359 10718c0.6 0.27 208.4 93.3 361.37 356.07 139.92 240.37 883.96 1675 886.1 1679.2l17.29 33.35c-349.18 933.2-698.55 1866.3-1047.9 2799.4l-1908.5-1174.4 89.58-145.72 1732.1 1065.9 948.43-2533.6c-112.21-216.15-738.94-1422.3-864.79-1638.5-125.1-214.92-283.36-285.68-283.82-285.88l70.19-155.75z"/>
  <path class="fil11" d="m18562 12713c5.61 2.27 844.7 340.82 1860.3 776.85-27.32 50.28-55.48 100.05-84.11 149.48-1004.9-430.78-1834.8-765.67-1840.4-767.92z"/>
  <path class="fil1" d="m13761 4731.9c-794.97-267.37-1149.7 142.59-1149.7 142.59s213.9-115.86 383.23-122.99c0 0-613.19 253.12-891.25 643.49l106.96-73.09-303.02 408.19 181.81-192.5s-80.21 374.33-76.65 622.09l-267.36 311.93 155.06-133.68s-199.62 265.59-222.79 329.76c-23.18 64.18-51.72 976.85-51.72 976.85l-117.67-60.72-35.65-304.68-60.61-139.04s-135.47-1112.2 7.13-2039.1l-53.48 39.22s-110.52-1055.2 723.67-1468.7c0 0 349.36-1354.7 2103.3-1597.1 0 0 655.95-306.58 1183.6-163.98 0 0 677.32-49.91 1197.8 591.78 0 0 755.75 292.31 1069.5 1219.2 0 0 506.28 163.99 819.98 1433.1l-99.82-49.92s171.11 335.11 149.72 734.37l-253.11 1575.7-100.45 160.68-193.12 237.69-150.25 716.8s-73.08-1375.4-215.67-1610.7-584.65-663.08-584.65-663.08l285.2 192.51-299.46-335.11s-14.25-491.95-199.63-762.88l28.53 192.5s-110.53-345.8-830.64-452.74c-659.64-97.97-595.39-426.24-1303.3-284.92-470.13 93.88-261.2 153.26-935.46-73.51z"/>
  <path class="fil11" d="m11491 7408.8c-0.48-0.23-167.58-85.95-206.64 78.99-58.91 248.71 361.08 1648.7 362.28 1652.8l2.67 8.87 0.67 9.85c0.08 1.16 26.21 409.54 177.34 405.08l4.67 170.44c-292.65 8.65-345.22-477.47-351.69-554.05-35.32-118.66-428.8-1452-362.39-1732.4 89.28-376.92 448.26-192.46 449.29-191.95l-76.21 152.4z"/>
  <path class="fil1" d="m14479 7224.6c85.76-24.26 550.36-163.05 746.65-189.97s1825.1 18.49 1825.1 18.49l833.91 38.9-34.36 277.79-135.11 38.02-268.1 5.03-358.57 253.75s-30.27 648.6-259.37 764.37c-229.1 115.78-1510.4 297.8-1890.1 80.8-379.69-217-307.03-818.89-566.97-856.67-259.93-37.78-321.03 22.33-397.7 242.73-76.68 220.4-141.82 556.8-368.98 651.2-227.15 94.4-1367.7 289.82-1686.2-10.24-318.44-300.07-358.99-785.44-440.63-828.9-81.64-43.45-104.25-111.37-112.73-164.91-8.48-53.55-22.81-262.21-4.71-295.93 18.1-33.73 564.5-152.27 1327.7-185.25s1097.1 73.84 1250.3 127.87c123.13 43.44 403.55 71.49 539.82 32.94zm407.04 1021.1s-258.66-629.57-171.24-857.01c87.42-227.45 1648.9-286.01 1926.7-194.58 277.83 91.43 299.3 455.2 276.63 611.88-22.67 156.67-86.11 501.97-279.27 582.38-193.16 80.42-1049.4 162.53-1348.4 103.06-298.98-59.48-404.41-245.72-404.41-245.72zm-3068.2-160.6s-222.66-672.05-4.17-798.6c218.5-126.55 1565.9-104.84 1814.6 4.15 248.66 108.98 230.98 525.94 193.91 700.33-37.07 174.38-217.55 447.41-492.51 502.2-274.95 54.8-820.73 96.68-1123.2 22.91s-388.63-430.98-388.63-430.98z"/>
  <path class="fil12" d="m13695 4375.6s-292.32-442.04-249.54-1190.7 1048.1-1044.5 1048.1-1044.5-780.71 256.66-812.8 976.78c0 0 402.83-636.34 680.89-803.89s415.32-301.23 415.32-301.23 96.25 76.64-531.17 604.25c-627.43 527.6-342.23 1982.1-342.23 1982.1s-373.38-805.25-106.96-1508c0 0-427.78 431.35-101.6 1285.2zm2866.2-1324.3s92.7 267.37 67.74 442.04c-24.95 174.67-153.28 356.49-153.28 356.49s178.23-306.58 85.55-798.53zm-228.15 1322.6s606.03-288.76 745.06-709.41c139.04-420.66-281.63-830.62-281.63-830.62s327.97 516.9 128.34 852.01c0 0 28.53-249.53-53.47-474.12-82-224.6-331.54-481.27-331.54-481.27s256.68 399.27 217.46 695.16c-39.21 295.89-292.32 705.85-292.32 705.85s310.14-292.32 356.49-552.56c0 0-7.13 424.22-488.39 794.97zm-819.93 89.1s702.28-92.68 930.44-684.46c228.15-591.78-64.17-1144.3-64.17-1144.3s114.08 655.95-67.74 1069.5c0 0 82-442.04 35.66-780.71-46.35-338.67-281.63-634.55-281.63-634.55s242.4 720.11 171.1 1080.2c-71.29 360.06-413.53 862.71-413.53 862.71s299.46-231.72 385.02-520.48c0 0-32.09 534.74-695.16 752.19zm64.16-1925s156.86 452.73 89.13 880.53c-67.73 427.78-278.06 712.98-278.06 712.98s379.4-564.57 188.93-1593.5zm-449.16 1921.5s548.99-49.91 891.22-720.11-21.39-1336.8-21.39-1336.8 213.89 648.8-39.22 1133.6c0 0 96.27-520.47-14.25-901.92-110.52-381.44-495.53-623.85-495.53-623.85s292.33 303.02 320.85 802.1-171.11 1155-171.11 1155 288.75-595.33 292.32-905.48c0 0 199.63 1019.6-762.88 1397.4zm-385.03 10.7s413.54-135.48 641.69-588.21c228.15-452.74 106.95-980.35 106.95-980.35s7.12 666.64-213.9 948.27c0 0 92.71-702.29 103.4-1033.8 10.7-331.54-245.97-784.28-245.97-784.28s135.47 727.23 106.95 1073c-28.53 345.81-342.24 983.91-342.24 983.91s274.5-313.7 324.41-474.12c0 0-139.04 581.07-481.27 855.58zm-556.13-67.73s24.95-545.43 96.25-834.19c71.31-288.76 163.99-563.26 163.99-563.26l-60.61 598.91s128.34-474.13 153.29-688.03c24.95-213.89 57.04-456.31 57.04-456.31s17.82 655.96-60.61 1044.5c-78.43 388.58-224.58 755.76-224.58 755.76l7.13-385.02s-119.09 324.04-131.91 527.61zm-110.51 114.08s-117.66-745.06-92.7-1055.2 399.27-802.1 399.27-802.1-217.46 327.97-260.23 737.93c0 0 203.19-474.14 292.32-652.38s167.55-349.36 167.55-349.36-295.88 741.5-388.58 1090.9c-92.69 349.36-82 780.71-82 780.71l-42.77-598.91s-38.74 518.64 7.13 848.45zm110.49 32.06s484.83-71.3 741.51-898.35c256.67-827.06 17.82-1279.8 17.82-1279.8s142.6 919.76-188.93 1418.8c0 0 185.37-335.09 110.51-844.88-74.87-509.78 35.66-805.67 35.66-805.67s-203.21 178.23-235.29 955.4c-32.08 777.15-210.32 1130.1-210.32 1130.1s245.97-324.4 267.36-659.51c0 0 14.27 770.03-538.31 983.89zm-1144.3-249.56s-342.23-131.91-470.56-623.86c-128.34-491.95 285.19-876.97 285.19-876.97s-304.79 337.7-174.68 834.19c0 0-64.17-538.3 281.63-880.53 0 0-499.03 929.61 156.88 1528.9 0 0-370.8-297.25-399.32-676.92 0 0-73.08 313.71 320.86 695.16zm310.15 153.29s-367.2-231.72-452.75-1005.3 577.52-1044.5 577.52-1044.5-506.21 331.54-406.4 948.26c0 0 7.13-741.5 819.93-1026.7 0 0-402.85 128.34-588.22 677.34-185.36 548.99 335.11 1508 335.11 1508s-497.58-441.3-499.08-1065.9c0 0-192.51 395.71 213.89 1008.9z"/>
  <path class="fil13" d="m13470 3713.1c-20.61-130.92-32.48-279.54-28.35-444.19 46.14 7.25 100.93 7.1 167.7-3.85 30.16-4.94 58.01-13.01 83.92-23.5-54.84 104.49-112.58 263.09-120.36 475.28-37.99 2.6-72.09 1.1-102.92-3.74zm562.34-827.44c-118.9 222.57-170.42 498.79-187.2 763.98-32.13 12.39-67.71 24.57-107.45 36.07-12.58 3.64-24.82 6.94-36.78 9.93-3.7-157.8 11.14-323.82 56.68-487.13 129.31-81.78 202.92-226.32 274.75-322.85zm-1475.7 717.91c26.3-83.86 57.6-171.07 93.87-251.74-2.57 69.7 2.61 144.67 18.65 224.08-32.91 34.54-64.1 73.98-92.33 118.23-1.75-6.31-3.48-12.66-5.16-19.09-6.29-24.1-11.23-47.93-15.03-71.48zm152.39-367.21c39.89-69.17 84.39-127.43 133.44-165.92-32.49 117.41-59.05 258.76-60.27 409.27-35.43 23.99-70.59 52.99-104.15 87.02-2.15-71.13 0.51-193.06 30.98-330.36zm222.33-210.97c58.6-13.78 103.78-11.61 141.35 0.55-17.87 97.42-21.23 205.73-1.97 324.7 0 0 1.28-126.53 59.98-295.12 48.39 34.1 86.08 84.61 135.56 128.46-12.1 143.84 6.99 302.1 41.95 457.7-69.36-55.59-116.48-132.36-169.74-198.35-44.8-55.51-137.67-62.97-241.51-23.89-13.38-150.2 1.68-280.95 34.39-394.05zm1334.8-199.2c5.88 4.35 11.89 9.07 18.04 14.22-63.53 134.9-138.49 333.62-161.74 556.62 0 0 123.44-288.04 220.09-499.51 10.76 11.89 21.89 24.86 33.41 38.98-71.97 197.03-144.17 406.35-182.2 549.66l-2.86 11.02c-56.52-13.68-104.48 32.5-210.75 90.17-0.6-46.79 0.34-89.54 3.28-126.15 15.75-195.71 170.6-463.8 282.74-635.01zm174.52 197.28 3.73 5.59-58.16 574.73s70.01-258.65 116.67-480.06c25.35 44.56 47.93 88.97 68.5 132.22-8.78 88.21-20.31 173.1-35.44 248.03-16.52 81.86-36.05 162.74-56.58 239.47-77.12-56.02-139.22-124.1-195.08-181.15 60.09-242.19 134.69-473.06 156.36-538.82zm203.65 394.81c27.58 62.89 52.8 118.91 79.28 163.42-7.55 87.42-29.88 173.73-58.6 253.36-28.37-7.8-55.11-17.75-80.41-29.39 22.43-107.39 43.7-236.21 59.73-387.4zm80.48 165.47c24.82 41.34 50.8 72.54 80.95 89.87-26.2 74.73-48.76 115.55-48.76 115.55 22.89-34.45 43.44-70.97 62.01-108.99 28.83 12.19 61.54 12.23 100.43-2.88-20.22 62.61-41.74 120.74-64.25 174.73-58.17 4.52-111 0.63-159.28-9.5 23.79-120.61 28.18-218.9 28.91-258.78zm422.33-89.76c88.8-95.94 153.34-188.37 202.91-270.12-17.57 176.68-38.8 356.08-53.75 477.26-33.36 16.94-71.27 35.37-114.51 55.06 28.77-85.59 42.22-141.71 42.22-141.71-13.95 44.83-45.44 101.64-83.58 160.21-41.6 18.26-81.17 32.92-118.92 44.51 41.21-97.12 86.62-211.02 125.62-325.21zm343.24-522.18c3.74-5.76 7.43-11.13 11.1-16.07 17.63 109 46.46 368.11-17.05 644.78-26.1 12.67-59.59 32.03-105.01 56.8 88.21-238.99 107.03-548.69 110.96-685.51zm136.06-21.11c14.03 12.86 29.45 29.38 46.68 50 13.15 130.28 15.49 275.36-7.05 417.71-13.15 83.05-31.69 160.69-53 231.96-12.12-19.54-22.39-34.52-32.21-45.28 36.25-176.28 59.16-395.2 45.58-654.39zm136.5 169.33 0.03 0.03c35.83 50.85 67.88 101.28 97.11 150.13-40.93 170.37-115.15 362.45-174.12 501.81-9.13-14.87-17.47-28.73-25.19-41.68 38.13-161.25 83.11-385.44 102.18-610.3zm143.4 229.97c22.57 39.99 43.45 78.37 63.23 114.4-6.3 45.22-11.18 71.64-11.18 71.64 8.42-16.12 16.29-32.45 23.7-48.92 30.37 54.96 58.37 103.78 86.25 143.64-14.54 36.09-30.85 72.27-49.34 108.48-32.61 63.88-67.12 122.07-102.83 175.16-49.07-9.35-93.41-25.01-131.51-47.33 86.22-183.55 115.34-369.91 121.68-517.07zm217.07 346.69c23.65 22.26 48.25 37.16 75.05 43.27-22.59 64.66-55.31 126.05-92.16 182.15-33.61 2.78-66.27 3.63-97.67 2.44 38.78-70.55 78.77-148.31 114.78-227.86zm80.8 44.4c74.99 13.39 167.57-41.65 304.78-198.26-13.84 77.02-35.05 155.95-65.77 235.63-9.86 25.58-20.66 50.17-32.2 73.91-87.94 31.94-175.61 53.91-258.63 64.8 32.51-76.81 46.21-140.58 51.82-176.07zm377.16-279.06c17.3-18.85 34.36-37.09 51.16-54.72 0.97 29.98-0.08 59.08-3.92 85.98-18.69 130.86-95.4 265.7-132.71 325.13l-6.05 2.62c24.76-53.06 74.17-177.8 91.52-359.01zm174.79-177.39c37.74-35.04 73.63-65.89 107.43-92.27 2.61 6.46 5.1 12.88 7.43 19.3 40.49 110.89 54.02 227.84 57.36 317.85-35.23 34.84-72.82 67.74-112.18 98.57 4.6-31.45 4.91-49.24 4.91-49.24-3.31 18.59-8 37.34-13.8 56.14-44.56 34.33-91.29 66.04-139.39 94.85 41.47-101.58 76.38-208.85 89.02-304.28 5.99-45.16 5.06-92.73-0.78-140.91zm180.96-144.56c21.32-13.5 41.51-24.7 60.5-33.41 46.51 85.17 86.8 185.05 101.92 291.9-28.86 12.32-65.64 36.03-112.22 76.24 8.02-113.73-16.36-231.56-50.2-334.73z"/>
  <path class="fil14" d="m16053 7581.5s-74.74-28.67-81.1-27.68-47.33 64.73-133.47 57.53c-86.15-7.21-89.03-107.74-89.03-107.74l-55.07 2.36s23.53 119.46 125.02 145.21c101.5 25.76 149.42-23.44 149.42-23.44l53.92 14.32 30.3-60.57z"/>
  <ellipse class="fil8" transform="matrix(1.3367 .27863 -.27863 1.3367 16007 7545)" rx="62.01" ry="32.52"/>
  <path class="fil14" d="m13215 7529.4s-78.88-13.58-84.93-11.38c-6.04 2.21-33.84 72.7-119.74 82.38s-108.27-88.37-108.27-88.37l-53.56 13.01s46.3 112.62 150.86 118.15c104.56 5.54 142-52.04 142-52.04l55.68 3.56 17.94-65.31z"/>
  <ellipse class="fil8" transform="matrix(1.3653 .013434 -.013434 1.3653 13163 7502.5)" rx="62.01" ry="32.52"/>
 </g>
</svg>
