<?xml version="1.0" encoding="UTF-8"?>
<svg width="109.17mm" height="122.83mm" style="clip-rule:evenodd;fill-rule:evenodd;image-rendering:optimizeQuality;shape-rendering:geometricPrecision;text-rendering:geometricPrecision" version="1.1" viewBox="0 0 10917 12283" xmlns="http://www.w3.org/2000/svg">
 <defs>
  <style type="text/css"><![CDATA[
    .fil0 {fill:none}
    .fil1 {fill:#4D4D4D}
    .fil11 {fill:#736161}
    .fil13 {fill:#91726E}
    .fil12 {fill:#947C7C}
    .fil9 {fill:#C67D6A}
    .fil5 {fill:#CCCCCC}
    .fil7 {fill:#E6E6E6}
    .fil8 {fill:#E9A188}
    .fil2 {fill:#F5F258}
    .fil6 {fill:#F8D9C4}
    .fil3 {fill:#FACCAA}
    .fil14 {fill:white}
    .fil4 {fill:white}
    .fil10 {fill:#4D4D4D;fill-rule:nonzero}
   ]]></style>
 </defs>
 <g transform="translate(-9391 -4358.2)">
  <circle class="fil1" cx="14849" cy="11183" r="5458.4"/>
  <circle class="fil2" cx="14849" cy="11183" r="5285.4" style="fill:#ede9df"/>
  <path class="fil3" d="m17962 7756.6c-0.25-6.81-0.52-13.57-0.8-20.26-8.5-201.25-38.09-403.84-87.67-599.03-151.14-595.11-481.08-1093.9-1001.5-1429.4-11.43-7.38-17.81-19.07-17.81-32.68 0-63.69-30.53-150.22-59.88-204.98-89.26-166.5-251.4-264.87-428.3-317.79-12.09-3.62-20.94-11.92-25.32-23.75-17.81-48.11-59.71-106.65-93.21-144.22-94.15-105.61-218.01-169.96-356.26-197.12-105.91-20.8-216.28-57.01-308.61-117.28-0.27 3.92-1.16 7.87-2.67 11.73-6.2 15.82-21.14 25.49-38.11 24.65l-134.5-6.62c-11.7-0.57-21.55-5.69-28.75-14.93-28.61-36.7-72.81-75.69-109.05-104.08-94.43-73.99-203.66-128.08-319.9-157.87-459.67-117.83-920.45 159.96-1254.6 448.28-4.99 4.3-10.16 6.93-16.57 8.42-97.19 22.67-215.39 79.37-299.33 130.72-203.72 124.62-358.76 301.85-440.19 528.08-4.57 12.7-14.39 21.49-27.51 24.64-102.73 24.63-220.46 73.58-313.49 121.65-186.43 96.33-363.18 236.57-454.1 430.29-4.16 8.85-10.58 15.12-19.53 19.06-132.72 58.46-312.68 103.83-455.99 110.87-46 2.26-93.04 1.11-139.17-5.34 80.69 102.08 195.81 204.61 307.76 235.96 11.39 3.19 19.92 10.47 24.85 21.22 4.94 10.74 4.9 21.95-0.1 32.67-59.2 126.8-101.72 311.81-90.11 450.11 9.19 109.4 49.52 206.51 139.87 273.95 12.54 9.36 18.08 24.3 14.7 39.57-23.38 105.48-41.38 218.63-51.4 325.94-5.48 58.68-9.02 120.14-5.1 178.99 4.83 72.47 15.85 147.75 25.78 219.75 15 108.77 31.53 217.4 48.81 325.83 19.95 125.2 40.83 250.46 64.08 375.09 8.24 44.16 16.72 88.43 26.43 132.29 3.42 15.5 9.35 46.55 15.53 60.06 8.36 15.52 16.22 31.48 24.01 47.3 3.73 7.58 4.85 15.12 3.49 23.46-12.68 77.48-28.99 191.55-19.33 268.79 5.81 46.48 12.2 92.91 18.18 139.37 14.29 110.99 28.58 221.97 42.7 332.97 13.46 105.76 26.85 211.53 39.68 317.37 4.47 36.95 8.91 73.92 12.99 110.91 1.73 15.65 4.41 34.32 5.01 50.68 0.32 2.09 0.48 4.24 0.47 6.45l-0.01 3.83c-0.15 57.4 2.84 114.8 12.58 171.43 19.57 113.87 67.79 253.02 203.87 258.83 18.9 0.8 34.2 14.67 36.84 33.41 18.07 128.23 38 256.64 62.67 383.77 17.91 92.3 38.43 189.48 68.36 278.68 42.02 125.23 133.01 265.89 207.67 374.35 109.15 158.55 231.08 311.2 357.09 456.64 67.56 77.99 137.02 154.4 208.39 228.9 4.43 4.62 7.28 9.49 9.14 15.62 8.3 27.36 14.71 58.91 21.06 86.83 17.24 75.78 32.48 152.11 46.2 228.6 1.82 10.15-0.08 19.5-5.71 28.13-246.96 378.24-492.9 757.17-737.62 1136.9-4.04 6.27-9.02 10.68-15.73 13.93-413.88 200.44-827.15 402.31-1239.4 606.01-155.49 76.84-310.98 153.86-466.09 231.61 966.4 1058.2 2357.1 1722.3 3903.1 1722.3 1936.5 0 3629.5-1041.6 4549.8-2595-538.37-274.86-1076.9-549.43-1615.5-823.77-14.77-7.53-22.89-22.69-20.97-39.15l9.12-78.21-4.78-8.97c-87.11-163.65-174.52-327.12-262.8-490.13-53.97-99.66-108.18-199.24-163.4-298.2-30.58-54.79-64.62-120.55-100.27-171.78-52.25-75.1-181.95-123.49-266.77-146.73-16.88-4.63-28.25-19.25-28.59-36.74-4.28-219.68-1.09-446.53 23.83-664.87 0.43-3.79 1.26-6.97 2.72-10.49 27.9-67.25 52.03-142.93 60.28-215.54 13.13-115.6 22.35-232.35 31.45-348.34 0.9-11.5 6.13-21.05 15.34-27.99 9.2-6.95 19.82-9.36 31.12-7.08 126.22 25.5 234.96-6.8 320.47-103.42 42.27-47.74 81.01-116.06 99.6-177.63 0.12-0.4 0.23-0.75 0.37-1.15 71.04-211.35 138.35-425.51 200.68-639.54 32.5-111.57 63.85-223.94 91.04-336.93 18.33-76.17 39.85-165.86 44.97-244.01 6.88-104.8-11.23-208.02-56.07-303.08-3.63-7.69-4.62-15.3-3.07-23.66 29.72-160.63 55.06-323.67 72.34-486.07 13.5-126.86 26.63-277.61 12.14-404.38-2.28-19.95 10.84-38.21 30.47-42.42 14.9-3.2 29.7 2.52 38.63 13.82z"/>
  <path class="fil4" d="m15180 8970.1s52.09-137.29 231.09-154.63c179-17.35 323.71 26.47 366.7 56.24s95.91 76.9 95.91 76.9l-44.65 27.29-75.13 31.68s-367.22 63.4-573.92-37.47z"/>
  <path class="fil5" d="m15180 8970.1s19.13-50.38 73.99-93.96c51.11-23.6 122.4-44.6 216.32-59.8 13.52-2.19 26.77-3.71 39.76-4.63 59.66 1.24 113.01 8.71 156.76 18.75 87.75 27.97 154.89 80.41 198.44 123.28l-36.23 22.15-75.13 31.68s-7.74 1.34-21.53 3.3c-0.09-30.88-15.89-68.19-79.38-92.83-125.68-48.78-365.45-17.37-376.2 48.78-2.27 13.98 0.64 26.93 6.62 38.65-36.95-8.54-72.05-20.05-103.44-35.37z"/>
  <path class="fil4" d="m13750 9004.3s-52.09-137.29-231.09-154.63c-179-17.35-323.71 26.47-366.7 56.24s-95.91 76.9-95.91 76.9l44.65 27.29 75.13 31.68s367.22 63.4 573.92-37.47z"/>
  <path class="fil5" d="m13750 9004.3s-19.13-50.38-73.99-93.96c-51.11-23.6-122.4-44.6-216.32-59.8-13.52-2.19-26.77-3.71-39.76-4.63-59.66 1.24-113.01 8.71-156.76 18.75-87.75 27.97-154.89 80.41-198.44 123.28l36.23 22.15 75.13 31.68s7.74 1.34 21.53 3.3c0.09-30.88 15.89-68.19 79.38-92.83 125.68-48.78 365.45-17.37 376.2 48.78 2.27 13.98-0.64 26.93-6.62 38.65 36.95-8.54 72.05-20.05 103.44-35.37z"/>
  <path class="fil6" d="m15346 8334.2-447.03 8.21s194.57-189.01 516.48-179.08 418.93 157.64 418.93 157.64l-488.37 13.23zm-116.04 1551.1s-56.22 152.12 29.77 200.08 162.05-191.82-29.77-200.08zm-802.33 1336.6s-48.7 19.13-118.05 15.75-465.06-98.04-465.06-98.04 200.64-53.77 216.35-55.43 244.73 77.73 274.5 78.55 295.18-99.23 334.04-98.4 457.2 87.16 457.2 87.16l-698.99 70.41zm-1199-2151.8s11.34-14.67 26.87-15.3 267.54 4.77 309.68-7.33 9.88 20.57-17.4 26.77-188.1 39.68-319.15-4.14zm2066.1-40.98s34.35-14.32 46.67-11.4 223.85 33.8 323-8.82c0 0 15.22 2.45 16.05 18.57s-184.79 81.03-385.72 1.65zm-1038.8 103.35s59.53-57.32 26.46 171.97-105.84 661.44-99.22 518.12c6.62-143.31 72.76-690.1 72.76-690.1zm-69.49 1038.4s-97.01 50.72-23.15 110.25 152.13-83.79 23.15-110.25zm1417.6-3571.8s105.83 8.82 127.88 112.45-158.73 127.87-196.22 33.07 68.35-145.51 68.35-145.51z"/>
  <path class="fil7" d="m13268 12328c21.86 23.57 43.92 46.96 66.15 70.17 4.43 4.62 7.28 9.49 9.14 15.62 8.3 27.36 14.71 58.91 21.06 86.83 17.24 75.78 32.48 152.11 46.2 228.6 1.82 10.15-0.08 19.5-5.71 28.13-246.96 378.24-492.9 757.17-737.62 1136.9-4.04 6.27-9.02 10.68-15.73 13.93-413.88 200.44-827.15 402.31-1239.4 606.01-155.49 76.84-310.98 153.86-466.09 231.61 966.4 1058.2 2357.1 1722.3 3903.1 1722.3 1936.5 0 3629.5-1041.6 4549.8-2595-538.37-274.86-1076.9-549.43-1615.5-823.77-14.77-7.53-22.89-22.69-20.97-39.15l9.12-78.21-4.78-8.97c-87.11-163.65-174.52-327.12-262.8-490.13-53.97-99.66-108.18-199.24-163.4-298.2-30.58-54.79-64.62-120.55-100.27-171.78-52.25-75.1-181.95-123.49-266.77-146.73-3.61-0.99-6.97-2.44-10.03-4.28l-20.07 224.45s14.99 335.37 4.79 374.99-1297.2 1821.2-1297.2 1821.2l-974.55 844.42-388.05 778.29-945.87-948.07-101.94-544.27s198.93-465.53 259.04-633.75c60.11-168.21-41.98-1057.4-41.98-1057.4l-143.81-374.97z"/>
  <path class="fil5" d="m13364 12498 0.68 3c17.24 75.78 32.48 152.11 46.2 228.6 1.82 10.15-0.08 19.5-5.71 28.13-54.25 83.09-108.45 166.2-162.59 249.35l87.83 39.04c-264.57 374.82-985.37 1676.3-985.37 1676.3l-330.01 295.1 496.05-821.35s-791.79 391.51-1417.8 704.7c789.7 797.94 1831.8 1345.4 2996.7 1513.2 31.81-96.09 170.97-425.07 311.72-751.7l-136.94 283.25-586.47-714.35-25.34-3.17c-4.65-37.38-13.49-74.84-29.17-106.34-36.57-73.46-230.44-169.41-354.12-224.62-4.46-81.65-9.34-177.99-11.48-244.29-4.41-136.7 26.8-366.74 24.98-467.44-0.26-14.49 3.71-33.6 10.68-55.65l189.3-367.46 0.01-0.01 33.66-65.34s4.09-121.38 4.56-220.71c0.47-99.34-79.36-983.71-79.36-983.71l-78.03 5.55zm4331.9 948.5-14.71-9.23-107.51 920.69zm-207.74 1549.2-204.41-450.17s-634.98-326.31-634.98-352.76 643.8-1494.8 621.75-1569.8c-22.05-74.97-154.31-612.93-154.31-612.93l-135.17-33.16-47.16 249.93s63.26 180.08-181.34 497.62c-209.63 272.14-853.96 1161.1-1033.9 1409.7 0.58 0.2 760.31 265.75 958.67 389.18 198.43 123.48 810.89 472.42 810.89 472.42v-0.01z"/>
  <path class="fil8" d="m12865 6409.5s260.17-379.22 432.14-480.64c171.97-101.43 893.94 268.03 893.94 268.03s-567.64-21.1-704.33 366.95c-136.7 388.05-79.37 1609.5-105.83 1649.2s-335.13 255.76-335.13 255.76l630.58-13.23 109.36-97.7s298.54 170.45 347.05 298.33 22.05 370.41 22.05 370.41-101.42 731.99-127.87 965.7c-26.45 233.7 52.92 447.57 174.18 465.21 121.27 17.64 246.94-178.58 383.64-194.02s216.06 79.36 295.44 52.91 38.6-166.45-9.91-222.68-20.94-197.34 25.36-173.08 303.16 491.67 303.16 491.67l-158.74-81.58s-119.06 158.74-227.09 167.56c-108.04 8.82-436.55 537.97-491.67 560.02s-183-52.91-235.91-41.89-339.55 88.19-370.41 105.83-116.85 85.99-116.85 85.99l282.37 171.56s138.73 156.97 332.75 170.2 546.79-39.69 546.79-39.69-72.75 407.9-220.47 436.55c-147.72 28.66-637.2-48.5-727.59 171.97-90.4 220.47 4.14 656.16 117.82 727.14 113.68 70.99 983.94 116.16 1267.8-55.88 283.84-172.03 583.81-432.78 583.81-432.78s-701.66 1137.3-1151.4 1353.4c-449.78 216.06-582.07-57.33-771.68-44.1s-283.73 164.94-283.73 164.94-26.3-851.83-197.59-1399.1c0 0-392.77-354.69-652.52-719.92 28.73-15.34 39.26-43.29 22.25-88.73-96.34-257.36-264.59-2240.1-273.41-2301.8s-26.46-167.56-35.28-198.42-16.36-463.08-16.36-463.08l-113.09 45.18c-17.48-463.07-38.78-1161.1-15.69-1322.7 35.28-246.93 572.14-973.47 572.14-973.47zm3059.9 1984.2 9.1-136.97s307.77 319.24 344.15 363.89 38.63 123.64-154.82 11.2c-113.39-65.89-258.31-179.29-395.21-168.66zm-3249 601.9s35.55 11.99 80.61 20.67-49.19 88.88-80.61-20.67zm3231.5 1879.8c33.07 61.74-101.43 366-101.43 366s22.05-222.69 13.23-275.6-72.76-114.65-136.7-160.94c-63.94-46.3-209.45-209.46-209.45-209.46 139.08 41.3 368.75 157.54 434.34 280.01zm-608.5 289.92s111.35-1.1 164.26-77.17c52.92-76.07 234.82-37.48 130.09 98.12-104.74 135.6-151.03-15.44-294.35-20.95zm-2752.7-1813.4s115.75-4.42 168.66-19.85c52.92-15.43-51.81 116.86-168.66 19.85zm1256.8 61.65s35.29 189.61-66.14 370.41c-101.43 180.79-454.18 577.65-670.26 608.52-216.07 30.87-383.63-339.53-299.85-560.01s171.96-282.21 392.45-299.85c220.48-17.64 383.64 13.23 643.8-119.07zm24.21 663.73s0.01 76.08 23.16 136.71-70.56 74.96-98.12 19.84 74.96-156.54 74.96-156.54zm-891.87 906.15s108.04 48.51 130.09 130.09 110.24 231.49 108.04 273.39-246.94-92.6-238.12-403.48zm112.48-1992s197.32-156.53 431.03-127.88c233.71 28.66 274.5 144.41 274.5 144.41l-26.04 8.94-52.49 38.71c-300.8 95.13-562.23-7.72-562.23-7.72l26.15-25.03c-31.56-8.3-62.13-18.65-90.93-31.44zm6.63 157.62s91.5-40.79 166.46-41.89c74.97-1.1 371.51-11.02 400.18 16.54s-311.98 342.85-566.64 25.35zm-177.5-271.19s41.02-179.86 202.84-225.99 298.75-14.32 257.96 41.9-195.12 19.84-460.8 184.09zm-307.55 338.43s115.75 19.86 187.4-13.22c71.66-33.08 38.59 59.52-46.3 76.06s-141.1-62.84-141.1-62.84zm2023-65.04s-2.2-434.35 66.15-590.89c68.35-156.53 268.07-229.44 268.07-229.44l687.71 122.51s-168.66 33.07-186.3 73.86-17.64 146.61-91.5 162.05-152.13 74.97-152.13 74.97 318.51-81.26 523.54-7.89 471.92 330.91 560.12 306.65 48.51 134.5-127.88 108.04c-176.38-26.46-207.96-258.33-337.15-315.99s-529.34-27.97-606.51 47-132.29 90.4-132.29 90.4l179.36 5.77 14.66 64.79s59.52 8.82 70.55 22.05 46.31 163.15 227.1 176.38 357.19-68.36 366-46.31-233.71 205.05-504.9 183-416.72-220.48-407.9-293.24-30.87-136.7-81.58-136.7-66.15 74.96-77.17 88.19-257.96 94.81-257.96 94.81z"/>
  <path class="fil9" d="m12845 8981.4s66.14-89.3 131.19-122.37 368.21-87.09 409-140.01-7.71-142.2-74.96-149.92c-26.36-3.03-5.63-19.26 38.94-34.9-65.3-27.99-42.24-62.14-42.24-62.14l260.16 22.05 228.2-141.1s326.31 230.4 231.5 384.74c-55.04 89.59-117.25 23.25-214.7-51.44-29.26-16.16-76.09-26.18-128.15 23.9-87.1 83.79 76.06 55.12 212.76 167.56 136.71 112.45 73.87 226-25.35 149.93s-475.15-219.39-642.72-158.75c-167.56 60.64-202.91 138.64-159.84 158.75 43.07 20.12-18.73-44.11-122.37 51.81s-228.21 157.65-270.1 82.69c-41.89-74.97-15.43-43 82.69-41.9s85.99-138.91 85.99-138.91zm2437.7 2185.3s99.23-9.37 167.57-67.25c68.35-57.88 143.86-28.66 113.55 61.74-30.32 90.4-117.41 4.41-281.12 5.51zm-1703.2 37.99s-83.24-5.51-124.03-65.04-84.88-43-93.7 36.93 16.53 126.22 33.07 123.47 25.9-48.49 42.44-58.42 142.21-36.94 142.21-36.94zm-113.77 1299.2s295.7 294.92 457.34 337.99 648.85 103.88 855.31 53.82 833.03-307.58 833.03-307.58-472.23 559.58-886.73 718.32-643.8-114.66-754.03-110.25c-110.24 4.41-407.87 427-407.87 427l-97.06-1119.3zm2218-1797s166.46 98.11 194.02 177.48c27.56 79.38-27.57 197.33-27.57 197.33s30.88-84.89-20.94-148.82c-51.82-63.94-145.51-225.99-145.51-225.99zm-2557.5 460.76s-57.32-222.68-60.63-316.39 134.5-206.15 154.33-220.48c19.84-14.33 18.74 78.28-25.36 160.95-44.1 82.68-71.66 114.65-68.35 375.92zm-440.4-1773.3s94.26-117.41 171.97-110.24c77.72 7.17 65.61 77.71-15.98 79.37s-80.47 39.69-117.41 50.16-38.59-19.29-38.59-19.29zm364.35-122.92s194.02 67.25 474.03-19.84 186.31 98.11-117.96 114.65-356.08-94.81-356.08-94.81zm2037.3-81.61s115.76-27.56 243.63 18.74c127.88 46.3 439.85 20.96 448.67 51.82s-374.82 199.53-692.31-70.56zm145.53-862.08 190.77 168.4s-170.93 5.77-222.74 74.12 74.97 84.9 83.79 110.25-69.46 68.35-69.46 68.35 237.75-49.48 374.05-18.5 335.93 92.38 385.54 126.55 155.43 152.13 241.42 145.51 81.59 29.76 23.16 47.4-173.08-31.97-173.08-31.97 30.87 54.02 61.74 66.15 167.56 41.89 240.32 23.15c0 0-91.5 63.94-181.89 54.02-90.4-9.92-199.54-79.38-233.71-94.81s-90.4-3.3-131.19-1.1-100.32-25.36-100.32-25.36 159.84-58.43 158.74-87.09-256.78-233.89-447.53-184.74-287.77 181.42-329.66 191.35 34.18-68.35 25.36-87.09-156.55 87.1-221.59 106.94 80.44-145.51 100.29-231.5-83.78-143.31-136.7-216.07 55.57-200.93 55.57-200.93l307.13-3.02zm-1176.3 3411.9s485.05 39.7 619.55 15.44 136.71 202.84-11.02 227.09c-147.72 24.25-366.01-35.28-504.9 19.84-138.9 55.12-282.21-194.02-103.63-262.37zm773.86-1772.7s22.05-99.22 90.4-46.3 166.45 332.92 238.11 422.21c71.66 89.3 116.86 138.91 116.86 138.91l-275.6-162.05s19.02-92.13-63.25-192.68c-82.27-100.56-106.52-160.08-106.52-160.08zm-933.82-131.26s23.14 83.79-46.31 156.54c-69.45 72.76-154.32 133.4-115.75 233.71 38.58 100.32 184.13 2.22 253.58 89.31s53 228.2 204.03 227.1 262.37-191.81 393.56-208.35c0 0-158.73 141.09-223.78 232.6s-181.92 120.18-282.24 38.6-116.85-184.1-253.55-189.61c-136.71-5.51-175.28-68.35-175.28-68.35l-261.28 149.92s145.51-229.29 187.41-280 255.77-371.51 284.43-401.28 35.18 19.8 35.18 19.8zm-1143.2-1214.9 164.84 13.74s-125.17 83.27-186.89 235.4c-61.73 152.13-113.69-39.36-49.83-181.68s232.83-134.71 232.83-134.71z"/>
  <path class="fil9" d="m13685 11190-55.12 41.89s225.97 222.7 697.8 233.72c471.82 11.02 872-276.7 872-276.7s-403.46-29.76-617.32 5.52-264.58 55.12-366 35.28-531.36-39.71-531.36-39.71z"/>
  <path class="fil8" d="m14359 11466c213.36-0.96 410.31-61.14 559.83-125.16 41.37-37.75 62.26-80.64 5.87-113.9-128.99-76.07-605.22 52.09-623.41 182.72-4.22 30.32 19.24 47.62 57.71 56.33z"/>
  <path class="fil1" d="m15147 9001-196.77 72.76s9.92-52.92 18.74-67.25 145.51-69.45 145.51-69.45 110.82-183.68 400.75-170.45 527.47 272.98 527.47 272.98l-138.9-47.41s-72.77 17.64-79.38 17.64-70.55-2.2-70.55-2.2l80.47-45.2s-152.11-134.49-356.07-131.19c-203.95 3.3-266.78 122.36-248.04 152.12l26.45 29.77-109.69-12.13z"/>
  <path class="fil1" d="m13784 9043.4 147.65 54.6s-9.92-52.92-18.74-67.25-96.4-51.29-96.4-51.29-136.17-164.94-426.09-151.71c-289.93 13.23-508.74 254.24-508.74 254.24l138.9-47.41s84.9 13.23 91.51 13.23 70.55-2.2 70.55-2.2l-80.47-45.2s121.26-111.34 325.21-108.04 292.13 103.62 273.39 133.39l-26.45 29.77 109.69-12.13z"/>
  <path class="fil1" d="m15050 8854.4s178.59-137.81 372.62-138.91c194.02-1.1 417.82 73.87 517.03 127.89 99.22 54.02 154.34 168.66 154.34 168.66-217.44-260.07-757.29-349.72-1044-157.64z"/>
  <path class="fil1" d="m13890 8900.2s-178.59-137.81-372.62-138.91c-194.02-1.1-417.82 73.87-517.03 127.89-99.22 54.02-154.34 168.66-154.34 168.66 217.44-260.07 757.29-349.72 1044-157.64z"/>
  <path class="fil1" d="m13428 11187s18.74-13.23 33.07-17.64 95.91 15.44 104.73 16.54 475.12-82.67 503.78-80.47 200.62 81.58 255.75 85.99 275.6-86 337.34-88.2 478.44 61.75 585.38 51.82 268.99-56.22 282.22-40.79 15.43 59.53-20.95 73.86-91.5-15.43-91.5-15.43-200.63 28.67-255.75 37.49-421.12 2.2-471.83 19.84-313.07 72.77-361.58 74.97-235.91-63.94-302.06-68.35-361.59-1.1-396.87-4.41-201.73-45.22-201.73-45.22z"/>
  <path class="fil1" d="m14420 10485s92.06-127.34 201.74-130.09c109.69-2.75 173.62 61.19 173.62 61.19s-115.21-36.38-170.32-13.78c-55.12 22.6-37.73-0.06-84.33 3.3s-120.72 79.38-120.72 79.38z"/>
  <path class="fil1" d="m13854 10369s33.07-25.36 66.7-13.23 120.72 153.24 120.72 153.24-82.14-60.09-110.25-100.88-60.63-40.79-77.17-39.14z"/>
  <path class="fil1" d="m14860 10440s134.49-18.75 153.23-141.11c18.75-122.37-128.98-245.83-128.98-245.83s242.53 268.98-24.26 386.95z"/>
  <path class="fil1" d="m13756 10059s-163.63 234.25 19.84 307.57c0 0-241.43-38.59-19.84-307.57z"/>
  <path class="fil1" d="m14926 8330.9s48.5 62.83 102.52 101.42 153.23 56.23 153.23 56.23l-46.3-38.59s158.74 45.22 251.34 47.42 403.48-52.92 579.86-6.62 326.31 176.38 326.31 176.38-110.24-438.75-571.04-451.98l72.76 26.46s-180.79-41.9-324.11-17.64c-143.31 24.26-518.14 91.5-518.14 91.5l31.97 25.36-58.4-9.93z"/>
  <path class="fil1" d="m13814 8368s5.98 73.16-39.88 121.15c-45.85 48-140.03 83.88-140.03 83.88l38.27-46.56c-123.55 78.8-658.17 60.54-774.64 116.05-164.61 78.45-225.23 227.56-225.23 227.56s-74.02-407.8 376.19-506.91l-66.53 39.59s187.39-58.27 332.72-61.23c145.32-2.96 470.29 16.26 470.29 16.26l-26.67 30.89 55.51-20.67z"/>
  <path class="fil10" d="m10919 14716c740.74-371.43 1743-856.11 1747.5-858.27l61.18 126.78c-4.4 2.12-981.99 474.86-1710.2 837.72-33.26-35.01-66.2-70.32-98.5-106.23z"/>
  <path class="fil10" d="m13516 12774c-2.53 3.87-705.04 1077.9-1229.2 1903.3 103.48-75.54 219.62-143.02 340.47-181.92l43 133.94c-363.07 116.85-688.61 533.21-689.55 534.4-111.93-9.08-114.93-80.48-114.93-80.48 488.93-791.17 1549.9-2413.4 1553-2418.1l97.22 108.89z"/>
  <path class="fil10" d="m14028 16404c49.67-159.64 124.89-358.78 204.59-553.94 152.48-373.38 324.94-737.48 367.14-785.32 66.75-75.65 945.35-849.03 1019.6-914.33 77.24-100.24 1258.3-1635.5 1314.7-1877.2 50.15-214.92 9.49-237.22 9.38-237.28l74.42-119.62c0.35 0.22 126.78 74.67 53.46 388.88-65.24 279.58-1341 1931.6-1344.6 1936.4l-3.91 5.06-5.18 4.59c-2.71 2.39-949.9 835.7-1012.6 906.73-34.6 39.22-194.86 383.98-342.34 745.08-74.96 183.54-145.7 369.97-193.73 520.95-47.16-6.08-94.17-12.63-140.93-19.93z"/>
  <path class="fil10" d="m16933 11766c0.72 0.14 252.55 49.42 339.54 174.45 72.01 103.51 527.56 961.58 528.87 964.05l10.48 19.69c-85.84 736.67-172 1473.3-258.07 2210l-94.71-60.42c-3.32-2.11-1154.5-740.51-1794.7-804.99l13.78-140c559.75 56.37 1467.9 587.72 1761.5 767.39l227.15-1945.2c-67.98-127.8-447.18-839.5-510.13-929.99-54.13-77.81-250.78-116.47-251.34-116.58l27.56-138.36z"/>
  <path class="fil10" d="m17758 12992c4.91 2.5 790.86 402.75 1661.2 847.03-23.73 40.73-47.92 81.16-72.69 121.19-866.52-442.33-1647.5-840.05-1652.4-842.54z"/>
  <path class="fil1" d="m16893 5675.2s0-405.69-515.92-560.02c0 0-108.03-293.23-478.43-366-370.41-72.77-440.95-268.99-440.95-268.99s4.41 119.07 85.99 187.41l-134.5-6.62s-615.19-789.32-1739.6 180.79c0 0-568.85 132.29-767.27 683.49 0 0-590.88 141.08-793.72 573.23 0 0-401.28 176.38-670.26 79.38 0 0 167.57 273.39 388.05 335.13 0 0-251.35 537.96 61.73 771.67 0 0-70.55 317.49-57.33 515.92s154.31 1071.5 185.18 1128.9 171.97 352.77 171.97 396.87 35.27 304.26 61.73 352.77 145.52 136.7 145.52 136.7-26.46-846.63-22.05-899.55 48.5-255.76 48.5-255.76l-35.27-877.51s608.5-52.89 679.06-767.24c0 0 145.52 423.31 66.15 718.75 0 0 233.71-233.71 185.2-709.94s110.23-846.63 524.73-886.32c0 0-171.97 48.51-268.98 211.66 0 0 189.62-268.99 762.86-123.48s1031.8-165.36 1400-169.77 639.39 354.97 639.39 354.97l-180.79-83.78s216.08 174.17 321.91 412.3l-141.11-105.84s326.35 520.35 282.26 1071.6c0 0 277.8 1075.9 366 1486s-13.23 714.35-13.23 714.35 264.57-176.39 343.95-586.48 313.09-679.07 480.65-573.24c0 0 132.34-657.01 97.06-965.68l66.14 207.25s136.7-1512.5-1104.6-2312.9z"/>
  <path class="fil10" d="m12357 8900.6c0.36 5.42 127.96 1890.7 300.67 2405.4 62.5 186.27 290.53 502.69 545.21 796.66 267.38 308.62 560.47 588.5 718.96 663.47 137.86 65.2 342.87 87.01 555.28 80.56 258.03-7.85 523.72-57.61 695.12-122.46 310.43-117.46 813.49-676.37 814.94-677.98-107.31 367.05-557.15 730.93-765.34 809.71-183.96 69.61-467.24 122.96-740.85 131.28-232.25 7.06-459.88-18.44-619.22-93.8-175.81-83.16-486.83-377.36-765.26-698.73-264.86-305.73-503.66-639.74-572.23-844.08-178.7-532.53-307.46-2435.2-307.83-2440.7l140.55-9.38z"/>
  <path class="fil10" d="m16331 11861c1.6-1.77 558.22-618.36 599.72-983.61 43.97-387.03 114.18-1593.3 114.37-1596.8l140.55 7.72c-0.2 3.49-70.73 1215.5-114.93 1604.5-25.83 227.39-228.39 669.21-739.71 968.18z"/>
  <path class="fil10" d="m16879 12418c-0.21-2.22-75.69-772.4-9.15-1329.8l140 16.54c-64.93 543.97 8.95 1297.9 9.15 1300.1z"/>
  <path class="fil10" d="m13188 14314c0.36-1.02 104.03-370.88 241.96-646.61 94.54-408.85-101.42-1237-101.98-1239.4l137.26-31.98c0.55 2.37 183.89 777.01 114.81 1233.8-20.09 132.94-86.36 228.12-140.88 366.63-84.05 213.44-145.95 413.83-146.19 414.52l-104.97-96.89z"/>
  <path class="fil11" d="m14077 4653.6c188.52-156.97 630.75-228.38 852.11-99.19 327.47 191.09 470.74 782.69 470.74 782.69l-229.3-447.58s41.9 282.22 134.5 471.83 335.13 401.28 335.13 401.28-432.14-88.19-564.43-471.82c-132.29-383.64-544.6-663.65-1192.8-502.69 0 0 892.94-370.4 1153.1 174.18 0 0-130.08-687.91-959.05-308.7zm-1825.9 1524.8s63.94-205.04 168.66-295.44c104.73-90.4 337.34-164.26 337.34-164.26s-169.77 71.66-237.02 148.82c-67.25 77.17-117.96 162.05-117.96 162.05s117.97-104.73 251.35-180.79c133.39-76.07 219.37-141.1 219.37-141.1s-183 206.15-307.57 297.65-227.09 88.19-314.18 173.07zm411.18 89.31s-92.61 383.63-341.75 491.66c-249.14 108.04-379.22-83.78-394.66-187.4 0 0 160.95 180.78 315.29 88.19 154.33-92.6 216.06-211.65 216.06-211.65s-114.66 134.5-343.95 99.22-363.79-233.71-363.79-233.71 266.78 158.75 524.74 39.69c257.96-119.07 425.52-377.03 425.52-377.03s-134.49 388.06-403.48 449.78c0 0 134.5 4.41 366-158.74zm-709.95 1752.8s-52.91-363.8-33.07-500.49c19.84-136.7 249.14-410.1 249.14-410.1s-112.46 216.06-138.91 335.13-33.07 324.11-33.07 324.11 251.34-568.83 335.13-729.78 92.61-176.38 92.61-176.38-116.86 577.66-211.66 809.16c-94.81 231.5-178.59 537.97-178.59 537.97s22.06-359.39 88.2-526.95c0 0-112.45 141.1-169.77 337.34zm2345.9-3190.4s716.55 83.81 725.37 806.97c0 0-79.42-586.02-725.37-806.97zm-842.27 191.79s335.13-211.67 802.54-105.84c467.41 105.84 639.4 639.4 628.37 884.13 0 0-132.29-491.66-330.72-597.5 0 0 299.88 458.61 35.3 851.07 0 0 61.73-454.18-178.59-778.29s-789.31-262.37-789.31-262.37 469.62-143.3 802.54 130.09c0 0-240.32-379.23-970.13-121.29zm-240.27 2134.2s57.32-149.91 46.29-491.66 114.65-831.22 670.26-846.65c0 0-414.5-66.14-601.91 264.58 0 0 366.01-601.93 879.72-370.42 0 0-427.73-231.51-720.97 63.94s-313.1 522.53-297.66 831.21l33.08-220.48s25.95 598.58-8.8 769.48zm-769.43 365.97s445.36-88.19 643.8-974.52c198.43-886.33 489.47-1177.4 912.79-1195 0 0-608.53-121.27-835.63 535.76 0 0 116.84-586.46 588.67-681.27s679.08 288.83 679.08 288.83-286.62-626.18-952.47-385.85-551.21 1552.2-683.5 1830c0 0 195-281.06 224.89-815.77 0 0 12.72 1058.1-577.63 1397.8zm4432.8-1576.5s480.64 264.58 630.57 551.2c149.92 286.62 66.15 701.11 66.15 701.11s-57.32-414.5-154.33-586.47c0 0 4.41 374.82-17.64 493.87-22.05 119.06-202.84 321.9-202.84 321.9s113.55-390.23 106.93-654.81-271.19-577.66-271.19-577.66 240.31 224.88 284.41 308.67c0 0-55.12-266.78-442.04-557.82zm-601.83-86s361.6 57.33 595.3 255.76 343.95 842.23 343.95 842.23-229.32-533.56-396.89-696.72c0 0 194.01 449.78 229.29 617.35 35.28 167.56-48.51 692.31-48.51 692.31s-83.79-427.72-167.56-701.12c-83.78-273.4-224.88-560.03-224.88-560.03s244.73 326.31 304.26 533.56c0 0-39.66-727.57-634.96-983.33zm-694.43-1090.3s28.66 55.13 257.96 143.31c229.3 88.19 520.32 372.6 394.66 698.92 0 0-26.45-134.49-134.49-277.8s-213.87-205.04-213.87-205.04l246.94 471.82s-156.55-112.45-260.17-240.32c-103.62-127.88-165.35-392.46-165.35-392.46l189.61 324.11s-54.02-249.15-120.17-316.4-174.18-111.35-195.12-206.14zm-93.69 93.71s169.76 343.96 280.01 540.18 143.31 260.17 143.31 260.17-158.75-0.01-260.17-205.05-163.15-595.3-163.15-595.3zm-436.51-350.59s229.3 121.26 328.52 326.31 169.76 588.69 169.76 588.69-169.76-588.69-498.28-915z"/>
  <path class="fil12" d="m15264 4968.4c51.39 106.53 87.42 208.47 109.33 278.07-7.88-1.82-15.63-3.66-23.26-5.52l-145.53-284.07c20.88 1.97 40.6 5.96 59.47 11.52zm1384.7 1429c4.4-3.99 8.8-7.95 13.21-11.85 32.11 46.23 74.4 109.42 115.65 177.94-18.77-1.02-37.62-0.8-56.55 0.58-26.89-65.25-52.34-122.84-72.31-166.67zm106.14-85.83c23.11-16.11 45.95-30.13 68.2-41.4 16.46 38.5 81.36 191.43 138.17 341.51-33-15.59-66.37-27.58-100.06-35.78-23.33-80.75-57.21-172.43-106.31-264.33zm71.76-43.12c46.56-23.03 90.46-33.93 128.73-26.72 7.22 1.36 15.1 3.2 23.6 5.5 92.84 152.62 157.54 366.23 195.63 519.29-27.17-26.82-54.7-51.23-82.56-73.02-77.64-154.55-178.98-336.26-265.4-425.05zm286.01 28.21c16.24 6.98 33.09 14.43 50.56 22.38 65.23 66.39 135.51 142.78 157.4 184.39 0 0-10.93-52.77-57.03-136.91 76.85 37.53 159.77 80.36 242.3 124.29l3.25 6c98.99 189.24 96.09 434.19 82.7 578.82-12.25 0.19-24.52-0.19-36.77-1.34-24.65-136.26-70.97-350.9-134.12-462.83 0 0 3.01 256.1-8.4 412.16-35.95-23.81-70.67-56.71-103.32-100.61-2.49-3.35-5-6.63-7.5-9.94 4.51-48.78 6.77-96.47 5.66-140.64-4.27-170.81-116.05-361.82-194.74-475.76zm-1931-1341c11.9 62.21 33.17 160.08 64.64 257.5-93.28-26.91-165.52-51.57-232.72-59.03-24.48-43.01-53.04-83.86-85.58-121.95 103.86-57.36 185.12-77.92 253.66-76.53zm-1753.4 1098.1c-7.68-24.68-14.84-49.69-21.39-74.95 37.13-38.45 78.03-68.28 120.14-91.31 0.77 20.35 1.99 41.15 3.75 62.42-39.14 30.73-73.12 65.72-102.5 103.84zm-21.66-76c-7.56-29.23-14.3-58.77-20.02-88.54 29.64-36.83 63.44-74.5 102-113.35 13.96-14.06 28.22-26.91 42.73-38.67-3.87 36-5.6 74.78-5.18 115.8-48.08 43.01-88.28 86.96-119.53 124.76zm-37.99-218.5c-2.72-33.23-3.94-66.5-3.36-99.65 0.66-37.94 2.1-74.5 4.33-109.64 269.89-269.65 632.77-197.43 632.77-197.43-257.06 10.71-465.35 122.29-633.74 406.72zm10.96-317.36c17.98-143.58 53.11-256.98 109.52-334.32 233.81-82.56 420.52-58.11 564.2 8.01 53.84 48.96 93.6 103.81 135.88 147.21-106.84-57.14-250.29-92.64-433.77-55.77-165.57 33.27-287.38 127.1-375.82 234.86zm353.87-452.36c45.41 1.06 95.6 10.03 150.99 27.51l0.07 0.02c-147.12-16.81-261.45-3.97-261.45-3.97s42.28-12.89 110.39-23.56zm560.1 343.58c12.69 3.92 26.16 6.55 40.62 7.69 68.01 84.58 100.31 155.06 100.31 155.06s-45.05-83.36-140.92-162.75zm152.25-8.7c40.53-13.23 87.06-34.64 141.39-66.17 12.02 23.18 26.27 52.88 40.53 87.82-42.37 39.04-80.93 73.81-116.67 104.36-17.97-42.8-39.52-85.15-65.26-126.01zm165.78-80.69c22-13.4 45.25-28.43 69.78-45.05 15.06 19.94 29.23 40.38 42.51 61.2-17.69 14.45-36.08 30.5-55.44 48.5l-0.01 0.01c-18.06-24.29-37.04-46.18-56.84-64.66zm159.09-108.62 0.03-0.02c18.01-13.39 35.41-25.79 52.34-37.44 19.91 21.43 38.99 44.53 56.93 69.43-19.46 6.47-39.38 15.18-60.16 26.53-15.26-19.55-31.59-39.1-49.14-58.5zm627-101.32c23 14.43 45.95 29.49 69.68 43.95 20.12 69.34 37.28 138.28 50.68 196.4-7-1.07-13.96-2.14-20.78-3.25-24.7-66.26-57.92-148.58-99.58-237.1zm142.28 83.35c28.64 13.23 59.22 24.21 92.86 31.29 25.02 48.51 51.1 98.44 76.31 145.69-44.09-2.65-85.45-6.37-124.27-10.95-17.04-55.17-32.08-112.32-44.9-166.03zm225.71 37.34c15.24-1.59 31.02-3.9 47.42-7.07l84.51 144.44s-16.33-75.3-42.02-154.27c10.13-2.68 20.4-5.57 30.99-8.88l87.18 166.57c-43.16 2.49-90.4 3.64-142.06 3.12-25.69-44.65-47.84-95.61-66.01-143.91zm120.9-25.78c79.23-24.78 150.35-38.12 211.65-43.04 48.91 50 91.38 107.63 121.26 170.86-40.87 12.83-92.65 23.62-156.01 31.06-93.97-110.5-176.89-158.88-176.89-158.88z"/>
  <path class="fil10" d="m17744 8531.2c0.51 0.5 182.1 172.11 162.32 473.75-18.16 276.99-335.02 1219.6-338.64 1230.3-10.66 35.3-141.23 434.98-552.81 282.58l48.5-132.3c286.93 106.25 369.79-191.11 370.03-191.95l0.82-2.75c0.9-2.69 314.52-934.93 331.55-1194.7 15.49-236.34-119.52-363.69-119.89-364.06l98.12-100.88z"/>
  <path class="fil1" d="m17161 9571.6s103.62-293.23 130.08-332.92 253.55-227.1 288.83-246.94 70.55 145.51 72.76 216.07-200.62 725.37-238.11 791.52-216.07 125.68-216.07 125.68 130.09-41.89 185.2-185.2c55.12-143.31 147.71-575.45 149.92-619.55s-202.83 6.61-222.68 37.48-17.64 165.36 13.23 246.94 17.63 160.94-66.15 205.04-187.21 186.98-187.21 186.98l26.45-412.14 63.76-12.97z"/>
  <path class="fil1" d="m15300 8837.9s-24.24 111.9 41.9 179.69c0 0 172.51 46.3 323-8.82 0 0 51.26-74.96 22.6-152.12-28.66-77.17-202.84-61.74-387.5-18.75z"/>
  <path class="fil1" d="m13216 8871.2s-24.24 111.9 41.9 179.69c0 0 172.51 46.3 323-8.82 0 0 51.26-74.96 22.6-152.12-28.66-77.17-202.84-61.74-387.5-18.75z"/>
  <path class="fil10" d="m12224 8940.7c-0.11 0.56-41.05 200.81-29.49 293.31l17.5 138.84c34.33 266.55 102.26 793.75 102.26 835.34h-0.35l-0.01 3.83c-0.05 21.54-0.2 82.82 11.08 148.5 12.51 72.77 39.85 153.04 100.4 142.64l29.62 173.63c-202.98 34.87-277.15-132.48-303.65-286.66-13.39-77.93-13.2-152.05-13.14-178.12l0.01-3.83h-0.35c0-35.69-66.55-552.17-100.18-813.3-14.87-115.48-10.69-79.47-18.2-139.52-14.89-119.16 32.12-349.84 32.25-350.49l172.25 35.82z"/>
  <path class="fil13" d="m15626 8900.2s-57.87-9.38-62.28-7.72-24.26 53.48-87.1 61.19-79.93-63.94-79.93-63.94l-39.13 9.92s34.72 82.14 111.34 85.44 103.63-39.14 103.63-39.14l40.8 2.21z"/>
  <path class="fil13" d="m13544 8938.4s-57.87-9.38-62.28-7.72-24.26 53.48-87.1 61.19-79.93-63.94-79.93-63.94l-39.13 9.92s34.72 82.14 111.34 85.44 103.63-39.14 103.63-39.14l40.8 2.21z"/>
  <ellipse class="fil14" cx="15587" cy="8880.9" rx="62.01" ry="32.52"/>
  <ellipse class="fil4" cx="13506" cy="8919.1" rx="62.01" ry="32.52"/>
  <path class="fil10" d="m13557 13037c-1.96 2.95-660.25 989.63-824.01 1489.4 116.31 57.72 376.71 188.75 581.1 303.97 141.62 79.83 260.99 155.11 300.96 201.52 295.52 343.17 724.01 821.91 725.24 823.29l-105.28 93.7c-1.2-1.35-417.36-466.11-726.34-824.93-27.77-32.24-133.98-97.67-263.48-170.66-251.89-141.99-576.33-302.07-627.67-327.18l-52.27-25.58 15.07-55.72c135.39-500.6 857.21-1582.4 859.28-1585.5l117.4 77.72z"/>
  <path class="fil10" d="m13304 13939c-0.35 1.16-115.62 227.11 148.11 1001.5l-133.4 45.2c-54.36-159.62-321.39-819.93-14.72-1046.7z"/>
 </g>
</svg>
