<svg xmlns:xlink="http://www.w3.org/1999/xlink" width="66.23443172821203" xmlns="http://www.w3.org/2000/svg" id="screenshot" version="1.1" viewBox="1524.6245283386597 3953.299977968049 66.23443172821203 64.40010943284778" height="64.40010943284778" style="-webkit-print-color-adjust: exact;"><g id="shape-231f6440-6976-11ec-bd6f-fd00fbb0d00c"><path d="M1557.7454440383656,3953.2999779694937C1539.446064119149,3953.2925875514916,1524.6245283408273,3968.0882059912915,1524.6245283400294,3986.3499308480073C1524.6245283393985,4000.7908091847235,1533.8963128268438,4013.0662948124072,1546.808734160668,4017.574450280316C1548.547656231419,4018.010484989486,1548.281268169568,4016.7762850497684,1548.2812681696048,4015.93377730648L1548.281268169855,4010.2062027358797C1538.239918169651,4011.3812793256398,1537.8329364086967,4004.744683242562,1537.159566585596,4003.6361204224745C1535.798027602626,4001.3155289190904,1532.579171854629,4000.724295415169,1533.5411287448915,3999.6157325950107C1535.8276262762963,3998.440656005587,1538.158521817903,3999.91134934684,1540.8594007787135,4003.8947850803406C1542.8129132325596,4006.784438831358,1546.6237424515039,4006.2966711903414,1548.5550559003384,4005.8162939682065C1548.976836998431,4004.079545550006,1549.8795965416223,4002.527557601804,1551.1227408305663,4001.322919337223C1540.7188070795685,3999.4605337998814,1536.382601405498,3993.119554469005,1536.3826014058275,3985.5813272922137C1536.3826014059873,3981.9230699858304,1537.588747353094,3978.560429431424,1539.9566412368151,3975.8481457314365C1538.447108886214,3971.3769423570325,1540.0972349365165,3967.548705418159,1540.3192249881292,3966.9796431704904C1544.6184323205623,3966.595341392662,1549.0878320257111,3970.0540573912303,1549.4356164398532,3970.3275028868443C1551.8775070073475,3969.669755613469,1554.6671819889818,3969.3224059297095,1557.7898420479828,3969.322405929573C1560.9273014437565,3969.322405929436,1563.7243760937463,3969.6845364505525,1566.1884656663412,3970.3496741425147C1567.0246281940165,3969.7140981256116,1571.1684424904508,3966.7431497675198,1575.1642634190148,3967.105280288582C1575.378853802191,3967.6743425362333,1576.991981510232,3971.4138944493557,1575.5712451798775,3975.8259744734805C1577.9687377369066,3978.545648592061,1579.189683020491,3981.937850821564,1579.189683020331,3985.6034985467477C1579.1896830200008,3993.156506561141,1574.8238786718312,3999.5048763111977,1564.3903462471264,4001.3377001742447C1566.195586363589,4003.1108143090883,1567.2114870908579,4005.5342108309164,1567.2096199019973,4008.062981282828L1567.2096199016341,4016.3772024337C1567.2688172486953,4017.0423401257676,1567.2096199015762,4017.7000873990387,1568.319570159515,4017.7000873989905C1581.4243828717713,4013.2880073743568,1590.8589600647913,4000.923836720247,1590.8589600654277,3986.3573212639185C1590.8589600662258,3968.0882059884016,1576.0300246208096,3953.299977968696,1557.7454440383656,3953.2999779694937ZZ" style="fill: rgb(237, 233, 223); fill-opacity: 1;"/></g></svg>