<svg xmlns:xlink="http://www.w3.org/1999/xlink" width="63.928094929823146" xmlns="http://www.w3.org/2000/svg" id="screenshot" version="1.1" viewBox="1629.3786344387418 3953.5759402743706 63.928094929823146 63.848184811164174" height="63.848184811164174" style="-webkit-print-color-adjust: exact;"><g id="shape-4d9a54a0-6976-11ec-bd6f-fd00fbb0d00c"><path d="M1690.7496055714837,3953.5759402744825L1631.9357582386126,3953.5759402770486C1630.521349138352,3953.5759402771105,1629.3786344414814,3954.7172265806093,1629.3786344414198,3956.129867669495L1629.3786344388534,4014.8701976931993C1629.3786344387918,4016.282838782085,1630.5213491355626,4017.4241250854852,1631.9357582358232,4017.4241250854234L1690.7496055686943,4017.4241250828572C1692.1640146689547,4017.4241250827954,1693.3067293658255,4016.2828387792956,1693.3067293658871,4014.87019769041L1693.3067293684535,3956.1298676667056C1693.306729368515,3954.71722657782,1692.164014671744,3953.5759402744206,1690.7496055714837,3953.5759402744825ZZM1648.3413055968858,4007.9825747561686L1638.8559745120874,4007.9825747565824L1638.8559745134185,3977.5110285567857L1648.3413055982169,3977.511028556372L1648.3413055968858,4007.9825747561686ZZM1643.6026355619329,3973.344934497832C1640.5662755373341,3973.344934497965,1638.1048193983154,3970.88655517912,1638.104819398448,3967.853990604552C1638.1048193985805,3964.821426029984,1640.566275537814,3962.363046710924,1643.6026355624126,3962.3630467107914C1646.638995587011,3962.363046710659,1649.10045172603,3964.8214260295044,1649.1004517258975,3967.8539906040724C1649.092460713899,3970.8867793824706,1646.6312290591009,3973.3449344977003,1643.6026355619329,3973.344934497832ZZM1683.853362328853,4007.982574754619L1674.3760222559201,4007.9825747550326L1674.3760222565675,3993.161814856389C1674.376022256722,3989.626221622625,1674.3120941619936,3985.0850194781324,1669.4455679356731,3985.0850194783447C1664.5151136144254,3985.08501947856,1663.7559674869992,3988.9318726132974,1663.7559674868255,3992.9064221176186L1663.755967486167,4007.982574755496L1654.2866184251,4007.982574755909L1654.286618426431,3977.5110285561123L1663.3803899298018,3977.5110285557157L1663.38038992962,3981.677122614462L1663.508246119474,3981.677122614456C1664.7708259943872,3979.2828156840874,1667.8633475865931,3976.752831360921,1672.482152445071,3976.752831360719C1682.087348707858,3976.7528313603,1683.8533623299415,3983.065820633151,1683.8533623295832,3991.2703123810275L1683.853362328853,4007.982574754619ZZ" style="fill: rgb(237, 233, 223); fill-opacity: 1;"/></g></svg>