<?xml version="1.0" encoding="UTF-8" standalone="no"?>
<!DOCTYPE svg PUBLIC "-//W3C//DTD SVG 1.1//EN" "http://www.w3.org/Graphics/SVG/1.1/DTD/svg11.dtd">
<svg width="100%" height="100%" viewBox="0 0 514 382" version="1.1" xmlns="http://www.w3.org/2000/svg" xmlns:xlink="http://www.w3.org/1999/xlink" xml:space="preserve" xmlns:serif="http://www.serif.com/" style="fill-rule:evenodd;clip-rule:evenodd;stroke-linejoin:round;stroke-miterlimit:2;">
	<g id="Ruby">
		<a xlink:href="https://www.ruby-lang.org" target="_blank">
			<g transform="matrix(1,0,0,1,256.165,173.764)">
				<path d="M147.085,41.713L23.222,105.009C22.218,105.522 21.009,105.407 20.12,104.712C19.232,104.017 18.826,102.871 19.081,101.774L30.782,51.36C30.975,50.527 31.525,49.823 32.286,49.434L96.743,16.496C97.504,16.107 98.397,16.073 99.184,16.405L146.89,36.461C147.928,36.899 148.62,37.899 148.662,39.025C148.703,40.151 148.089,41.2 147.085,41.713ZM26.137,97.011L138.899,39.388L98.182,22.269L36.124,53.982L26.137,97.011ZM123.466,148.333L20.779,105.1L23.028,99.758L119.371,140.32L142.943,38.48L148.59,39.786L123.466,148.333ZM122.737,146.906C121.641,147.466 120.314,147.274 119.423,146.427L55.912,86.132C55.214,85.472 54.892,84.51 55.046,83.563L62.969,35.079C63.265,33.262 65.477,32.131 67.125,32.955L111.064,54.936C111.923,55.365 112.513,56.191 112.64,57.143L124.289,143.941C124.453,145.158 123.832,146.347 122.737,146.906ZM61.014,82.985L117.451,136.567L107.098,59.435L68.055,39.9L61.014,82.985ZM36.335,50.808L60.518,82.669L55.739,86.297L31.556,54.435L36.335,50.808ZM95.343,20.293L101.083,18.545L112.732,56.812L106.992,58.559L95.343,20.293Z" style="fill:white;fill-rule:nonzero;" />
			</g>
			<path d="M276.947,278.856L276.285,278.476C275.397,277.782 274.991,276.635 275.246,275.538L286.947,225.124C287.14,224.291 287.69,223.587 288.451,223.198L352.908,190.26C353.669,189.871 354.562,189.838 355.35,190.169L403.055,210.226C404.094,210.663 404.785,211.663 404.827,212.789L404.746,213.548L404.755,213.55L379.631,322.097L276.944,278.864L276.947,278.856Z" style="fill:white;fill-opacity:0;" />
		</a>
	</g>
	<g id="TS">
		<a xlink:href="https://www.typescriptlang.org" target="_blank">
			<path d="M283.673,113.428L324.067,0L437.495,40.394L397.101,153.822L283.673,113.428ZM396.625,84.633C399.275,86.344 401.022,88.436 402.27,91.213C402.915,92.721 403.768,95.261 403.7,95.812C403.639,95.982 397.552,97.553 393.918,98.336C393.774,98.381 393.492,97.737 393.301,96.838C392.574,94.214 391.394,92.772 389.101,91.764C385.779,90.325 382.874,91.303 381.814,94.281C381.491,95.188 381.479,95.759 381.557,96.618C381.767,98.45 382.852,99.891 386.56,103.384C393.428,109.76 396.127,113.31 397.082,117.356C398.18,121.901 396.658,127.878 393.497,131.641C389.996,135.73 384.431,137.359 377.734,136.156C375.627,135.79 371.11,134.117 369.115,132.991C364.881,130.525 361.35,126.711 359.725,122.841C359.079,121.333 358.147,117.582 358.331,117.424L359.651,117.127L364.783,116.175L368.654,115.444L369.037,116.7C369.448,118.507 370.84,121.24 371.817,122.354C374.826,125.567 379.851,127.069 383.078,125.726C384.47,125.135 385.288,124.276 385.792,122.858C386.257,121.554 386.271,120.887 385.972,119.663C385.509,118.092 384.057,116.425 379.761,112.338C374.78,107.753 372.85,105.276 371.393,102.009C370.585,100.06 370.184,97.329 370.293,95.227C370.454,93.431 371.746,89.354 372.719,87.879C375.958,82.641 381.653,80.196 388.182,81.243C390.309,81.553 394.927,83.39 396.625,84.633ZM328.668,65.769L327.022,70.391L341.768,75.642L326.822,117.611L337.286,121.337L352.232,79.369L366.977,84.62L368.593,80.083C369.502,77.53 370.239,75.46 370.146,75.363C370.176,75.278 361.197,72.049 350.28,68.161L330.399,61.177L328.668,65.769Z" style="fill:white;" />
			<path d="M283.673,113.428L324.067,0L437.495,40.394L397.101,153.822L283.673,113.428Z" style="fill:white;fill-opacity:0;" />
		</a>
	</g>
	<g id="React">
		<a xlink:href="https://reactjs.org" target="_blank">
			<path d="M199.031,99.959C196.791,98.882 194.546,97.848 192.295,96.858C192.889,95.304 193.439,93.746 193.99,92.187C202.601,67.049 201.731,45.855 190.776,37.508C180.216,29.519 160.769,33.956 139.889,47.938C137.822,49.304 135.788,50.762 133.841,52.23C132.814,50.956 131.745,49.675 130.67,48.438C113.187,28.432 94.372,18.557 81.671,23.94C69.486,29.081 63.623,48.186 65.28,73.221C65.448,75.707 65.665,78.156 65.963,80.659C63.092,81.086 60.253,81.605 57.582,82.19C33.432,87.261 15.234,97.799 13.571,110.88C11.852,124.394 27.8,140.199 50.793,151.486C52.66,152.384 54.526,153.282 56.447,154.098C55.467,156.614 54.579,159.098 53.723,161.674C46.117,185.136 47.245,204.646 57.762,212.63C68.598,220.874 89.144,216.445 110.421,202.117C112.108,200.967 113.8,199.774 115.503,198.494C117.172,200.599 118.939,202.628 120.711,204.614C137.222,222.911 154.724,231.695 166.861,226.593C179.415,221.323 185.832,201.32 184.067,175.743C183.92,173.787 183.735,171.783 183.512,169.73C184.947,169.516 186.345,169.254 187.743,168.992C213.788,163.897 233.595,152.816 235.342,139.085C237.011,125.96 221.564,111.056 199.031,99.959ZM145.104,55.732C163.001,43.747 178.731,40.157 185.074,44.969C191.859,50.102 192.515,67.439 185.087,89.162C184.597,90.597 184.112,91.987 183.54,93.367C174.2,89.979 164.652,87.18 154.973,85.068C150.367,76.296 145.197,67.804 139.446,59.722C141.339,58.334 143.178,57.027 145.104,55.732ZM78.378,130.478C79.885,134.543 81.442,138.571 83.134,142.571C84.864,146.62 86.637,150.675 88.551,154.66C81.887,153.064 75.311,151.127 68.866,148.855C71.565,142.86 74.768,136.709 78.378,130.478ZM81.165,108.561C79.257,101.76 77.766,95.144 76.636,88.794C83.05,88.202 89.82,87.918 96.818,87.928C94.065,91.231 91.344,94.626 88.748,98.081C86.157,101.493 83.599,104.997 81.165,108.561ZM84.709,120.148C88.328,114.534 92.19,109.083 96.215,103.741C100.24,98.398 104.502,93.263 108.927,88.235C115.484,88.585 122.145,89.168 128.902,90.028C135.659,90.887 142.296,91.995 148.689,93.292C151.677,99.218 154.475,105.252 157.083,111.394C159.691,117.536 162.066,123.78 164.257,130.088C160.594,135.697 156.727,141.191 152.653,146.571C148.629,151.913 144.41,157.054 140.023,162.13C133.508,161.786 126.767,161.149 119.967,160.284C113.166,159.419 106.61,158.365 100.292,157.166C97.223,151.185 94.388,145.103 91.785,138.918C89.183,132.733 86.851,126.494 84.709,120.148ZM160.115,152.273C162.809,148.743 165.378,145.152 167.91,141.513C169.883,148.146 171.499,154.822 172.789,161.632C165.883,162.294 158.934,162.599 151.991,162.508C154.793,159.167 157.475,155.723 160.115,152.273ZM170.566,119.931C169.015,115.86 167.421,111.784 165.729,107.784C164.075,103.832 162.328,99.913 160.49,96.026C167.354,97.779 173.875,99.797 179.931,102.019C177.123,108.176 173.991,114.116 170.566,119.931ZM132.106,65.523C136.026,71.039 139.653,76.782 142.955,82.66C134.429,81.179 125.809,80.083 117.183,79.382C122.139,74.334 127.174,69.693 132.106,65.523ZM85.238,32.581C93.055,29.261 108.44,37.38 123.546,54.618C124.507,55.709 125.458,56.886 126.452,58.069C118.818,64.449 111.644,71.371 104.945,78.706C95.046,78.327 85.15,78.609 75.264,79.509C74.982,77.228 74.792,74.915 74.602,72.602C73.197,51.12 77.893,35.652 85.238,32.581ZM60.105,145.408C58.352,144.657 56.648,143.868 54.949,143.036C46.092,138.96 36.194,133.036 29.379,126.051C25.39,122.463 23.04,117.41 22.883,112.065C23.891,104.138 38.868,95.743 59.495,91.368C62.074,90.816 64.686,90.356 67.292,89.939C69.042,99.713 71.42,109.39 74.4,118.836C69.091,127.36 64.306,136.259 60.105,145.408ZM105.211,194.28C97.233,199.911 88.298,204.057 78.837,206.463C73.737,208.147 68.166,207.659 63.476,205.081C57.095,200.221 56.181,184.567 62.696,164.488C63.481,162.123 64.309,159.764 65.219,157.459C74.657,160.772 84.264,163.446 94.09,165.444C98.777,174.271 104.072,182.823 109.86,190.954C108.303,192.12 106.752,193.243 105.211,194.28ZM117.162,185.104C113.35,179.777 109.604,173.931 106.037,167.712C110.174,168.414 114.451,169.046 118.782,169.597C123.244,170.164 127.629,170.634 131.988,170.968C127.304,175.962 122.349,180.658 117.162,185.104ZM172.122,205.298C171.06,210.533 167.833,215.14 163.25,217.947C155.857,221.056 141.834,213.991 127.711,198.374C126.09,196.583 124.485,194.662 122.843,192.693C130.401,186.215 137.495,179.239 144.075,171.801C154.098,172.239 164.167,171.979 174.194,171.01C174.401,172.841 174.565,174.666 174.691,176.443C175.624,186.069 174.731,195.859 172.122,205.298ZM185.927,159.738C184.664,159.973 183.402,160.209 182.102,160.396C180.271,150.567 177.719,140.868 174.571,131.356C179.853,123.049 184.518,114.399 188.648,105.461C190.818,106.397 192.896,107.365 194.887,108.323C214.19,117.82 227.043,129.931 226.04,137.814C224.96,146.303 208.45,155.34 185.927,159.738ZM126.957,105.318C137.916,106.711 145.666,116.72 144.272,127.679C142.878,138.637 132.87,146.388 121.911,144.994C110.953,143.6 103.202,133.591 104.596,122.633C105.99,111.674 115.998,103.924 126.957,105.318Z" style="fill:white;fill-rule:nonzero;" />
			<path d="M199.031,99.959C196.791,98.882 194.546,97.848 192.295,96.858C192.889,95.304 193.439,93.746 193.99,92.187C202.601,67.049 201.731,45.855 190.776,37.508C180.216,29.519 160.769,33.956 139.889,47.938C137.822,49.304 135.788,50.762 133.841,52.23C132.814,50.956 131.745,49.675 130.67,48.438C113.187,28.432 94.372,18.557 81.671,23.94C69.486,29.081 63.623,48.186 65.28,73.221C65.448,75.707 65.665,78.156 65.963,80.659C63.092,81.086 60.253,81.605 57.582,82.19C33.432,87.261 15.234,97.799 13.571,110.88C11.852,124.394 27.8,140.199 50.793,151.486C52.66,152.384 54.526,153.282 56.447,154.098C55.467,156.614 54.579,159.098 53.723,161.674C46.117,185.136 47.245,204.646 57.762,212.63C68.598,220.874 89.144,216.445 110.421,202.117C112.108,200.967 113.8,199.774 115.503,198.494C117.172,200.599 118.939,202.628 120.711,204.614C137.222,222.911 154.724,231.695 166.861,226.593C179.415,221.323 185.832,201.32 184.067,175.743C183.92,173.787 183.735,171.783 183.512,169.73C184.947,169.516 186.345,169.254 187.743,168.992C213.788,163.897 233.595,152.816 235.342,139.085C237.011,125.96 221.564,111.056 199.031,99.959Z" style="fill:white;fill-opacity:0;" />
		</a>
	</g>
	<g id="Nest">
		<a xlink:href="https://nestjs.com" target="_blank">
			<path d="M463.259,147.325C462.86,147.528 462.532,147.802 462.248,148.089C463.221,148.205 463.946,148.644 464.515,149.27C464.58,149.363 464.644,149.42 464.709,149.512C464.767,149.591 464.825,149.669 464.868,149.755C465.562,150.981 465.256,151.333 465.361,152.212C465.433,153.377 466.068,154.346 466.986,154.92C467.08,154.998 467.195,155.083 467.317,155.147C464.944,151.814 467.678,149.745 467.663,148.337C467.207,147.331 466.061,147.087 465.188,146.957C464.386,146.897 463.772,147.065 463.259,147.325ZM468.206,145.838C468.316,146.195 468.315,146.087 468.388,146.266C468.431,146.387 468.503,146.53 468.547,146.651C468.576,146.779 468.606,146.908 468.621,147.044C468.65,147.172 468.665,147.308 468.68,147.444C468.681,147.587 468.689,147.708 468.69,147.851C468.676,147.93 468.677,148.002 468.663,148.08C468.656,148.138 468.649,148.195 468.642,148.252C468.622,148.388 468.601,148.524 468.573,148.646C468.531,148.775 468.51,148.911 468.447,149.033L468.454,149.047C468.404,149.162 468.362,149.291 468.299,149.413C468.115,149.793 467.859,150.138 467.654,150.511C467.591,150.633 467.52,150.74 467.478,150.869C467.414,150.991 467.365,151.106 467.322,151.235C467.266,151.371 467.238,151.493 467.203,151.636C467.175,151.758 467.14,151.901 467.134,152.03C467.113,152.166 467.093,152.302 467.086,152.431C467.087,152.574 467.095,152.695 467.096,152.838C467.111,152.974 467.119,153.095 467.148,153.224C467.17,153.374 467.2,153.503 467.229,153.631C467.244,153.695 467.28,153.767 467.295,153.831C467.309,153.895 467.338,153.952 467.353,154.017C467.411,154.131 467.462,154.266 467.52,154.38C467.563,154.466 467.606,154.551 467.664,154.63C467.722,154.744 467.794,154.851 467.888,154.965C467.96,155.071 468.046,155.171 468.133,155.271C468.233,155.363 468.32,155.463 468.42,155.555C468.485,155.612 468.564,155.661 468.621,155.704L464.698,156.099C464.062,156.224 463.448,156.356 462.826,156.51C462.491,156.591 462.155,156.671 461.82,156.752C460.877,157.015 459.942,157.328 459.029,157.684C459,157.698 458.979,157.691 458.95,157.706C458.051,158.054 457.188,158.438 456.332,158.872C455.705,159.191 455.092,159.537 454.501,159.891C453.66,160.39 452.848,160.945 452.05,161.529C451.851,161.666 451.658,161.817 451.466,161.969C451.068,162.279 450.69,162.595 450.327,162.905C450.142,163.071 449.957,163.236 449.773,163.402C449.602,163.596 449.453,163.797 449.297,163.984C449.176,164.135 449.055,164.286 448.935,164.436C448.913,164.465 448.885,164.48 448.878,164.501C448.771,164.645 448.672,164.767 448.58,164.903C448.544,164.939 448.523,164.968 448.502,164.997C448.381,165.148 448.268,165.313 448.175,165.449C448.097,165.543 448.026,165.65 447.963,165.736C447.934,165.787 447.892,165.844 447.87,165.873C447.778,166.009 447.686,166.146 447.608,166.275C447.516,166.411 447.438,166.54 447.374,166.662C447.311,166.784 447.24,166.892 447.19,167.007C447.183,167.028 447.169,167.035 447.162,167.057C447.106,167.157 447.042,167.279 446.992,167.394C446.992,167.394 446.985,167.416 446.978,167.437C446.936,167.53 446.894,167.623 446.851,167.717C446.83,167.745 446.816,167.788 446.795,167.817C446.752,167.91 446.717,168.018 446.675,168.111C446.675,168.147 446.654,168.176 446.647,168.197C446.605,168.326 446.555,168.441 446.513,168.57C446.499,168.577 446.506,168.591 446.499,168.613C446.45,168.727 446.407,168.856 446.365,168.985C446.358,169.007 446.365,169.021 446.351,169.028C446.316,169.136 446.281,169.243 446.253,169.365C446.239,169.408 446.211,169.458 446.197,169.501C446.169,169.623 446.127,169.752 446.085,169.881C446.085,169.917 446.063,169.945 446.064,169.981C446.007,170.153 445.965,170.318 445.909,170.49C445.902,170.511 445.895,170.533 445.888,170.554C445.783,170.912 445.664,171.278 445.515,171.622C445.374,171.98 445.212,172.332 445.035,172.655C444.851,172.999 444.667,173.307 444.454,173.631C444.249,173.932 444.022,174.227 443.773,174.514C443.539,174.794 443.283,175.068 443.02,175.327C442.486,175.759 441.996,176.312 441.49,176.623C441.376,176.681 441.262,176.774 441.155,176.846C441.041,176.94 440.941,177.027 440.842,177.113C440.749,177.214 440.657,177.314 440.565,177.415C440.472,177.516 440.387,177.63 440.302,177.745C440.238,177.867 440.153,177.982 440.09,178.104C440.026,178.226 439.97,178.362 439.927,178.491C439.864,178.613 439.815,178.764 439.772,178.893C439.737,179.036 439.695,179.165 439.675,179.301C439.661,179.451 439.626,179.594 439.627,179.737C439.606,179.873 439.593,180.024 439.594,180.167C439.602,180.324 439.603,180.467 439.625,180.617C439.64,180.753 439.663,180.903 439.685,181.053C439.714,181.181 439.744,181.31 439.787,181.431C439.794,181.446 439.787,181.467 439.795,181.481C439.831,181.624 439.918,181.795 439.947,181.888C439.984,181.995 440.013,182.088 440.063,182.188C440.092,182.245 440.129,182.316 440.172,182.366C440.237,182.458 440.294,182.537 440.366,182.608C440.438,182.679 440.51,182.75 440.596,182.814L440.604,182.828C440.69,182.892 440.79,182.949 440.891,183.005C440.991,183.062 441.092,183.119 441.206,183.168C441.314,183.203 441.443,183.245 441.564,183.273C441.693,183.315 441.815,183.343 441.951,183.364C442.445,183.49 442.582,183.546 443.139,183.55C443.232,183.557 443.318,183.549 443.425,183.548C443.44,183.541 443.461,183.548 443.475,183.541C443.49,183.569 443.497,183.584 443.526,183.605C443.598,183.712 443.684,183.811 443.771,183.911C443.864,184.025 443.965,184.117 444.059,184.195C444.145,184.259 444.217,184.33 444.303,184.394C444.332,184.415 444.36,184.437 444.382,184.444C444.497,184.529 444.604,184.6 444.712,184.671C444.834,184.734 444.956,184.798 445.078,184.862C445.193,184.911 445.329,184.967 445.458,185.01C445.587,185.052 445.709,185.08 445.852,185.115C445.852,185.115 445.873,185.122 445.887,185.114C446.009,185.142 446.131,185.17 446.245,185.184C446.381,185.205 446.51,185.211 446.653,185.21C446.782,185.217 446.925,185.216 447.061,185.201C447.168,185.2 447.282,185.178 447.397,185.156C447.418,185.163 447.432,185.156 447.468,185.155C447.533,185.141 447.611,185.119 447.675,185.104C448.023,185.896 448.378,186.63 448.622,186.829C448.895,187.049 449.081,185.861 449.202,184.544C449.616,185.572 450.145,186.756 450.461,187.026C450.799,187.303 451.09,185.756 451.21,184.154C460.134,176.686 472.905,178.992 478.881,188.369C477.915,186.923 475.584,187.029 474.823,187.684C474.93,188.957 474.89,190.68 474.148,192.115C473.77,191.123 473.235,190.175 472.558,189.335C472.91,190.806 472.919,192.344 472.613,193.826C471.309,194.613 469.621,194.644 468.409,194.022C468.33,194.008 468.273,193.93 468.201,193.895C468.108,193.817 468.014,193.738 467.935,193.653C467.842,193.575 467.762,193.49 467.697,193.397C467.633,193.304 467.582,193.205 467.524,193.091C467.488,193.019 467.452,192.948 467.416,192.877C467.379,192.77 467.357,192.655 467.335,192.541C467.313,192.427 467.291,192.312 467.283,192.191C467.289,192.062 467.281,191.941 467.302,191.805C467.197,190.997 466.915,190.441 466.307,190.337C466.192,190.324 466.085,190.324 465.963,190.332C465.899,190.347 465.813,190.354 465.749,190.369C465.699,190.377 465.663,190.377 465.613,190.384C465.499,190.406 465.385,190.428 465.277,190.465C465.163,190.487 465.056,190.523 464.956,190.574C464.849,190.61 464.728,190.654 464.628,190.705C464.557,190.741 464.493,190.791 464.421,190.827C464.307,190.885 464.215,190.95 464.129,191.029C464.037,191.094 463.944,191.159 463.859,191.238C463.774,191.317 463.688,191.397 463.61,191.49C463.532,191.584 463.468,191.67 463.39,191.763C463.326,191.849 463.269,191.95 463.191,192.043C460.968,195.896 465.526,199.968 468.539,200.286C467.763,200.877 466.987,201.504 466.838,201.812C466.831,201.834 466.824,201.855 466.824,201.855C467.626,201.915 468.427,201.903 469.234,201.834C470.299,201.67 471.406,201.449 471.892,201.346L471.899,201.361C473.206,201.003 474.447,200.48 475.623,199.794C481.716,196.147 484.454,188.715 482.183,181.906C482.277,182.02 482.363,182.12 482.457,182.233C482.63,182.468 482.825,182.71 482.991,182.967L482.998,182.981C483.091,183.095 483.171,183.216 483.243,183.323C483.257,183.352 483.265,183.366 483.272,183.38C483.351,183.501 483.431,183.622 483.489,183.736C483.582,183.886 483.676,184.036 483.756,184.193C483.792,184.264 483.828,184.335 483.872,184.421C483.908,184.492 483.965,184.57 484.002,184.642C484.045,184.727 484.074,184.82 484.118,184.906C484.154,184.977 484.19,185.048 484.219,185.105C484.269,185.205 484.299,185.298 484.349,185.398C484.378,185.455 484.407,185.512 484.429,185.59C484.48,185.69 484.516,185.797 484.574,185.911C484.581,185.961 484.603,186.004 484.625,186.047C484.668,186.168 484.705,186.275 484.748,186.397C484.77,186.439 484.792,186.482 484.799,186.532C484.857,186.682 484.894,186.825 484.952,186.975L484.966,187.003C485.003,187.146 485.047,187.303 485.083,187.446C485.091,187.46 485.098,187.474 485.105,187.489C485.142,187.632 485.178,187.774 485.215,187.917C485.222,187.931 485.222,187.967 485.23,187.981C485.266,188.124 485.303,188.267 485.325,188.417C485.332,188.431 485.339,188.446 485.347,188.46C485.376,188.624 485.399,188.774 485.435,188.917C485.428,188.939 485.435,188.953 485.435,188.953C485.465,189.117 485.495,189.281 485.524,189.446C485.539,189.617 485.562,189.767 485.577,189.939C485.592,190.11 485.622,190.275 485.63,190.432C485.645,190.604 485.653,190.761 485.669,190.932L485.654,190.94C485.662,191.097 485.678,191.268 485.672,191.433C485.679,191.483 485.679,191.519 485.679,191.555C485.672,191.576 485.68,191.59 485.673,191.612C485.693,193.95 485.156,196.285 484.096,198.436C484.018,198.565 483.948,198.709 483.877,198.852C483.863,198.895 483.827,198.931 483.813,198.974C483.75,199.096 483.686,199.218 483.608,199.347L483.694,199.411L483.709,199.404C483.894,199.274 484.079,199.144 484.264,199.014L484.278,199.007C484.62,198.762 484.955,198.503 485.289,198.243C485.382,198.178 485.482,198.092 485.567,198.013C485.631,197.962 485.681,197.919 485.745,197.869C485.838,197.804 485.923,197.725 486.015,197.66C486.087,197.588 486.165,197.53 486.236,197.458C487.488,196.393 488.633,195.22 489.677,193.991C488.979,198.236 487.208,202.273 484.489,205.714C486.071,204.768 487.574,203.665 488.925,202.406C493.811,197.793 496.685,191.476 496.939,184.802C498.026,188.393 498.305,192.196 497.755,195.918C498.675,194.303 499.409,192.604 499.956,190.82C501.458,185.863 501.405,180.564 499.811,175.653C501.439,177.66 502.76,179.912 503.711,182.317C506.722,162.733 489.729,152.635 483.789,150.717C483.76,150.696 483.739,150.689 483.724,150.66C483.717,150.682 483.717,150.682 483.724,150.696C483.717,150.682 483.717,150.682 483.696,150.675C483.783,150.846 483.855,151.024 483.928,151.202C484.051,151.552 484.168,151.888 484.27,152.23C484.358,152.58 484.431,152.937 484.505,153.294C484.557,153.644 484.602,154.016 484.626,154.381C484.642,154.731 484.651,155.103 484.639,155.468C484.62,155.818 484.593,156.19 484.538,156.541C484.49,156.906 484.421,157.264 484.344,157.608C484.26,157.973 484.148,158.317 484.036,158.661C483.958,158.861 483.888,159.041 483.803,159.227C483.739,159.385 483.683,159.521 483.62,159.679C483.464,160.008 483.302,160.324 483.103,160.64C482.919,160.948 482.721,161.264 482.508,161.552C482.281,161.846 482.046,162.126 481.812,162.407C481.57,162.673 481.307,162.932 481.037,163.176C480.767,163.421 480.475,163.659 480.19,163.875C479.891,164.098 479.577,164.293 479.278,164.481C479.057,164.611 478.836,164.741 478.608,164.857C478.28,165.023 477.938,165.161 477.609,165.292C477.267,165.43 476.917,165.553 476.567,165.641C476.21,165.75 475.853,165.824 475.489,165.883L475.475,165.891C475.774,165.703 476.073,165.515 476.358,165.299C476.657,165.076 476.935,164.845 477.205,164.6C477.475,164.356 477.738,164.097 477.98,163.831C478.236,163.557 478.463,163.263 478.676,162.976C478.903,162.681 479.094,162.387 479.293,162.071C479.47,161.748 479.646,161.425 479.802,161.095C479.957,160.765 480.091,160.429 480.204,160.085C480.338,159.748 480.428,159.397 480.519,159.046C480.603,158.681 480.672,158.323 480.728,157.972C480.734,157.915 480.734,157.843 480.741,157.786C480.768,157.485 480.795,157.185 480.807,156.892C480.819,156.527 480.817,156.169 480.794,155.805C480.77,155.44 480.732,155.083 480.673,154.718C480.621,154.368 480.533,154.018 480.445,153.668C480.336,153.312 480.234,152.969 480.103,152.641C479.965,152.298 479.827,151.956 479.668,151.642C479.552,151.414 479.422,151.193 479.292,150.972C479.097,150.658 478.895,150.366 478.693,150.074C478.47,149.775 478.24,149.498 477.995,149.227C477.743,148.979 477.484,148.716 477.218,148.474C476.952,148.232 476.658,148.005 476.37,147.792C476.069,147.587 475.767,147.381 475.459,147.197C475.136,147.02 474.82,146.857 474.49,146.702C474.153,146.568 473.816,146.434 473.465,146.308C473.293,146.251 473.1,146.188 472.914,146.139C472.019,145.966 471.11,145.835 470.222,145.747C470.094,145.741 469.986,145.741 469.865,145.749C469.242,145.689 468.721,145.756 468.206,145.838Z" style="fill:white;fill-rule:nonzero;" />
		</a>
	</g>
	<g id="Rails">
		<a xlink:href="https://rubyonrails.org" target="_blank">
			<path d="M254.818,366.527L253.163,377.291L272.611,380.281C276.596,380.893 283.883,379.03 285.373,370.919L286.013,366.756C287.083,359.798 282.004,354.816 276.652,353.993L266.957,352.503L267.725,347.507L286.935,350.46L288.599,339.636L270.162,336.802C265.404,336.071 258.437,339.018 257.313,346.333L256.737,350.08C255.612,357.395 261.341,362.111 266.158,362.852C279.531,364.968 262.946,362.358 275.317,364.259L274.513,369.493L254.818,366.527ZM234.615,363.299L239.414,332.076L227.401,330.229L220.928,372.336L249.178,376.679L250.851,365.795L234.615,363.299ZM221.884,329.587L210.024,327.764L203.491,370.265L215.351,372.088L221.884,329.587ZM194.036,325.1L182.438,323.317C174.171,322.047 170.224,329.111 169.676,332.679L164.904,363.725L176.501,365.507L177.644,358.073L188.527,359.746L187.385,367.18L198.625,368.908L203.397,337.863C204.787,328.823 196.89,325.539 194.036,325.1ZM151.022,347.893C151.022,347.893 161.567,348.601 163.633,335.159C165.699,321.718 153.282,318.531 153.282,318.531L130.563,315.039L124.045,357.444L135.464,359.199L137.036,348.97L145.337,360.717L162.227,363.313L151.022,347.893ZM52.379,346.428L99.363,353.65L99.361,353.619C99.357,353.533 99.342,353.266 99.33,352.84C99.209,348.673 99.255,329.284 109.645,314.323L109.651,314.314C110.077,313.701 110.522,313.094 110.985,312.495C111.033,312.433 111.081,312.371 111.129,312.31C115.38,306.873 121.149,302.182 128.969,299.27C135.582,297.224 156.139,289.37 183.809,314.368C185.297,315.711 186.801,317.147 188.326,318.682L188.438,318.615C188.885,318.349 189.314,318.107 189.675,317.911C190.254,317.596 190.654,317.397 190.654,317.397C190.654,317.397 181.497,304.938 166.784,294.378L166.742,294.348C160.801,290.087 153.952,286.136 146.435,283.439L146.298,283.39C145.257,283.02 144.206,282.673 143.142,282.354C138.787,281.045 134.227,280.181 129.507,279.932C111.903,278.809 88.188,291.296 72.499,310.192C56.81,329.089 52.379,346.428 52.379,346.428ZM102.976,342.029C102.61,345.2 102.515,347.803 102.538,349.633L109.281,353.287C109.103,350.885 108.97,348.186 109.043,345.336L102.976,342.029ZM190.374,347.732L179.431,346.05L181.013,335.761C181.013,335.761 181.369,333.442 184.997,333.999L188.982,334.612C192.193,335.106 191.896,337.434 191.896,337.434L190.374,347.732ZM147.955,338.533L138.856,337.134L140.346,327.44L149.505,328.848C149.505,328.848 151.916,330.193 151.322,334.058C150.727,337.924 147.955,338.533 147.955,338.533ZM106.19,327.06L110.422,331.607C111.017,329.324 111.79,327.069 112.741,324.841L108.98,320.792C107.869,322.874 106.995,324.992 106.19,327.06ZM62.435,318.63L55.98,315.08C54.457,317.464 52.751,320.246 51.909,321.76L58.365,325.31C59.449,323.406 61.146,320.684 62.435,318.63ZM117.758,309.235L119.954,313.956C121.194,312.625 122.593,311.44 124.112,310.273L122.058,305.817C120.498,306.856 119.038,308.032 117.758,309.235ZM153.939,300.003L153.125,303.713C155.078,304.075 157.004,304.614 158.903,305.332L159.708,301.681C157.75,300.954 155.824,300.415 153.939,300.003ZM134.276,300.39L135.013,304.704C136.866,304.136 138.7,303.688 140.507,303.418L139.802,299.291C137.689,299.575 135.864,299.964 134.276,300.39ZM84.483,294.806L80.827,290.469C79.052,291.719 77.337,292.977 75.741,294.253L79.717,298.883C81.212,297.469 82.827,296.073 84.483,294.806ZM161.527,288.263L162.377,284.315C161.888,283.935 160.511,282.993 156.928,281.347L156.087,285.235C157.949,286.191 159.743,287.197 161.527,288.263ZM109.679,280.598L107.634,276.083C106.028,276.627 104.354,277.222 102.602,277.927L104.698,282.511C106.39,281.797 108.014,281.133 109.679,280.598ZM134.786,278.065L135.38,278.156L134.749,274.345C132.905,274.062 130.984,273.888 128.984,273.825L129.575,277.507C131.327,277.594 133.061,277.8 134.786,278.065Z" style="fill:white;" />
			<g transform="matrix(1.54454,0.241571,-0.194662,1.24462,-11.8879,-80.36)">
				<rect x="80" y="260" width="152.61" height="67.106" style="fill:rgb(235,235,235);fill-opacity:0;" />
			</g>
		</a>
	</g>
</svg>
