<?xml version="1.0" encoding="UTF-8" standalone="no"?>
<!DOCTYPE svg PUBLIC "-//W3C//DTD SVG 1.1//EN" "http://www.w3.org/Graphics/SVG/1.1/DTD/svg11.dtd">
<svg width="100%" height="100%" viewBox="0 0 73 73" version="1.1" xmlns="http://www.w3.org/2000/svg" xmlns:xlink="http://www.w3.org/1999/xlink" xml:space="preserve" xmlns:serif="http://www.serif.com/" style="fill-rule:evenodd;clip-rule:evenodd;stroke-linejoin:round;stroke-miterlimit:2;">
    <path d="M18.383,50.409L50.409,18.383L53.611,21.585L21.585,53.612L18.383,50.409ZM30.705,50.896C31.09,52.395 30.769,54.041 29.595,55.213L23.188,61.621C21.419,63.391 18.555,63.391 16.784,61.621L10.379,55.213C8.608,53.443 8.608,50.582 10.379,48.808L16.784,42.404C17.956,41.232 19.594,40.913 21.094,41.289L27.828,34.557C22.524,30.793 15.127,31.251 10.379,35.999L3.972,42.404C-1.324,47.702 -1.324,56.323 3.972,61.621L10.379,68.026C15.676,73.325 24.296,73.325 29.595,68.026L35.999,61.621C40.749,56.871 41.201,49.467 37.435,44.164L30.705,50.896ZM68.026,10.379L61.622,3.972C56.323,-1.324 47.702,-1.324 42.404,3.972L35.999,10.379C31.251,15.127 30.794,22.525 34.557,27.828L41.294,21.092C40.913,19.594 41.232,17.956 42.404,16.783L48.808,10.379C50.578,8.61 53.444,8.608 55.213,10.379L61.622,16.783C63.391,18.555 63.386,21.421 61.622,23.188L55.213,29.595C54.041,30.769 52.395,31.087 50.896,30.705L44.164,37.437C49.463,41.205 56.871,40.749 61.622,35.999L68.026,29.595C73.325,24.296 73.325,15.676 68.026,10.379Z" style="fill:white;fill-rule:nonzero;"/>
</svg>
