<?xml version="1.0" standalone="no"?>
<!DOCTYPE svg PUBLIC "-//W3C//DTD SVG 1.1//EN" "http://www.w3.org/Graphics/SVG/1.1/DTD/svg11.dtd" >
<svg xmlns="http://www.w3.org/2000/svg" xmlns:xlink="http://www.w3.org/1999/xlink" version="1.1">
<metadata>
Created by FontForge 20170731 at Fri Dec 31 00:30:06 2021
 By Aleksey,,,
Copyright (c) 2018 by Igor Kosinsky. All rights reserved.
</metadata>
<defs>
<font id="2MASSJ1808-Heavy" horiz-adv-x="2041" >
  <font-face 
    font-family="2MASS J1808"
    font-weight="900"
    font-stretch="normal"
    units-per-em="2048"
    panose-1="2 0 8 7 4 0 0 2 0 4"
    ascent="1638"
    descent="-410"
    x-height="1255"
    cap-height="1532"
    bbox="-113 -578 3152 2294"
    underline-thickness="102"
    underline-position="-307"
    unicode-range="U+0020-FB02"
  />
<missing-glyph horiz-adv-x="1970" 
d="M205 1532h1560v-1532h-1560v1532zM1479 276v979h-987v-979h987z" />
    <glyph glyph-name="fi" unicode="fi" horiz-adv-x="1814" 
d="M979 1534q-139 0 -218 -69t-79 -210h938v-1255h-354v956h-584v-956h-354v956h-267v299h267v11q0 132 50.5 240.5t139.5 180.5t210.5 111t264.5 39q130 0 242 -24.5t172 -55.5v-309q-168 86 -428 86z" />
    <glyph glyph-name="fl" unicode="fl" horiz-adv-x="1804" 
d="M1292 1800h328v-1800h-354v1499q-137 35 -287 35q-139 0 -218 -69t-79 -210h303v-299h-303v-956h-354v956h-267v299h267v11q0 132 50.5 240.5t139.5 180.5t210.5 111t264.5 39q151 0 299 -37z" />
    <glyph glyph-name=".notdef" horiz-adv-x="1970" 
d="M205 1532h1560v-1532h-1560v1532zM1479 276v979h-987v-979h987z" />
    <glyph glyph-name=".null" horiz-adv-x="0" 
 />
    <glyph glyph-name="nonmarkingreturn" horiz-adv-x="682" 
 />
    <glyph glyph-name="space" unicode=" " horiz-adv-x="880" 
 />
    <glyph glyph-name="exclam" unicode="!" horiz-adv-x="825" 
d="M596 1532v-979h-369v979h369zM627 176q0 89 -62 151t-151 62q-88 0 -151.5 -62t-63.5 -151q0 -88 63.5 -150.5t151.5 -62.5q89 0 151 62.5t62 150.5z" />
    <glyph glyph-name="quotedbl" unicode="&#x22;" horiz-adv-x="858" 
d="M504 1569h262v-498h-262v498zM92 1569h262v-498h-262v498z" />
    <glyph glyph-name="numbersign" unicode="#" horiz-adv-x="2113" 
d="M1409 350l-96 -350h-291l96 350h-354l-96 -350h-291l96 350h-321l77 281h322l74 268h-322l78 281h321l97 352h291l-97 -352h355l96 352h291l-97 -352h322l-78 -281h-321l-74 -268h321l-77 -281h-322zM842 631h354l74 268h-355z" />
    <glyph glyph-name="dollar" unicode="$" horiz-adv-x="1587" 
d="M1432 412q0 -106 -35 -186t-102 -131t-153 -81t-198 -43v-254h-303v246q-145 7 -275 43t-214 80v342q113 -77 270.5 -115.5t310.5 -38.5q186 0 258 31t72 113q0 32 -18.5 60t-48.5 49t-75.5 41.5t-92.5 37t-106 36.5q-7 2 -11.5 3.5t-11 3.5t-11.5 4q-106 35 -161 55.5
t-137.5 63.5t-124 88t-73.5 117.5t-32 163.5q0 94 37.5 167.5t105.5 122.5t151.5 78.5t186.5 44.5v254h303v-245q263 -19 430 -115v-346q-92 71 -229.5 111t-306.5 40q-151 0 -230.5 -25.5t-79.5 -92.5q0 -64 81 -105q46 -23 213 -75q20 -6 36 -11q78 -25 123 -40t114 -44
t109.5 -54.5t89.5 -66.5t75.5 -86t44.5 -107t18 -134z" />
    <glyph glyph-name="percent" unicode="%" horiz-adv-x="2306" 
d="M1509 1532h281l-993 -1532h-283zM979 1161q0 -171 -115 -289t-309 -118q-129 0 -226.5 56.5t-146.5 148t-49 202.5q0 82 29 156t82 130t133.5 89t177.5 33q194 0 309 -118.5t115 -289.5zM365 1161q0 -87 50 -145t140 -58q92 0 142.5 58t50.5 145t-50.5 145t-142.5 58
q-90 0 -140 -58t-50 -145zM1749 776q194 0 309 -118t115 -289t-115 -288.5t-309 -117.5q-193 0 -307.5 117.5t-114.5 288.5q0 111 49 202.5t146.5 148t226.5 56.5zM1749 166q92 1 142.5 58.5t50.5 144.5t-50.5 144.5t-142.5 57.5q-91 0 -140.5 -57t-49.5 -145t49 -145
t141 -58z" />
    <glyph glyph-name="ampersand" unicode="&#x26;" horiz-adv-x="1703" 
d="M1683 0h-432l-84 88q-192 -125 -428 -125q-108 0 -198.5 16.5t-166.5 52.5t-129 90t-82.5 132t-29.5 176q0 133 81.5 243.5t213.5 186.5l-197 207v465h1082v-307h-799l664 -695q63 68 106 207h348q-104 -299 -227 -444zM737 264q119 0 211 58l-299 309
q-74 -44 -112.5 -92.5t-38.5 -116.5q0 -71 63.5 -114.5t175.5 -43.5z" />
    <glyph glyph-name="quotesingle" unicode="'" horiz-adv-x="446" 
d="M92 1569h262v-498h-262v498z" />
    <glyph glyph-name="parenleft" unicode="(" horiz-adv-x="976" 
d="M852 1806q-97 -142 -161.5 -253t-119 -240t-80.5 -264t-26 -285t26 -284.5t80.5 -263t119 -239.5t161.5 -253h-373q-325 501 -325 1040q0 541 325 1042h373z" />
    <glyph glyph-name="parenright" unicode=")" horiz-adv-x="976" 
d="M125 1806h373q325 -501 325 -1042q0 -539 -325 -1040h-373q97 142 161.5 253t119 239.5t80.5 263t26 284.5t-26 285t-80.5 264t-119 240t-161.5 253z" />
    <glyph glyph-name="asterisk" unicode="*" horiz-adv-x="1175" 
d="M1022 1307l-250 -129l250 -129l-139 -211l-183 157l13 -211h-250l12 211l-184 -157l-137 211l247 129l-247 129l137 209l184 -156l-12 209h250l-15 -209l187 156z" />
    <glyph glyph-name="plus" unicode="+" horiz-adv-x="1255" 
d="M1102 899v-270h-340v-338h-270v338h-338v270h338v340h270v-340h340z" />
    <glyph glyph-name="comma" unicode="," horiz-adv-x="751" 
d="M629 311l-312 -497h-286l229 497h369z" />
    <glyph glyph-name="hyphen" unicode="-" horiz-adv-x="1128" 
d="M143 901h842v-270h-842v270z" />
    <glyph glyph-name="period" unicode="." horiz-adv-x="673" 
d="M551 176q0 -88 -62 -150.5t-151 -62.5q-88 0 -151.5 62.5t-63.5 150.5q0 89 63.5 151t151.5 62q89 0 151 -62t62 -151z" />
    <glyph glyph-name="slash" unicode="/" horiz-adv-x="1134" 
d="M752 1532h311l-678 -1532h-313z" />
    <glyph glyph-name="zero" unicode="0" horiz-adv-x="1773" 
d="M1620 766q0 -158 -49 -302t-140 -256t-232 -178.5t-312 -66.5q-172 0 -313 66.5t-231.5 178.5t-139.5 256t-49 302t49 302t139.5 256t231.5 178.5t313 66.5q171 0 312 -66.5t232 -178.5t140 -256t49 -302zM887 281q73 0 135 29.5t103.5 78t70.5 112t42 130.5t13 135
t-13 135t-42 130.5t-70.5 112t-103.5 78t-135 29.5q-74 0 -136 -29.5t-103.5 -78t-70.5 -112t-42 -130.5t-13 -135t13 -135t42 -130.5t70.5 -112t103.5 -78t136 -29.5z" />
    <glyph glyph-name="one" unicode="1" horiz-adv-x="1341" 
d="M481 1532h635v-1532h-368v1325l-402 -379l-233 246z" />
    <glyph glyph-name="two" unicode="2" horiz-adv-x="1505" 
d="M1341 307v-307h-1187v500l573 350q15 9 42 25q40 24 58 35t44.5 28.5t36.5 27.5t23.5 26t18 31t8 34t3.5 43q0 67 -68 112t-225 45q-119 0 -254 -36t-238 -97v332q90 51 221.5 82t266.5 31q665 0 665 -471q0 -40 -8.5 -79t-20 -70.5t-34.5 -64.5t-41 -56t-50.5 -51.5
t-51.5 -44t-56 -40.5t-52.5 -34.5t-52 -31t-44.5 -26.5l-482 -293h905z" />
    <glyph glyph-name="three" unicode="3" horiz-adv-x="1429" 
d="M1057 836q109 -58 164 -161t55 -233q0 -101 -34 -182.5t-93.5 -136t-143 -91t-179 -53t-205.5 -16.5q-262 0 -457 105v338q223 -132 450 -132q126 0 209.5 46t83.5 131q0 115 -70.5 164t-213.5 49h-127v290h116q105 0 176.5 41.5t71.5 116.5q0 145 -242 145
q-111 0 -227 -35t-213 -94v332q87 48 206 78.5t239 30.5q282 0 440 -117t158 -332q0 -84 -44.5 -157t-119.5 -127z" />
    <glyph glyph-name="four" unicode="4" horiz-adv-x="1595" 
d="M1268 545h225v-289h-225v-256h-350v256h-785v428l553 848h582v-987zM918 545v782l-508 -782h508z" />
    <glyph glyph-name="five" unicode="5" horiz-adv-x="1486" 
d="M797 995q243 0 389.5 -135t146.5 -371q0 -134 -48.5 -236.5t-137 -165t-205.5 -93.5t-260 -31q-145 0 -284.5 29t-223.5 80v336q88 -63 216.5 -98.5t268.5 -35.5q58 0 107.5 9.5t96.5 32t74.5 67t27.5 106.5q0 104 -56.5 156.5t-156.5 52.5q-47 0 -78 -12t-60 -41h-395
v887h1098v-301h-770v-318q108 82 250 82z" />
    <glyph glyph-name="six" unicode="6" horiz-adv-x="1521" 
d="M778 1016q126 0 232 -32t186.5 -94.5t126 -163.5t45.5 -232q0 -242 -165.5 -386.5t-424.5 -144.5q-624 0 -624 768q0 175 46.5 326.5t133.5 266t223 180t305 65.5q270 0 443 -96v-336q-107 67 -201.5 97t-233.5 30q-126 0 -221.5 -82t-126.5 -240q125 74 256 74zM778 266
q104 0 166 64.5t62 167.5q0 227 -228 227q-65 0 -125.5 -21.5t-138.5 -72.5q0 -71 14.5 -133.5t44 -116t82.5 -84.5t123 -31z" />
    <glyph glyph-name="seven" unicode="7" horiz-adv-x="1282" 
d="M82 1532h1118v-494l-606 -1038h-406l736 1214h-842v318z" />
    <glyph glyph-name="eight" unicode="8" horiz-adv-x="1554" 
d="M1182 827q219 -109 219 -378q0 -122 -45.5 -215.5t-129.5 -152.5t-197 -88.5t-253 -29.5q-139 0 -251.5 29.5t-196 88.5t-129 152.5t-45.5 215.5q0 269 219 378q-74 56 -115 130t-41 155q0 116 43 205t119.5 143.5t176.5 81.5t220 27q121 0 221 -27t177 -81.5t120 -143.5
t43 -205q0 -81 -40.5 -155t-114.5 -130zM776 1278q-211 0 -211 -166q0 -85 60.5 -124.5t150.5 -39.5q59 0 104.5 14.5t77 53t31.5 96.5q0 166 -213 166zM776 262q71 0 128 17.5t96.5 63t39.5 114.5q0 48 -14 85t-37 60.5t-57.5 38t-72 20t-83.5 5.5q-45 0 -82.5 -5.5
t-71.5 -20t-57 -38t-37 -60.5t-14 -85q0 -69 39.5 -114.5t96 -63t126.5 -17.5z" />
    <glyph glyph-name="nine" unicode="9" horiz-adv-x="1521" 
d="M745 518q-131 0 -238 32t-186.5 94.5t-123 162.5t-43.5 229q0 162 76.5 284t209.5 185.5t303 63.5q627 0 627 -768q0 -141 -25.5 -265t-81 -230t-137 -181.5t-198.5 -118.5t-260 -43q-275 0 -451 96v336q105 -65 204.5 -96t240.5 -31q133 0 223 82t114 240
q-117 -72 -254 -72zM743 1266q-103 0 -164 -63.5t-61 -166.5q0 -229 227 -229q64 0 125 22t140 72q0 71 -14.5 133.5t-44.5 116t-83.5 84.5t-124.5 31z" />
    <glyph glyph-name="colon" unicode=":" horiz-adv-x="673" 
d="M551 1042q0 -88 -62 -150.5t-151 -62.5q-88 0 -151.5 62.5t-63.5 150.5q0 89 63.5 151t151.5 62q89 0 151 -62t62 -151zM551 176q0 -88 -62 -150.5t-151 -62.5q-88 0 -151.5 62.5t-63.5 150.5q0 89 63.5 151t151.5 62q89 0 151 -62t62 -151z" />
    <glyph glyph-name="semicolon" unicode=";" horiz-adv-x="751" 
d="M629 311l-312 -497h-286l229 497h369zM627 1042q0 -88 -62 -150.5t-151 -62.5q-88 0 -151.5 62.5t-63.5 150.5q0 89 63.5 151t151.5 62q89 0 151 -62t62 -151z" />
    <glyph glyph-name="less" unicode="&#x3c;" horiz-adv-x="1189" 
d="M1036 1417v-319l-702 -332l702 -332v-317l-882 438v422z" />
    <glyph glyph-name="equal" unicode="=" horiz-adv-x="1277" 
d="M154 1174h970v-271h-970v271zM154 406v270h970v-270h-970z" />
    <glyph glyph-name="greater" unicode="&#x3e;" horiz-adv-x="1189" 
d="M154 1098v319l882 -440v-422l-882 -438v317l702 332z" />
    <glyph glyph-name="question" unicode="?" horiz-adv-x="1349" 
d="M821 176q0 89 -62 151t-151 62q-88 0 -151.5 -62t-63.5 -151q0 -88 63.5 -150.5t151.5 -62.5q89 0 151 62.5t62 150.5zM604 1569q125 0 230.5 -28t187.5 -84t128 -148.5t46 -214.5q0 -170 -115.5 -285t-287.5 -143v-113h-369v354h43q360 0 360 187q0 45 -19.5 77.5
t-53 50t-70.5 25.5t-80 8q-258 0 -471 -139v340q95 52 221.5 82.5t249.5 30.5z" />
    <glyph glyph-name="at" unicode="@" horiz-adv-x="2193" 
d="M1104 1651q150 0 284.5 -36t244 -107t189.5 -171t123.5 -234.5t43.5 -291.5q0 -81 -14 -152t-46 -136t-80 -111t-121 -73.5t-165 -27.5q-59 0 -115.5 31t-85.5 80q-100 -92 -291 -92q-188 0 -308 124.5t-120 311.5q0 201 130 328t329 127q74 0 139.5 -16.5t113.5 -43
t86.5 -63t63 -74t39.5 -78.5v-366q0 -39 53 -39q77 0 116.5 69.5t39.5 200.5q0 280 -176.5 447t-472.5 167q-137 0 -259 -49t-211.5 -134.5t-141.5 -209t-52 -266.5q0 -292 184.5 -468.5t485.5 -176.5q80 0 160 13.5t125 31.5v-238q-105 -32 -285 -32q-199 0 -367 63
t-286.5 176t-185 275.5t-66.5 355.5q0 192 70.5 358t191.5 281t286 180.5t351 65.5zM1278 651v234q-50 90 -168 90q-94 0 -147.5 -57.5t-53.5 -151.5q0 -79 57.5 -135t143.5 -56q116 0 168 76z" />
    <glyph glyph-name="A" unicode="A" 
d="M1585 0l-133 303h-868l-131 -303h-387l682 1532h546l682 -1532h-391zM1018 1327l-311 -729h622z" />
    <glyph glyph-name="B" unicode="B" horiz-adv-x="1652" 
d="M1262 856q113 -47 185.5 -147t72.5 -222q0 -99 -28.5 -180t-79 -137.5t-121.5 -95t-155.5 -56.5t-181.5 -18h-749v1532h641q118 0 214 -22.5t173.5 -70t120.5 -131.5t43 -198q0 -85 -40 -151.5t-95 -102.5zM555 948h272q63 0 110 12t79.5 45t32.5 85q0 71 -49.5 111
t-151.5 40h-293v-293zM1153 487q0 94 -67.5 139.5t-208.5 45.5h-322v-379h346q131 0 191.5 47t60.5 147z" />
    <glyph glyph-name="C" unicode="C" horiz-adv-x="1687" 
d="M532 766q0 -213 145.5 -344t366.5 -131q287 0 490 137v-354q-105 -56 -235.5 -83.5t-254.5 -27.5q-259 0 -461 99.5t-315.5 282.5t-113.5 421q0 251 112.5 433.5t312.5 276t465 93.5q132 0 268.5 -31.5t221.5 -85.5v-354q-222 143 -490 143q-235 0 -373.5 -126
t-138.5 -349z" />
    <glyph glyph-name="D" unicode="D" horiz-adv-x="1882" 
d="M909 1532q194 0 350.5 -58.5t258.5 -161.5t156.5 -242t54.5 -302q0 -162 -56 -301t-161 -243.5t-268 -164t-365 -59.5h-674v1532h704zM915 305q195 0 315 128.5t120 338.5q0 208 -119.5 331.5t-315.5 123.5h-342v-922h342z" />
    <glyph glyph-name="E" unicode="E" horiz-adv-x="1595" 
d="M573 305h869v-305h-1237v1532h1225v-305h-857v-271h820v-294h-820v-357z" />
    <glyph glyph-name="F" unicode="F" horiz-adv-x="1531" 
d="M1430 1227h-857v-269h723v-301h-723v-657h-368v1532h1225v-305z" />
    <glyph glyph-name="G" unicode="G" horiz-adv-x="1837" 
d="M1673 741v-632q-108 -64 -278.5 -105t-350.5 -41q-266 0 -467.5 97.5t-312 280t-110.5 425.5q0 188 69 341t190.5 253.5t285.5 154.5t356 54q147 0 282 -30t228 -87v-354q-125 78 -243 110.5t-267 32.5q-229 0 -376 -127t-147 -348q0 -219 141 -347t371 -128
q162 0 273 41v409h356z" />
    <glyph glyph-name="H" unicode="H" horiz-adv-x="1970" 
d="M1397 1532h368v-1532h-368v657h-824v-657h-368v1532h368v-567h824v567z" />
    <glyph glyph-name="I" unicode="I" horiz-adv-x="819" 
d="M225 0v1532h369v-1532h-369z" />
    <glyph glyph-name="J" unicode="J" horiz-adv-x="1292" 
d="M231 1532h856v-950q0 -316 -160 -467.5t-474 -151.5q-103 0 -204.5 28t-156.5 66v340q156 -106 348 -106q142 0 210.5 63.5t68.5 220.5v639h-488v318z" />
    <glyph glyph-name="K" unicode="K" horiz-adv-x="1835" 
d="M1044 999l721 -999h-440l-551 799l-201 -158v-641h-368v1532h368v-516l648 516h514z" />
    <glyph glyph-name="L" unicode="L" horiz-adv-x="1462" 
d="M573 317h828v-317h-1196v1532h368v-1215z" />
    <glyph glyph-name="M" unicode="M" horiz-adv-x="2580" 
d="M1743 1532h633v-1532h-363v1325l-454 -1325h-537l-455 1325v-1325h-362v1532h633l450 -1327z" />
    <glyph glyph-name="N" unicode="N" 
d="M1475 205v1327h362v-1532h-627l-643 1325v-1325h-362v1532h629z" />
    <glyph glyph-name="O" unicode="O" horiz-adv-x="2103" 
d="M1051 1569q269 0 473 -99t315 -281.5t111 -422.5q0 -239 -111 -421.5t-315 -282t-473 -99.5q-267 0 -470.5 99.5t-315 282t-111.5 421.5q0 240 111.5 422.5t315 281.5t470.5 99zM1051 291q229 0 374.5 129t145.5 346t-145.5 346t-374.5 129q-227 0 -373 -129.5
t-146 -345.5t146 -345.5t373 -129.5z" />
    <glyph glyph-name="P" unicode="P" horiz-adv-x="1652" 
d="M897 1532q140 0 252.5 -31t196 -92t129 -159t45.5 -226q0 -129 -45 -227t-128 -159t-195.5 -91.5t-252.5 -30.5h-326v-516h-368v1532h692zM897 817q114 0 181 52t67 155q0 102 -68 152.5t-184 50.5h-320v-410h324z" />
    <glyph glyph-name="Q" unicode="Q" horiz-adv-x="2103" 
d="M2011 -37h-424l-88 90q-201 -90 -448 -90q-267 0 -470.5 99t-315 281.5t-111.5 422.5q0 239 111.5 421.5t315 282t470.5 99.5q269 0 473 -99.5t315 -282t111 -421.5q0 -319 -197 -535zM1051 291q102 0 194 28l-305 316h424l131 -135q76 112 76 266q0 217 -145.5 346
t-374.5 129q-227 0 -373 -129.5t-146 -345.5q0 -217 146 -346t373 -129z" />
    <glyph glyph-name="R" unicode="R" horiz-adv-x="1689" 
d="M1628 0h-411l-336 551h-308v-551h-368v1532h674q139 0 252 -29t197 -88t130 -154.5t47 -220.5q0 -156 -74.5 -261t-203.5 -163zM573 1231v-387h306q115 0 182 47.5t67 148.5q0 97 -68.5 144t-185.5 47h-301z" />
    <glyph glyph-name="S" unicode="S" horiz-adv-x="1587" 
d="M860 946q79 -25 123 -40t114 -44t110 -54t89.5 -66.5t75 -86t44 -106.5t18.5 -135q0 -104 -35 -183t-96 -129t-151 -82t-191 -44.5t-226 -12.5q-176 0 -333 37t-248 90v342q114 -77 271.5 -116.5t309.5 -39.5q186 0 258 31t72 113q0 28 -11.5 52t-42.5 46.5t-54 37
t-79.5 35.5t-82 29.5t-96.5 31.5l-9 3q-106 35 -161 55.5t-137.5 63.5t-124 88t-73.5 117.5t-32 163.5q0 93 38 166.5t102 121.5t152 79.5t182.5 45t199.5 13.5q159 0 301.5 -31t238.5 -88v-344q-92 70 -229.5 109.5t-306.5 39.5q-73 0 -126 -5t-96.5 -17.5t-65.5 -36
t-22 -57.5q0 -27 13 -48.5t34 -37.5t57 -31.5t74 -28t93 -29.5q38 -12 59 -18z" />
    <glyph glyph-name="T" unicode="T" horiz-adv-x="1630" 
d="M1569 1532v-318h-570v-1214h-368v1214h-570v318h1508z" />
    <glyph glyph-name="U" unicode="U" horiz-adv-x="1900" 
d="M1327 1532h369v-907q0 -319 -187 -490.5t-559 -171.5t-558.5 171.5t-186.5 490.5v907h368v-909q0 -167 90.5 -249.5t286.5 -82.5t286.5 82.5t90.5 249.5v909z" />
    <glyph glyph-name="V" unicode="V" horiz-adv-x="1978" 
d="M1524 1532h383l-627 -1532h-584l-624 1532h385l532 -1327z" />
    <glyph glyph-name="W" unicode="W" horiz-adv-x="2965" 
d="M2894 1532l-527 -1532h-583l-303 1327l-334 -1327h-582l-493 1532h372l418 -1325l326 1325h594l293 -1325l446 1325h373z" />
    <glyph glyph-name="X" unicode="X" horiz-adv-x="1824" 
d="M1761 0h-401l-442 713l-453 -713h-402l543 825l-469 707h402l381 -592l376 592h400l-463 -707z" />
    <glyph glyph-name="Y" unicode="Y" horiz-adv-x="1775" 
d="M1335 1532h371l-795 -1532h-370l270 522h-199l-542 1010h393l442 -836z" />
    <glyph glyph-name="Z" unicode="Z" horiz-adv-x="1556" 
d="M1409 1038l-1003 -731h1038v-307h-1321v494l1003 731h-954v307h1237v-494z" />
    <glyph glyph-name="bracketleft" unicode="[" horiz-adv-x="913" 
d="M770 1532h-258v-1532h258v-276h-565v2084h565v-276z" />
    <glyph glyph-name="backslash" unicode="\" horiz-adv-x="1134" 
d="M72 1532h311l680 -1532h-313z" />
    <glyph glyph-name="bracketright" unicode="]" horiz-adv-x="913" 
d="M401 1532h-258v276h566v-2084h-566v276h258v1532z" />
    <glyph glyph-name="asciicircum" unicode="^" horiz-adv-x="1677" 
d="M840 1393l-365 -711h-321l467 887h436l467 -887h-320z" />
    <glyph glyph-name="underscore" unicode="_" horiz-adv-x="1429" 
d="M0 -215h1430v-256h-1430v256z" />
    <glyph glyph-name="grave" unicode="`" horiz-adv-x="888" 
d="M440 1716l-381 334h437l333 -334h-389z" />
    <glyph glyph-name="a" unicode="a" horiz-adv-x="1605" 
d="M1497 260q29 0 47 6v-278q-41 -13 -92 -13q-268 0 -367 170q-47 -77 -151.5 -129.5t-239.5 -52.5q-280 0 -420.5 114.5t-140.5 321.5q0 103 49.5 184.5t129.5 129.5t173 73t189 25q65 0 125.5 -15t96.5 -33t74.5 -33t65.5 -15v59q0 240 -336 240q-279 0 -479 -115v289
q200 104 467 104q329 0 510.5 -132t181.5 -369v-431q0 -100 117 -100zM1036 434v33q-33 0 -88 24t-125 48.5t-139 25.5q-84 0 -140.5 -41.5t-56.5 -124.5q0 -47 20.5 -80.5t56.5 -50.5t75.5 -24.5t87.5 -7.5q130 0 219.5 53t89.5 145z" />
    <glyph glyph-name="b" unicode="b" horiz-adv-x="1826" 
d="M975 1292q326 0 522.5 -179t196.5 -488q0 -308 -196.5 -485t-522.5 -177q-277 0 -436 170v-133h-355v1800h355v-678q157 170 436 170zM930 270q178 0 286.5 91t108.5 264q0 174 -108.5 267t-286.5 93q-189 0 -304.5 -93.5t-115.5 -262.5q0 -171 115.5 -265t304.5 -94z
" />
    <glyph glyph-name="c" unicode="c" horiz-adv-x="1492" 
d="M940 1292q120 0 234.5 -26.5t185.5 -67.5v-326q-72 48 -188 80.5t-232 32.5q-90 0 -166.5 -19.5t-138.5 -60t-97.5 -111t-35.5 -163.5q0 -87 37.5 -157.5t100 -114t139.5 -66.5t161 -23q241 0 420 111v-328q-82 -43 -196.5 -66.5t-223.5 -23.5q-170 0 -317.5 46.5
t-256 131.5t-171 211.5t-62.5 278.5q0 159 60 285t168 208t255 125t324 43z" />
    <glyph glyph-name="d" unicode="d" horiz-adv-x="1828" 
d="M133 625q0 205 90.5 356.5t253 231t377.5 79.5q132 0 244.5 -45t191.5 -127v680h355v-1800h-355v133q-81 -81 -193 -125.5t-243 -44.5q-327 0 -524 177t-197 485zM502 625q0 -173 108.5 -264t286.5 -91q188 0 305 96t117 261q0 166 -117 262t-305 96q-178 0 -286.5 -93.5
t-108.5 -266.5z" />
    <glyph glyph-name="e" unicode="e" horiz-adv-x="1619" 
d="M1487 598v-66h-1000q17 -127 121 -204.5t264 -77.5q294 0 500 112v-296q-204 -103 -498 -103q-175 0 -316.5 51t-233.5 140.5t-141.5 210.5t-49.5 262q0 300 189 482.5t499 182.5q311 0 488.5 -178t177.5 -516zM496 772h651q-14 59 -35 100t-57 75t-94.5 50.5
t-139.5 16.5q-263 0 -325 -242z" />
    <glyph glyph-name="f" unicode="f" horiz-adv-x="1275" 
d="M897 1534q-217 0 -217 -279h407v-299h-407v-956h-354v956h-265v299h265v11q0 281 155 426t418 145q93 0 181 -21.5t145 -50.5v-305q-152 74 -328 74z" />
    <glyph glyph-name="g" unicode="g" horiz-adv-x="1826" 
d="M1288 1255h354v-1101q0 -363 -196.5 -532t-607.5 -169q-358 0 -598 119v334q251 -146 579 -146q258 0 363.5 74t105.5 254v84q-72 -81 -187 -126.5t-249 -45.5q-153 0 -283.5 41.5t-228 120.5t-152.5 201t-55 274q0 301 192 478t527 177q132 0 245.5 -45t190.5 -125v133z
M897 295q194 0 307 83t113 251q0 164 -117 260t-303 96q-184 0 -289.5 -90t-105.5 -258q0 -163 109 -252.5t286 -89.5z" />
    <glyph glyph-name="h" unicode="h" horiz-adv-x="1716" 
d="M940 1292q268 0 430 -134t162 -359v-799h-354v754q0 114 -54.5 172.5t-189.5 58.5q-206 0 -300.5 -74t-94.5 -249v-662h-355v1800h355v-682q68 87 177 130.5t224 43.5z" />
    <glyph glyph-name="i" unicode="i" horiz-adv-x="743" 
d="M195 0v1255h354v-1255h-354zM571 1663q0 -83 -58 -141t-140 -58q-83 0 -142 58t-59 141t59 141t142 58q82 0 140 -58t58 -141z" />
    <glyph glyph-name="j" unicode="j" horiz-adv-x="993" 
d="M123 1255h676v-1165q0 -155 -32 -270t-103 -199t-189 -126t-285 -42q-42 0 -95 6.5t-79 14.5v307q78 -21 170 -21q62 0 107 14.5t80 50t53 99.5t18 158v874h-321v299zM821 1663q0 -83 -58 -141t-140 -58q-83 0 -141 58t-58 141t58 141t141 58q82 0 140 -58t58 -141z" />
    <glyph glyph-name="k" unicode="k" horiz-adv-x="1624" 
d="M1554 0h-424l-436 674l-155 -121v-553h-355v1800h355v-913l483 368h496l-562 -401z" />
    <glyph glyph-name="l" unicode="l" horiz-adv-x="743" 
d="M195 1800h354v-1800h-354v1800z" />
    <glyph glyph-name="m" unicode="m" horiz-adv-x="2484" 
d="M1776 1292q244 0 384 -134.5t140 -350.5v-807h-354v752q0 113 -46.5 173t-156.5 60q-95 0 -165.5 -30.5t-114.5 -104.5t-44 -188v-662h-354v752q0 113 -46.5 173t-156.5 60q-146 0 -234.5 -78t-88.5 -245v-662h-355v1255h355v-137q62 76 159 125t197 49q115 0 202.5 -30
t144.5 -80.5t99 -126.5q67 115 187.5 176t247.5 61z" />
    <glyph glyph-name="n" unicode="n" horiz-adv-x="1716" 
d="M1532 801v-801h-354v754q0 114 -54.5 172.5t-189.5 58.5q-206 0 -300.5 -74t-94.5 -249v-662h-355v1255h355v-137q66 87 176 130.5t225 43.5q268 0 430 -133.5t162 -357.5z" />
    <glyph glyph-name="o" unicode="o" horiz-adv-x="1806" 
d="M1673 627q0 -194 -97.5 -345.5t-273 -235t-399.5 -83.5t-399.5 83.5t-273 235.5t-97.5 347q0 194 97.5 345t273 234.5t399.5 83.5t399.5 -83.5t273 -235t97.5 -346.5zM903 270q185 0 293.5 96t108.5 263q0 165 -108.5 260.5t-293.5 95.5t-293 -95.5t-108 -260.5
q0 -167 108 -263t293 -96z" />
    <glyph glyph-name="p" unicode="p" horiz-adv-x="1826" 
d="M975 1292q333 0 526 -177t193 -488q0 -153 -54.5 -279t-151 -209.5t-228 -129.5t-285.5 -46q-279 0 -436 170v-643h-355v1765h355v-135q159 172 436 172zM930 270q109 0 197 38.5t143 121t55 197.5q0 175 -105 266.5t-290 91.5q-188 0 -304 -94.5t-116 -263.5t116 -263
t304 -94z" />
    <glyph glyph-name="q" unicode="q" horiz-adv-x="1826" 
d="M1288 1255h354v-1765h-354v643q-81 -81 -193 -125.5t-243 -44.5q-152 0 -283.5 46t-228 129.5t-152 209.5t-55.5 279q0 310 191.5 487.5t527.5 177.5q133 0 246 -45t190 -127v135zM897 270q186 0 303 96t117 261q0 166 -116.5 262t-303.5 96q-185 0 -290 -91.5
t-105 -266.5q0 -164 110 -260.5t285 -96.5z" />
    <glyph glyph-name="r" unicode="r" horiz-adv-x="1214" 
d="M942 1292q123 0 201 -35v-325q-101 43 -203 43q-401 0 -401 -365v-610h-355v1255h355v-178q59 104 169.5 159.5t233.5 55.5z" />
    <glyph glyph-name="s" unicode="s" horiz-adv-x="1441" 
d="M807 778q186 -55 262 -91q186 -89 227 -243q13 -48 13 -104q0 -377 -639 -377q-168 0 -307 35t-220 74v297q130 -65 254 -94t273 -29q136 0 206 20t70 74q0 57 -70 93t-251 83q-53 14 -94 27t-92.5 34t-90.5 43.5t-78 54.5t-64 69t-40.5 85.5t-15.5 104.5q0 96 54 168
t144.5 112t193 59t216.5 19q136 0 271 -28t220 -74v-295q-109 61 -225 88t-262 27q-119 0 -184.5 -20t-65.5 -56q0 -41 62.5 -73.5t232.5 -82.5z" />
    <glyph glyph-name="t" unicode="t" horiz-adv-x="1273" 
d="M866 270q91 0 180 25.5t156 66.5v-321q-171 -78 -360 -78q-257 0 -386.5 123.5t-129.5 355.5v514h-265v299h265v314h354v-314h422v-299h-422v-489q0 -106 42.5 -151.5t143.5 -45.5z" />
    <glyph glyph-name="u" unicode="u" horiz-adv-x="1675" 
d="M1137 1255h354v-720q0 -143 -48 -253t-136 -179.5t-206 -104.5t-263 -35q-146 0 -265 35t-206.5 104.5t-135 179.5t-47.5 253v720h355v-712q0 -146 74 -209.5t225 -63.5q148 0 223.5 63.5t75.5 209.5v712z" />
    <glyph glyph-name="v" unicode="v" horiz-adv-x="1622" 
d="M1182 1255h379l-482 -1255h-536l-482 1255h379l369 -1034z" />
    <glyph glyph-name="w" unicode="w" horiz-adv-x="2449" 
d="M2030 1255h358l-399 -1255h-521l-245 1036l-256 -1036h-521l-385 1255h365l289 -1036l229 1036h565l220 -1036z" />
    <glyph glyph-name="x" unicode="x" horiz-adv-x="1546" 
d="M1487 0h-385l-324 573l-334 -573h-385l418 694l-356 561h389l272 -446l279 446h379l-357 -565z" />
    <glyph glyph-name="y" unicode="y" horiz-adv-x="1665" 
d="M1229 1255h375l-783 -1765h-375l314 686h-168l-531 1079h394l403 -860z" />
    <glyph glyph-name="z" unicode="z" horiz-adv-x="1400" 
d="M1245 799l-817 -508h860v-291h-1165v455l819 510h-780v290h1083v-456z" />
    <glyph glyph-name="braceleft" unicode="{" horiz-adv-x="1013" 
d="M602 1042q0 -101 -34 -173.5t-99 -102.5q65 -32 99 -105t34 -174v-329q0 -158 148 -158h120v-276h-161q-186 0 -300 103t-114 263v307q0 44 -1 66.5t-4.5 53.5t-11.5 46t-22.5 30.5t-37 21.5t-54.5 6v290q32 0 54.5 6t37 23.5t22.5 34t11.5 54t4.5 66t1 85.5v262
q0 160 114 263t300 103h161v-276h-120q-148 0 -148 -158v-332z" />
    <glyph glyph-name="bar" unicode="|" horiz-adv-x="665" 
d="M205 -276v2084h256v-2084h-256z" />
    <glyph glyph-name="braceright" unicode="}" horiz-adv-x="1013" 
d="M412 1042v332q0 158 -148 158h-121v276h162q186 0 300 -103t114 -263v-262q0 -57 1 -85.5t4.5 -66t11.5 -54t22.5 -34t37 -23.5t54.5 -6v-290q-32 0 -54.5 -6t-37 -21.5t-22.5 -30.5t-11.5 -46t-4.5 -53.5t-1 -66.5v-307q0 -160 -114 -263t-300 -103h-162v276h121
q148 0 148 158v329q0 101 34 174t99 105q-65 30 -99 102.5t-34 173.5z" />
    <glyph glyph-name="asciitilde" unicode="~" horiz-adv-x="1662" 
d="M1204 1032h326q-21 -206 -139.5 -301.5t-329.5 -95.5q-73 0 -144.5 20.5t-118.5 45t-102.5 45t-101.5 20.5q-61 0 -89.5 -31t-45.5 -96h-326q21 200 139 299.5t320 99.5q72 0 143.5 -20.5t119 -45t102 -45t96.5 -20.5q67 0 101.5 29.5t49.5 95.5z" />
    <glyph glyph-name="exclamdown" unicode="&#xa1;" horiz-adv-x="825" 
d="M229 -442v979h369v-979h-369zM199 913q0 88 62 150.5t151 62.5q88 0 151.5 -62.5t63.5 -150.5q0 -89 -63.5 -151t-151.5 -62q-89 0 -151 62t-62 151z" />
    <glyph glyph-name="sterling" unicode="&#xa3;" horiz-adv-x="1413" 
d="M571 317h740v-317h-1188v317q133 0 133 140v180h-133v256h133v55q0 307 177 464t493 157q87 0 180 -22.5t147 -53.5v-332q-79 40 -151 60t-164 20q-313 0 -313 -285v-63h465v-256h-465v-180q0 -41 -16 -80.5t-38 -59.5z" />
    <glyph glyph-name="currency" unicode="&#xa4;" horiz-adv-x="1667" 
d="M1362 1468l174 -174l-215 -215q90 -140 90 -313q0 -171 -90 -311l215 -215l-174 -174l-215 215q-145 -93 -313 -93q-167 0 -312 93l-215 -215l-174 174l215 215q-92 143 -92 311q0 170 92 313l-215 215l174 174l215 -215q140 90 312 90q173 0 313 -90zM1047 553
q88 85 88 213q0 125 -88 213t-213 88t-213 -88q-89 -89 -89 -213q0 -127 89 -213q88 -88 213 -88t213 88z" />
    <glyph glyph-name="yen" unicode="&#xa5;" horiz-adv-x="1769" 
d="M1700 1532l-440 -645h245v-230h-436v-165h436v-230h-436v-262h-369v262h-436v230h436v165h-436v230h244l-438 645h397l418 -645l415 645h400z" />
    <glyph glyph-name="brokenbar" unicode="&#xa6;" horiz-adv-x="665" 
d="M205 920v888h256v-888h-256zM205 -276v888h256v-888h-256z" />
    <glyph glyph-name="section" unicode="&#xa7;" horiz-adv-x="1484" 
d="M1159 444q172 -108 172 -270q0 -95 -47 -165.5t-131 -112.5t-190 -62t-234 -20q-290 0 -500 106v287q116 -67 235 -98t273 -31q264 0 264 98q0 24 -30 48.5t-82 47t-99 39.5t-104.5 35t-75.5 25q-173 63 -243 100q-209 119 -213 295q0 79 51 148t121 118
q-172 108 -172 271q0 95 47 165.5t131 112.5t190 62t234 20q293 0 499 -104v-289q-116 67 -234.5 98t-272.5 31q-265 0 -265 -99q0 -24 30 -48.5t82 -46.5t99.5 -39t104.5 -35t75 -25q173 -63 242 -99q210 -121 215 -296q0 -79 -51 -148.5t-121 -118.5zM483 768
q0 -16 10 -32t32 -31t41.5 -27t55 -26t55 -21.5t58 -19.5t48 -15t40.5 -12q10 -3 33.5 -10.5t36.5 -10.5q108 65 108 146q0 16 -10 32t-32 31t-42 27t-54.5 26t-54.5 22t-58 19.5t-48 14.5l-40 12q-10 3 -33 10t-37 10q-109 -65 -109 -145z" />
    <glyph glyph-name="dieresis" unicode="&#xa8;" horiz-adv-x="1163" 
d="M1061 1894q0 -74 -52.5 -126t-125.5 -52t-125.5 52t-52.5 126q0 73 52 125t126 52t126 -52t52 -125zM459 1894q0 -74 -52.5 -126t-125.5 -52q-74 0 -126.5 52.5t-52.5 125.5t52.5 125t126.5 52t126 -52t52 -125z" />
    <glyph glyph-name="copyright" unicode="&#xa9;" horiz-adv-x="1820" 
d="M911 1569q191 0 353.5 -94.5t257 -257t94.5 -353.5q0 -143 -56 -273.5t-150.5 -225t-225 -150t-273.5 -55.5t-274 55.5t-225.5 150t-150.5 225t-56 273.5t56 273.5t150.5 225t225.5 150.5t274 56zM1276 498q151 154 151 366q0 102 -39.5 196.5t-111.5 168.5
q-151 151 -365 151q-215 0 -366 -151q-73 -74 -112.5 -168.5t-39.5 -196.5q0 -103 39.5 -197t112.5 -167q152 -152 366 -152q102 0 196.5 39t168.5 111zM555 864q0 158 110 253t273 95q127 0 207 -45v-188q-74 51 -207 51q-79 0 -129.5 -47.5t-50.5 -118.5t52 -119.5
t128 -48.5q124 0 207 56v-193q-76 -45 -207 -45q-159 0 -271 97.5t-112 252.5z" />
    <glyph glyph-name="guillemotleft" unicode="&#xab;" horiz-adv-x="1449" 
d="M967 649l329 -289v-360l-512 453v395l512 452v-360zM336 649l330 -289v-360l-512 453v395l512 452v-360z" />
    <glyph glyph-name="logicalnot" unicode="&#xac;" horiz-adv-x="1308" 
d="M154 707v270h1001v-537h-270v267h-731z" />
    <glyph glyph-name="uni00AD" unicode="&#xad;" horiz-adv-x="811" 
 />
    <glyph glyph-name="registered" unicode="&#xae;" horiz-adv-x="1818" 
d="M909 1569q191 0 353.5 -94.5t257 -257t94.5 -353.5q0 -143 -56 -273.5t-150.5 -225t-225 -150t-273.5 -55.5t-273.5 55.5t-225 150t-150 225t-55.5 273.5t55.5 273.5t150 225t225 150.5t273.5 56zM1274 500q151 151 151 364q0 216 -151 367q-73 72 -167.5 110.5
t-197.5 38.5q-215 0 -364 -149q-152 -152 -152 -367q0 -212 152 -364q73 -73 167 -112.5t197 -39.5q102 0 196.5 39.5t168.5 112.5zM1186 973q0 -51 -22.5 -100.5t-61.5 -79.5l110 -265h-204l-76 217h-86v-217h-195v672h279q111 0 183.5 -64t72.5 -163zM920 901
q28 0 48.5 19.5t20.5 52.5q0 29 -21 49t-48 20h-74v-141h74z" />
    <glyph glyph-name="macron" unicode="&#xaf;" horiz-adv-x="1052" 
d="M102 1716v234h848v-234h-848z" />
    <glyph glyph-name="degree" unicode="&#xb0;" horiz-adv-x="1003" 
d="M502 1358q-60 0 -98.5 -38.5t-38.5 -98.5t38.5 -99t98.5 -39t98.5 39t38.5 99t-38.5 98.5t-98.5 38.5zM502 1569q145 0 246.5 -101.5t101.5 -246.5t-101.5 -247t-246.5 -102t-246.5 102t-101.5 247t101.5 246.5t246.5 101.5z" />
    <glyph glyph-name="plusminus" unicode="&#xb1;" horiz-adv-x="1255" 
d="M154 131v270h948v-270h-948zM762 1094h340v-271h-340v-293h-270v293h-338v271h338v340h270v-340z" />
    <glyph glyph-name="acute" unicode="&#xb4;" horiz-adv-x="888" 
d="M829 2050l-380 -334h-390l334 334h436z" />
    <glyph glyph-name="mu" unicode="&#xb5;" horiz-adv-x="1675" 
d="M1137 1255h354v-720q0 -143 -48 -253t-136 -179.5t-206 -104.5t-263 -35q-87 0 -168 26.5t-131 76.5v-578h-355v1767h355v-712q0 -146 74 -209.5t225 -63.5q148 0 223.5 63.5t75.5 209.5v712z" />
    <glyph glyph-name="paragraph" unicode="&#xb6;" horiz-adv-x="1245" 
d="M1143 1305h-115v-1305h-256v1305h-158v-1305h-237v862q-119 13 -197 113t-78 223q0 144 104 239t249 95h688v-227z" />
    <glyph glyph-name="periodcentered" unicode="&#xb7;" horiz-adv-x="673" 
d="M551 762q0 -88 -62 -150.5t-151 -62.5q-88 0 -151.5 62.5t-63.5 150.5q0 89 63.5 151t151.5 62q89 0 151 -62t62 -151z" />
    <glyph glyph-name="cedilla" unicode="&#xb8;" horiz-adv-x="669" 
d="M156 -242v242h174v-121q102 -12 168.5 -68.5t66.5 -140.5q0 -248 -313 -248q-93 0 -154 21v180q56 -24 133 -24q138 0 138 67q0 51 -53.5 71.5t-159.5 20.5z" />
    <glyph glyph-name="guillemotright" unicode="&#xbb;" horiz-adv-x="1449" 
d="M154 360l329 289l-329 291v360l512 -452v-395l-512 -453v360zM784 360l330 289l-330 291v360l512 -452v-395l-512 -453v360z" />
    <glyph glyph-name="onequarter" unicode="&#xbc;" horiz-adv-x="1880" 
d="M655 1532v-766h-219v594l-170 -168l-143 147l199 193h333zM1337 1532h281l-993 -1532h-283zM1686 307h112v-170h-112v-137h-189v137h-391v256l299 373h281v-459zM1497 307v287l-227 -287h227z" />
    <glyph glyph-name="onehalf" unicode="&#xbd;" horiz-adv-x="2015" 
d="M655 1532v-766h-219v594l-170 -170l-143 149l199 193h333zM1337 1532h281l-993 -1532h-283zM1487 186h389v-186h-576v287l232 139q117 67 117 94q0 68 -113 68q-71 0 -121.5 -16.5t-107.5 -53.5v207q39 27 106 41t121 14q174 0 256 -61.5t82 -190.5q0 -23 -4.5 -43
t-10 -35t-21 -32t-24.5 -26t-34.5 -26.5t-37.5 -25.5t-46 -29z" />
    <glyph glyph-name="threequarters" unicode="&#xbe;" horiz-adv-x="1808" 
d="M1264 1532h282l-995 -1532h-281zM123 819v203q61 -34 110.5 -46.5t120.5 -12.5q50 0 80.5 17t30.5 46q0 80 -109 80h-59v164h47q100 0 100 59q0 24 -24.5 37.5t-63.5 13.5q-122 0 -227 -63v201q102 51 229 51q60 0 111.5 -13t93.5 -40t66 -74t24 -109q0 -32 -23 -70
t-59 -57q51 -29 81 -78t30 -104q0 -128 -85.5 -189t-240.5 -61q-132 0 -233 45zM1614 305h112v-170h-112v-135h-191v135h-391v258l299 373h283v-461zM1423 305v289l-225 -289h225z" />
    <glyph glyph-name="questiondown" unicode="&#xbf;" horiz-adv-x="1277" 
d="M508 913q0 88 62 150.5t151 62.5q88 0 151.5 -62.5t63.5 -150.5q0 -89 -63.5 -151t-151.5 -62q-89 0 -151 62t-62 151zM725 -479q-125 0 -230.5 28t-187.5 84t-128 148.5t-46 214.5q0 170 116 285t288 143v113h368v-355h-43q-360 0 -360 -186q0 -59 35 -97t82.5 -51.5
t105.5 -13.5q258 0 471 139v-340q-95 -52 -221 -82t-250 -30z" />
    <glyph glyph-name="Agrave" unicode="&#xc0;" 
d="M1585 0l-133 303h-868l-131 -303h-387l682 1532h546l682 -1532h-391zM1018 1327l-311 -729h622zM799 1716l-381 334h436l334 -334h-389z" />
    <glyph glyph-name="Aacute" unicode="&#xc1;" 
d="M1585 0l-133 303h-868l-131 -303h-387l682 1532h546l682 -1532h-391zM1018 1327l-311 -729h622zM1569 2050l-381 -334h-389l334 334h436z" />
    <glyph glyph-name="Acircumflex" unicode="&#xc2;" 
d="M1585 0l-133 303h-868l-131 -303h-387l682 1532h546l682 -1532h-391zM1018 1327l-311 -729h622zM1243 2050l262 -334h-317l-168 170l-168 -170h-315l260 334h446z" />
    <glyph glyph-name="Atilde" unicode="&#xc3;" 
d="M1585 0l-133 303h-868l-131 -303h-387l682 1532h546l682 -1532h-391zM1018 1327l-311 -729h622zM1126 1950q25 0 38.5 20t17.5 45h260q0 -146 -79 -226.5t-220 -80.5q-43 0 -81.5 11.5t-61.5 25.5t-49 25.5t-46 11.5q-18 0 -31 -19.5t-16 -46.5h-260q0 140 79.5 224.5
t215.5 84.5q45 0 84 -11.5t61 -26t46 -26t42 -11.5z" />
    <glyph glyph-name="Adieresis" unicode="&#xc4;" 
d="M1585 0l-133 303h-868l-131 -303h-387l682 1532h546l682 -1532h-391zM1018 1327l-311 -729h622zM1499 1894q0 -74 -52.5 -126t-125.5 -52t-125.5 52t-52.5 126q0 73 52 125t126 52t126 -52t52 -125zM897 1894q0 -74 -52.5 -126t-125.5 -52t-125.5 52t-52.5 126
q0 73 52 125t126 52t126 -52t52 -125z" />
    <glyph glyph-name="Aring" unicode="&#xc5;" 
d="M1585 0l-133 303h-868l-131 -303h-387l682 1532h546l682 -1532h-391zM1018 1327l-311 -729h622zM1022 2048q-47 0 -81 -34.5t-34 -80.5q0 -47 34 -80.5t81 -33.5q46 0 79.5 33.5t33.5 80.5q0 46 -33.5 80.5t-79.5 34.5zM1022 2198q109 0 186.5 -78t77.5 -187
q0 -110 -77.5 -187t-186.5 -77q-110 0 -188 77t-78 187q0 109 78 187t188 78z" />
    <glyph glyph-name="AE" unicode="&#xc6;" horiz-adv-x="2576" 
d="M1630 301h793v-301h-1161v301h-666l-147 -301h-377l749 1532h1589v-301h-780v-275h742v-294h-742v-361zM1262 596v635h-218l-307 -635h525z" />
    <glyph glyph-name="Ccedilla" unicode="&#xc7;" horiz-adv-x="1687" 
d="M1044 1241q-235 0 -373.5 -126t-138.5 -349q0 -213 145.5 -344t366.5 -131q287 0 490 137v-354q-183 -95 -424 -109v-86q102 -12 169 -68.5t67 -140.5q0 -248 -314 -248q-92 0 -153 21v180q55 -24 133 -24q137 0 137 67q0 51 -53.5 71.5t-159.5 20.5v209
q-231 20 -408 124t-275.5 279t-98.5 396q0 251 112.5 433.5t312.5 276t465 93.5q132 0 268.5 -31.5t221.5 -85.5v-354q-222 143 -490 143z" />
    <glyph glyph-name="Egrave" unicode="&#xc8;" horiz-adv-x="1595" 
d="M573 305h869v-305h-1237v1532h1225v-305h-857v-271h820v-294h-820v-357zM793 1716l-381 334h436l334 -334h-389z" />
    <glyph glyph-name="Eacute" unicode="&#xc9;" horiz-adv-x="1595" 
d="M573 305h869v-305h-1237v1532h1225v-305h-857v-271h820v-294h-820v-357zM1311 2050l-381 -334h-389l333 334h437z" />
    <glyph glyph-name="Ecircumflex" unicode="&#xca;" horiz-adv-x="1595" 
d="M573 305h869v-305h-1237v1532h1225v-305h-857v-271h820v-294h-820v-357zM1075 2050l262 -334h-317l-168 170l-168 -170h-315l260 334h446z" />
    <glyph glyph-name="Edieresis" unicode="&#xcb;" horiz-adv-x="1595" 
d="M573 305h869v-305h-1237v1532h1225v-305h-857v-271h820v-294h-820v-357zM1329 1894q0 -74 -52.5 -126t-125.5 -52t-125.5 52t-52.5 126q0 73 52 125t126 52t126 -52t52 -125zM727 1894q0 -74 -52.5 -126t-125.5 -52t-125.5 52t-52.5 126q0 73 52 125t126 52t126 -52
t52 -125z" />
    <glyph glyph-name="Igrave" unicode="&#xcc;" horiz-adv-x="819" 
d="M225 0v1532h369v-1532h-369zM324 1716l-381 334h436l334 -334h-389z" />
    <glyph glyph-name="Iacute" unicode="&#xcd;" horiz-adv-x="819" 
d="M225 0v1532h369v-1532h-369zM877 2050l-381 -334h-390l334 334h437z" />
    <glyph glyph-name="Icircumflex" unicode="&#xce;" horiz-adv-x="819" 
d="M225 0v1532h369v-1532h-369zM633 2050l262 -334h-317l-168 170l-168 -170h-316l260 334h447z" />
    <glyph glyph-name="Idieresis" unicode="&#xcf;" horiz-adv-x="819" 
d="M225 0v1532h369v-1532h-369zM889 1894q0 -74 -52.5 -126t-125.5 -52q-74 0 -126.5 52.5t-52.5 125.5t52.5 125t126.5 52t126 -52t52 -125zM287 1894q0 -74 -52.5 -126t-125.5 -52q-74 0 -126.5 52.5t-52.5 125.5t52.5 125t126.5 52t126 -52t52 -125z" />
    <glyph glyph-name="Eth" unicode="&#xd0;" horiz-adv-x="1925" 
d="M954 1532q194 0 350 -58.5t257.5 -161.5t156 -241.5t54.5 -300.5t-56 -301.5t-160.5 -244.5t-267 -164.5t-364.5 -59.5h-676v666h-207v288h207v578h706zM958 305q195 0 315 129t120 338q0 208 -119.5 331.5t-315.5 123.5h-342v-273h336v-288h-336v-361h342z" />
    <glyph glyph-name="Ntilde" unicode="&#xd1;" 
d="M1475 205v1327h362v-1532h-627l-643 1325v-1325h-362v1532h629zM1141 1950q45 0 55 65h260q0 -146 -79 -226.5t-220 -80.5q-55 0 -100.5 18.5t-79 37t-57.5 18.5q-18 0 -31.5 -19.5t-16.5 -46.5h-260q0 140 79.5 224.5t215.5 84.5q45 0 84.5 -11.5t61.5 -26t46 -26
t42 -11.5z" />
    <glyph glyph-name="Ograve" unicode="&#xd2;" horiz-adv-x="2103" 
d="M1051 1569q269 0 473 -99t315 -281.5t111 -422.5q0 -239 -111 -421.5t-315 -282t-473 -99.5q-267 0 -470.5 99.5t-315 282t-111.5 421.5q0 240 111.5 422.5t315 281.5t470.5 99zM1051 291q229 0 374.5 129t145.5 346t-145.5 346t-374.5 129q-227 0 -373 -129.5
t-146 -345.5t146 -345.5t373 -129.5zM911 1716l-381 334h437l333 -334h-389z" />
    <glyph glyph-name="Oacute" unicode="&#xd3;" horiz-adv-x="2103" 
d="M1051 1569q269 0 473 -99t315 -281.5t111 -422.5q0 -239 -111 -421.5t-315 -282t-473 -99.5q-267 0 -470.5 99.5t-315 282t-111.5 421.5q0 240 111.5 422.5t315 281.5t470.5 99zM1051 291q229 0 374.5 129t145.5 346t-145.5 346t-374.5 129q-227 0 -373 -129.5
t-146 -345.5t146 -345.5t373 -129.5zM1573 2050l-381 -334h-389l334 334h436z" />
    <glyph glyph-name="Ocircumflex" unicode="&#xd4;" horiz-adv-x="2103" 
d="M1051 1569q269 0 473 -99t315 -281.5t111 -422.5q0 -239 -111 -421.5t-315 -282t-473 -99.5q-267 0 -470.5 99.5t-315 282t-111.5 421.5q0 240 111.5 422.5t315 281.5t470.5 99zM1051 291q229 0 374.5 129t145.5 346t-145.5 346t-374.5 129q-227 0 -373 -129.5
t-146 -345.5t146 -345.5t373 -129.5zM1274 2050l262 -334h-317l-168 170l-168 -170h-316l260 334h447z" />
    <glyph glyph-name="Otilde" unicode="&#xd5;" horiz-adv-x="2103" 
d="M1051 1569q269 0 473 -99t315 -281.5t111 -422.5q0 -239 -111 -421.5t-315 -282t-473 -99.5q-267 0 -470.5 99.5t-315 282t-111.5 421.5q0 240 111.5 422.5t315 281.5t470.5 99zM1051 291q229 0 374.5 129t145.5 346t-145.5 346t-374.5 129q-227 0 -373 -129.5
t-146 -345.5t146 -345.5t373 -129.5zM1157 1950q45 0 55 65h261q0 -146 -79 -226.5t-220 -80.5q-43 0 -81.5 11.5t-61.5 25.5t-49 25.5t-46 11.5q-18 0 -31 -19.5t-16 -46.5h-260q0 140 79.5 224.5t215.5 84.5q45 0 84 -11.5t61 -26t46 -26t42 -11.5z" />
    <glyph glyph-name="Odieresis" unicode="&#xd6;" horiz-adv-x="2103" 
d="M1051 1569q269 0 473 -99t315 -281.5t111 -422.5q0 -239 -111 -421.5t-315 -282t-473 -99.5q-267 0 -470.5 99.5t-315 282t-111.5 421.5q0 240 111.5 422.5t315 281.5t470.5 99zM1051 291q229 0 374.5 129t145.5 346t-145.5 346t-374.5 129q-227 0 -373 -129.5
t-146 -345.5t146 -345.5t373 -129.5zM1530 1894q0 -74 -52 -126t-126 -52t-126 52t-52 126q0 73 52 125t126 52t126 -52t52 -125zM928 1894q0 -74 -52 -126t-126 -52t-126.5 52.5t-52.5 125.5t52.5 125t126.5 52t126 -52t52 -125z" />
    <glyph glyph-name="multiply" unicode="&#xd7;" horiz-adv-x="1177" 
d="M864 1233l191 -193l-275 -274l275 -274l-191 -191l-274 274l-275 -274l-192 191l276 274l-276 274l192 193l275 -277z" />
    <glyph glyph-name="Oslash" unicode="&#xd8;" horiz-adv-x="2103" 
d="M1739 1317q211 -217 211 -551q0 -362 -246 -582.5t-651 -220.5q-265 0 -469 98l-222 -237l-194 180l197 213q-211 217 -211 549q0 240 111.5 422.5t315.5 281.5t472 99q271 0 467 -99l221 240l194 -180zM532 766q0 -157 84 -274l658 712q-101 37 -221 37
q-229 0 -375 -129t-146 -346zM1053 291q228 0 373 129.5t145 345.5q0 159 -84 276l-656 -712q103 -39 222 -39z" />
    <glyph glyph-name="Ugrave" unicode="&#xd9;" horiz-adv-x="1900" 
d="M1327 1532h369v-907q0 -319 -187 -490.5t-559 -171.5t-558.5 171.5t-186.5 490.5v907h368v-909q0 -167 90.5 -249.5t286.5 -82.5t286.5 82.5t90.5 249.5v909zM797 1716l-381 334h436l334 -334h-389z" />
    <glyph glyph-name="Uacute" unicode="&#xda;" horiz-adv-x="1900" 
d="M1327 1532h369v-907q0 -319 -187 -490.5t-559 -171.5t-558.5 171.5t-186.5 490.5v907h368v-909q0 -167 90.5 -249.5t286.5 -82.5t286.5 82.5t90.5 249.5v909zM1485 2050l-381 -334h-389l334 334h436z" />
    <glyph glyph-name="Ucircumflex" unicode="&#xdb;" horiz-adv-x="1900" 
d="M1327 1532h369v-907q0 -319 -187 -490.5t-559 -171.5t-558.5 171.5t-186.5 490.5v907h368v-909q0 -167 90.5 -249.5t286.5 -82.5t286.5 82.5t90.5 249.5v909zM1171 2050l263 -334h-318l-168 170l-168 -170h-315l260 334h446z" />
    <glyph glyph-name="Udieresis" unicode="&#xdc;" horiz-adv-x="1900" 
d="M1327 1532h369v-907q0 -319 -187 -490.5t-559 -171.5t-558.5 171.5t-186.5 490.5v907h368v-909q0 -167 90.5 -249.5t286.5 -82.5t286.5 82.5t90.5 249.5v909zM1430 1894q0 -73 -52.5 -125.5t-126.5 -52.5q-73 0 -125.5 52t-52.5 126q0 73 52 125t126 52t126.5 -52
t52.5 -125zM827 1894q0 -74 -52.5 -126t-125.5 -52t-125.5 52t-52.5 126q0 73 52 125t126 52t126 -52t52 -125z" />
    <glyph glyph-name="Yacute" unicode="&#xdd;" horiz-adv-x="1779" 
d="M1337 1532h371l-795 -1532h-370l270 522h-199l-542 1010h393l442 -836zM1415 2050l-381 -334h-389l334 334h436z" />
    <glyph glyph-name="Thorn" unicode="&#xde;" horiz-adv-x="1673" 
d="M897 1325q281 0 452 -143.5t171 -399.5t-170 -400t-451 -146h-326v-236h-368v1532h368v-207h324zM895 541q110 0 179 67.5t69 173.5q0 105 -70.5 171.5t-179.5 66.5h-320v-479h322z" />
    <glyph glyph-name="germandbls" unicode="&#xdf;" horiz-adv-x="1712" 
d="M1298 999q81 -37 143 -94t105 -153t43 -215q0 -261 -166 -407t-475 -146q-138 0 -217 36v314q37 -20 95 -31.5t106 -11.5q145 0 220 59.5t75 194.5q0 136 -84 200t-252 64h-35v289h33q115 0 178 55.5t63 171.5q0 98 -79.5 151.5t-212.5 53.5q-134 0 -216.5 -74.5
t-82.5 -204.5v-1251h-355v1249q0 188 86 323t231 200t333 65q295 0 473 -130t178 -361q0 -226 -187 -347z" />
    <glyph glyph-name="agrave" unicode="&#xe0;" horiz-adv-x="1605" 
d="M1497 260q29 0 47 6v-278q-41 -13 -92 -13q-268 0 -367 170q-47 -77 -151.5 -129.5t-239.5 -52.5q-280 0 -420.5 114.5t-140.5 321.5q0 103 49.5 184.5t129.5 129.5t173 73t189 25q65 0 125.5 -15t96.5 -33t74.5 -33t65.5 -15v59q0 240 -336 240q-279 0 -479 -115v289
q200 104 467 104q329 0 510.5 -132t181.5 -369v-431q0 -100 117 -100zM1036 434v33q-33 0 -88 24t-125 48.5t-139 25.5q-84 0 -140.5 -41.5t-56.5 -124.5q0 -47 20.5 -80.5t56.5 -50.5t75.5 -24.5t87.5 -7.5q130 0 219.5 53t89.5 145zM670 1464l-381 334h436l334 -334h-389z
" />
    <glyph glyph-name="aacute" unicode="&#xe1;" horiz-adv-x="1605" 
d="M1497 260q29 0 47 6v-278q-41 -13 -92 -13q-268 0 -367 170q-47 -77 -151.5 -129.5t-239.5 -52.5q-280 0 -420.5 114.5t-140.5 321.5q0 103 49.5 184.5t129.5 129.5t173 73t189 25q65 0 125.5 -15t96.5 -33t74.5 -33t65.5 -15v59q0 240 -336 240q-279 0 -479 -115v289
q200 104 467 104q329 0 510.5 -132t181.5 -369v-431q0 -100 117 -100zM1036 434v33q-33 0 -88 24t-125 48.5t-139 25.5q-84 0 -140.5 -41.5t-56.5 -124.5q0 -47 20.5 -80.5t56.5 -50.5t75.5 -24.5t87.5 -7.5q130 0 219.5 53t89.5 145zM1251 1796l-381 -334h-389l334 334h436
z" />
    <glyph glyph-name="acircumflex" unicode="&#xe2;" horiz-adv-x="1605" 
d="M1497 260q29 0 47 6v-278q-41 -13 -92 -13q-268 0 -367 170q-47 -77 -151.5 -129.5t-239.5 -52.5q-280 0 -420.5 114.5t-140.5 321.5q0 103 49.5 184.5t129.5 129.5t173 73t189 25q65 0 125.5 -15t96.5 -33t74.5 -33t65.5 -15v59q0 240 -336 240q-279 0 -479 -115v289
q200 104 467 104q329 0 510.5 -132t181.5 -369v-431q0 -100 117 -100zM1036 434v33q-33 0 -88 24t-125 48.5t-139 25.5q-84 0 -140.5 -41.5t-56.5 -124.5q0 -47 20.5 -80.5t56.5 -50.5t75.5 -24.5t87.5 -7.5q130 0 219.5 53t89.5 145zM1001 1798l263 -334h-318l-168 170
l-168 -170h-315l260 334h446z" />
    <glyph glyph-name="atilde" unicode="&#xe3;" horiz-adv-x="1605" 
d="M1497 260q29 0 47 6v-278q-41 -13 -92 -13q-268 0 -367 170q-47 -77 -151.5 -129.5t-239.5 -52.5q-280 0 -420.5 114.5t-140.5 321.5q0 103 49.5 184.5t129.5 129.5t173 73t189 25q65 0 125.5 -15t96.5 -33t74.5 -33t65.5 -15v59q0 240 -336 240q-279 0 -479 -115v289
q200 104 467 104q329 0 510.5 -132t181.5 -369v-431q0 -100 117 -100zM1036 434v33q-33 0 -88 24t-125 48.5t-139 25.5q-84 0 -140.5 -41.5t-56.5 -124.5q0 -47 20.5 -80.5t56.5 -50.5t75.5 -24.5t87.5 -7.5q130 0 219.5 53t89.5 145zM893 1698q45 0 55 65h260
q0 -146 -79 -226.5t-220 -80.5q-55 0 -100.5 18.5t-79 37t-57.5 18.5q-18 0 -31 -19.5t-16 -46.5h-260q0 141 79.5 225.5t214.5 84.5q58 0 104 -19t77 -38t53 -19z" />
    <glyph glyph-name="adieresis" unicode="&#xe4;" horiz-adv-x="1605" 
d="M1497 260q29 0 47 6v-278q-41 -13 -92 -13q-268 0 -367 170q-47 -77 -151.5 -129.5t-239.5 -52.5q-280 0 -420.5 114.5t-140.5 321.5q0 103 49.5 184.5t129.5 129.5t173 73t189 25q65 0 125.5 -15t96.5 -33t74.5 -33t65.5 -15v59q0 240 -336 240q-279 0 -479 -115v289
q200 104 467 104q329 0 510.5 -132t181.5 -369v-431q0 -100 117 -100zM1036 434v33q-33 0 -88 24t-125 48.5t-139 25.5q-84 0 -140.5 -41.5t-56.5 -124.5q0 -47 20.5 -80.5t56.5 -50.5t75.5 -24.5t87.5 -7.5q130 0 219.5 53t89.5 145zM1225 1642q0 -74 -52.5 -126
t-125.5 -52q-74 0 -126.5 52.5t-52.5 125.5t52.5 125t126.5 52t126 -52t52 -125zM623 1642q0 -73 -52.5 -125.5t-126.5 -52.5t-126 52t-52 126q0 73 52 125t126 52t126.5 -52t52.5 -125z" />
    <glyph glyph-name="aring" unicode="&#xe5;" horiz-adv-x="1605" 
d="M1497 260q29 0 47 6v-278q-41 -13 -92 -13q-268 0 -367 170q-47 -77 -151.5 -129.5t-239.5 -52.5q-280 0 -420.5 114.5t-140.5 321.5q0 103 49.5 184.5t129.5 129.5t173 73t189 25q65 0 125.5 -15t96.5 -33t74.5 -33t65.5 -15v59q0 240 -336 240q-279 0 -479 -115v289
q200 104 467 104q329 0 510.5 -132t181.5 -369v-431q0 -100 117 -100zM1036 434v33q-33 0 -88 24t-125 48.5t-139 25.5q-84 0 -140.5 -41.5t-56.5 -124.5q0 -47 20.5 -80.5t56.5 -50.5t75.5 -24.5t87.5 -7.5q130 0 219.5 53t89.5 145zM721 1825q-47 0 -81 -34.5t-34 -80.5
q0 -47 34 -81t81 -34q46 0 79.5 34t33.5 81q0 46 -33.5 80.5t-79.5 34.5zM721 1974q109 0 186.5 -77.5t77.5 -186.5q0 -110 -77.5 -187t-186.5 -77q-110 0 -188 77t-78 187q0 109 78 186.5t188 77.5z" />
    <glyph glyph-name="ae" unicode="&#xe6;" horiz-adv-x="2480" 
d="M2347 598v-94h-983q7 -124 114 -197.5t269 -73.5q283 0 491 113v-278q-199 -105 -489 -105q-374 0 -573 246q-141 -246 -486 -246q-275 0 -416 118t-141 333q0 83 32.5 152.5t86 116.5t123.5 79.5t144.5 47.5t150.5 15q70 0 128.5 -13t90.5 -28t69.5 -28t71.5 -13v31
q0 126 -77.5 187t-256.5 61q-275 0 -475 -115v281q197 104 463 104q386 0 537 -223q64 97 192 160t283 63q311 0 481 -180t170 -514zM1030 434v70q-41 0 -93 19.5t-117.5 39t-139.5 19.5q-83 0 -138 -42t-55 -126q0 -87 61.5 -134t168.5 -47q132 0 222.5 54t90.5 147z
M1372 743h641q-9 60 -28 106t-54 87t-94.5 63.5t-140.5 22.5q-127 0 -216 -78.5t-108 -200.5z" />
    <glyph glyph-name="ccedilla" unicode="&#xe7;" horiz-adv-x="1492" 
d="M940 985q-90 0 -166.5 -19.5t-138.5 -60t-97.5 -111t-35.5 -163.5q0 -87 37.5 -157.5t100 -114t139.5 -66.5t161 -23q241 0 420 111v-328q-143 -77 -369 -88v-86q101 -13 168.5 -69.5t67.5 -139.5q0 -248 -316 -248q-88 0 -153 21v180q58 -24 135 -24q135 0 135 67
q0 51 -53 71.5t-158 20.5v211q-198 22 -351.5 106t-243 228.5t-89.5 327.5q0 159 60 285t168 208t255 125t324 43q120 0 234.5 -26.5t185.5 -67.5v-326q-72 48 -188 80.5t-232 32.5z" />
    <glyph glyph-name="egrave" unicode="&#xe8;" horiz-adv-x="1619" 
d="M1487 598v-66h-1000q17 -127 121 -204.5t264 -77.5q294 0 500 112v-296q-204 -103 -498 -103q-175 0 -316.5 51t-233.5 140.5t-141.5 210.5t-49.5 262q0 300 189 482.5t499 182.5q311 0 488.5 -178t177.5 -516zM496 772h651q-14 59 -35 100t-57 75t-94.5 50.5
t-139.5 16.5q-263 0 -325 -242zM674 1464l-381 334h436l334 -334h-389z" />
    <glyph glyph-name="eacute" unicode="&#xe9;" horiz-adv-x="1619" 
d="M1487 598v-66h-1000q17 -127 121 -204.5t264 -77.5q294 0 500 112v-296q-204 -103 -498 -103q-175 0 -316.5 51t-233.5 140.5t-141.5 210.5t-49.5 262q0 300 189 482.5t499 182.5q311 0 488.5 -178t177.5 -516zM496 772h651q-14 59 -35 100t-57 75t-94.5 50.5
t-139.5 16.5q-263 0 -325 -242zM1366 1798l-381 -334h-389l334 334h436z" />
    <glyph glyph-name="ecircumflex" unicode="&#xea;" horiz-adv-x="1619" 
d="M1487 598v-66h-1000q17 -127 121 -204.5t264 -77.5q294 0 500 112v-296q-204 -103 -498 -103q-175 0 -316.5 51t-233.5 140.5t-141.5 210.5t-49.5 262q0 300 189 482.5t499 182.5q311 0 488.5 -178t177.5 -516zM496 772h651q-14 59 -35 100t-57 75t-94.5 50.5
t-139.5 16.5q-263 0 -325 -242zM1059 1798l262 -334h-317l-168 170l-168 -170h-316l260 334h447z" />
    <glyph glyph-name="edieresis" unicode="&#xeb;" horiz-adv-x="1619" 
d="M1487 598v-66h-1000q17 -127 121 -204.5t264 -77.5q294 0 500 112v-296q-204 -103 -498 -103q-175 0 -316.5 51t-233.5 140.5t-141.5 210.5t-49.5 262q0 300 189 482.5t499 182.5q311 0 488.5 -178t177.5 -516zM496 772h651q-14 59 -35 100t-57 75t-94.5 50.5
t-139.5 16.5q-263 0 -325 -242zM1311 1642q0 -74 -52.5 -126t-125.5 -52q-74 0 -126.5 52.5t-52.5 125.5t52.5 125t126.5 52t126 -52t52 -125zM709 1642q0 -73 -52.5 -125.5t-126.5 -52.5t-126 52t-52 126q0 73 52 125t126 52t126.5 -52t52.5 -125z" />
    <glyph glyph-name="igrave" unicode="&#xec;" horiz-adv-x="743" 
d="M195 0v1255h354v-1255h-354zM354 1464l-381 334h437l333 -334h-389z" />
    <glyph glyph-name="iacute" unicode="&#xed;" horiz-adv-x="743" 
d="M195 0v1255h354v-1255h-354zM770 1798l-381 -334h-389l334 334h436z" />
    <glyph glyph-name="icircumflex" unicode="&#xee;" horiz-adv-x="743" 
d="M195 0v1255h354v-1255h-354zM594 1798l262 -334h-317l-168 170l-168 -170h-316l260 334h447z" />
    <glyph glyph-name="idieresis" unicode="&#xef;" horiz-adv-x="743" 
d="M195 0v1255h354v-1255h-354zM860 1642q0 -74 -52 -126t-126 -52t-126 52t-52 126q0 73 52 125t126 52t126 -52t52 -125zM258 1642q0 -74 -52 -126t-126 -52t-126 52t-52 126q0 73 52 125t126 52t126 -52t52 -125z" />
    <glyph glyph-name="eth" unicode="&#xf0;" horiz-adv-x="1976" 
d="M1642 1632h273v-235h-273v-1397h-354v133q-170 -170 -434 -170q-215 0 -377 74t-253 218.5t-91 342.5q0 291 198 462t523 171q254 0 434 -162v328h-606v235h606v168h354v-168zM897 270q188 0 304 87.5t116 240.5q0 141 -115.5 233.5t-304.5 92.5q-188 0 -291.5 -88.5
t-103.5 -237.5q0 -163 107.5 -245.5t287.5 -82.5z" />
    <glyph glyph-name="ntilde" unicode="&#xf1;" horiz-adv-x="1716" 
d="M1532 801v-801h-354v754q0 114 -54.5 172.5t-189.5 58.5q-206 0 -300.5 -74t-94.5 -249v-662h-355v1255h355v-137q66 87 176 130.5t225 43.5q268 0 430 -133.5t162 -357.5zM1049 1698q45 0 55 65h260q0 -146 -79 -226.5t-220 -80.5q-43 0 -81.5 11.5t-61.5 25.5t-49 25.5
t-46 11.5q-18 0 -31 -19.5t-16 -46.5h-260q0 140 79.5 225t215.5 85q58 0 104 -19t77 -38t53 -19z" />
    <glyph glyph-name="ograve" unicode="&#xf2;" horiz-adv-x="1806" 
d="M1673 627q0 -194 -97.5 -345.5t-273 -235t-399.5 -83.5t-399.5 83.5t-273 235.5t-97.5 347q0 194 97.5 345t273 234.5t399.5 83.5t399.5 -83.5t273 -235t97.5 -346.5zM903 270q185 0 293.5 96t108.5 263q0 165 -108.5 260.5t-293.5 95.5t-293 -95.5t-108 -260.5
q0 -167 108 -263t293 -96zM803 1464l-381 334h436l334 -334h-389z" />
    <glyph glyph-name="oacute" unicode="&#xf3;" horiz-adv-x="1806" 
d="M1673 627q0 -194 -97.5 -345.5t-273 -235t-399.5 -83.5t-399.5 83.5t-273 235.5t-97.5 347q0 194 97.5 345t273 234.5t399.5 83.5t399.5 -83.5t273 -235t97.5 -346.5zM903 270q185 0 293.5 96t108.5 263q0 165 -108.5 260.5t-293.5 95.5t-293 -95.5t-108 -260.5
q0 -167 108 -263t293 -96zM1384 1798l-380 -334h-390l334 334h436z" />
    <glyph glyph-name="ocircumflex" unicode="&#xf4;" horiz-adv-x="1806" 
d="M1673 627q0 -194 -97.5 -345.5t-273 -235t-399.5 -83.5t-399.5 83.5t-273 235.5t-97.5 347q0 194 97.5 345t273 234.5t399.5 83.5t399.5 -83.5t273 -235t97.5 -346.5zM903 270q185 0 293.5 96t108.5 263q0 165 -108.5 260.5t-293.5 95.5t-293 -95.5t-108 -260.5
q0 -167 108 -263t293 -96zM1126 1798l263 -334h-318l-168 170l-168 -170h-315l260 334h446z" />
    <glyph glyph-name="otilde" unicode="&#xf5;" horiz-adv-x="1806" 
d="M1673 627q0 -194 -97.5 -345.5t-273 -235t-399.5 -83.5t-399.5 83.5t-273 235.5t-97.5 347q0 194 97.5 345t273 234.5t399.5 83.5t399.5 -83.5t273 -235t97.5 -346.5zM903 270q185 0 293.5 96t108.5 263q0 165 -108.5 260.5t-293.5 95.5t-293 -95.5t-108 -260.5
q0 -167 108 -263t293 -96zM1010 1700q45 0 55 65h260q0 -146 -79 -226.5t-220 -80.5q-43 0 -81.5 11.5t-61.5 25.5t-49 25.5t-46 11.5q-18 0 -31 -19.5t-16 -46.5h-260q0 140 79.5 225t215.5 85q58 0 104 -19t77 -38t53 -19z" />
    <glyph glyph-name="odieresis" unicode="&#xf6;" horiz-adv-x="1806" 
d="M1673 627q0 -194 -97.5 -345.5t-273 -235t-399.5 -83.5t-399.5 83.5t-273 235.5t-97.5 347q0 194 97.5 345t273 234.5t399.5 83.5t399.5 -83.5t273 -235t97.5 -346.5zM903 270q185 0 293.5 96t108.5 263q0 165 -108.5 260.5t-293.5 95.5t-293 -95.5t-108 -260.5
q0 -167 108 -263t293 -96zM1382 1642q0 -74 -52 -126t-126 -52t-126 52t-52 126q0 73 52 125t126 52t126 -52t52 -125zM780 1642q0 -74 -52 -126t-126 -52t-126 52t-52 126q0 73 52 125t126 52t126 -52t52 -125z" />
    <glyph glyph-name="divide" unicode="&#xf7;" horiz-adv-x="1376" 
d="M143 901h1090v-270h-1090v270zM879 1231q0 -78 -56.5 -134.5t-134.5 -56.5t-134 56.5t-56 134.5q0 79 56 134.5t134 55.5t134.5 -55.5t56.5 -134.5zM879 299q0 -78 -56.5 -134t-134.5 -56t-134 56t-56 134t56 134t134 56t134.5 -56t56.5 -134z" />
    <glyph glyph-name="oslash" unicode="&#xf8;" horiz-adv-x="1806" 
d="M1487 1083q186 -183 186 -456q0 -194 -97.5 -345.5t-273 -235t-399.5 -83.5q-213 0 -383 78l-203 -221l-174 162l179 192q-189 183 -189 455q0 194 97.5 345t273 234.5t399.5 83.5q213 0 383 -75l203 219l174 -162zM502 629q0 -115 55 -201l498 539q-68 18 -152 18
q-185 0 -293 -95.5t-108 -260.5zM903 270q185 0 293.5 96t108.5 263q0 116 -54 198l-497 -536q79 -21 149 -21z" />
    <glyph glyph-name="ugrave" unicode="&#xf9;" horiz-adv-x="1675" 
d="M1137 1255h354v-720q0 -143 -48 -253t-136 -179.5t-206 -104.5t-263 -35q-146 0 -265 35t-206.5 104.5t-135 179.5t-47.5 253v720h355v-712q0 -146 74 -209.5t225 -63.5q148 0 223.5 63.5t75.5 209.5v712zM664 1464l-381 334h436l334 -334h-389z" />
    <glyph glyph-name="uacute" unicode="&#xfa;" horiz-adv-x="1675" 
d="M1137 1255h354v-720q0 -143 -48 -253t-136 -179.5t-206 -104.5t-263 -35q-146 0 -265 35t-206.5 104.5t-135 179.5t-47.5 253v720h355v-712q0 -146 74 -209.5t225 -63.5q148 0 223.5 63.5t75.5 209.5v712zM1434 1798l-381 -334h-389l333 334h437z" />
    <glyph glyph-name="ucircumflex" unicode="&#xfb;" horiz-adv-x="1675" 
d="M1137 1255h354v-720q0 -143 -48 -253t-136 -179.5t-206 -104.5t-263 -35q-146 0 -265 35t-206.5 104.5t-135 179.5t-47.5 253v720h355v-712q0 -146 74 -209.5t225 -63.5q148 0 223.5 63.5t75.5 209.5v712zM1061 1798l262 -334h-317l-168 170l-168 -170h-316l260 334h447z
" />
    <glyph glyph-name="udieresis" unicode="&#xfc;" horiz-adv-x="1675" 
d="M1137 1255h354v-720q0 -143 -48 -253t-136 -179.5t-206 -104.5t-263 -35q-146 0 -265 35t-206.5 104.5t-135 179.5t-47.5 253v720h355v-712q0 -146 74 -209.5t225 -63.5q148 0 223.5 63.5t75.5 209.5v712zM1317 1642q0 -74 -52.5 -126t-125.5 -52t-125.5 52t-52.5 126
q0 73 52 125t126 52t126 -52t52 -125zM715 1642q0 -74 -52.5 -126t-125.5 -52q-74 0 -126.5 52.5t-52.5 125.5t52.5 125t126.5 52t126 -52t52 -125z" />
    <glyph glyph-name="yacute" unicode="&#xfd;" horiz-adv-x="1665" 
d="M1229 1255h375l-783 -1765h-375l314 686h-168l-531 1079h394l403 -860zM1356 1798l-381 -334h-389l334 334h436z" />
    <glyph glyph-name="thorn" unicode="&#xfe;" horiz-adv-x="1826" 
d="M975 1292q333 0 526 -176.5t193 -486.5q0 -153 -54.5 -279t-151 -210.5t-228.5 -130.5t-285 -46q-277 0 -436 172v-645h-355v2310h355v-678q157 170 436 170zM930 270q109 0 197 39t143 122t55 198q0 175 -104.5 265.5t-290.5 90.5q-189 0 -304.5 -93.5t-115.5 -262.5
q0 -171 115.5 -265t304.5 -94z" />
    <glyph glyph-name="ydieresis" unicode="&#xff;" horiz-adv-x="1665" 
d="M1229 1255h375l-783 -1765h-375l314 686h-168l-531 1079h394l403 -860zM1339 1645q0 -74 -52.5 -126.5t-125.5 -52.5t-125.5 52.5t-52.5 126.5q0 73 52 124.5t126 51.5t126 -51.5t52 -124.5zM737 1645q0 -74 -52.5 -126.5t-125.5 -52.5t-125.5 52.5t-52.5 126.5
q0 73 52 124.5t126 51.5t126 -51.5t52 -124.5z" />
    <glyph glyph-name="Amacron" unicode="&#x100;" 
d="M1585 0l-133 303h-868l-131 -303h-387l682 1532h546l682 -1532h-391zM1018 1327l-311 -729h622zM596 1716v234h848v-234h-848z" />
    <glyph glyph-name="amacron" unicode="&#x101;" horiz-adv-x="1605" 
d="M1497 260q29 0 47 6v-278q-41 -13 -92 -13q-268 0 -367 170q-47 -77 -151.5 -129.5t-239.5 -52.5q-280 0 -420.5 114.5t-140.5 321.5q0 103 49.5 184.5t129.5 129.5t173 73t189 25q65 0 125.5 -15t96.5 -33t74.5 -33t65.5 -15v59q0 240 -336 240q-279 0 -479 -115v289
q200 104 467 104q329 0 510.5 -132t181.5 -369v-431q0 -100 117 -100zM1036 434v33q-33 0 -88 24t-125 48.5t-139 25.5q-84 0 -140.5 -41.5t-56.5 -124.5q0 -47 20.5 -80.5t56.5 -50.5t75.5 -24.5t87.5 -7.5q130 0 219.5 53t89.5 145zM340 1464v234h848v-234h-848z" />
    <glyph glyph-name="Abreve" unicode="&#x102;" 
d="M1585 0l-133 303h-868l-131 -303h-387l682 1532h546l682 -1532h-391zM1018 1327l-311 -729h622zM1149 2048h303q-53 -169 -157 -250.5t-275 -81.5t-274 81t-158 251h303q36 -70 129 -70q96 0 129 70z" />
    <glyph glyph-name="abreve" unicode="&#x103;" horiz-adv-x="1605" 
d="M1497 260q29 0 47 6v-278q-41 -13 -92 -13q-268 0 -367 170q-47 -77 -151.5 -129.5t-239.5 -52.5q-280 0 -420.5 114.5t-140.5 321.5q0 103 49.5 184.5t129.5 129.5t173 73t189 25q65 0 125.5 -15t96.5 -33t74.5 -33t65.5 -15v59q0 240 -336 240q-279 0 -479 -115v289
q200 104 467 104q329 0 510.5 -132t181.5 -369v-431q0 -100 117 -100zM1036 434v33q-33 0 -88 24t-125 48.5t-139 25.5q-84 0 -140.5 -41.5t-56.5 -124.5q0 -47 20.5 -80.5t56.5 -50.5t75.5 -24.5t87.5 -7.5q130 0 219.5 53t89.5 145zM870 1798h304q-53 -169 -157.5 -250.5
t-275.5 -81.5t-274 81t-158 251h303q35 -69 129 -69q97 0 129 69z" />
    <glyph glyph-name="Aogonek" unicode="&#x104;" 
d="M1614 -252q0 -37 24 -53.5t50 -16.5q84 0 172 50v-209q-84 -37 -187 -37q-284 0 -284 260q0 77 62.5 150.5t133.5 107.5l-133 303h-868l-131 -303h-387l682 1532h546l682 -1532h-145q-44 -33 -60.5 -45.5t-54.5 -45t-54.5 -53.5t-32 -51t-15.5 -57zM707 598h622l-311 729
z" />
    <glyph glyph-name="aogonek" unicode="&#x105;" horiz-adv-x="1605" 
d="M1440 -25q-142 -111 -142 -196q0 -36 25 -53t51 -17q38 0 86 13t84 34v-207q-79 -36 -184 -36q-287 0 -287 260q0 66 49.5 131.5t114.5 107.5q-97 42 -152 133q-47 -77 -151.5 -129.5t-239.5 -52.5q-280 0 -420.5 114.5t-140.5 321.5q0 103 49.5 184.5t129.5 129.5
t173 73t189 25q65 0 125.5 -15t96.5 -33t74.5 -33t65.5 -15v59q0 240 -336 240q-279 0 -479 -115v289q200 104 467 104q329 0 510.5 -132t181.5 -369v-431q0 -100 117 -100q29 0 47 6v-278q-41 -13 -92 -13h-12zM1036 434v33q-33 0 -88 24t-125 48.5t-139 25.5
q-84 0 -140.5 -41.5t-56.5 -124.5q0 -47 20.5 -80.5t56.5 -50.5t75.5 -24.5t87.5 -7.5q130 0 219.5 53t89.5 145z" />
    <glyph glyph-name="Cacute" unicode="&#x106;" horiz-adv-x="1687" 
d="M532 766q0 -213 145.5 -344t366.5 -131q287 0 490 137v-354q-105 -56 -235.5 -83.5t-254.5 -27.5q-259 0 -461 99.5t-315.5 282.5t-113.5 421q0 251 112.5 433.5t312.5 276t465 93.5q132 0 268.5 -31.5t221.5 -85.5v-354q-222 143 -490 143q-235 0 -373.5 -126
t-138.5 -349zM1483 2050l-381 -334h-389l334 334h436z" />
    <glyph glyph-name="cacute" unicode="&#x107;" horiz-adv-x="1492" 
d="M940 1292q120 0 234.5 -26.5t185.5 -67.5v-326q-72 48 -188 80.5t-232 32.5q-90 0 -166.5 -19.5t-138.5 -60t-97.5 -111t-35.5 -163.5q0 -87 37.5 -157.5t100 -114t139.5 -66.5t161 -23q241 0 420 111v-328q-82 -43 -196.5 -66.5t-223.5 -23.5q-170 0 -317.5 46.5
t-256 131.5t-171 211.5t-62.5 278.5q0 159 60 285t168 208t255 125t324 43zM1415 1798l-381 -334h-389l334 334h436z" />
    <glyph glyph-name="Ccaron" unicode="&#x10c;" horiz-adv-x="1687" 
d="M532 766q0 -213 145.5 -344t366.5 -131q287 0 490 137v-354q-105 -56 -235.5 -83.5t-254.5 -27.5q-259 0 -461 99.5t-315.5 282.5t-113.5 421q0 251 112.5 433.5t312.5 276t465 93.5q132 0 268.5 -31.5t221.5 -85.5v-354q-222 143 -490 143q-235 0 -373.5 -126
t-138.5 -349zM1520 2050l-263 -334h-446l-260 334h315l168 -170l168 170h318z" />
    <glyph glyph-name="ccaron" unicode="&#x10d;" horiz-adv-x="1492" 
d="M940 1292q120 0 234.5 -26.5t185.5 -67.5v-326q-72 48 -188 80.5t-232 32.5q-90 0 -166.5 -19.5t-138.5 -60t-97.5 -111t-35.5 -163.5q0 -87 37.5 -157.5t100 -114t139.5 -66.5t161 -23q241 0 420 111v-328q-82 -43 -196.5 -66.5t-223.5 -23.5q-170 0 -317.5 46.5
t-256 131.5t-171 211.5t-62.5 278.5q0 159 60 285t168 208t255 125t324 43zM1350 1798l-263 -334h-446l-260 334h315l168 -170l168 170h318z" />
    <glyph glyph-name="Dcaron" unicode="&#x10e;" horiz-adv-x="1882" 
d="M909 1532q194 0 350.5 -58.5t258.5 -161.5t156.5 -242t54.5 -302q0 -162 -56 -301t-161 -243.5t-268 -164t-365 -59.5h-674v1532h704zM915 305q195 0 315 128.5t120 338.5q0 208 -119.5 331.5t-315.5 123.5h-342v-922h342zM1284 2050l-262 -334h-447l-260 334h316
l168 -170l168 170h317z" />
    <glyph glyph-name="dcaron" unicode="&#x10f;" horiz-adv-x="2244" 
d="M2243 1800l-213 -325h-250l176 325h287zM133 625q0 205 90.5 356.5t253 231t377.5 79.5q132 0 244.5 -45t191.5 -127v680h355v-1800h-355v133q-81 -81 -193 -125.5t-243 -44.5q-327 0 -524 177t-197 485zM502 625q0 -173 108.5 -264t286.5 -91q188 0 305 96t117 261
q0 166 -117 262t-305 96q-178 0 -286.5 -93.5t-108.5 -266.5z" />
    <glyph glyph-name="Dcroat" unicode="&#x110;" horiz-adv-x="1925" 
d="M954 1532q194 0 350 -58.5t257.5 -161.5t156 -241.5t54.5 -300.5t-56 -301.5t-160.5 -244.5t-267 -164.5t-364.5 -59.5h-676v666h-207v288h207v578h706zM958 305q195 0 315 129t120 338q0 208 -119.5 331.5t-315.5 123.5h-342v-273h336v-288h-336v-361h342z" />
    <glyph glyph-name="dcroat" unicode="&#x111;" horiz-adv-x="1976" 
d="M1642 1632h273v-235h-273v-1397h-354v133q-170 -170 -434 -170q-215 0 -377 74t-253 218.5t-91 342.5q0 291 198 462t523 171q254 0 434 -162v328h-606v235h606v168h354v-168zM897 270q188 0 304 87.5t116 240.5q0 141 -115.5 233.5t-304.5 92.5q-188 0 -291.5 -88.5
t-103.5 -237.5q0 -163 107.5 -245.5t287.5 -82.5z" />
    <glyph glyph-name="Emacron" unicode="&#x112;" horiz-adv-x="1595" 
d="M573 305h869v-305h-1237v1532h1225v-305h-857v-271h820v-294h-820v-357zM410 1716v234h847v-234h-847z" />
    <glyph glyph-name="emacron" unicode="&#x113;" horiz-adv-x="1619" 
d="M1487 598v-66h-1000q17 -127 121 -204.5t264 -77.5q294 0 500 112v-296q-204 -103 -498 -103q-175 0 -316.5 51t-233.5 140.5t-141.5 210.5t-49.5 262q0 300 189 482.5t499 182.5q311 0 488.5 -178t177.5 -516zM496 772h651q-14 59 -35 100t-57 75t-94.5 50.5
t-139.5 16.5q-263 0 -325 -242zM401 1464v234h848v-234h-848z" />
    <glyph glyph-name="Edotaccent" unicode="&#x116;" horiz-adv-x="1595" 
d="M573 305h869v-305h-1237v1532h1225v-305h-857v-271h820v-294h-820v-357zM1094 1896q0 -83 -58.5 -140.5t-140.5 -57.5q-83 0 -141 57.5t-58 140.5t58 141t141 58q82 0 140.5 -58t58.5 -141z" />
    <glyph glyph-name="edotaccent" unicode="&#x117;" horiz-adv-x="1619" 
d="M1487 598v-66h-1000q17 -127 121 -204.5t264 -77.5q294 0 500 112v-296q-204 -103 -498 -103q-175 0 -316.5 51t-233.5 140.5t-141.5 210.5t-49.5 262q0 300 189 482.5t499 182.5q311 0 488.5 -178t177.5 -516zM496 772h651q-14 59 -35 100t-57 75t-94.5 50.5
t-139.5 16.5q-263 0 -325 -242zM1032 1663q0 -83 -58 -141t-140 -58q-83 0 -141 58t-58 141t58 141t141 58q82 0 140 -58t58 -141z" />
    <glyph glyph-name="Eogonek" unicode="&#x118;" horiz-adv-x="1595" 
d="M1413 0q-5 -4 -26.5 -19.5t-31 -23t-31 -24t-33 -28t-29 -28.5t-27 -31t-20 -31t-15 -33.5t-4.5 -33.5q0 -36 25 -53t51 -17q37 0 85 14t85 36v-209q-81 -37 -185 -37q-286 0 -286 260q0 75 62 149t134 109h-962v1532h1225v-305h-857v-271h820v-294h-820v-357h869v-305
h-29z" />
    <glyph glyph-name="eogonek" unicode="&#x119;" horiz-adv-x="1619" 
d="M1487 598v-66h-1000q17 -127 121 -204.5t264 -77.5q294 0 500 112v-296q-38 -19 -88 -39q-41 -28 -68 -48.5t-65.5 -55.5t-59 -71.5t-20.5 -72.5t25 -53t49 -17q89 0 172 47v-207q-82 -36 -184 -36q-287 0 -287 260q0 97 102 192q-25 -2 -74 -2q-175 0 -316.5 51
t-233.5 140.5t-141.5 210.5t-49.5 262q0 300 189 482.5t499 182.5q311 0 488.5 -178t177.5 -516zM496 772h651q-14 59 -35 100t-57 75t-94.5 50.5t-139.5 16.5q-263 0 -325 -242z" />
    <glyph glyph-name="Ecaron" unicode="&#x11a;" horiz-adv-x="1595" 
d="M573 305h869v-305h-1237v1532h1225v-305h-857v-271h820v-294h-820v-357zM1339 2050l-262 -334h-446l-260 334h315l168 -170l168 170h317z" />
    <glyph glyph-name="ecaron" unicode="&#x11b;" horiz-adv-x="1619" 
d="M1487 598v-66h-1000q17 -127 121 -204.5t264 -77.5q294 0 500 112v-296q-204 -103 -498 -103q-175 0 -316.5 51t-233.5 140.5t-141.5 210.5t-49.5 262q0 300 189 482.5t499 182.5q311 0 488.5 -178t177.5 -516zM496 772h651q-14 59 -35 100t-57 75t-94.5 50.5
t-139.5 16.5q-263 0 -325 -242zM1307 1798l-263 -334h-446l-260 334h315l168 -170l168 170h318z" />
    <glyph glyph-name="Gbreve" unicode="&#x11e;" horiz-adv-x="1837" 
d="M1673 741v-632q-108 -64 -278.5 -105t-350.5 -41q-266 0 -467.5 97.5t-312 280t-110.5 425.5q0 188 69 341t190.5 253.5t285.5 154.5t356 54q147 0 282 -30t228 -87v-354q-125 78 -243 110.5t-267 32.5q-229 0 -376 -127t-147 -348q0 -219 141 -347t371 -128
q162 0 273 41v409h356zM1186 2048h303q-53 -169 -157 -250.5t-275 -81.5t-274 81t-158 251h303q36 -70 129 -70q96 0 129 70z" />
    <glyph glyph-name="gbreve" unicode="&#x11f;" horiz-adv-x="1826" 
d="M1288 1255h354v-1101q0 -363 -196.5 -532t-607.5 -169q-358 0 -598 119v334q251 -146 579 -146q258 0 363.5 74t105.5 254v84q-72 -81 -187 -126.5t-249 -45.5q-153 0 -283.5 41.5t-228 120.5t-152.5 201t-55 274q0 301 192 478t527 177q132 0 245.5 -45t190.5 -125v133z
M897 295q194 0 307 83t113 251q0 164 -117 260t-303 96q-184 0 -289.5 -90t-105.5 -258q0 -163 109 -252.5t286 -89.5zM991 1796h303q-53 -169 -157 -250.5t-275 -81.5t-274 81t-158 251h303q36 -70 129 -70q96 0 129 70z" />
    <glyph glyph-name="Gcommaaccent" unicode="&#x122;" horiz-adv-x="1837" 
d="M1196 -143l-256 -355h-268l207 355h317zM1673 741v-632q-108 -64 -278.5 -105t-350.5 -41q-266 0 -467.5 97.5t-312 280t-110.5 425.5q0 188 69 341t190.5 253.5t285.5 154.5t356 54q147 0 282 -30t228 -87v-354q-125 78 -243 110.5t-267 32.5q-229 0 -376 -127
t-147 -348q0 -219 141 -347t371 -128q162 0 273 41v409h356z" />
    <glyph glyph-name="gcommaaccent" unicode="&#x123;" horiz-adv-x="1826" 
d="M731 1464l256 355h268l-206 -355h-318zM1288 1255h354v-1101q0 -363 -196.5 -532t-607.5 -169q-358 0 -598 119v334q251 -146 579 -146q258 0 363.5 74t105.5 254v84q-72 -81 -187 -126.5t-249 -45.5q-153 0 -283.5 41.5t-228 120.5t-152.5 201t-55 274q0 301 192 478
t527 177q132 0 245.5 -45t190.5 -125v133zM897 295q194 0 307 83t113 251q0 164 -117 260t-303 96q-184 0 -289.5 -90t-105.5 -258q0 -163 109 -252.5t286 -89.5z" />
    <glyph glyph-name="Imacron" unicode="&#x12a;" horiz-adv-x="819" 
d="M225 0v1532h369v-1532h-369zM-14 1716v234h848v-234h-848z" />
    <glyph glyph-name="imacron" unicode="&#x12b;" horiz-adv-x="743" 
d="M195 0v1255h354v-1255h-354zM-53 1464v234h848v-234h-848z" />
    <glyph glyph-name="Iogonek" unicode="&#x12e;" horiz-adv-x="819" 
d="M473 0q-5 -4 -26.5 -19.5t-31 -23t-31 -24t-33 -28t-29 -28.5t-27 -31t-20 -31t-15 -33.5t-4.5 -33.5q0 -36 25 -53t51 -17q37 0 85 14t85 36v-209q-81 -37 -185 -37q-286 0 -286 260q0 74 61 147.5t133 110.5v1532h369v-1532h-121z" />
    <glyph glyph-name="iogonek" unicode="&#x12f;" horiz-adv-x="743" 
d="M449 0q-76 -55 -125.5 -109.5t-49.5 -111.5q0 -36 25 -53t49 -17q89 0 172 47v-207q-79 -36 -184 -36q-287 0 -287 260q0 62 43 123t103 104v1255h354v-1255h-100zM571 1663q0 -83 -58 -141t-140 -58q-83 0 -142 58t-59 141t59 141t142 58q82 0 140 -58t58 -141z" />
    <glyph glyph-name="Idotaccent" unicode="&#x130;" horiz-adv-x="819" 
d="M225 0v1532h369v-1532h-369zM608 1898q0 -83 -58 -140.5t-140 -57.5q-83 0 -141 57.5t-58 140.5t58 141t141 58q82 0 140 -58t58 -141z" />
    <glyph glyph-name="dotlessi" unicode="&#x131;" horiz-adv-x="743" 
d="M195 0v1255h354v-1255h-354z" />
    <glyph glyph-name="Kcommaaccent" unicode="&#x136;" horiz-adv-x="1835" 
d="M1102 -143l-256 -355h-268l206 355h318zM1044 999l721 -999h-440l-551 799l-201 -158v-641h-368v1532h368v-516l648 516h514z" />
    <glyph glyph-name="kcommaaccent" unicode="&#x137;" horiz-adv-x="1624" 
d="M1014 -143l-256 -355h-269l207 355h318zM1554 0h-424l-436 674l-155 -121v-553h-355v1800h355v-913l483 368h496l-562 -401z" />
    <glyph glyph-name="Lacute" unicode="&#x139;" horiz-adv-x="1462" 
d="M573 317h828v-317h-1196v1532h368v-1215zM1196 2050l-381 -334h-389l334 334h436z" />
    <glyph glyph-name="lacute" unicode="&#x13a;" horiz-adv-x="743" 
d="M195 1800h354v-1800h-354v1800zM770 2294l-381 -334h-389l334 334h436z" />
    <glyph glyph-name="Lcommaaccent" unicode="&#x13b;" horiz-adv-x="1462" 
d="M1102 -143l-256 -355h-268l206 355h318zM573 317h828v-317h-1196v1532h368v-1215z" />
    <glyph glyph-name="lcommaaccent" unicode="&#x13c;" horiz-adv-x="743" 
d="M528 -143l-256 -355h-268l207 355h317zM195 1800h354v-1800h-354v1800z" />
    <glyph glyph-name="Lcaron" unicode="&#x13d;" horiz-adv-x="1462" 
d="M1462 1532l-256 -354h-268l207 354h317zM573 317h828v-317h-1196v1532h368v-1215z" />
    <glyph glyph-name="lcaron" unicode="&#x13e;" horiz-adv-x="1079" 
d="M1077 1800l-213 -325h-250l177 325h286zM195 1800h354v-1800h-354v1800z" />
    <glyph glyph-name="Lslash" unicode="&#x141;" horiz-adv-x="1499" 
d="M610 317h828v-317h-1196v610l-209 -73v294l209 72v629h368v-500l447 156v-295l-447 -156v-420z" />
    <glyph glyph-name="lslash" unicode="&#x142;" horiz-adv-x="991" 
d="M940 1288v-282l-266 -95v-911h-355v784l-268 -96v283l268 94v735h355v-608z" />
    <glyph glyph-name="Nacute" unicode="&#x143;" 
d="M1475 205v1327h362v-1532h-627l-643 1325v-1325h-362v1532h629zM1708 2050l-381 -334h-389l334 334h436z" />
    <glyph glyph-name="nacute" unicode="&#x144;" horiz-adv-x="1716" 
d="M1532 801v-801h-354v754q0 114 -54.5 172.5t-189.5 58.5q-206 0 -300.5 -74t-94.5 -249v-662h-355v1255h355v-137q66 87 176 130.5t225 43.5q268 0 430 -133.5t162 -357.5zM1411 1798l-381 -334h-389l334 334h436z" />
    <glyph glyph-name="Ncommaaccent" unicode="&#x145;" 
d="M1087 -143l-256 -355h-268l207 355h317zM1475 205v1327h362v-1532h-627l-643 1325v-1325h-362v1532h629z" />
    <glyph glyph-name="ncommaaccent" unicode="&#x146;" horiz-adv-x="1716" 
d="M1067 -143l-256 -355h-268l207 355h317zM1532 801v-801h-354v754q0 114 -54.5 172.5t-189.5 58.5q-206 0 -300.5 -74t-94.5 -249v-662h-355v1255h355v-137q66 87 176 130.5t225 43.5q268 0 430 -133.5t162 -357.5z" />
    <glyph glyph-name="Ncaron" unicode="&#x147;" 
d="M1475 205v1327h362v-1532h-627l-643 1325v-1325h-362v1532h629zM1540 2050l-262 -334h-447l-260 334h316l168 -170l168 170h317z" />
    <glyph glyph-name="ncaron" unicode="&#x148;" horiz-adv-x="1716" 
d="M1532 801v-801h-354v754q0 114 -54.5 172.5t-189.5 58.5q-206 0 -300.5 -74t-94.5 -249v-662h-355v1255h355v-137q66 87 176 130.5t225 43.5q268 0 430 -133.5t162 -357.5zM1427 1798l-262 -334h-446l-260 334h315l168 -170l168 170h317z" />
    <glyph glyph-name="Ohungarumlaut" unicode="&#x150;" horiz-adv-x="2103" 
d="M1051 1569q269 0 473 -99t315 -281.5t111 -422.5q0 -239 -111 -421.5t-315 -282t-473 -99.5q-267 0 -470.5 99.5t-315 282t-111.5 421.5q0 240 111.5 422.5t315 281.5t470.5 99zM1051 291q229 0 374.5 129t145.5 346t-145.5 346t-374.5 129q-227 0 -373 -129.5
t-146 -345.5t146 -345.5t373 -129.5zM1223 2050l-381 -334h-379l334 334h426zM1939 2050l-380 -334h-379l333 334h426z" />
    <glyph glyph-name="ohungarumlaut" unicode="&#x151;" horiz-adv-x="1806" 
d="M1673 627q0 -194 -97.5 -345.5t-273 -235t-399.5 -83.5t-399.5 83.5t-273 235.5t-97.5 347q0 194 97.5 345t273 234.5t399.5 83.5t399.5 -83.5t273 -235t97.5 -346.5zM903 270q185 0 293.5 96t108.5 263q0 165 -108.5 260.5t-293.5 95.5t-293 -95.5t-108 -260.5
q0 -167 108 -263t293 -96zM1042 1798l-380 -334h-379l333 334h426zM1759 1798l-381 -334h-379l334 334h426z" />
    <glyph glyph-name="OE" unicode="&#x152;" horiz-adv-x="2664" 
d="M2511 301v-301h-1159q-148 -37 -301 -37q-268 0 -471.5 99t-314.5 281.5t-111 422.5q0 362 246 582.5t651 220.5q127 0 301 -37h1147v-301h-783v-275h744v-294h-744v-361h795zM532 766q0 -218 145.5 -346.5t373.5 -128.5q166 0 297 67v816q-127 65 -297 65
q-228 0 -373.5 -128.5t-145.5 -344.5z" />
    <glyph glyph-name="oe" unicode="&#x153;" horiz-adv-x="2721" 
d="M2589 598v-66h-987q10 -127 117 -204.5t268 -77.5q287 0 493 112v-294q-199 -105 -491 -105q-183 0 -333.5 66t-219.5 161q-80 -102 -223 -164.5t-314 -62.5q-341 0 -553.5 185t-212.5 481q0 194 96.5 345t271 234.5t398.5 83.5q161 0 306 -64t225 -165q73 100 212 164.5
t293 64.5q310 0 482 -177t172 -517zM899 250q173 0 278 105t105 274q0 167 -105 272t-278 105q-183 0 -290 -104.5t-107 -272.5q0 -170 107 -274.5t290 -104.5zM1610 764h653q-20 120 -94.5 181t-233.5 61q-133 0 -219 -61t-106 -181z" />
    <glyph glyph-name="Racute" unicode="&#x154;" horiz-adv-x="1689" 
d="M1628 0h-411l-336 551h-308v-551h-368v1532h674q139 0 252 -29t197 -88t130 -154.5t47 -220.5q0 -156 -74.5 -261t-203.5 -163zM573 1231v-387h306q115 0 182 47.5t67 148.5q0 97 -68.5 144t-185.5 47h-301zM1249 2050l-381 -334h-389l334 334h436z" />
    <glyph glyph-name="racute" unicode="&#x155;" horiz-adv-x="1214" 
d="M942 1292q123 0 201 -35v-325q-101 43 -203 43q-401 0 -401 -365v-610h-355v1255h355v-178q59 104 169.5 159.5t233.5 55.5zM1214 1798l-380 -334h-390l334 334h436z" />
    <glyph glyph-name="Rcaron" unicode="&#x158;" horiz-adv-x="1689" 
d="M1628 0h-411l-336 551h-308v-551h-368v1532h674q139 0 252 -29t197 -88t130 -154.5t47 -220.5q0 -156 -74.5 -261t-203.5 -163zM573 1231v-387h306q115 0 182 47.5t67 148.5q0 97 -68.5 144t-185.5 47h-301zM1292 2050l-262 -334h-446l-260 334h315l168 -170l168 170h317
z" />
    <glyph glyph-name="rcaron" unicode="&#x159;" horiz-adv-x="1214" 
d="M942 1292q123 0 201 -35v-325q-101 43 -203 43q-401 0 -401 -365v-610h-355v1255h355v-178q59 104 169.5 159.5t233.5 55.5zM1204 1798l-262 -334h-446l-260 334h315l168 -170l168 170h317z" />
    <glyph glyph-name="Sacute" unicode="&#x15a;" horiz-adv-x="1587" 
d="M860 946q79 -25 123 -40t114 -44t110 -54t89.5 -66.5t75 -86t44 -106.5t18.5 -135q0 -104 -35 -183t-96 -129t-151 -82t-191 -44.5t-226 -12.5q-176 0 -333 37t-248 90v342q114 -77 271.5 -116.5t309.5 -39.5q186 0 258 31t72 113q0 28 -11.5 52t-42.5 46.5t-54 37
t-79.5 35.5t-82 29.5t-96.5 31.5l-9 3q-106 35 -161 55.5t-137.5 63.5t-124 88t-73.5 117.5t-32 163.5q0 93 38 166.5t102 121.5t152 79.5t182.5 45t199.5 13.5q159 0 301.5 -31t238.5 -88v-344q-92 70 -229.5 109.5t-306.5 39.5q-73 0 -126 -5t-96.5 -17.5t-65.5 -36
t-22 -57.5q0 -27 13 -48.5t34 -37.5t57 -31.5t74 -28t93 -29.5q38 -12 59 -18zM1325 2050l-381 -334h-389l334 334h436z" />
    <glyph glyph-name="sacute" unicode="&#x15b;" horiz-adv-x="1441" 
d="M807 778q186 -55 262 -91q186 -89 227 -243q13 -48 13 -104q0 -377 -639 -377q-168 0 -307 35t-220 74v297q130 -65 254 -94t273 -29q136 0 206 20t70 74q0 57 -70 93t-251 83q-53 14 -94 27t-92.5 34t-90.5 43.5t-78 54.5t-64 69t-40.5 85.5t-15.5 104.5q0 96 54 168
t144.5 112t193 59t216.5 19q136 0 271 -28t220 -74v-295q-109 61 -225 88t-262 27q-119 0 -184.5 -20t-65.5 -56q0 -41 62.5 -73.5t232.5 -82.5zM1223 1798l-381 -334h-389l333 334h437z" />
    <glyph glyph-name="Scedilla" unicode="&#x15e;" horiz-adv-x="1587" 
d="M1434 414q0 -120 -45 -206t-130 -136.5t-191.5 -75.5t-246.5 -31v-86q101 -13 168.5 -69.5t67.5 -139.5q0 -248 -316 -248q-88 0 -153 21v180q58 -24 135 -24q135 0 135 67q0 51 -53 71.5t-160 20.5v209q-151 9 -282 43t-209 80v342q114 -77 271.5 -116.5t309.5 -39.5
q186 0 258 31t72 113q0 28 -11.5 52t-42.5 46.5t-54 37t-79.5 35.5t-82 29.5t-96.5 31.5l-9 3q-106 35 -161 55.5t-137.5 63.5t-124 88t-73.5 117.5t-32 163.5q0 93 38 166.5t102 121.5t152 79.5t182.5 45t199.5 13.5q159 0 301.5 -31t238.5 -88v-344q-92 70 -229.5 109.5
t-306.5 39.5q-73 0 -126 -5t-96.5 -17.5t-65.5 -36t-22 -57.5q0 -27 13 -48.5t34 -37.5t57 -31.5t74 -28t93 -29.5q38 -12 59 -18q79 -25 123 -40t114 -44t110 -54t89.5 -66.5t75 -86t44 -106.5t18.5 -135z" />
    <glyph glyph-name="scedilla" unicode="&#x15f;" horiz-adv-x="1441" 
d="M1309 340q0 -350 -547 -375v-88q101 -11 168 -67.5t67 -141.5q0 -246 -315 -246q-101 0 -152 21v178q51 -22 134 -22q135 0 135 65q0 53 -53 73.5t-158 20.5v207q-142 8 -258 40t-187 67v297q130 -65 254 -94t273 -29q136 0 206 20t70 74q0 57 -70 93t-251 83
q-53 14 -94 27t-92.5 34t-90.5 43.5t-78 54.5t-64 69t-40.5 85.5t-15.5 104.5q0 96 54 168t144.5 112t193 59t216.5 19q136 0 271 -28t220 -74v-295q-109 61 -225 88t-262 27q-119 0 -184.5 -20t-65.5 -56q0 -41 62.5 -73.5t232.5 -82.5q186 -55 262 -91q186 -89 227 -243
q13 -48 13 -104z" />
    <glyph glyph-name="Scaron" unicode="&#x160;" horiz-adv-x="1587" 
d="M860 946q79 -25 123 -40t114 -44t110 -54t89.5 -66.5t75 -86t44 -106.5t18.5 -135q0 -104 -35 -183t-96 -129t-151 -82t-191 -44.5t-226 -12.5q-176 0 -333 37t-248 90v342q114 -77 271.5 -116.5t309.5 -39.5q186 0 258 31t72 113q0 28 -11.5 52t-42.5 46.5t-54 37
t-79.5 35.5t-82 29.5t-96.5 31.5l-9 3q-106 35 -161 55.5t-137.5 63.5t-124 88t-73.5 117.5t-32 163.5q0 93 38 166.5t102 121.5t152 79.5t182.5 45t199.5 13.5q159 0 301.5 -31t238.5 -88v-344q-92 70 -229.5 109.5t-306.5 39.5q-73 0 -126 -5t-96.5 -17.5t-65.5 -36
t-22 -57.5q0 -27 13 -48.5t34 -37.5t57 -31.5t74 -28t93 -29.5q38 -12 59 -18zM1319 2050l-262 -334h-447l-260 334h316l168 -170l167 170h318z" />
    <glyph glyph-name="scaron" unicode="&#x161;" horiz-adv-x="1441" 
d="M807 778q186 -55 262 -91q186 -89 227 -243q13 -48 13 -104q0 -377 -639 -377q-168 0 -307 35t-220 74v297q130 -65 254 -94t273 -29q136 0 206 20t70 74q0 57 -70 93t-251 83q-53 14 -94 27t-92.5 34t-90.5 43.5t-78 54.5t-64 69t-40.5 85.5t-15.5 104.5q0 96 54 168
t144.5 112t193 59t216.5 19q136 0 271 -28t220 -74v-295q-109 61 -225 88t-262 27q-119 0 -184.5 -20t-65.5 -56q0 -41 62.5 -73.5t232.5 -82.5zM1237 1798l-262 -334h-447l-260 334h316l168 -170l168 170h317z" />
    <glyph glyph-name="Tcommaaccent" unicode="&#x162;" horiz-adv-x="1630" 
d="M975 -143l-256 -355h-268l206 355h318zM1569 1532v-318h-570v-1214h-368v1214h-570v318h1508z" />
    <glyph glyph-name="tcommaaccent" unicode="&#x163;" horiz-adv-x="1273" 
d="M995 -143l-256 -355h-268l207 355h317zM866 270q91 0 180 25.5t156 66.5v-321q-171 -78 -360 -78q-257 0 -386.5 123.5t-129.5 355.5v514h-265v299h265v314h354v-314h422v-299h-422v-489q0 -106 42.5 -151.5t143.5 -45.5z" />
    <glyph glyph-name="Tcaron" unicode="&#x164;" horiz-adv-x="1630" 
d="M1569 1532v-318h-570v-1214h-368v1214h-570v318h1508zM1298 2050l-262 -334h-446l-260 334h315l168 -170l168 170h317z" />
    <glyph glyph-name="tcaron" unicode="&#x165;" horiz-adv-x="1284" 
d="M1358 1800l-213 -325h-250l176 325h287zM866 270q91 0 180 25.5t156 66.5v-321q-171 -78 -360 -78q-257 0 -386.5 123.5t-129.5 355.5v514h-265v299h265v314h354v-314h422v-299h-422v-489q0 -106 42.5 -151.5t143.5 -45.5z" />
    <glyph glyph-name="Umacron" unicode="&#x16a;" horiz-adv-x="1900" 
d="M1327 1532h369v-907q0 -319 -187 -490.5t-559 -171.5t-558.5 171.5t-186.5 490.5v907h368v-909q0 -167 90.5 -249.5t286.5 -82.5t286.5 82.5t90.5 249.5v909zM526 1716v234h848v-234h-848z" />
    <glyph glyph-name="umacron" unicode="&#x16b;" horiz-adv-x="1675" 
d="M1137 1255h354v-720q0 -143 -48 -253t-136 -179.5t-206 -104.5t-263 -35q-146 0 -265 35t-206.5 104.5t-135 179.5t-47.5 253v720h355v-712q0 -146 74 -209.5t225 -63.5q148 0 223.5 63.5t75.5 209.5v712zM414 1464v234h848v-234h-848z" />
    <glyph glyph-name="Uring" unicode="&#x16e;" horiz-adv-x="1900" 
d="M1327 1532h369v-907q0 -319 -187 -490.5t-559 -171.5t-558.5 171.5t-186.5 490.5v907h368v-909q0 -167 90.5 -249.5t286.5 -82.5t286.5 82.5t90.5 249.5v909zM950 2048q-47 0 -80.5 -34.5t-33.5 -80.5q0 -47 33.5 -80.5t80.5 -33.5q46 0 79.5 33.5t33.5 80.5
q0 46 -33.5 80.5t-79.5 34.5zM950 2198q109 0 186.5 -78t77.5 -187q0 -110 -77.5 -187t-186.5 -77q-110 0 -188 77t-78 187q0 109 78 187t188 78z" />
    <glyph glyph-name="uring" unicode="&#x16f;" horiz-adv-x="1675" 
d="M1137 1255h354v-720q0 -143 -48 -253t-136 -179.5t-206 -104.5t-263 -35q-146 0 -265 35t-206.5 104.5t-135 179.5t-47.5 253v720h355v-712q0 -146 74 -209.5t225 -63.5q148 0 223.5 63.5t75.5 209.5v712zM840 1806q-47 0 -81 -34t-34 -80q0 -47 34 -81t81 -34
q46 0 79 34t33 81q0 46 -33 80t-79 34zM840 1956q109 0 186.5 -77.5t77.5 -186.5q0 -110 -77.5 -187.5t-186.5 -77.5q-110 0 -188.5 77.5t-78.5 187.5q0 109 78.5 186.5t188.5 77.5z" />
    <glyph glyph-name="Uhungarumlaut" unicode="&#x170;" horiz-adv-x="1900" 
d="M1327 1532h369v-907q0 -319 -187 -490.5t-559 -171.5t-558.5 171.5t-186.5 490.5v907h368v-909q0 -167 90.5 -249.5t286.5 -82.5t286.5 82.5t90.5 249.5v909zM1075 2050l-381 -334h-379l334 334h426zM1792 2050l-381 -334h-379l334 334h426z" />
    <glyph glyph-name="uhungarumlaut" unicode="&#x171;" horiz-adv-x="1675" 
d="M1137 1255h354v-720q0 -143 -48 -253t-136 -179.5t-206 -104.5t-263 -35q-146 0 -265 35t-206.5 104.5t-135 179.5t-47.5 253v720h355v-712q0 -146 74 -209.5t225 -63.5q148 0 223.5 63.5t75.5 209.5v712zM987 1798l-381 -334h-379l334 334h426zM1704 1798l-381 -334
h-379l334 334h426z" />
    <glyph glyph-name="Uogonek" unicode="&#x172;" horiz-adv-x="1900" 
d="M1327 1532h369v-907q0 -261 -125.5 -424t-376.5 -215q-39 -27 -65.5 -48.5t-61.5 -54.5t-53.5 -67.5t-18.5 -67.5q0 -36 25 -53t51 -17q84 0 172 50v-209q-84 -37 -186 -37q-285 0 -285 260q0 60 39 118.5t98 102.5q-352 9 -528 180t-176 482v907h368v-909
q0 -167 90.5 -249.5t286.5 -82.5t286.5 82.5t90.5 249.5v909z" />
    <glyph glyph-name="uogonek" unicode="&#x173;" horiz-adv-x="1675" 
d="M1137 1255h354v-720q0 -212 -103 -347.5t-288 -189.5q-170 -123 -170 -219q0 -37 24 -53.5t50 -16.5q89 0 172 47v-207q-82 -36 -187 -36q-284 0 -284 260q0 97 100 190q-140 4 -253 41t-195.5 106.5t-127.5 177.5t-45 247v720h355v-712q0 -146 74 -209.5t225 -63.5
q148 0 223.5 63.5t75.5 209.5v712z" />
    <glyph glyph-name="Wcircumflex" unicode="&#x174;" horiz-adv-x="2965" 
d="M2894 1532l-527 -1532h-583l-303 1327l-334 -1327h-582l-493 1532h372l418 -1325l326 1325h594l293 -1325l446 1325h373zM1704 2050l262 -334h-317l-168 170l-168 -170h-316l260 334h447z" />
    <glyph glyph-name="wcircumflex" unicode="&#x175;" horiz-adv-x="2449" 
d="M2030 1255h358l-399 -1255h-521l-245 1036l-256 -1036h-521l-385 1255h365l289 -1036l229 1036h565l220 -1036zM1446 1798l262 -334h-317l-168 170l-168 -170h-316l260 334h447z" />
    <glyph glyph-name="Ycircumflex" unicode="&#x176;" horiz-adv-x="1775" 
d="M1335 1532h371l-795 -1532h-370l270 522h-199l-542 1010h393l442 -836zM1112 2050l262 -334h-317l-168 170l-168 -170h-315l260 334h446z" />
    <glyph glyph-name="ycircumflex" unicode="&#x177;" horiz-adv-x="1665" 
d="M1229 1255h375l-783 -1765h-375l314 686h-168l-531 1079h394l403 -860zM1081 1798l262 -334h-317l-168 170l-168 -170h-315l260 334h446z" />
    <glyph glyph-name="Ydieresis" unicode="&#x178;" horiz-adv-x="1775" 
d="M1335 1532h371l-795 -1532h-370l270 522h-199l-542 1010h393l442 -836zM1380 1896q0 -74 -52 -126t-126 -52t-126 52t-52 126q0 73 52 125t126 52t126 -52t52 -125zM778 1896q0 -74 -52 -126t-126 -52t-126 52t-52 126q0 73 52 125t126 52t126 -52t52 -125z" />
    <glyph glyph-name="Zacute" unicode="&#x179;" horiz-adv-x="1556" 
d="M1409 1038l-1003 -731h1038v-307h-1321v494l1003 731h-954v307h1237v-494zM1319 2050l-381 -334h-389l334 334h436z" />
    <glyph glyph-name="zacute" unicode="&#x17a;" horiz-adv-x="1400" 
d="M1245 799l-817 -508h860v-291h-1165v455l819 510h-780v290h1083v-456zM1219 1798l-381 -334h-389l333 334h437z" />
    <glyph glyph-name="Zdotaccent" unicode="&#x17b;" horiz-adv-x="1556" 
d="M1409 1038l-1003 -731h1038v-307h-1321v494l1003 731h-954v307h1237v-494zM1001 1896q0 -83 -58 -140.5t-140 -57.5q-83 0 -141 57.5t-58 140.5t58 141t141 58q82 0 140 -58t58 -141z" />
    <glyph glyph-name="zdotaccent" unicode="&#x17c;" horiz-adv-x="1400" 
d="M1245 799l-817 -508h860v-291h-1165v455l819 510h-780v290h1083v-456zM901 1663q0 -83 -58.5 -141t-140.5 -58q-83 0 -140.5 58t-57.5 141t57.5 141t140.5 58q82 0 140.5 -58t58.5 -141z" />
    <glyph glyph-name="Zcaron" unicode="&#x17d;" horiz-adv-x="1556" 
d="M1409 1038l-1003 -731h1038v-307h-1321v494l1003 731h-954v307h1237v-494zM1268 2050l-262 -334h-447l-260 334h315l168 -170l168 170h318z" />
    <glyph glyph-name="zcaron" unicode="&#x17e;" horiz-adv-x="1400" 
d="M1245 799l-817 -508h860v-291h-1165v455l819 510h-780v290h1083v-456zM1186 1798l-262 -334h-447l-260 334h315l168 -170l168 170h318z" />
    <glyph glyph-name="Scommaaccent" unicode="&#x218;" horiz-adv-x="1587" 
d="M928 -143l-256 -355h-269l207 355h318zM860 946q79 -25 123 -40t114 -44t110 -54t89.5 -66.5t75 -86t44 -106.5t18.5 -135q0 -104 -35 -183t-96 -129t-151 -82t-191 -44.5t-226 -12.5q-176 0 -333 37t-248 90v342q114 -77 271.5 -116.5t309.5 -39.5q186 0 258 31t72 113
q0 28 -11.5 52t-42.5 46.5t-54 37t-79.5 35.5t-82 29.5t-96.5 31.5l-9 3q-106 35 -161 55.5t-137.5 63.5t-124 88t-73.5 117.5t-32 163.5q0 93 38 166.5t102 121.5t152 79.5t182.5 45t199.5 13.5q159 0 301.5 -31t238.5 -88v-344q-92 70 -229.5 109.5t-306.5 39.5
q-73 0 -126 -5t-96.5 -17.5t-65.5 -36t-22 -57.5q0 -27 13 -48.5t34 -37.5t57 -31.5t74 -28t93 -29.5q38 -12 59 -18z" />
    <glyph glyph-name="scommaaccent" unicode="&#x219;" horiz-adv-x="1441" 
d="M831 -143l-256 -355h-268l207 355h317zM807 778q186 -55 262 -91q186 -89 227 -243q13 -48 13 -104q0 -377 -639 -377q-168 0 -307 35t-220 74v297q130 -65 254 -94t273 -29q136 0 206 20t70 74q0 57 -70 93t-251 83q-53 14 -94 27t-92.5 34t-90.5 43.5t-78 54.5t-64 69
t-40.5 85.5t-15.5 104.5q0 96 54 168t144.5 112t193 59t216.5 19q136 0 271 -28t220 -74v-295q-109 61 -225 88t-262 27q-119 0 -184.5 -20t-65.5 -56q0 -41 62.5 -73.5t232.5 -82.5z" />
    <glyph glyph-name="circumflex" unicode="&#x2c6;" horiz-adv-x="1107" 
d="M776 2050l262 -334h-317l-168 170l-168 -170h-315l260 334h446z" />
    <glyph glyph-name="caron" unicode="&#x2c7;" horiz-adv-x="1107" 
d="M1038 2050l-262 -334h-446l-260 334h315l168 -170l168 170h317z" />
    <glyph glyph-name="breve" unicode="&#x2d8;" horiz-adv-x="1007" 
d="M633 2048h303q-53 -169 -157 -250.5t-275 -81.5t-274 81t-158 251h303q36 -70 129 -70q96 0 129 70z" />
    <glyph glyph-name="dotaccent" unicode="&#x2d9;" horiz-adv-x="602" 
d="M500 1896q0 -83 -58.5 -140.5t-140.5 -57.5q-83 0 -141 57.5t-58 140.5t58 141t141 58q82 0 140.5 -58t58.5 -141z" />
    <glyph glyph-name="ring" unicode="&#x2da;" horiz-adv-x="1705" 
d="M852 2048q-47 0 -81 -34.5t-34 -80.5q0 -47 34 -80.5t81 -33.5q46 0 79.5 33.5t33.5 80.5q0 46 -33.5 80.5t-79.5 34.5zM852 2198q109 0 186.5 -78t77.5 -187q0 -110 -77.5 -187t-186.5 -77q-110 0 -188 77t-78 187q0 109 78 187t188 78z" />
    <glyph glyph-name="ogonek" unicode="&#x2db;" horiz-adv-x="704" 
d="M428 -322q37 0 86 15t88 37v-222q-82 -36 -188 -36q-138 0 -214.5 66.5t-76.5 197.5q0 74 58 149.5t128 114.5h262q-42 -31 -67 -51t-64.5 -57t-59.5 -75t-20 -75q0 -36 21 -50t47 -14z" />
    <glyph glyph-name="tilde" unicode="&#x2dc;" horiz-adv-x="1007" 
d="M610 1950q25 0 38.5 20t17.5 45h260q0 -146 -79 -226.5t-220 -80.5q-43 0 -81.5 11.5t-61.5 25.5t-49 25.5t-46 11.5q-18 0 -31 -19.5t-16 -46.5h-260q0 140 79.5 224.5t215.5 84.5q45 0 84 -11.5t61 -26t46 -26t42 -11.5z" />
    <glyph glyph-name="hungarumlaut" unicode="&#x2dd;" horiz-adv-x="1595" 
d="M819 2050l-381 -334h-379l334 334h426zM1536 2050l-381 -334h-379l334 334h426z" />
    <glyph glyph-name="uni0401" unicode="&#x401;" horiz-adv-x="1595" 
d="M1319 1894q0 -74 -51.5 -126t-124.5 -52q-74 0 -127 52.5t-53 125.5t53 125t127 52q73 0 124.5 -51.5t51.5 -125.5zM717 1894q0 -74 -52.5 -126t-125.5 -52q-74 0 -126.5 52.5t-52.5 125.5t52.5 125t126.5 52t126 -52t52 -125zM573 305h869v-305h-1237v1532h1225v-305
h-857v-271h820v-294h-820v-357z" />
    <glyph glyph-name="uni0402" unicode="&#x402;" horiz-adv-x="1902" 
d="M1094 991q303 0 469 -131.5t166 -400.5q0 -225 -151.5 -351t-397.5 -126q-90 0 -142 18v299q63 -18 115 -18q91 0 147 53t56 129q0 112 -73 168.5t-193 56.5q-224 0 -336 -158v-530h-369v1227h-324v305h1072v-305h-379v-342q58 49 153.5 77.5t186.5 28.5z" />
    <glyph glyph-name="uni0403" unicode="&#x403;" horiz-adv-x="1419" 
d="M1307 2050l-381 -334h-389l333 334h437zM205 1532h1153v-318h-785v-1214h-368v1532z" />
    <glyph glyph-name="uni0404" unicode="&#x404;" horiz-adv-x="1685" 
d="M530 655q27 -170 170 -267t344 -97q276 0 488 135v-350q-102 -56 -233 -84.5t-255 -28.5q-265 0 -466 96t-312.5 278.5t-111.5 428.5q0 251 111 433.5t311 276t468 93.5q132 0 267.5 -32t220.5 -87v-354q-121 75 -237.5 110t-250.5 35q-190 0 -318.5 -74.5t-180.5 -222.5
h770v-289h-785z" />
    <glyph glyph-name="uni0405" unicode="&#x405;" horiz-adv-x="1587" 
d="M860 946q79 -25 123 -40t114 -44t110 -54t89.5 -66.5t75 -86t44 -106.5t18.5 -135q0 -104 -35 -183t-96 -129t-151 -82t-191 -44.5t-226 -12.5q-176 0 -333 37t-248 90v342q114 -77 271.5 -116.5t309.5 -39.5q186 0 258 31t72 113q0 28 -11.5 52t-42.5 46.5t-54 37
t-79.5 35.5t-82 29.5t-96.5 31.5l-9 3q-106 35 -161 55.5t-137.5 63.5t-124 88t-73.5 117.5t-32 163.5q0 93 38 166.5t102 121.5t152 79.5t182.5 45t199.5 13.5q159 0 301.5 -31t238.5 -88v-344q-92 70 -229.5 109.5t-306.5 39.5q-73 0 -126 -5t-96.5 -17.5t-65.5 -36
t-22 -57.5q0 -27 13 -48.5t34 -37.5t57 -31.5t74 -28t93 -29.5q38 -12 59 -18z" />
    <glyph glyph-name="uni0406" unicode="&#x406;" horiz-adv-x="819" 
d="M225 0v1532h369v-1532h-369z" />
    <glyph glyph-name="uni0407" unicode="&#x407;" horiz-adv-x="819" 
d="M889 1894q0 -74 -51.5 -126t-124.5 -52q-74 0 -127.5 52.5t-53.5 125.5t53.5 125t127.5 52q73 0 124.5 -51.5t51.5 -125.5zM287 1894q0 -74 -52.5 -126t-125.5 -52q-74 0 -126.5 52.5t-52.5 125.5t52.5 125t126.5 52t126 -52t52 -125zM225 0v1532h369v-1532h-369z" />
    <glyph glyph-name="uni0408" unicode="&#x408;" horiz-adv-x="1292" 
d="M231 1532h856v-950q0 -316 -160 -467.5t-474 -151.5q-107 0 -208 27t-153 67v340q144 -106 348 -106q142 0 210.5 63.5t68.5 220.5v639h-488v318z" />
    <glyph glyph-name="uni0409" unicode="&#x409;" horiz-adv-x="2748" 
d="M1993 995q140 0 252.5 -29t196 -87.5t128.5 -154.5t45 -224q0 -129 -45 -225.5t-128 -156t-195 -89t-252 -29.5h-692v1214h-578v-538q0 -144 -15.5 -250.5t-52.5 -193t-98 -140t-151.5 -82t-214.5 -28.5q-77 0 -132 16v326q49 -15 111 -15q109 0 146.5 81.5t37.5 287.5
v854h1315v-537h322zM1991 303q250 0 250 197q0 100 -67.5 146t-184.5 46h-318v-389h320z" />
    <glyph glyph-name="uni040A" unicode="&#x40a;" horiz-adv-x="2799" 
d="M2042 995q141 0 253.5 -29t196.5 -88t129 -155.5t45 -224.5t-45 -224.5t-128 -155.5t-195 -88.5t-252 -29.5h-692v692h-781v-692h-368v1532h368v-537h781v537h368v-537h320zM2042 303q117 0 183.5 47t66.5 148q0 194 -252 194h-318v-389h320z" />
    <glyph glyph-name="uni040B" unicode="&#x40b;" horiz-adv-x="1910" 
d="M1096 991q303 0 466.5 -131.5t163.5 -400.5v-459h-368v459q0 231 -266 231q-224 0 -338 -160v-530h-369v1227h-324v305h1074v-305h-381v-342q59 49 155.5 77.5t186.5 28.5z" />
    <glyph glyph-name="uni040C" unicode="&#x40c;" horiz-adv-x="1835" 
d="M1430 2003l-381 -334h-390l334 334h437zM1044 999l721 -999h-440l-551 799l-201 -158v-641h-368v1532h368v-516l648 516h514z" />
    <glyph glyph-name="uni040E" unicode="&#x40e;" horiz-adv-x="1775" 
d="M1014 1991h303q-53 -169 -157 -250.5t-275 -81.5t-274 81t-158 251h303q36 -70 129 -70q96 0 129 70zM1335 1532h371l-795 -1532h-370l270 522h-199l-542 1010h393l442 -836z" />
    <glyph glyph-name="uni040F" unicode="&#x40f;" horiz-adv-x="1970" 
d="M1397 1532h368v-1532h-602v-377h-356v377h-602v1532h368v-1215h824v1215z" />
    <glyph glyph-name="uni0410" unicode="&#x410;" 
d="M1585 0l-133 303h-868l-131 -303h-387l682 1532h546l682 -1532h-391zM1018 1327l-311 -729h622z" />
    <glyph glyph-name="uni0411" unicode="&#x411;" horiz-adv-x="1732" 
d="M993 956q296 0 451 -133t155 -352q0 -230 -154.5 -350.5t-453.5 -120.5h-786v1532h1261v-301h-893v-275h420zM1006 297q92 0 155.5 42t63.5 132q0 95 -61 144t-165 49h-426v-367h433z" />
    <glyph glyph-name="uni0412" unicode="&#x412;" horiz-adv-x="1652" 
d="M1262 856q113 -47 185.5 -147t72.5 -222q0 -99 -28.5 -180t-79 -137.5t-121.5 -95t-155.5 -56.5t-181.5 -18h-749v1532h641q118 0 214 -22.5t173.5 -70t120.5 -131.5t43 -198q0 -85 -40 -151.5t-95 -102.5zM555 948h272q63 0 110 12t79.5 45t32.5 85q0 71 -49.5 111
t-151.5 40h-293v-293zM1153 487q0 94 -67.5 139.5t-208.5 45.5h-322v-379h346q131 0 191.5 47t60.5 147z" />
    <glyph glyph-name="uni0413" unicode="&#x413;" horiz-adv-x="1419" 
d="M205 1532h1153v-318h-785v-1214h-368v1532z" />
    <glyph glyph-name="uni0414" unicode="&#x414;" horiz-adv-x="2103" 
d="M1808 299h213v-676h-356v377h-1227v-377h-356v676h197q75 101 117 250.5t42 320.5v662h1370v-1233zM1440 299v934h-637v-363q0 -144 -28 -300.5t-83 -270.5h748z" />
    <glyph glyph-name="uni0415" unicode="&#x415;" horiz-adv-x="1595" 
d="M573 305h869v-305h-1237v1532h1225v-305h-857v-271h820v-294h-820v-357z" />
    <glyph glyph-name="uni0416" unicode="&#x416;" horiz-adv-x="2754" 
d="M1999 1010l686 -1010h-424l-520 807l-185 -152v-655h-358v655l-184 150l-520 -805h-424l686 1010l-650 522h476l616 -506v506h358v-506l617 506h475z" />
    <glyph glyph-name="uni0417" unicode="&#x417;" horiz-adv-x="1544" 
d="M1149 821q127 -50 194.5 -145t67.5 -230q0 -483 -737 -483q-139 0 -299.5 36t-241.5 89v340q125 -75 264 -113.5t271 -38.5q195 0 283.5 37t88.5 133q0 54 -16 92.5t-44 63t-75.5 38.5t-102.5 19t-132 5h-221v288h210q67 0 117 5.5t98.5 19.5t74.5 44t26 75q0 44 -30 77
t-77.5 50t-96 24.5t-97.5 7.5q-164 0 -280 -34t-236 -107v328q218 127 510 127q69 0 132.5 -5.5t132 -19.5t125.5 -36t109.5 -57.5t88.5 -81.5t57.5 -110t21.5 -141q0 -100 -55 -175.5t-131 -121.5z" />
    <glyph glyph-name="uni0418" unicode="&#x418;" horiz-adv-x="2045" 
d="M1231 1532h610v-1532h-368v1325l-652 -1325h-616v1532h368v-1327z" />
    <glyph glyph-name="uni0419" unicode="&#x419;" horiz-adv-x="2045" 
d="M1231 1532h610v-1532h-368v1325l-652 -1325h-616v1532h368v-1327zM1120 1991h303q-53 -169 -157 -250.5t-275 -81.5t-274 81t-158 251h303q36 -70 129 -70q96 0 129 70z" />
    <glyph glyph-name="uni041A" unicode="&#x41a;" horiz-adv-x="1835" 
d="M1044 999l721 -999h-440l-551 799l-201 -158v-641h-368v1532h368v-516l648 516h514z" />
    <glyph glyph-name="uni041B" unicode="&#x41b;" horiz-adv-x="1925" 
d="M358 1532h1362v-1532h-368v1214h-625v-536q0 -181 -25 -305.5t-85.5 -214.5t-164.5 -132t-259 -42q-77 0 -132 16v324q49 -15 111 -15q110 0 148 81.5t38 287.5v854z" />
    <glyph glyph-name="uni041C" unicode="&#x41c;" horiz-adv-x="2580" 
d="M1743 1532h633v-1532h-363v1325l-454 -1325h-537l-455 1325v-1325h-362v1532h633l450 -1327z" />
    <glyph glyph-name="uni041D" unicode="&#x41d;" horiz-adv-x="1970" 
d="M1397 1532h368v-1532h-368v657h-824v-657h-368v1532h368v-567h824v567z" />
    <glyph glyph-name="uni041E" unicode="&#x41e;" horiz-adv-x="2103" 
d="M1051 1569q269 0 473 -99t315 -281.5t111 -422.5q0 -239 -111 -421.5t-315 -282t-473 -99.5q-267 0 -470.5 99.5t-315 282t-111.5 421.5q0 240 111.5 422.5t315 281.5t470.5 99zM1051 291q229 0 374.5 129t145.5 346t-145.5 346t-374.5 129q-227 0 -373 -129.5
t-146 -345.5t146 -345.5t373 -129.5z" />
    <glyph glyph-name="uni041F" unicode="&#x41f;" horiz-adv-x="1970" 
d="M205 1532h1560v-1532h-368v1214h-824v-1214h-368v1532z" />
    <glyph glyph-name="uni0420" unicode="&#x420;" horiz-adv-x="1652" 
d="M897 1532q140 0 252.5 -31t196 -92t129 -159t45.5 -226q0 -129 -45 -227t-128 -159t-195.5 -91.5t-252.5 -30.5h-326v-516h-368v1532h692zM897 817q114 0 181 52t67 155q0 102 -68 152.5t-184 50.5h-320v-410h324z" />
    <glyph glyph-name="uni0421" unicode="&#x421;" horiz-adv-x="1687" 
d="M532 766q0 -213 145.5 -344t366.5 -131q287 0 490 137v-354q-105 -56 -235.5 -83.5t-254.5 -27.5q-259 0 -461 99.5t-315.5 282.5t-113.5 421q0 251 112.5 433.5t312.5 276t465 93.5q132 0 268.5 -31.5t221.5 -85.5v-354q-222 143 -490 143q-235 0 -373.5 -126
t-138.5 -349z" />
    <glyph glyph-name="uni0422" unicode="&#x422;" horiz-adv-x="1630" 
d="M1569 1532v-318h-570v-1214h-368v1214h-570v318h1508z" />
    <glyph glyph-name="uni0423" unicode="&#x423;" horiz-adv-x="1775" 
d="M1335 1532h371l-795 -1532h-370l270 522h-199l-542 1010h393l442 -836z" />
    <glyph glyph-name="uni0424" unicode="&#x424;" horiz-adv-x="2281" 
d="M1333 1386q398 0 596.5 -156.5t198.5 -445.5t-198.5 -446.5t-596.5 -157.5h-14v-217h-356v217h-15q-397 0 -595.5 157.5t-198.5 446.5t198 445.5t596 156.5h15v183h356v-183h14zM963 463v641h-21q-95 0 -168.5 -16t-131.5 -51.5t-89 -99t-31 -153.5t31 -153.5t89 -99.5
t131.5 -52t168.5 -16h21zM1339 463q95 0 168.5 16t131.5 52t89 99.5t31 153.5t-31 153.5t-89 99t-131.5 51.5t-168.5 16h-20v-641h20z" />
    <glyph glyph-name="uni0425" unicode="&#x425;" horiz-adv-x="1824" 
d="M1761 0h-401l-442 713l-453 -713h-402l543 825l-469 707h402l381 -592l376 592h400l-463 -707z" />
    <glyph glyph-name="uni0426" unicode="&#x426;" horiz-adv-x="2009" 
d="M1679 317h248v-694h-356v377h-1366v1532h368v-1215h738v1215h368v-1215z" />
    <glyph glyph-name="uni0427" unicode="&#x427;" horiz-adv-x="1777" 
d="M1204 1532h369v-1532h-369v575q-228 -43 -487 -43q-91 0 -172.5 18.5t-151.5 57t-120.5 94t-79.5 134.5t-29 174v522h368v-475q0 -219 226 -219q211 0 446 47v647z" />
    <glyph glyph-name="uni0428" unicode="&#x428;" horiz-adv-x="2856" 
d="M205 1532h368v-1215h672v1215h369v-1215h670v1215h368v-1532h-2447v1532z" />
    <glyph glyph-name="uni0429" unicode="&#x429;" horiz-adv-x="2981" 
d="M2652 317h248v-694h-356v377h-2339v1532h368v-1215h670v1215h369v-1215h672v1215h368v-1215z" />
    <glyph glyph-name="uni042A" unicode="&#x42a;" horiz-adv-x="1945" 
d="M1188 993q140 0 252.5 -29t196.5 -87.5t129.5 -154.5t45.5 -224t-45 -224.5t-128 -155.5t-195 -88.5t-252 -29.5h-721v1227h-420v305h789v-539h348zM1188 303q117 0 183.5 47t66.5 148q0 100 -67.5 146t-184.5 46h-346v-387h348z" />
    <glyph glyph-name="uni042B" unicode="&#x42b;" horiz-adv-x="2273" 
d="M1700 0v1532h368v-1532h-368zM1505 498q0 -128 -44 -224.5t-125.5 -155.5t-191.5 -88.5t-247 -29.5h-692v1532h368v-537h322q283 0 446.5 -122.5t163.5 -374.5zM1133 498q0 194 -242 194h-318v-389h320q240 0 240 195z" />
    <glyph glyph-name="uni042C" unicode="&#x42c;" horiz-adv-x="1679" 
d="M1546 498q0 -128 -45 -224.5t-128 -155.5t-195 -88.5t-252 -29.5h-721v1532h368v-539h351q140 0 252.5 -29t196 -87.5t128.5 -154.5t45 -224zM1171 498q0 192 -251 192h-347v-387h349q249 0 249 195z" />
    <glyph glyph-name="uni042D" unicode="&#x42d;" horiz-adv-x="1705" 
d="M639 1569q204 0 370.5 -51t288 -149.5t188 -252t66.5 -350.5t-67 -351t-189 -252.5t-288.5 -149t-368.5 -50.5q-125 0 -257 30t-228 85v346q218 -133 485 -133q225 0 367 95.5t168 268.5h-728v289h717q-100 297 -524 297q-128 0 -256 -39.5t-229 -109.5v350
q88 57 221.5 92t263.5 35z" />
    <glyph glyph-name="uni042E" unicode="&#x42e;" horiz-adv-x="2660" 
d="M1655 1569q193 0 353.5 -61.5t269.5 -168.5t169 -254.5t60 -318.5q-1 -171 -61 -318.5t-168.5 -254.5t-269 -168.5t-353.5 -61.5q-341 0 -567 190.5t-263 503.5h-252v-657h-368v1532h368v-567h269q62 276 280 440t533 164zM1655 291q205 0 339 134.5t134 340.5
t-134 340.5t-339 134.5q-204 0 -335.5 -135t-131.5 -340t131.5 -340t335.5 -135z" />
    <glyph glyph-name="uni042F" unicode="&#x42f;" horiz-adv-x="1689" 
d="M473 0h-412l402 616q-129 58 -205 163t-76 261q1 125 47.5 220.5t131.5 154t198 88t252 29.5h674v-1532h-369v551h-307zM1116 844v387h-301q-117 0 -186.5 -47t-69.5 -144q0 -101 68 -148.5t184 -47.5h305z" />
    <glyph glyph-name="uni0430" unicode="&#x430;" horiz-adv-x="1605" 
d="M1497 260q29 0 47 6v-278q-41 -13 -92 -13q-268 0 -367 170q-47 -77 -151.5 -129.5t-239.5 -52.5q-280 0 -420.5 114.5t-140.5 321.5q0 103 49.5 184.5t129.5 129.5t173 73t189 25q65 0 125.5 -15t96.5 -33t74.5 -33t65.5 -15v59q0 240 -336 240q-279 0 -479 -115v289
q200 104 467 104q329 0 510.5 -132t181.5 -369v-431q0 -100 117 -100zM1036 434v33q-33 0 -88 24t-125 48.5t-139 25.5q-84 0 -140.5 -41.5t-56.5 -124.5q0 -47 20.5 -80.5t56.5 -50.5t75.5 -24.5t87.5 -7.5q130 0 219.5 53t89.5 145z" />
    <glyph glyph-name="uni0431" unicode="&#x431;" horiz-adv-x="1804" 
d="M963 1231q321 0 514.5 -169t193.5 -458q0 -192 -97 -338t-269 -224.5t-394 -78.5q-191 0 -336 59t-237 170t-138 266t-46 351q0 193 40 349.5t111 265.5t173 186t221.5 117t261.5 53l653 57v-307l-633 -49q-213 -13 -333 -128.5t-140 -318.5q86 100 205 148.5t250 48.5z
M915 270q189 0 288.5 89t99.5 247q0 328 -388 328q-389 0 -389 -340q0 -144 110.5 -234t278.5 -90z" />
    <glyph glyph-name="uni0432" unicode="&#x432;" horiz-adv-x="1558" 
d="M1225 684q87 -42 143.5 -113.5t56.5 -175.5q0 -199 -143 -297t-403 -98h-695v1255h645q253 0 387 -84.5t134 -250.5q0 -76 -36.5 -136t-88.5 -100zM526 991v-217h322q164 0 164 105q0 112 -162 112h-324zM891 272q180 0 180 131q0 136 -184 136h-361v-267h365z" />
    <glyph glyph-name="uni0433" unicode="&#x433;" horiz-adv-x="1232" 
d="M184 1255h987v-299h-632v-956h-355v1255z" />
    <glyph glyph-name="uni0434" unicode="&#x434;" horiz-adv-x="1814" 
d="M1540 289h193v-627h-330v338h-989v-338h-332v627h160q69 85 107 204.5t38 256.5v505h1153v-966zM1192 289v678h-457v-217q0 -134 -29.5 -255.5t-82.5 -205.5h569z" />
    <glyph glyph-name="uni0435" unicode="&#x435;" horiz-adv-x="1619" 
d="M1487 598v-66h-1000q17 -127 121 -204.5t264 -77.5q294 0 500 112v-296q-204 -103 -498 -103q-175 0 -316.5 51t-233.5 140.5t-141.5 210.5t-49.5 262q0 300 189 482.5t499 182.5q311 0 488.5 -178t177.5 -516zM496 772h651q-14 59 -35 100t-57 75t-94.5 50.5
t-139.5 16.5q-263 0 -325 -242z" />
    <glyph glyph-name="uni0436" unicode="&#x436;" horiz-adv-x="2406" 
d="M1767 829l570 -829h-408l-416 649l-137 -114v-535h-344v535l-139 114l-416 -649h-407l569 829l-547 426h469l471 -383v383h344v-383l469 383h469z" />
    <glyph glyph-name="uni0437" unicode="&#x437;" horiz-adv-x="1443" 
d="M1102 682q96 -44 152.5 -129.5t56.5 -200.5q0 -108 -55.5 -186t-155 -121t-219 -62.5t-265.5 -19.5q-131 0 -267 28.5t-216 71.5v297q212 -110 477 -110q194 0 266 29.5t72 97.5q0 61 -24.5 92.5t-91 46t-195.5 14.5h-231v254h223q163 0 218.5 22t55.5 95q0 60 -68 82.5
t-229 22.5q-245 0 -444 -107v297q200 96 448 96q140 0 254 -19.5t205 -60.5t141 -113t50 -169q0 -74 -47.5 -142.5t-110.5 -105.5z" />
    <glyph glyph-name="uni0438" unicode="&#x438;" horiz-adv-x="1746" 
d="M999 1255h564v-1255h-355v1036l-452 -1036h-572v1255h355v-1034z" />
    <glyph glyph-name="uni0439" unicode="&#x439;" horiz-adv-x="1746" 
d="M985 1788h303q-53 -169 -157 -250.5t-275 -81.5t-274 81t-158 251h303q36 -70 129 -70q96 0 129 70zM999 1255h564v-1255h-355v1036l-452 -1036h-572v1255h355v-1034z" />
    <glyph glyph-name="uni043A" unicode="&#x43a;" horiz-adv-x="1622" 
d="M1552 0h-426l-438 647l-149 -115v-532h-355v1255h355v-389l489 389h483l-563 -426z" />
    <glyph glyph-name="uni043B" unicode="&#x43b;" horiz-adv-x="1693" 
d="M285 1255h1224v-1255h-354v956h-516v-309q0 -336 -107.5 -506t-334.5 -170q-62 0 -136 19v295q58 -13 89 -13q67 0 101 96t34 273v614z" />
    <glyph glyph-name="uni043C" unicode="&#x43c;" horiz-adv-x="2273" 
d="M1477 1255h612v-1255h-348v1036l-348 -1036h-521l-340 1036v-1036h-348v1255h611l338 -1034z" />
    <glyph glyph-name="uni043D" unicode="&#x43d;" horiz-adv-x="1708" 
d="M1169 1255h355v-1255h-355v524h-630v-524h-355v1255h355v-442h630v442z" />
    <glyph glyph-name="uni043E" unicode="&#x43e;" horiz-adv-x="1806" 
d="M1673 627q0 -194 -97.5 -345.5t-273 -235t-399.5 -83.5t-399.5 83.5t-273 235.5t-97.5 347q0 194 97.5 345t273 234.5t399.5 83.5t399.5 -83.5t273 -235t97.5 -346.5zM903 270q185 0 293.5 96t108.5 263q0 165 -108.5 260.5t-293.5 95.5t-293 -95.5t-108 -260.5
q0 -167 108 -263t293 -96z" />
    <glyph glyph-name="uni043F" unicode="&#x43f;" horiz-adv-x="1710" 
d="M1526 1255v-1255h-355v956h-632v-956h-355v1255h1342z" />
    <glyph glyph-name="uni0440" unicode="&#x440;" horiz-adv-x="1826" 
d="M975 1292q333 0 526 -177t193 -488q0 -153 -54.5 -279t-151 -209.5t-228 -129.5t-285.5 -46q-279 0 -436 170v-643h-355v1765h355v-135q159 172 436 172zM930 270q109 0 197 38.5t143 121t55 197.5q0 175 -105 266.5t-290 91.5q-188 0 -304 -94.5t-116 -263.5t116 -263
t304 -94z" />
    <glyph glyph-name="uni0441" unicode="&#x441;" horiz-adv-x="1492" 
d="M940 1292q120 0 234.5 -26.5t185.5 -67.5v-326q-72 48 -188 80.5t-232 32.5q-90 0 -166.5 -19.5t-138.5 -60t-97.5 -111t-35.5 -163.5q0 -87 37.5 -157.5t100 -114t139.5 -66.5t161 -23q241 0 420 111v-328q-82 -43 -196.5 -66.5t-223.5 -23.5q-170 0 -317.5 46.5
t-256 131.5t-171 211.5t-62.5 278.5q0 159 60 285t168 208t255 125t324 43z" />
    <glyph glyph-name="uni0442" unicode="&#x442;" horiz-adv-x="1464" 
d="M1403 1255v-299h-494v-956h-354v956h-494v299h1342z" />
    <glyph glyph-name="uni0443" unicode="&#x443;" horiz-adv-x="1665" 
d="M1229 1255h375l-783 -1765h-375l314 686h-168l-531 1079h394l403 -860z" />
    <glyph glyph-name="uni0444" unicode="&#x444;" horiz-adv-x="2414" 
d="M1692 1292q123 0 231 -47.5t187.5 -133t125 -210.5t45.5 -272t-45.5 -272.5t-124 -211.5t-185.5 -134t-228 -48q-109 0 -191 42t-123 104v-619h-352v619q-43 -62 -124.5 -104t-190.5 -42q-121 0 -228 48t-185.5 134t-124.5 211.5t-46 272.5t46 272t125 210.5t187.5 133
t231.5 47.5q106 0 186 -41.5t123 -101.5v594h352v-594q41 60 121.5 101.5t186.5 41.5zM774 266q113 0 173 30t88 107.5t28 225.5q0 147 -28 224.5t-88 106.5t-173 29q-120 0 -199 -97.5t-79 -262.5t79 -264t199 -99zM1640 266q120 0 199.5 99t79.5 264t-79.5 262.5
t-199.5 97.5q-113 0 -172.5 -29t-87.5 -106t-28 -225q0 -89 9.5 -150.5t29 -103.5t54.5 -65.5t81 -33.5t114 -10z" />
    <glyph glyph-name="uni0445" unicode="&#x445;" horiz-adv-x="1546" 
d="M1487 0h-385l-324 573l-334 -573h-385l418 694l-356 561h389l272 -446l279 446h379l-357 -565z" />
    <glyph glyph-name="uni0446" unicode="&#x446;" horiz-adv-x="1792" 
d="M1489 299h221v-637h-332v338h-1194v1255h355v-956h596v956h354v-956z" />
    <glyph glyph-name="uni0447" unicode="&#x447;" horiz-adv-x="1581" 
d="M1397 1255v-1255h-355v455q-181 -35 -350 -35q-549 0 -549 465v370h355v-360q0 -98 57.5 -142t171.5 -44q142 0 315 39v507h355z" />
    <glyph glyph-name="uni0448" unicode="&#x448;" horiz-adv-x="2443" 
d="M1905 1255h354v-1255h-2075v1255h355v-956h505v956h355v-956h506v956z" />
    <glyph glyph-name="uni0449" unicode="&#x449;" horiz-adv-x="2562" 
d="M2261 299h219v-637h-330v338h-1966v1255h355v-956h508v956h354v-956h506v956h354v-956z" />
    <glyph glyph-name="uni044A" unicode="&#x44a;" horiz-adv-x="1765" 
d="M1071 870q287 0 429 -113t142 -321t-142.5 -322t-428.5 -114h-674v967h-336v288h691v-385h319zM1071 281q59 0 103.5 13.5t75 49.5t30.5 92t-30.5 91.5t-75 49t-103.5 13.5h-319v-309h319z" />
    <glyph glyph-name="uni044B" unicode="&#x44b;" horiz-adv-x="2125" 
d="M1587 1255h355v-1255h-355v1255zM829 870q294 0 429 -111.5t135 -322.5t-135 -323.5t-429 -112.5h-645v1255h355v-385h290zM829 281q201 0 201 155q0 154 -201 154h-290v-309h290z" />
    <glyph glyph-name="uni044C" unicode="&#x44c;" horiz-adv-x="1552" 
d="M858 870q287 0 429.5 -113t142.5 -321t-142.5 -322t-429.5 -114h-674v1255h355v-385h319zM858 281q59 0 103.5 13.5t75 49.5t30.5 92t-30.5 91.5t-75 49t-103.5 13.5h-319v-309h319z" />
    <glyph glyph-name="uni044D" unicode="&#x44d;" horiz-adv-x="1476" 
d="M553 1292q376 0 583 -172.5t207 -488.5q0 -308 -214 -488t-576 -180q-110 0 -224.5 25t-195.5 69v305q177 -110 420 -110q165 0 274.5 70.5t149.5 201.5h-602v254h592q-71 226 -414 226q-118 0 -234 -32t-186 -81v305q72 41 186.5 68.5t233.5 27.5z" />
    <glyph glyph-name="uni044E" unicode="&#x44e;" horiz-adv-x="2359" 
d="M1468 1292q219 0 391.5 -83.5t269.5 -235t97 -346.5q0 -194 -97 -345.5t-269.5 -235t-391.5 -83.5q-283 0 -479 154t-233 407h-217v-524h-355v1255h355v-442h229q62 219 251.5 349t448.5 130zM1468 270q178 0 284 96.5t106 262.5q0 165 -106 260.5t-284 95.5
q-155 0 -262.5 -97.5t-107.5 -258.5q0 -108 52 -191t135.5 -125.5t182.5 -42.5z" />
    <glyph glyph-name="uni044F" unicode="&#x44f;" horiz-adv-x="1562" 
d="M733 1255h645v-1255h-354v434h-291l-274 -434h-400l342 498q-109 46 -177 138.5t-68 215.5q0 201 147 302t430 101zM1024 688v295h-297q-59 0 -103.5 -12.5t-75 -46.5t-30.5 -88q0 -148 211 -148h295z" />
    <glyph glyph-name="uni0451" unicode="&#x451;" horiz-adv-x="1619" 
d="M1319 1642q0 -74 -51.5 -126t-124.5 -52q-74 0 -127 52.5t-53 125.5t53 125t127 52q73 0 124.5 -51.5t51.5 -125.5zM717 1642q0 -74 -52.5 -126t-125.5 -52q-74 0 -126.5 52.5t-52.5 125.5t52.5 125t126.5 52t126 -52t52 -125zM1487 598v-66h-1000q17 -127 121 -204.5
t264 -77.5q294 0 500 112v-296q-204 -103 -498 -103q-175 0 -316.5 51t-233.5 140.5t-141.5 210.5t-49.5 262q0 300 189 482.5t499 182.5q311 0 488.5 -178t177.5 -516zM496 772h651q-14 59 -35 100t-57 75t-94.5 50.5t-139.5 16.5q-263 0 -325 -242z" />
    <glyph glyph-name="uni0452" unicode="&#x452;" horiz-adv-x="1865" 
d="M1090 1157q266 0 428.5 -134.5t162.5 -358.5v-125q0 -484 -130 -701t-427 -217q-69 0 -127 14v283q62 -12 103 -12q57 0 96.5 27.5t70 95.5t45.5 192.5t15 310.5v84q0 114 -54.5 174t-189.5 60q-205 0 -300 -75t-95 -249v-526h-354v1374h-273v236h273v190h354v-190h608
v-236h-608v-391q67 87 176.5 130.5t225.5 43.5z" />
    <glyph glyph-name="uni0453" unicode="&#x453;" horiz-adv-x="1232" 
d="M1180 1798l-381 -334h-389l333 334h437zM184 1255h987v-299h-632v-956h-355v1255z" />
    <glyph glyph-name="uni0454" unicode="&#x454;" horiz-adv-x="1499" 
d="M133 631q0 314 215 487.5t598 173.5q119 0 233.5 -27.5t186.5 -68.5v-305q-72 48 -187.5 80.5t-232.5 32.5q-174 0 -286 -56t-148 -170h639v-254h-649q35 -130 152.5 -201t291.5 -71q243 0 420 110v-307q-81 -43 -196 -67.5t-224 -24.5q-245 0 -428.5 80t-284 231.5
t-100.5 356.5z" />
    <glyph glyph-name="uni0455" unicode="&#x455;" horiz-adv-x="1441" 
d="M807 778q186 -55 262 -91q186 -89 227 -243q13 -48 13 -104q0 -377 -639 -377q-168 0 -307 35t-220 74v297q130 -65 254 -94t273 -29q136 0 206 20t70 74q0 57 -70 93t-251 83q-53 14 -94 27t-92.5 34t-90.5 43.5t-78 54.5t-64 69t-40.5 85.5t-15.5 104.5q0 96 54 168
t144.5 112t193 59t216.5 19q136 0 271 -28t220 -74v-295q-109 61 -225 88t-262 27q-119 0 -184.5 -20t-65.5 -56q0 -41 62.5 -73.5t232.5 -82.5z" />
    <glyph glyph-name="uni0456" unicode="&#x456;" horiz-adv-x="743" 
d="M195 0v1255h354v-1255h-354zM571 1663q0 -83 -58 -141t-140 -58q-83 0 -142 58t-59 141t59 141t142 58q82 0 140 -58t58 -141z" />
    <glyph glyph-name="uni0457" unicode="&#x457;" horiz-adv-x="743" 
d="M195 0v1255h354v-1255h-354zM852 1642q0 -74 -51.5 -126t-124.5 -52q-74 0 -127 52.5t-53 125.5t53 125t127 52q73 0 124.5 -51.5t51.5 -125.5zM250 1642q0 -74 -52 -126t-126 -52t-126 52t-52 126q0 73 52 125t126 52t126 -52t52 -125z" />
    <glyph glyph-name="uni0458" unicode="&#x458;" horiz-adv-x="993" 
d="M821 1663q0 -83 -58 -141t-140 -58q-83 0 -141 58t-58 141t58 141t141 58q82 0 140 -58t58 -141zM123 1255h676v-1165q0 -155 -32 -270t-103 -199t-189 -126t-285 -42q-42 0 -95 6.5t-79 14.5v307q78 -21 170 -21q62 0 107 14.5t80 50t53 99.5t18 158v874h-321v299z" />
    <glyph glyph-name="uni0459" unicode="&#x459;" horiz-adv-x="2473" 
d="M1780 870q287 0 429 -113t142 -321t-142.5 -322t-428.5 -114h-645v956h-496v-309q0 -334 -107.5 -504t-334.5 -170q-70 0 -136 17v295q49 -11 89 -11q67 0 101 95t34 272v614h1204v-385h291zM1780 281q59 0 103.5 13.5t75 49.5t30.5 92t-30.5 91.5t-75 49t-103.5 13.5
h-291v-309h291z" />
    <glyph glyph-name="uni045A" unicode="&#x45a;" horiz-adv-x="2490" 
d="M1796 870q287 0 429 -113t142 -321t-142.5 -322t-428.5 -114h-645v590h-612v-590h-355v1255h355v-385h612v385h354v-385h291zM1796 281q59 0 103.5 13.5t75 49.5t30.5 92t-30.5 91.5t-75 49t-103.5 13.5h-291v-309h291z" />
    <glyph glyph-name="uni045B" unicode="&#x45b;" horiz-adv-x="1865" 
d="M1090 1155q268 0 429.5 -134t161.5 -359v-662h-354v616q0 114 -54.5 173t-189.5 59q-205 0 -300 -74.5t-95 -249.5v-524h-354v1374h-273v236h273v190h354v-190h608v-236h-608v-393q66 87 176.5 130.5t225.5 43.5z" />
    <glyph glyph-name="uni045C" unicode="&#x45c;" horiz-adv-x="1622" 
d="M1311 1823l-381 -334h-389l333 334h437zM1552 0h-426l-438 647l-149 -115v-532h-355v1255h355v-389l489 389h483l-563 -426z" />
    <glyph glyph-name="uni045E" unicode="&#x45e;" horiz-adv-x="1665" 
d="M987 1788h303q-53 -169 -157 -250.5t-275 -81.5t-274 81t-158 251h303q36 -70 129 -70q96 0 129 70zM1229 1255h375l-783 -1765h-375l314 686h-168l-531 1079h394l403 -860z" />
    <glyph glyph-name="uni045F" unicode="&#x45f;" horiz-adv-x="1708" 
d="M1169 1255h355v-1255h-504v-336h-332v336h-504v1255h355v-956h630v956z" />
    <glyph glyph-name="uni0490" unicode="&#x490;" horiz-adv-x="1419" 
d="M1014 1864h344v-650h-785v-1214h-368v1532h809v332z" />
    <glyph glyph-name="uni0491" unicode="&#x491;" horiz-adv-x="1232" 
d="M872 1532h299v-576h-632v-956h-355v1255h688v277z" />
    <glyph glyph-name="figuredash" unicode="&#x2012;" horiz-adv-x="1947" 
d="M143 901h1661v-256h-1661v256z" />
    <glyph glyph-name="endash" unicode="&#x2013;" horiz-adv-x="1947" 
d="M143 901h1661v-256h-1661v256z" />
    <glyph glyph-name="emdash" unicode="&#x2014;" horiz-adv-x="2535" 
d="M143 901h2249v-256h-2249v256z" />
    <glyph glyph-name="quoteleft" unicode="&#x2018;" horiz-adv-x="729" 
d="M82 1071l315 498h250l-248 -498h-317z" />
    <glyph glyph-name="quoteright" unicode="&#x2019;" horiz-adv-x="729" 
d="M647 1569l-315 -498h-250l248 498h317z" />
    <glyph glyph-name="quotesinglbase" unicode="&#x201a;" horiz-adv-x="729" 
d="M647 311l-315 -497h-250l248 497h317z" />
    <glyph glyph-name="quotedblleft" unicode="&#x201c;" horiz-adv-x="1261" 
d="M82 1071l315 498h250l-248 -498h-317zM614 1071l316 498h250l-248 -498h-318z" />
    <glyph glyph-name="quotedblright" unicode="&#x201d;" horiz-adv-x="1261" 
d="M1180 1569l-316 -498h-250l248 498h318zM647 1569l-315 -498h-250l248 498h317z" />
    <glyph glyph-name="quotedblbase" unicode="&#x201e;" horiz-adv-x="1261" 
d="M1180 311l-316 -497h-250l248 497h318zM647 311l-315 -497h-250l248 497h317z" />
    <glyph glyph-name="bullet" unicode="&#x2022;" horiz-adv-x="944" 
d="M473 1083q131 0 224.5 -92.5t93.5 -224.5t-93.5 -226t-224.5 -94q-132 0 -225.5 94t-93.5 226t93.5 224.5t225.5 92.5z" />
    <glyph glyph-name="ellipsis" unicode="&#x2026;" horiz-adv-x="2021" 
d="M551 176q0 -88 -62 -150.5t-151 -62.5q-88 0 -151.5 62.5t-63.5 150.5q0 89 63.5 151t151.5 62q89 0 151 -62t62 -151zM1225 176q0 -88 -62 -150.5t-151 -62.5q-88 0 -151.5 62.5t-63.5 150.5q0 89 63.5 151t151.5 62q89 0 151 -62t62 -151zM1898 176q0 -88 -61.5 -150.5
t-150.5 -62.5q-88 0 -152 63t-64 150q0 89 64 151t152 62q89 0 150.5 -62t61.5 -151z" />
    <glyph glyph-name="perthousand" unicode="&#x2030;" horiz-adv-x="3284" 
d="M2728 776q194 0 309 -118t115 -289t-115 -288.5t-309 -117.5q-193 0 -307.5 117.5t-114.5 288.5q0 111 49 202.5t146.5 148t226.5 56.5zM2728 166q92 1 142 58.5t50 144.5t-50 144.5t-142 57.5q-91 0 -141 -57t-50 -145q0 -87 49.5 -144.5t141.5 -58.5zM1509 1532h281
l-993 -1532h-283zM979 1161q0 -171 -115 -289t-309 -118q-129 0 -226.5 56.5t-146.5 148t-49 202.5q0 82 29 156t82 130t133.5 89t177.5 33q194 0 309 -118.5t115 -289.5zM365 1161q0 -87 50 -145t140 -58q92 0 142.5 58t50.5 145t-50.5 145t-142.5 58q-90 0 -140 -58
t-50 -145zM1749 776q194 0 309 -118t115 -289t-115 -288.5t-309 -117.5q-193 0 -307.5 117.5t-114.5 288.5q0 111 49 202.5t146.5 148t226.5 56.5zM1749 166q92 1 142.5 58.5t50.5 144.5t-50.5 144.5t-142.5 57.5q-91 0 -140.5 -57t-49.5 -145t49 -145t141 -58z" />
    <glyph glyph-name="guilsinglleft" unicode="&#x2039;" horiz-adv-x="819" 
d="M336 766l330 -289v-360l-512 452v396l512 452v-360z" />
    <glyph glyph-name="guilsinglright" unicode="&#x203a;" horiz-adv-x="819" 
d="M154 477l329 289l-329 291v360l512 -452v-396l-512 -452v360z" />
    <glyph glyph-name="zerosuperior" unicode="&#x2070;" horiz-adv-x="1005" 
d="M504 1569q162 0 265 -111.5t103 -286.5t-102.5 -286t-265.5 -111t-267 111t-104 286t104 286.5t267 111.5zM504 977q64 0 100.5 52t36.5 142q0 91 -36.5 143t-100.5 52q-65 0 -102 -52t-37 -143q0 -89 37.5 -141.5t101.5 -52.5z" />
    <glyph glyph-name="Euro" unicode="&#x20ac;" horiz-adv-x="1550" 
d="M1006 1569q224 0 411 -84v-334q-159 115 -409 115q-112 0 -206.5 -51.5t-139.5 -153.5h532v-230h-590q-13 -58 0 -120h590v-230h-535q44 -92 144 -153.5t205 -61.5q121 0 217.5 20t191.5 72v-321q-155 -74 -409 -74q-168 0 -319 64.5t-259.5 183t-148.5 270.5h-220v230
h181q-6 60 0 120h-181v230h220q68 233 268.5 370.5t456.5 137.5z" />
    <glyph glyph-name="rub" unicode="&#x20bd;" horiz-adv-x="1703" 
d="M956 606h-315v-164h690v-245h-690v-197h-369v197h-211v245h211v164h-211v266h211v660h682q617 0 617 -483q0 -103 -28.5 -179.5t-79 -126.5t-128.5 -81t-169.5 -43.5t-209.5 -12.5zM641 1235v-363h313q120 0 184 39t64 138q0 101 -66 143.5t-186 42.5h-309z" />
    <glyph glyph-name="uni2116" unicode="&#x2116;" horiz-adv-x="3086" 
d="M2091 567h858v-231h-858v231zM1475 205v1327h362v-1532h-627l-643 1325v-1325h-362v1532h629zM2521 756q-194 0 -309 117t-115 288t115 289.5t309 118.5q97 0 177.5 -33t133.5 -89t82 -130t29 -156q0 -171 -114.5 -288t-307.5 -117zM2521 1364q-91 0 -141.5 -57.5
t-50.5 -145.5q0 -87 50 -143.5t142 -56.5q90 0 140.5 56.5t50.5 143.5t-50.5 145t-140.5 58z" />
    <glyph glyph-name="trademark" unicode="&#x2122;" horiz-adv-x="2072" 
d="M102 1333v199h676v-199h-227v-534h-221v534h-228zM1608 1532h362v-733h-213v555l-196 -555h-273l-192 555v-555h-213v733h362l180 -555z" />
    <glyph glyph-name="minus" unicode="&#x2212;" horiz-adv-x="1128" 
d="M143 901h842v-270h-842v270z" />
    <glyph glyph-name="notequal" unicode="&#x2260;" horiz-adv-x="1277" 
d="M1124 903h-278l-115 -227h393v-270h-528l-98 -193h-299l96 193h-141v270h278l113 227h-391v271h528l96 192h301l-98 -192h143v-271z" />
    </font>
</defs>
</svg>
