<?xml version="1.0" encoding="UTF-8"?>
<svg version="1.1" viewBox="0 0 3233.5 1080" xmlns="http://www.w3.org/2000/svg">
 <defs>
  <style>.cls-1,.cls-33,.cls-34{fill:#ede9df;}.cls-2,.cls-4{fill:#c9e2c0;}.cls-3{fill:#6da56a;}.cls-11,.cls-16,.cls-33,.cls-34,.cls-36,.cls-4{stroke:#000;}.cls-20,.cls-21,.cls-22,.cls-24,.cls-25,.cls-26,.cls-27,.cls-28,.cls-31,.cls-33,.cls-34,.cls-35,.cls-36,.cls-37,.cls-4,.cls-6{stroke-miterlimit:10;}.cls-34,.cls-4,.cls-6{stroke-width:1.5px;}.cls-5{fill:#539350;}.cls-11,.cls-16,.cls-20,.cls-21,.cls-24,.cls-25,.cls-26,.cls-27,.cls-28,.cls-31,.cls-35,.cls-36,.cls-37,.cls-6{fill:none;}.cls-24,.cls-31,.cls-35,.cls-6{stroke:#231f20;}.cls-11,.cls-16,.cls-20,.cls-21,.cls-24,.cls-31,.cls-35,.cls-36,.cls-6{stroke-linecap:round;}.cls-7{fill:#e2ac6a;}.cls-8{fill:#c49057;}.cls-9{fill:#f9d4bb;}.cls-10{fill:#e2b2a1;}.cls-11,.cls-16{stroke-linejoin:round;}.cls-12{fill:#211f20;}.cls-13{fill:#c4491e;}.cls-14{fill:#fa5100;}.cls-15{fill:#d6d0cc;}.cls-16,.cls-21,.cls-31{stroke-width:2px;}.cls-17{fill:#eceae0;}.cls-18{fill:#d19a82;}.cls-19{fill:#b77b67;}.cls-20,.cls-21,.cls-22,.cls-37{stroke:#211f20;}.cls-21{stroke-dasharray:12;}.cls-22{stroke-width:0.25px;}.cls-23{fill:#e95c1f;}.cls-25,.cls-26,.cls-27,.cls-28{stroke:#427f3e;stroke-width:10px;}.cls-25{opacity:0.9;}.cls-26{opacity:0.8;}.cls-27{opacity:0.7;}.cls-29{fill:#b2765b;}.cls-30{fill:#d49675;}.cls-32{fill:#231f20;}.cls-35{stroke-width:0.75px;}</style>
 </defs>
 <title>open_script_15.07</title>
 <g data-name="Layer 25">
  <rect class="cls-1" x="-7.51" width="1080" height="1080"/>
  <rect class="cls-1" x="1072.5" width="1080" height="1080"/>
  <rect class="cls-1" x="2151" width="1080" height="1080"/>
 </g>
 <g data-name="01">
  <path class="cls-2" d="M1396.46,392.09C1219,348,1130.05,297.82,1099,302.89c-37.2,6.08-160,94.44-323.38,168.87-1.5.68-419.91-305.76-432.23-303.24C293.82,178.65-3.6,334.89-29,348.24V500.53c65.18-25.88,168.55-62.09,190.66-62.9,42.76-1.56,164.66,131.71,314.87,168C588,632.47,790.22,562.64,1033.08,561c101-.67,525.64,37.35,561.29,70.66l13.76-309C1384.38,401.57,1396.46,392.09,1396.46,392.09Z"/>
  <path class="cls-2" d="m1594.4 631.68-0.39 8.9c3.68-2.9 3.62-5.88 0.39-8.9z"/>
  <path class="cls-2" d="M1817.16,105.37c-7.94-12.33-15.8-23.6-24.74-35.87-1.16-2.06.67-4.36-.49-6.43C1777.12,39.39,1759.4,17,1746.59-6.82c-8.11-14.48-17.21-28.89-29.14-40.93-1.16-2.07.68-4.36-.48-6.43L1296-32.35c-3.43,1-6.87,2-10.33,2.89-14.72,4.34-26.2,11.67-40.92,16-3,.22-6.06-.62-8,.6-13.56,6.4-24.88,15.87-38.44,22.28C1156.6,28.7,1111,44.45,1072.49,81c-17.85,16.91-53.79,26.76-59.49,44.43-7.45,21-16.6,43.15-38,52.42S961.63,193.72,997.92,213c-4.67,4.66-23,14.65-25.88,15.95-12.8,3.11-24.93,1.86-34.71-8.18-23-26.3-22.69-73.86-56.4-82.11,0,0-41,12.88-52.93,14.85-13.88,2.11-20.89,15.57-32.46,21.83-4.74,3.59-2.11,12-2.7,17.44-.84,2.22-4.67,4.66-5.5,6.88-6.06,26.32-30.26,37.83-48.18,26.24-58.89-36.54-93.3-94.32-141.11-143.55C589.51,75.47,582,68.49,572.59,63.8c-16.76-9.52-33-12.61-51-24.2C511,31.77,497.82,29.53,485.38,24c-4.15-1.84-6.55-7-10.54-6.76-7.24-1.54-9.3-69.5-16.27-71.41L319-26.52C382.43,237.24,562,96.71,594.83,145.07c33.49,49.32,50.29,168.62,198.26,184.46,173.83,18.62,192.16-96.95,347-117.5,78.58-10.44,122.11,78.91,201.25,85.15,104.71,8.26,180.16-53.78,239.8-76.06,21.2-7.92,81.45-10.41,89.5-9.93l3.24,3c3-.23,5.9-1.52,9-.67a73.32,73.32,0,0,0,8.31,2.58C1765,245,1931.3,236,1965.39,89.13,1925.43,49.11,1822.9,114.46,1817.16,105.37Z"/>
  <path class="cls-3" d="M1118.13-2.91c-9.25,10.4-18.66,18.65-28,28-15.91,15.2-31.9,29.33-48.8,44.61-1.84,2.29-5.74,3.66-10.65,5.1-33.5,7.9-67.09,14.73-100,3.18-27.89-10.84-59.37-16-89-10.58-7.9,1.67-12.16,11.69-19,14.36a54.14,54.14,0,0,1-31.91,2.39C734.45,67.41,685.68,36.31,635,1.91L392.76-22.28c7,1.91,74.84,38,82.08,39.51,4-.29,6.39,4.92,10.54,6.76,12.44,5.54,25.65,7.78,36.26,15.61,17.92,11.59,34.19,14.68,51,24.2,9.38,4.69,16.92,11.67,25.46,18.58,47.81,49.23,69.57,153.32,138.28,160.71,46.89,5,97.34-93.62,127.65-91.17,34.43,2.78,52.48,40.58,73.35,68.88,27.9,37.82,55.92-3.11,60.59-7.77,10.33-9.4,61.45-159.6,201.77-166.54,26.55-47.25-43.09-17.79-1.41-37.07,13.56-6.41,24.88-15.88,38.44-22.28,1.92-1.22,5-.38,8-.6,14.72-4.33,26.2-11.66,40.92-16,3.46-.9,6.9-1.88,10.33-2.89l-112.47,5.83q-6.88,1.31-13.78,2.51C1149.84-21.45,1130.89-20,1118.13-2.91Z"/>
  <path class="cls-2" d="m1115.5 1047c-0.38-4.38 2.25-5.13 7.12-3.21-13.8-17.61-26.76-36.2-40.12-55.79-29-44-90-71-132-36-36 30-23 81-37 121a56.42 56.42 0 0 1-10.09 16.56l213.51-0.1c0.01-14.15-0.24-28.31-1.42-42.46z"/>
  <path class="cls-3" d="M451.49,1070c-105-19-200-50-304-57-57.6-3.54-114.42-7.87-171.84-3.93C-26.7,1036-29.37,1063-31,1090l733.73-.33C618.54,1087,536.86,1086.31,451.49,1070Z"/>
  <path class="cls-2" d="m1354.7 965.12c-67.67-16.09-144.36 10.09-185.5-63.77-10.8-19.4-68.08-79.61-96.74-99-48.61-32.93-98.45-47.08-162.76 1-125.14 93.62-168 28.07-278.55 87.52-42.9 23.13-114.82 100.74-209.6 106.77-170.33 10.84-321.3-36.8-441.14-73.18-0.22 28.26-2.33 56.43-4.79 84.61 57.42-3.94 114.24 0.39 171.84 3.93 104 7 199 38 304 57 85.37 16.31 167 17 251.23 19.65h89.48a187.85 187.85 0 0 0 39.29-8.61 187.85 187.85 0 0 1-39.29 8.61h111.2a56.42 56.42 0 0 0 10.09-16.65c14-40 1-91 37-121 42-35 103-8 132 36 13.36 19.59 26.32 38.18 40.12 55.79 11.36 4.49 34.93 23.57 61.06 45.44 3.94-0.08 7.88-0.14 11.82-0.23q216.91-5.49 433.83-0.92c51-10.51 87.07-20.51 87.36-29.29 0-5-217.76-59.4-361.95-93.67z"/>
  <path class="cls-4" d="M2721.34,1108.39c62.49-.18,124.79-.6,184-1.15,12.82-2.92,328.38,3,341.34-.23L3255,688.83s-415.25,8-436.87-15.28c-19.41-20.9,67.82-47.84,36.35-70.13-29.68-21-178.51-14.51-212.08-33.89-13.09-7.55,50.13-27.33,46-42.81-4.29-16.22-65.9-21.42-118.56-27.67-41.28-4.91,155.83-30.18,62.78-49.84-139.91-29.57-132.83,50.7-138.68,53.8-25.84,13.68,116.68,9.5,116.68,29.15,0,11.53-44.14,31.44-43.25,46.77,2.16,37.14,161.13,29.47,165.91,50.76,12.44,55.4-176.51,33.38-178.26,67.14-4.58,88.62,223.82,49.65,277.67,55.94,147.19,17.18,249.75,39.34,317.9,68.28,80.38,34.13,63.22,125-8.38,142.26C3043.89,987,2877.7,996,2721.34,985.94"/>
  <path class="cls-2" d="M2721.34,985.94c-37.83-2.44-75.07-6-110.64-10.73-353.52-47-415-327.05-684.79-62.73-97.69,95.71-252.85,146.4-384.52,174.75q42.81.69,85.6,1.77c38.81.81,78.93,2.28,116.66,13.39,32.58-3.1,64.75-4.39,97.34-4.39,33,0,65,4,98,3q101.37-4.21,202.62-5.3l26.09-.77,3.93.5q237.38-1.58,474.07,13.06h10.74c-20-6.47-38.54-15.58-54.45-31.49,15.91,15.91,34.44,25,54.45,31.49,21.57,0,43.25,0,64.9-.1"/>
  <g data-name="Layer 19">
   <path class="cls-5" d="m1082.5 988c-29-44-90-71-132-36-36 30-23 81-37 121a57.37 57.37 0 0 1-10.86 17.44c87 0.22 174.06 0.63 260.9-0.82-31.34-30.24-55.46-64.11-81.04-101.62z"/>
   <path class="cls-3" d="m1281.5 1043.7c-26.89-18.41-90.79-14.54-117.14-29.26-25.26-14.1-69.61-87.56-71.6-90.89-49.7-82.9-134.35-41.18-185.91 10-20.64 20.48-57.32 62.78-79.35 83.29-46 42.85-278.32 82.69-390 68.69l-3.05-0.38c12.48 2.55 26.83 6.23 37.88 11 15.05-1.14 30.1-3 45.15-4.12a561 561 0 0 1 58 0c27 2 55 1 82 0 81.57-1.82 163.35-1.78 245.14-1.56a57.37 57.37 0 0 0 10.88-17.5c14-40 1-91 37-121 42-35 103-8 132 36 25.58 37.51 49.7 71.38 81 101.62q16-0.27 32-0.62 66-1.66 131.9-2.4c-16.94-18.32-34.94-35.37-45.9-42.87z"/>
   <path class="cls-3" d="m2385.3 1020.5c-31.19-25.94-42.74-73.57-141-123.1-36.52-18.42-154.89 22.27-169.92 50.3-7.49 14 52.48 14.75 50.76 32.55-2 33 33.49-1.79 35.49 31.21 0 0.48 66.78-9.48 79.78 10.27 14.91 23.57 24.3 48.32 30.1 73.72q198.38 1.56 396.3 14.31c-20.75-14.18-42-28.42-63.81-41.55-88.18-53.09-154.37 4.97-217.7-47.71z"/>
   <path class="cls-3" d="m2533.5-5.21c-6.59 4.56-13.4 9.05-20.47 14.21-31 21-54 60-97 43-32-11-56 28-84 42-51 25-78-47-99-87a81.93 81.93 0 0 0-13-18.38c-69.49-1.22-128.77-1.71-164.31-0.26-7.31 22.34-16.16 46.29-26.21 58.77-4 6-13 10-21 8-15-4-24-17-38-20-36-7-53 35-79 51-70.18 41.1-131.31-37.39-170.3-93.42q-48.39-0.88-96.78-2.35c-11.8 4.85-24.93 8.27-37.1 7.83-2.54 20.41-8.55 38.89-27.22 51.22-40.43 26.95-84-5.55-128.42-14.27-15.06-3.17-29.33 0-42.81 6.34-20.43 8.76-44.48-23.54-69.44-60.73-73.81-1.06-147.4 1-220.94 3.88-3.27 17.28-31-7.57-39 8.29 10.44 88.06 72.15 40 140.32 53.6 20.74 4.15 36 50.87 49.23 66.85 25.45 30.74 68.82 67.15 138.66 79 54.79 9.33 143.34-7.53 175.46-61 5.65-9.41 20.65-49.3 25.78-55.71 10.67-13.35 69.57 59.6 135.85 104.82 81.11 55.33 149.34-26.15 149.34-26.15s82 16.22 137.2-33c21.82-19.45 47.82-55.7 83.8-66 39.94-11.4 65.82 95 146.75 113.16 71.77 16.1 139.35-42.26 169.87-66.88 54.41-43.96 101.27-92.61 183.46-86.34 18 1.37 94.25 61 147.34 55.73 29.89-3 61.26-21.11 86.48-38.71 10.77-7.52 55.29-2.42 64.8 0.71 33.07 10.87 98.26-34.42-15-36.34 40.13 0.68-268.14-0.84-345.34-1.87z"/>
   <path class="cls-5" d="m2332 94c28-14 52-53 84-42 43 17 66-22 97-43 7-5.16 13.84-9.65 20.43-14.21-99.86-1.33-216.6-4.47-313.5-6.17a81.93 81.93 0 0 1 13.07 18.38c21 40 48 112 99 87z"/>
   <path class="cls-5" d="m1588.8 3c12.17 0.45 25.3-3 37.11-7.83q-18.11-0.53-36.2-1.11c-0.25 3.04-0.55 6.03-0.91 8.94z"/>
   <path class="cls-5" d="M1722.7-2.44,1723-2c39,56,100,134,170,93,26-16,43-58,79-51,14,3,23,16,38,20,8,2,17-2,21-8a233.23,233.23,0,0,0,34.79-59.11Q1980.53-3.54,1895-2C1837.59-1.06,1780.15-1.39,1722.7-2.44Z"/>
   <path class="cls-5" d="m1175.4-13.08c26.28 13.48 55.45 22.59 68.6 37.7 19.63 22.55 21.11 94.88 65.24 100.24 48.19 5.86 87.25-39.65 130.81-60 14.55-7.47 30-11.2 46.22-7.47 47.93 10.27 81.56 52.27 138.66 16.8 35.46-22 27.34-52.73 43.19-77.83-108.36-2.74-216.72-7.42-325.12-10.36-55.95-1.3-111.81-0.64-167.6 0.92z"/>
   <path class="cls-3" d="M2138.1,1020c7.36-2.87,14.9-5.68,22.52-8.5-2.6-34.07-.14-72.56-1.58-106.72-24.43,7.66-71,21.88-93.34,43-11.51,10.86-17.63,20.78-42.09,72.13-11.9,25-54.92-5.06-136.5,2.19-49.53,4.4-98.46,51.35-123,78.61,25.62-1.87,51.11-2.67,76.86-2.67,33,0,65,4,98,3q63.06-2.62,126.06-4c.34-1.33.68-2.65,1-4C2076.1,1057,2105.1,1033,2138.1,1020Z"/>
   <path class="cls-5" d="m2276.3 1076.8c-13-19.75-14.78-59.57-65.27-84.8-121.63-60.78-185.39 67.77-215.13 106.9q148.47-4.89 296.66-3.2a89.49 89.49 0 0 1-16.26-18.9z"/>
  </g>
  <path class="cls-5" d="M753.86,120.62c72.1,7.15,74.22-18.09,94.26-34.47,17.7-14.48,42.87-21.93,68.1-5.1,56.56,37.74,95.84,55.07,122.36,21.65,14.41-18.13,35.65-62.44,51.56-77.64,9.33-9.32,18.74-17.57,28-28C1130.89-20,1149.84-21.45,1169.7-24q6.9-1.2,13.78-2.51L635,1.91C685.68,36.31,713.62,116.63,753.86,120.62Z"/>
  <path class="cls-2" d="m1790.6 296.39c-5.5 1.52 6.1 300.39 6.1 300.39s220.2-112.78 322.35-144.68c122.95-38.4 299.21-21.59 299.21-21.59s89.39 74 211.41 46.46c147.51-33.32 201-129.29 285-170.61 184.69-90.78 366.38 10.64 366.38 10.64l-8.57-57.86s-240-35.66-357.78-20c-147.06 19.57-221.71 113.56-364.17 133.4-104.49 14.55-299.89-58.3-409.33-84.3-77.64-18.45-199.54-33.57-350.6 8.15z"/>
 </g>
 <g data-name="02">
  <path class="cls-6" d="m560 1115.9c24 5.1 45.63-2.19 67.12-14s41.1-35.32 57.94-53.16c58-61.43 107.33-136.05 184.16-171.14 47.37-21.64 100.93-25.86 153-23.6"/>
  <path class="cls-6" d="m569.77 1097.4c24.36 3.19 49.31-7.27 67-24.37s27.1-34.85 33.08-58.68c4.32-17.2 3-43.06 1.74-57.82"/>
  <path class="cls-6" d="M683.54,961.28c2.34,29.06-.5,56.55-7.81,80.54,17.8-14.77,35.1-35.7,44.84-56.15"/>
  <path class="cls-6" d="m818.48 909.36c29.48-7.9 63.29 2.49 84.88 24.06"/>
  <path class="cls-6" d="m-17.8 1037.9a191.31 191.31 0 0 1 43.15 28.81c6.28-30.23 38.09-51.53 68.92-49.73s58.43 23.91 71 52.09c29.7-29.8 79.1-27.31 118.76-13.27s76.43 37.46 118 43.76"/>
  <path class="cls-6" d="m-33.37 351.16c109.94-49.81 340.58-183.57 374.14-180.64 58.74 5.12 403.35 306.69 498.15 330.12 113.61 28.08 166.81 12.06 262.36-16 124.58-36.63 504.18-159.89 504.18-159.89"/>
  <path class="cls-6" d="M775.66,471.76C953,382.69,1077.7,302.89,1099,302.89c40,0,171.5,61.11,297.42,89.2"/>
  <path class="cls-6" d="M496.36,85.42a15.2,15.2,0,0,0-15.86,5.86,4.2,4.2,0,0,0-.94,3.53c.71,2.15,3.74,2.18,5.92,1.56,5.37-1.52,11-5.25,11.38-10.82"/>
  <path class="cls-6" d="M505.43,97.39a15.2,15.2,0,0,0-13,10.82,4.16,4.16,0,0,0,.29,3.64c1.39,1.79,4.26.8,6.1-.5,4.56-3.23,8.6-8.62,7.11-14"/>
  <path class="cls-6" d="M529.76,114.92a15.22,15.22,0,0,0-6.48,15.62,4.2,4.2,0,0,0,2,3.09c2.06.94,4.14-1.27,5.17-3.29,2.54-5,3.61-11.62-.21-15.69"/>
  <path class="cls-6" d="M323.48,1055.66a18.41,18.41,0,0,1-.2-9.06,8.53,8.53,0,0,1,2.44-4.63,4.15,4.15,0,0,1,4.92-.53,5.57,5.57,0,0,1,1.88,4,19.39,19.39,0,0,1-1.35,9.87c-.76,1.79-1.93,3.58-3.77,4.21s-4.31-.58-4.28-2.52"/>
  <path class="cls-6" d="M335,1062.87c-.28-3.14-.54-6.43.75-9.3s4.7-5,7.61-3.87c2.51,1,3.64,4.1,3.28,6.78s-1.87,5-3.34,7.32c-1.11,1.73-2.41,3.59-4.4,4.1s-4.51-1.44-3.67-3.31"/>
  <path class="cls-6" d="M607.31,1048.06a35.57,35.57,0,0,0-4.63-12.63c-1.28-2.12-3.22-4.33-5.7-4.19-2.78.16-4.51,3.28-4.58,6.06-.16,5.64,4.09,10.52,8.86,13.52,1.43.91,3.16,1.72,4.76,1.15s2.42-5.46.86-6.09"/>
  <path class="cls-6" d="M594.36,1060.4c-2-5.85-8.2-11.81-14.06-13.81a1.89,1.89,0,0,0-.78-.1c-5.07.48-4.52,5.24-2.82,8.24a19.61,19.61,0,0,0,11.71,9.14c1.84.51,4,.66,5.45-.61s.43-3.2-.37-4.92"/>
  <path class="cls-6" d="M726.1,975.74c5.58-2.53,8.21-4.92,11.12-10.31a7,7,0,0,0,1.08-3.64c-.19-3.13-4.18-4.86-7.16-3.89s-5,3.64-6.75,6.27c-1.32,2-2.59,4.25-2.56,6.66s1.85,5,4.27,4.91"/>
  <path class="cls-6" d="M906.49,948l-.21,11c-.07,3.28.62,7.55,3.85,8.14a4.48,4.48,0,0,0,4.37-2.18,8.92,8.92,0,0,0,1.14-5,18.32,18.32,0,0,0-3.81-10.81c-1.19-1.52-3.15-3-4.91-2.16"/>
  <path class="cls-6" d="M983.9,868.3a15.64,15.64,0,0,0-6.92,14c.16,2.07,1,4.4,3,5a5,5,0,0,0,4.37-1.14c3.34-2.58,4.72-6.94,5.57-11.08.41-2,.71-4.24-.29-6.05s-3.84-2.64-5.14-1"/>
  <path class="cls-6" d="M999.27,869.59a25,25,0,0,0-3.69,15c.16,2.21.79,4.71,4.69,4.33,6.26-3.29,6.18-10.82,4.46-16.86a5,5,0,0,0-1.24-2.44,1.86,1.86,0,0,0-2.5-.11"/>
  <path class="cls-6" d="M1024.25,866.56c-1,3.05.13,6.5,2.18,9a24,24,0,0,0,7.75,5.65,6.85,6.85,0,0,0,3.54,1c2.22-.17,3.8-2.53,3.77-4.76a9.64,9.64,0,0,0-2.76-5.94,15.51,15.51,0,0,0-14.48-5"/>
  <path class="cls-6" d="m1035.3 851.72a72.07 72.07 0 0 0 15-5.53 5.36 5.36 0 0 0 1.82-1.28 3.77 3.77 0 0 0 0.29-3.71c-1.18-2.93-4.64-4.47-7.78-4.2s-6 2-8.43 4c-1.77 1.45-3.47 3.23-3.85 5.48s1.2 4.93 3.48 4.88"/>
  <path class="cls-6" d="m2170.8 844.32c6.06 24.89 22.32 46.13 42.21 61.8 22.11 17.42 48.76 27.74 75.88 34.4 30.26 7.44 61.34 11 92.13 15.48 31 4.5 62 9.9 92.39 17.81 29.15 7.59 57.74 17.64 84.51 31.54q4.82 2.49 9.53 5.15"/>
  <path class="cls-6" d="m2241.7 996.88a208.67 208.67 0 0 0 116.5-43.33"/>
  <path class="cls-6" d="M2300.8,1005.23c-.78,4.08-1.52,8.52,0,12.34s6.39,6,8.71,2.86c1.3-1.74,1.32-4.35,1-6.68-.38-3.2-1.29-6.57-3.48-8.55s-5.93-1.68-7.07,1.22"/>
  <path class="cls-6" d="M2420.14,943.21a20,20,0,0,1-3.31-9.62c-.16-2.15.58-4.93,2.73-5.15,1.54-.15,2.8,1.2,3.61,2.51a18.76,18.76,0,0,1,2.71,11c-.11,1.62-.59,3.43-2,4.17s-2.92-.87-3.71-3"/>
  <path class="cls-6" d="M2432,945.89a21.47,21.47,0,0,1-2.27-12.35,6.18,6.18,0,0,1,1.51-3.81c2.15-2.1,6.09-.58,7.44,2.1s.91,5.88.42,8.85c-.28,1.72-.62,3.56-1.81,4.84s-4.22,1.76-5.29.37"/>
  <path class="cls-6" d="M2473.45,959.42a24.86,24.86,0,0,1-7-8.53c-1.18-2.87-.27-6.84,2.65-7.9,2.38-.86,5.11.58,6.55,2.68s1.86,4.69,2.26,7.2c.28,1.71.54,3.55-.21,5.12s-2.95,2.53-4.28,1.43"/>
  <path class="cls-6" d="M2182.29,844.38a32.06,32.06,0,0,1-3.34-9.94,5.76,5.76,0,0,1,.46-4.14c1.21-1.84,4.1-1.86,5.88-.56s2.64,3.51,3.2,5.64a31.35,31.35,0,0,1,1,6c.13,2.08-.07,4.44-1.66,5.8s-3.62.77-5-1.94"/>
  <path class="cls-6" d="m1603.6 81c6.91 31.06 5.84 63.26 4.92 95.06-2.65 92.77-3.81 240.68-3 333.48"/>
  <path class="cls-6" d="m1791.5 214.25c-1.76 143.66-3.49 287.76 8.81 430.58 2.51 29.06 5.68 58.47 14.84 85.3s25.14 51.16 46.72 61.63"/>
  <path class="cls-6" d="m1438 248c31.35-10.59 66.69-7.23 96.62 6.88s54.52 38.44 71.2 67"/>
  <path class="cls-6" d="m1442.8 235.45a122.56 122.56 0 0 1 47.28-6.71c-24.36-27.18-30.75-69.08-15.61-102.29"/>
  <path class="cls-6" d="m1479.4 194.39c9.55 17.65 20.89 34 40.27 41.52 10.24 4 20.9 6.55 31 11s20 9.88 29.78 15.27c9.22 5.08 18.49 10.5 26 17.94"/>
  <path class="cls-6" d="M1429.36,235.08a33.58,33.58,0,0,0-11.78-10.47c-1.56-.83-3.42-1.55-5.06-.87a4.27,4.27,0,0,0-2.35,4.15,8.64,8.64,0,0,0,1.91,4.63,18.54,18.54,0,0,0,11.52,7.19c2.06.38,4.46.28,5.9-1.24s.73-4.75-1.37-4.8"/>
  <path class="cls-6" d="m1478.2 163a29.62 29.62 0 0 0 13.58-7.45 3.79 3.79 0 0 0 1.25-1.86c0.42-2-2.23-3.32-4.31-3.33-3.94 0-7.7 1.7-10.92 4-1.76 1.24-3.55 2.93-3.61 5.09s2.8 4.13 4.32 2.6"/>
  <path class="cls-6" d="M1476.26,175.58c3.24,3.93,8.82,5,13.91,4.9,1.69,0,3.59-.32,4.58-1.69s.53-3.66-.75-4.95a9.78,9.78,0,0,0-4.87-2.28,39.67,39.67,0,0,0-7.19-1c-1.88-.1-4,.06-5.19,1.54s.17,4.38,1.93,3.71"/>
  <path class="cls-6" d="M1478.07,119.55a24.81,24.81,0,0,0,9.48-11.5c.7-1.75,1.13-4-.14-5.35-1.09-1.21-3-1.24-4.56-.87-6.28,1.5-10.52,8.75-8.76,15,.36,1.24,1.45,2.66,2.63,2.15"/>
  <path class="cls-6" d="m1874 146.75a105.17 105.17 0 0 1-136.8 40.88c-12.58-6.16-23.78-14.76-34.71-23.52q-21-16.81-41.09-34.69c-38.4-34.2-77.4-72.86-127.84-82.92a152.36 152.36 0 0 0-48.08-1.35 187.17 187.17 0 0 0-164.17 173.74"/>
  <path class="cls-6" d="m1145.9 252.56c50.47-4.46 96.62-31.06 135.4-63.66a450.71 450.71 0 0 0 40.83-38.9 208.55 208.55 0 0 0-8.69 81"/>
  <path class="cls-6" d="m1191.9 233.09c33-15.13 62-36.13 89-62.13 17-18 34-33 51-52 16-17 33-32 50-48 7-6 14-11 21-17 13-11 27-19 40.65-26.57"/>
  <path class="cls-6" d="M1177.24,225.62a14.44,14.44,0,0,0-4.62-11c-2.15-2-5.84-3.11-7.8-1s-.36,5.89,1.79,8a22.26,22.26,0,0,0,6.61,4.54c1.73.78,4.62.62,4.55-1.28"/>
  <path class="cls-6" d="m1282.9 268.79c-5.71 3.63-6.39 9.34-5.55 15.18a4 4 0 0 0 1.8 2.89 3.21 3.21 0 0 0 4-0.74 10.38 10.38 0 0 0 2.77-8.25 24.15 24.15 0 0 0-2.66-8.53"/>
  <path class="cls-6" d="M1291.35,272.92c-1.4,4.83.19,9.29,2.43,13.79a5.21,5.21,0,0,0,1.55,2.06c1.7,1.21,4.28.27,5.38-1.5a8.13,8.13,0,0,0,.57-6.08,17.69,17.69,0,0,0-5.64-9.31,3.48,3.48,0,0,0-2.37-1.08c-.89.07-1.31.48-1.92,2.12"/>
  <path class="cls-6" d="m1320.1 284.47a20.73 20.73 0 0 0 2.07 15.72c1.19 1.87 3 3.75 5.23 3.48s3.53-2.63 3.48-4.79-1.14-4.15-2.23-6c-2-3.4-4.32-7-8-8.39"/>
  <path class="cls-6" d="M1871.26,161.71a29.56,29.56,0,0,0,9.91,16.95c1.16,1,2.6,1.92,4.09,1.63,3.08-.61,2.93-5.1,1.89-8.07-1.31-3.72-2.89-7.54-5.91-10.07s-7.84-3.3-10.79-.69"/>
  <path class="cls-6" d="M1888.21,151.9a13.44,13.44,0,0,0,13,8.78,3.4,3.4,0,0,0,2.92-1.31c.59-1,.1-2.36-.51-3.39a17,17,0,0,0-10.86-7.87c-1.76-.38-4.25.06-4.34,1.86"/>
  <path class="cls-6" d="M2047.84,112.74c-2.85,4-.12,9.41,2.75,13.35a10,10,0,0,0,3.52,3.41c1.5.71,3.56.5,4.45-.9a4.67,4.67,0,0,0,.3-3.38,19.36,19.36,0,0,0-8.55-12.44"/>
  <path class="cls-6" d="m1626 1062.8c41.29 22.92 93.1 15.9 137-1.42s83.76-44 128-60.56 96.58-21.79 136.66 3.18c-3.59-21.08 5.09-43.18 20.07-58.44s35.61-24.14 56.69-27.75c23-3.94 47.35-1.82 68.67 7.77s39.42 26.9 48.31 48.52"/>
  <path class="cls-6" d="m1615 1044.4a24.15 24.15 0 0 0-5.78-20.53 5.54 5.54 0 0 0-2.2-1.65 4.07 4.07 0 0 0-4.52 2 8.75 8.75 0 0 0-0.82 5.21 21.7 21.7 0 0 0 6 13c1.89 1.93 4.56 3.58 7.16 2.84"/>
  <path class="cls-6" d="M1600.76,1047a31.29,31.29,0,0,0-10.59-12.09c-1.52-1-3.36-1.93-5.12-1.42-3.06.89-3.42,5.17-2.41,8.19a20.07,20.07,0,0,0,8.34,10.6c2.22,1.39,5,2.34,7.44,1.49s4.09-4.16,2.51-6.24"/>
  <path class="cls-6" d="m1764 1023.3c-1.08 6.9 5.24 12.76 11.14 16.56 1.62 1 3.73 2.06 5.27 1a4.23 4.23 0 0 0 1.46-2.83 15.91 15.91 0 0 0-7.48-16.11c-3.37-1.93-8.47-1.92-10 1.6"/>
  <path class="cls-6" d="m1606.8 933.67v10"/>
  <path class="cls-6" d="m1616.8 928.3a25.33 25.33 0 0 0-1.88 12.69"/>
  <path class="cls-6" d="m1624.7 935.63a26.05 26.05 0 0 0-0.7 13.4"/>
  <path class="cls-6" d="m1158.2 873.64a32.1 32.1 0 0 0 7.36 11.26"/>
  <path class="cls-6" d="m1183.6 868.28 3.81 10.73"/>
  <path class="cls-6" d="m1194.2 871.65a13.61 13.61 0 0 1 2 8"/>
  <path class="cls-6" d="m1750.9 837.55a108.57 108.57 0 0 1-6.4 13.15"/>
  <path class="cls-6" d="m1761.9 839.41a36 36 0 0 1-5.77 8.18"/>
  <path class="cls-6" d="m1767.5 839v8.67"/>
  <path class="cls-6" d="M1773,838.27a12.39,12.39,0,0,1,.33,8.67"/>
  <path class="cls-6" d="m1814.6 838.26a47.06 47.06 0 0 1-5.22 10.66"/>
  <path class="cls-6" d="m1466.9 829 3.12 7.42"/>
  <path class="cls-6" d="m1477.7 821 1.86 11.35"/>
  <path class="cls-6" d="m1484.2 821.67a30.93 30.93 0 0 0 1.25 10.69"/>
  <path class="cls-6" d="m2569.9 1012.4a202.35 202.35 0 0 1 72.55 89.61"/>
  <path class="cls-6" d="m2550.5 1016a128.19 128.19 0 0 1 56.54 86"/>
  <path class="cls-6" d="M-85.23,526.72S112.4,437.85,159,439.63c63.22,2.42,149.13,122,238,139.58,53.84,10.64,90.32,2.37,90.32,2.37"/>
  <path class="cls-6" d="m3395 283c9-2.54-424.81-92.68-592.28-15.58-65.45 30.14-158.57 87.43-252.24 105.11-96.53 18.22-288.82-58-384.87-79.26-215.69-47.74-375.1 3.1-375.1 3.1"/>
  <path class="cls-6" d="m2430.5 107.91a19.3 19.3 0 0 0 3.54 11.59c1.22 1.7 3.09 3.34 5.14 3s3.16-2.39 3.62-4.33c1.6-6.86-3.88-14.5-10.9-15.17-1.8 1.08-1.8 1.08-1.41 5"/>
  <path class="cls-6" d="M2442.3,90.58a16.82,16.82,0,0,0,7.66,7.26c1.65.77,3.77,1.2,5.16,0s1.37-3.17.88-4.83c-1.73-5.89-9.15-9.32-14.75-6.82-.9,1.59-.9,1.59,1.05,4.35"/>
 </g>
 <path class="cls-7" d="m727.59 361.31c4.67-44-8.64-58.26-32.47-64.93-5.56-1.56-20.16 1.74-25.79 0.52-4.23-0.92-7.69-6.49-14.26-10.66l-4 110.53s68.31 41.92 76.52-35.46z"/>
 <polygon class="cls-7" points="655.07 286.24 589.32 291.53 588.5 357.72 700.63 399.39"/>
 <path class="cls-7" d="M551.29,215c3.39-5.11,17.9-4.13,23.52,7.21,2.36,4.77-2.07,16.28.27,21.06,2.6,5.32,15.2,7.71,20.14,10.55,13.8,7.95,14.33,26.06,20.86,31,9.64,7.23,18.89-5.16,39,1.46-31.13,6.28-40.22,41.13-48.14,67.46-1.15,3,1.66,7.84,5.93,10.88a12.26,12.26,0,0,0,4.21,6.51c7.15,5.64,13.33-.61,13.33-.61l-1.1,18s-2.74-4-5.31-4.26c-4.28-.46-10.41,5-16.07,5.25-10.06.49-9-9-12.25-10.54-7.78-3.65-19.47-3.35-30.59-16-12-13.63.63-36.12-3.29-46.84-2.73-7.46-10-15.52-11.48-23.29-3.93-20.78,9.84-41.56,9.93-51.92C560.33,230.78,546,223,551.29,215Z"/>
 <path class="cls-8" d="M551.29,215c3.39-5.11,17.9-4.13,23.52,7.21,2.36,4.77-1.65,19.58,3,21.88,19.93,9.87,17.42,9.73,17.42,9.73-36.46,29.7-20,123.36,52.42,101.07,8.2-2.52,17.05,30.78,17.05,30.78s-23.33,20.61-29.12,19.54-8-10.49-10.55-10.77c-4.29-.46-10.42,5-16.07,5.25-10.07.5-11.46-12.05-15.1-16.24C588,376.7,576.2,375.59,565.08,363c-12-13.63.63-36.12-3.29-46.84-2.73-7.46-10-15.52-11.48-23.29-3.93-20.78,9.84-41.56,9.93-51.92C560.33,230.78,546,223,551.29,215Z"/>
 <path class="cls-9" d="m691.93 414.57-2.36 0.61 2.36-0.61c1.22-5.86 3-12.14 3-12.14s12.91 0.13 15.92-2.83c5.08-5 5.74-11.87 4.25-23-0.22-1.65 4.63-4.78 4.4-6.3-0.49-3.18-6.58-7.28-6.89-9.37-1.16-7.89-7.17-35.05-7.17-35.05l-39.45-4.7s-21.77 46.12-14.44 63.16c7.85 18.27 19.73 12.5 19.73 12.5-1.71 3.55-6.84 20.24-5.38 28.69 5.3 8.9 16.8 1.88 25.1-1.38-0.6-1.15 0-5.25 0.93-9.58z"/>
 <path class="cls-10" d="m672.81 395.92v0.32c0.56 0.53 0.19-0.03 0-0.32z"/>
 <path class="cls-10" d="m672.85 396.24v-0.32c-0.21-0.22-0.32-0.29 0 0.32z"/>
 <path class="cls-10" d="m709 340.71c-1.54-7.56-3-14.44-3-14.44l-39.45-4.7s-18.6 44.6-15 62.78c4 20 21.35 11.89 21.35 11.89-0.32-0.61-0.21-0.54 0-0.32-1.64-13-5.22-1-6.4-11.58 2.3-3.5 15.47-2.5 15-8.8-2.82-33.31 11.05-27.96 27.5-34.83z"/>
 <path class="cls-11" d="M704.47,381s.72,5.59,9,2.27"/>
 <ellipse transform="translate(-85.99 317.57) rotate(-23.98)" cx="704.65" cy="361.24" rx="1.71" ry="1.86"/>
 <path class="cls-11" d="m703.42 351.68s-4.72-2.76-6.7 6.41"/>
 <path class="cls-10" d="m695.25 402.64s-0.07 0.05-0.12 0.17c0.27 0 0.33-0.05 0.12-0.17z"/>
 <path class="cls-10" d="m689.57 415.18c0.88-0.24 1.76-0.46 2.64-0.68 1.08-4.52 2.47-10.61 2.92-11.69-2 0-16.17-3.29-16.17-3.29 4.41 9.48 6.26 19.05 12 19.8 0.24-0.65 0.71-2.53 1.26-4.82-0.89 0.22-1.77 0.44-2.65 0.68z"/>
 <path class="cls-11" d="M662.2,381.43a10.22,10.22,0,0,1,4.21,2.91s-1.19,1.89.19,3.31c2.45,2.51,4.63.88,4.63.88"/>
 <path class="cls-11" d="M657.92,386.22a11.21,11.21,0,0,1,.49-2.51c.65-1.16,2.69-2,3.79-2.28"/>
 <path class="cls-11" d="M662,388.37s-2.86-4.82.47-6.71"/>
 <path class="cls-8" d="m642.42 385.57c-2-28.26-33.94-46.24 3.66-79.66 8.59-4.85 23.76-5.31 28.3-4.81 21.61 2.4 25.16 17.49 25.16 17.49s10.81-4.2 14.28-1.62 4.18 18.16 4.18 18.16l-8.12 1.59s4.28 5.91 4.49 8.37c0.23 2.65-2.55 13.08-2.77 10.16-0.73-9.48-6.67-17.56-6.67-17.56l-19.1 6.09-6.77-6.3s-5.27 7.69-4.77 13.77c0.36 4.42 0.78 13.9 0.33 18.28-1.33 12.77-22.29 13.16-22.29 13.16s-1.26 6.36 5.63 13.1c-11.52 0-15.54-6.89-15.54-10.22z"/>
 <path class="cls-12" d="m641.31 514.94s16.61-6.05 12.79-14.59c-1.15-2.56-15.56-36.27-15-33.53 6.98 35.87 2.21 48.12 2.21 48.12z"/>
 <path class="cls-12" d="M690.62,414.91c-.92,2.55-3.19,8.27-5.32,9.14-4.56,1.86-18.91-5.61-18.91-5.61s-15.7,2.19-22.1,4.95c-8.77,6.22-10.48,9.78-10.15,20.61.43,14,8.84,38.33,8.84,62.72l3.1-13.05,3.52-.41q2.17,3.58,4.5,7.09l5.65-19,13.45-4.07a231.4,231.4,0,0,0-3.47-32.39,231.4,231.4,0,0,1,3.47,32.39l52.22-15.79,1.35-20.6,16.12-13s19.34-8.17,19.39-11.52c.05-3.51-11-26.55-11.07-26.8C724.82,402.81,713.08,409,690.62,414.91Z"/>
 <path class="cls-13" d="m679.65 445.72s-6.07-13.24-8.26-17.45c-1.38-2.65-8-7.86-11.14-8.85-2.63-0.83-17.27 4.63-17.27 4.63a82.18 82.18 0 0 1 9 21.13 117.9 117.9 0 0 1 3.56 36 149.49 149.49 0 0 1-2.79 17.07c5.76 8.94 12.13 17.54 18.73 25.93 2.59-25.44 18.09-44.7 8.17-78.46z"/>
 <path class="cls-13" d="M726.77,673.37C710.32,658,705.47,640.94,690.09,623c-20-26-25.36-48.15-21.36-77.15q1.59-10.83,2.72-21.67c-6.6-8.39-13-17-18.73-25.93C649.67,513,643,510.2,643,510.2s-17.67,50.39-22.14,61.64c-12.05,30.37-29.43,127.35-29.43,127.35l59.38,6.66,12-27,3.39,28.56,62.24-9.29Z"/>
 <path class="cls-14" d="M725.42,461.45s.18-18.56-4.63-28.53c-2.26-4.69-8.4-15.81-13.64-21.54-4.33.74-8.63,1.6-12.9,2.62,2.21,2.15,6.46,6.47,7.47,8.69a94.62,94.62,0,0,1,6.34,21.61l-27.43,5.78c4,24.78-6.56,48.66-9.18,74.1,6.94,8.84,14.13,17.45,21.12,26-7-8.55-14.18-17.16-21.12-26q-1.11,10.83-2.72,21.67c-4,29-1.68,54.31,18.32,80.31,15.37,17.94,21.92,27.69,39.72,47.21l-9.49-145.51Z"/>
 <path class="cls-10" d="m760.69 381.74-12.38 10.39 11.42-8.47-11.42 8.47c0.19 0.18 5.88 9.1 7.68 12.11s4.91 12.51 4.91 12.51 8.35-7.1 15-12.95c-3.21-8.96-7.9-17.22-15.21-22.06z"/>
 <path class="cls-9" d="M836.37,286.17s-3.58,3.23-3.49,5.26c.12,2.76,2.5,7.25.66,9.3-1.36,1.51-3,2.79-3.51.82-1.53-6.47-.49-23.13-.49-23.13s-4.83-5.62-7.06-6.53C818,270.06,811.64,275.17,811,282c-.41,4.06,1.42,15.68,1.42,15.68-2.62.06-4.27-16-7-13.86S806,302,806,302l6,18.82-50.75,60.53-.49.41c7.3,4.84,12,13.1,15.25,22.07a144.05,144.05,0,0,0,10.88-10.24C800,378.62,832.1,327.8,832.1,327.8s1.37-2.74,3.09-6.55c-1-1.69-.27-4.31,2-4.57,2.46-5.87,4.89-12.58,4.83-16.17C841.92,294.86,836.37,286.17,836.37,286.17Z"/>
 <path class="cls-10" d="M635,704.52l-43.83-7L580.8,746c14-12,29.55-22.4,47.52-25.54Z"/>
 <path class="cls-9" d="M580.8,746,557,857.46l9.6,5.54,12.74-8.21,4.56-5.85s25.22-44.82,29.38-61.3c2.14-8.52,1.65-35.11,1.65-35.11l13.39-32C610.35,723.63,594.84,734,580.8,746Z"/>
 <path class="cls-10" d="M713.83,717.68l-.11-17.37-37.14,5.54,3.1,37s-.12.65-.31,1.76A130.87,130.87,0,0,1,713.83,717.68Z"/>
 <path class="cls-9" d="M679.37,744.61c-1.14,6.4-4.94,28.59-4.6,36.88.81,20.15,16.62,78.94,16.62,78.94l13.86,6.2,9.47-9.11-.89-139.84A130.87,130.87,0,0,0,679.37,744.61Z"/>
 <path class="cls-1" d="M680,814.33c15.31,6,34.74-5,34.74-5l-.2,46L700.22,863s-7.8-10.22-9.71-9.42Z"/>
 <path class="cls-15" d="m680 814.33c5.74 2.27 17.72 1.08 17.72 1.08-10.63 14.59 2.5 47.59 2.5 47.59s-8.85-9.5-10.76-8.53z"/>
 <path class="cls-11" d="M713.87,700.82c0,29.2.3,56.51.39,84.53.11,32.81-4.27,66,6.53,97"/>
 <path class="cls-12" d="m690.58 852.89c2.64-0.85 5 4.69 7.6 5.71 3.18 1.25 16.33-4.81 16.33-4.81s15.77 19.75 23.23 23.24c4.41 2.07 15.3 1.08 19 4.26 2.58 2.23 4 11.9 4 11.9l-76.41 0.19c-2.84 0-4.11-2.82-3.4-5.58 1.51-5.79 4.41-13.16 6.52-16.16 2.7-3.9-1.39-17.29 3.13-18.75z"/>
 <path class="cls-15" d="M602.21,814c-16.06,2.76-33.31-12.3-33.31-12.3L558,852.22l14.49,5.28s9.66-8.38,11.34-7.21Z"/>
 <path class="cls-12" d="m581.75 850.17c-2.75-0.93-5.29 4.9-8 6-3.33 1.29-17.52-6.3-17.52-6.3s-16.13 21.74-24 25.35c-4.62 2.14-16 1-19.85 4.3-2.72 2.33-4.28 12.53-4.28 12.53l79.7 1c3 0 4.33-2.94 3.61-5.85-1.41-6.2-4.41-14-6.57-17.2-2.84-4.14 1.61-18.24-3.09-19.83z"/>
 <path class="cls-11" d="M593.16,697.6Q614,701.31,635,704l-17.82,41.35"/>
 <path class="cls-11" d="M838.58,313.67c3.4-6.06,4.52-13.79,1.38-18.9-.72-3.08-.26-8.06-3.34-7.34-6.68.59-1.45,9.11-2.43,13.24l-3.41,2.09c-2.48-7.86-1.89-16.45-1.24-24.34"/>
 <path class="cls-11" d="M823.09,296.14c-.75-6.56-.9-16.18,2.63-21.76"/>
 <path class="cls-11" d="m818.64 296.33c-2.93-7.59-1.62-19.63 1.06-24.81"/>
 <path class="cls-11" d="m812.37 297.63c-1.1-6.88-1.91-9-1.52-14.57a19.46 19.46 0 0 1 3.07-8"/>
 <path class="cls-11" d="M804.78,284.52c-1.76,5.58.34,11.69,1.55,17.42,1.14,5.37,3.43,12.1,4.85,17.4a3.52,3.52,0,0,1,.18,1.57,3.09,3.09,0,0,1-.59,1.19C803,332.33,794,342.47,786.46,351"/>
 <path class="cls-11" d="m456.61 596a20.25 20.25 0 0 1 9-5.76 60.84 60.84 0 0 1 10.56-2.24"/>
 <path class="cls-11" d="M452.82,585.56c.81-1.7,2.79-2.46,4.6-3a62.12,62.12,0,0,1,17-2.34"/>
 <path class="cls-11" d="M452.54,580.25c5-3.61,13.36-6,19.49-6.47l4.54-.33"/>
 <path class="cls-3" d="m720.83 355.49c1.1-5.5-2.54-13.81-8.25-14.28l1.24 19.85 0.91 0.05c2.03-1.52 5.03-3.38 6.1-5.62z"/>
 <path class="cls-5" d="m755.44 334.8-42.87 6.39c14.08 7.65 4.18 18.38 2.15 19.9l44.28 2.46c0.44-9.64 1-20.48-3.56-28.75z"/>
 <path class="cls-12" d="M759.45,334.84c0-.21,0-.42-.05-.63l-4,.59c3.35,8.77,3.38,19.08,2.91,28.72l3.26.18A75.53,75.53,0,0,0,759.45,334.84Z"/>
 <path class="cls-5" d="M766.58,333.14l-7.18,1.07c0,.21,0,.42.05.63a75.53,75.53,0,0,1,2.16,28.86l6.9.38S776.94,348,766.58,333.14Z"/>
 <path class="cls-12" d="M711.49,357.49c0,1,3.86.34,3.86.34,4.36-5.06-.64-10.22-.64-10.22l-4.43,1.21,1.21,8.67"/>
 <path class="cls-5" d="m728.79 363.92c1.21-5.51-2.67-13.8-8.83-14.25l1.24 19.85 1 0.05c2.18-1.57 5.43-3.4 6.59-5.65z"/>
 <path class="cls-3" d="m766.23 343.05-46.23 6.6c15.15 7.59 4.42 18.37 2.22 19.9l47.71 2.22c0.52-9.62 1.12-20.47-3.7-28.72z"/>
 <path class="cls-12" d="M770.56,343.07q0-.3-.06-.63l-4.27.61c3.56,8.76,3.55,19.07,3,28.71l3.51.17A70,70,0,0,0,770.56,343.07Z"/>
 <path class="cls-3" d="m778.25 341.33-7.75 1.11q0 0.33 0.06 0.63a70 70 0 0 1 2.17 28.86l7.45 0.34s9.17-16.1-1.93-30.94z"/>
 <path class="cls-12" d="M709,357.49l13.27-3.42s5.37,5.14.64,10.22l-13.55-1.05Z"/>
 <path class="cls-10" d="M709.84,431.5A151.37,151.37,0,0,1,682.93,428c-9.61-2.11.49,22.34,1.79,32.22,7-.4,16.61-.41,26.28-.56A85.63,85.63,0,0,0,709.84,431.5Z"/>
 <path class="cls-9" d="M726.29,429.61a16.8,16.8,0,0,1-5.83,1.75,83.41,83.41,0,0,1-10.62.14A85.63,85.63,0,0,1,711,459.61c10.46-.15,21-.47,28.51-1.62l3.87-.77c3.63-.72,7.23-5.6,9.62-8.26C739.68,448,730.87,440.67,726.29,429.61Z"/>
 <path class="cls-9" d="m766.19 340.28-4.67 14.14s-3.73-10-6.41-12.14-13.54-3.66-13.54-3.66l-9.57 3.38s4.88 7.64 5.69 10.52c0.56 2 0.74 6.47 0.78 10v4.81l-10.13 2.39s2.4 5.88 4.07 7c2.2 1.51 10.55 1.71 10.55 1.71l-16.6 51.16c-1.46 3.64-6 1.18-9.32 3 5 10.88 13.78 20.91 27.13 21.36 1.54-1.85 8.25-2.65 8.9-5l9.14-55.59 4.36-23.31 5.43-28.26a3 3 0 0 0-5.81-1.51z"/>
 <path class="cls-12" d="m636.13 433.39c8.66-24 58.31-5.06 58.31-5.06v32l-49.44-0.84c-6.13-0.11-8.79-6.36-8.65-12.49 0.19-7.66-1.01-11.42-0.22-13.61z"/>
 <path class="cls-11" d="M746.4,360.25s-.6-9.4-2.92-13.29c-1.11-1.87-8-6.18-8-6.18"/>
 <path class="cls-11" d="m755 356.57s-2.66-9.56-5-12.07c-1.69-1.83-8.51-5.88-8.51-5.88"/>
 <path class="cls-11" d="M727.78,425l15.11-46.58-5.62-.91a10.54,10.54,0,0,1-7.43-5.13l-1.57-2.71"/>
 <path class="cls-5" d="m629.47 547.91c2.58 8.2 9.23 13.94 17 14.69 0 0 20.88 2.78 27.87 2.67 7.71-0.12 30.63-3.9 30.63-3.9v17.49l-22.72 23.51c-9.72 10-44.15 11.07-53.92 7.55-11.12-4-14.23-19.4-14.23-40.65v-4.22c-0.01-9.46 6.9-17.14 15.37-17.14z"/>
 <polygon class="cls-12" points="704.96 561.37 718.65 554.1 719.46 569.37 704.96 578.86"/>
 <path class="cls-16" d="m624.72 550.64 2.69 18.77c3.55 20.14 29.44 19 39.27 15.24 8.46-3.24 30.66-20.56 30.66-20.56"/>
 <polygon class="cls-12" points="617.4 554.1 635.34 531.53 629.71 548.61"/>
 <path class="cls-6" d="M1103.29,43.87c19.32,37.08-25.54,71.45-29.45,73.9-17.14,10.72-36.45,19-56.74,19.94-8.27.39-17-.36-24.47,3.06-5.16,2.35-9.25,6.46-13.1,10.58-14,15-26.61,31.6-43.18,43.84-32,23.61-77.63,27.72-113.41,10.2"/>
 <path class="cls-6" d="m1050.6 129.78a57.17 57.17 0 0 0-9.28 88.19"/>
 <path class="cls-6" d="M984.08,165.37a15.63,15.63,0,0,1,16.43,5,4.09,4.09,0,0,1,1.14,3.47c-.59,2.19-3.67,2.38-5.92,1.88-5.54-1.22-11.43-4.64-12.15-10.17"/>
 <path class="cls-6" d="M975.54,177.81a15.44,15.44,0,0,1,13.79,10.1,4.1,4.1,0,0,1-.1,3.65c-1.3,1.87-4.27,1-6.22-.17-4.81-3-9.2-8.13-8-13.59"/>
 <path class="cls-6" d="M951.82,196.65a15.13,15.13,0,0,1,7.44,15.24,4.13,4.13,0,0,1-1.81,3.19c-2,1.06-4.27-1-5.42-3-2.86-4.83-4.31-11.41-.67-15.69"/>
 <path class="cls-6" d="M881.7,314.56a31.12,31.12,0,0,1,5.38-1.94,12.71,12.71,0,0,1,5.64-.41,5.86,5.86,0,0,1,4.35,3.32,3.87,3.87,0,0,1-1.72,4.86,6,6,0,0,1-4.22-.23,47.25,47.25,0,0,1-7.49-3.14c-.95-.49-2-1.53-1.45-2.43"/>
 <path class="cls-6" d="M877.2,322.38a12.1,12.1,0,0,1,10.69,5.17,3.69,3.69,0,0,1,.79,2.88,2.86,2.86,0,0,1-2.92,1.86A7.17,7.17,0,0,1,882.3,331a34.61,34.61,0,0,1-4.52-3.3,4.46,4.46,0,0,1-1.89-2.92c0-1.19.4-3.08,1.37-2.38"/>
 <path class="cls-6" d="M811.72,62.75a12.19,12.19,0,0,0-13.4,5.82,3.36,3.36,0,0,0-.52,2.23c.25,1.22,1.56,1.9,2.76,2.21a12.3,12.3,0,0,0,9.21-1.28c2.51-1.48,4.52-4.82,2.87-7.22"/>
 <path class="cls-6" d="M811.65,208.59a15.39,15.39,0,0,0-10.28,7.34c-.92,1.61-1.48,3.82-.23,5.2,1,1.14,2.81,1.14,4.32.87,2.89-.53,5.79-1.87,7.37-4.33s1.35-6.2-1-7.91"/>
 <path class="cls-6" d="M832.74,83.94a11.7,11.7,0,0,0-1.38,11c1.12,2.81,4.09,5.32,7,4.37a5.39,5.39,0,0,0,3.31-4.79,12.86,12.86,0,0,0-1.34-6c-.8-1.87-1.81-3.78-3.57-4.78s-4.43-.63-5.23,1.23"/>
 <path class="cls-6" d="m884.4 215.37s-49 29.27-40 75c5.39 27.45 21.69 31.56 21.69 31.56"/>
 <path class="cls-14" d="m410.69 384.68c0 21.12-14.7 38.47-33.47 40.35-1.12 0.11-128 17.74-129.09 17.74-20.37 0-36.87-18.14-36.87-40.52s16.5-40.51 36.87-40.51c1.73 0 129.14-17.44 130.82-17.19 17.93 2.74 31.74 19.66 31.74 40.13z"/>
 <path class="cls-13" d="M279.51,406s-66.33-16.64-63.35,86.12c.7,23.85,2.81,76.38,20.18,91.7,15,13.24,78.57,21.77,78.57,21.77L319,449.92Z"/>
 <path class="cls-12" d="M305.23,574.48l106.14,2.87,32.78,114.13a35.08,35.08,0,0,1,1.2,12.65c-.53,6-1.29,14.94-1.72,20.52L433.46,856.78l-30.83,2.16s-13.68-17.35-15.8-24.37c-6.61-21.91-1.67-93-1.67-93l-24.73-79.85L322,857l-29.56,2.35s-11.43-17.9-12.72-24.85C268.27,773.08,305.23,574.48,305.23,574.48Z"/>
 <path class="cls-15" d="m420.87 401.36c-11.65-9.36-54.87-11.15-54.87-11.15l-10.43 15.87-38.57-13.25s-23.18 6-35.34 12c-9.21 8.44-13.36 20.38-15 33.29 14.77-0.29 29.14 7.11 36.42 21.12 36.74-5.12 72.64-13.34 108.89-11.23-0.34-10.32 10.47-16.5 19.9-17.53 1.92-0.25 24.78 34.26 26.68 34.12 0.02 0.04-30.7-57.66-37.68-63.24z"/>
 <path class="cls-7" d="m414.91 484.86s32.88 46.28 41.43 50.11 46.33-1.45 41.39-8c-13.66-18.19-51.83-85.4-51.83-85.4-8.19 9.46-23.21 20.44-29.25 30.63"/>
 <path class="cls-7" d="m414.46 474.87-1.24 1c-34.93-6.19-69.68 1.13-105.22 4.23-1.9 0-4.15 4.14-6 4.32-1.37 19.6-2.94 39.21-6 58.81l3.79 34.77 104.18 0.4 10.55-74.73"/>
 <path class="cls-17" d="M439.2,429.59c-1.9.13-5.39.68-7.31.93-9.43,1-20.24,7.21-19.9,17.53-33.77-2-65.54-.28-99.43,4.1q-3.72.48-7.49,1c-7.28-14-23.62-15.29-38.39-15-1.23,9.94-1,20.44-.32,30.37,17.21-9.27,27.2-6.27,34.64-.31,5,3.1,11,13.37,11,13.37,35.55-3.06,66.25-11.91,101.18-5.68,9.47-8,26.73-18.24,38.08-24.71Z"/>
 <polygon class="cls-18" points="295.52 882.68 292.44 859.39 322 857.04 322.29 886.54"/>
 <polygon class="cls-18" points="404.86 880.77 402.63 858.94 433.46 856.78 432.26 879.65"/>
 <polygon class="cls-12" points="295.52 882.68 321.33 881.05 333.24 921.8 327.44 933.46 284.4 933.42 278.76 924.36"/>
 <path class="cls-12" d="m404.86 880.77 27.4-1.12 19.28 20.28 33.86 11.86 1.38 3.5c1.83 4.64-2.08 9.88-7.2 9.67l-49.37-2.09-38.81-2.07v-13.47z"/>
 <path class="cls-12" d="m367.5 395.69s15 14.69 18.83 20.55c5.08 7.82 11.21 25.83 13.81 34.89 4.66 16.24 12.37 66.79 12.37 66.79l9.07-25.39-1.58-35.44s-5.94-26.18-12.93-40.46c-7.08-14.45-21.67-26.53-21.67-26.53a5.37 5.37 0 0 0-4.65-3.06l-10.38 0.15c-4.76-0.19-6.82 3.4-2.87 8.5z"/>
 <path class="cls-19" d="m419.92 335.39 5.87-29-31.61-16.05-27.62 21.9c17.75 2.76 43.44 10.37 53.36 23.15z"/>
 <path class="cls-18" d="m336 359.43c-5 14.41-17 33.77-17 33.77l29.91 15a7.66 7.66 0 0 0 9.68-2.84l6.63-10.08s6.39-11 7.7-16.57c-12.06-8.47 14.98-62.62-36.92-19.28z"/>
 <path class="cls-18" d="m394 387.09c9.78-4.33 17-15.18 19.25-23.94l6.8-29.38c-9.95-12.77-35.74-18.77-53.5-21.48l-19.85 15.71c-3.8 4.15-6.32 12.26-3.45 18.83 0.07 2.29 13.22 8 13.22 8-0.16 11.59 9 34 9 34 6.9 3.24 21.85 1.17 28.53-1.74z"/>
 <path class="cls-19" d="m358.54 346.38c1-0.64 3.67-1.52 2.58-2.55-2.27-2.12-3.33-3.47-2.61-4.59 0.88-1.38 3.07-1.59 3.07-1.59s-0.57-6.65-1.94-7.16c-2.16-0.79-5.12-1.1-6.84 1-7.54 9.15 1.64 17.41 5.74 14.89z"/>
 <path class="cls-19" d="M370.46,390.22c-13.84-6-18.47-17.88-20-26.89-.44-2.55-4.11-2.5-4.82.06-1.52,5.52-3.36,13.21-5.31,23.6-1.23,6.56,9.56,14.91,17.78,19.09Z"/>
 <path class="cls-12" d="M344.73,344.39c-.43-4.08-.11-12.79,3.42-16.52,7.32-7.74,14.56.18,14.56.18s-1.75,9.35,3.58,8.78c10-1.08,8.58-13.19,12.25-24.52,1.27-3.9,9.38-3,12.43-2.49,8.27,1.35,32.79,6.58,32.79,6.58s5.54-1,10.92-14.62c4.07-10.32-13.41-23.14-21.4-27.37-5.49-2.91-19.82,2.51-26.4,2.52-8.47,0-23.27-3-33.47,1.13-15.21,6.15-37.54,27.11-20.34,59.51,6.69,12.61-5,9.24,0,29.83.05,1.7,12.69-16,14.31-15.22l2.12-.69S345.23,349.11,344.73,344.39Z"/>
 <path class="cls-11" d="M382.43,364.11s.63,8.21,9.12,8.87"/>
 <path d="m386.61 344.55a2.19 2.19 0 0 0 2.13-1.93 1.72 1.72 0 0 0-1.56-2.08 2.19 2.19 0 0 0-2.13 1.94 1.71 1.71 0 0 0 1.56 2.07z"/>
 <path class="cls-12" d="m374.46 335.43 21.27-1.58c-1.79-9.85-21.27 1.58-21.27 1.58z"/>
 <path class="cls-11" d="M353,331.4s3.38-2.89,6.34-.77c2.48,1.78,1.75,6.66,1.75,6.66s-2.4,1.5-2.43,2.32c-.15,3.58,2.46,4.22,2.46,4.22"/>
 <path class="cls-11" d="M355,336.41s-.25-6.05,5.81-3.71"/>
 <path class="cls-11" d="m319 393.2c6.2-11.23 9.95-17.09 16.9-31.27"/>
 <path class="cls-12" d="m294.19 400.9s18.33 21.17 23.17 51.58c1 6.29-5.18 33.6-5.18 33.6l-18.85 39.47-0.11 23.45c0 3.47 4.34 4.81 6.64 2a326.33 326.33 0 0 0 24.9-33.77c12.34-19.78 15-28.13 16.68-53.15 1-14.73-5.29-37.31-10.35-48.68-2.86-6.41-10.6-20.71-10.6-20.71a4.93 4.93 0 0 0-6.26-2.75l-16.38 2.25a5.55 5.55 0 0 0-3.66 6.71z"/>
 <path class="cls-7" d="m354.58 564.33-49.34-46 13.09-42.33s-9.05-15.73-28.31-14.86c-6.21 0.27-29.07 12.33-29.07 12.33l-8.28 57.53a44.66 44.66 0 0 0 16.09 33.66s43.94 23.86 62 32.25c0.88-13.49 14.13-22.11 23.82-32.58z"/>
 <path class="cls-17" d="m317.36 452.48c2.27 4.9 1 23.53 1 23.53s-29.7-15.37-57.38-2.53l5.73-35.32h20.59c9.13 0 19.28 1.52 24.78 8.4 0.92 1.15 4.8 4.89 5.28 5.92z"/>
 <path class="cls-15" d="m295.86 407.57 21.5 43.82s-12.35-17.05-50.58-14z"/>
 <path class="cls-15" d="M351,561c-15.65,9.5-19.39,22.4-20.24,35.89l.09,0c3.41,1.58,16.94,7.7,20.76,6.94l3.61-8.32,9.82-19.05.29-4.22Z"/>
 <polyline class="cls-20" points="365.36 572.3 326.28 537.98 307.93 520.83 305.24 518.38"/>
 <path class="cls-3" d="M402.36,648.12c-.23.28-.39.39-.47.31h0l52-21.12,58.88-124.19-.1-.07-52.16,17.13"/>
 <path class="cls-5" d="M460.52,520.18l-41.63-34.07-52.71,132.4,35.71,29.92s6.39-7.57.47-.31"/>
 <polygon class="cls-3" points="554.75 529.73 485.9 659.38 486.07 659.51 529.26 633.65 601.48 506.72"/>
 <path class="cls-5" d="m554.75 529.73-42-26.61-58.85 124.19 32 32.07c9.83-17.54 68.85-129.65 68.85-129.65z"/>
 <path class="cls-18" d="M365.36,572.3l8.5,4.85,12.25-8.72c-1.22,5.14-1.5,10.06-.41,13.12,1,2.89,31.22,7.82,31.22,7.82a5.08,5.08,0,0,1,5.15,5.48S420,605.19,416,609.93h0l-17.29,8.32,6.62,3.1c2.85,1.34,1.56,5.71-1.67,5.66-6-.09-12.33-1-15-2.62l-37-20.5Z"/>
 <path d="m411.79 348.13a1.87 1.87 0 0 1-1.32-2.35 2 2 0 0 1 2.24-1.61 1.88 1.88 0 0 1 1.32 2.35 2 2 0 0 1-2.24 1.61z"/>
 <path class="cls-12" d="m418.82 339-9.82-3.26c2.49-4.2 7-3 11-0.53"/>
 <polyline class="cls-11" points="402.71 339.77 404.36 365.28 394.52 364.12"/>
 <path class="cls-18" d="M573.33,555.78l2.4,12.43-15.22,25.57A14.73,14.73,0,0,1,547.84,601h-.39Z"/>
 <path class="cls-21" d="M409.88,552.36a14.53,14.53,0,0,1,16.69,4c2.57,3.15,3.66,7.25,4.27,11.27a60.31,60.31,0,0,1-.35,20.06c-.42,2.26-1,4.58-.56,6.84s2.11,4.5,4.41,4.65a5.37,5.37,0,0,0,3.2-1c6.18-3.92,5.69-13.75,11.36-18.39a3.31,3.31,0,0,1,1.94-.89,3.24,3.24,0,0,1,2.52,1.61c3,4.35.95,10.22-.56,15.29a4.48,4.48,0,0,0-.23,2.5c.75,2.65,4.8,1.92,6.9.14,10-8.5,28-47,35.76-50.72,3.77-1.8,8.35-3.58,11.93-1.42a9.75,9.75,0,0,1,3.25,3.61c4.44,7.67-6.16,42.1-8.55,50.63s-2.49,18.4,2.77,25.53c1.76,2.38,39.06-66.69,50.12-56.21"/>
 <path class="cls-22" d="m512.14 526.52 10.46 0.05-0.6 1.23-8.77-0.14 5.13 7.1-0.64 1.23-6-8.55z"/>
 <path class="cls-22" d="M518.46,537.34,530.13,527l1.21.63L519.65,538Z"/>
 <path class="cls-22" d="M536.57,540.49l-10.45-.06.63-1.23,8.83.16,0,0-5.2-7.14L531,531l6.05,8.53Z"/>
 <path d="m476 529.76a1.48 1.48 0 0 1 0.9-2 1.58 1.58 0 0 1 1 3 1.47 1.47 0 0 1-1.9-1z"/>
 <path d="m480.9 528.05a1.49 1.49 0 1 1 1.91 1 1.48 1.48 0 0 1-1.91-1z"/>
 <path class="cls-20" d="M392.29,594.51l9.91,4.38a14.42,14.42,0,0,0,9.73.71l9.65-2.69"/>
 <path class="cls-20" d="M388.78,604l8.77,4.65a13.28,13.28,0,0,0,8.88.41l12.29-3.71"/>
 <line class="cls-20" x1="386.86" x2="398.66" y1="612.49" y2="618.25"/>
 <path class="cls-23" d="m1599.6 530c-7.88 2.35-9.54-4.28-13.71-9.69-2.8-3.64-12.84-2.23-13.84-8.61-0.89-5.67 9.43-7.26 8.76-10.95-2.61-14.39 4.56-18.3 12.87-9.66 2.57 2.68 10.88-7.21 17.34-2.29 4.59 3.49-2.93 9.82-0.24 14.45 3.4 5.87 9.12 6.15 6.91 11.68-1.82 4.55-8 0.94-11.65 3.62-6.16 4.45-2.4 10.23-6.44 11.45z"/>
 <path class="cls-23" d="m1555 457.07c0.37 5.16-5.24 6.13-8.24 11.71-2 3.75 2.08 10.11 0.09 14s-13.54-2.54-17-2.29c-8.91 0.63-8.57 2.87-13.18-5.59-1.65-3-8.86-7.47-9.09-10.65-0.38-5.34 7.45-5.7 10.35-9.72 3.68-5.1 0.83-14.29 7.6-14.77 4.53-0.32 9.84 6.49 13.51 8.6 6.1 3.51 15.42 1.15 15.96 8.71z"/>
 <path class="cls-23" d="m1490.9 486.35c-3.75-2.41-3.87-8.28-14.19-4.56-4.62 1.66-8.29 13.14-12.65 9.77-3.92-3-3.87-12.95-7.8-15.95-3.67-2.8-16.28 0-14.66 5.13 2 6.22 9.84-2.36 15.12 7.44 2.79 6.51 2.79 26.4 4.65 34.78a26.18 26.18 0 0 0 11 14.74c-1.83-18.64 4.75-38.7 18.53-51.35z"/>
 <path class="cls-23" d="m1484.8 517.66c4.66-8.53 18.41-17 35.16-5.87 19.53 13 30.7 37.21 56.74 39.07a30.53 30.53 0 0 0 4.16 0c3.36-4.33 5.8-11.27 7-16.66 2.46-11.34-0.39-25.81-4.85-35.24-10.93-23.11-46.81-34.87-72.79-19.19-15.05 9.08-15.79 8.8-19.31 6.54-13.78 12.66-20.36 32.71-18.53 51.35 9.69 2.57 9.53-14.66 12.42-20z"/>
 <path class="cls-13" d="m1570.1 563.61c3.72-2.79 8-9.14 10.78-12.71a30.53 30.53 0 0 1-4.16 0c-26-1.86-37.21-26-56.74-39.07-16.75-11.16-26.69-12.2-34.22-0.13-3.2 5.12-3.67 28.57-13.39 26a56.3 56.3 0 0 0 4.82 18.16c17.67 36.28 65.93 30.08 92.91 7.75z"/>
 <path class="cls-9" d="m1555.9 594.26s-9.45-27.36-8.22-31.66c0 0 16 4.82 19.15-16 2.69-18-15.24-59.31-15.24-59.31l-37.7 3.26s-9.91 24.69-13.5 37.91c-2.53 9.32-7.74 27.15 0.94 34.82 2.24 2 8.52 4 19.06 3.78l3.75 23.35-10.68-2.55s2.54 28.61 8.79 31.67c18.78 9.13 33.65-25.27 33.65-25.27z"/>
 <path class="cls-9" d="M1511.59,494.78a37.64,37.64,0,0,0-9.21,15.1c-1.43,4.31-3.41,13.78-5.4,17.88s-4.28,5.35-6.32,7.39a2.28,2.28,0,0,0,0,3.22l3.45,3.78s-1.49,18,1.51,23.25c.85,1.5,4.24,3.72,6.06,4,7.1,1,28.46-3.5,28.46-3.5l9.26-15,11.28.47,10.93-9.85,1-14.29-16.51-8.31-5.42-20.8Z"/>
 <path class="cls-10" d="m1523 585.43s19.34-25.21 14.17-22.16c-3.38 2-18.37 4.5-18.37 4.5z"/>
 <path class="cls-10" d="m1547.9 548.89c-6.94 1.13-15.13-2.79-17.48-9.53-10.75-30.87-28.85-26.83-28.85-26.83s4.07-16.12 12.73-20.77 36.7-2.33 36.7-2.33a362.7 362.7 0 0 1 16.67 38.3"/>
 <ellipse transform="translate(105.69 1291.5) rotate(-47.88)" cx="1507.2" cy="526.72" rx="1.82" ry="2.04"/>
 <path class="cls-24" d="m1504.7 516.14s5.33-2.78 10.81 7.6"/>
 <path class="cls-10" d="M1553,556.54c-5.7,1.22-10.09-3.5-10.09-3.5s4.92.27,5.51-1.42a10.37,10.37,0,0,0-.14-3.12s3.48-2.61,4.72-2.9c4.25-1,6.13,4.7,6.13,4.7A7.31,7.31,0,0,1,1553,556.54Z"/>
 <path class="cls-24" d="M1552.73,545.52a10.52,10.52,0,0,0-4.45,2.9s1.55,1.73.14,3.12a4.41,4.41,0,0,1-5.14,1"/>
 <path class="cls-24" d="m1558.6 550a9.69 9.69 0 0 0-0.83-2.35 5.65 5.65 0 0 0-4.82-2.2"/>
 <path class="cls-24" d="m1553.8 552.12s6.78-4.53-0.76-6.52"/>
 <path class="cls-13" d="m1544.6 483.13c-15.15-0.15-29.76 11.94-43.44 6.94-7.23-2.35-1.77-15.86-9.53-17.43-5.91-1.2-16.51 8.52-14.91 9.15 18.51 7.23 9.42 21.4 22.79 23.75 6.34 1.11 21.23-4 26.52-0.36 5.83 4.06 6.83 23.74 12.72 29.51 7.34 7.2 13.16 5.65 16.7 4.38 11-3.94 10.69 11 10.69 11s12.58 4.78 14.75 0.81c12.16-22.35 5.8-67.34-36.29-67.75z"/>
 <path class="cls-12" d="M1563.57,706.74,1582.45,757l7.53,61.06s-9.47,15.27-19.55,18.32c-6.33,1.92-26.36,2.27-26.36,2.27l-49-3.14s-1.17,12.78-2.82,16.17c-1.75,3.6-10.23,12-10.23,12l-20.19-.25-4.14-51L1386,764.8a9.59,9.59,0,0,0-11.76.89c-15,13.67-56.7,51-75.29,61.28-6.08,3.35-26.35,8.75-26.35,8.75L1253.72,824s66.6-82.8,94-104.94c5.39-4.36,18.5-10.58,25.41-11.07,18.27-1.28,70.58,19.58,70.58,19.58s-2.66-31.92,1.73-41c3-6.13,14-11.95,20.78-11.43,9.72.75,33.68,22.2,33.68,22.2l8.41,7.92Z"/>
 <path class="cls-9" d="M1495,585.79c-22.83-3.39-56.79-8.53-75.18-11.75-4.46-.78-11.79-4-15.69-6.32-12.06-7.05-26-18-48.58-31.66-9.21-5.56-19-10.16-24.43-12.89-9.55-4.76-36.06-14.59-44.38-17.49a2.16,2.16,0,0,0-2.84,1.73s.21,4.12-.73,4.94a6.22,6.22,0,0,1-2.76.59,1.68,1.68,0,0,0-1.32,2.55s3.55,3,5,3.39c2.34.72,9.81,0,9.81,0a9.54,9.54,0,0,1,5.94,2.06l13.4,10.6a2,2,0,0,1,0,3.16l-1.61,1.25s-6.26,2.23-7.74,4.2c-4.2,5.58-1.56,9-1.56,9s7.07-5.89,10-6.07a95.62,95.62,0,0,0,15.56-2.43c1.56-.19,5.68,1.61,6.86,2.65,8.59,7.57,42.54,38.61,58.92,48.32,7.11,4.21,19,10.53,30.31,13.23l45.52,10.92C1475.26,604,1484.61,593.54,1495,585.79Z"/>
 <path class="cls-10" d="m1518.3 589.22s-9.66-1.4-23.27-3.43c-10.39 7.75-19.74 18.17-25.52 30l22 5.27z"/>
 <path class="cls-9" d="M1565,588.45s10.23-4.24,13.52-3.14c3.85,1.29,9.23,8.56,10.44,12.44,8.82,28.3,8.35,118.28,8.35,118.28s-2.14,69.68,3.11,92.26c.36,1.57,1.8,4.5,2.44,7.11s2.57,3.42,5,4.62a108.39,108.39,0,0,0,12.8,5.24c6,1.93,18.31,3.15,20.22,9.2.79,2.5,2.36,7.65.12,9-5.15,3.1-23.27-1.68-28.39-2.61-4.69-.84-11.46-.28-16.19.31-3.32.42-5.68,3.46-5.54,5,.26,2.77,3.61,5.53,3.57,9,0,3.9-3.84,8.15-5.73,6.93-.8-.51-1.17-3.72-2.26-6.91-1.21-3.51-4.33-7.23-4.81-9.81-1-5.42.82-22.05.82-22.05s-14-85.13-12.9-100.65c.3-4.14,3-25,3-25Z"/>
 <path class="cls-10" d="m1500.9 678-1.43 9.74a174.11 174.11 0 0 0 63.7 12.7l-0.86-12.62z"/>
 <path class="cls-9" d="m1498.3 695.88 10 9.33 55.28 1.53-0.43-6.27a174.11 174.11 0 0 1-63.7-12.7z"/>
 <path class="cls-7" d="m1510.6 587 7.66 2.21s-2.16 27 4.88 29.67c9.93 3.73 32.71-27 32.71-27l9.15-3.41 5.42 79-8.15 20.44-61.41-9.91s-15.34-30.68-15.68-40.6c-0.17-4.92 6.29-16.38 6.29-16.38z"/>
 <path class="cls-12" d="m1491.1 904.07c-1.45-6.4-10.08-24.24-10.08-24.24l-21.81 0.84-11.63 14.16a18.11 18.11 0 0 1-7.3 5.34s-25.82 6.46-31.7 12.64c-1.73 1.82-3.33 7.34-4.27 11.16a3.05 3.05 0 0 0 3 3.78l78.4-2a6.57 6.57 0 0 0 6.41-6.7c-0.05-5.11-0.33-11.91-1.02-14.98z"/>
 <path class="cls-12" d="M1240.2,837.74l17.27,11.79s.87,18.19-.53,24c-.74,3.12-3.9,9.39-6.34,14a6.33,6.33,0,0,1-8.49,2.65l-72.17-37.28a4.8,4.8,0,0,1-1.27-7.59c2.5-2.6,5.53-5.4,7.48-6,8.11-2.41,33.39,5.46,33.39,5.46a33.87,33.87,0,0,0,18.09-2Z"/>
 <polygon class="cls-10" points="1240.2 837.74 1253.7 823.95 1272.6 835.72 1257.5 849.53"/>
 <polygon class="cls-10" points="1461.8 863.51 1482 863.76 1481 879.83 1459.2 880.67"/>
 <path class="cls-24" d="m1282.1 512.55a62.11 62.11 0 0 1 24.35 2.51"/>
 <path class="cls-24" d="m1547.9 564.61c1.44 9.67 5.69 18.58 8.33 27.94 2.49-1.19 4.92-2.52 7.41-3.7"/>
 <path class="cls-24" d="m1497.1 611.13c-5.51 10.59-11.65 18.15-11.78 24.94s4.44 18.09 7.37 24.22c2.82 5.88 5.61 12.36 8.22 17.74 1.31 2.7-2.51 16.75-2.61 19.75-0.28 8.09 2.37 2.49 2.08 10.58"/>
 <path class="cls-24" d="M1581.06,822c2.12,5.5.83,11.63.28,17.5a18.11,18.11,0,0,0,.59,7.93c.91,2.45,2.7,4.47,4,6.73a29.07,29.07,0,0,1,2.2,6.64,1.65,1.65,0,0,0,2,1.22c1.63-.37,3.9-1.8,4.31-6.89.18-2.25-1-4.44-2.25-6.3a7,7,0,0,1-1.25-2.26c-.52-2.27,1.8-4.08,3.82-5.23"/>
 <path class="cls-24" d="m1599 800c3.51 16.56 3.9 17.75 8.34 20a92.15 92.15 0 0 0 14.67 5.75c6.6 2 16.94 2.49 18.93 9.1"/>
 <path class="cls-24" d="M1615.11,833.5c6.26.67,12.57,1.35,18.57,3.27,3.46,1.11,7.21,3.11,8,6.66"/>
 <path class="cls-24" d="m1623.7 830.08a40.23 40.23 0 0 1 10.45 2.6 16.17 16.17 0 0 1 8 7"/>
 <path class="cls-24" d="m1498 552.51a9.46 9.46 0 0 0 7.62-2.42"/>
 <path d="m1282.4 498.69a27.46 27.46 0 0 1 1.27 10.34 23.39 23.39 0 0 1-1.13-5.11 24 24 0 0 1-0.14-5.23z"/>
 <path d="m1285.5 498.69a23.6 23.6 0 0 1 2.41 4.65 24.4 24.4 0 0 1 1.48 5 23.6 23.6 0 0 1-2.41-4.65 24.4 24.4 0 0 1-1.48-5z"/>
 <path class="cls-13" d="m1256.2 445c20.32 1.12 24.84 5.95 34.46 16.28 3.75 4 8.09 10.61 5.58 15.6-1.25 2.49 2.82 14.32-7.13 21.32-7.24 5.09-15 4.12-18 5.41"/>
 <path class="cls-23" d="m1273 470.39c-12-5.54-24.27-9.09-43.84-0.29l35.92 25.79c4.92-4.89 13.98-10.89 18.66-15.89-1.66-4-5.69-7.3-10.74-9.61z"/>
 <circle class="cls-23" cx="1272.9" cy="486.42" r="12.9"/>
 <polygon class="cls-23" points="1298.6 463.58 1302.7 459.47 1302.8 465.32 1307.8 467.02 1303.3 470.08"/>
 <path class="cls-23" d="m1262.1 493.44c8.46 10.6-30.28 17.79-30.28 17.79l12.68 11.77 35.2-25.62z"/>
 <circle class="cls-23" cx="1292.2" cy="471.84" r="11.82"/>
 <circle cx="1292.6" cy="470.08" r="1.77"/>
 <path d="M1232.73,511.69c2.53,2.53,5.29,4.8,8,7.17,1.33,1.18,2.67,2.45,3.88,3.69a.33.33,0,0,0,.35.07,1.36,1.36,0,0,0,.47-.27l1-.83,2.11-1.67c5.63-4.42,11.51-8.51,17.15-12.88,1.41-1.1,2.84-2.17,4.22-3.29a7.5,7.5,0,0,1,2.46-1.44,10,10,0,0,1,2.79-.25,27.86,27.86,0,0,0,10.24-2.26,17.46,17.46,0,0,0,8.08-6.56A18.53,18.53,0,0,0,1296.1,483a18.29,18.29,0,0,1-2.28,10.38,17.93,17.93,0,0,1-8.1,7,27,27,0,0,1-10.54,2.51,9.31,9.31,0,0,0-2.53.23,6.87,6.87,0,0,0-2.12,1.29c-1.39,1.14-2.8,2.24-4.23,3.32-5.72,4.32-11.57,8.43-17.3,12.7l-2.14,1.61-1.08.81a2.05,2.05,0,0,1-.69.37,1,1,0,0,1-.91-.22c-1.26-1.35-2.49-2.57-3.8-3.81C1237.81,516.73,1235.11,514.37,1232.73,511.69Z"/>
 <path class="cls-25" d="m1305.8 430.51a23.93 23.93 0 0 1 28.2 18.72"/>
 <path class="cls-26" d="m1302.7 415.3a39.45 39.45 0 0 1 46.49 30.86"/>
 <path class="cls-27" d="m1299.7 400.13a54.93 54.93 0 0 1 64.72 43"/>
 <path class="cls-28" d="m1308 444a9.74 9.74 0 0 1 11.48 7.62"/>
 <g data-name="char_01_2">
  <path class="cls-29" d="m1758.2 302.89 3.36 31.12s39.54 22.19 64.67 43.68c5.6 4.8 17.49-37 14.48-38.91-26.79-16.66-82.51-35.89-82.51-35.89z"/>
  <path class="cls-12" d="m1864.4 370-3.84-5.92-26.66-5.08-7.63 22.15a4.36 4.36 0 0 0 1 4.48l8.21 8.29c1.86 1.88 4.38 1.1 6.61-0.34 13.05-8.46 13.92-16.77 22.31-23.58z"/>
  <path class="cls-8" d="m1866.6 365.62c-9.72 7.9-10.59 18.66-24.45 27.91l14.39 15 29-13.59z"/>
  <path class="cls-29" d="m1889.5 330.53-3.62-30.47-21.95-3.67-18.8 21.13c15.4-2.84 30.58 4.64 44.37 13.01z"/>
  <path class="cls-30" d="m1889.5 330.53c-13.79-8.37-29-15.85-44.37-13l-1.47 1.65-18.48 13.82 5.39 7.67s-11 28.18-4.84 36.38c5.67 7.59 16.89 4.8 25.08 5.11 9.75-4.86 25.26 12.59 35.58 11.1 4.27-0.61 27.65-0.12 11.51-19.75-4.15-5 8.12-24.31 8.12-24.31l-11-13.3z"/>
  <path class="cls-29" d="m1886.4 343.48c-1.85-0.45-7.4 6-7.4 6a5.14 5.14 0 0 1 0.7 3.45c-0.24 1.68-3.1 4-6.42 3.35-2-0.4-0.53 3.34 0.45 4.49 4.25 5 18.69 3.5 18.87-11.42 0.04-3.35-3.29-5.15-6.2-5.87z"/>
  <path class="cls-29" d="m1850.8 382.18c12.17 3.59 16.5 20.16 16.5 20.16l20-13s-6.84-7.54-9.7-8.8c-10.3-4.54-14.46-2.47-26.8 1.64z"/>
  <path class="cls-24" d="M1840.67,351.46s-6,5.12-12.19.69"/>
  <ellipse transform="translate(451.79 1579.4) rotate(-51.9)" cx="1848.6" cy="325.54" rx="1.91" ry="1.64"/>
  <path class="cls-12" d="m1860.3 332a37.44 37.44 0 0 1-3.29-4.46c-1-1.47-1.85-2.94-2.75-4.3a17.36 17.36 0 0 0-2.83-3.53 4.21 4.21 0 0 0-1.76-1 6.6 6.6 0 0 0-2.59 0 4.49 4.49 0 0 1 2.39-2 5.21 5.21 0 0 1 3.44 0.15 10.33 10.33 0 0 1 4.69 4.11 17.5 17.5 0 0 1 2.29 5.26 14.9 14.9 0 0 1 0.41 5.77z"/>
  <path class="cls-24" d="M1892.43,349.17s-1-5.42-5.86-5.33c-4.12.08-7.6,5.68-7.6,5.68s1.17,3.27.49,4.16c-3,3.83-6.21,2.64-6.21,2.64"/>
  <path class="cls-24" d="m1886.1 353s5.52-6.13-2.77-8"/>
  <path class="cls-24" d="m1859.9 300.82-14.77 16.7-19.95 15.48 5.49 7.28s-5.44 12.89-7.09 23.07c-1.89 11.7 3.87 15.53 3.87 15.53"/>
  <path class="cls-12" d="M1885.14,315.79l-9.24,20s3.22,3.27,4.62,3.77c2.75,1,6.06-2.75,9-2.49,5.4.5,9,6.35,9,13.14,0,4.52-2.47,11.33-9,16.21-1.88,1.39-4,5.77-4.34,7.76-.57,4,5.74,6.39,5.74,6.39l7.95-1.63s9.36-3.15,11.71-4.78c8-5.51,15.5-4.69,22-34.26,2.52-11.47-3.37-33.08-20.66-44.28-7-4.52-25-7.18-30.6-13.05-2.89-3-4.75-12.62-4.75-12.62s-17,12.62-19,19c-.88,2.89,2.31,11.86,2.31,11.86Z"/>
  <path class="cls-15" d="m1849.9 521.53 20 54.34 49 31.16 31.06-40.95-8.7-65.44c-30.48 7.46-60.92 13.67-91.36 20.89z"/>
  <path class="cls-7" d="m1834.5 417.25-52 20.64 22.39 40.1 29.25-4.49a7.57 7.57 0 0 1 2.89 0.12c1.22-6.18 2.82-12.34 4.58-18.42 3.24-13.39-0.16-26.28-7.11-37.95z"/>
  <path class="cls-7" d="m1934 443.12a111.32 111.32 0 0 0-19.52-47.56l-41.06 11.72-7.22 0.09-11 1.2-26 10.8c2.51 13.36 15.9 15.18 8.27 26.63-3.75 5.11-7.37 10.34-10.65 15.72a7.53 7.53 0 0 1 2.92 3.69l20.63 56.12a303.35 303.35 0 0 0 51.44-7.25c14.53-3.23 27.5-7 39.89-13.64-0.09 0-5.58-43.18-7.7-57.52z"/>
  <path class="cls-12" d="m1869.9 575.87-41.83 316 29.08 4.09 4.8-13.15 9.42-9.22a47.69 47.69 0 0 0 12.27-20.26l28.25-93.42 81.54 117.88 23.41-10-8-22v-15.72a55.89 55.89 0 0 0-6-25.17l-36.28-71.9a67.73 67.73 0 0 1-7.12-26l-9.49-141s-14.18 6-38.33 9.79c-18.25 2.92-41.72 0.08-41.72 0.08z"/>
  <path class="cls-12" d="m1855.7 407.59 46.78-30.52 11.6 14.52v3.94l-41.19 18.47a5.52 5.52 0 0 1-6.41-1.47 12.54 12.54 0 0 0-2.32-2.13c-1.76-1.08-8.46-2.81-8.46-2.81z"/>
  <path class="cls-12" d="m1799.3 457.87a104.31 104.31 0 0 0-16.78-20l-18.78 5.51s9 15.46 11.94 21.12c2.09 4 7.06 14.34 9.67 19.78a4.6 4.6 0 0 0 5.36 2.46l14.28-3.88a4.62 4.62 0 0 0 3.19-5.84 83.15 83.15 0 0 0-8.88-19.15z"/>
  <path class="cls-12" d="M1825.21,904.78l27.67,2,6,22.78s7.19,9.45,8,13.23c.6,2.85-1.48,11.54-1.48,11.54l-104.52-.24,1.42-7.61a14.73,14.73,0,0,1,10-11.33l33.34-10.53a15,15,0,0,0,7-4.73Z"/>
  <path class="cls-12" d="m2001.2 889.45 21.79-12.24 18.25 11.57s6.33 0 12.21 7.17l3.41 8.14-48.63 43.65h-52.83l0.13-6.08a10.93 10.93 0 0 1 6.87-9.93l22-8.86a14 14 0 0 0 6.87-7.57l5.5-14.49z"/>
  <polygon class="cls-29" points="1828.1 891.86 1857.2 895.95 1852.9 906.75 1825.2 904.78"/>
  <polygon class="cls-29" points="1993.4 877.78 2016.8 867.81 2023 877.21 2001.2 889.45"/>
  <path class="cls-30" d="m1679 412.46c-3.48-4.49-10-12.42-13.63-14.43-4.84-2.65-20.79 3-20.79 3s2.19 3.43 3.1 4.6c2.1 2.7 8.51 0.59 10.83 3.11 0.62 0.66-0.1 2 0.7 3.69 6.67 0.65 13.02 0.01 19.79 0.03z"/>
  <path class="cls-12" d="M1692.07,449c-.89,14.2-1.79,28.41-2.84,42.6-.32,4.47-.66,8.94-1.06,13.4-.2,2.22-.13,4.84-.83,7-3.24,9.93-17.35,10.94-23.62,3.68-4.57-5.3-3.93-14.41-4.34-21-2.25-36.66-2.38-73.5-2.67-110.21q-.15-18.13-.17-36.27a1.5,1.5,0,0,0-3,0q0,48.51,1,97c.41,18.59.8,37.23,2.23,55.77.55,7.14,1,14.4,7.22,19.07s15.81,4.65,21.78-.76,5.28-12.94,5.86-20.22c1.33-16.66,2.35-33.34,3.4-50,.12-1.93-2.88-1.92-3,0Z"/>
  <path class="cls-12" d="M1771,743.8c16.53-.62,27.29,17.45,26.23,32.27-1,13.93-10.59,26.35-24.1,30.21-9.64,2.76-20.93,2.15-30.87,1.94-9.58-.21-18.45-3.08-25.35-10-11.67-11.66-9.93-27.38-9.93-42.47V525.32c0-19.85.12-39.7-.21-59.55q-.29-17.1-.65-34.19c-.07-3.39.32-7.08-2.91-9.15a6.76,6.76,0,0,0-7.25.15,1.5,1.5,0,0,0,1.52,2.59c7.14-4.27,5.74,11.53,5.81,15q.17,8.28.32,16.56c.15,7.88.3,15.77.36,23.65.15,21.61,0,43.22,0,64.83V732.69c0,14.29-.58,28.72,0,43a37.26,37.26,0,0,0,25.83,33.8c9.57,3,20.48,1.91,30.34,1.4,7.67-.39,14.94-1.17,21.72-5a37.42,37.42,0,0,0,18.26-35.41c-1.36-14.61-13.27-30.21-29.16-29.62-1.92.07-1.93,3.07,0,3Z"/>
  <polygon class="cls-13" points="1665.8 204.01 1620 269.91 1642.5 361.6 1686.5 369.9 1663.5 271.39 1708.9 204.01"/>
  <polygon class="cls-23" points="1708.9 204.01 1663.5 271.39 1686.5 369.9 1763.9 347.9 1761 252.34"/>
  <path class="cls-30" d="m1754.2 446-3.43 0.22a9.76 9.76 0 0 1-4.67-0.87l-64.74-29.72s-0.94-1.28-2.38-3.14c-6.76 0-16.63-3.5-23.31-4.12 0.38 0.77-6.8-3.31-6.8-3.31l-3.27-4.31a3.11 3.11 0 0 0-4.72-0.27c-3.14 5.73-3.82 7 0.39 12 2.45 2.89 7.09 21.72 8.9 22.76 7.69 4.44 35.15 7.23 35.15 7.23l47.24 37.5c4 3.1 16.67 6.77 21.71 7.13 3.33-12.95-1.57-27.85-0.07-41.1z"/>
  <path class="cls-30" d="M1773,483.24c-6.36-12.15-12.32-24.52-17.65-37.14l-3.18,1a286.76,286.76,0,0,1,2.14,40l.67-.11Z"/>
  <path class="cls-12" d="M1699.91,421.42c-6.25.17-6.5,5.76-6.8,10.67q-.75,12.15-1.51,24.29c-.12,1.92,2.88,1.92,3,0q.5-7.9,1-15.8c.22-3.55-1-16,4.33-16.16,1.93-.05,1.94-3.05,0-3Z"/>
  <path class="cls-29" d="m1775.6 464.52c-3-5.66-11.94-21.12-11.94-21.12l-8.38 2.7c5.33 12.62 11.29 25 17.65 37.14l10.76-2.22s-6.28-13.02-8.09-16.5z"/>
  <circle class="cls-12" transform="translate(33.06 693.57) rotate(-23.13)" cx="1711.6" cy="265.99" r="7.46"/>
  <path class="cls-12" d="m1835.4 382.17a24.87 24.87 0 0 0 5.1 0.1c1.7-0.09 3.4-0.27 5.12-0.38a22.77 22.77 0 0 1 5.21 0.17 12 12 0 0 1 4.92 1.95 21 21 0 0 1 3.85 3.55 37.21 37.21 0 0 1 3.2 4.07 28.22 28.22 0 0 1 4.11 9.43 31 31 0 0 0-2.05-4.68 32.32 32.32 0 0 0-2.68-4.31 46.4 46.4 0 0 0-3.28-3.88 21.4 21.4 0 0 0-3.71-3.36c-2.71-1.94-6.16-2.24-9.54-2.17s-6.9 0.34-10.25-0.49z"/>
  <path class="cls-31" d="m1659.7 274.71q26.41-34.74 50.6-71.12c19.25 19.86 34 34.7 56.25 51.36"/>
  <ellipse class="cls-32" cx="1759.4" cy="743.05" rx="13.4" ry="13.25"/>
  <circle class="cls-12" transform="translate(19.51 695.1) rotate(-23.13)" cx="1708.5" cy="299.87" r="7.46"/>
  <circle class="cls-12" transform="translate(26.9 704.52) rotate(-23.13)" cx="1735.2" cy="286.51" r="7.46"/>
  <path class="cls-12" d="M1710.44,266.93l23.69,20.52.3-2.35-26.72,13.35c-1.73.87-.21,3.46,1.51,2.59L1736,287.69a1.52,1.52,0,0,0,.3-2.36l-23.69-20.52c-1.45-1.26-3.59.85-2.12,2.12Z"/>
  <path class="cls-33" d="M1749.36,729c.28,0,8.2-.23,10.81-.16a.16.16,0,0,1,0,.31c-6,1.18-11.77,5.3-11.9,13.46-.19,12.08,9.73,13,13.15,13.91,0,0,.09.36,0,.37-2.52.21-12.77.22-13.13.21A13.54,13.54,0,0,1,1735,742.92,14.17,14.17,0,0,1,1749.36,729Z"/>
  <path class="cls-32" d="m1759.3 729.19 12.35 3.11c12.1 3.05 11.55 20.42-0.71 22.7l-9.55 1.78z"/>
 </g>
 <path class="cls-7" d="m2422.1 387a36.14 36.14 0 0 0 6.84 4.38 186.28 186.28 0 0 1 21.41-23.54 186.28 186.28 0 0 0-21.41 23.54c11.48 5.64 26.28 5.49 42.43 0.41q-29.16-37.79-58.87-76.09c-9.55 30.82-7 57.8 9.6 71.3z"/>
 <path class="cls-7" d="m2453.7 243.83c-1.28 1.5-2.56 3-3.83 4.58-18 22.09-30.69 45.64-37.41 67.29q29.79 38.24 58.87 76.12c20-6.27 42-20.07 62.43-39.87-27.49-36.52-52.51-72.64-80.06-108.12z"/>
 <path class="cls-7" d="m2552.2 331.81c43.63-53.53 56.08-115.59 27.82-138.62-27.44-22.37-83.18 0.3-126.33 50.64 27.55 35.48 52.57 71.6 80.06 108.12a233.24 233.24 0 0 0 18.45-20.14z"/>
 <path class="cls-7" d="m2423.9 330.43q-14.39-18.54-29-37.14a41.79 41.79 0 0 0 29 37.14z"/>
 <path class="cls-7" d="M2478.42,290.63a41.77,41.77,0,1,0-83.54,0c0,.9,0,1.78.1,2.66q14.58,18.6,29,37.14a41.8,41.8,0,0,0,54.48-39.8Z"/>
 <path class="cls-10" d="m2496.8 304.4a2.64 2.64 0 0 1 1.13-1.14q-7.35-10.1-14.71-20.14l-16.77 14.8a86.26 86.26 0 0 1 19 10.13c3.41 2.43 9.08 2.43 11.35-3.65z"/>
 <path class="cls-10" d="m2505.9 304.4c6.8 6.08 18.15 3.65 19.28-2.43 2.06-15.46 5.3 1.65 15.88-1.21l4.26-23.39-36.3-17-25.78 22.77q7.38 10 14.71 20.14c2.09-1.21 6.12-0.84 7.95 1.12z"/>
 <path class="cls-10" d="m2500.5 364.25a5.52 5.52 0 0 1-1.43-4.77l1.45-8.08c-3.84-4.73-8.06-9.46-11.59-14.19-4.14 11.07 1.15 23.15 11.57 27.04z"/>
 <path class="cls-9" d="M2450,368.24c-2.5,2.37-5.15,5-7.85,7.77-3.12,14.9-11.05,59.78,5.3,65.62,3.66,1.57,37,.65,61.69-.87q-28.24-36.54-56.73-73.58Z"/>
 <path class="cls-9" d="m2525.2 375.93-21.55-10.17a4.68 4.68 0 0 1-3.18-1.51c-10.42-3.89-15.71-16-11.57-27 3.53 4.73 7.75 9.46 11.59 14.19l0.09-0.52s11.29 10.63 22.07 6.37c2.43-1 5.4-5.42 7.79-9.74-11.08-14.83-21.8-29.58-32.47-44.25a2.64 2.64 0 0 0-1.13 1.14c-2.27 6.08-7.94 6.08-11.34 3.65a86.26 86.26 0 0 0-19-10.13l-10.77 9.52 20.13 27.86-3.68 23.17-19.81 8.71q28.55 37 56.73 73.58c14.11-0.86 25.37-1.92 26.57-2.82-1.86-30.98-10.47-62.05-10.47-62.05z"/>
 <path class="cls-9" d="m2534.8 338.63h6l-1.42-22.08 1.7-15.79c-10.58 2.86-13.82-14.25-15.88 1.21-1.13 6.08-12.48 8.51-19.28 2.43-1.83-2-5.86-2.33-7.95-1.14 10.67 14.67 21.39 29.42 32.47 44.25 2.51-4.51 4.36-8.88 4.36-8.88z"/>
 <path class="cls-9" d="m2442.1 376c2.7-2.8 5.35-5.4 7.85-7.77l-6.78 3s-0.44 1.77-1.07 4.77z"/>
 <path class="cls-1" d="m2414.9 303.49c2.13 4.09 0.45 13.15 3.69 16.3 2.89 2.81 9.17 0 12.76 1.62 3.1 1.4 6.14 6.69 8.79 8.92 4.08 3.43 12.67-5.86 17.77-4.87 4.38 0.85 0.38 13.17 12.86 13.17 5 0 13.61-15.6 13.61-15.6s-9.84 1.21-12.85 0c-7.85-3.14-4.54-13.22-4.54-13.22s18.68 4.3 22.69 0c2.09-2.24-2.05-10.4 0-12.7a3.52 3.52 0 0 1 3.12-1c-14.27-19.59-28.58-39-43.71-58.28-2.82 5.84-2.53 13.12-5.26 18.24-2.3 4.31-12.48 0-19.19 2.94-11.58 5.06-11.81 13.23-15.41 17.72-1.68 2.09-8.22 5.14-8.23 7.9 0.01 11.27 11.18 13.62 13.9 18.86z"/>
 <path class="cls-1" d="m2511.6 301.06c5-3.07 2.34-23.83 8-23.05 2.23 0.3 10-0.57 13.54 1.79 7.66 5.16 10 11.7 6.42 33.77-1.32 8.15 0.79 18 0.79 18s28.7 7.16 30.18-16.2c1.4-22.22-11.18-28.36-8.88-30.43 4.2-3.78 4.67 2.73 12.61-6.38 5.13-5.89 1.51-20.85-5.95-21.87-13.33-1.82-21.84 17-28 8.81-3.58-4.78 2.45-18.83-12.86-20.25-6.26-0.58-17.21 10.6-23.44 9.72-10.69-1.52-6.62-27.31-35.17-26.73-12.16 0.24-17.25 4.33-19.79 9.6 15.13 19.25 29.44 38.69 43.71 58.28 5.53 0.48 14.95 7.35 18.84 4.94z"/>
 <path class="cls-15" d="m2411.6 326.55c2 1.61 6.05 0.89 9.72 0.55q-6.46-8.33-13-16.66c-1.61 4.46-3.77 10.29 3.28 16.11z"/>
 <path class="cls-15" d="m2426.8 327.42c3.1 1.4 6.86 15.07 10.21 16 12.82 3.4 15.74-18.91 20.84-17.92 4.38 0.85 0.38 13.17 12.86 13.17 5 0 13.61-15.6 13.61-15.6s-9.88 1.3-12.85 0a8.42 8.42 0 0 1-5.23-8.61s12.92 4.24 22.38-4.17c4-3.56-1.05-10.84 1-13.14a3.52 3.52 0 0 1 3.12-1q-4.73-6.5-9.48-13a5.62 5.62 0 0 0-4.71 1.79c-5.68 7.29-11.35 19.44-19.29 12.15-5.67-6.08-4.54-18.23-11.34-25.52-3.41-2.43-9.16 5.88-12.48 2.43-4.43-5.46 1.11-10.95 2.53-15.87-4.08 0-9.36-0.88-13.39 0.89-11.58 5.06-11.81 13.23-15.41 17.72-1.68 2.09-7.54 5.23-8.23 7.9-4.14 16.17 5.5 15 8.23 20.2 0.72 1.38 0 3.3-0.83 5.58q6.51 8.34 13 16.66c2.12-0.19 4.13-0.26 5.46 0.34z"/>
 <path class="cls-15" d="m2511.6 301.06c4.57-2.83 2.12-16.92 6.65-23-2.24-0.23-3-0.51-5.62 2-4.58 7.82-10.21 13.36-15.88 9.72-4-2.58-9.16-6.37-13.44-6.65q4.76 6.48 9.48 13c5.5 0.47 14.92 7.34 18.81 4.93z"/>
 <path class="cls-15" d="m2448.1 255.8c2.27 2.43-0.57 7.69 2.27 10.93 5.28 2.11 12.41-1 18.95-2.5-6.6-8.8-13.29-17.56-20.15-26.29-2.73 5.71-2.52 12.78-5.07 17.86 1.21 0 1.93-1.8 4 0z"/>
 <path class="cls-15" d="m2485.5 275.24s4.35 10.12 13 4.45c7.94-7.29 18.91-7.69 29.12-4.05 0-18.63-15.13-10.32-17.88-22a10.62 10.62 0 0 1-5.65 1.34c-10.69-1.52-6.62-27.31-35.17-26.73-12.22 0.24-17.29 4.38-19.83 9.68 6.86 8.73 13.55 17.49 20.15 26.29 7.32-1.61 13.87-1.15 16.26 11.02z"/>
 <path d="m2529.2 319.27a1.83 1.83 0 0 0 0.57-2.41 1.58 1.58 0 0 0-2.25-0.61 1.83 1.83 0 0 0-0.57 2.41 1.59 1.59 0 0 0 2.25 0.61z"/>
 <path d="M2531.62,311.77a4.36,4.36,0,0,0-1.8-1.36,3.59,3.59,0,0,0-2.08-.11,9.36,9.36,0,0,0-2.12.73c-.71.33-1.39.71-2.16,1.05a8.07,8.07,0,0,1,1.77-1.73,9.74,9.74,0,0,1,1.09-.64,6.39,6.39,0,0,1,1.24-.39,3.58,3.58,0,0,1,2.61.39A3.12,3.12,0,0,1,2531.62,311.77Z"/>
 <path d="m2521.5 337.2a5.09 5.09 0 0 0 0.3 2.3 4.16 4.16 0 0 0 1.31 1.71 8.8 8.8 0 0 0 1.94 1.2c0.37 0.14 0.73 0.33 1.1 0.48a11.18 11.18 0 0 1 1.14 0.49h-1.26a10.75 10.75 0 0 1-1.24-0.22 11 11 0 0 1-1.21-0.44 6.58 6.58 0 0 1-1.11-0.72 3.91 3.91 0 0 1-1.41-2.26 3.37 3.37 0 0 1 0.44-2.54z"/>
 <path class="cls-17" d="m2529 277.11-5 6.93s4.8 1.49 5-6.93z"/>
 <path class="cls-17" d="m2529 276.38-0.31 13.73s8.48-4.35 0.31-13.73z"/>
 <path d="M2530.74,279a7.37,7.37,0,0,1,4.4,2,16.72,16.72,0,0,1,3.13,3.78c.41.7.83,1.41,1.18,2.15a10.5,10.5,0,0,1,.89,2.32,26.93,26.93,0,0,1,.69,4.88,84.15,84.15,0,0,1-.06,9.79q-.31,4.88-.95,9.73v-.08l.66,12.52.58,12.54,0,.48h-.48l-6,0,.41-.26c-1.2,2.62-2.46,5.19-3.85,7.71a61,61,0,0,1-4.57,7.33,11.06,11.06,0,0,1-3.14,3,10.86,10.86,0,0,1-4.12,1.41,17.5,17.5,0,0,1-8.48-1.13,17.93,17.93,0,0,0,8.43.79,10.28,10.28,0,0,0,3.91-1.49,10.73,10.73,0,0,0,2.93-3,62.14,62.14,0,0,0,4.35-7.34c1.3-2.54,2.57-5.11,3.73-7.71l.12-.26h.28l6,0-.46.48-.65-12.53-.58-12.53v-.08c.44-3.21.77-6.44,1-9.67a82.7,82.7,0,0,0,.26-9.7,25.38,25.38,0,0,0-.57-4.78,10.69,10.69,0,0,0-.8-2.24c-.32-.75-.71-1.45-1.08-2.16a16.35,16.35,0,0,0-2.94-3.82A7.42,7.42,0,0,0,2530.74,279Z"/>
 <path d="M2501.81,290.8a14.42,14.42,0,0,0,5.84-5c1.56-2.08,2.82-4.39,4.71-6.4.25-.24.52-.46.78-.69a10.77,10.77,0,0,1,.91-.58l.51-.22.26-.1a1.91,1.91,0,0,1,.33-.06l1-.06c1.33,0,2.65-.06,4,0a52.07,52.07,0,0,1,7.89.67c-1.32,0-2.63,0-3.95,0s-2.62.05-3.94.1-2.62.09-3.92.18l-.95.08-.16,0-.2.08-.4.17c-.25.14-.5.33-.75.49l-.68.63a24.07,24.07,0,0,0-2.41,3c-.79,1-1.53,2.15-2.41,3.16a19.92,19.92,0,0,1-2.86,2.8A11,11,0,0,1,2501.81,290.8Z"/>
 <path d="M2438,258.15c-.77,1.65-1.52,3.32-2.22,5-.35.84-.69,1.68-1,2.54a9.93,9.93,0,0,0-.61,2.6,6.31,6.31,0,0,0,1.36,4.9,3.84,3.84,0,0,0,2.2,1.13c.21,0,.42,0,.63.06a3.07,3.07,0,0,0,.6-.07,5.85,5.85,0,0,0,1.21-.43c1.62-.73,3.14-1.77,4.89-2.48a6.55,6.55,0,0,1,1.41-.41,2.72,2.72,0,0,1,1.6.18,6.72,6.72,0,0,1,2.15,2,22.27,22.27,0,0,1,2.57,5c.68,1.71,1.25,3.45,1.81,5.19,1.1,3.49,2.08,7,3.48,10.33a19.76,19.76,0,0,0,1.2,2.39,8.24,8.24,0,0,0,1.61,2,3.08,3.08,0,0,0,2.2.81,8.94,8.94,0,0,0,2.53-.58,12.46,12.46,0,0,0,4.3-3.07,35.7,35.7,0,0,0,3.35-4.26c1-1.49,2.06-3,3.21-4.45a12.4,12.4,0,0,1,1.93-2,4.86,4.86,0,0,1,2.49-1.08,4.76,4.76,0,0,0-2.4,1.2,12.85,12.85,0,0,0-1.81,2c-1.08,1.46-2,3-3,4.56a35,35,0,0,1-3.3,4.42,13,13,0,0,1-4.47,3.35,9.28,9.28,0,0,1-2.76.71,3.86,3.86,0,0,1-2.81-1,8.74,8.74,0,0,1-1.82-2.22,20.12,20.12,0,0,1-1.27-2.49c-1.47-3.4-2.48-6.92-3.6-10.39-.54-1.73-1.1-3.46-1.75-5.15a21.5,21.5,0,0,0-2.41-4.76,6,6,0,0,0-1.82-1.73,3.11,3.11,0,0,0-2.29.24c-1.63.65-3.18,1.66-4.91,2.39a7.32,7.32,0,0,1-1.37.44,3.9,3.9,0,0,1-.76.06c-.25,0-.49,0-.73-.08a4.64,4.64,0,0,1-2.54-1.39,6.87,6.87,0,0,1-1.39-5.38,10.67,10.67,0,0,1,.75-2.68c.34-.85.71-1.69,1.1-2.52C2436.32,261.38,2437.15,259.75,2438,258.15Z"/>
 <path d="M2489.67,297.11a3,3,0,0,0-.38,2.26,20,20,0,0,0,.42,2.31,38.36,38.36,0,0,1,.89,4.64,3.81,3.81,0,0,1-.39,2.34,8.07,8.07,0,0,1-1.55,1.8,17.8,17.8,0,0,1-4,2.55,30.24,30.24,0,0,1-9.08,2.62,18.1,18.1,0,0,1-9.41-1l.23-.49a17.56,17.56,0,0,0,9.13,1.05,29.82,29.82,0,0,0,9-2.48,17.27,17.27,0,0,0,4-2.45,7.73,7.73,0,0,0,1.54-1.74,3.61,3.61,0,0,0,.39-2.23,36.78,36.78,0,0,0-.81-4.63,23.11,23.11,0,0,1-.39-2.33A3,3,0,0,1,2489.67,297.11Z"/>
 <path d="M2466.29,314.42a11.93,11.93,0,0,0,1.63,5.77,5.72,5.72,0,0,0,2.11,2,7.12,7.12,0,0,0,2.83.75,29.58,29.58,0,0,0,6-.14c2-.22,4-.5,6-.91l1-.21-.52.88a87.88,87.88,0,0,1-5.78,8.77,48,48,0,0,1-3.39,4,14.84,14.84,0,0,1-4.21,3.33,4.77,4.77,0,0,1-1.38.36c-.44.05-.89.07-1.34.08a9.48,9.48,0,0,1-2.69-.36,6.94,6.94,0,0,1-4.12-3.38,18.72,18.72,0,0,1-1.71-5c-.21-.85-.4-1.7-.67-2.52a3.6,3.6,0,0,0-1.37-2.12,3.65,3.65,0,0,1,1.54,2.06c.31.82.55,1.67.8,2.5a20.15,20.15,0,0,0,1.88,4.79,6.27,6.27,0,0,0,3.84,3,8.94,8.94,0,0,0,2.48.25c.42,0,.84-.06,1.26-.12a3.87,3.87,0,0,0,1.13-.32,13.91,13.91,0,0,0,3.9-3.16,50.42,50.42,0,0,0,3.27-4c2-2.79,4-5.67,5.77-8.64l.49.67a54.83,54.83,0,0,1-6.1.83,30.21,30.21,0,0,1-6.16-.08,7.87,7.87,0,0,1-3-.92,6.15,6.15,0,0,1-2.16-2.26A11.64,11.64,0,0,1,2466.29,314.42Z"/>
 <path class="cls-11" d="m2546.7 332.14c2.91 0.1 5.3-7.05 5.33-16s-2.3-16.22-5.21-16.32-5.3 7.05-5.33 16 2.3 16.18 5.21 16.32z"/>
 <path class="cls-11" d="m2518.8 331.85-0.87-1.17c0.28 0.41 0.56 0.8 0.87 1.17z"/>
 <path class="cls-11" d="M2518.85,331.85a9,9,0,0,0,5.78,3.46c6.32.78,12.29-6.44,13.34-16.13s-3.22-18.19-9.54-19-12.29,6.43-13.33,16.13c-.61,5.6.57,10.79,2.88,14.34Z"/>
 <path class="cls-10" d="m2417.5 436.84 16.51-12.28 2.63 7.36c23.13-3.79 13.22-55.76 11.87-62.31-14.12 13.63-29.8 46.77-31.01 67.23z"/>
 <path class="cls-9" d="M2417.2,385.53c-15.44,13.59-36.92,32-45.15,37.62-.62.42-30.4-56.71-33-59.19-2.15-2.08,9.23-20.59,6.9-23.67a21.54,21.54,0,0,0-12.36-7.9c-2.92-.72-8.55-30.18-14.3-30.18-6.44,0,1.17,26.77.5,27.41-14,13.48-13.17,21.11-3.89,43.59,2,4.94,12.05,52.13,17.15,69.21,1.46,4.9,3.36,12.51,9.14,18.26,6.43,6.42,18.44,6,24.49,4.5,7.46-1.85,21.48-8.57,28.15-12.4,8.76-5,32.71-23.66,32.71-23.66,1.21-20.46,6.79-45.88,20.93-59.51l-.14-.68S2425.34,378.37,2417.2,385.53Z"/>
 <path class="cls-9" d="m2683.2 459.22s17.84-5.4 22.13-9c5.56-4.69 7-25.06 5.56-32.35-1.64-8-4.83-4.32-4.83-4.32l-4.68-6.55-9.62 5.55a9.55 9.55 0 0 0-2.51 2.1l-14.68 17.28s-44.8 7.19-69.8 5.18c9.31 10.41 18.61 20.73 27.92 31.13 25.3-3.59 50.51-9.02 50.51-9.02z"/>
 <path class="cls-9" d="m2552.2 455.08c12.2 6.32 29 14.42 37.43 15.7 9.32 1.42 26.17-0.15 43-2.55-9.31-10.4-18.61-20.72-27.92-31.13a45.2 45.2 0 0 1-10.82-1.94c-13.31-4.64-36.6-26.36-52.34-42.16a86.05 86.05 0 0 1 10.65 62.08z"/>
 <path class="cls-10" d="m2537.9 447.38s6.1 3.44 14.31 7.7a86.05 86.05 0 0 0-10.62-62.08c-9.61-9.64-16.41-17.07-16.41-17.07l13.46 56z"/>
 <path class="cls-9" d="M2407,783a309.54,309.54,0,0,1,19.69-73.21c-10.63-5.62-19.92-13.15-26.35-23.34L2376.85,825l37.16,2.11,23-76.16,3.12-30.5,1.31-4.24a109.89,109.89,0,0,1-14.73-6.39A309.54,309.54,0,0,0,2407,783Z"/>
 <path class="cls-10" d="m2426.7 709.79a109.89 109.89 0 0 0 14.73 6.39l13.11-42.63-11.65 1.58a354 354 0 0 0-16.19 34.66z"/>
 <path class="cls-10" d="m2403.4 668.88-3 17.57c6.43 10.19 15.72 17.72 26.35 23.34a354 354 0 0 1 16.19-34.66l-21.3 2.9z"/>
 <path class="cls-10" d="m2571.8 660.27-34.93 11.22-11.65 1.45 3.52 22c12.88 13.57 31.44 19.91 50.31 22.47l-0.43-19.44z"/>
 <path class="cls-9" d="m2528.7 694.93 2.08 13v28l12.1 89.05s37.71 8.49 38.43-1.1c0.83-11.16-2.3-106.47-2.3-106.47-18.87-2.57-37.43-8.91-50.31-22.48z"/>
 <path class="cls-23" d="M2362.81,823.62l52.16.3L2409.16,881l-5.07,5.7h-67s-.89-9,.35-11.21c3-5.41,22.41-8,22.41-8Z"/>
 <path class="cls-23" d="M2542.5,822l53.72,1.52-2.8,45s13.67,5.56,16.13,8.52c2,2.39.79,9.73.79,9.73h-64.67l-3.17-5.53Z"/>
 <path class="cls-13" d="m2469.8 673.18 15.08-61.1a403.55 403.55 0 0 0-43.68 66.34 149.13 149.13 0 0 0 28.6-5.24z"/>
 <path class="cls-13" d="m2411.6 675.78a64.36 64.36 0 0 0 10 2.25 90.32 90.32 0 0 0 19.57 0.39 403.55 403.55 0 0 1 43.68-66.34l3.78-15.3-1.31 2.09c-20.99 31.47-46.52 55.65-75.72 76.91z"/>
 <path class="cls-23" d="m2446.4 484.86-21.57 53.45-34.87 126a63.66 63.66 0 0 0 21.66 11.46c29.2-21.26 54.73-45.44 75.71-76.91l1.31-2.09 0.1-0.41v0.21c21.51-34.56 42.6-74.85 44.42-114.5l-39.17 5.47z"/>
 <path class="cls-13" d="m2552.9 544q-9.08 7.13-17.82 15a473.47 473.47 0 0 0-45.19 47l7.48 64.9s23.59 6.67 41.38 4a98.84 98.84 0 0 0 42.48-17.62l-25.79-103.42z"/>
 <path class="cls-13" d="m2533.2 482.08c-1.82 39.65-22.91 79.94-44.42 114.5l1.08 9.42a473.47 473.47 0 0 1 45.15-47q8.74-7.9 17.82-15l-16-62.41z"/>
 <path class="cls-12" d="M2448.47,369.66c.5-.49,1-1,1.49-1.42l-1.58.69Z"/>
 <path class="cls-12" d="M2450,368.24c-.49.46-1,.93-1.49,1.42.7,5.88,4.76,46-11.82,62.26l9.76,52.94s37.72,3.86,47.59,2.68c8.39-1,42.86-6,42.86-6s.12-1.73.31-4.6c-28.19-36.2-56.3-72.85-84.8-109.79Z"/>
 <path class="cls-12" d="m2525.2 375.93-24.73-11.68s12.52 48.59 0 50.12c-14.86 1.83-28.32-55.9-28.32-55.9l-19.81 8.71c28.5 36.94 56.61 73.59 84.8 109.79 0.8-12.07 3-44.36 3.64-53.85 0.89-12.26-15.58-47.19-15.58-47.19z"/>
 <rect class="cls-13" transform="translate(2497.4 2986) rotate(-89.45)" x="2724" y="195.42" width="64.21" height="73.59" rx="12.38" ry="12.38"/>
 <rect class="cls-23" transform="translate(.86 -12.66) rotate(.26)" x="2785.8" y="152.94" width="73.59" height="64.21" rx="12.38" ry="12.38"/>
 <rect class="cls-23" transform="translate(-2.68 48.88) rotate(-1.05)" x="2624.7" y="139.19" width="104.04" height="64.21" rx="14.72" ry="14.72"/>
 <path class="cls-34" d="M2697.23,452.1c-1.56,39.09-1.56,78.26.38,117.33a1069.82,1069.82,0,0,0,12.06,116.86c2.35,14.62,9.43,54.17,15.37,85.21.79,4.12,11.69.29,12.42,4,2,10.2-13.85-77-12.63-71.77"/>
 <path class="cls-31" d="m2701.3 404.46q-0.95 13.1-1.67 26.19"/>
 <path class="cls-35" d="m2752.6 811.91-71.34 4.39c17-5.17 33.13-9.25 51-8.74l16.29-0.29"/>
 <path class="cls-31" d="m2762 454.81c-32.76 15.05-53.51 38-57.35 63.41"/>
 <path class="cls-31" d="M2742.46,475.77c2.22-.1,3.3.71,5.18,1.75a15.38,15.38,0,0,1,4.42,4.56c.89,1.46.8,3.66-.65,4.57s-3.5,0-4.89-1.08a17.94,17.94,0,0,1-5.34-7.11,2.67,2.67,0,0,1-.26-1.7c.17-.57.87-1,1.36-.68"/>
 <path class="cls-31" d="M2734.06,482.3c4.85,1,8.78,4.22,9.45,9.11.13,1,0,2.24-.88,2.69a2.36,2.36,0,0,1-1.44.11c-3.7-.62-6.51-3.63-8.59-6.74a5.26,5.26,0,0,1-1.21-3.46c.16-1.24,1.59-2.34,2.67-1.71"/>
 <path class="cls-31" d="M2762.48,450.36a13.36,13.36,0,0,0,5.08-10.26c0-1.28-.26-2.76-1.37-3.4-1.51-.87-3.35.44-4.36,1.85a14.11,14.11,0,0,0-2.55,9.48,3.75,3.75,0,0,0,.92,2.39,1.55,1.55,0,0,0,2.28-.06"/>
 <path class="cls-31" d="M2644.35,305.89a13,13,0,0,1-7-5.31,4.49,4.49,0,0,1-.23-5.05,4.94,4.94,0,0,1,3.4-2.21,5,5,0,0,1,3.05.74,15.53,15.53,0,0,1,6.75,7.36,3,3,0,0,1,0,2.87A4.17,4.17,0,0,1,2648,306a7.41,7.41,0,0,1-4.23.14"/>
 <path class="cls-31" d="M2741,275.27a11.7,11.7,0,0,0-4.63-11.92,3.22,3.22,0,0,0-1.73-.68,2.44,2.44,0,0,0-2.18,1.79,5.69,5.69,0,0,0,.07,3,17.65,17.65,0,0,0,3,6.44c1.16,1.58,3.15,3.09,4.92,2.25"/>
 <path class="cls-31" d="M2747.64,264.63a19.42,19.42,0,0,0,2.14-7.41,8.56,8.56,0,0,0-.6-4.43,3.68,3.68,0,0,0-7,.32,8.28,8.28,0,0,0-.1,4.63,17.57,17.57,0,0,0,1.77,4.7,4.5,4.5,0,0,0,1.86,2,1.87,1.87,0,0,0,2.45-.62"/>
 <path class="cls-31" d="M2787.46,316.43c2.4-1.67,4.75-2.45,6.43-4.84a8.43,8.43,0,0,0,1.71-3.94,3.7,3.7,0,0,0-1.77-3.68,4.08,4.08,0,0,0-2.24-.31c-4.26.47-7.25,4.77-7.78,9a4.69,4.69,0,0,0,.59,3.4c.71,1,2.32,1.26,3.06.34"/>
 <path class="cls-31" d="M2660.92,149.62c.08-2.54.45-4.89-.47-7.26a9,9,0,0,0-3.55-4.71,4.46,4.46,0,0,0-5.51.6c-1.51,1.79-.83,4.54.31,6.59a19.65,19.65,0,0,0,4.24,5.23,4.82,4.82,0,0,0,2.82,1.41,2,2,0,0,0,2.16-1.86"/>
 <path class="cls-31" d="M2652.58,317.6a10.2,10.2,0,0,1-8.31,3.53c-3-.17-5-.53-7-2.81a5.44,5.44,0,0,1-1.48-2.89,4.37,4.37,0,0,1,3.33-4.3,8.91,8.91,0,0,1,5.75.69,19.35,19.35,0,0,1,7.69,5.78"/>
 <path class="cls-12" d="m2372 423.15c7-5.18 13.66-10.89 20.15-16.74s12.92-11.78 19.7-17.34a123 123 0 0 1 21.88-14.52l3-1.41a32.27 32.27 0 0 1 3-1.32l3.07-1.19a30.84 30.84 0 0 1 3.1-1.1c2.11-0.59 4.19-1.28 6.32-1.78l6.43-1.31a94.2 94.2 0 0 0-24.55 8.79 127.58 127.58 0 0 0-21.61 14.62c-6.8 5.46-13.21 11.41-19.82 17.14l-5 4.26-5.08 4.16-5.22 4z"/>
 <path d="m2537.9 447.38c10.4 5.78 21.3 10.49 32.15 15.37l8.1 3.7a73.8 73.8 0 0 0 8.3 3.09 30.45 30.45 0 0 0 8.64 1.41 60.79 60.79 0 0 0 8.84-0.34q17.74-1.62 35.4-4c11.77-1.59 23.5-3.49 35.2-5.6-11.62 2.51-23.33 4.6-35.09 6.34s-23.59 3.09-35.42 4.27a58.37 58.37 0 0 1-9 0.32 31.31 31.31 0 0 1-8.88-1.5 74.3 74.3 0 0 1-8.38-3.17c-2.72-1.23-5.39-2.51-8.08-3.77-5.37-2.54-10.78-5-16.12-7.62s-10.59-5.43-15.66-8.5z"/>
 <path d="M2402.78,672.33a70.44,70.44,0,0,0,12.12,4.22,69.62,69.62,0,0,0,12.67,1.91c8.55.55,17.1-.43,25.54-1.83l.67-.11-.22.65q-6.15,18-10.8,36.45-1.16,4.62-2.21,9.25l-1,4.64a22.74,22.74,0,0,0-.57,4.64c-.07,3.13.14,6.33-.06,9.53a48.28,48.28,0,0,1-1.5,9.47c-3.22,12.29-7,24.41-10.8,36.52L2415,823.92c3.62-12.16,7.4-24.28,11.1-36.42s7.3-24.3,10.51-36.57a47.24,47.24,0,0,0,1.44-9.3c.2-3.15,0-6.3,0-9.51a24,24,0,0,1,.58-4.79l1-4.67q1-4.65,2.18-9.28,4.68-18.46,11-36.48l.45.54c-8.48,1.3-17.11,2.19-25.71,1.54A69.33,69.33,0,0,1,2402.78,672.33Z"/>
 <path d="M2525.61,675.43a92.87,92.87,0,0,0,12.14-1,85.81,85.81,0,0,0,11.88-2.58,103.82,103.82,0,0,0,11.45-4.06c3.73-1.56,7.38-3.35,11-5.2l.58-.3.12.65c.58,3.27,1.57,6.5,2.28,9.8s1.31,6.63,1.77,10c1,6.68,1.52,13.39,2.06,20.1,1,13.43,1.46,26.89,1.83,40.34.16,6.72.34,13.45.41,20.18s.22,13.45.22,20.18c.09,13.46,0,26.91,0,40.36-.12-13.45-.2-26.9-.44-40.35s-.47-26.91-.91-40.35-1-26.89-2-40.29c-.56-6.7-1.11-13.4-2.09-20-.47-3.32-1.07-6.62-1.78-9.89s-1.71-6.49-2.31-9.84l.7.34q-5.42,2.88-11.09,5.2a96.61,96.61,0,0,1-11.59,4,84.7,84.7,0,0,1-12,2.31A87.44,87.44,0,0,1,2525.61,675.43Z"/>
 <path d="M2700.15,407.7a26.5,26.5,0,0,0-5.19,3.23c-1.63,1.22-3.2,2.52-4.83,3.78-.81.62-1.6,1.26-2.37,1.91a6.84,6.84,0,0,0-1,1l-.82,1.28c-1.13,1.72-2.32,3.39-3.54,5.05s-2.51,3.24-3.8,4.84c-.65.79-1.31,1.58-2,2.36-.36.38-.68.76-1.11,1.15a2.61,2.61,0,0,1-.79.41,5.94,5.94,0,0,1-.79.24c-4.14.74-8.22.47-12.3.82,2-.38,4.06-.53,6.1-.75a42.2,42.2,0,0,0,6-.82,4.94,4.94,0,0,0,.68-.23,2,2,0,0,0,.55-.31c.32-.3.67-.71,1-1.08.66-.77,1.3-1.57,1.94-2.37,1.26-1.59,2.49-3.23,3.71-4.86s2.45-3.27,3.59-5l.86-1.29a7.34,7.34,0,0,1,1.17-1.14c.81-.67,1.65-1.25,2.49-1.85C2693,411.8,2696.25,409.08,2700.15,407.7Z"/>
 <path class="cls-9" d="m2696 449.21 10.07-35.67s-2.57-4-12.89 5.43c-5.34 4.87-4.68 28.53-4.68 28.53z"/>
 <path d="M2691.25,429.58a3.86,3.86,0,0,0,1.26,2.44c.76.48,1.64,0,2.48-.46a34.3,34.3,0,0,1,5.44-2.31c.94-.3,1.89-.58,2.85-.79.49-.11,1-.22,1.46-.31a5.05,5.05,0,0,1,.81-.08,2.82,2.82,0,0,1,.42,0l.34,0a6.49,6.49,0,0,1,1.56.19,3.24,3.24,0,0,1,.73.39c.21.14.42.29.63.46a6.11,6.11,0,0,1,1.54,2.61,11.38,11.38,0,0,0-2-2,5.86,5.86,0,0,0-.61-.32,4.4,4.4,0,0,0-.57-.27,6.14,6.14,0,0,0-1.35-.11l-.39,0a1.72,1.72,0,0,0-.31,0,3.73,3.73,0,0,0-.64.08c-.46.09-.94.2-1.41.31-.93.23-1.87.47-2.79.76a48.5,48.5,0,0,0-5.43,2,6.79,6.79,0,0,1-1.44.51,1.87,1.87,0,0,1-1.58-.34,2.58,2.58,0,0,1-.8-1.32A5.68,5.68,0,0,1,2691.25,429.58Z"/>
 <path d="M2691.18,435.41a7.54,7.54,0,0,0-1.6,3.08,3.9,3.9,0,0,0,.25,1.63,2.23,2.23,0,0,0,1.06,1.16,2.4,2.4,0,0,0,1.54.24,2,2,0,0,0,.35-.16l.39-.22.78-.44c1-.59,2.08-1.19,3.15-1.75s2.15-1.11,3.27-1.58a15.58,15.58,0,0,1,3.53-1.1,3.87,3.87,0,0,1,1,0c.26,0,.56,0,.87.06a6,6,0,0,1,1,.13,2.2,2.2,0,0,1,.52.22l.39.24a4.24,4.24,0,0,1,1.36,1.37,12.39,12.39,0,0,1,.75,1.67c-.41-.44-.79-.93-1.19-1.35a3.35,3.35,0,0,0-1.35-.95l-.39-.2a1,1,0,0,0-.31-.11,4,4,0,0,0-.81-.08c-.29,0-.59,0-.92,0a2.93,2.93,0,0,0-.77,0,28.62,28.62,0,0,0-6.55,2.54c-1.07.53-2.14,1.07-3.23,1.58l-.81.39-.41.19a3,3,0,0,1-.48.19,3,3,0,0,1-1.95-.33,2.83,2.83,0,0,1-1.29-1.46,3.93,3.93,0,0,1-.22-1.89,4.14,4.14,0,0,1,.85-1.67A17.36,17.36,0,0,1,2691.18,435.41Z"/>
 <path d="M2694,441.11a33.07,33.07,0,0,0-2.59,5.37,1.77,1.77,0,0,0,0,.3,1.62,1.62,0,0,0,.09.26,2.3,2.3,0,0,0,.33.57,2.16,2.16,0,0,0,1.1.69,3.64,3.64,0,0,0,1.36.1,4.67,4.67,0,0,0,.67-.13l.13-.06a.26.26,0,0,0,.12-.07l.31-.22a14.4,14.4,0,0,1,5.74-2.21,2,2,0,0,1,.94,0l.72.13a2,2,0,0,1,.9.39c.18.18.37.34.55.54a3.71,3.71,0,0,1,.83,1.39c.16.5.32,1,.43,1.48a12.7,12.7,0,0,0-1.81-2.28l-.58-.45a1.46,1.46,0,0,0-.49-.16c-.23,0-.46,0-.76-.11a1.18,1.18,0,0,0-.56,0,18.66,18.66,0,0,0-5.5,1.93l-.33.17-.21.12-.22.07a4.79,4.79,0,0,1-.81.15,4.26,4.26,0,0,1-1.62-.18,2.66,2.66,0,0,1-1.37-.94,2.51,2.51,0,0,1-.39-.74,1.24,1.24,0,0,1-.11-.46,1.44,1.44,0,0,1,.08-.44,14.6,14.6,0,0,1,1.42-2.72C2692.8,442.76,2693.36,441.92,2694,441.11Z"/>
 <path d="M2692.75,421.65a4.32,4.32,0,0,0,1.16,2.39c.69.54,1.52.14,2.31-.33a30,30,0,0,1,5.2-2.28c.9-.29,1.81-.57,2.73-.78l1.4-.29a4.12,4.12,0,0,1,.8-.06l.71.06a5.39,5.39,0,0,1,1.53.26,2.15,2.15,0,0,1,.36.21l.29.2a5.06,5.06,0,0,1,.59.47,6.51,6.51,0,0,1,1.39,2.56,13.83,13.83,0,0,0-1.85-2c-.18-.11-.37-.22-.57-.32l-.31-.17-.25-.13a4.79,4.79,0,0,0-1.23-.14c-.22,0-.55,0-.69-.05a3.21,3.21,0,0,0-.6.06c-.43.08-.9.19-1.34.3-.9.22-1.79.45-2.67.73a43.69,43.69,0,0,0-5.17,2,5,5,0,0,1-1.4.49,1.75,1.75,0,0,1-1.5-.46A4.13,4.13,0,0,1,2692.75,421.65Z"/>
 <path class="cls-12" d="M2319.84,329.62a13.13,13.13,0,0,1,4.81,3.82,28.76,28.76,0,0,1,3.31,5.22c.47.91.89,1.85,1.31,2.78a7.13,7.13,0,0,1,.73,3.13,3.19,3.19,0,0,1-.48,1.63,2.9,2.9,0,0,1-1.3,1.06,6.61,6.61,0,0,1-3.11.21,7.39,7.39,0,0,0,2.89-.67,2.31,2.31,0,0,0,1.2-2.24,6.71,6.71,0,0,0-.81-2.72q-.63-1.38-1.32-2.73a40.09,40.09,0,0,0-3-5.2A17,17,0,0,0,2319.84,329.62Z"/>
 <path class="cls-12" d="M2315.46,334.92a21.71,21.71,0,0,1,2.95,2.39,32.6,32.6,0,0,1,2.53,2.85,32,32,0,0,1,4,6.5,19.57,19.57,0,0,1,1.28,3.66,9.86,9.86,0,0,1,0,3,2.66,2.66,0,0,1-.39,1.06,2.61,2.61,0,0,1-2,.84,4.51,4.51,0,0,1-2-.45,10.66,10.66,0,0,1-3-2.4,12.36,12.36,0,0,0,3.16,1.93,4,4,0,0,0,1.72.26,1.92,1.92,0,0,0,1.36-.65,4.59,4.59,0,0,0,.26-1.61,9.29,9.29,0,0,0-.12-1.77,21.85,21.85,0,0,0-1.24-3.44,43.05,43.05,0,0,0-3.67-6.47A32.93,32.93,0,0,0,2315.46,334.92Z"/>
 <path class="cls-12" d="M2310.32,343.73c1.09.6,2.14,1.25,3.19,1.92a29.82,29.82,0,0,1,3,2.3,14,14,0,0,1,4.19,6.3,10.29,10.29,0,0,1,.37,1.9,4.44,4.44,0,0,1,0,1,1.8,1.8,0,0,1-.51,1.08,4.51,4.51,0,0,1-3.81,1.13,5.47,5.47,0,0,1-1.87-.6,1.89,1.89,0,0,1-.81-.71,2.87,2.87,0,0,1-.3-1,2.72,2.72,0,0,0-.64-1.61,4,4,0,0,0-1.54-.94,3.78,3.78,0,0,1,1.72.75,3.11,3.11,0,0,1,.92,1.69c.16.62.36,1,.92,1.22a4.66,4.66,0,0,0,1.68.41,4,4,0,0,0,3-1,1,1,0,0,0,.25-.57,3.38,3.38,0,0,0,0-.82,9.21,9.21,0,0,0-.35-1.72,15.14,15.14,0,0,0-3.77-6A63.51,63.51,0,0,0,2310.32,343.73Z"/>
 <path class="cls-12" d="m2330.1 334.92a2.51 2.51 0 0 0-1.85 2.9 4.49 4.49 0 0 0 2.23 2.85 31.67 31.67 0 0 0 3.66 1.69c1.27 0.55 2.51 1.15 3.73 1.82-1.36-0.3-2.69-0.67-4-1.09a18.56 18.56 0 0 1-3.92-1.57 4.84 4.84 0 0 1-2.47-3.61 3 3 0 0 1 0.69-2.14 2.35 2.35 0 0 1 1.93-0.85z"/>
 <path class="cls-12" d="m2346.3 341.5a28.92 28.92 0 0 1-2.29 8.64c-1.1 2.78-2.36 5.48-3.5 8.23a12.78 12.78 0 0 0-1.1 4.16 4.67 4.67 0 0 0 0.3 2 19.65 19.65 0 0 0 1 1.95c0.73 1.28 1.52 2.53 2.32 3.8s1.52 2.58 2.27 3.87c3 5.17 5.77 10.44 8.6 15.69l8.35 15.81c-3.17-5.05-6.13-10.23-9.07-15.42l-8.72-15.6c-0.73-1.29-1.45-2.62-2.22-3.86s-1.57-2.54-2.3-3.86a17.06 17.06 0 0 1-1-2.06 5.25 5.25 0 0 1-0.35-2.37 12.86 12.86 0 0 1 1.28-4.41c1.23-2.73 2.54-5.4 3.75-8.12a30.74 30.74 0 0 0 2.68-8.45z"/>
 <path class="cls-31" d="m2720.4 241.33c-1.44 18.78-4.06 37.47-6.51 56.13-3.09 23.54-6.32 47.06-9.22 70.62-1.48 12.05-2.66 25.9-3.8 38"/>
 <path class="cls-31" d="M2656.49,283.6l1.64,31.42c.13,2.48.36,5.19,2.09,7,2,2,5.16,2.07,8,2l104.36-3c1.7-.05,3.58-.17,4.8-1.36s1.36-2.73,1.54-4.26q2.83-23.07,4.07-46.28"/>
 <path class="cls-31" d="M2717.16,282.85c10.66-.38,15.9-.43,25.75-1a4.48,4.48,0,0,0,3.15-1.48,5.66,5.66,0,0,0,1-2.57,156.67,156.67,0,0,0,2.79-21.47"/>
 <path class="cls-31" d="M2782.16,285.29c6.89.14,26.12-.45,27.92-1.18,3.44-1.4,3.07-3.95,3.64-7a704.4,704.4,0,0,0,9.65-71.33"/>
 <path class="cls-31" d="M2675.61,190.34c0,15.17-1,27-.5,41.66.12,3.38,1.13,7.31,4.28,7.73,17.34,2.28,27,.15,41,1"/>
 <path class="cls-31" d="m2656.8 283a4.76 4.76 0 1 0-4.93-4.59 4.77 4.77 0 0 0 4.93 4.59z"/>
 <path class="cls-31" d="m2783.4 268.64a4.75 4.75 0 1 0-4.92-4.58 4.76 4.76 0 0 0 4.92 4.58z"/>
 <line class="cls-31" x1="2820.4" x2="2837.6" y1="234.38" y2="233.76"/>
 <circle class="cls-31" cx="2842.9" cy="232.61" r="4.76"/>
 <path d="M2645.12,161.39l.14,7.77,7.53-.14-.14-7.77,4.56-.08.37,20.22-4.56.08-.15-8.46-7.53.14.15,8.46-4.59.08-.37-20.22Z"/>
 <path d="M2665.17,164.86l-5.43.1-.07-3.84,15.54-.28.07,3.84-5.52.1.3,16.38-4.59.08Z"/>
 <path d="M2694.84,173c-.13-2.42-.28-5.36-.33-8.3h-.09c-.58,2.59-1.37,5.49-2.11,7.87l-2.31,7.93-3.57.07-2.3-7.79c-.71-2.36-1.45-5.22-2-7.86h-.06c-.07,2.73-.1,5.85-.2,8.37l-.22,7.69-4.23.07.92-20.24,6.08-.11,2.11,6.71c.67,2.33,1.35,4.84,1.84,7.2h.09c.53-2.35,1.17-5,1.79-7.29l2-6.76,6-.11,1.48,20.2-4.47.08Z"/>
 <path d="M2702.89,160.34l4.59-.09.3,16.38,8-.15.07,3.84-12.63.23Z"/>
 <path d="M2747.68,244.24a13.13,13.13,0,0,1-5.2.82c-7-.07-10.54-4.46-10.49-10.21.07-6.9,5-10.7,11.14-10.64a11.8,11.8,0,0,1,5,.95l-1,3.62a9.93,9.93,0,0,0-3.83-.79c-3.63,0-6.47,2.13-6.52,6.63,0,4,2.34,6.62,6.42,6.66a11.35,11.35,0,0,0,3.82-.62Z"/>
 <path d="M2750.87,240.13a11.7,11.7,0,0,0,5.06,1.31c2.1,0,3.22-.84,3.23-2.16s-.94-2-3.36-2.89c-3.35-1.2-5.52-3.08-5.5-6,0-3.45,2.94-6.06,7.71-6a12.52,12.52,0,0,1,5.15,1.07l-1,3.68a9.75,9.75,0,0,0-4.22-1c-2,0-2.95.88-3,1.92,0,1.29,1.12,1.88,3.72,2.89,3.56,1.36,5.22,3.23,5.19,6.08,0,3.39-2.67,6.25-8.22,6.19a13.25,13.25,0,0,1-5.72-1.28Z"/>
 <path d="M2767.07,240.28a11.7,11.7,0,0,0,5.06,1.31c2.1,0,3.22-.84,3.23-2.16s-.94-2-3.36-2.88c-3.35-1.2-5.52-3.08-5.5-6,0-3.45,2.94-6.07,7.71-6a12.36,12.36,0,0,1,5.15,1.07l-1.05,3.68a9.61,9.61,0,0,0-4.22-1c-2,0-3,.87-3,1.92,0,1.29,1.12,1.87,3.72,2.89,3.56,1.35,5.22,3.23,5.19,6.08,0,3.39-2.67,6.24-8.22,6.19a13.24,13.24,0,0,1-5.72-1.29Z"/>
 <path d="M2798.37,175.46a36.8,36.8,0,0,1,6.18-.4c2.82,0,4.83.57,6.18,1.65a5.92,5.92,0,0,1,2.13,4.69,6.4,6.4,0,0,1-1.88,4.79,9.3,9.3,0,0,1-6.58,2.1,11.51,11.51,0,0,1-1.56-.09l0,7.23-4.53,0Zm4.49,9.2a7,7,0,0,0,1.53.12c2.43,0,3.94-1.21,3.94-3.28,0-1.86-1.27-3-3.55-3a7.44,7.44,0,0,0-1.89.17Z"/>
 <path d="m2820.4 175.29v7.77h7.53v-7.77h4.56l-0.09 20.22h-4.56v-8.46h-7.53v8.46h-4.59l0.09-20.21z"/>
 <path d="M2836.47,175.63a36,36,0,0,1,6.18-.39c2.82,0,4.83.56,6.18,1.64a5.92,5.92,0,0,1,2.13,4.69,6.4,6.4,0,0,1-1.88,4.79,9.3,9.3,0,0,1-6.58,2.1,11.51,11.51,0,0,1-1.56-.09l0,7.23-4.53,0Zm4.49,9.2a7,7,0,0,0,1.53.12c2.43,0,3.94-1.21,3.94-3.28,0-1.86-1.27-3-3.55-3a7.44,7.44,0,0,0-1.89.17Z"/>
 <path class="cls-31" d="m2704.7 447.83c-3.65 99.95 9.59 222.13 33.81 320.31"/>
 <path class="cls-30" d="M2935.77,474.76a30.42,30.42,0,0,1,3-17.61c8.59-16.66-49.76-41.73-49.76-41.73L2870.41,431a24.85,24.85,0,0,0-5.69,31.22c2.32,4.12,4.45,8,5.61,10.39,1,1.94-3.2,4-2.84,7.44.53,5.14,5.78,4.23,6.66,6,1,2.18.07,4,1.26,6.18.18.34,3.53,2.11,3.48,2.49-.76,5.65,2.34,3.34,3.67,4.73,4.4,4.58,9.75,7.07,13.85,6.91,10.93-.44,22.61-13.66,22.61-13.66s6.15,3,15.69,6.79c4.08,1.63,18.31,4.21,20.82,3.45,29.85-9-3.94-37.9-3.94-37.9S2934.77,480.51,2935.77,474.76Z"/>
 <path class="cls-29" d="m2875.4 491.37c1.94-4.5 6.91-0.27 9.6-4.7 0 0 0.56 3.11-1.53 4.74a41.4 41.4 0 0 1-5.23 2.86s-3.53-1.27-2.84-2.9z"/>
 <path class="cls-29" d="m2923.2 469.72c-3.92-1.62-10.5 5.63-15.05-1.94-17.43-28.95-28-14.35-45.61-10.75a23.58 23.58 0 0 1-1-14.25l27.21-26.73s54.37 26.55 54.81 45.3c0.41 17.84-17.81 17.83-17.81 17.83s3.35-6-2.55-9.46z"/>
 <path class="cls-36" d="m2885.2 487s2.19 4-6.36 7.1"/>
 <ellipse transform="translate(86.88 1314.2) rotate(-26.08)" cx="2880.7" cy="469.5" rx="1.73" ry="1.88"/>
 <path d="m2874.2 462.24s1-5.42 9.31-0.86"/>
 <path class="cls-29" d="m2923.8 486.24s-6.48 8.11-8.27 10c0 0 11.67 0.73 16.56 2.36 0.26 0.08-0.25 0.65 0 0.72a7 7 0 0 0 3.08 0.09c4.33-3.9-3.06-10.59-11.37-13.17z"/>
 <path class="cls-11" d="M2924.28,465.13a10.19,10.19,0,0,0-1,5.08s2.19.52,2.21,2.52c0,3.54-2.7,3.91-2.7,3.91"/>
 <path class="cls-11" d="M2931.64,465.22a11.34,11.34,0,0,0-2.13-1.46c-1.3-.38-4.06,1-4.68.92"/>
 <path class="cls-11" d="m2929.4 470s1.2-7.66-5.11-4.82"/>
 <path class="cls-12" d="M2907.21,444.37l3.82,10.5a2.78,2.78,0,0,0,2.11,1.78l6.83,1.22a2.77,2.77,0,0,1,2.2,2.07l1.17,4.87c7.78,4.57,10.73-8.21,12.1-7.18,8.83,9,1,18.41,1,18.41.66,2.41,18.24-8.89,19.34-11.14,1.2-2.46-.44-7.11-.23-8.73.4-3.11,1.5-10.84-9.52-8.15-1.12.27-1.53-1.72-1.32-2.85,1.22-6.44,5.64-17.42.14-29.13-3.78-8-5.36-10.32-12.46-15-.73-.48,0,0,3.29-1.17a4.52,4.52,0,0,0,1.71-7.43l0,0a4.53,4.53,0,0,1-.24-6.07l2.45-2.92c2.46-2.94.07-10-3.77-10h-2.38a4.53,4.53,0,0,1-4.07-2.55c-1-2.17-.47-5.14-1.22-6.59-.88-1.7-3.26-2.58-4.84-1.34a15.94,15.94,0,0,1-4.38,2.36c-1.06.27-3.83.5-4.81-1l-2.65-4.05c-1.27-1.95-6.25-1.56-7,.65l-1.53,4.7c-.63,1.95-3.41,1.44-4.54,1.14a19.54,19.54,0,0,1-4.22-1.4c-1.84-1.16-4.68-.45-4.68,2v7.57a2.76,2.76,0,0,1-2.8,2.76l-7.69-.1c-2.18,0-3.23,5-2.08,6.81,0,0,2.41,5,3.81,6.11,3.24,2.63,10.7,9.51-5.78,15.66-5.69,2.11-14.33,6-17.24,8.85s-6.8,12.11-8.39,16a2.77,2.77,0,0,1-2.56,1.72h-8.91c-1.35,0-4.59,1.79-4.74,4.19-.2,3.27-.15,11.05-.15,11.05a2.76,2.76,0,0,1-1.63,2.08s-5.78,1.45-6.87,3-.59,6.8-.95,7.62c-.69,1.56-3.9-4-5.06.81-2.33,9.68,9.71,6.67,11.07.3h0a2.75,2.75,0,0,1,2.64-2h11.38a2.77,2.77,0,0,0,2.77-2.77v-8.88a2.76,2.76,0,0,1,4.06-2.44c4.07,2.19,10.16,4.87,13.1,5.06,13.61.89,18.33-8.29,22.34-10.85a2.7,2.7,0,0,1,2.53-.2l7.58,3.2c.77.32,5.53,0,7.37-.05C2904.36,442.83,2906.64,442.79,2907.21,444.37Z"/>
 <path class="cls-7" d="m2862.4 411.82s19.6-6.78 43.08 2.68c24 9.67 39.55 32.56 39.55 32.56s3.78-12.4 2.1-16c-4.79-10.19-18.32-37.79-45-39.48-5.34-0.34-20.7-0.51-20.7-0.51a27.41 27.41 0 0 0 0-12.8c-4.78-18.34-21.29-5.7-21.29-5.7-8.4-7.35-21.64 2.48-20 21.72 1.05 11.88 13.87 23.49 22.51 10.67l2.55 1.25z"/>
 <path class="cls-7" d="M2922.61,558.92s1.4-29.76,3.1-39.48c1.08-6.18,5.88-20.72,5.88-20.72s26.3,5.64,30.06.13c4.6-6.77-11-29.68-11-29.68l4.94-6.93,43.82-47.19,20.46,25.25-9.74,16.91a10.26,10.26,0,0,0,1.88,12.61l38.11,35.66v5.75l-66.17,36.53-26.06-23.53-3.46,34.69Z"/>
 <path class="cls-12" d="m3104 568.26c-12-35.81-61.67-69.95-61.67-69.95s-10.25 5.1-14 5c-11.65-0.27-32.75-13.51-41.52-21.2-7-6.17-21.67-30.73-21.67-30.73l-9.12 9.82s10.76 21.79 16.09 27.42c6.24 6.6 15.69 15.52 15.69 15.52l-21 25s-14.85-9.14-19.32-12.87c-4.62-3.85-16-17.32-16-17.32l-4.8 12.25s10.27 13.8 13.81 18.16c4.54 5.63 13.91 16.76 19.4 21.47 6.7 5.75 29.11 20 29.11 20l-34 126.62 41.81 15.89 42.42-86 11.91 86 43.88-6.34s20.02-105.79 8.98-138.74z"/>
 <path class="cls-29" d="m2992.1 724 4.77-10.63-41.84-15.92-11.42 32.16a171.83 171.83 0 0 0 48.49-5.61z"/>
 <path class="cls-30" d="M2992.07,724a171.83,171.83,0,0,1-48.46,5.64l-2.05,5.78a22.93,22.93,0,0,0-1.27,5.91l-8.24,102.62,32.39,3,21.44-84.59a25.2,25.2,0,0,0,.9-7.28l-.31-12.66a24.92,24.92,0,0,1,2.19-10.83Z"/>
 <path class="cls-29" d="m3095 707-43.88 6.34 1.34 27.28c16.2-4 29.9-14.26 41.88-26.07z"/>
 <path class="cls-30" d="M3095.88,739a78.38,78.38,0,0,1-1.55-23.81l.06-.67c-12,11.81-25.68,22.09-41.88,26.07L3058.09,854l32.26-3.33,8.51-79.13a78.53,78.53,0,0,0-1.4-25.35Z"/>
 <path class="cls-29" d="m2954.4 558.92h-31.8s-1.12 25.71-4.73 40.43a103.11 103.11 0 0 0 34.5-16.7c1.44-12.82 2.03-23.73 2.03-23.73z"/>
 <path class="cls-30" d="m2917.9 599.35a38.07 38.07 0 0 1-2.08 6.41c-8.5 18.59-52.59 60.16-56.08 62.7l-12.51 2.34s-5.29 4.73-6.84 9c-1 2.91-3.43 9.44-3.69 11.21-0.21 1.44 4.86-1.24 4.86-1.24l-13.07 15.45a4.22 4.22 0 0 0 2.12 6.8c3.66 1 7.86 1.94 9.46 1.52 11.18-2.92 33.84-29.42 33.84-29.42s59.3-43.69 70.66-64.88c3.78-7.07 6.29-22.92 7.83-36.61a103.11 103.11 0 0 1-34.5 16.72z"/>
 <path class="cls-36" d="m2832.8 703.77a20.13 20.13 0 0 0 18 2.79"/>
 <path class="cls-36" d="m2839.8 696.83c1.49 2.14 4.24 3 6.81 3.45a16.82 16.82 0 0 0 7.92-0.07"/>
 <path class="cls-36" d="m2846.7 690.93a7.79 7.79 0 0 0 4.94 2.66 23.45 23.45 0 0 0 5.74 0"/>
 <path class="cls-23" d="m2930.6 842.43 51.2 3.46-7.09 55-3.56 4.58-64.78 1.53-0.44-3.85a8.75 8.75 0 0 1 5-8.92l16.72-7.87z"/>
 <path class="cls-23" d="M3056.74,848.28l53.1,1.15-4.79,56.05-2.47,10.79-62.42.26-.55-4.87a10.28,10.28,0,0,1,3.28-8.78l10.76-9.81Z"/>
 <path class="cls-15" d="m2722 853.4c35.22-10 71.55-54.64 71.55-54.64l-42-21-26.17-40.27s-72.69 56.54-52.53 95.65l25.42 3.25z"/>
 <path class="cls-15" d="m2722.1 853.4c34.48-11.07 66.36-56.85 66.36-56.85l-3.89-1.95c-11.4 8.66-23.83 15.21-37.72 16.2-25.2 1.73-55.33-8.93-77.44 8.42 0 4.26 1.8 9.89 3.58 13.95 0 0 17.22 2.75 23.18 5.09 6.79 2.67 25.93 15.14 25.93 15.14z"/>
 <path class="cls-36" d="m2691.5 770.3a270.7 270.7 0 0 1 33.49-32.78c7.12 10.81 23.77 37.36 25.22 38.57 2.57 2.14 26.67 14.34 43.33 22.67"/>
 <path class="cls-7" d="M3129.56,430.32l-.26-.29a2.79,2.79,0,0,0-3.94-.17L2731,790.45a2.79,2.79,0,0,0-.17,3.94l.26.29a2.79,2.79,0,0,0,3.94.17l394.32-360.59A2.79,2.79,0,0,0,3129.56,430.32Z"/>
 <path class="cls-30" d="m2999.4 415.05 20.46 25.25 4-4.75c-5.91-9.17-13-17.75-18.79-26.9-3.42 3.84-5.67 6.4-5.67 6.4z"/>
 <path class="cls-30" d="m3080.5 477.47 7.74-11.6a6.85 6.85 0 0 0-0.05-7.67l-7.48-10.89s-18.13-61.78-34-74c-2.56-2-6 0-9.33 2.57-7.92 6.12-23.77 23.3-32.28 32.73 5.76 9.15 12.88 17.73 18.79 26.9l18.3-21.51 21.92 47.21-10.27 21.64a8.56 8.56 0 0 0-0.09 7.14l7.82 6.28s11.89-3.9 15.63-6.68c12.46-9.24 3.3-12.12 3.3-12.12z"/>
 <path class="cls-36" d="M2861.59,371.72c-4.77,3.92-9.94,8.62-10.13,14.8a9.81,9.81,0,0,0,5.85,9.35c3.65,1.42,8.37-.26,9.92-3.86a5.32,5.32,0,0,0-.6-5.52c-1.28-1.46-3.87-1.74-5.17-.28"/>
 <path class="cls-36" d="m3076.6 471.52a12.51 12.51 0 0 0 1.37 17.06"/>
 <path class="cls-36" d="m3067.5 474.76a14.87 14.87 0 0 0 5.45 16.86"/>
 <path class="cls-36" d="M3059.9,479.5a10.75,10.75,0,0,0,.73,8.72,16.59,16.59,0,0,0,6.26,6.32"/>
 <path class="cls-20" d="M2962.73,679.54,2948,716.4c-2.35,5.88-4.71,11.8-6,18s-1.62,12.59-1.9,18.94c-.89,20-5.14,45.57-6,65.61"/>
 <path class="cls-37" d="m3095.7 701.42c-1.35 9.41-2.24 17.37-1.43 26.84a112.52 112.52 0 0 0 3.79 21 57.32 57.32 0 0 1 1.15 17.53c-2.39 23.68-4.17 40.2-6.22 58.77-1.11 10-1.95 14.05-2.47 23.47"/>
 <path class="cls-30" d="M2840.36,689.45s2.37.87,5.29-2.46c3.33-3.81,1.77-6.36,1.77-6.36Z"/>
 <path class="cls-36" d="M2859.72,668.46,2849.9,670a5.4,5.4,0,0,0-4.64,2.89l-4.89,6.93a6,6,0,0,0-1.13,2.23,18.25,18.25,0,0,0,0,2.34c-.12,1.81-1.37,3.3-2.27,4.87a1.78,1.78,0,0,0-.26,1.77c.48.79,1.69.47,2.53.06a25.84,25.84,0,0,0,6.08-3.76,8.69,8.69,0,0,0,3.09-6.24l5.17-2.68"/>
 <path class="cls-36" d="M2730.24,791.74a3.91,3.91,0,0,0,.88,2.94c1.26,1.41,3.1,1.44,5.26-.67,5.55-5.44,24.76-23.17,30.58-28.32"/>
 <path class="cls-31" d="m2639.6 838.14c31.65-11.16 69.64-1.16 91.69 24.14a82.1 82.1 0 0 1 45.9 10.91"/>
</svg>
