<?xml version="1.0" encoding="UTF-8"?><svg xmlns="http://www.w3.org/2000/svg" xmlns:xlink="http://www.w3.org/1999/xlink"><symbol viewBox="0 0 2.484 2.646" id="arrow" xmlns="http://www.w3.org/2000/svg"><path d="M1.026 2.65h.614l.843-1.495-.256-.144-.75 1.33V.005h-.294v2.33L.255.707 0 .852z"/></symbol><symbol viewBox="0 0 13.782 9.349" id="brand" xmlns="http://www.w3.org/2000/svg"><path class="bcls-1" d="M7.912.28C4.15-.593.647.674.078 3.098c-.57 2.423 2.03 5.106 5.791 5.98.21.047.416.087.62.124l-2.31-4.048.595-.339 2.167 3.797V3.175h.685V8.63l1.752-3.106.598.336-1.969 3.49c2.874.069 5.242-1.13 5.697-3.088.566-2.429-2.027-5.106-5.792-5.982z"/></symbol><symbol viewBox="1524.625 3953.3 66.234 64.4" style="-webkit-print-color-adjust:exact" id="github" xmlns="http://www.w3.org/2000/svg"><path d="M1557.745 3953.3c-18.299-.007-33.12 14.788-33.12 33.05 0 14.44 9.271 26.716 22.184 31.224 1.739.436 1.472-.798 1.472-1.64v-5.728c-10.041 1.175-10.448-5.461-11.121-6.57-1.362-2.32-4.58-2.912-3.619-4.02 2.287-1.175 4.618.295 7.318 4.279 1.954 2.89 5.765 2.402 7.696 1.921a9.32 9.32 0 0 1 2.568-4.493c-10.404-1.862-14.74-8.203-14.74-15.742 0-3.658 1.206-7.02 3.574-9.733-1.51-4.471.14-8.3.362-8.868 4.3-.385 8.769 3.074 9.117 3.348 2.442-.658 5.231-1.006 8.354-1.006 3.137 0 5.934.363 8.398 1.028.837-.636 4.98-3.607 8.976-3.245.215.57 1.828 4.309.407 8.721 2.398 2.72 3.619 6.112 3.619 9.777 0 7.554-4.366 13.902-14.8 15.735a9.417 9.417 0 0 1 2.82 6.725v8.314c.059.665 0 1.323 1.11 1.323 13.104-4.412 22.539-16.776 22.539-31.343 0-18.269-14.829-33.057-33.114-33.057Z" style="fill-opacity:1"/></symbol><symbol viewBox="1629.379 3953.576 63.928 63.848" style="-webkit-print-color-adjust:exact" id="linkedin" xmlns="http://www.w3.org/2000/svg"><path d="M1690.75 3953.576h-58.814a2.553 2.553 0 0 0-2.557 2.554v58.74a2.553 2.553 0 0 0 2.557 2.554h58.814a2.553 2.553 0 0 0 2.557-2.554v-58.74a2.553 2.553 0 0 0-2.557-2.554Zm-42.409 54.407h-9.485v-30.472h9.485v30.472Zm-4.738-34.638a5.494 5.494 0 0 1-5.498-5.491 5.494 5.494 0 0 1 5.498-5.491 5.494 5.494 0 0 1 5.497 5.491 5.504 5.504 0 0 1-5.497 5.49Zm40.25 34.638h-9.477v-14.821c0-3.536-.064-8.077-4.93-8.077-4.93 0-5.69 3.847-5.69 7.821v15.077h-9.47v-30.472h9.094v4.166h.128c1.263-2.394 4.355-4.924 8.974-4.924 9.605 0 11.371 6.313 11.371 14.517v16.713Z" style="fill-opacity:1"/></symbol><symbol viewBox="0 0 1600 40" xml:space="preserve" style="fill-rule:evenodd;clip-rule:evenodd;stroke-linejoin:round;stroke-miterlimit:2" id="singleColorDivider" xmlns="http://www.w3.org/2000/svg"><path d="M1600 40 1336 0 0 40h1600Z"/></symbol><symbol viewBox="0 0 1600 46" xml:space="preserve" style="fill-rule:evenodd;clip-rule:evenodd;stroke-linejoin:round;stroke-miterlimit:2" id="twoColorDivider" xmlns="http://www.w3.org/2000/svg"><path d="M264 0 0 40V0h264Z"/><path d="M1600.004 46 264 6 0 46v-6L264 0h1336.004v46Z"/></symbol></svg>