<?xml version="1.0" encoding="UTF-8" standalone="no"?>
<!DOCTYPE svg PUBLIC "-//W3C//DTD SVG 1.1//EN" "http://www.w3.org/Graphics/SVG/1.1/DTD/svg11.dtd">
<svg width="100%" height="100%" viewBox="0 0 788 640" version="1.1" xmlns="http://www.w3.org/2000/svg" xmlns:xlink="http://www.w3.org/1999/xlink" xml:space="preserve" xmlns:serif="http://www.serif.com/" style="fill-rule:evenodd;clip-rule:evenodd;stroke-linejoin:round;stroke-miterlimit:2;">
    <g transform="matrix(1,0,0,1,-118.028,-192.41)">
        <path d="M895.181,395.366L521.728,194.867C515.686,191.59 508.416,191.59 502.374,194.867L128.819,395.366C114.586,403.046 114.381,423.322 128.512,431.309L264.192,507.597L264.192,702.054C264.192,709.939 268.8,717.21 275.866,720.589L506.061,829.645C511.693,832.307 518.144,832.307 523.776,829.542L748.237,720.691C755.302,717.312 759.808,710.144 759.808,702.259L759.808,507.597L833.741,466.022L833.741,776.704C833.741,787.968 842.957,797.184 854.221,797.184C865.485,797.184 874.701,787.968 874.701,776.704L874.701,442.982L895.488,431.309C909.619,423.322 909.414,403.046 895.181,395.366ZM718.848,686.182L514.867,790.323L305.152,685.978L305.152,530.637L501.965,641.229C508.211,644.71 515.789,644.71 522.035,641.229L718.848,530.637L718.848,686.182ZM512,599.859L181.043,413.798L512,236.134L842.957,413.798L512,599.859Z" style="fill:white;fill-rule:nonzero;"/>
    </g>
</svg>
