<?xml version="1.0" encoding="utf-8"?>
<!-- Generator: Adobe Illustrator 26.0.0, SVG Export Plug-In . SVG Version: 6.00 Build 0)  -->
<svg version="1.1" id="Layer_1" xmlns="http://www.w3.org/2000/svg" xmlns:xlink="http://www.w3.org/1999/xlink" x="0px" y="0px"
	 viewBox="0 0 1024 1024" style="enable-background:new 0 0 1024 1024;" xml:space="preserve">
<style type="text/css">
	.st0{fill:url(#SVGID_1_);}
	.st1{fill:#FFFFFF;}
	.st2{fill:#0C2F39;}
</style>
<linearGradient id="SVGID_1_" gradientUnits="userSpaceOnUse" x1="-0.4234" y1="811.5718" x2="725.2473" y2="389.9578">
	<stop  offset="0" style="stop-color:#0C2F39"/>
	<stop  offset="1" style="stop-color:#155263"/>
</linearGradient>
<path class="st0" d="M852,1025.3H173.8c-95.5,0-172.9-77.4-172.9-172.9V174.2C0.9,78.7,78.3,1.3,173.8,1.3H852
	c95.5,0,172.9,77.4,172.9,172.9v678.2C1024.9,947.9,947.5,1025.3,852,1025.3z"/>
<g>
	<path class="st1" d="M841.3,458.6c-2-12.7-5.2-25.3-6.6-38.1c-1.8-15.6-6.2-30.7-12.5-45.1c-7.5-17-15.7-33.7-23.9-50.4
		c-2-4-4.7-7.8-7.7-11.2c-6.7-7.4-12.9-15.3-18.6-23.4c-8-11.4-16.8-22-27-31.5c-11.1-10.4-22.3-20.7-33.4-31.1
		c-6-5.6-12.6-10.4-19.7-14.4c-6.7-3.8-13.5-7.4-20.4-10.9c-9.4-4.6-19-8.6-29.3-10.6c-7.1-1.4-14.3-2.5-21.6-1.8
		c-4.2,0.4-8.1,1.4-10.1,5.7c-0.2,0.3-0.8,0.4-1.5,0.8c-1-0.2-2.4-0.2-3.7-0.6c-7.2-2-14.4-4-21.5-6.3c-4.1-1.3-7.5-1.1-10.6,2.1
		c-2.8,2.8-6,3.8-9.9,2.7c-1.7-0.5-3.6-0.4-5.4-0.6c-6.8-0.7-13.5-1.7-20.3-2.2c-10.4-0.8-20.8-2.1-31.2-1.4
		c-8.1,0.5-16.2,1.4-24.4,2.1c-10.6,0.9-21.1,2.8-31.5,5.2c-8.6,1.9-17.2,4.1-25.8,5.9c-13.5,2.8-27.1,5.5-40.6,8.2
		c-13.8,2.8-26,8.5-36.7,18.1c-16.7,15-33,30.4-49,46.3c-15.4,15.4-30.8,30.8-46.2,46.2c-1,1-1.7,2.7-3.9,2.4
		c0.5-1.1,0.8-2.1,1.3-3.1c6.6-12.7,13.2-25.3,19.7-38c1.6-3.2,3.1-6.6,4-10.1c1.1-4.2,0.7-8.5-2.2-12.2c-3.3-0.2-5.9,1.4-8.5,2.7
		c-9.3,4.9-17.7,11.1-24.8,18.9c-2.3,2.5-4.4,5.2-6,8.2c-6.3,12.3-12.5,24.7-18.3,37.2c-4,8.6-7,17.7-8.9,27.1
		c-0.5,2.7-1.2,5.3-2.3,7.8c-4.1,9.7-6.6,19.7-8.7,30c-2.9,14-6.3,27.9-6.6,42.3c-0.1,3.6-0.9,7.2-1.9,10.7
		c-1.3,4.4-1.9,8.8-1.8,13.4c0.5,15.9-1.6,31.7-3.3,47.5c-1.7,15.9-1.6,31.7,1.2,47.5c2.3,13.4,5,26.7,7.7,40.1
		c3.3,16.6,8.9,32.3,16.7,47.3c17.6,33.7,40.3,63.6,67.6,89.9c10.9,10.5,22.7,20.3,33.9,30.5c20,18.2,42.5,32.3,67.6,42.5
		c12.4,5,24.6,10.6,36.8,16c14.6,6.4,29.9,10.4,45.7,12.6c11,1.6,22.1,2.3,33.2,3.1c14.5,1.1,29,1.5,43.5,1
		c7.9-0.3,15.8-1.4,23.7-2.3c8.1-0.9,16.2-2.1,24.3-3.2c7.4-1,14.8-2.2,22-4.5c44.2-13.9,84.2-35.7,119.8-65.4
		c9.2-7.7,18.8-15,28.8-21.6c9.7-6.5,18.2-14.1,25.9-22.9c17.7-20.3,32.8-42.2,43.8-67c7.1-16,11.5-32.9,15.8-49.8
		c3-11.5,4.5-23.1,5.2-34.9c0.5-8.8,0.9-17.7,1-26.5c0.3-15.4,0.5-30.9,0.5-46.3C844.8,481.5,843.1,470,841.3,458.6z"/>
	<g>
		<path class="st2" d="M524.8,385.7c2.8,5.9,6.6,10,11.1,13.5c7.6,6.1,16.4,9.2,26.1,10c6.1,0.5,12.1,0.6,18.1-0.6
			c12.4-2.5,22.1-9.3,29.3-19.7c1.2-1.8,2.3-3.8,3.6-5.6c2.4-3.3,5.8-4.4,9.6-3.1c3.5,1.1,5.3,3.7,5.5,7.2
			c1.8,25.5-4.3,48.3-22.3,67.2c-8.2,8.5-17.8,15.2-28.4,20.2c-5.3,2.5-10.7,4.7-16,7.1c-2.2,1-4.4,1.9-6.6,2.9
			c-4.1,1.8-7.6,4.4-10.3,8.1c-5.4,7.2-12.5,12-21.3,13.9c-15.8,3.4-29.7-0.1-40.3-12.8c-3.9-4.7-8.3-7.9-14-9.9
			c-10.9-3.7-21.2-8.7-30.8-15.1c-9.1-6.1-17.1-13.4-23.8-22.1c-8.7-11.3-13.5-24.1-15.3-38.2c-0.8-6-1.1-12-1-18.1
			c0-1.6,0.1-3.2,0.5-4.8c0.8-3.1,2.7-5.3,6-6c3.5-0.7,6.4,0,8.7,2.8c0.9,1.1,1.6,2.3,2.3,3.5c8.2,13.5,20.2,20.9,35.7,23.1
			c17.6,2.5,32.5-3.4,45.1-15.4c1.4-1.4,2.6-3,3.8-4.7c0.7-0.9,1.1-2.1,1.8-3.4c-1.6-1.5-3-2.9-4.4-4.2c-3.2-2.8-6.5-5.5-9.5-8.4
			c-1.8-1.8-3.5-3.9-4.8-6.1c-2.7-4.6-2.4-9.2,0.4-13.7c0.5-0.9,1-1.8,1.7-2.5c5-4.6,9.8-9.7,15.3-13.6c8.4-5.9,17.5-5.8,25.9,0.4
			c5.2,3.8,9.9,8.3,14.3,12.9c5.7,5.8,5.9,14.2-0.3,20.6c-3.3,3.5-7,6.6-10.5,9.9C528.3,382.4,526.7,383.9,524.8,385.7z M505.7,405
			c-1.4,0.8-2.6,1.3-3.7,2.1c-2.3,1.6-4.5,3.5-6.9,4.9c-6,3.5-8.5,8.8-8.5,15.6c0,14.3,0,28.6,0.1,42.9c0,2,0.4,4,0.6,6
			c1,7.1,5,12.1,10.9,15.9c5.9,3.8,12.4,4.9,19.1,3.8c15.8-2.6,22.2-13,22.2-24.3c0-12.7,0.2-25.4,0.3-38.1c0-2.2-0.1-4.4-0.3-6.6
			c-1-10-6.6-16.6-15.9-20.1c-1-0.4-2.2-0.3-3.6-0.5c-0.3,1.3-0.6,2.2-0.7,3.2c-0.1,1.8-0.1,3.6-0.1,5.4c0,13.3,0,26.6,0,39.9
			c0,2,0,4.1-0.5,6c-0.7,2.8-3,4.3-5.8,4.4c-2.7,0.1-4.3-1.1-5.2-4.1c-0.5-1.7-0.8-3.5-1-5.3c-0.2-1.4-0.1-2.8-0.1-4.2
			c0-13.5,0-27,0-40.5C506.7,409.2,507.1,407.2,505.7,405z"/>
		<path class="st2" d="M457.5,322.5c0.3,10.3-8.5,17.2-17.3,16.9c-9.4-0.3-16.9-7.7-16.9-17c0-9.4,7.9-17.3,17.3-17.5
			C449.5,304.8,457.8,312.7,457.5,322.5z"/>
		<path class="st2" d="M585.2,339.3c-9.4-0.1-16.7-7.6-16.6-17.1c0.1-9.4,8.1-17.3,17.5-17.2c9.1,0.1,16.5,7.9,16.5,17.3
			C602.6,333.4,593.2,339.9,585.2,339.3z"/>
	</g>
	<g>
		<path class="st2" d="M579.3,695.1c-2.1,1.6-3.8,2.5-5,3.9c-5.2,6.5-11.8,8.6-20,7.7c-10.4-1.1-20.9-1.9-29.5-8.3
			c-3.5-2.6-6.8-6.4-8.4-10.4c-11.7-28.1-4.9-57.4-4.9-86.3c0-5.2-0.5-10.4,0.2-15.5c2-13.5,4.9-26.8,6.7-40.3
			c1.2-8.9,5.7-15.1,13.2-19.1c3.6-1.9,8-3.1,12-3.1c8.2-0.1,16.7-0.6,24.4,1.5c10.9,3,16.6,13.1,17.2,23.2
			c1,16.6-0.7,33.4-1.3,50.1c-0.2,5.1-3,6.8-7.9,6.9c-12,0.3-13.1-0.7-12-12.3c0.8-8.8,1.5-17.7,1.9-26.5c0.2-3.6,0-7.3-0.5-10.9
			c-1.2-8.4-4.9-12.5-10.9-12.8c-11.3-0.4-15.9,2.3-17.5,12.3c-2.3,14.8-4.5,29.7-5.4,44.6c-1.2,19.8-1.6,39.7-1.4,59.5
			c0,6.3,2.3,12.8,4.5,18.8c0.9,2.4,4.2,4.6,6.9,5.4c4.2,1.3,8.8,2.1,13.1,1.6c2.5-0.3,6.5-3.3,6.7-5.4c0.8-9,0.5-18,0.6-27
			c0-3.9-2.2-5.4-5.8-5.8c-2.3-0.3-4.6-1.2-6.8-1.1c-8.7,0.3-10.1-3.7-9.5-12c0.4-6,5.1-9.1,11.9-8.5c11.2,0.9,22.4,1.6,33.6,2.6
			c1.7,0.2,4.1,1.5,4.6,2.9c1.9,5.6,5.2,11.7,4.4,17.1c-2.2,14.7,1.5,28.3,4.7,42.2c2.2,9.3,4.5,18.6,6.7,27.9
			c2.8,11.6-2.8,17.6-14.6,15.3c-1.6-0.3-3.5-2.8-4-4.6C584.5,717.9,582.1,707.1,579.3,695.1z"/>
		<path class="st2" d="M312.7,699.2c0.1-1.4,0.3-3.5,0.3-5.6c0-43.1,0-86.1,0-129.2c0-7.1-1.2-8-8.2-6.6c-9.1,1.8-11.4,0-11.6-9.2
			c0-1.9-0.6-4.1,0.1-5.7c0.8-1.9,2.6-4.3,4.4-4.6c8.5-1.4,17.1-3.1,25.7-3.1c14.2,0,28.7,0.8,40.9,9.3c13.9,9.7,22.7,22.9,24.7,40
			c2.3,19.7,4.7,39.4,6,59.2c1.1,17.5-0.6,35-5.9,51.9c-1.4,4.4-2.2,9.2-4.7,12.8c-2.6,3.7-6.4,7.6-10.5,9
			c-6.5,2.2-13.6,3.1-20.4,3.4c-12.9,0.5-25.9,0.2-38.8,0.2c-1.2,0-2.5,0.3-3.4-0.2c-3.5-1.6-9.2-2.9-9.9-5.4
			c-1.1-3.9,0.5-9.2,2.4-13.1C304.7,700.3,309.1,700.3,312.7,699.2z M333.3,556.8c-0.2,2.5-0.5,5.2-0.5,7.8c0,42.5,0,84.9,0,127.4
			c0,1.7-0.3,3.6,0.2,5.2c0.3,1.2,1.7,3.1,2.5,3c9.2-0.3,18.4-0.8,27.6-1.6c1.5-0.1,3.5-2,4-3.5c5.4-14.9,8.9-30.4,8.1-46.3
			c-0.6-14-2.2-28-4-41.9c-1.4-10.2-2.5-20.8-6.2-30.4C360.1,563.5,348.6,555.9,333.3,556.8z"/>
		<path class="st2" d="M412.5,633.9c0-7.1,0.1-14.3,0-21.4c-0.3-13.2-1.4-26.3-1-39.5c0.3-9,2.2-18.2,8.5-25.2
			c6.7-7.5,14-14.1,24.7-16c15.8-2.7,31,4.9,37.3,20.1c5.8,14.2,6.3,28.9,5.9,44c-0.7,29.9,0,59.9-0.3,89.8
			c-0.1,12.8-4.8,24.3-14.7,32.6c-10.5,8.9-28.2,8.6-38.9-0.1c-8.2-6.7-14.1-14.3-16.6-25.8C412.9,673,412.2,653.6,412.5,633.9z
			 M431.9,637.4c1.1,13.8,1.6,27.9,3.4,41.7c1,7.9,5.1,14.9,11.1,20.4c5.4,4.9,12.8,3.8,14.6-2.2c4.7-16.3,7.7-33,6.5-50
			c-1.8-26.3,2-52.8-3.9-78.9c-1.7-7.3-5.6-13.6-11.9-14.4c-5-0.6-13.9,5.1-15,10.8c-2.1,11.1-3.9,22.4-4.6,33.7
			C431.3,611.4,431.9,624.3,431.9,637.4z"/>
		<path class="st2" d="M647.2,701.7c5,0,9.4,0.2,13.7,0c12.5-0.6,25-1.2,37.5-1.9c3.4-0.2,5,1.4,5.4,4.5c0.1,0.8,0.2,1.5,0.2,2.3
			c0.9,13,0.6,13-12.3,13.4c-15.2,0.4-30.3,1.6-45.5,2.1c-5.9,0.2-11.9-0.6-17.9-1.2c-5.4-0.5-7.9-10.2-4.8-16.2c1.6-3,2.9-6.6,3-10
			c0.2-48.6,0.2-97.3,0.2-145.9c0-0.8,0-1.5,0-2.3c0.5-12.4,0.5-13.1,14.4-13c3.9,0,5.7,1.9,5.8,5.6c0.1,4.2,0.3,8.5,0.3,12.7
			c0,47.5,0,94.9,0,142.4C647.2,696.4,647.2,698.7,647.2,701.7z"/>
		<g>
			<path class="st2" d="M716.5,554.5c-2.1-2.6-2.8-6.4-2.3-11.5c0.3-3.1,1.7-5.9,4-8.4c2.3-2.5,5.2-3.7,8.7-3.7
				c2.2,0,4.2,0.5,5.8,1.5c1.6,1,2.6,1.6,3,1.8c1.4,0.9,2.4,2.4,3.1,4.4c0.7,2,0.9,3.9,0.8,5.8c-0.3,4-1.6,7.4-3.9,10
				c-2.2,2.7-5.2,4-8.8,4C721.9,558.3,718.4,557,716.5,554.5z M716.1,715.6c-0.3-1.2-0.3-2.6-0.3-4.2c0.1-1.6,0.1-2.9,0.1-3.8
				l-0.3-28.8l0.3-36.5c0.2-5.7,0.3-11.7,0.3-18.1l-0.3-27.4v-11c4.8-1.6,9-2.5,12.4-2.5c4.5,0,7.1,1.2,8,3.6
				c0.5,1.5,0.8,4.8,0.8,10.1v9.6c-0.2,19-0.3,39.9-0.3,62.5v16.7v25.5c0,2.6-0.8,4.2-2.5,5.1c-1.6,0.8-3.9,1.2-6.8,1.2l-9.3-0.3
				C717.1,717.4,716.4,716.8,716.1,715.6z"/>
		</g>
	</g>
</g>
</svg>
