<svg xmlns="http://www.w3.org/2000/svg" width="219" height="50" viewBox="0 0 217.85 30.87" preserveAspectRatio="xMidYMid meet"><title>hasler-rail-logo</title><path d="M62.17,29.45h6.74l-.08.28c-.28,1.48-.14,2.56.48,3.24a4.47,4.47,0,0,0,3.41,1.09,6.62,6.62,0,0,0,3.4-.8,3.41,3.41,0,0,0,1.52-2.35c.32-1.51-1.09-2.61-4.24-3.37L72,27.21c-3.08-.8-5.15-1.83-6.19-3.16s-1.31-3.14-.8-5.52a11.09,11.09,0,0,1,4.38-7,14.92,14.92,0,0,1,8.85-2.43c3.48,0,5.86.76,7.21,2.2s1.77,3.73,1.23,6.8H80.21V18a2.4,2.4,0,0,0-.51-2.49,4.05,4.05,0,0,0-2.89-.82,6,6,0,0,0-3.24.75,3,3,0,0,0-1.52,2.1q-.48,2.1,4.1,3.24c.51.11.94.25,1.23.32h.26C81,22,83.06,23,83.94,24.26a5.51,5.51,0,0,1,1,2.63,9.45,9.45,0,0,1-.22,3.39,11.18,11.18,0,0,1-4.49,7.08A15.17,15.17,0,0,1,71.09,40c-3.73,0-6.34-.83-7.86-2.45S61.31,33.42,62,30.15Z" transform="translate(0 -9.12)" fill="#f79239"/><path d="M92.36,9.35,86,39.22h19.27l1.41-6.49H94.13l5-23.34Z" transform="translate(0 -9.12)" fill="#f79239"/><path d="M114.74,9.35l-6.45,29.87H129l1.41-6.46H116.27L117.46,27h13.08l1.31-6.12h-13L120,15.72h13.7L135,9.35Z" transform="translate(0 -9.12)" fill="#f79239"/><path d="M160.72,13.16A4.37,4.37,0,0,0,159,10.6a6.73,6.73,0,0,0-2.43-1,24.51,24.51,0,0,0-4.28-.29h-13l-6.41,29.87h6.56l2.47-11.38h4c2.1,0,3.41.25,3.8.75a4.59,4.59,0,0,1,.4,3.17l-.4,4a3.69,3.69,0,0,1,0,.47,13,13,0,0,0-.08,3h7a46.62,46.62,0,0,1,.29-6.58c.25-2.56.36-4.14.36-4.79a3.25,3.25,0,0,0-1.2-2.59,6.08,6.08,0,0,0-3.51-.84A11.3,11.3,0,0,0,158,21.82a9.13,9.13,0,0,0,2.71-5A7.89,7.89,0,0,0,160.72,13.16Zm-7.35,5.4a4,4,0,0,1-1.75,2.74,8.15,8.15,0,0,1-4.27.78h-4.2l1.49-7h4.28c2.06,0,3.4.27,4,.76S153.62,17.3,153.37,18.56Z" transform="translate(0 -9.12)" fill="#f79239"/><path d="M192.12,19.79c-1.2-1.35-3.37-2-6.48-2a15.31,15.31,0,0,0-7.72,1.63,8.33,8.33,0,0,0-3.88,5h6.45a3.55,3.55,0,0,1,1.47-1.9,5,5,0,0,1,2.67-.62,2.35,2.35,0,0,1,2.14.9,3.26,3.26,0,0,1,.25,2.59.72.72,0,0,1-.07.25,1.07,1.07,0,0,1-.11.33h-3.07a37.1,37.1,0,0,0-5.77.35,8,8,0,0,0-3,1.18A8.33,8.33,0,0,0,172.5,30a10.69,10.69,0,0,0-1.41,3.38,5.21,5.21,0,0,0,.72,4.64c.91,1.12,2.42,1.66,4.53,1.66a12.39,12.39,0,0,0,4.93-.9,9.1,9.1,0,0,0,3.58-2.67l-.07.4a11.64,11.64,0,0,0-.22,1.44,6.32,6.32,0,0,0,0,1.23h6a7.75,7.75,0,0,1,0-1.18,10.34,10.34,0,0,1,.25-1.56l2.32-10.61C193.65,23.09,193.32,21.12,192.12,19.79ZM186,30.28a6.62,6.62,0,0,1-1.88,3.56,5.23,5.23,0,0,1-3.49,1.25,3.41,3.41,0,0,1-2.29-.61,1.61,1.61,0,0,1-.4-1.69,3.08,3.08,0,0,1,2-2.31,17.74,17.74,0,0,1,5.66-.65h.52Z" transform="translate(0 -9.12)" fill="#231f20"/><path d="M163.07,9.28a25,25,0,0,1,4.32.29,7.4,7.4,0,0,1,2.39,1,4.46,4.46,0,0,1,1.7,2.5,7.81,7.81,0,0,1,0,3.66,9.09,9.09,0,0,1-2.71,5,11.23,11.23,0,0,1-5.44,2.55,6.38,6.38,0,0,1,3.55.84A3.37,3.37,0,0,1,168,27.7c0,.64-.11,2.22-.36,4.78a46.76,46.76,0,0,0-.29,6.59h-6.85a47.29,47.29,0,0,1,.29-6.52c.25-2.56.36-4.14.36-4.79A3.27,3.27,0,0,0,160,25.17a6.3,6.3,0,0,0-3.52-.84,11.12,11.12,0,0,0,5.44-2.54c.25-.26.5-.51.72-.76a4.33,4.33,0,0,0,1.45-2.47,14.74,14.74,0,0,0,.54-1.83,7.89,7.89,0,0,0,0-3.68,4.34,4.34,0,0,0-1.7-2.45,6.66,6.66,0,0,0-2.43-1,24.81,24.81,0,0,0-4.31-.22Z" transform="translate(0 -9.12)" fill="#231f20"/><path d="M200.65,9.28l-1.26,5.83h6.84l1.23-5.83Zm-6.16,29.87L199,18.36h6.38l-4.5,20.73Z" transform="translate(0 -9.12)" fill="#231f20"/><path d="M211.48,9.28l-6.42,29.81h6.38l6.41-29.82Z" transform="translate(0 -9.12)" fill="#231f20"/><path d="M25.14,9.6,22.65,21.09H10.7L13.19,9.6H6.41L0,39.38H6.78L9.35,27.32H21.29l-2.6,12.06h6.78L31.92,9.51Z" transform="translate(0 -9.12)" fill="#f79239"/><path d="M54.16,9.6H46.09L27.25,39.46h7.17l3.52-6h13l.82,6h7.69ZM41.41,27.52l7-11.46L50,27.52Z" transform="translate(0 -9.12)" fill="#f79239"/></svg>