<?xml version="1.0" encoding="utf-8"?>
<!-- Generator: Adobe Illustrator 27.2.0, SVG Export Plug-In . SVG Version: 6.00 Build 0)  -->
<svg version="1.1" id="Ebene_1" xmlns="http://www.w3.org/2000/svg" xmlns:xlink="http://www.w3.org/1999/xlink" x="0px" y="0px"
	 viewBox="0 0 595.28 595.28" style="enable-background:new 0 0 595.28 595.28;" xml:space="preserve">
<style type="text/css">
	.st0{fill:#FFFFFF;}
</style>
<circle cx="297.64" cy="297.64" r="260.96"/>
<g>
	<polygon class="st0" points="460.45,170.48 460.45,280.18 433.71,280.18 417.78,316.03 401.86,280.18 166.12,280.18 166.12,170.48
			"/>
</g>
<g>
	<polygon class="st0" points="393.82,313.65 393.82,423.34 200,423.34 184.07,459.2 168.15,423.34 134.82,423.34 134.82,313.65 	"/>
</g>
<g>
	<path d="M224.98,210.42c3.69,2.36,5.81,6.43,6.35,12.19h-12.32c-0.17-1.58-0.62-2.84-1.34-3.76c-1.35-1.67-3.66-2.51-6.92-2.51
		c-2.68,0-4.59,0.42-5.73,1.25c-1.14,0.84-1.71,1.81-1.71,2.94c0,1.41,0.6,2.43,1.81,3.07c1.21,0.66,5.49,1.8,12.84,3.41
		c4.9,1.15,8.57,2.9,11.02,5.23c2.42,2.36,3.63,5.32,3.63,8.86c0,4.67-1.74,8.48-5.21,11.43c-3.47,2.95-8.84,4.43-16.1,4.43
		c-7.41,0-12.87-1.56-16.4-4.69c-3.53-3.13-5.29-7.11-5.29-11.95h12.49c0.26,2.19,0.82,3.75,1.69,4.67
		c1.53,1.64,4.35,2.46,8.47,2.46c2.42,0,4.34-0.36,5.77-1.08c1.43-0.72,2.14-1.8,2.14-3.24c0-1.38-0.58-2.43-1.73-3.16
		c-1.15-0.72-5.43-1.96-12.84-3.72c-5.33-1.32-9.09-2.98-11.28-4.97c-2.19-1.96-3.28-4.78-3.28-8.47c0-4.35,1.71-8.09,5.12-11.21
		c3.41-3.13,8.22-4.69,14.41-4.69C216.47,206.92,221.26,208.08,224.98,210.42z"/>
	<path d="M282.5,225.15h-12.62c-0.23-1.76-0.82-3.34-1.77-4.75c-1.38-1.9-3.53-2.85-6.44-2.85c-4.15,0-6.99,2.06-8.51,6.18
		c-0.81,2.19-1.21,5.1-1.21,8.73c0,3.46,0.4,6.24,1.21,8.34c1.47,3.92,4.24,5.88,8.3,5.88c2.88,0,4.93-0.78,6.14-2.33
		s1.94-3.57,2.2-6.05h12.58c-0.29,3.75-1.64,7.29-4.06,10.63c-3.86,5.39-9.58,8.08-17.16,8.08c-7.58,0-13.15-2.25-16.73-6.74
		c-3.57-4.5-5.36-10.33-5.36-17.5c0-8.1,1.97-14.39,5.92-18.89c3.95-4.5,9.39-6.74,16.34-6.74c5.91,0,10.74,1.33,14.5,3.98
		C279.59,213.76,281.81,218.44,282.5,225.15z"/>
	<path d="M333.54,227.7v27.66h-12.58v-28.65c0-2.54-0.43-4.58-1.3-6.14c-1.12-2.19-3.26-3.28-6.4-3.28c-3.26,0-5.73,1.09-7.41,3.26
		c-1.68,2.18-2.53,5.28-2.53,9.31v25.5h-12.27v-63.49h12.27v22.52c1.79-2.74,3.85-4.65,6.2-5.73c2.35-1.08,4.82-1.62,7.41-1.62
		c2.91,0,5.55,0.5,7.93,1.51c2.38,1.01,4.33,2.55,5.86,4.62c1.3,1.76,2.09,3.57,2.38,5.42C333.4,220.46,333.54,223.5,333.54,227.7z"
		/>
	<path d="M346.81,213.35c3.26-4.15,8.84-6.22,16.77-6.22c5.16,0,9.74,1.02,13.74,3.07c4,2.05,6.01,5.91,6.01,11.58v21.61
		c0,1.5,0.03,3.31,0.09,5.45c0.09,1.61,0.33,2.71,0.73,3.29c0.4,0.58,1.01,1.05,1.82,1.43v1.82h-13.4
		c-0.38-0.95-0.63-1.84-0.78-2.68c-0.14-0.83-0.26-1.79-0.35-2.85c-1.7,1.84-3.66,3.41-5.88,4.71c-2.65,1.53-5.65,2.29-8.99,2.29
		c-4.26,0-7.79-1.22-10.57-3.65c-2.78-2.43-4.17-5.88-4.17-10.35c0-5.79,2.23-9.98,6.7-12.58c2.45-1.41,6.05-2.42,10.8-3.03
		l4.19-0.52c2.28-0.29,3.9-0.65,4.88-1.08c1.76-0.75,2.64-1.92,2.64-3.5c0-1.93-0.67-3.26-2.01-4c-1.34-0.74-3.31-1.1-5.9-1.1
		c-2.91,0-4.97,0.72-6.18,2.16c-0.86,1.07-1.44,2.51-1.73,4.32h-11.88C343.61,219.39,344.76,216,346.81,213.35z M355.97,246.46
		c1.15,0.95,2.56,1.43,4.24,1.43c2.65,0,5.09-0.78,7.33-2.33c2.23-1.56,3.39-4.39,3.48-8.51v-4.58c-0.78,0.49-1.56,0.89-2.36,1.19
		c-0.79,0.3-1.88,0.58-3.26,0.84l-2.77,0.52c-2.59,0.46-4.45,1.02-5.57,1.69c-1.9,1.12-2.85,2.87-2.85,5.23
		C354.2,244.02,354.79,245.54,355.97,246.46z"/>
	<path d="M394.52,191.66h12.32v63.7h-12.32V191.66z"/>
	<path d="M440.42,246.59v9.21l-5.83,0.22c-5.82,0.2-9.8-0.81-11.93-3.03c-1.38-1.41-2.07-3.59-2.07-6.53v-29h-6.57v-8.77h6.57
		v-13.14h12.19v13.14h7.65v8.77h-7.65v24.89c0,1.93,0.24,3.13,0.73,3.61c0.49,0.48,1.99,0.71,4.49,0.71c0.38,0,0.77-0.01,1.19-0.02
		S440.01,246.62,440.42,246.59z"/>
</g>
<g>
	<path d="M204.13,372.08v29.01h-13.19v-30.05c0-2.66-0.45-4.8-1.36-6.44c-1.18-2.3-3.42-3.45-6.71-3.45c-3.42,0-6.01,1.14-7.77,3.42
		c-1.77,2.28-2.65,5.54-2.65,9.77v26.75h-12.87V334.5h12.87v23.62c1.87-2.87,4.04-4.87,6.5-6.01c2.46-1.13,5.05-1.7,7.77-1.7
		c3.05,0,5.83,0.53,8.32,1.59c2.49,1.06,4.54,2.67,6.14,4.85c1.36,1.84,2.19,3.74,2.49,5.69
		C203.98,364.49,204.13,367.67,204.13,372.08z"/>
	<path d="M220.46,357.03c3.41-4.35,9.28-6.53,17.59-6.53c5.41,0,10.21,1.07,14.42,3.22c4.2,2.15,6.3,6.2,6.3,12.15v22.67
		c0,1.57,0.03,3.48,0.09,5.71c0.09,1.69,0.35,2.84,0.77,3.45c0.42,0.6,1.06,1.1,1.9,1.5v1.9h-14.05c-0.39-1-0.67-1.93-0.82-2.81
		c-0.15-0.88-0.27-1.87-0.36-2.99c-1.78,1.93-3.84,3.58-6.17,4.94c-2.78,1.6-5.92,2.4-9.43,2.4c-4.47,0-8.17-1.28-11.08-3.83
		c-2.92-2.55-4.37-6.17-4.37-10.86c0-6.08,2.34-10.47,7.03-13.19c2.57-1.48,6.35-2.54,11.33-3.17l4.4-0.54
		c2.39-0.3,4.09-0.68,5.12-1.13c1.84-0.79,2.77-2.01,2.77-3.67c0-2.02-0.7-3.42-2.11-4.19s-3.47-1.16-6.19-1.16
		c-3.05,0-5.21,0.76-6.48,2.27c-0.91,1.12-1.51,2.63-1.81,4.53h-12.47C217.1,363.36,218.31,359.81,220.46,357.03z M230.07,391.75
		c1.21,1,2.69,1.5,4.44,1.5c2.78,0,5.34-0.82,7.68-2.45c2.34-1.63,3.56-4.61,3.65-8.93v-4.8c-0.82,0.51-1.64,0.93-2.47,1.25
		c-0.83,0.32-1.97,0.61-3.42,0.88l-2.9,0.54c-2.72,0.48-4.67,1.07-5.85,1.77c-1.99,1.18-2.99,3.01-2.99,5.49
		C228.21,389.2,228.83,390.79,230.07,391.75z"/>
	<path d="M272.92,334.27h12.92v66.82h-12.92V334.27z"/>
	<path d="M300.2,334.27h12.92v66.82H300.2V334.27z"/>
	<path d="M370.43,386.58c-0.33,2.93-1.86,5.91-4.58,8.93c-4.23,4.81-10.15,7.21-17.77,7.21c-6.29,0-11.83-2.02-16.64-6.07
		c-4.8-4.05-7.21-10.64-7.21-19.76c0-8.55,2.17-15.11,6.5-19.67c4.34-4.56,9.96-6.85,16.89-6.85c4.11,0,7.81,0.77,11.11,2.31
		c3.29,1.54,6.01,3.97,8.16,7.3c1.93,2.93,3.19,6.33,3.76,10.2c0.33,2.27,0.47,5.53,0.41,9.79h-33.82
		c0.18,4.96,1.74,8.43,4.67,10.43c1.78,1.24,3.93,1.86,6.44,1.86c2.66,0,4.82-0.75,6.48-2.27c0.91-0.82,1.71-1.95,2.4-3.4H370.43z
		 M357.64,371.44c-0.21-3.42-1.25-6.01-3.1-7.77c-1.86-1.77-4.16-2.65-6.91-2.65c-2.99,0-5.31,0.94-6.96,2.81
		c-1.65,1.87-2.68,4.41-3.11,7.62H357.64z"/>
</g>
</svg>
