<svg xmlns="http://www.w3.org/2000/svg" viewBox="0 0 165.58295 49.403633" height="186.722" width="625.825"><defs><clipPath id="a"><path d="M0 140.042h469.369V0H0z"/></clipPath></defs><g clip-path="url(#a)" transform="matrix(.35278 0 0 -.35278 0 49.404)"><path d="M4.507 12.012c1.314-.046 3.458-.14 4.634.6.807.506 1.268 1.498 1.268 2.49 0 1.36-.76 2.443-2.029 2.789-.392.093-.784.115-1.176.139H4.507zm2.835 8.254c.67-.023 2.283 0 3.713-1.176.23-.207.691-.622 1.083-1.291.185-.323.438-.853.577-1.775.023-.14.092-.646.092-1.153 0-1.292-.415-2.536-1.383-3.413-.876-.83-1.822-1.083-2.929-1.383l4.496-5.948H9.925L4.53 11.32V4.173H2.086v16.093zM25 11.55c-.139.485-.254.923-.992 1.638-.415.369-1.29 1.13-2.812 1.13-.53 0-.946-.092-1.13-.162-1.29-.345-2.006-1.153-2.283-1.568-.207-.322-.323-.691-.438-1.037zm-7.793-2.19c.161-.484.37-1.06.668-1.498.346-.531 1.5-1.661 3.297-1.661.44 0 1.707.093 2.698 1.038.277.254.438.485.646.785L27.098 8c-.392-.9-.599-1.221-.922-1.636-1.706-2.191-4.127-2.445-5.027-2.445-.69 0-2.236.139-3.757 1.245C15.086 6.8 14.81 9.29 14.81 10.282c0 .439.046 1.407.507 2.468 1.038 2.398 3.367 3.85 5.903 3.85.415 0 1.291-.023 2.26-.415 2.028-.807 3.62-2.697 3.965-4.842.092-.668.046-1.291 0-1.96zM32.282 16.37v-.992c.161.161.37.415.784.691.392.3 1.268.784 2.582.784a4.65 4.65 0 0 0 1.568-.276c1.383-.462 2.513-1.614 2.928-2.998.231-.76.277-1.522.3-2.328V4.15h-2.306v6.941c-.069 1.13-.138 2.236-1.037 3.02-.323.277-.738.576-1.637.576-.323 0-1.176 0-1.96-.623-1.084-.876-1.176-2.097-1.222-3.412V4.173h-2.329V16.37zM45.352 8.83c.668-1.684 2.213-2.629 3.965-2.629.762 0 1.315.208 1.568.3 1.407.645 2.513 2.214 2.513 3.828a4.31 4.31 0 0 1-.393 1.73 4.17 4.17 0 0 1-3.78 2.374c-.923 0-1.845-.3-2.56-.854a4.078 4.078 0 0 1-1.59-3.135c-.024-.323 0-.877.276-1.614m-1.06 5.511c1.199 1.475 3.113 2.328 5.003 2.328.715 0 2.444-.139 4.012-1.452 2.052-1.73 2.329-4.059 2.329-4.98 0-.76-.184-2.56-1.568-4.15-1.706-1.938-3.965-2.168-4.842-2.168-.738 0-2.56.161-4.173 1.545-1.383 1.176-2.213 2.997-2.213 4.842 0 .714.16 2.466 1.452 4.035M62.063 7.354l2.651 7.31.646 1.705h2.49L62.962 4.126h-1.89l-4.796 12.197h2.444zM71.56 7.815c.737-1.037 2.005-1.637 3.296-1.637.9 0 1.846.323 2.56.876.437.346 1.521 1.452 1.521 3.158 0 .254-.045.831-.3 1.5-.621 1.59-2.074 2.605-3.757 2.605-2.167 0-3.943-1.59-4.104-3.78-.092-1.338.507-2.33.784-2.722m7.424 8.577h2.283V4.127H78.96V5.97c-.092-.115-.438-.552-.807-.876-1.245-1.13-2.767-1.198-3.343-1.198-.738 0-2.513.161-4.058 1.43-1.43 1.175-2.26 3.043-2.26 4.98 0 1.43.462 2.881 1.338 3.988 1.176 1.453 3.02 2.305 4.888 2.305.553 0 1.82-.046 3.112-.945.46-.322.76-.6 1.153-.99zM84.513 16.347v3.942h2.33v-3.92h1.96v-1.821h-1.96V4.104h-2.33v10.444h-1.568v1.799zM93.088 17.614h-2.306v2.651h2.306zm-.023-13.465h-2.329v12.266h2.329zM97.975 8.83c.668-1.684 2.213-2.629 3.965-2.629.762 0 1.315.208 1.568.3 1.407.645 2.513 2.214 2.513 3.828a4.31 4.31 0 0 1-.392 1.73 4.17 4.17 0 0 1-3.781 2.374c-.922 0-1.844-.3-2.559-.854a4.078 4.078 0 0 1-1.591-3.135c-.023-.323 0-.877.277-1.614m-1.061 5.511c1.199 1.475 3.113 2.328 5.003 2.328.715 0 2.444-.139 4.012-1.452 2.052-1.73 2.329-4.059 2.329-4.98 0-.76-.184-2.56-1.568-4.15-1.706-1.938-3.965-2.168-4.842-2.168-.738 0-2.559.161-4.173 1.545-1.383 1.176-2.213 2.997-2.213 4.842 0 .714.161 2.466 1.452 4.035M112.957 16.37v-.992c.162.161.37.415.785.691.391.3 1.267.784 2.581.784a4.65 4.65 0 0 0 1.569-.276c1.382-.462 2.512-1.614 2.927-2.998.231-.76.277-1.522.3-2.328V4.15h-2.306v6.941c-.069 1.13-.138 2.236-1.037 3.02-.323.277-.738.576-1.637.576-.323 0-1.176 0-1.96-.623-1.084-.876-1.176-2.097-1.222-3.412V4.173h-2.328V16.37zM151.89 16.323c-.092.346-.208.691-.392.97-.346.53-1.015.851-1.706.851-1.107 0-1.983-.784-1.96-1.936 0-.323.069-1.037.692-1.569.553-.437 1.406-.69 2.052-.92.553-.186 1.084-.37 1.59-.67 2.237-1.245 2.49-3.159 2.49-4.15 0-1.66-.807-2.79-1.175-3.25-.923-1.085-2.375-1.753-3.804-1.753-1.891 0-3.69 1.061-4.474 2.835-.3.67-.415 1.407-.507 2.145h2.513c0-.369.024-.6.116-.922.346-.969 1.314-1.614 2.328-1.614.462 0 .854.138.992.184.876.37 1.498 1.268 1.498 2.237 0 .208-.045.714-.322 1.221-.646 1.13-2.006 1.384-3.113 1.8a5.757 5.757 0 0 0-1.222.575c-.692.44-2.098 1.453-2.098 3.736 0 2.536 1.89 4.472 4.404 4.472 1.614 0 3.159-.83 3.919-2.282.254-.484.369-.876.576-1.96zM166.55 12.242c-.208.276-.415.554-.646.807-.437.438-1.268 1.268-2.905 1.268a4.155 4.155 0 0 1-2.697-.969c-1.222-1.06-1.406-2.512-1.406-3.088 0-.485.092-1.499.853-2.49 1.06-1.407 2.697-1.546 3.297-1.546.16 0 .599 0 1.083.14 1.13.3 1.66.921 2.398 1.843l2.49-.023c-.576-1.153-1.037-2.098-2.03-2.859-.506-.392-2.051-1.406-4.011-1.429-.738 0-2.513.184-4.15 1.544-1.96 1.66-2.213 3.92-2.213 4.82 0 1.428.53 2.904 1.406 4.011a6.463 6.463 0 0 0 4.957 2.352 6.376 6.376 0 0 0 5.096-2.56c.346-.437.553-.83.99-1.82zM173.14 20.22v-4.75c.392.369.53.484.784.669.392.254 1.268.69 2.56.69.622 0 2.12-.114 3.388-1.381a4.227 4.227 0 0 0 1.038-1.661c.23-.623.3-1.13.392-2.421v-7.24h-2.306v7.149c0 .299-.023.622-.069.922-.046.437-.162 1.36-1.222 2.029a3.118 3.118 0 0 1-1.614.46c-.346 0-.645-.07-.76-.092-.485-.138-1.615-.6-2.03-1.936-.138-.392-.16-.67-.16-1.43V4.15h-2.33v16.07zM186.348 15.078c.115.161.3.37.438.53.715.715 1.845.922 2.79 1.084v-2.375c-.139 0-.669 0-1.13-.115-1.96-.484-1.96-2.56-1.983-3.044V4.173h-2.35v12.22h2.235zM200.987 11.55c-.14.485-.254.923-.992 1.638-.415.369-1.291 1.13-2.812 1.13-.53 0-.946-.092-1.13-.162-1.291-.345-2.006-1.153-2.283-1.568-.207-.322-.323-.691-.438-1.037zm-7.793-2.19c.16-.484.369-1.06.668-1.498.346-.531 1.499-1.661 3.297-1.661.439 0 1.707.093 2.698 1.038.277.254.438.485.646.785L203.085 8c-.392-.9-.6-1.221-.922-1.636-1.706-2.191-4.127-2.445-5.027-2.445-.691 0-2.236.139-3.757 1.245-2.306 1.637-2.583 4.127-2.583 5.118 0 .439.046 1.407.507 2.468 1.038 2.398 3.367 3.85 5.903 3.85.415 0 1.29-.023 2.259-.415 2.029-.807 3.62-2.697 3.966-4.842.092-.668.046-1.291 0-1.96zM208.291 17.614h-2.306v2.651h2.306zm-.023-13.465h-2.329v12.266h2.329zM213.409 16.37v-.992c.16.161.369.415.784.691.392.3 1.268.784 2.582.784a4.65 4.65 0 0 0 1.568-.276c1.383-.462 2.513-1.614 2.928-2.998.23-.76.277-1.522.3-2.328V4.15h-2.306v6.941c-.07 1.13-.138 2.236-1.037 3.02-.323.277-.738.576-1.637.576-.323 0-1.176 0-1.96-.623-1.084-.876-1.176-2.097-1.222-3.412V4.173h-2.33V16.37zM234.179 11.55c-.14.485-.254.923-.992 1.638-.415.369-1.291 1.13-2.812 1.13-.53 0-.946-.092-1.13-.162-1.291-.345-2.006-1.153-2.283-1.568-.207-.322-.323-.691-.438-1.037zm-7.793-2.19c.16-.484.369-1.06.668-1.498.346-.531 1.499-1.661 3.297-1.661.439 0 1.707.093 2.698 1.038.277.254.438.485.646.785L236.277 8c-.392-.9-.6-1.221-.922-1.636-1.706-2.191-4.127-2.445-5.027-2.445-.691 0-2.236.139-3.757 1.245-2.306 1.637-2.583 4.127-2.583 5.118 0 .439.046 1.407.507 2.468 1.038 2.398 3.367 3.85 5.903 3.85.415 0 1.29-.023 2.259-.415 2.029-.807 3.62-2.697 3.966-4.842.092-.668.046-1.291 0-1.96zM241.368 15.078c.115.161.3.37.438.53.715.715 1.845.922 2.79 1.084v-2.375c-.139 0-.669 0-1.13-.115-1.96-.484-1.96-2.56-1.983-3.044V4.173h-2.35v12.22h2.235zM248.86 7.815c.736-1.037 2.005-1.637 3.296-1.637.9 0 1.845.323 2.56.876.437.346 1.521 1.452 1.521 3.158 0 .254-.046.831-.3 1.5-.622 1.59-2.075 2.605-3.758 2.605-2.168 0-3.942-1.59-4.104-3.78-.092-1.338.508-2.33.784-2.722m7.424 8.577h2.283V4.127h-2.306V5.97c-.092-.115-.438-.552-.807-.876-1.245-1.13-2.767-1.198-3.343-1.198-.738 0-2.514.161-4.058 1.43-1.429 1.175-2.259 3.043-2.259 4.98 0 1.43.461 2.881 1.337 3.988 1.175 1.453 3.02 2.305 4.887 2.305.554 0 1.822-.046 3.113-.945.461-.322.761-.6 1.153-.99zM263.68 15.078c.116.161.3.37.439.53.714.715 1.844.922 2.79 1.084v-2.375c-.138 0-.668 0-1.13-.115-1.96-.484-1.96-2.56-1.983-3.044V4.173h-2.351v12.22h2.236zM271.564 8.876c.553-1.614 2.144-2.675 3.827-2.675.485 0 1.637.093 2.674.969 1.27 1.06 1.43 2.513 1.43 3.09 0 2.328-1.89 4.034-4.104 4.034-.323 0-.992-.022-1.729-.368-1.29-.6-2.19-1.938-2.329-3.366a4.484 4.484 0 0 1 .231-1.684m-.254 11.344v-5.649c.023.046.322.438.576.668.485.462 1.822 1.384 3.69 1.384a6.072 6.072 0 0 0 2.374-.484c2.398-1.037 3.781-3.228 3.781-5.857 0-1.706-.622-3.458-1.82-4.611-.439-.415-.693-.599-1.638-1.129-.99-.393-1.684-.645-2.744-.645-.46 0-2.028.068-3.228 1.013-.438.346-.968.992-1.014 1.061V4.173h-2.283V20.22zM294.04 11.55c-.139.485-.254.923-.991 1.638-.415.369-1.291 1.13-2.814 1.13-.53 0-.945-.092-1.13-.162-1.291-.345-2.005-1.153-2.282-1.568-.207-.322-.322-.691-.437-1.037zm-7.793-2.19c.161-.484.369-1.06.669-1.498.346-.531 1.498-1.661 3.297-1.661.437 0 1.706.093 2.697 1.038.276.254.439.485.646.785L296.138 8c-.392-.9-.6-1.221-.922-1.636-1.706-2.191-4.127-2.445-5.027-2.445-.691 0-2.236.139-3.757 1.245-2.306 1.637-2.582 4.127-2.582 5.118 0 .439.045 1.407.506 2.468 1.038 2.398 3.367 3.85 5.903 3.85.415 0 1.291-.023 2.26-.415 2.028-.807 3.619-2.697 3.964-4.842.093-.668.047-1.291 0-1.96zM301.345 17.614h-2.306v2.651h2.306zm-.024-13.465h-2.328v12.266h2.328zM304.502 16.347v3.942h2.328v-3.92h1.96v-1.821h-1.96V4.104h-2.328v10.444h-1.568v1.799zM334.604 20.29v-7.01h6.226v6.986h2.443V4.127h-2.467v6.848h-6.225V4.173h-2.444V20.29zM348.873 7.815c.737-1.037 2.006-1.637 3.297-1.637.899 0 1.845.323 2.559.876.438.346 1.522 1.452 1.522 3.158 0 .254-.046.831-.3 1.5-.622 1.59-2.075 2.605-3.758 2.605-2.168 0-3.942-1.59-4.104-3.78-.092-1.338.508-2.33.784-2.722m7.424 8.577h2.283V4.127h-2.306V5.97c-.092-.115-.438-.552-.807-.876-1.245-1.13-2.767-1.198-3.343-1.198-.738 0-2.514.161-4.058 1.43-1.429 1.175-2.259 3.043-2.259 4.98 0 1.43.461 2.881 1.337 3.988 1.175 1.453 3.02 2.305 4.887 2.305.554 0 1.822-.046 3.113-.945.461-.322.761-.6 1.153-.99zM363.786 16.439V9.615c.047-1.291.14-2.49 1.245-3.275.231-.138.808-.484 1.614-.484 1.27 0 2.491.854 2.836 2.145.116.345.14.69.14 1.452v6.986h2.327V4.173h-2.306v.968c-.437-.415-.576-.553-.852-.737-.415-.277-1.245-.67-2.468-.67-1.406 0-2.997.6-3.849 1.8-.946 1.314-.992 3.112-1.015 4.679v6.226zM379.945 13.372c-.16.507-.276.922-.737 1.222a1.52 1.52 0 0 1-.762.208c-.76 0-1.406-.6-1.406-1.384 0-.369.162-.622.23-.737.323-.53.693-.693 1.753-1.015.53-.185.945-.3 1.43-.576.622-.347 1.936-1.245 1.936-3.205 0-.739-.208-1.315-.323-1.545-.645-1.545-2.144-2.375-3.804-2.375-2.375 0-3.343 1.683-3.643 2.49-.138.393-.23.854-.368 1.706h2.258a6.67 6.67 0 0 1 .116-.645 1.76 1.76 0 0 1 .876-1.176c.184-.115.484-.254.968-.254.324 0 .622.093.74.14.597.252.736.737.897 1.36-.022.368-.022.506-.092.69-.254.83-1.22 1.176-1.983 1.43-.876.254-1.268.415-1.637.623-1.429.83-1.613 2.236-1.613 2.858 0 .692.23 1.291.322 1.5.622 1.313 2.052 2.097 3.505 2.097.483-.022 1.683-.115 2.606-1.152.598-.669.76-1.406.967-2.26zM388.427 8.83l2.49 7.585h1.268l2.65-7.724 2.49 7.678h2.422l-4.242-12.22h-1.291l-2.675 7.61-2.536-7.586h-1.291l-4.311 12.22h2.398zM403.547 7.815c.737-1.037 2.006-1.637 3.297-1.637.899 0 1.845.323 2.559.876.438.346 1.522 1.452 1.522 3.158 0 .254-.046.831-.3 1.5-.622 1.59-2.075 2.605-3.758 2.605-2.168 0-3.942-1.59-4.104-3.78-.092-1.338.508-2.33.784-2.722m7.424 8.577h2.283V4.127h-2.306V5.97c-.092-.115-.438-.552-.807-.876-1.245-1.13-2.767-1.198-3.343-1.198-.738 0-2.514.161-4.058 1.43-1.43 1.175-2.26 3.043-2.26 4.98 0 1.43.462 2.881 1.338 3.988 1.175 1.453 3.02 2.305 4.887 2.305.554 0 1.822-.046 3.113-.945.46-.322.76-.6 1.153-.99zM418.368 15.078c.115.161.3.37.438.53.714.715 1.844.922 2.79 1.084v-2.375c-.138 0-.668 0-1.13-.115-1.959-.484-1.959-2.56-1.983-3.044V4.173h-2.35v12.22h2.235zM424.062 16.347v3.942h2.328v-3.92h1.96v-1.821h-1.96V4.104h-2.328v10.444h-1.568v1.799zM432.612 16.439V9.615c.047-1.291.14-2.49 1.245-3.275.231-.138.808-.484 1.614-.484 1.27 0 2.491.854 2.836 2.145.116.345.14.69.14 1.452v6.986h2.327V4.173h-2.306v.968c-.437-.415-.576-.553-.852-.737-.415-.277-1.245-.67-2.468-.67-1.406 0-2.997.6-3.849 1.8-.946 1.314-.992 3.112-1.015 4.679v6.226zM445.912 16.37v-.992c.162.161.369.415.784.691.393.3 1.269.784 2.582.784.738 0 1.315-.184 1.569-.276 1.382-.462 2.512-1.614 2.927-2.998.231-.76.278-1.522.3-2.328V4.15h-2.306v6.941c-.069 1.13-.137 2.236-1.037 3.02-.323.277-.738.576-1.636.576-.324 0-1.177 0-1.96-.623-1.084-.876-1.176-2.097-1.223-3.412V4.173h-2.328V16.37zM459.812 7.493c1.06-1.176 2.49-1.314 2.998-1.314.299 0 1.014.045 1.774.391 1.384.67 2.306 2.1 2.306 3.643 0 .277-.022.807-.253 1.43-.623 1.614-2.121 2.651-3.804 2.651-2.145 0-3.99-1.637-4.082-3.85-.045-.508.046-1.868 1.06-2.95m7.103 8.875h2.305c-.023-1.43-.023-2.858-.023-4.288.022-1.153.046-2.329.022-3.482-.023-.784-.046-1.568-.093-2.35-.045-.255-.068-.509-.115-.762-.068-.53-.299-1.914-1.22-3.136-1.177-1.522-3.137-2.35-5.05-2.35a6.298 6.298 0 0 0-4.842 2.188c-.369.44-.6.808-1.108 1.753h2.814c.07-.093.277-.438.554-.692.346-.346 1.314-.99 2.744-.99.53 0 1.706.091 2.697 1.013.6.576.876 1.084 1.269 2.63-.97-1.015-1.5-1.523-2.882-1.823-.278-.046-.67-.138-1.315-.138a6.302 6.302 0 0 0-4.104 1.545c-1.337 1.198-2.121 2.997-2.121 4.82 0 2.028.899 3.411 1.36 3.987 1.153 1.475 2.998 2.33 4.842 2.33 1.706 0 2.882-.716 3.412-1.13.369-.3.554-.555.854-.923zM196.039 52.624h-5.507v36.257h5.507zM209.333 80.053v-2.495a26.6 26.6 0 0 0 1.297 1.195c1.766 1.507 3.429 2.078 5.768 2.078.934 0 3.948-.103 6.233-1.924.83-.623 1.559-1.556 2.234-2.337.207.21 1.09 1.195 1.92 1.872 1.04.83 3.222 2.286 6.65 2.286 1.143 0 5.145-.26 7.846-3.17 2.234-2.388 2.544-5.039 2.908-8.156V52.52h-5.09v15.167c-.158 2.286-.261 4.572-1.82 6.288-.207.206-.882.881-1.818 1.298-.727.31-1.92.52-2.027.52-1.714-.052-2.857-.21-4.155-1.508-1.869-1.92-2.027-4.57-2.13-7.065V52.572h-5.299V68.47c-.156 2.7-.414 4.777-2.806 6.387a5.872 5.872 0 0 1-3.218.99c-1.143 0-2.34-.47-3.273-1.093-2.443-1.714-2.65-4.103-2.857-6.91l-.157-15.219h-5.09v27.43zM257.215 80.053v-2.495c.417.416.882.832 1.298 1.195 1.765 1.507 3.429 2.078 5.767 2.078.934 0 3.949-.103 6.234-1.924.83-.623 1.558-1.556 2.233-2.337.207.21 1.09 1.195 1.92 1.872 1.04.83 3.223 2.286 6.65 2.286 1.143 0 5.145-.26 7.846-3.17 2.235-2.388 2.544-5.039 2.908-8.156V52.52h-5.09v15.167c-.158 2.286-.26 4.572-1.82 6.288-.206.206-.881.881-1.817 1.298-.727.31-1.921.52-2.026.52-1.714-.052-2.857-.21-4.155-1.508-1.87-1.92-2.027-4.57-2.131-7.065V52.572h-5.3V68.47c-.154 2.7-.413 4.777-2.804 6.387a5.875 5.875 0 0 1-3.22.99c-1.141 0-2.34-.47-3.271-1.093-2.444-1.714-2.651-4.103-2.857-6.91l-.158-15.219h-5.09v27.43zM304.945 63.117c1.505-3.792 4.987-5.923 8.935-5.923 1.713 0 2.96.468 3.531.675 3.17 1.456 5.662 4.987 5.662 8.624 0 1.35-.362 2.754-.882 3.896-1.61 3.325-4.883 5.352-8.52 5.352-2.077 0-4.155-.675-5.766-1.924a9.196 9.196 0 0 1-3.585-7.062c-.052-.73 0-1.976.625-3.638m-2.39 12.414c2.701 3.325 7.013 5.25 11.273 5.25 1.611 0 5.507-.314 9.038-3.274 4.622-3.897 5.245-9.145 5.245-11.22 0-1.714-.413-5.768-3.53-9.35-3.845-4.365-8.936-4.884-10.91-4.884-1.663 0-5.766.364-9.403 3.48-3.115 2.648-4.987 6.752-4.987 10.91 0 1.61.364 5.557 3.273 9.088M340.883 63.22c1.248-3.634 4.83-6.025 8.624-6.025 1.09 0 3.689.21 6.026 2.18 2.857 2.393 3.22 5.663 3.22 6.964 0 5.245-4.26 9.089-9.246 9.089-.727 0-2.233-.052-3.896-.83-2.91-1.352-4.935-4.363-5.246-7.584-.105-1.767.31-3.17.518-3.793m-.572 25.558V76.05c.054.104.729.988 1.3 1.507 1.09 1.04 4.103 3.119 8.312 3.119 2.544 0 4.52-.73 5.349-1.091 5.403-2.34 8.52-7.272 8.52-13.195 0-3.845-1.403-7.792-4.104-10.391-.986-.935-1.557-1.35-3.687-2.544-2.233-.883-3.793-1.455-6.181-1.455-1.04 0-4.574.156-7.275 2.285-.985.779-2.18 2.234-2.285 2.389v-4.051h-5.143v36.155zM376.405 82.91h-5.196v5.972h5.196zm-.052-30.338h-5.248v27.636h5.248zM389.541 52.624h-5.246v36.312h5.246zM402.888 82.91h-5.196v5.972h5.196zm-.052-30.338h-5.248v27.636h5.248zM432.91 69.247c-.313 1.091-.57 2.078-2.233 3.688-.937.831-2.91 2.544-6.34 2.544-1.195 0-2.127-.206-2.543-.36-2.909-.782-4.52-2.6-5.143-3.535-.468-.727-.728-1.559-.987-2.337zm-17.559-4.936c.365-1.09.832-2.388 1.507-3.376.78-1.194 3.376-3.74 7.427-3.74.988 0 3.845.21 6.078 2.336.623.574.987 1.091 1.456 1.77l5.817-.053c-.882-2.026-1.35-2.753-2.077-3.689-3.843-4.935-9.298-5.506-11.325-5.506-1.559 0-5.039.312-8.467 2.804-5.194 3.69-5.819 9.3-5.819 11.534 0 .987.106 3.168 1.146 5.557 2.337 5.403 7.582 8.676 13.297 8.676.934 0 2.91-.054 5.091-.936 4.571-1.817 8.154-6.078 8.934-10.909.207-1.508.103-2.909 0-4.416zM450.98 80.105v-2.234c.361.362.83.933 1.766 1.556.881.678 2.856 1.769 5.816 1.769 1.662 0 2.963-.416 3.534-.626 3.115-1.036 5.662-3.634 6.595-6.753.52-1.713.626-3.427.678-5.245v-16h-5.197v15.636c-.155 2.546-.31 5.038-2.337 6.804-.726.626-1.663 1.301-3.689 1.301-.727 0-2.647 0-4.413-1.405-2.443-1.972-2.649-4.725-2.753-7.688V52.624h-5.248v27.481zM165.303 98.115c.468-2.268.6-4.106.6-5.164 0-11.002-6.83-21.419-16.903-25.82-4.515-1.968-8.567-2.085-10.534-2.085-12.622 0-19.682 8.107-22.23 11.695-4.861 6.716-5.325 13.082-5.325 16.21 0 8.914 4.168 17.134 11.228 22.46 6.716 5.095 13.086 5.442 16.327 5.442 6.084 0 11.625-1.926 16.122-5.293l12.045 9.02c-.17.145-.321.297-.495.442-10.885 9.03-22.693 9.948-27.906 9.948H26.394v.01c-.051 0-.101-.01-.152-.01h-1.054v-.063c-8.895-.366-16.9-4.722-20.443-13.36-1.62-3.935-1.62-7.41-1.62-8.914-.117-9.03 4.632-14.473 6.946-16.787 3.938-3.705 8.8-5.676 13.663-7.756 5.905-2.548 11.694-4.866 11.694-12.389 0-4.056-1.971-8.107-5.675-9.958-1.851-.927-3.471-.927-4.282-.927-4.286 0-7.644 1.968-9.264 6.02-.811 1.737-1.041 3.474-1.274 5.441H0c.113-2.313.113-3.588.577-6.018.58-2.778 2.894-10.188 9.84-14.937 2.665-1.85 6.947-4.052 14.59-4.052 1.275 0 4.746 0 8.45 1.04 3.242.928 5.443 2.32 6.6 3.13 9.494 6.364 10.42 17.366 10.42 20.837 0 8.918-4.284 14.473-6.598 16.904-3.59 3.705-8.684 6.136-13.43 7.991-5.675 2.314-8.8 3.471-10.768 5.902-1.506 2.084-1.62 4.515-1.62 5.442 0 4.624 2.998 8.322 7.849 8.451h38.922V52.081h15.166v68.886h26.365c-1.116-1.284-2.112-2.523-2.862-3.589a43.74 43.74 0 0 1-7.643-24.66c0-6.6 1.507-21.186 15.517-32.534 8.22-6.599 16.786-9.143 27.438-9.143 6.599 0 10.65.923 13.316 1.733 6.482 2.084 20.72 8.917 26.627 26.98 2.085 6.134 2.2 10.533 2.2 13.197 0 3.074-.425 8.665-2.696 14.866z" fill="#231f20"/><path d="M241.833 102.643l-49.932 37.39-.007.01-.002-.003-.003.002-.007-.009-49.932-37.39 8.905-11.894 41.037 30.73 41.035-30.73z" fill="#ef2f2c"/><path d="M469.238 32.592H1.908v1.948h467.33z" fill="#231f20"/><path d="M132.159 3.233l5.25 7.011v.003l-5.25 7.01-1.67-1.25 4.315-5.762-4.315-5.762zM318.962 3.233l5.25 7.011v.003l-5.25 7.01-1.67-1.25 4.315-5.762-4.315-5.762z" fill="#ef2f2c"/></g></svg>