<svg fill="none" height="53" width="154" xmlns="http://www.w3.org/2000/svg"><path clip-rule="evenodd" d="m34.928 38.228v-24.953h-.535v-2.751c-.006-.343-.055-.56-.207-.91a1.976 1.976 0 0 0 -.155-.283v-.993s-.002-.781-.324-1.368c-.35-.64-1.03-.991-1.361-1.13a1.139 1.139 0 0 0 -.136-.056l-.055-.017-.069.017c-.033.01-.57.18-1.082.877-.463.64-.48 1.457-.484 1.684l.001.062v.916a3.03 3.03 0 0 0 -.242.43 2.37 2.37 0 0 0 -.156.867v2.655h-.538v9.11l-1.476-1.475v-2.6l-.5-1.677-.732-5.757-.54 5.515-.502 1.92v2.41l-1.46 1.46v-8.906h-.536v-2.751c-.005-.343-.054-.56-.206-.91a2.207 2.207 0 0 0 -.155-.283v-.993s-.002-.781-.323-1.368c-.352-.64-1.032-.991-1.363-1.13a1.139 1.139 0 0 0 -.135-.056l-.055-.017-.068.017c-.034.01-.571.18-1.083.877-.464.64-.48 1.457-.483 1.684v.978a2.96 2.96 0 0 0 -.242.43 2.373 2.373 0 0 0 -.157.867v2.655h-.538v24.953h-13.11a23.724 23.724 0 0 1 -2.881-11.358c0-6.583 2.667-12.54 6.98-16.855a23.765 23.765 0 0 1 16.855-6.98 23.763 23.763 0 0 1 16.856 6.98 23.766 23.766 0 0 1 6.981 16.855c0 4.113-1.045 7.98-2.88 11.358h-12.903zm-4.901 0h4.248v-5.655h-4.248zm0-6.022h4.248v-3.345h-4.248zm0-3.71h4.248v-5.124h-4.248v5.125zm2.938-7.637v2.145h-1.625v-2.149c0-.413.151-.749.393-.98.12-.114.26-.198.418-.261h.002c.16.063.299.147.418.262.242.23.393.566.393.98v.003zm1.31-2.16v4.305h-.944v-2.149c.001-.504-.19-.943-.506-1.245a1.62 1.62 0 0 0 -.593-.36l-.08-.025-.072.024a1.642 1.642 0 0 0 -.6.361c-.316.302-.506.742-.505 1.245v2.15h-.948v-4.305h4.248zm-1.393-1.889v1.524h-1.456v-1.523c.004-.589.294-.998.726-1.19.433.191.724.6.73 1.19zm1.393-1.863v3.387h-1.028v-1.523c.001-.506-.186-.934-.494-1.227a1.588 1.588 0 0 0 -.585-.354c-.014-.004-.013-.005-.013-.005l-.016.005c-.22.075-.42.195-.585.354-.308.293-.496.721-.495 1.227v1.523h-1.032v-3.387zm-4.248-.365h4.248v-.87h-4.248zm1.102-4.677c.098.24.114.5.117.682l.004 2.688h-.684v-2.689a1.9 1.9 0 0 1 .126-.679c.075-.161.147-.296.21-.388.077.115.152.225.227.386zm1.549.702-.001 2.668h-1.049v-2.67c.008-.175.02-.418.147-.665.132-.261.381-.416.381-.416h.001s.237.155.369.416c.133.262.144.488.152.667zm.725-1.084c.066.091.135.225.21.386.102.252.13.498.133.678v2.688h-.69v-2.688a1.96 1.96 0 0 1 .133-.68c.084-.188.15-.296.214-.384zm-2.42-1.337c.018-.298.1-.866.39-1.253.22-.301.44-.479.6-.582.073-.049.133-.078.176-.098.043.02.102.05.175.098.16.103.38.281.6.582.29.387.371.955.39 1.253zm2.335.368v.2a.904.904 0 0 1 -.037.156c-.035.092-.12.238-.234.415-.043.07-.119.187-.203.357a2.255 2.255 0 0 0 -.265-.345c-.071-.075-.167-.172-.245-.264-.17-.2-.179-.322-.179-.322s-.005.122-.175.322c-.08.092-.174.189-.246.264-.066.07-.159.181-.269.352-.086-.176-.163-.295-.207-.367a2.767 2.767 0 0 1 -.233-.415c-.034-.088-.044-.19-.046-.2v-.153h2.34zm-9.162 29.674h5.429v-5.655h-5.429zm1.713-9.365v2.154h2.018v-2.154h1.698v3.343h-5.429v-3.343zm3.716-2.782v2.416h-1.698v-.605a1.01 1.01 0 0 0 -2.018 0v.605h-1.713v-2.417h5.429zm-5.429-.639h5.429v-2.07h-5.429zm2.721-5.142 2.706 2.704h-5.41zm-.565-2.002.426-1.827.177-3.056.104 3.054.426 1.829zm1.15.44v1.525l-.585-.585-.583.584v-1.524zm-7.988 19.49h4.249v-5.655h-4.249zm0-6.022h4.249v-3.345h-4.249zm0-3.71h4.249v-5.124h-4.249v5.125zm2.938-7.637v2.145h-1.624v-2.149c0-.413.152-.749.392-.98.12-.114.261-.198.42-.261.16.063.3.147.418.262.242.23.393.566.393.98zm1.31-2.16v4.305h-.943v-2.149c0-.504-.19-.943-.508-1.245a1.624 1.624 0 0 0 -.592-.36l-.08-.025-.073.024a1.63 1.63 0 0 0 -.598.361c-.318.302-.508.742-.506 1.245v2.15h-.949v-4.305h4.25zm-1.394-1.889v1.524h-1.456v-1.523c.006-.589.295-.998.728-1.19.433.191.723.6.728 1.19zm1.395-1.863v3.387h-1.03v-1.523c.002-.506-.185-.934-.494-1.227a1.568 1.568 0 0 0 -.584-.354c-.014-.004-.013-.005-.013-.005l-.016.005a1.58 1.58 0 0 0 -.586.354c-.308.293-.495.721-.494 1.227v1.523h-1.033v-3.387zm-4.249-.365h4.249v-.87h-4.249zm1.102-4.677c.098.24.115.5.117.682l.003 2.688h-.683v-2.689c.003-.18.024-.428.125-.679.077-.161.149-.296.21-.388.079.115.152.225.228.386zm1.548.702v2.668h-1.05v-2.67c.008-.175.022-.418.147-.665a1.18 1.18 0 0 1 .382-.416s.238.155.37.416c.132.262.144.488.151.667zm.726-1.084c.066.091.134.225.21.386.102.252.13.498.134.678v2.688h-.692v-2.688c.003-.182.035-.44.133-.68.084-.188.152-.296.215-.384zm-2.42-1.337c.018-.298.1-.866.39-1.253.221-.301.44-.479.6-.582.074-.049.132-.078.175-.098.043.02.103.05.176.098.16.103.38.281.6.582.29.387.372.955.39 1.253h-2.33zm2.335.368v.2a.785.785 0 0 1 -.037.156c-.036.092-.12.238-.234.415-.043.07-.118.187-.203.357a2.408 2.408 0 0 0 -.265-.345c-.072-.075-.167-.172-.245-.264-.17-.2-.18-.322-.18-.322s-.005.122-.174.322c-.078.092-.174.189-.246.264-.065.07-.158.181-.269.352-.086-.176-.164-.295-.207-.367a2.695 2.695 0 0 1 -.234-.415.934.934 0 0 1 -.045-.198v-.155zm24.52 30.636h-40.816c-.12-.196-.234-.396-.347-.595h41.51a27.64 27.64 0 0 1 -.347.595zm-1.602 2.326a1.723 1.723 0 0 0 -3.282.737v.559h-.626v-.559a1.725 1.725 0 0 0 -3.45 0v.559h-.625v-.559a1.725 1.725 0 0 0 -3.45 0v.559h-.624v-.559a1.725 1.725 0 0 0 -3.45 0v.559h-.644a2.687 2.687 0 0 0 -2.655-2.283 2.686 2.686 0 0 0 -2.653 2.283h-.663v-.559a1.725 1.725 0 0 0 -3.45 0v.559h-.625v-.559a1.725 1.725 0 0 0 -3.45 0v.559h-.625v-.559a1.725 1.725 0 0 0 -3.45 0v.559h-.625v-.559a1.725 1.725 0 0 0 -3.278-.75c-.42-.54-.815-1.1-1.19-1.677h40.017a24.2 24.2 0 0 1 -1.202 1.69zm-1.951 2.21a23.768 23.768 0 0 1 -14.167 6.83v-2.728h1.007c1.867 0 3.216-.155 3.216-.155s-1.39-.212-3.216-.212h-1.007v-4.008h1.204v-1.2a1.246 1.246 0 0 1 2.493 0v1.2h1.581v-.008h.001v-1.192a1.246 1.246 0 0 1 2.492 0v1.2h1.583v-1.2a1.246 1.246 0 0 1 2.493 0v1.2h1.581v-1.2a1.246 1.246 0 0 1 2.424-.405c-.529.655-1.09 1.283-1.685 1.878zm-15.429 1.95a1.477 1.477 0 0 1 -1.426 1.098 1.477 1.477 0 0 1 -1.424-1.099h2.85zm-1.83-1.247a.818.818 0 0 0 1.562-.082c.238.01.476.081.713.28.228.19.316.52.348.68h-4.437c.032-.16.121-.49.349-.68.486-.408.981-.274 1.464-.198zm-.578-3.391.482.692.494-.937.494.937.482-.692-.191 1.2h-1.57zm.228 1.568h1.51c.058.137.203.49.29.692.062.14.141.293.045.448-.114.184-.264.158-.369.15l-.018-.001a.752.752 0 0 1 -.704.494.75.75 0 0 1 -.702-.494h-.019c-.105.01-.254.035-.368-.149-.096-.155-.018-.307.044-.448.088-.203.233-.555.291-.692zm2.589 8.031a24.059 24.059 0 0 1 -3.669.001l-.45-2.81h.52c-.13-.308-.354-.846-.442-1.065-.14-.352-.035-.584.198-.675.228-.088.485.036.565.335l.228.854h.332v.662h-.785v.366h1.149l.002-.477h1.394l-.001-.551h.333l.23-.854c.08-.3.34-.423.568-.335.235.09.34.323.2.675-.038.096-.1.252-.166.424l-.31.752h-.84v.366h1.084l.197-.477h.113l-.45 2.81zm-4.521-3.176h-1.1v.367h1.1v2.727a23.771 23.771 0 0 1 -14.17-6.83 24.312 24.312 0 0 1 -1.523-1.674 1.244 1.244 0 0 1 2.474.202v1.2h1.582v-1.2a1.246 1.246 0 0 1 2.494 0v1.2h1.58v-1.2a1.246 1.246 0 0 1 2.495 0v1.2h1.581v-1.2a1.246 1.246 0 0 1 2.493 0v1.2h.994zm2.685-44.858c-13.402 0-24.266 10.865-24.266 24.267 0 13.401 10.865 24.268 24.267 24.268 13.403 0 24.267-10.867 24.267-24.268 0-13.402-10.864-24.267-24.267-24.267zm.394 40.592h.209v-.364h-.5v.81h.292zm-18.3-34.224a25.238 25.238 0 0 0 -7.417 17.907 25.24 25.24 0 0 0 7.417 17.906 25.239 25.239 0 0 0 17.906 7.416 25.244 25.244 0 0 0 17.907-7.416 25.243 25.243 0 0 0 7.417-17.906 25.242 25.242 0 0 0 -7.417-17.908 25.244 25.244 0 0 0 -17.907-7.416 25.239 25.239 0 0 0 -17.905 7.416zm-8.057 17.907c0-14.34 11.625-25.965 25.963-25.965 14.341 0 25.965 11.624 25.965 25.965 0 14.337-11.624 25.965-25.965 25.965-14.338 0-25.963-11.628-25.963-25.965zm123.857 8.122v-2.06h-1.809v2.06h-1.144v-4.947h1.144v1.9h1.809v-1.9h1.143v4.947zm-7.282 0v-.895l1.59-2.66c.078-.13.168-.256.263-.381-.131.006-.302.014-.778.014h-1.026v-1.025h3.203v.93l-1.679 2.696a3.957 3.957 0 0 1 -.19.28c.097-.016.375-.016.96-.016h.939v1.057zm-3.051.095c-1.573 0-1.955-.85-1.955-1.839v-3.203h1.143v3.136c0 .578.182.946.886.946.645 0 .894-.272.894-1.011v-3.07h1.129v3.004c0 1.392-.785 2.037-2.097 2.037zm-6.312 9.146v-6.176c0-1.01-.271-1.612-1.184-1.612-1.262 0-2.252 1.438-2.252 3.127v4.66h-2.487v-14.175h2.487v4.135c0 .583-.041 1.397-.175 1.962l.04.02c.561-1.088 1.668-1.807 3.164-1.807 2.175 0 2.875 1.399 2.875 3.088v6.778zm-10.507.173c-2.678 0-4.35-1.398-4.35-4.68 0-3.01 1.574-5.32 4.992-5.32.66 0 1.358.097 1.982.271l-.254 2.157c-.524-.196-1.126-.35-1.748-.35-1.574 0-2.369 1.165-2.369 2.99 0 1.65.642 2.777 2.291 2.777.66 0 1.379-.137 1.904-.409l.194 2.12c-.66.252-1.613.444-2.642.444zm-8.651-.173h2.486v-9.653h-2.486zm1.241-10.895c-.854 0-1.534-.68-1.534-1.518 0-.812.68-1.492 1.534-1.492.855 0 1.553.66 1.553 1.492 0 .838-.698 1.518-1.553 1.518zm-3.155 3.474c-1.786-.367-2.68.798-2.68 3.478v3.943h-2.486v-9.653h2.35c0 .484-.058 1.262-.174 1.943h.039c.466-1.224 1.398-2.292 3.07-2.156l-.12 2.445zm-10.195-3.825c-.738 0-1.34-.601-1.34-1.341 0-.757.602-1.34 1.34-1.34.737 0 1.34.583 1.34 1.34 0 .74-.603 1.341-1.34 1.341zm-3.924 0c-.737 0-1.34-.601-1.34-1.341 0-.757.603-1.34 1.34-1.34.738 0 1.34.583 1.34 1.34 0 .74-.602 1.341-1.34 1.341zm3.943 11.246c0-.446.019-1.204.117-1.71l-.02-.018c-.583 1.145-1.69 1.94-3.282 1.94-2.175 0-2.875-1.399-2.875-3.087v-6.776h2.467v6.176c0 1.01.272 1.613 1.204 1.613 1.263 0 2.233-1.437 2.233-3.128v-4.66h2.487v9.652h-2.33zm-16.736 0v-1.943l4.718-7.69c.272-.446.544-.837.855-1.245-.466.022-1.088.039-2.388.039h-3.03v-2.271h8.468v2.02l-4.992 7.883c-.194.313-.369.604-.602.916.33-.04 1.224-.04 2.836-.04h2.836v2.33h-8.701zm91.174-20.327c-2.139 0-2.818-.776-2.818-3.03v-4.894h-1.65v-1.923h1.65v-2.97l2.488-.662v3.632h2.348v1.923h-2.348v4.234c0 1.244.291 1.592 1.145 1.592.409 0 .855-.057 1.203-.154v2a8.568 8.568 0 0 1 -2.018.252zm-7.923-11.44a1.342 1.342 0 0 1 -1.339-1.339c0-.758.602-1.34 1.339-1.34.738 0 1.342.582 1.342 1.34 0 .737-.604 1.339-1.342 1.339zm-.698 6.974c-2.621 0-3.205.756-3.205 1.534 0 .621.428 1.029 1.147 1.029 1.221 0 2.058-1.165 2.058-2.33zm-3.223-6.974c-.74 0-1.342-.602-1.342-1.339 0-.758.602-1.34 1.342-1.34a1.33 1.33 0 0 1 1.339 1.34c0 .737-.602 1.339-1.339 1.339zm3.416 11.246c0-.564.02-1.126.098-1.633l-.02-.018c-.464 1.087-1.65 1.845-3.089 1.845-1.747 0-2.757-.99-2.757-2.546 0-2.31 2.292-3.532 5.575-3.532v-.525c0-1.01-.486-1.534-1.884-1.534-.872 0-2.039.29-2.856.757l-.212-2.078a10.55 10.55 0 0 1 3.457-.602c3.108 0 3.981 1.262 3.981 3.36v4.019c0 .778.02 1.69.059 2.487zm-9.571.194c-2.135 0-2.817-.776-2.817-3.03v-4.894h-1.649v-1.923h1.649v-2.97l2.486-.662v3.632h2.352v1.923h-2.352v4.234c0 1.244.292 1.592 1.147 1.592.406 0 .855-.057 1.205-.154v2a8.62 8.62 0 0 1 -2.021.252zm-8.776-.195h2.486v-9.652h-2.486zm1.242-10.894a1.52 1.52 0 0 1 -1.533-1.517c0-.814.679-1.494 1.533-1.494.856 0 1.555.66 1.555 1.495 0 .836-.699 1.516-1.555 1.516zm-7.669 11.09a13.4 13.4 0 0 1 -2.021-.175l.058-2.04c.601.156 1.339.293 2.078.293.951 0 1.574-.39 1.574-1.032 0-1.707-3.904-.737-3.904-4.02 0-1.689 1.379-3.087 4.099-3.087.563 0 1.184.078 1.765.175l-.076 1.961a6.741 6.741 0 0 0 -1.788-.252c-.971 0-1.437.388-1.437.99 0 1.574 3.963.875 3.963 4.001 0 1.904-1.67 3.185-4.311 3.185zm-3.399-7.614c-1.788-.37-2.681.796-2.681 3.477v3.942h-2.486v-9.653h2.35c0 .486-.058 1.263-.175 1.943h.039c.466-1.225 1.397-2.292 3.068-2.156zm-11.382-.621c-1.028 0-1.748.757-1.882 1.923h3.554c.039-1.205-.623-1.923-1.672-1.923zm4.059 3.613h-5.98c-.021 1.804.872 2.678 2.659 2.678.951 0 1.981-.212 2.818-.603l.231 1.924c-1.03.408-2.251.622-3.457.622-3.068 0-4.776-1.534-4.776-4.933 0-2.952 1.631-5.127 4.524-5.127 2.815 0 4.061 1.923 4.061 4.311 0 .329-.021.72-.08 1.128zm-12.486 4.427h-2.523l-3.575-9.653h2.72l1.534 4.35c.232.66.466 1.438.64 2.138h.04c.154-.661.35-1.4.581-2.061l1.554-4.428h2.642zm-9.981-.001h2.486v-9.652h-2.486zm1.242-10.894c-.855 0-1.535-.68-1.535-1.517 0-.814.68-1.494 1.535-1.494.854 0 1.554.66 1.554 1.495 0 .836-.7 1.516-1.554 1.516zm-6.409 10.895v-6.175c0-1.011-.273-1.614-1.185-1.614-1.263 0-2.253 1.437-2.253 3.128v4.661h-2.485v-9.653h2.35c0 .448-.04 1.205-.136 1.71l.019.02c.583-1.146 1.71-1.943 3.283-1.943 2.174 0 2.873 1.398 2.873 3.087v6.78h-2.466zm-14.062.213c-4.136 0-5.068-2.253-5.068-4.758v-8.565h2.525v8.411c0 1.651.543 2.816 2.718 2.816 1.943 0 2.76-.816 2.76-3.049v-8.178h2.504v8.022c0 3.593-1.981 5.302-5.439 5.302zm-33.543-19.346a.455.455 0 1 0 0 .91.455.455 0 0 0 0-.91zm.357 30.514v-1.078a.364.364 0 1 0 -.729 0v1.078zm-.133-4.084v-1.214a.225.225 0 1 0 -.45 0v1.214zm0-3.656v-1.215a.225.225 0 0 0 -.45 0v1.215zm.196-9.69v-.936c-.003-.34-.17-.577-.419-.686-.25.11-.417.346-.42.686v.936h.84zm0 4.657v-1.45c-.003-.34-.17-.575-.419-.684-.25.11-.417.345-.42.684v1.45h.84zm-10.974-17.74a.455.455 0 1 0 0 .909.455.455 0 0 0 0-.91zm.358 30.513v-1.078a.365.365 0 0 0 -.728 0v1.078zm-.133-4.084v-1.214c0-.127-.1-.226-.226-.226-.123 0-.225.099-.225.226v1.214h.45zm0-3.656v-1.215a.225.225 0 0 0 -.45 0v1.215zm.196-9.69v-.936c-.002-.34-.17-.577-.42-.686-.25.11-.415.346-.419.686v.936zm0 4.657v-1.45c-.002-.34-.17-.575-.42-.684-.25.11-.415.345-.419.684v1.45zm.276 24.865a.455.455 0 1 0 .002.91.455.455 0 0 0 -.002-.91zm4.354-24.884h.458v-.985h-.458zm.228-12.692a.455.455 0 1 0 0 .91.455.455 0 0 0 0-.91zm1.607 25.757v-1.282a.434.434 0 0 0 -.868 0v1.282zm-2.346 0v-1.282a.434.434 0 0 0 -.868 0v1.282zm13.57 10.56c-.034 0-.084-.002-.114-.005-.06-.012-.063-.03-.074-.089-.011-.09-.011-.265-.011-.473v-.385c0-.332 0-.394.005-.461.009-.075.017-.09.07-.101a.23.23 0 0 1 .064-.009c.023 0 .054-.01.054-.044-.006-.035-.037-.035-.065-.036-.087 0-.234.006-.29.006-.063 0-.218-.006-.303-.006-.034.001-.065 0-.072.036 0 .033.031.044.055.044.027 0 .054.002.077.01.043.017.057.027.063.1.003.067.003.13.003.461v.385c0 .208 0 .383-.01.472-.01.065-.016.081-.052.09a.684.684 0 0 1 -.077.005c-.033 0-.053.023-.053.042 0 .035.033.043.062.043.09 0 .245-.007.294-.007.062 0 .216.007.366.007.025 0 .059-.007.061-.043 0-.023-.024-.042-.054-.042zm-1.37 0c-.033 0-.085-.002-.113-.005-.06-.012-.064-.03-.075-.089-.011-.09-.011-.265-.011-.473v-.385c0-.332 0-.394.005-.461.01-.075.017-.09.07-.101a.234.234 0 0 1 .064-.009c.023 0 .054-.01.054-.044-.005-.035-.037-.035-.064-.036-.088 0-.235.006-.29.006-.063 0-.218-.006-.303-.006-.034.001-.066 0-.072.036 0 .033.03.044.054.044.027 0 .054.002.077.01.043.017.056.027.063.1.004.067.004.13.004.461v.385c0 .208 0 .383-.011.472-.01.065-.015.081-.052.09a.684.684 0 0 1 -.076.005c-.034 0-.054.023-.054.042 0 .035.033.043.061.043.09 0 .246-.007.296-.007.06 0 .215.007.364.007.028 0 .059-.007.062-.043 0-.021-.022-.042-.054-.042zm-1.37 0c-.033 0-.085-.002-.113-.005-.06-.012-.064-.03-.075-.089-.01-.09-.01-.265-.01-.473v-.385c0-.332 0-.394.005-.461.008-.075.016-.09.07-.101a.235.235 0 0 1 .063-.009c.023 0 .055-.01.055-.044-.005-.035-.038-.035-.066-.036-.087 0-.233.006-.288.006-.065 0-.218-.006-.304-.006-.034.001-.066 0-.072.036 0 .033.03.044.054.044.027 0 .054.002.077.01.043.017.057.027.065.1.002.067.002.13.002.461v.385c0 .208 0 .383-.011.472-.009.065-.015.081-.053.09a.64.64 0 0 1 -.074.005c-.035 0-.055.023-.055.042 0 .035.033.043.062.043.09 0 .245-.007.295-.007.061 0 .215.007.365.007.027 0 .06-.007.061-.043 0-.021-.022-.042-.053-.042zm-1.18 0a.343.343 0 0 1 -.081-.01.227.227 0 0 1 -.116-.083c-.053-.062-.408-.626-.495-.757l.368-.502c.069-.093.111-.148.15-.158a.298.298 0 0 1 .08-.013c.025 0 .052-.013.053-.042-.002-.032-.034-.038-.059-.038-.085 0-.179.006-.22.006-.043 0-.15-.006-.237-.006-.032 0-.066.006-.067.038.002.032.027.042.047.042a.2.2 0 0 1 .066.008c.019.004.026.016.025.019a.143.143 0 0 1 -.023.069c-.035.057-.21.316-.288.431a16.44 16.44 0 0 1 -.267-.45.2.2 0 0 1 -.022-.055c0-.002.002-.01.017-.014a.186.186 0 0 1 .05-.008c.024 0 .053-.008.054-.042-.002-.032-.036-.038-.065-.038-.084 0-.224.006-.253.006-.108 0-.29-.006-.344-.006-.028.001-.06.001-.065.036 0 .025.019.044.041.044.02 0 .056.004.09.016.075.023.116.065.172.152l.391.61-.434.586c-.078.105-.109.134-.17.151a.534.534 0 0 1 -.077.008c-.026.001-.048.02-.048.044 0 .028.026.041.05.041h.04c.037 0 .147-.007.19-.007.055 0 .204.007.218.007h.04c.03 0 .063-.004.065-.04-.002-.027-.023-.043-.046-.045l-.049-.002c-.015 0-.025-.007-.025-.016v-.004c-.002-.017.01-.045.03-.076l.316-.49.34.561c.006.008.006.013.006.015 0 .003-.003.004-.003.004-.023.004-.044.022-.044.047.008.04.041.036.097.04.186.006.366.006.42.006h.066c.027 0 .06-.007.063-.043-.001-.025-.025-.042-.048-.042zm-1.916 0a.352.352 0 0 1 -.082-.01.216.216 0 0 1 -.114-.083c-.053-.062-.41-.626-.496-.757l.368-.502c.069-.093.11-.148.15-.158a.298.298 0 0 1 .08-.013c.026 0 .052-.013.052-.042-.001-.032-.034-.038-.058-.038-.085 0-.178.006-.221.006s-.149-.006-.236-.006c-.031 0-.066.006-.068.038.001.032.03.042.046.042.019 0 .048 0 .067.008.02.004.027.016.026.019 0 .01-.006.042-.024.069-.034.057-.21.316-.287.431-.086-.142-.174-.285-.268-.45a.141.141 0 0 1 -.02-.055c0-.002 0-.009.016-.014a.184.184 0 0 1 .05-.008c.023 0 .053-.008.053-.042 0-.032-.034-.038-.064-.038-.084 0-.224.006-.253.006-.108 0-.29-.006-.344-.006-.028.001-.06.001-.065.036 0 .025.018.044.041.044.022 0 .056.004.09.016.075.023.116.065.173.152l.39.61-.434.586c-.078.105-.11.134-.17.151a.534.534 0 0 1 -.077.008c-.027.001-.048.02-.048.044 0 .028.025.041.05.041h.039c.038 0 .148-.007.19-.007.056 0 .203.007.218.007h.041c.03 0 .063-.004.065-.04-.002-.027-.023-.043-.046-.045l-.049-.002c-.015 0-.026-.007-.026-.016a.011.011 0 0 0 0-.004c0-.017.01-.045.03-.076l.316-.49c.1.163.217.358.34.561.006.008.006.013.006.015.001.003-.002.004-.002.004-.024.004-.044.022-.044.047.008.04.04.038.098.04.184.006.364.006.418.006h.067c.027 0 .06-.007.063-.043-.002-.025-.024-.042-.047-.042zm-1.916 0a.345.345 0 0 1 -.082-.01.22.22 0 0 1 -.114-.083c-.053-.062-.409-.626-.495-.757l.366-.502c.07-.093.111-.148.152-.158a.291.291 0 0 1 .078-.013c.027 0 .053-.013.054-.042-.002-.032-.035-.038-.06-.038-.086 0-.178.006-.22.006-.043 0-.149-.006-.236-.006-.032 0-.065.006-.067.038 0 .032.028.042.046.042a.2.2 0 0 1 .066.008c.02.004.026.016.026.019 0 .01-.007.042-.023.069-.035.057-.211.316-.289.431-.085-.141-.173-.285-.267-.45a.201.201 0 0 1 -.021-.055c0-.002.002-.01.017-.014a.19.19 0 0 1 .05-.008c.023 0 .053-.008.054-.042-.002-.032-.035-.038-.064-.038-.087 0-.225.006-.255.006-.108 0-.289-.006-.344-.006-.026.001-.059.001-.064.036 0 .025.017.044.04.044.021 0 .057.004.091.016.075.023.116.065.173.152l.39.61-.433.586c-.08.105-.11.134-.17.151a.521.521 0 0 1 -.078.008c-.026.001-.049.02-.049.044 0 .028.026.041.05.041h.04c.037 0 .147-.007.19-.007.055 0 .204.007.218.007h.041c.03 0 .063-.004.065-.04-.002-.027-.023-.043-.047-.045l-.05-.002c-.012 0-.024-.008-.024-.016l-.001-.004c0-.017.01-.045.031-.076l.316-.49c.1.163.217.358.342.561.004.008.004.013.004.015.001.004-.001.004-.001.004-.024.004-.045.022-.045.047.007.04.042.038.097.04.185.006.365.006.42.006h.067c.026 0 .058-.007.061-.043 0-.025-.024-.042-.046-.042zm-8.726-.364c-.03-.001-.045.028-.046.057a.323.323 0 0 1 -.073.137c-.085.094-.187.11-.387.11-.294 0-.684-.239-.685-.747 0-.21.04-.414.202-.552.098-.083.218-.12.414-.12.204 0 .352.054.423.124.053.05.08.126.082.189 0 .028.006.063.041.066.04-.004.048-.041.05-.073.002-.044.002-.166.007-.235.006-.078.01-.1.01-.123.002-.021-.02-.044-.05-.044-.064-.006-.139-.022-.225-.036-.102-.011-.188-.022-.33-.022-.34 0-.561.09-.73.236a.83.83 0 0 0 -.27.611c0 .214.062.467.29.657.21.176.475.242.786.242.148 0 .32-.014.415-.05.04-.016.061-.036.07-.076.025-.08.05-.264.05-.296 0-.022-.01-.054-.044-.055zm-1.808 0c-.032-.001-.044.028-.048.057a.308.308 0 0 1 -.072.137c-.084.094-.185.11-.386.11-.294 0-.684-.239-.685-.747 0-.21.04-.414.201-.552.1-.083.22-.12.414-.12.205 0 .353.054.424.124a.29.29 0 0 1 .082.189c0 .028.005.063.04.066.04-.004.047-.041.05-.073.002-.044.002-.166.008-.235.005-.078.01-.1.01-.123.002-.021-.021-.044-.05-.044-.065-.006-.14-.022-.224-.036-.104-.011-.19-.022-.332-.022-.34 0-.56.09-.728.236a.826.826 0 0 0 -.27.611.814.814 0 0 0 .289.657c.21.176.476.242.786.242.147 0 .32-.014.415-.05.04-.016.062-.036.07-.076.023-.08.049-.264.049-.296 0-.022-.01-.054-.043-.055zm-1.809 0c-.03-.001-.044.028-.046.057a.323.323 0 0 1 -.073.137c-.084.094-.187.11-.386.11-.294 0-.685-.239-.686-.747 0-.21.041-.414.202-.552.098-.083.219-.12.414-.12.204 0 .352.054.423.124.053.05.08.126.082.189 0 .028.005.063.042.066.039-.004.047-.041.049-.073.002-.044.002-.166.007-.235.006-.078.011-.1.011-.123.002-.021-.02-.044-.05-.044-.065-.006-.14-.022-.225-.036-.103-.011-.19-.022-.332-.022-.338 0-.56.09-.727.236a.826.826 0 0 0 -.27.611c0 .214.06.467.287.657.21.176.477.242.788.242.147 0 .319-.014.415-.05.04-.016.06-.036.07-.076.024-.08.048-.264.048-.296 0-.022-.01-.054-.043-.055zm-2.137-.356c0 .223-.046.412-.185.53-.133.107-.278.142-.481.142-.176 0-.26-.047-.281-.08a.416.416 0 0 1 -.022-.144 9.72 9.72 0 0 1 -.006-.44v-.275c0-.17 0-.352.003-.424.002-.025 0-.02.016-.029a.605.605 0 0 1 .133-.012c.175 0 .416.02.618.202.097.083.205.257.205.53zm.141-.63c-.253-.254-.639-.252-.921-.252-.136 0-.299.005-.367.005-.063 0-.208-.005-.326-.005-.031 0-.066.003-.07.037.002.034.032.042.057.042.032 0 .07.002.085.008.069.023.076.029.084.102.003.067.003.13.003.461v.384c0 .202 0 .373-.01.463-.01.063-.019.093-.053.1a.63.63 0 0 1 -.076.005c-.032 0-.054.023-.054.042.001.033.034.043.063.043.046 0 .103-.002.156-.005l.128-.002c.055 0 .137.005.227.01.09.006.188.014.271.014.42 0 .664-.155.77-.261a.862.862 0 0 0 .252-.621.789.789 0 0 0 -.219-.57zm-1.842 1.35a.47.47 0 0 1 -.123-.018c-.057-.018-.076-.064-.097-.202l-.204-1.347c-.01-.052-.037-.082-.07-.085-.033.002-.056.028-.076.066l-.59 1.198-.589-1.184c-.029-.059-.053-.08-.085-.08-.032.002-.056.031-.062.073l-.223 1.425c-.01.071-.034.15-.077.15-.035.004-.049.004-.067.004-.027 0-.052.014-.054.04 0 .038.037.045.06.045.073 0 .18-.007.223-.007.04 0 .143.007.238.007.032 0 .07-.004.072-.045-.003-.03-.028-.039-.054-.04a.54.54 0 0 1 -.075-.008c-.038-.008-.055-.017-.055-.046 0-.037.003-.062.007-.1l.102-.804c.076.153.19.387.204.422.027.066.206.397.26.497.038.067.058.117.107.122.042-.003.055-.036.106-.134l.465-.935.118.896a.49.49 0 0 1 .004.047c0 .028-.004.027-.002.029-.017.005-.036.013-.037.04.002.031.031.042.084.044.09.005.41.015.468.015.033-.001.072-.003.077-.045-.002-.031-.031-.04-.055-.04zm28.789-12.223c.051-.048.075-.05.157-.016.203.087.418.2.475.227.055.027.09.057.078.086-.014.033-.05.022-.079.01a.824.824 0 0 0 -.203-.047c-.309-.037-.503.138-.602.367-.144.331.01.59.207.678.181.078.375.095.75-.108l.205-.113c.495-.27.814-.297 1.113-.167.408.175.552.642.33 1.154a1.9 1.9 0 0 1 -.276.467c-.021.03-.04.044-.067.031-.047-.019-.148-.081-.436-.206-.082-.034-.107-.06-.094-.088.01-.026.038-.027.083-.007a.494.494 0 0 0 .286.01c.093-.028.25-.086.355-.326.118-.275.032-.511-.19-.605-.17-.075-.338-.044-.703.162l-.122.068c-.53.305-.855.353-1.206.2a.812.812 0 0 1 -.492-.625 1.157 1.157 0 0 1 .102-.654c.093-.216.19-.37.329-.498zm2.374-1.423c.59.169.698.199.825.225.133.03.21.01.254-.07a.552.552 0 0 0 .055-.134c.01-.039.025-.062.056-.052.023.008.023.04.004.102-.04.146-.122.389-.154.502-.027.095-.08.326-.122.475-.014.05-.03.08-.054.072-.03-.007-.032-.033-.021-.072a.592.592 0 0 0 .021-.12c.011-.11-.047-.16-.18-.207-.121-.042-.23-.072-.82-.238l-.682-.194a11.5 11.5 0 0 0 -.854-.224c-.107-.02-.185-.01-.233.1a1.59 1.59 0 0 0 -.072.193c-.013.043-.03.06-.048.055-.028-.008-.031-.042-.018-.085.072-.255.153-.497.182-.604.026-.088.083-.334.127-.491.014-.05.032-.072.06-.065.02.006.027.023.014.07a.635.635 0 0 0 -.025.145c-.006.08.053.123.162.166.157.067.465.153.84.26zm-1.207-3.422c.038-.058.06-.067.146-.055.22.033.457.082.521.096.06.011.101.03.097.06-.005.037-.042.035-.073.032a1.068 1.068 0 0 0 -.21.005c-.308.046-.449.265-.484.514-.052.36.166.568.378.6.195.029.387-.005.694-.3l.17-.162c.407-.389.707-.5 1.03-.454.44.063.701.474.623 1.03a1.942 1.942 0 0 1 -.145.52c-.013.036-.028.052-.056.048-.052-.006-.165-.04-.476-.084-.088-.01-.118-.028-.113-.06.004-.03.029-.038.077-.03a.5.5 0 0 0 .278-.065c.084-.05.221-.148.258-.408.043-.296-.104-.499-.343-.533-.183-.028-.336.045-.635.34l-.1.1c-.432.428-.732.561-1.111.508a.814.814 0 0 1 -.64-.476 1.15 1.15 0 0 1 -.073-.656c.034-.232.088-.407.187-.57zm.54-3.717c-.313.02-.415.076-.441.157a.648.648 0 0 0 -.02.21c0 .045-.006.07-.03.07-.033 0-.043-.035-.044-.09-.01-.263-.003-.425-.006-.501-.001-.038-.02-.225-.027-.434-.002-.052 0-.09.036-.09.025-.003.035.023.036.062a.659.659 0 0 0 .026.18c.037.105.153.117.504.108l2.386-.047c.081-.003.137.005.139.047.002.045-.049.082-.12.154-.05.05-.686.685-1.248 1.294-.264.283-.826.847-.887.918v.02l1.807-.103c.246-.013.321-.053.358-.15.023-.063.018-.158.017-.214-.002-.048.01-.066.034-.066.032-.002.037.042.04.103.007.209.002.404.005.488.001.044.02.197.026.394.002.053 0 .093-.034.094-.023.001-.036-.023-.038-.071a.445.445 0 0 0 -.015-.12c-.038-.112-.123-.14-.35-.137l-2.542.046c-.089.002-.126-.012-.127-.049-.002-.044.04-.094.084-.139.232-.263.742-.799 1.142-1.23.42-.456.907-.92.98-.995v-.012l-1.69.103zm.743-3.44c.599-.135.709-.16.832-.195.132-.038.188-.083.187-.22a.958.958 0 0 0 -.023-.156c-.01-.042-.007-.068.02-.075.028-.006.042.02.055.078.023.108.046.222.068.32.019.104.035.195.047.25.03.126.205.909.225.982.025.073.047.135.062.164.008.02.026.038.03.059.004.02-.01.028-.03.032-.027.007-.079-.003-.263.026-.04.006-.215.036-.264.039-.02 0-.046-.002-.052-.031-.007-.026.012-.039.046-.047a.417.417 0 0 0 .137-.054c.065-.045.104-.094.083-.297a14.664 14.664 0 0 0 -.11-.561c-.004-.02-.018-.026-.045-.019l-.996.223c-.028.007-.042.014-.037.036.02.088.121.539.15.63.028.09.053.148.1.175.038.02.062.031.066.05.004.017-.002.03-.026.036-.022.005-.09.003-.293.032-.08.015-.24.038-.268.044-.031.007-.075.018-.082-.02-.007-.026.008-.038.027-.042.039-.012.09-.023.139-.048.073-.037.12-.105.103-.254a11.622 11.622 0 0 0 -.114-.561c-.004-.02-.02-.02-.044-.015l-.31.07c-.134.03-.497.107-.61.137-.27.069-.315.144-.225.546.023.103.06.268.13.36.07.09.163.119.332.111.044-.002.062.002.069.03.006.032-.025.038-.065.048-.09.018-.364.048-.448.046-.108-.005-.116-.04-.15-.19-.066-.294-.107-.512-.141-.683a8.826 8.826 0 0 0 -.134-.636c-.02-.09-.05-.19-.069-.27-.012-.049-.006-.079.022-.087.019-.003.035.01.046.058a.634.634 0 0 0 .047.138c.033.073.124.074.242.065.169-.017.48-.088.842-.17zm-2.652-3.02c.17-.497.545-.766.908-.916.253-.105.724-.208 1.2.014.356.166.652.457.88 1.013.097.23.139.375.187.555.04.15.056.281.09.398.014.042.002.064-.02.075-.031.011-.08.02-.213.066-.126.044-.329.133-.407.155-.058.018-.091.025-.104-.008-.012-.03.014-.05.067-.072a.578.578 0 0 0 .282-.287c.08-.177.06-.51-.082-.853-.134-.322-.304-.5-.52-.605-.362-.167-.745-.092-1.106.059-.887.365-1.048 1.222-.84 1.72.136.33.257.518.49.597a.678.678 0 0 0 .297.025c.065-.014.082-.013.095.017.01.026-.012.044-.042.056a4.331 4.331 0 0 1 -.53.124c-.07.005-.095 0-.147-.053-.122-.125-.265-.396-.363-.635-.211-.51-.277-.985-.122-1.445zm.299-2.565c.528-.31.624-.37.731-.44.115-.076.153-.146.125-.234a.607.607 0 0 0 -.059-.132c-.021-.035-.026-.06.001-.077.022-.012.044.012.078.068.078.13.195.356.255.457.051.087.182.286.26.417.027.046.036.078.015.09-.027.017-.047 0-.068-.035a.594.594 0 0 0 -.07-.098c-.073-.084-.15-.076-.275-.012-.115.058-.212.117-.74.427l-.611.36c-.336.198-.611.361-.752.462-.088.066-.136.127-.089.239.023.053.06.133.092.186.021.038.021.06.004.071-.025.015-.052-.009-.073-.045-.135-.229-.255-.455-.31-.549-.047-.078-.186-.292-.268-.43-.027-.045-.03-.076-.006-.09.018-.01.036-.002.06.038.031.053.063.091.088.118.055.061.127.047.233-.001.156-.07.43-.23.768-.429l.61-.361zm-2.086-2.374c-.035.027-.042.044-.033.073.03.085.097.186.16.265.102.125.147.156.233.179.145.04.362.014.62-.193.445-.359.336-.758.187-.943a.857.857 0 0 0 -.146-.156c-.024-.018-.041-.013-.067.006zm-.05-.57c.477-.384.564-.455.66-.543.101-.091.132-.157.07-.279a.963.963 0 0 0 -.088-.13c-.028-.034-.038-.057-.015-.076.021-.017.046 0 .083.047.135.166.284.371.338.437.085.107.287.338.364.436.16.198.31.423.331.686a.697.697 0 0 1 -.258.559c-.232.188-.524.262-1.037.152-.126.563-.232 1.005-.277 1.347-.041.322.04.469.07.521a.53.53 0 0 0 .06.097c.02.026.022.046.006.058-.025.021-.049.004-.08-.034l-.24-.3c-.142-.174-.189-.267-.21-.383-.037-.192.014-.43.115-.801.072-.264.168-.581.183-.659.006-.03-.007-.052-.024-.075l-.213-.278c-.013-.015-.026-.02-.047-.007l-.043.038c-.292.233-.54.434-.66.556-.082.081-.136.158-.072.26.03.054.08.128.11.166.021.025.021.045.006.058-.023.018-.05.001-.083-.039-.146-.183-.323-.421-.361-.468-.049-.06-.217-.252-.318-.376-.034-.04-.041-.07-.02-.088.017-.014.036-.007.066.03.038.046.075.08.104.104.062.052.145.012.245-.049.145-.09.394-.29.682-.522l.553-.446zm-3.056-2.878c.399-.465.472-.551.55-.655.084-.108.101-.18.02-.286a.727.727 0 0 0 -.113-.111c-.033-.03-.046-.053-.028-.072.018-.023.045-.01.09.03.163.139.349.313.44.392.072.063.273.22.384.314.045.04.062.063.043.085-.018.021-.042.012-.072-.014-.034-.03-.055-.042-.097-.069-.096-.054-.165-.024-.262.079-.09.092-.164.179-.564.642l-.367.429c-.38.443-.452.707-.408.958.042.23.172.362.275.452a.789.789 0 0 0 .565.198c.313-.024.557-.291.828-.606l.328-.382c.4-.467.472-.551.551-.653.083-.11.1-.18.017-.288a.884.884 0 0 0 -.101-.105c-.035-.029-.047-.052-.03-.07.02-.024.046-.01.088.026.157.134.342.307.345.31.037.033.237.189.357.291.042.037.058.062.04.083-.019.022-.042.012-.079-.019a.486.486 0 0 0 -.096-.067c-.096-.056-.166-.025-.263.077-.09.092-.164.177-.562.642l-.282.328c-.29.34-.635.671-1.08.671-.378 0-.627-.155-.825-.326-.163-.138-.449-.4-.498-.794-.036-.273.042-.6.422-1.044zm-1.817-2.293-.526-.292c-.206-.11-.3-.14-.397-.095a.452.452 0 0 0 -.13.087c-.024.023-.042.03-.064.02-.023-.015-.02-.038.003-.075.032-.055.284-.333.307-.357.036-.039.059-.055.08-.041.029.016.043.071.126.13.094.068.223.151.337.22l1.377.809c.111.063.194.1.25.124.059.019.09.028.105.036.024.014.015.037-.015.09-.043.073-.194.306-.248.396-.024.035-.043.05-.064.04-.027-.018-.024-.04.004-.094l.019-.04c.045-.094.008-.246-.297-.435l-.432-.268-.837 1.426c-.188.32-.35.595-.42.755-.046.101-.07.19.026.267.045.034.117.088.169.118.038.022.05.043.04.06-.014.025-.049.019-.087-.004-.23-.134-.443-.275-.54-.33-.08-.047-.305-.166-.444-.247-.045-.027-.063-.051-.05-.077.01-.016.03-.019.073.006a.526.526 0 0 0 .134.058c.077.028.143-.035.212-.13.103-.136.264-.41.453-.73zm-21.052 2.929c-.07.008-.09-.003-.136-.08-.112-.19-.222-.406-.251-.463-.028-.054-.04-.1-.012-.116.031-.018.053.01.07.039.026.045.083.11.135.157.228.213.49.185.704.057.312-.185.34-.486.23-.67-.101-.171-.248-.298-.669-.353l-.233-.03c-.558-.073-.834-.239-1-.518-.226-.381-.069-.844.413-1.13.225-.134.391-.185.496-.214.035-.012.059-.012.073.01.027.046.072.155.233.427.045.076.05.108.022.127-.023.014-.046-.001-.07-.042a.495.495 0 0 0 -.226-.177c-.092-.033-.253-.079-.479.055-.257.152-.324.392-.201.601.095.16.247.234.663.283l.14.015c.607.067.898.217 1.093.546.12.202.185.486.032.797a1.16 1.16 0 0 1 -.467.467c-.201.121-.372.189-.56.212zm-2.093.025c.015-.013.01-.023 0-.03l-.904-.553c-.013-.01-.03-.023-.04-.017-.009.009-.002.03.005.046l.328 1.005c.007.015.018.023.031.012zm-.517.67c-.017.014-.018.026-.01.05l.19.586a.757.757 0 0 0 .106.228c.046.058.106.076.204-.002l.047-.038c.038-.029.053-.03.068-.012.02.025.007.047-.029.074-.1.08-.244.18-.34.257-.036.028-.202.176-.366.305-.04.034-.065.043-.085.018-.015-.019-.006-.037.018-.055.028-.023.07-.062.093-.084.13-.135.105-.29.042-.498l-.788-2.61c-.034-.121-.044-.171-.013-.196.03-.022.07-.01.16.037.214.114 1.744.997 2.327 1.316.346.186.473.16.551.12a.733.733 0 0 0 .143-.092c.025-.02.043-.03.06-.007.02.025-.003.053-.12.146-.113.091-.342.275-.6.47-.06.042-.097.072-.114.05-.015-.019-.008-.035.021-.063.018-.024.017-.07-.029-.096l-.785-.467c-.019-.01-.034-.01-.049.003zm-3.061.496-.401.447c-.154.176-.206.259-.184.365.017.07.038.117.056.147.018.028.022.047.005.063-.02.022-.04.014-.071-.016a5.016 5.016 0 0 1 -.28-.38c-.03-.044-.038-.07-.022-.088.022-.023.079-.024.154-.092.088-.078.2-.183.291-.28l1.096-1.16c.09-.095.141-.166.177-.216.032-.053.05-.082.06-.092.019-.02.04-.008.083.033.063.06.256.259.332.331.027.03.039.053.022.07-.022.023-.042.016-.089-.023l-.035-.027c-.081-.066-.238-.064-.49.189l-.358.362 1.201 1.135c.27.253.502.474.642.578.09.069.17.112.265.033.045-.033.112-.092.153-.136.031-.033.053-.04.068-.024.02.019.007.05-.024.082-.182.194-.365.368-.443.452-.064.067-.23.26-.34.377-.035.038-.064.051-.085.03-.015-.012-.013-.033.02-.067.043-.044.07-.087.09-.117.042-.07-.005-.15-.082-.239-.108-.13-.34-.348-.61-.602zm-.993 2.715a16.414 16.414 0 0 0 -.695-.498c-.115-.076-.195-.082-.264-.023a.586.586 0 0 0 -.098.108c-.024.033-.044.047-.071.029-.02-.014-.007-.045.03-.1.091-.121.25-.32.32-.414.06-.081.19-.282.28-.404.03-.043.056-.064.076-.05.025.018.018.043-.006.076a.584.584 0 0 0 -.061.105c-.048.1-.012.166.098.255.099.083.19.15.685.511l.574.418c.315.231.572.419.723.508.094.054.169.072.253-.015.041-.04.1-.107.135-.156.026-.036.047-.044.064-.033.023.017.013.05-.013.086-.156.213-.316.414-.38.5-.055.075-.194.288-.29.418-.031.043-.057.058-.08.042-.016-.012-.017-.032.012-.072a.618.618 0 0 0 .073-.126c.034-.076-.007-.135-.094-.213a9.804 9.804 0 0 0 -.699-.537zm.092 3.329c-.056.042-.08.043-.158-.001-.193-.11-.394-.243-.448-.278-.05-.034-.084-.066-.068-.094.018-.031.052-.017.08-.001a.76.76 0 0 0 .196.068c.304.072.516-.081.639-.299.179-.316.053-.592-.133-.696-.172-.098-.363-.137-.756.025l-.218.09c-.52.214-.84.206-1.125.046-.386-.22-.48-.698-.203-1.187.13-.229.248-.355.325-.431.025-.027.045-.04.07-.025.045.025.139.096.412.251.077.044.1.07.084.1-.014.024-.041.023-.083 0a.485.485 0 0 0 -.284-.042c-.096.015-.26.056-.389.285-.146.26-.086.503.125.622.16.09.33.082.716-.084l.13-.056c.558-.244.886-.257 1.22-.068.203.115.401.33.423.675.011.24-.068.453-.174.64-.115.203-.23.347-.381.46zm-2.373 1.677c.041.016.06.014.081-.01.057-.068.112-.177.148-.27.058-.15.062-.204.04-.293-.04-.143-.17-.319-.479-.438-.533-.207-.824.087-.91.31a.91.91 0 0 0 -.062.204c-.003.03.009.043.039.055zm-.468.328c-.572-.22-.677-.261-.8-.3-.132-.042-.203-.037-.277.078a.804.804 0 0 0 -.068.143c-.016.04-.032.061-.058.05-.027-.01-.024-.04-.002-.096.076-.199.18-.43.21-.51.05-.128.148-.42.194-.535.091-.236.211-.48.429-.63a.694.694 0 0 1 .614-.055c.278.107.49.323.65.82.55-.17.986-.3 1.304-.431.3-.129.386-.27.42-.324a.692.692 0 0 0 .051-.1c.012-.03.03-.04.047-.033.03.012.028.04.011.085l-.139.358c-.08.21-.136.297-.226.375-.149.128-.382.202-.752.3-.266.07-.588.146-.663.173-.03.01-.042.03-.053.057l-.134.324c-.007.019-.004.033.019.042l.052.02c.35.136.647.25.812.293.114.029.206.04.264-.067a1.89 1.89 0 0 0 .086-.179c.012-.03.03-.04.048-.033.026.01.027.04.008.09-.084.217-.202.492-.225.548-.027.071-.108.312-.166.463-.02.049-.04.071-.067.06-.018-.007-.023-.026-.006-.07a.777.777 0 0 0 .038-.142c.012-.08-.062-.132-.166-.19a9.453 9.453 0 0 0 -.794-.328l-.661-.256zm-.747 2.902c-.6-.128-.71-.152-.838-.171-.136-.021-.206-.004-.26.12a.83.83 0 0 0 -.046.152c-.01.043-.022.065-.05.06-.027-.007-.029-.036-.017-.095.023-.107.052-.22.074-.318.025-.103.048-.192.06-.248.027-.125.196-.91.208-.987.009-.075.014-.14.013-.173 0-.02-.007-.047-.002-.067.004-.02.02-.02.04-.016.028.006.07.036.25.086.038.013.21.059.255.077.02.007.041.02.036.047-.007.028-.027.033-.064.025a.411.411 0 0 0 -.147-.008c-.076.013-.132.043-.198.234-.022.065-.12.478-.136.555-.004.022.006.032.034.038l.997.215c.028.005.044.005.05-.019.018-.087.116-.54.126-.633.013-.095.015-.158-.018-.2-.026-.035-.042-.056-.038-.075.004-.016.014-.026.038-.022.024.006.083.036.28.094.08.02.234.066.262.072.03.008.075.015.067.052-.006.028-.024.031-.043.028-.04-.004-.092-.015-.146-.014-.082.002-.154.044-.201.187a13.51 13.51 0 0 0 -.132.558c-.004.019.011.027.035.03l.311.069c.134.027.496.11.61.13.274.052.348.001.434-.4.022-.105.058-.27.032-.382-.025-.112-.098-.177-.253-.24-.042-.017-.056-.029-.05-.056.007-.032.038-.024.078-.016.09.02.351.108.427.145.096.05.088.084.056.235-.064.294-.118.51-.159.679a7.906 7.906 0 0 0 -.143.633c-.02.09-.035.194-.052.274-.01.052-.028.077-.056.07-.02-.004-.028-.022-.018-.07a.6.6 0 0 0 .015-.146c0-.081-.081-.119-.192-.16-.162-.055-.473-.122-.836-.2l-.693-.15zm-1.14 3.567c-.227.079-.277.145-.325.287a.552.552 0 0 0 -.026.155c-.003.037-.016.047-.04.047-.032-.003-.033-.047-.029-.108.013-.213.04-.441.049-.582.006-.1.006-.295.02-.497.003-.049.013-.092.042-.09.028.001.035.027.031.064-.003.064-.003.125.02.157.017.03.045.046.08.046.053.003.169-.024.316-.072l1.871-.575.001-.016c-.43-.2-1.693-.808-1.952-.92a.477.477 0 0 0 -.147-.046c-.032-.002-.066.012-.08.047a.524.524 0 0 0 -.03.16c-.002.036-.009.068-.037.066-.032-.001-.037-.038-.033-.114.013-.202.036-.371.039-.422.005-.069.005-.26.013-.38.003-.052.013-.083.042-.082.028.002.033.027.031.066-.002.041-.008.126.036.2.032.056.098.12.348.246.368.18.578.303 1.06.552.57.295.997.513 1.192.614.227.118.29.148.286.204-.003.051-.062.07-.254.135l-2.525.858zm.863 1.81c-.613.039-.725.045-.853.06-.136.018-.202.063-.216.152a.551.551 0 0 0 -.007.147c.002.04-.004.063-.037.066-.024.002-.034-.03-.038-.095-.01-.151-.013-.408-.02-.523-.007-.1-.034-.338-.044-.49-.003-.053.003-.086.027-.087.032-.002.042.022.044.062a.714.714 0 0 0 .02.12c.026.106.097.136.239.134.128 0 .241-.006.852-.045l.71-.045c.39-.026.707-.045.879-.073.108-.018.178-.052.186-.172.006-.058.008-.148.004-.206-.002-.045.008-.066.029-.067.027-.002.042.03.044.075.017.265.022.518.028.628.005.093.033.345.044.504.003.052-.006.083-.035.083-.02.001-.034-.013-.036-.061a.69.69 0 0 0 -.026-.143c-.02-.08-.09-.102-.208-.106-.17-.008-.488.012-.878.037zm1.944 3.602c.305-.073.397-.147.407-.232a.689.689 0 0 0 -.017-.212c-.01-.043-.007-.067.016-.072.032-.007.048.025.06.081.056.255.078.416.094.49.009.035.06.217.106.424.01.051.015.088-.02.095-.024.005-.037-.017-.046-.056a.679.679 0 0 0 -.058-.172c-.055-.096-.171-.087-.515-.016l-2.338.475c-.078.018-.137.018-.145-.02-.01-.044.033-.09.09-.173.04-.058.551-.798.995-1.498.21-.328.66-.982.708-1.063l-.004-.02-1.76.429c-.238.054-.305.106-.324.21-.01.066.01.157.022.213.01.049.002.067-.022.072-.03.007-.044-.037-.058-.094-.044-.206-.074-.396-.092-.48-.01-.044-.054-.189-.096-.383-.012-.051-.016-.091.015-.098.023-.006.04.016.051.064a.377.377 0 0 0 .038.113c.055.106.145.119.367.074l2.493-.502c.086-.02.125-.01.133.023.009.044-.024.102-.058.155-.181.299-.586.915-.902 1.413-.331.525-.727 1.07-.787 1.155l.003.011zm.154 4.12c-.564.24-.667.285-.782.344-.123.061-.17.115-.144.248.006.034.03.098.052.15.017.042.02.068-.008.076-.024.013-.044-.008-.067-.066-.085-.197-.173-.433-.221-.545-.038-.088-.15-.318-.206-.45-.024-.058-.027-.086-.001-.097.024-.012.043.008.058.046a.706.706 0 0 0 .057.102c.061.093.137.095.27.047.121-.044.226-.088.788-.33l.519-.221c.538-.233.718-.436.788-.681a.735.735 0 0 0 -.048-.527.783.783 0 0 0 -.418-.425c-.291-.117-.63.014-1.01.179l-.464.197c-.563.243-.667.287-.783.343-.122.063-.168.118-.142.251a.723.723 0 0 0 .046.139c.018.04.02.065-.006.077-.026.011-.044-.013-.067-.064-.08-.19-.17-.428-.171-.431-.02-.045-.13-.275-.192-.418-.023-.05-.027-.081 0-.092.026-.01.042.008.061.052a.626.626 0 0 0 .057.104c.062.092.137.095.27.047.122-.043.226-.089.789-.331l.396-.168c.412-.177.866-.325 1.267-.126.338.164.493.416.596.654.084.198.225.558.097.933-.09.263-.303.52-.84.751l-.54.232z" fill="#1d1d1b" fill-rule="evenodd"/></svg>