<?xml version="1.0" encoding="UTF-8"?>
<svg xmlns="http://www.w3.org/2000/svg" version="1.0" width="900px" height="333px" viewBox="0 0 9000 3330" preserveAspectRatio="xMidYMid meet"><g id="layer101" fill="#8b8b8b" stroke="none"><path d="M1348 2950 c-50 -9 -102 -39 -118 -70 -6 -10 -10 -35 -10 -54 l0 -36 54 0 c51 0 54 1 59 29 5 24 14 32 44 41 74 22 153 -29 119 -76 -10 -14 -35 -19 -115 -24 -110 -8 -126 -16 -135 -63 -4 -22 1 -35 19 -53 13 -13 30 -24 37 -24 7 0 -1 -9 -18 -19 -65 -39 -71 -137 -13 -197 46 -47 107 -60 210 -43 71 11 83 11 114 -4 20 -9 37 -17 40 -17 6 0 48 71 44 74 -16 13 -52 26 -74 26 -22 0 -26 3 -20 18 39 88 -18 164 -132 179 -96 12 -94 43 3 43 108 0 164 45 164 131 0 40 -6 55 -30 83 -45 51 -142 73 -242 56z m112 -410 c40 -40 12 -100 -45 -100 -40 0 -65 22 -65 57 0 57 69 84 110 43z"/><path d="M5508 2950 c-26 -4 -61 -16 -77 -26 -37 -22 -65 -76 -57 -110 6 -22 12 -24 61 -24 51 0 55 2 55 24 0 35 26 51 81 50 78 -1 117 -53 67 -88 -15 -11 -45 -16 -94 -16 -89 0 -132 -14 -140 -46 -10 -38 3 -69 33 -83 l27 -13 -26 -16 c-37 -22 -53 -57 -52 -109 1 -51 25 -89 73 -117 36 -21 117 -25 213 -11 48 6 62 5 84 -10 27 -18 28 -18 51 11 12 16 23 34 23 41 0 17 -33 33 -70 33 -27 0 -30 2 -20 19 20 38 12 88 -21 125 -23 27 -42 37 -87 46 -122 25 -134 50 -24 50 82 0 130 22 155 70 21 41 18 97 -8 136 -33 51 -150 81 -247 64z m100 -406 c26 -18 30 -65 6 -88 -24 -24 -80 -20 -98 6 -21 30 -20 54 4 78 24 24 57 26 88 4z"/><path d="M8539 2950 c-91 -16 -144 -65 -137 -128 3 -25 6 -27 61 -30 55 -3 57 -2 57 21 0 36 26 52 81 51 55 -1 92 -25 87 -58 -4 -30 -45 -46 -119 -46 -84 0 -127 -15 -135 -46 -10 -38 3 -69 33 -83 l28 -13 -23 -12 c-57 -31 -76 -129 -35 -184 47 -63 118 -79 265 -57 48 6 62 5 84 -10 27 -18 28 -18 51 11 12 16 23 33 23 38 0 17 -35 35 -68 36 -29 0 -32 2 -22 19 5 11 10 36 10 56 0 62 -82 125 -163 125 -26 0 -59 19 -52 31 4 5 36 9 73 9 81 0 129 22 155 71 22 42 17 96 -12 138 -35 49 -146 77 -242 61z m99 -406 c47 -32 17 -104 -44 -104 -36 0 -64 29 -64 67 0 25 34 53 65 53 11 0 31 -7 43 -16z"/><path d="M3150 2798 c-47 -17 -80 -69 -80 -125 0 -89 52 -135 168 -149 55 -6 62 -9 62 -28 0 -49 -54 -60 -129 -26 -24 11 -44 20 -46 20 -4 0 -45 -70 -45 -76 0 -3 25 -16 55 -30 105 -48 215 -40 259 19 19 26 20 40 18 154 -2 109 0 129 16 158 l20 32 -25 32 c-29 37 -39 38 -69 10 -21 -19 -24 -20 -47 -5 -33 22 -114 29 -157 14z m132 -95 c17 -15 26 -82 13 -95 -3 -3 -22 -2 -42 1 -26 4 -42 14 -52 32 -13 24 -13 29 2 53 20 30 52 34 79 9z"/><path d="M3615 2800 c-42 -9 -125 -39 -125 -46 0 -3 9 -22 20 -43 l19 -39 58 24 c70 29 94 30 124 5 20 -16 22 -22 12 -44 -9 -20 -24 -28 -70 -37 -111 -23 -150 -64 -140 -147 8 -76 71 -123 166 -123 51 0 151 27 151 41 0 5 -7 24 -16 43 l-17 34 -34 -15 c-19 -8 -54 -13 -76 -11 -37 3 -42 6 -45 29 -3 28 11 37 96 59 94 24 137 109 95 190 -32 61 -129 97 -218 80z"/><path d="M4015 2800 c-43 -9 -125 -39 -125 -46 0 -3 9 -22 20 -44 l20 -39 45 19 c72 31 113 35 135 15 23 -21 26 -48 7 -63 -7 -7 -38 -17 -68 -23 -104 -22 -150 -74 -135 -154 14 -73 75 -115 169 -115 55 0 147 25 147 41 0 4 -7 24 -16 43 -17 34 -17 34 -50 20 -60 -25 -124 -16 -124 17 0 22 32 44 80 54 88 19 130 61 130 133 0 99 -112 167 -235 142z"/><path d="M2509 2773 c-59 -30 -110 -94 -129 -161 -15 -56 -12 -174 7 -232 21 -65 88 -142 145 -165 72 -30 206 -19 237 19 16 19 -35 90 -57 80 -63 -26 -93 -28 -130 -9 -57 31 -77 80 -76 196 0 113 20 163 75 192 38 20 98 16 136 -8 20 -13 23 -12 48 20 14 20 23 40 19 46 -15 25 -90 49 -155 49 -52 0 -77 -6 -120 -27z"/><path d="M2913 2790 c-48 -20 -51 -37 -55 -325 l-3 -270 54 -13 c29 -7 56 -10 60 -7 3 4 7 126 9 272 3 252 4 266 23 270 22 6 42 64 25 75 -15 10 -86 9 -113 -2z"/><path d="M6660 2778 c-25 -13 -55 -38 -67 -56 -46 -70 -52 -194 -13 -272 46 -91 156 -125 250 -77 55 27 86 84 96 175 l7 62 -127 0 c-126 0 -126 0 -126 24 0 31 33 72 64 80 14 3 45 -1 68 -10 24 -8 50 -18 58 -20 13 -4 50 40 50 61 0 3 -24 17 -52 30 -70 33 -147 33 -208 3z m145 -258 c3 -5 -1 -25 -9 -45 -13 -31 -19 -35 -50 -35 -29 0 -38 5 -51 30 -27 52 -22 60 44 60 33 0 62 -4 66 -10z"/><path d="M7092 2779 c-81 -40 -121 -140 -102 -255 23 -143 149 -213 270 -151 58 29 88 83 97 171 l6 66 -128 0 -127 0 6 32 c14 68 69 91 143 58 25 -11 49 -20 52 -20 4 0 15 14 25 32 19 30 19 31 0 46 -62 47 -170 56 -242 21z m148 -272 c0 -51 -56 -85 -97 -59 -15 10 -35 61 -27 73 3 5 32 9 65 9 55 0 59 -2 59 -23z"/><path d="M490 2500 l0 -290 60 0 60 0 0 110 0 110 80 0 80 0 0 -110 0 -110 60 0 60 0 0 290 0 290 -60 0 -60 0 0 -130 0 -130 -80 0 -80 0 0 130 0 130 -60 0 -60 0 0 -290z"/><path d="M1010 2581 c0 -234 -7 -213 78 -226 l42 -7 0 221 0 221 -60 0 -60 0 0 -209z"/><path d="M1720 2492 l0 -299 51 -11 c28 -7 55 -10 60 -6 5 3 9 52 9 109 l0 103 37 -19 c42 -22 109 -25 148 -7 49 22 55 51 55 248 l0 180 -55 0 -55 0 0 -154 c0 -85 -3 -161 -6 -170 -8 -20 -56 -21 -94 -1 l-30 16 0 154 0 155 -60 0 -60 0 0 -298z"/><path d="M4520 2500 l0 -290 165 0 c183 0 173 -4 159 69 l-6 31 -100 0 -99 0 3 63 3 62 83 3 83 3 -3 47 -3 47 -83 3 -83 3 3 72 3 72 108 3 107 3 0 49 0 50 -170 0 -170 0 0 -290z"/><path d="M4938 2600 c-1 -104 -2 -198 -2 -207 -1 -12 13 -21 44 -30 42 -12 46 -12 61 9 13 17 20 19 31 11 26 -20 89 -35 125 -28 19 3 46 17 59 30 24 24 24 27 24 215 l0 190 -55 0 -55 0 -2 -161 c-3 -141 -5 -163 -20 -173 -14 -8 -26 -6 -53 8 l-35 19 0 154 0 153 -60 0 -60 0 -2 -190z"/><path d="M5880 2580 c0 -160 3 -212 13 -214 6 -3 31 -7 55 -10 l42 -6 0 220 0 220 -55 0 -55 0 0 -210z"/><path d="M6110 2601 c0 -104 -3 -196 -6 -205 -6 -17 13 -27 73 -40 28 -7 33 -5 38 17 l6 24 46 -24 c54 -27 80 -29 129 -8 56 23 64 56 64 255 l0 170 -60 0 -60 0 -2 -167 -3 -168 -33 2 c-66 3 -72 18 -72 185 l0 148 -60 0 -60 0 0 -189z"/><path d="M7440 2611 c0 -98 -3 -192 -6 -208 -6 -29 -4 -31 31 -37 20 -4 43 -10 51 -13 9 -3 17 5 24 22 l10 27 31 -26 c30 -26 92 -36 103 -17 3 5 -2 29 -10 55 -13 38 -20 46 -35 41 -10 -3 -32 1 -49 10 l-30 16 0 154 0 155 -60 0 -60 0 0 -179z"/><path d="M7730 2581 c0 -234 -7 -213 78 -226 l42 -7 0 221 0 221 -60 0 -60 0 0 -209z"/><path d="M7970 2611 c0 -98 -3 -192 -6 -208 -6 -28 -4 -30 42 -40 52 -12 64 -10 64 13 0 18 19 18 43 -1 28 -21 92 -28 132 -15 62 20 65 33 65 242 l0 188 -55 0 -55 0 -2 -161 c-3 -186 -8 -197 -72 -166 l-36 17 0 155 0 155 -60 0 -60 0 0 -179z"/><path d="M1043 2305 c-50 -21 -58 -71 -17 -112 20 -20 31 -24 57 -19 39 8 57 30 57 71 0 52 -46 81 -97 60z"/><path d="M5909 2306 c-58 -28 -56 -102 3 -127 37 -15 74 0 89 38 22 58 -38 116 -92 89z"/><path d="M7762 2305 c-52 -22 -55 -89 -6 -121 46 -31 104 3 104 60 0 54 -46 82 -98 61z"/><path d="M799 1453 l0 -288 -305 -355 c-168 -195 -319 -372 -335 -392 l-31 -38 301 0 301 0 165 220 c91 121 169 220 173 219 4 0 83 -99 177 -220 l170 -219 298 0 299 0 -50 58 c-27 31 -178 208 -336 392 l-286 334 0 288 0 288 -270 0 -270 0 -1 -287z"/><path d="M1770 1735 c0 -7 92 -200 461 -965 l185 -385 297 -3 c174 -1 297 1 297 7 0 5 65 143 145 306 80 164 145 298 145 300 0 1 57 119 126 261 69 142 150 310 179 372 l54 112 -285 -2 -286 -3 -41 -110 -42 -110 -302 -3 -301 -2 -27 72 c-15 40 -36 92 -46 116 l-18 42 -270 0 c-149 0 -271 -2 -271 -5z m1117 -537 c-3 -7 -44 -112 -92 -233 -47 -121 -88 -221 -89 -222 -2 -3 -111 268 -183 455 -4 9 36 12 182 12 146 0 186 -3 182 -12z"/><path d="M4081 1638 c-27 -57 -95 -197 -151 -313 -56 -115 -126 -259 -155 -320 -29 -60 -107 -222 -174 -359 -67 -137 -121 -253 -121 -257 0 -5 125 -9 279 -9 l278 0 187 468 c103 257 191 471 196 475 4 5 49 -97 99 -225 51 -128 136 -342 188 -475 l97 -243 274 0 c215 0 273 3 269 12 -3 7 -148 312 -321 678 l-316 665 -290 3 -291 2 -48 -102z"/><path d="M5470 1060 l0 -680 720 0 720 0 0 145 0 145 -447 2 -448 3 -3 103 -3 102 415 0 415 0 3 140 3 140 -417 0 -418 0 0 130 0 130 463 2 462 3 0 155 0 155 -732 3 -733 2 0 -680z"/><path d="M7170 1062 l0 -679 348 -6 c434 -7 823 5 906 28 131 37 226 107 273 204 25 49 28 67 28 151 0 83 -3 101 -27 145 -50 97 -194 199 -310 220 -37 7 -53 25 -22 25 30 0 124 54 168 96 36 34 336 472 336 490 0 2 -136 4 -303 4 l-303 0 -177 -254 c-196 -282 -206 -291 -317 -298 l-55 -3 -5 275 -5 275 -267 3 -268 2 0 -678z m936 -161 c80 -35 105 -101 64 -168 -36 -60 -64 -68 -272 -71 l-188 -4 0 137 0 137 173 -4 c149 -4 179 -8 223 -27z"/></g></svg>