<?xml version="1.0" encoding="UTF-8" standalone="no"?>
<!DOCTYPE svg PUBLIC "-//W3C//DTD SVG 1.1//EN" "http://www.w3.org/Graphics/SVG/1.1/DTD/svg11.dtd">
<svg width="100%" height="100%" viewBox="0 0 238 74" version="1.1" xmlns="http://www.w3.org/2000/svg" xmlns:xlink="http://www.w3.org/1999/xlink" xml:space="preserve" xmlns:serif="http://www.serif.com/" style="fill-rule:evenodd;clip-rule:evenodd;stroke-linejoin:round;stroke-miterlimit:2;">
    <path d="M26.16,34C29.26,34 30.92,35.66 30.92,38.15C30.92,40.64 29.26,42.3 26.16,42.3L6.31,42.3C1.49,42.3 0,40.3 0,37.38C0,35.83 0.61,34.89 1.66,33.45L18.58,10.92L5.37,10.92C2.27,10.92 0.61,9.27 0.61,6.92C0.61,4.57 2.27,3 5.37,3L24.61,3C29.37,3 30.09,5.93 30.09,7.48C30.09,9.36 28.43,11.63 25.88,15L11.56,34L26.16,34Z" style="fill:rgb(0,83,128);fill-rule:nonzero;"/>
    <path d="M34.29,7.38C34.29,4.23 36.17,2.62 38.77,2.62C41.37,2.62 43.25,4.23 43.25,7.38L43.25,34L52.87,34C55.69,34 57.35,35.55 57.35,38.14C57.35,40.73 55.69,42.29 52.87,42.29L38.77,42.29C38.716,42.292 38.661,42.293 38.607,42.293C36.237,42.293 34.287,40.343 34.287,37.973C34.287,37.919 34.288,37.864 34.29,37.81L34.29,7.38Z" style="fill:rgb(0,83,128);fill-rule:nonzero;"/>
    <path d="M70,7.09C70,4.638 67.982,2.62 65.53,2.62C63.078,2.62 61.06,4.638 61.06,7.09L61.06,36.87C61.075,35.837 61.426,34.836 62.06,34.02C62.904,32.98 64.18,32.382 65.52,32.4C66.718,32.372 67.874,32.852 68.7,33.72C69.527,34.56 69.993,35.691 70,36.87L70,7.09Z" style="fill:rgb(0,83,128);fill-rule:nonzero;"/>
    <path d="M61.07,66.65C61.07,69.102 63.088,71.12 65.54,71.12C67.992,71.12 70.01,69.102 70.01,66.65L70.01,36.88C70.001,37.911 69.649,38.911 69.01,39.72C68.171,40.761 66.897,41.359 65.56,41.34C64.349,41.37 63.18,40.883 62.35,40C61.531,39.16 61.072,38.033 61.07,36.86L61.07,66.65Z" style="fill:rgb(237,119,3);fill-rule:nonzero;"/>
    <path d="M92.69,32.56C98.11,32.56 104.58,34.11 104.58,38.81C104.681,41.038 102.938,42.957 100.71,43.07C98.61,43.07 96.39,41.19 92.91,41.19C85.67,41.19 82.79,47.05 82.79,53.13C82.79,59.38 86,64.75 92.14,64.75C97.72,64.75 98.61,62.92 100.93,62.92C104.47,62.92 104.93,65.92 104.93,67.07C104.93,71.99 97.47,73.71 92.54,73.71C80.15,73.71 73.19,64.42 73.19,53.13C73.17,41.19 80.85,32.56 92.69,32.56Z" style="fill:rgb(237,119,3);fill-rule:nonzero;"/>
    <path d="M116.69,41.74L111.69,41.74C108.69,41.74 107.04,40.08 107.04,37.59C107.04,35.1 108.7,33.44 111.69,33.44L130.69,33.44C133.69,33.44 135.33,34.99 135.33,37.59C135.33,40.19 133.67,41.74 130.69,41.74L125.69,41.74L125.69,68.4C125.69,71.55 123.81,73.16 121.21,73.16C118.61,73.16 116.73,71.55 116.73,68.4L116.69,41.74Z" style="fill:rgb(237,119,3);fill-rule:nonzero;"/>
    <path d="M83.33,11.65C83.357,11.648 83.383,11.647 83.41,11.647C83.959,11.647 84.41,12.098 84.41,12.647C84.41,12.648 84.41,12.649 84.41,12.65C84.378,13.216 83.897,13.662 83.33,13.65L77.43,13.65C76.64,13.65 76.17,13.2 76.17,12.57C76.178,12.256 76.283,11.952 76.47,11.7L81.3,4.93L77.36,4.93C77.339,4.931 77.319,4.932 77.298,4.932C76.782,4.932 76.358,4.508 76.358,3.992C76.358,3.971 76.359,3.951 76.36,3.93C76.36,3.381 76.811,2.93 77.36,2.93L82.85,2.93C82.897,2.924 82.944,2.921 82.991,2.921C83.59,2.921 84.088,3.402 84.11,4C84.108,4.36 83.992,4.71 83.78,5L79,11.65L83.33,11.65Z" style="fill:rgb(0,83,128);fill-rule:nonzero;"/>
    <path d="M85.41,4C85.407,3.965 85.405,3.929 85.405,3.894C85.405,3.274 85.915,2.764 86.535,2.764C87.155,2.764 87.665,3.274 87.665,3.894C87.665,3.929 87.663,3.965 87.66,4L87.66,9.27C87.656,9.327 87.654,9.384 87.654,9.44C87.654,10.702 88.692,11.74 89.954,11.74C89.969,11.74 89.985,11.74 90,11.74C91.271,11.715 92.303,10.662 92.303,9.39C92.303,9.35 92.302,9.31 92.3,9.27L92.3,4C92.297,3.965 92.295,3.929 92.295,3.894C92.295,3.274 92.805,2.764 93.425,2.764C94.045,2.764 94.555,3.274 94.555,3.894C94.555,3.929 94.553,3.965 94.55,4L94.55,9.39C94.437,11.808 92.416,13.737 89.995,13.737C87.574,13.737 85.553,11.808 85.44,9.39L85.41,4ZM88.32,0C88.912,-0 89.4,0.488 89.4,1.08C89.4,1.672 88.912,2.16 88.32,2.16C87.728,2.16 87.24,1.672 87.24,1.08C87.24,0.488 87.728,0 88.32,0ZM91.62,0C92.212,-0 92.7,0.488 92.7,1.08C92.7,1.672 92.212,2.16 91.62,2.16C91.028,2.16 90.54,1.672 90.54,1.08C90.54,0.488 91.028,0 91.62,0Z" style="fill:rgb(0,83,128);fill-rule:nonzero;"/>
    <path d="M96.36,4.12C96.359,4.099 96.358,4.077 96.358,4.056C96.358,3.475 96.837,2.996 97.418,2.996C97.449,2.996 97.479,2.997 97.51,3L100.15,3C102.46,3 103.89,4 103.89,6.39C103.85,7.91 102.629,9.158 101.11,9.23L103.66,11.96C103.839,12.135 103.946,12.37 103.96,12.62C103.96,12.633 103.961,12.646 103.961,12.66C103.961,13.28 103.451,13.79 102.831,13.79C102.494,13.79 102.175,13.639 101.96,13.38L98.63,9.38L98.63,12.63C98.633,12.665 98.635,12.701 98.635,12.736C98.635,13.356 98.125,13.866 97.505,13.866C96.885,13.866 96.375,13.356 96.375,12.736C96.375,12.701 96.377,12.665 96.38,12.63L96.36,4.12ZM98.61,7.68L100.15,7.68C100.19,7.684 100.231,7.686 100.272,7.686C100.974,7.686 101.552,7.108 101.552,6.406C101.552,6.384 101.551,6.362 101.55,6.34C101.552,6.311 101.553,6.281 101.553,6.252C101.553,5.561 100.984,4.992 100.293,4.992C100.245,4.992 100.198,4.995 100.15,5L98.61,5L98.61,7.68Z" style="fill:rgb(0,83,128);fill-rule:nonzero;"/>
    <path d="M109.89,2.77C110.99,2.77 113.12,3.13 113.12,4.45C113.121,4.973 112.712,5.413 112.19,5.45C111.57,5.45 111.19,4.92 109.89,4.92C108.03,4.92 107.07,6.5 107.07,8.33C107.07,10.16 108.07,11.64 109.89,11.64C111.15,11.64 111.66,11.01 112.28,11.01C112.817,11.04 113.25,11.473 113.28,12.01C113.28,13.45 111.01,13.78 109.9,13.78C107.06,13.769 104.729,11.43 104.729,8.59C104.729,8.48 104.733,8.37 104.74,8.26C104.73,5.17 106.83,2.77 109.89,2.77Z" style="fill:rgb(0,83,128);fill-rule:nonzero;"/>
    <path d="M114.62,4C114.617,3.965 114.615,3.929 114.615,3.894C114.615,3.274 115.125,2.764 115.745,2.764C116.365,2.764 116.875,3.274 116.875,3.894C116.875,3.929 116.873,3.965 116.87,4L116.87,7.21L121.57,7.21L121.57,4C121.567,3.965 121.565,3.929 121.565,3.894C121.565,3.274 122.075,2.764 122.695,2.764C123.315,2.764 123.825,3.274 123.825,3.894C123.825,3.929 123.823,3.965 123.82,4L123.82,12.52C123.823,12.555 123.825,12.591 123.825,12.626C123.825,13.246 123.315,13.756 122.695,13.756C122.075,13.756 121.565,13.246 121.565,12.626C121.565,12.591 121.567,12.555 121.57,12.52L121.57,9.28L116.87,9.28L116.87,12.55C116.873,12.585 116.875,12.621 116.875,12.656C116.875,13.276 116.365,13.786 115.745,13.786C115.125,13.786 114.615,13.276 114.615,12.656C114.615,12.621 114.617,12.585 114.62,12.55L114.62,4Z" style="fill:rgb(0,83,128);fill-rule:nonzero;"/>
    <path d="M125.75,4.26C125.75,3.51 126.12,2.95 126.92,2.95L130.64,2.95C130.663,2.948 130.687,2.948 130.71,2.948C131.259,2.948 131.71,3.399 131.71,3.948L131.71,3.952C131.71,4.501 131.259,4.952 130.71,4.952C130.687,4.952 130.663,4.952 130.64,4.95L128,4.95L128,7.21L130.46,7.21C130.49,7.207 130.52,7.206 130.55,7.206C131.099,7.206 131.55,7.657 131.55,8.206L131.55,8.214C131.55,8.763 131.099,9.214 130.55,9.214C130.52,9.214 130.49,9.213 130.46,9.21L128,9.21L128,11.49L130.78,11.49C130.8,11.489 130.82,11.488 130.84,11.488C131.389,11.488 131.84,11.94 131.84,12.488L131.84,12.492C131.84,13.04 131.389,13.492 130.84,13.492C130.82,13.492 130.8,13.491 130.78,13.49L126.91,13.49C126.89,13.491 126.87,13.492 126.85,13.492C126.246,13.492 125.75,12.995 125.75,12.392C125.75,12.384 125.75,12.377 125.75,12.37L125.75,4.26Z" style="fill:rgb(0,83,128);fill-rule:nonzero;"/>
    <path d="M133.21,4.12C133.209,4.102 133.209,4.084 133.209,4.066C133.209,3.479 133.692,2.996 134.279,2.996C134.309,2.996 134.34,2.997 134.37,3L137,3C139.31,3 140.73,4 140.73,6.39C140.671,7.875 139.484,9.089 138,9.18L140.55,11.91C140.729,12.085 140.836,12.32 140.85,12.57C140.85,12.574 140.85,12.578 140.85,12.582C140.85,13.207 140.335,13.722 139.71,13.722C139.38,13.722 139.066,13.579 138.85,13.33L135.52,9.33L135.52,12.58C135.523,12.615 135.525,12.651 135.525,12.686C135.525,13.306 135.015,13.816 134.395,13.816C133.775,13.816 133.265,13.306 133.265,12.686C133.265,12.651 133.267,12.615 133.27,12.58L133.21,4.12ZM135.46,7.68L137,7.68C137.037,7.683 137.074,7.685 137.112,7.685C137.814,7.685 138.392,7.107 138.392,6.405C138.392,6.383 138.391,6.362 138.39,6.34C138.392,6.311 138.393,6.282 138.393,6.253C138.393,5.562 137.824,4.993 137.133,4.993C137.089,4.993 137.044,4.995 137,5L135.45,5L135.46,7.68Z" style="fill:rgb(0,83,128);fill-rule:nonzero;"/>
    <path d="M76.52,17.83C76.517,17.795 76.515,17.759 76.515,17.724C76.515,17.104 77.025,16.594 77.645,16.594C78.265,16.594 78.775,17.104 78.775,17.724C78.775,17.759 78.773,17.795 78.77,17.83L78.77,25.36L81.44,25.36C81.468,25.358 81.496,25.357 81.523,25.357C82.072,25.357 82.523,25.808 82.523,26.357C82.523,26.384 82.522,26.412 82.52,26.44C82.52,26.441 82.52,26.442 82.52,26.443C82.52,26.992 82.069,27.443 81.52,27.443C81.493,27.443 81.467,27.442 81.44,27.44L77.69,27.44C77.668,27.441 77.646,27.442 77.623,27.442C77.014,27.442 76.513,26.941 76.513,26.332C76.513,26.291 76.516,26.251 76.52,26.21L76.52,17.83Z" style="fill:rgb(0,83,128);fill-rule:nonzero;"/>
    <path d="M83.41,18.06C83.41,17.31 83.79,16.75 84.58,16.75L88.3,16.75C88.868,16.75 89.335,17.217 89.335,17.785C89.335,18.353 88.868,18.82 88.3,18.82L85.66,18.82L85.66,21L88.12,21C88.153,20.997 88.187,20.995 88.22,20.995C88.769,20.995 89.22,21.446 89.22,21.995L89.22,22.005C89.22,22.554 88.769,23.005 88.22,23.005C88.187,23.005 88.153,23.003 88.12,23L85.66,23L85.66,25.28L88.44,25.28C88.46,25.279 88.48,25.278 88.5,25.278C89.049,25.278 89.5,25.73 89.5,26.278L89.5,26.282C89.5,26.83 89.049,27.282 88.5,27.282C88.48,27.282 88.46,27.281 88.44,27.28L84.57,27.28C84.55,27.281 84.53,27.282 84.51,27.282C83.906,27.282 83.41,26.785 83.41,26.182C83.41,26.174 83.41,26.167 83.41,26.16L83.41,18.06Z" style="fill:rgb(0,83,128);fill-rule:nonzero;"/>
    <path d="M90.91,17.83C90.907,17.795 90.905,17.759 90.905,17.724C90.905,17.104 91.415,16.594 92.035,16.594C92.655,16.594 93.165,17.104 93.165,17.724C93.165,17.759 93.163,17.795 93.16,17.83L93.16,21L97.87,21L97.87,17.83C97.867,17.795 97.865,17.759 97.865,17.724C97.865,17.104 98.375,16.594 98.995,16.594C99.615,16.594 100.125,17.104 100.125,17.724C100.125,17.759 100.123,17.795 100.12,17.83L100.12,26.35C100.123,26.385 100.125,26.421 100.125,26.456C100.125,27.076 99.615,27.586 98.995,27.586C98.375,27.586 97.865,27.076 97.865,26.456C97.865,26.421 97.867,26.385 97.87,26.35L97.87,23.08L93.16,23.08L93.16,26.35C93.163,26.385 93.165,26.421 93.165,26.456C93.165,27.076 92.655,27.586 92.035,27.586C91.415,27.586 90.905,27.076 90.905,26.456C90.905,26.421 90.907,26.385 90.91,26.35L90.91,17.83Z" style="fill:rgb(0,83,128);fill-rule:nonzero;"/>
    <path d="M102,17.92C101.997,17.885 101.995,17.851 101.995,17.816C101.995,17.229 102.478,16.746 103.065,16.746C103.097,16.746 103.128,16.747 103.16,16.75L105.8,16.75C108.11,16.75 109.53,17.75 109.53,20.14C109.507,21.652 108.309,22.907 106.8,23L109.35,25.73C109.529,25.905 109.636,26.14 109.65,26.39C109.65,26.394 109.65,26.398 109.65,26.402C109.65,27.027 109.135,27.542 108.51,27.542C108.18,27.542 107.866,27.399 107.65,27.15L104.32,23.15L104.32,26.4C104.323,26.435 104.325,26.471 104.325,26.506C104.325,27.126 103.815,27.636 103.195,27.636C102.575,27.636 102.065,27.126 102.065,26.506C102.065,26.471 102.067,26.435 102.07,26.4L102,17.92ZM104.25,21.48L105.8,21.48C105.837,21.483 105.874,21.485 105.912,21.485C106.614,21.485 107.192,20.907 107.192,20.205C107.192,20.183 107.191,20.162 107.19,20.14C107.191,20.118 107.192,20.095 107.192,20.073C107.192,19.382 106.623,18.813 105.932,18.813C105.888,18.813 105.844,18.815 105.8,18.82L104.25,18.82L104.25,21.48Z" style="fill:rgb(0,83,128);fill-rule:nonzero;"/>
    <path d="M111,17.88C110.999,17.865 110.999,17.85 110.999,17.835C110.999,17.237 111.491,16.745 112.089,16.745C112.123,16.745 112.156,16.747 112.19,16.75L115.07,16.75C115.127,16.746 115.183,16.745 115.24,16.745C116.692,16.745 117.888,17.938 117.89,19.39C117.95,20.349 117.383,21.244 116.49,21.6C117.775,21.759 118.755,22.855 118.77,24.15C118.77,26.26 117.36,27.4 115.29,27.4L112.2,27.4C112.17,27.402 112.14,27.404 112.109,27.404C111.501,27.404 110.999,26.903 110.999,26.294C110.999,26.282 111,26.271 111,26.26L111,17.88ZM113.25,20.98L114.42,20.98C114.457,20.984 114.495,20.986 114.533,20.986C115.142,20.986 115.643,20.485 115.643,19.876C115.643,19.85 115.642,19.825 115.64,19.8C115.633,19.207 115.143,18.722 114.55,18.722C114.507,18.722 114.463,18.725 114.42,18.73L113.25,18.73L113.25,20.98ZM113.25,25.45L115,25.45C115.047,25.455 115.094,25.458 115.141,25.458C115.837,25.458 116.411,24.885 116.411,24.188C116.411,24.175 116.41,24.163 116.41,24.15C116.41,23.44 115.87,22.96 114.82,22.96L113.23,22.96L113.25,25.45Z" style="fill:rgb(0,83,128);fill-rule:nonzero;"/>
    <path d="M120.1,18.06C120.1,17.31 120.47,16.75 121.27,16.75L125,16.75C125.02,16.749 125.04,16.748 125.06,16.748C125.609,16.748 126.06,17.2 126.06,17.748L126.06,17.752C126.06,18.3 125.609,18.752 125.06,18.752C125.04,18.752 125.02,18.751 125,18.75L122.36,18.75L122.36,21L124.82,21C125.388,21 125.855,21.467 125.855,22.035C125.855,22.603 125.388,23.07 124.82,23.07L122.36,23.07L122.36,25.35L125.13,25.35C125.698,25.35 126.165,25.817 126.165,26.385C126.165,26.953 125.698,27.42 125.13,27.42L121.26,27.42C121.24,27.421 121.22,27.422 121.2,27.422C120.602,27.422 120.11,26.93 120.11,26.332C120.11,26.321 120.11,26.311 120.11,26.3L120.1,18.06Z" style="fill:rgb(0,83,128);fill-rule:nonzero;"/>
    <path d="M129.48,18.82L127.85,18.82C127.301,18.82 126.85,18.369 126.85,17.82C126.85,17.271 127.301,16.82 127.85,16.82L133.37,16.82C133.919,16.82 134.37,17.271 134.37,17.82C134.37,18.369 133.919,18.82 133.37,18.82L131.73,18.82L131.73,26.35C131.733,26.385 131.735,26.421 131.735,26.456C131.735,27.076 131.225,27.586 130.605,27.586C129.985,27.586 129.475,27.076 129.475,26.456C129.475,26.421 129.477,26.385 129.48,26.35L129.48,18.82Z" style="fill:rgb(0,83,128);fill-rule:nonzero;"/>
    <path d="M135.34,17.92C135.336,17.882 135.334,17.844 135.334,17.806C135.334,17.224 135.812,16.746 136.394,16.746C136.426,16.746 136.458,16.747 136.49,16.75L139.13,16.75C141.44,16.75 142.87,17.75 142.87,20.14C142.84,21.668 141.616,22.927 140.09,23L142.64,25.73C142.819,25.905 142.926,26.14 142.94,26.39C142.94,26.403 142.941,26.416 142.941,26.43C142.941,27.05 142.431,27.56 141.811,27.56C141.474,27.56 141.155,27.409 140.94,27.15L137.61,23.15L137.61,26.4C137.613,26.435 137.615,26.471 137.615,26.506C137.615,27.126 137.105,27.636 136.485,27.636C135.865,27.636 135.355,27.126 135.355,26.506C135.355,26.471 135.357,26.435 135.36,26.4L135.34,17.92ZM137.59,21.48L139.13,21.48C139.17,21.484 139.211,21.486 139.252,21.486C139.954,21.486 140.532,20.908 140.532,20.206C140.532,20.184 140.531,20.162 140.53,20.14C140.531,20.117 140.532,20.095 140.532,20.072C140.532,19.381 139.963,18.812 139.272,18.812C139.224,18.812 139.177,18.815 139.13,18.82L137.59,18.82L137.59,21.48Z" style="fill:rgb(0,83,128);fill-rule:nonzero;"/>
    <path d="M144.32,17.83C144.317,17.795 144.315,17.759 144.315,17.724C144.315,17.104 144.825,16.594 145.445,16.594C146.065,16.594 146.575,17.104 146.575,17.724C146.575,17.759 146.573,17.795 146.57,17.83L146.57,26.35C146.573,26.385 146.575,26.421 146.575,26.456C146.575,27.076 146.065,27.586 145.445,27.586C144.825,27.586 144.315,27.076 144.315,26.456C144.315,26.421 144.317,26.385 144.32,26.35L144.32,17.83Z" style="fill:rgb(0,83,128);fill-rule:nonzero;"/>
    <path d="M148.47,18.06C148.47,17.31 148.84,16.75 149.64,16.75L153.36,16.75C153.38,16.749 153.4,16.748 153.42,16.748C153.969,16.748 154.42,17.2 154.42,17.748L154.42,17.752C154.42,18.3 153.969,18.752 153.42,18.752C153.4,18.752 153.38,18.751 153.36,18.75L150.72,18.75L150.72,21L153.18,21C153.748,21 154.215,21.467 154.215,22.035C154.215,22.603 153.748,23.07 153.18,23.07L150.72,23.07L150.72,25.35L153.49,25.35C154.058,25.35 154.525,25.817 154.525,26.385C154.525,26.953 154.058,27.42 153.49,27.42L149.62,27.42C149.6,27.421 149.58,27.422 149.56,27.422C148.962,27.422 148.47,26.93 148.47,26.332C148.47,26.321 148.47,26.311 148.47,26.3L148.47,18.06Z" style="fill:rgb(0,83,128);fill-rule:nonzero;"/>
    <path d="M155.93,17.88C155.929,17.865 155.929,17.85 155.929,17.835C155.929,17.237 156.421,16.745 157.019,16.745C157.053,16.745 157.086,16.747 157.12,16.75L160,16.75C160.057,16.746 160.113,16.745 160.17,16.745C161.622,16.745 162.818,17.938 162.82,19.39C162.88,20.349 162.313,21.244 161.42,21.6C162.705,21.759 163.685,22.855 163.7,24.15C163.7,26.26 162.29,27.4 160.22,27.4L157.13,27.4C157.1,27.402 157.07,27.404 157.039,27.404C156.431,27.404 155.929,26.903 155.929,26.294C155.929,26.282 155.93,26.271 155.93,26.26L155.93,17.88ZM158.18,20.98L159.35,20.98C159.387,20.984 159.425,20.986 159.463,20.986C160.072,20.986 160.573,20.485 160.573,19.876C160.573,19.85 160.572,19.825 160.57,19.8C160.563,19.207 160.073,18.722 159.48,18.722C159.437,18.722 159.393,18.725 159.35,18.73L158.18,18.73L158.18,20.98ZM158.18,25.45L160,25.45C160.047,25.455 160.094,25.458 160.141,25.458C160.837,25.458 161.411,24.885 161.411,24.188C161.411,24.175 161.41,24.163 161.41,24.15C161.41,23.44 160.87,22.96 159.82,22.96L158.23,22.96L158.18,25.45Z" style="fill:rgb(0,83,128);fill-rule:nonzero;"/>
    <path d="M171.25,18.07C171.254,18.107 171.256,18.143 171.256,18.18C171.256,18.729 170.805,19.18 170.256,19.18C170.254,19.18 170.252,19.18 170.25,19.18C169.64,19.18 169.16,18.73 168.25,18.73C167.6,18.73 167.02,19.08 167.02,19.73C167.02,21.27 172.02,20.28 172.02,24.15C171.983,26.077 170.388,27.641 168.461,27.641C168.367,27.641 168.273,27.637 168.18,27.63C167.02,27.63 164.53,27.36 164.53,25.95C164.529,25.93 164.528,25.91 164.528,25.89C164.528,25.341 164.98,24.89 165.528,24.89C165.529,24.89 165.529,24.89 165.53,24.89C166.23,24.89 167.07,25.47 168.05,25.47C169.03,25.47 169.58,24.92 169.58,24.18C169.58,22.41 164.58,23.48 164.58,20C164.608,18.116 166.165,16.581 168.05,16.581C168.133,16.581 168.217,16.584 168.3,16.59C169.15,16.57 171.25,16.89 171.25,18.07Z" style="fill:rgb(0,83,128);fill-rule:nonzero;"/>
    <path d="M172.56,18.3C172.492,18.121 172.458,17.931 172.46,17.74C172.485,17.144 172.982,16.667 173.579,16.667C174.047,16.667 174.468,16.961 174.63,17.4L177,23.64L179.32,17.4C179.474,16.947 179.902,16.641 180.38,16.641C180.987,16.641 181.489,17.134 181.5,17.74C181.503,17.932 181.466,18.123 181.39,18.3L178.11,26.65C177.91,27.13 177.66,27.52 177,27.52C176.473,27.529 176.008,27.164 175.89,26.65L172.56,18.3Z" style="fill:rgb(0,83,128);fill-rule:nonzero;"/>
    <path d="M182.47,18.06C182.47,17.31 182.85,16.75 183.64,16.75L187.36,16.75C187.928,16.75 188.395,17.217 188.395,17.785C188.395,18.353 187.928,18.82 187.36,18.82L184.72,18.82L184.72,21L187.18,21C187.213,20.997 187.247,20.995 187.28,20.995C187.829,20.995 188.28,21.446 188.28,21.995L188.28,22.005C188.28,22.554 187.829,23.005 187.28,23.005C187.247,23.005 187.213,23.003 187.18,23L184.72,23L184.72,25.28L187.5,25.28C187.52,25.279 187.54,25.278 187.56,25.278C188.109,25.278 188.56,25.73 188.56,26.278L188.56,26.282C188.56,26.83 188.109,27.282 187.56,27.282C187.54,27.282 187.52,27.281 187.5,27.28L183.63,27.28C183.61,27.281 183.59,27.282 183.57,27.282C182.966,27.282 182.47,26.785 182.47,26.182C182.47,26.174 182.47,26.167 182.47,26.16L182.47,18.06Z" style="fill:rgb(0,83,128);fill-rule:nonzero;"/>
    <path d="M189.94,17.92C189.936,17.882 189.934,17.844 189.934,17.806C189.934,17.224 190.412,16.746 190.994,16.746C191.026,16.746 191.058,16.747 191.09,16.75L193.73,16.75C196.04,16.75 197.47,17.75 197.47,20.14C197.44,21.668 196.216,22.927 194.69,23L197.24,25.73C197.419,25.905 197.526,26.14 197.54,26.39C197.54,26.403 197.541,26.416 197.541,26.43C197.541,27.05 197.031,27.56 196.411,27.56C196.074,27.56 195.755,27.409 195.54,27.15L192.21,23.15L192.21,26.4C192.213,26.435 192.215,26.471 192.215,26.506C192.215,27.126 191.705,27.636 191.085,27.636C190.465,27.636 189.955,27.126 189.955,26.506C189.955,26.471 189.957,26.435 189.96,26.4L189.94,17.92ZM192.19,21.48L193.73,21.48C193.77,21.484 193.811,21.486 193.852,21.486C194.554,21.486 195.132,20.908 195.132,20.206C195.132,20.184 195.131,20.162 195.13,20.14C195.131,20.117 195.132,20.095 195.132,20.072C195.132,19.381 194.563,18.812 193.872,18.812C193.824,18.812 193.777,18.815 193.73,18.82L192.19,18.82L192.19,21.48Z" style="fill:rgb(0,83,128);fill-rule:nonzero;"/>
    <path d="M198.88,17.88C198.879,17.865 198.879,17.85 198.879,17.835C198.879,17.237 199.371,16.745 199.969,16.745C200.003,16.745 200.036,16.747 200.07,16.75L203,16.75C203.057,16.746 203.113,16.745 203.17,16.745C204.622,16.745 205.818,17.938 205.82,19.39C205.88,20.349 205.313,21.244 204.42,21.6C205.705,21.759 206.685,22.855 206.7,24.15C206.7,26.26 205.29,27.4 203.22,27.4L200.13,27.4C200.1,27.402 200.07,27.404 200.039,27.404C199.431,27.404 198.929,26.903 198.929,26.294C198.929,26.282 198.93,26.271 198.93,26.26L198.88,17.88ZM201.13,20.98L202.3,20.98C202.337,20.984 202.375,20.986 202.413,20.986C203.022,20.986 203.523,20.485 203.523,19.876C203.523,19.85 203.522,19.825 203.52,19.8C203.513,19.207 203.023,18.722 202.43,18.722C202.387,18.722 202.343,18.725 202.3,18.73L201.13,18.73L201.13,20.98ZM201.13,25.45L202.9,25.45C202.947,25.455 202.994,25.458 203.041,25.458C203.737,25.458 204.311,24.885 204.311,24.188C204.311,24.175 204.31,24.163 204.31,24.15C204.31,23.44 203.77,22.96 202.72,22.96L201.13,22.96L201.13,25.45Z" style="fill:rgb(0,83,128);fill-rule:nonzero;"/>
    <path d="M210.38,17.82C210.602,17.105 211.252,16.604 212,16.57C212.749,16.587 213.402,17.098 213.6,17.82L216.53,26C216.599,26.176 216.64,26.361 216.65,26.55C216.65,27.099 216.199,27.55 215.65,27.55C215.146,27.587 214.682,27.258 214.55,26.77L214.1,25.36L209.9,25.36L209.45,26.76C209.346,27.258 208.877,27.602 208.37,27.55C208.36,27.55 208.35,27.55 208.34,27.55C207.758,27.55 207.276,27.081 207.26,26.5C207.262,26.331 207.299,26.164 207.37,26.01L210.38,17.82ZM210.55,23.26L213.4,23.26L212,18.91L210.55,23.26Z" style="fill:rgb(0,83,128);fill-rule:nonzero;"/>
    <path d="M217.67,17.83C217.667,17.796 217.665,17.762 217.665,17.729C217.665,17.142 218.148,16.659 218.735,16.659C218.753,16.659 218.772,16.659 218.79,16.66C219.178,16.683 219.539,16.864 219.79,17.16L224.54,23.5L224.54,17.83C224.537,17.795 224.535,17.759 224.535,17.724C224.535,17.104 225.045,16.594 225.665,16.594C226.285,16.594 226.795,17.104 226.795,17.724C226.795,17.759 226.793,17.795 226.79,17.83L226.79,26.35C226.793,26.384 226.795,26.418 226.795,26.451C226.795,27.038 226.312,27.521 225.725,27.521C225.707,27.521 225.688,27.521 225.67,27.52C225.284,27.499 224.923,27.322 224.67,27.03L220,20.76L220,26.35C220.003,26.385 220.005,26.421 220.005,26.456C220.005,27.076 219.495,27.586 218.875,27.586C218.255,27.586 217.745,27.076 217.745,26.456C217.745,26.421 217.747,26.385 217.75,26.35L217.67,17.83Z" style="fill:rgb(0,83,128);fill-rule:nonzero;"/>
    <path d="M228.66,17.91C228.659,17.893 228.659,17.876 228.659,17.859C228.659,17.25 229.16,16.749 229.769,16.749C229.783,16.749 229.796,16.749 229.81,16.75L232.3,16.75C235.66,16.75 237.58,18.91 237.58,22.24C237.588,22.356 237.593,22.472 237.593,22.589C237.593,25.249 235.403,27.439 232.743,27.439C232.645,27.439 232.547,27.436 232.45,27.43L229.84,27.43C229.813,27.432 229.787,27.433 229.76,27.433C229.156,27.433 228.66,26.936 228.66,26.333C228.66,26.325 228.66,26.318 228.66,26.31L228.66,17.91ZM230.91,25.36L232.42,25.36C234.36,25.36 235.24,23.94 235.24,22.14C235.24,20.34 234.34,18.82 232.24,18.82L230.88,18.82L230.91,25.36Z" style="fill:rgb(0,83,128);fill-rule:nonzero;"/>
</svg>
