<?xml version="1.0" encoding="UTF-8" standalone="no"?>
<!DOCTYPE svg PUBLIC "-//W3C//DTD SVG 1.1//EN" "http://www.w3.org/Graphics/SVG/1.1/DTD/svg11.dtd">
<svg width="100%" height="100%" viewBox="0 0 1024 1024" version="1.1" xmlns="http://www.w3.org/2000/svg" xmlns:xlink="http://www.w3.org/1999/xlink" xml:space="preserve" xmlns:serif="http://www.serif.com/" style="fill-rule:evenodd;clip-rule:evenodd;stroke-linejoin:round;stroke-miterlimit:2;">
    <path d="M772.691,724.943C772.691,725.33 772.825,725.642 772.825,726.073C772.825,754.154 787.282,800.534 796.491,816.398L796.444,816.398C797.157,818.109 797.612,819.993 797.612,821.99C797.612,829.858 791.264,836.181 783.399,836.181C782.245,836.181 780.347,835.95 779.692,835.95C779.47,835.95 779.413,835.95 779.435,835.994C730.484,828.016 670.349,770.655 659.598,757.628C648.612,759.239 641.178,759.492 631.971,759.492C628.063,759.492 623.904,759.448 618.989,759.448C528.586,759.448 456.522,725.485 412.453,671.662C414.06,670.255 486.257,670.233 475.907,670.863C514.029,700.7 558.709,715.068 618.989,715.068C618.989,715.068 643.953,715.056 653.185,713.701L676.529,710.109C676.529,710.109 691.407,736.616 734.712,768.359C731.317,753.968 729.007,697.105 729.007,697.105L751.088,686.144C802.927,659.613 825.226,624.896 825.226,577.034C825.226,537.945 814.421,511.039 776.517,484.841C781.48,469.764 786.039,452.599 787.469,436.602C846.108,471.02 869.609,516.875 869.609,577.034C869.596,641.661 838.908,691.068 772.691,724.943ZM453.85,624.965C448.148,624.965 443.32,625.03 438.815,625.03C428.151,625.03 419.575,624.721 406.851,622.846C394.458,637.944 310.855,701.677 254.204,710.931C254.225,710.862 254.135,710.862 253.925,710.862C253.149,710.862 250.952,711.139 249.609,711.139C240.511,711.139 233.187,703.84 233.187,694.743C233.187,692.424 233.686,690.249 234.53,688.264L234.485,688.264C245.15,669.889 272.212,625.31 272.212,592.801C272.212,592.302 272.343,591.956 272.343,591.503C195.722,552.326 159.029,472.583 159.029,397.781C159.029,277.684 288.831,181.679 449,181.679C609.137,181.679 736.199,277.684 736.199,397.781C738.096,533.497 613.996,624.965 453.85,624.965ZM448.974,229.011C316.113,229.011 208.013,303.832 208.013,397.495C208.013,453.731 235.142,517.957 295.459,548.808L319.193,560.937L317.144,587.574C317.144,587.574 317.787,600.867 303.071,642.842C327.268,627.623 355.356,604.165 361.82,596.697L389.7,573.544L413.997,575.24C434.822,578.32 455.09,577.537 455.09,577.537C587.953,577.537 686.8,501.325 687.201,397.496C687.214,303.833 581.837,229.011 448.974,229.011Z" style="fill:white;fill-rule:nonzero;"/>
</svg>
