<?xml version="1.0" encoding="UTF-8" standalone="no"?>
<!-- Creator: CorelDRAW 2020 (64-Bit) -->

<svg
   xml:space="preserve"
   width="130.94281mm"
   height="152.72351mm"
   version="1.1"
   style="clip-rule:evenodd;fill-rule:evenodd;image-rendering:optimizeQuality;shape-rendering:geometricPrecision;text-rendering:geometricPrecision"
   viewBox="0 0 13094.281 15272.351"
   id="svg348"
   sodipodi:docname="aaron-website.svg"
   inkscape:version="1.2.2 (b0a8486541, 2022-12-01)"
   xmlns:inkscape="http://www.inkscape.org/namespaces/inkscape"
   xmlns:sodipodi="http://sodipodi.sourceforge.net/DTD/sodipodi-0.dtd"
   xmlns="http://www.w3.org/2000/svg"
   xmlns:svg="http://www.w3.org/2000/svg"><sodipodi:namedview
   id="namedview350"
   pagecolor="#ffffff"
   bordercolor="#666666"
   borderopacity="1.0"
   inkscape:showpageshadow="2"
   inkscape:pageopacity="0.0"
   inkscape:pagecheckerboard="0"
   inkscape:deskcolor="#d1d1d1"
   inkscape:document-units="mm"
   showgrid="false"
   inkscape:zoom="0.85481254"
   inkscape:cx="-56.737586"
   inkscape:cy="386.63448"
   inkscape:window-width="2560"
   inkscape:window-height="1372"
   inkscape:window-x="0"
   inkscape:window-y="0"
   inkscape:window-maximized="1"
   inkscape:current-layer="Layer_x0020_1" />
 <defs
   id="defs10"><style
     type="text/css"
     id="style2">
   <![CDATA[
    .fil16 {fill:none}
    .fil9 {fill:#4D4D4D}
    .fil14 {fill:#736161}
    .fil13 {fill:#91726E}
    .fil15 {fill:#947C7C}
    .fil10 {fill:#995644}
    .fil8 {fill:#C67D6A}
    .fil4 {fill:#CCCCCC}
    .fil6 {fill:#E6E6E6}
    .fil7 {fill:#E9A188}
    .fil1 {fill:#F5F258}
    .fil3 {fill:#F8D9C4}
    .fil2 {fill:#FACCAA}
    .fil0 {fill:white}
    .fil5 {fill:white}
    .fil11 {fill:#4D4D4D;fill-rule:nonzero}
    .fil12 {fill:#C67D6A;fill-rule:nonzero}
   ]]>
  </style></defs>
 <g
   id="Layer_x0020_1"
   inkscape:label="Layer 1"
   inkscape:groupmode="layer"
   transform="translate(-29958.455,-19844.92)">
  <metadata
   id="CorelCorpID_0Corel-Layer" />
  
  
  
  
  
  
  
  
  <g
   id="_2931115645632"
   transform="translate(21656.125,18095.27)">
   <circle
   class="fil9"
   cx="14849.47"
   cy="10474.86"
   r="6547.1401"
   id="circle242" />
   <circle
   class="fil1"
   cx="14849.46"
   cy="10474.87"
   r="6339.54"
   id="circle244"
   style="fill:#ede9df;fill-opacity:1" />
   <path
   class="fil2"
   d="m 12948.87,9718.82 c 15.88,58.13 29.46,117.66 42.07,176.3 35.76,166.23 62.73,335.1 81.09,504.12 l 2.12,19.49 -18.54,6.37 c -41.24,14.18 -193.44,66.74 -219.79,89.73 -6.58,6.94 -13.69,16.97 -19.59,24.61 -15,19.44 -29.8,39.05 -44.57,58.67 -49.12,65.23 -97.82,130.79 -146.47,196.35 -142.82,192.44 -284.98,385.36 -427.06,578.34 -212.15,288.15 -424.07,576.51 -635.6,865.13 l -7.42,10.12 c -9.9,74.84 -19.81,149.69 -29.72,224.53 l -10.26,77.62 -31.51,-61.1 c -231.55,119.26 -462.36,240.13 -692.72,361.67 -482.74,254.71 -963.77,513.2 -1441.22,777.77 1093.73,1903.61 3146.76,3185.86 5499.78,3185.86 2095.89,0 3953.71,-1017.38 5107.72,-2584.93 -63.99,-52.06 -128.2,-103.8 -192.46,-155.33 -352.86,-282.97 -710.74,-561.09 -1071.03,-834.6 l -10.08,-7.66 0.39,-12.65 c 1.54,-50.59 8.47,-291.44 -15.7,-331 -5.48,-8.97 -18.05,-21.37 -25.44,-28.93 -18.58,-18.98 -38.06,-37.3 -57.54,-55.34 -61.47,-56.97 -124.83,-112.31 -188.15,-167.2 -180.7,-156.66 -364.3,-310.42 -548.04,-463.52 -256.66,-213.85 -514.61,-426.23 -773.27,-637.64 l -10.71,-8.75 1.94,-13.68 c 4.31,-30.51 8.83,-61.02 13.83,-91.42 l 0.73,-4.46 2.27,-3.91 c 204.82,-352.11 400.82,-713.15 576.33,-1080.74 108.96,-228.23 212.78,-463.63 295.31,-702.81 59.17,-171.47 123.63,-388.37 123.63,-570.83 0,-98.24 -3.24,-196.91 -6.79,-295.07 -5.04,-138.89 -11.51,-277.76 -18.47,-416.56 l -0.84,-16.64 15.15,-6.92 c 130.97,-59.84 163.19,-259.33 161.02,-386.21 l -0.04,-2.43 0.43,-2.39 c 49.61,-272.59 91.92,-550.14 123.87,-825.22 17.46,-150.39 32.28,-302.97 37.31,-454.31 3.05,-91.81 5.54,-227.29 -20.61,-315.55 -46.55,-157.12 -146.02,-284.87 -305.85,-334.37 l -14.29,-4.43 -26.41,-149.12 3.78,-7.35 c 21.06,-41 39.36,-83.41 55.33,-126.63 67.07,-181.45 96.46,-383.98 104.33,-576.77 3.74,-91.7 4.19,-192.99 -4.85,-284.67 l -1.19,-12.14 8.95,-8.29 c 157.41,-145.65 272.06,-322.55 308.69,-536.13 29.32,-170.89 4.75,-343.47 -51.53,-506.2 -46.42,-134.24 -114.56,-263.14 -194.35,-380.52 -34.44,-50.67 -74.41,-105.53 -115.81,-151.04 l -4.81,-5.28 -1.22,-7.04 c -40.37,-232.71 -183.38,-393.01 -395.6,-486.81 -94.53,-41.78 -226.44,-77.8 -331.13,-82.43 l -7.68,-0.33 -6.12,-4.67 c -31.31,-23.89 -63.88,-46.87 -96.14,-69.42 -86.41,-60.38 -174.83,-118.18 -264.32,-173.87 -293.73,-182.78 -603.65,-345.46 -922.13,-480.56 -315.56,-133.88 -661.34,-189.27 -1003.11,-173.3 -108.01,5.04 -216.66,17.08 -322.92,37.26 -40.31,7.65 -83.27,16.46 -122.69,28.21 l -3.24,0.96 -3.36,0.05 c -623.33,10.54 -1209.83,205.6 -1623.64,688.08 -118.37,138 -217.79,294.76 -291.59,460.99 -28.64,64.51 -59.73,142.37 -76.13,211.53 l -4.25,17.96 -18.45,0.89 c -43.56,2.11 -91.07,9.58 -133.82,17.37 -107.26,19.55 -213.69,50.5 -314.56,91.84 -304.61,124.82 -542.92,337.9 -675.06,643.04 -100.08,231.1 -151.17,503.13 -181.41,752.25 -35.71,294.1 -46.14,594.98 -42.18,891.15 1.83,136.95 5.77,277.42 16.59,414.08 l 0.52,6.5 -2.79,5.9 c -100.54,213.45 -136.13,445.42 -19.26,659.88 70.07,128.57 186.23,232.64 312.79,304.26 l 12.38,7.01 0.07,14.24 c 0.02,4.01 0.06,8.02 0.13,12.04 2.64,178.43 48.78,366.15 104.07,535.1 62.99,192.51 144.95,381.34 235.2,562.61 51.87,104.18 107.32,208.38 166.84,308.46 l 2.3,3.85 0.77,4.41 c 19.27,108.77 65.93,229.87 134.7,316.37 128.31,161.39 304.5,175.96 491.18,111.42 l 27.37,-9.46 4.85,28.55 c 44.92,264.12 94.98,533.35 163.92,792.31 l 6.19,23.26 z"
   id="path246" />
   <path
   class="fil3"
   d="m 15818.81,8986.84 c 41.49,34.34 113.04,130.21 65.82,196.04 -47.22,65.83 -104.46,-21.46 -65.82,-196.04 z m 921.43,-2278.16 -415.09,87.24 c 0,0 151.79,-221.75 271.99,-253.23 120.21,-31.49 426.44,-42.93 423.57,20.03 -2.86,62.96 -280.47,145.96 -280.47,145.96 z M 15259.2,8889.51 c 5.73,10.01 52.95,65.83 21.47,121.64 -31.49,55.81 -113.05,58.67 -21.47,-121.64 z m -575.25,30.06 c 0,0 52.95,71.56 47.22,125.93 -5.72,54.37 -82.99,115.9 -130.21,90.15 -47.23,-25.76 82.99,-216.08 82.99,-216.08 z M 13713.8,4829.84 c 0,0 148.82,105.89 97.31,200.33 -51.51,94.45 -177.44,157.41 -177.44,266.16 0,108.76 -183.16,-246.12 80.13,-466.49 z m -81.54,1817.33 c 0,0 65.82,-125.93 220.37,-123.06 154.55,2.86 263.3,57.23 221.8,91.58 -41.49,34.34 -188.88,4.29 -442.17,31.48 z m 1968.06,1172.82 c 0,0 28.63,-157.41 62.97,148.82 34.34,306.23 123.06,741.25 65.82,592.43 -57.23,-148.82 -128.79,-741.25 -128.79,-741.25 z"
   id="path248" />
   <path
   class="fil4"
   d="m 16401.69,7550.99 c 0,0 97.69,-271.51 412.68,-280.64 314.98,-9.13 605.47,106.78 605.47,106.78 0,0 -413.55,472.22 -1018.15,173.86 z m -2477.76,173.86 c 0,0 221.91,-187.63 550.27,-204.72 328.35,-17.09 488.63,127.44 488.63,127.44 l -5.73,78.7 c 0,0 -539.47,368.64 -1033.17,-1.42 z"
   id="path250" />
   <path
   class="fil5"
   d="m 17214.16,7536.83 c -149.03,84.99 -371.64,157.49 -643.26,79.99 -22.83,-46.98 -35.92,-102.93 -2.49,-145.22 70.11,-88.72 539.8,-133.33 621.05,-51.52 32.86,33.09 34.45,76.63 24.7,116.75 z m -3061.18,310.38 c -25.19,-31.42 -46.57,-69.48 -44.42,-106.59 5.02,-86.84 415.38,-199.89 632.49,-114.48 101.15,39.79 108.04,108.04 86.55,169.6 -147.93,66.39 -404.64,143.79 -674.62,51.47 z"
   id="path252" />
   <path
   class="fil6"
   d="m 18639.11,14579.84 -48.48,-127.29 0.59,-5.78 c 26.27,-259.11 49.36,-519.17 68.02,-778.92 6.42,-89.39 12.25,-178.85 17,-268.35 l 2.47,-46.39 36.93,28.18 c 326.74,249.22 651.58,501.55 972.47,758.24 70.15,56.12 140.23,112.47 210.05,169.2 -558.54,734.53 -1273.79,1343.22 -2095.75,1776.84 z m -7276.54,-875.68 2637.27,-92.95 7.39,6.69 c 348.42,315.41 696.52,631.2 1044.19,947.44 235.5,214.22 470.9,428.58 705.4,643.89 80.92,74.3 161.8,148.68 242.1,223.64 24.87,23.22 49.72,46.49 74.28,70.03 12.11,11.61 25.87,24.19 36.89,36.79 17.46,19.95 40.26,76.07 50.94,100.96 28.6,66.61 55.22,134.37 81.48,201.93 74.89,192.75 146.43,387.08 217.37,581.32 20.39,55.82 40.71,111.66 60.97,167.54 -532.45,145.28 -1092.84,222.96 -1671.39,222.96 -2317.79,0 -4344.67,-1244.03 -5450.19,-3100.66 683.75,-378.37 1375.07,-746.12 2069.19,-1104.99 l 41.77,-21.59 -6.16,46.61 c -47.19,356.79 -94.33,713.59 -141.5,1070.39 z m 2573.97,-190.03 -2460.21,86.71 173.79,-1314.27 3.71,-5.07 c 204.7,-279.2 409.54,-558.31 614.55,-837.29 142.24,-193.57 284.54,-387.12 427.22,-580.37 47.58,-64.44 95.18,-128.88 143.05,-193.11 13.79,-18.52 27.61,-37.04 41.55,-55.44 5.01,-6.61 13.95,-19.6 20.07,-24.96 13.36,-11.68 79.61,-33.73 98.26,-40.37 l 104.46,-37.19 -79,77.81 c -61.23,60.29 -77.06,144.84 -68.47,227.85 5.29,51.11 18.09,107.59 28.96,157.83 21.86,101.08 46.99,201.73 73.63,301.65 83.28,312.37 183.33,622.02 295.15,925.28 160.92,436.39 348.7,864.61 565.11,1276.37 z m 3148.26,-1842.99 c 228.18,186.68 455.89,373.96 682.76,562.23 181.77,150.84 363.41,302.18 542.7,455.97 62.42,53.54 124.89,107.42 185.78,162.71 21.68,19.68 72.56,63.6 87.41,87.9 22.66,37.09 12.06,225.01 10.04,270.57 -7.32,164.68 -20.07,329.82 -33.54,494.11 -15.88,193.79 -33.65,387.47 -52.51,580.99 l -5.46,56.1 -1517.26,-1714.95 0.17,-9.54 c 5.46,-310.06 24.45,-621.78 59.98,-929.91 l 5.15,-44.64 z m -155.67,4794.07 c 23.01,-355.28 46.36,-710.56 69.65,-1065.81 51.75,-789.08 103.95,-1578.12 156.44,-2367.15 l 3.9,-58.69 1337.39,1511.63 35.98,94.49 -883.42,1584.09 c -232.32,114.62 -472.61,215.55 -719.94,301.44 z"
   id="path254" />
   <path
   class="fil4"
   d="m 18639.11,14579.84 -48.48,-127.29 0.59,-5.78 c 26.27,-259.11 49.36,-519.17 68.02,-778.92 6.42,-89.39 12.25,-178.85 17,-268.35 l 0.19,-3.59 1125.09,1036.55 c -543.46,679.27 -1223.8,1244.09 -1999.11,1653.12 z m -2498.94,2102.62 -455.51,-911.02 -984.52,-801.35 503.71,904.38 -57.24,435.02 310.5,476.1 c 231.56,-22.12 459.43,-56.83 683.06,-103.13 z m -3243.1,-5444.35 c 0,0 435.03,1843.09 457.92,1900.33 22.89,57.24 446.46,417.84 446.46,417.84 l -2004.02,33.24 40.71,-622.8 749.84,-698.32 z m 4129.33,625.12 1561.79,1451.35 c -7.42,130.12 -17.61,260.34 -28.24,390.05 -15.88,193.79 -33.65,387.47 -52.51,580.99 l -5.46,56.1 -1338.03,-1512.37 -179.06,-212.12 c 4.43,-251.17 17.73,-503.44 41.51,-754 z m 43.31,4551.27 300.61,-3024.2 1082.48,1332.28 -803.73,1441.2 c -188.05,92.8 -381.31,176.67 -579.36,250.72 z m 1442.92,-1799.22 10.56,-60.03 9.3,24.43 z"
   id="path256" />
   <path
   class="fil7"
   d="m 16055.8,3778.71 -629.63,543.77 c 0,0 435.02,125.93 629.63,143.1 194.61,17.17 641.05,-5.71 804.19,280.48 163.13,286.2 77.27,1439.57 168.86,1571.22 91.58,131.65 231.82,-5.73 329.12,60.1 97.31,65.83 -257.58,306.23 -257.58,306.23 l -713.42,170.7 -67.89,-107.74 c 0,0 -314.86,291.92 -366.37,492.26 -51.51,200.34 220.35,1674.23 220.35,1674.23 0,0 160.27,291.91 -11.45,469.35 -171.71,177.45 -437.88,77.28 -497.98,-25.75 -60.1,-103.03 -182.88,-72.39 -228.95,-5.72 -46.06,66.66 -307.66,34.34 -339.15,-97.31 -31.48,-131.65 64.4,-237.54 34.35,-300.5 -30.05,-62.96 -133.11,-55.82 -264.76,78.69 -131.66,134.51 -238.98,248.98 -231.82,267.59 7.15,18.6 279.04,-131.65 301.94,-121.64 22.89,10.02 85.83,311.94 346.28,349.15 260.44,37.2 334.85,257.58 495.12,334.85 160.27,77.27 712.63,-148.83 847.14,-168.86 134.51,-20.03 315.36,76.34 315.36,76.34 l -1678.02,500.39 -540.55,-276.22 c 0,0 -114.49,25.75 -171.72,-71.56 -57.24,-97.3 -183.17,22.91 -111.62,186.04 71.55,163.13 257.58,91.58 257.58,91.58 l 1044.61,572.39 736.11,19.47 c 0,0 -17.75,175.13 -232.4,220.93 -214.65,45.79 -712.63,105.89 -921.56,5.72 0,0 -60.1,154.55 20.04,283.34 80.13,128.79 732.65,-143.1 1038.87,137.38 306.23,280.47 -180.74,752.15 -469.58,796.79 -288.84,44.63 -627,-70.27 -763.15,-140.55 -136.14,-70.27 -891.81,-678.52 -891.81,-678.52 0,0 702.1,1055.44 1022.64,1398.88 320.54,343.44 864.32,-183.16 1133.34,-45.79 269.02,137.37 617.04,1431.28 617.04,1431.28 l 73.3,-1366.33 -167.45,-189.27 99.33,-1245.35 c 0,0 516.47,-874.57 805.56,-1621.22 l -89.82,51.63 c 0,0 108.18,-422.7 102.46,-611.6 -5.71,-188.89 -74.41,-1121.9 -62.96,-1259.27 11.45,-137.37 53.66,-1080.11 53.66,-1080.11 l 51.78,51.44 34.62,1412.78 202.98,-165.26 32.88,-608.56 c 0,0 -45.49,-134.25 -34.3,-270.07 11.2,-135.82 -100.17,-326.27 -80.14,-357.75 20.04,-31.48 62.26,177.17 80.14,177.44 5.07,0.08 13.31,-18.75 20.8,-48.62 0.65,-8.11 1.28,-16.53 1.87,-25.21 l -55.08,-346.87 c 7.19,8.57 14.18,18.04 20.85,28.52 8.33,13.09 14.96,29.36 20.22,47.84 -2.67,-5.59 -5.54,-11.02 -8.66,-16.26 -16.44,-27.64 -38,-58.37 -61.66,-89.54 -61.39,-51.86 -125.29,-51.3 -125.29,-51.3 l -10.65,-252.78 61.34,-112.24 c -21.1,-3.93 -38.59,0.99 -53.09,11.42 -41.53,-885.06 -81.62,-1628.44 -81.62,-1628.44 0,0 -721.21,-1053.2 -1804.23,-857.11 z m -4029.33,3855.78 c 0,0 -1.7,-0.33 -4.67,-1.22 9.9,-117.59 37,-340.87 106.12,-481.15 97.31,-197.48 357.74,-100.15 357.74,-100.15 0,0 -335.3,-511.81 -650.08,-463.33 24.72,-18.36 55.66,-31.49 93.58,-35.98 217.51,-25.76 466.53,9.5 589.57,389.23 123.04,379.73 191.75,1525.43 191.75,1525.43 0,0 -188.89,-125.93 -283.34,-40.07 -94.44,85.86 -120.2,-134.51 14.31,-223.23 134.52,-88.72 100.17,-226.1 94.45,-369.2 -5.73,-143.1 -83.01,2.86 -120.21,-17.17 -37.2,-20.04 -42.92,-105.89 -45.79,-269.02 -2.86,-163.14 -142.98,-288.46 -194.61,-60.11 -51.64,228.36 103.03,612.47 103.03,612.47 z m 4424.43,1585.64 c 0,0 -78.7,-254.71 -27.19,-307.66 51.51,-52.95 213.21,72.98 135.94,206.06 -77.27,133.08 -108.75,101.6 -108.75,101.6 z M 15168.76,7763.72 c 0,0 5.01,-49.37 22.9,-89.44 17.89,-40.07 110.9,-31.48 69.4,38.64 -41.49,70.12 -92.3,50.8 -92.3,50.8 z m -233.97,-363.48 c 0,0 47.94,-59.39 76.56,-37.92 28.62,21.47 160.99,96.6 156.7,150.26 -4.29,53.66 -88.01,-12.17 -233.26,-112.34 z m -940.63,246.27 c 0,0 -166,80.13 -280.48,71.55 -114.48,-8.59 -178.87,-65.82 -140.24,47.22 38.64,113.05 210.37,108.76 273.33,81.57 62.96,-27.2 131.64,-8.59 191.75,18.6 60.1,27.19 141.66,58.66 135.94,21.46 -5.73,-37.2 -259.01,-74.41 -180.3,-240.4 z m 729.1,-643.23 303.37,-180.3 c 0,0 211.78,171.72 286.19,283.33 74.42,111.62 260.44,1076.1 257.58,1101.86 -2.86,25.76 -234.68,-291.92 -260.44,-331.99 -25.76,-40.07 -200.34,257.58 -535.19,340.58 -334.85,82.99 -658.25,-111.62 -655.39,-131.65 2.87,-20.04 214.65,20.03 449.33,8.58 234.69,-11.45 277.61,-120.2 277.61,-120.2 l -65.82,-94.44 c 0,0 226.09,-134.52 226.09,-157.42 0,-22.89 -363.46,-263.29 -417.84,-254.71 -54.38,8.59 -103.03,-48.65 -131.65,-60.1 -28.62,-11.45 -352.02,28.62 -520.88,128.79 -168.86,100.17 -280.47,203.2 -234.68,120.2 45.79,-82.99 394.95,-331.99 675.42,-343.44 280.47,-11.44 71.55,-269.02 71.55,-269.02 z m -311.94,3576.03 c 0,0 -267.6,-619.61 -233.25,-756.98 34.34,-137.38 299.07,-394.96 304.8,-383.51 5.72,11.45 -57.24,276.19 -113.05,349.16 -22.18,29.01 -59.75,42.15 -78.72,81.24 -28.75,59.25 54.29,480.01 120.22,710.09 z m 2882,-148.82 c 0,0 111.61,-582.41 145.96,-696.89 34.35,-114.48 108.76,340.57 -145.96,696.89 z m -718.34,-2212.94 c 0,0 40.07,409.27 137.38,555.22 97.3,145.96 480.81,432.15 558.08,480.81 77.27,48.65 466.5,-495.12 352.02,-850 -114.48,-354.89 -417.84,-257.58 -698.32,-200.34 -280.47,57.24 -349.16,14.31 -349.16,14.31 z m 442.86,-1270.04 c 0,0 143.11,-152.4 321.26,-129.51 178.15,22.9 233.25,239.7 131.65,259.74 -101.6,20.03 -238.97,-105.89 -452.91,-130.23 z m -608.86,582.43 c 0,0 65.8,-248.29 435,-261.17 369.19,-12.87 518.02,155.98 518.02,155.98 0,0 -523.75,426.44 -953.02,105.19 z m 135.95,235.42 c 0,0 117.34,-34.34 386.36,-48.65 269.03,-14.31 495.13,-137.38 495.13,4.29 0,141.66 -582.42,372.06 -881.49,44.36 z"
   id="path258" />
   <path
   class="fil8"
   d="m 16708.61,6777.36 -321.64,76.95 -60.6,-96.16 c -23.77,17.88 -60.8,46.43 -94.4,75.27 -23.4,24.5 -49.72,53.03 -76.7,84.09 l -0.01,0.01 c -11.88,44.67 -69.11,199.22 -66.25,216.39 2.86,17.17 105.89,71.55 105.89,71.55 0,0 128.78,-84.43 173.14,-104.46 44.37,-20.04 95.89,2.85 88.73,40.06 -7.16,37.21 -224.67,158.85 -301.94,233.26 -77.27,74.41 -81.57,181.73 -28.62,183.16 52.95,1.43 163.13,-113.05 186.02,-72.98 22.9,40.07 34.35,91.59 34.35,91.59 0,0 92.27,-191.21 217.51,-259.03 32.41,-17.55 84.96,-27.15 146.79,-31.44 39.27,-9.08 83.41,-15.11 133.1,-16.85 134.44,-4.68 239.62,14.73 319.08,41.31 22.26,3.11 40.56,6.01 53.55,8.39 101.6,18.6 171.72,111.62 171.72,111.62 0,0 230.39,62.96 297.65,47.22 67.25,-15.75 113.03,-181.73 -65.83,-155.98 -178.87,25.75 -257.58,40.07 -340.58,0 -82.99,-40.07 -150.24,-90.15 -254.71,-88.72 -104.46,1.43 -211.79,37.2 -241.84,8.58 -30.05,-28.61 140.24,-94.44 271.89,-93.01 131.65,1.43 367.76,91.58 420.71,87.29 52.94,-4.29 -150.27,-228.98 -515.17,-168.88 -364.9,60.11 -157.4,-183.16 -157.4,-183.16 z m -1339.04,4301.55 c 0,0 409.25,1.43 651.09,-15.74 241.84,-17.17 330.57,95.87 191.76,164.56 -138.81,68.69 -386.37,-28.61 -633.93,31.49 -247.56,60.09 -236.12,-125.93 -208.92,-180.31 z m -628.19,767.01 -203.21,-134.51 c 0,0 417.85,606.73 812.8,798.49 394.95,191.75 761.29,-277.62 930.14,-226.1 168.85,51.52 217.51,320.54 346.3,257.58 128.79,-62.96 306.23,389.23 306.23,389.23 l 14.31,-1310.78 c 0,0 -569.53,684.01 -958.76,635.36 -389.23,-48.66 -1247.81,-409.27 -1247.81,-409.27 z m 2321.08,-7684.36 -329.12,45.69 c 0,0 300.5,-122.96 394.95,323.51 94.44,446.47 165.98,955.9 266.16,1070.38 100.17,114.47 68.69,-546.64 68.69,-546.64 0,0 164.92,617.38 251.81,727.51 86.89,110.14 226.13,-9.16 134.55,-524.31 -91.58,-515.15 -82.99,-1007.42 -787.04,-1096.14 z m 67.31,5163.71 c 0,0 218.23,159.55 235.4,282.62 17.17,123.06 -145.96,861.45 -154.55,812.8 -8.59,-48.66 94.45,-689.74 62.97,-807.08 -31.49,-117.34 -143.82,-288.34 -143.82,-288.34 z m -1118.3,219.66 c 0,0 160.27,-103.03 248.99,-184.6 88.72,-81.56 139.83,-50.09 240.41,-98.73 100.58,-48.64 95.77,-202.41 63.63,-280.07 -32.15,-77.67 -86.52,-169.25 -32.15,-164.96 54.38,4.29 533.76,447.89 475.09,453.61 -58.68,5.72 -307.66,-164.56 -330.56,-103.02 -22.9,61.53 -82.99,173.14 -181.73,201.76 -98.74,28.62 -125.94,-7.16 -260.45,91.58 -134.5,98.74 -223.23,84.43 -223.23,84.43 z m 714.07,271.91 c 0,0 203.2,-4.31 264.74,-88.73 61.53,-84.42 279.04,28.62 103.03,163.13 -176.02,134.52 -153.12,-18.6 -367.77,-74.4 z m -2041.96,267.59 c 0,0 -171.73,-60.1 -186.04,-163.13 -14.3,-103.03 -106.16,-4.51 -55.81,127.36 50.35,131.86 77.93,-35.14 241.85,35.77 z m -416.4,93.03 c 0,0 -101.88,-243.3 -91.73,-337.73 10.16,-94.43 203.33,-305.98 203.33,-305.98 0,0 -18.59,119.98 -85.84,248.76 -67.26,128.78 -106.68,153.18 -25.76,394.95 z m 539.55,-1060.34 c 0,0 145.96,-188.88 210.36,-183.88 64.39,5 44.84,37.5 32.9,186.73 -11.93,149.22 186.03,260.43 147.39,274.74 -38.63,14.31 -213.22,-153.11 -246.13,-248.98 -32.91,-95.88 -207.49,84.41 -210.35,64.38 -2.87,-20.02 65.83,-92.99 65.83,-92.99 z m 1769.45,-1253.54 c 0,0 103.09,-2.76 227.53,32.91 124.44,35.67 380.65,11.44 477.95,-25.76 97.31,-37.2 -320.54,264.74 -705.48,-7.15 z m -2187.96,307.66 c 0,0 118.78,-44.36 301.94,-52.95 183.17,-8.59 362.07,-41.45 337.73,-15.72 -24.34,25.73 -356.33,226.07 -639.67,68.67 z m -480.1,-484.38 c 0,0 -93.73,43.64 -171,45.07 -77.28,1.44 -146.69,49.38 -68.69,72.27 77.99,22.89 166,-74.41 229.67,-22.18 63.68,52.23 206.78,113.76 195.33,76.56 -11.45,-37.21 -31.48,-26.48 -105.18,-78.71 -73.69,-52.23 -80.13,-93.01 -80.13,-93.01 z m 679.73,-199.62 c 7.87,-7.87 0,-89.43 -22.18,-105.89 -2.23,-1.65 -2.24,-2.84 -0.36,-3.61 -40.46,-1.69 -81.89,0 -123.42,6.49 -274.75,42.93 -244.7,-15.74 -134.51,-32.91 110.19,-17.18 307.66,21.45 404.97,-30.06 97.3,-51.51 -50.09,-224.66 -50.09,-224.66 l 158.84,-40.07 173.99,-225.12 c 0,0 275.7,196.84 313.98,278.06 38.27,81.23 61.52,267.6 18.6,267.6 -42.93,0 -155.98,-118.78 -244.7,-114.48 -88.72,4.3 -188.89,123.07 -174.58,141.67 14.31,18.6 104.47,62.96 91.58,83 -3.73,5.8 -29.1,-4.02 -69.91,-19.84 107.24,58.32 98.05,148.24 136.96,168.92 43.33,23.03 155.75,49.16 69.4,106.72 -86.36,57.57 -100.93,101.59 -178.79,-24.16 -77.86,-125.76 -77.86,-205.9 -369.78,-231.66 z m 66.27,-100.57 c 33.66,6.03 73.95,14.68 115.88,25.6 -36.11,-10.13 -75.08,-19.21 -115.88,-25.6 z"
   id="path260" />
   <path
   class="fil8"
   d="m 14759.58,10090.05 -264.72,-84.43 c 0,0 425,-124.49 453.62,-124.49 28.61,0 861.45,123.06 978.79,108.75 117.34,-14.31 749.83,-248.99 841.41,-257.58 91.59,-8.58 289.07,48.66 289.07,48.66 l -93.02,95.87 -0.03,0.73 v 0.02 c -71,577.52 -441.1,1015.6 -1041.73,1022.41 -1010.27,11.45 -1343.69,-841.42 -1343.69,-841.42 z"
   id="path262" />
   <path
   class="fil7"
   d="m 15922.87,10899.99 c -350.55,3.96 -619.53,-96.19 -821.44,-228.62 32.53,-44.14 93.66,-91.91 207.43,-100.78 220.37,-17.17 778.45,137.37 655.39,291.92 -11.33,14.23 -25.24,26.7 -41.38,37.48 z"
   id="path264" />
   <path
   class="fil9"
   d="m 16468.28,7640.24 -213.22,40.06 c 0,0 -14.31,-98.74 -5.72,-120.2 8.59,-21.47 120.2,-93.01 120.2,-93.01 0,0 151.68,-238.99 552.36,-259.02 400.68,-20.03 665.41,217.52 665.41,217.52 l -176.01,17.16 -144.53,88.73 52.95,-115.91 c 0,0 -304.8,-186.03 -609.6,-97.31 -304.8,88.72 -244.71,286.2 -244.71,286.2 l 95.88,55.81 z"
   id="path266" />
   <path
   class="fil9"
   d="m 14922.98,7790.71 216.93,-2.35 c 0,0 -5.25,-99.63 -17.86,-119 -12.61,-19.38 -136.05,-67.75 -136.05,-67.75 0,0 -195.44,-204.75 -592.31,-146.14 -396.87,58.61 -651.62,330.4 -651.62,330.4 l 175.97,-17.54 159.08,58.79 -74.57,-103.34 c 0,0 304.1,-229.09 620.36,-201.61 316.26,27.48 295.89,232.9 295.89,232.9 l -83.13,73.46 z"
   id="path268" />
   <path
   class="fil9"
   d="m 16393.86,7326.85 c 0,0 526.6,-445.04 1053.21,-113.05 0,0 -497.98,-260.43 -1053.21,113.05 z"
   id="path270" />
   <path
   class="fil9"
   d="m 14934.76,7468.83 c 0,0 -662.05,-323.6 -1113.68,104.85 0,0 496.2,-362.7 1113.68,-104.85 z"
   id="path272" />
   <path
   class="fil9"
   d="m 16194.96,7090.74 c 0,0 111.62,-221.8 164.56,-274.75 52.95,-52.94 128.79,-104.46 128.79,-104.46 l -125.93,177.44 170.29,-184.59 894.36,-306.23 233.25,37.2 -214.65,-64.39 c 0,0 250.43,35.77 304.81,65.82 54.37,30.06 137.37,207.5 137.37,207.5 0,0 -184.6,-32.91 -233.25,-21.47 -48.66,11.45 -721.22,247.56 -721.22,247.56 l 190.32,-105.89 c 0,0 -353.45,153.11 -445.03,184.59 -91.58,31.49 -414.99,134.52 -414.99,134.52 l 45.79,-60.1 z"
   id="path274" />
   <path
   class="fil9"
   d="m 15159.95,7156.92 c 0,0 -183.01,-247.42 -245.6,-288.5 -62.61,-41.07 -147.34,-76.09 -147.34,-76.09 l 159.37,148.13 -204.26,-146.11 -909.32,-65.05 -220.81,83.85 197.07,-106.69 c 0,0 -237.93,85.94 -285.06,126.42 -47.12,40.48 -195.34,233.95 -195.34,233.95 0,0 277.08,-72.61 327.04,-71.3 49.97,1.32 756.49,95.76 756.49,95.76 l -207.87,-64.99 c 0,0 377.19,78.05 473.26,90.25 96.07,12.21 433.67,47.34 433.67,47.34 l -57.05,-49.54 z"
   id="path276" />
   <path
   class="fil9"
   d="m 14891.3,6758.74 c 0,0 118.77,75.84 157.41,120.2 38.63,44.36 78.7,148.82 78.7,148.82 0,0 -148.39,-208.51 -236.11,-269.02 z"
   id="path278" />
   <path
   class="fil9"
   d="m 14980.02,6747.29 c 0,0 158.84,107.32 181.73,168.86 22.9,61.53 14.31,150.25 14.31,150.25 0,0 -68.69,-194.61 -196.04,-319.11 z"
   id="path280" />
   <path
   class="fil9"
   d="m 16217.82,6966.21 c 0,0 84.43,-134.52 107.33,-170.29 22.9,-35.78 77.27,-90.16 77.27,-90.16 0,0 -140.24,62.97 -184.6,260.45 z"
   id="path282" />
   <path
   class="fil10"
   d="m 14494.86,10005.62 c 0,0 276.19,-70.12 353.46,-67.26 77.27,2.86 1013.13,194.62 1090.4,174.59 77.27,-20.04 801.35,-326.27 881.48,-340.58 80.14,-14.31 237.55,8.59 237.55,8.59 l -34.35,82.99 -117.34,25.76 c 0,0 -331.99,735.53 -1010.28,741.25 -678.28,5.72 -1276.43,-532.32 -1276.43,-532.32 0,0 -105.89,-28.63 -124.49,-93.02 z"
   id="path284" />
   <path
   class="fil0"
   d="m 14947.92,10083.609 c 0,0 110.73,162.87 142.22,188.63 31.48,25.76 410.69,234.68 882.92,197.47 472.22,-37.2 652.52,-326.27 669.7,-372.06 17.17,-45.78 22.89,-154.5391 22.89,-154.5391 0,0 -198.1,304.0741 -770.49,325.5241 -572.39,21.46 -947.24,-185.025 -947.24,-185.025 z"
   id="path286"
   sodipodi:nodetypes="ccccccc" />
   <path
   class="fil9"
   d="m 15316.22,9420.35 c 0,0 124.5,-28.62 220.38,-2.86 95.87,25.76 201.77,133.08 201.77,133.08 0,0 -108.75,-81.57 -177.44,-88.72 -68.69,-7.15 -48.88,-6.24 -101.61,-30.05 -52.72,-23.8 -143.1,-11.45 -143.1,-11.45 z"
   id="path288" />
   <path
   class="fil9"
   d="m 15051.49,9013.95 c 0,0 -83,281.91 150.26,394.96 0,0 -266.16,-45.8 -150.26,-394.96 z"
   id="path290" />
   <path
   class="fil9"
   d="m 16202.71,9494.04 c 0,0 38.64,-112.33 120.21,-145.25 81.57,-32.91 110.19,-37.2 110.19,-37.2 0,0 -146.27,58.48 -230.4,182.45 z"
   id="path292" />
   <path
   class="fil9"
   d="m 16558.3,8871.55 c 0,0 105.9,176.01 88.73,284.77 -17.18,108.75 -137.38,155.98 -137.38,155.98 0,0 217.51,-94.45 48.65,-440.75 z"
   id="path294" />
   <path
   class="fil11"
   d="m 12066.64,6690.66 c -0.97,-0.34 -338.05,-121.79 -331.05,349.78 8.28,557.64 494.41,1353.97 495.8,1356.27 l 8.06,13.28 2.11,14.63 c 0.22,1.5 70.26,528.75 540.93,311.39 l 62.21,134.88 c -598.56,276.41 -729.7,-308.2 -747.79,-410.36 -63.61,-106.94 -501.32,-862.49 -509.57,-1418.35 -10.16,-684.66 526,-492.17 527.54,-491.63 z"
   id="path296" />
   <path
   class="fil12"
   d="m 17995.25,7494.53 -60.88,-855 c 0,0 82.91,-189.47 100.09,-180.88 17.17,8.58 171.71,311.95 171.71,426.43 0,114.48 -117.34,712.63 -117.34,712.63 0,0 51.51,-643.95 5.72,-738.39 -45.78,-94.44 -88.72,-163.13 -88.72,-163.13 l -31.49,292.17 c 0,0 88.74,188.64 94.46,254.47 5.73,65.82 -100.17,526.6 -100.17,526.6 z"
   id="path298" />
   <path
   class="fil11"
   d="m 17981.72,5962.72 c 0.87,0.02 305.1,7.08 412.03,368.01 92.44,311.96 -120.73,1500.85 -139.95,1606.45 1,58.57 -3.54,398.47 -243.59,427.86 l -18.02,-147.66 c 125.22,-15.33 113.15,-282.25 113.12,-283.01 l -0.33,-8.14 1.5,-8.14 c 0.65,-3.6 231.39,-1253.41 144.84,-1545.5 -76.22,-257.24 -274.27,-261.6 -274.83,-261.62 z"
   id="path300" />
   <path
   class="fil11"
   d="m 17107.39,11412.35 c -0.38,2.23 -135.64,771.62 -90.22,1816.24 -243.29,-319.16 -114.03,-1503.38 -56.28,-1841.24 z"
   id="path302" />
   <path
   class="fil11"
   d="m 13061.68,9661.26 c 0.68,2.39 239.68,823.98 134.8,1674.68 l -147.66,-18.02 c 101.17,-820.67 -129.5,-1613.67 -130.16,-1615.97 z"
   id="path304" />
   <path
   class="fil11"
   d="m 9337.48,13607.35 c 1081.91,-599.39 2150.91,-1148.32 2156.72,-1151.31 l 68.01,131.97 c -5.78,2.98 -1074.1,551.6 -2150.19,1146.75 -25.33,-42.16 -50.18,-84.62 -74.54,-127.41 z"
   id="path306" />
   <path
   class="fil11"
   d="m 13107.47,10538.22 c -0.51,0.17 -179.45,60.45 -191.04,70.59 -15.72,13.75 -1120.59,1520.51 -1242.8,1687.21 l -169.16,1279.27 2540.99,-89.56 22.35,20.24 c 5.89,5.33 2052.82,1857.81 2135.43,1952.22 50.22,57.39 260.56,616.94 436.5,1099.81 -47.32,13.91 -94.86,27.27 -142.63,40.1 -169.57,-468.03 -366.68,-997.89 -405.49,-1042.25 -72.98,-83.4 -1879.34,-1719.21 -2100.86,-1919.76 l -2656.33,93.62 c 65.71,-497.04 131.36,-994.09 197.17,-1491.1 l 11.13,-15.19 c 3.57,-4.88 1246.87,-1700.71 1276.04,-1726.23 34.19,-29.9 241.02,-99.45 241.61,-99.65 z"
   id="path308" />
   <path
   class="fil11"
   d="m 16802.29,16507.62 c 97.35,-1506.65 240.59,-3655.23 241.2,-3664.29 l 148.25,9.88 c -0.6,8.94 -140.16,2102.45 -237.24,3602.93 -50.45,17.76 -101.18,34.97 -152.21,51.48 z"
   id="path310" />
   <path
   class="fil11"
   d="m 17015.08,11454.31 c 4.6,3.75 1604.47,1307.07 1674.16,1421.12 76.27,124.81 -74.96,1587.18 -75.39,1591.38 l -147.67,-14.53 c 0.41,-4.07 145.96,-1418.3 96.32,-1499.53 -56.22,-92.01 -1636.48,-1379.63 -1641.02,-1383.33 z"
   id="path312" />
   <path
   class="fil11"
   d="m 16990.33,12596.07 1614.54,1824.9 61.25,160.81 -824.1,1483.07 c -76.3,40.94 -153.61,80.24 -231.75,118.11 l 895.21,-1605.24 -30.32,-79.61 -1595.87,-1803.79 z"
   id="path314" />
   <path
   class="fil11"
   d="m 18681.45,13199.45 c 3.23,2.44 696.38,526.59 1290.24,1010.37 -29.1,39.84 -58.66,79.32 -88.65,118.45 -589.38,-479.58 -1287.89,-1007.78 -1291.12,-1010.22 z"
   id="path316" />
   <path
   class="fil11"
   d="m 13121.83,10669.21 c -0.15,0.06 -54.73,23.8 -43.06,136.63 10.61,102.62 127.75,640.86 390.99,1354.69 153.03,415 355.11,887.56 613.75,1365.21 l -130.8,70.34 c -262.5,-484.78 -467.42,-963.89 -622.48,-1384.4 -267.86,-726.38 -388.01,-1283.25 -399.13,-1390.73 -22.67,-219.14 127.52,-285.84 127.94,-286.04 z"
   id="path318" />
   <path
   class="fil8"
   d="m 12364.16,8226 c 0,0 -486.54,-523.74 -437.88,-938.73 48.66,-414.98 429.29,-303.37 520.88,-263.3 91.58,40.07 194.61,297.65 194.61,297.65 l 113.5,1094.22 c 0,0 -61.98,-281.42 -190.77,-404.49 -128.79,-123.06 -42.93,-237.55 -45.79,-374.92 -2.86,-137.37 -163.14,-452.19 -311.96,-414.98 -148.82,37.21 -270.14,255.52 157.41,1004.55 z"
   id="path320" />
   <path
   class="fil11"
   d="m 17863.04,4989.79 c 0.69,9.56 240.7,3329.64 240.7,4069.21 0,759.56 -1158.27,2635.05 -1161.6,2640.46 l -2.91,4.07 c -1.16,1.64 -400.94,572.79 -1117.88,614.95 -714.47,42.01 -1379.51,-623.19 -1381.44,-625.1 l 104.06,-105.8 c 1.79,1.77 620.85,620.74 1268.66,582.65 613.65,-36.08 968.62,-501.95 1002.91,-548.89 8.25,-13.39 1139.37,-1846.72 1139.37,-2562.34 0,-737.19 -239.44,-4049.2 -240.12,-4058.75 z"
   id="path322" />
   <path
   class="fil9"
   d="m 14184.26,7655.72 c 0,94.78 54.2,176.89 133.29,217.05 64.09,7.24 150.35,9.42 239.07,-10.82 68.58,-43.02 114.18,-119.3 114.18,-206.23 0,-51.96 -16.29,-100.12 -44.05,-139.64 -1.27,-0.12 -2.55,-0.23 -3.84,-0.34 -160.58,-13.96 -318.02,38.24 -434.12,93 -2.97,15.2 -4.53,30.91 -4.53,46.98 z"
   id="path324" />
   <path
   class="fil9"
   d="m 16588.65,7403.27 c 0,94.77 54.2,176.89 133.29,217.05 64.09,7.24 150.35,9.41 239.07,-10.82 68.58,-43.02 114.18,-119.3 114.18,-206.23 0,-51.96 -16.29,-100.12 -44.05,-139.64 -1.27,-0.12 -2.55,-0.24 -3.84,-0.35 -160.58,-13.95 -318.02,38.24 -434.12,93.01 -2.97,15.2 -4.53,30.91 -4.53,46.98 z"
   id="path326" />
   <path
   class="fil13"
   d="m 16663.47,7453.66 c 0,0 75.44,-28.93 81.85,-27.93 6.42,1 47.78,65.33 134.73,58.06 86.95,-7.27 89.86,-108.74 89.86,-108.74 l 55.58,2.37 c 0,0 -23.74,120.59 -126.19,146.59 -102.45,26 -150.83,-23.66 -150.83,-23.66 l -54.42,14.46 z"
   id="path328" />
   <ellipse
   class="fil0"
   transform="matrix(-1.3492,0.281238,0.281238,1.3492,16709.7,7416.86)"
   rx="62.009998"
   ry="32.52"
   id="ellipse330"
   cx="0"
   cy="0" />
   <path
   class="fil13"
   d="m 14265.47,7698.76 c 0,0 75.44,-28.93 81.86,-27.93 6.41,1 47.77,65.33 134.72,58.06 86.95,-7.27 89.86,-108.75 89.86,-108.75 l 55.58,2.38 c 0,0 -23.74,120.59 -126.19,146.59 -102.44,26 -150.82,-23.66 -150.82,-23.66 l -54.43,14.46 z"
   id="path332" />
   <ellipse
   class="fil0"
   transform="matrix(-1.3492,0.281238,0.281238,1.3492,14311.7,7661.96)"
   rx="62.009998"
   ry="32.52"
   id="ellipse334"
   cx="0"
   cy="0" />
   <path
   class="fil10"
   d="m 14827.82,10047.86 c 0,0 100.17,-31.49 138.81,-22.9 38.63,8.59 857.87,144.52 969.49,127.35 111.62,-17.17 693.31,-244.71 723.36,-257.59 30.05,-12.87 32.91,-14.31 32.91,-14.31 0,0 -57.24,80.14 -87.29,103.03 -30.05,22.9 -150.13,201.88 -656.82,257.56 -506.7,55.68 -1120.46,-193.14 -1120.46,-193.14 z"
   id="path336" />
   <path
   class="fil11"
   d="m 12675.45,7206.9 c 0.63,6.08 217.83,2113.92 477.01,2733.71 256.84,614.18 1386.22,1641.97 1389.48,1644.93 l -99.99,109.88 c -3.32,-3.03 -1156.93,-1052.75 -1426.69,-1697.84 -267.4,-639.45 -486.83,-2769.43 -487.47,-2775.57 z"
   id="path338" />
   <path
   class="fil9"
   d="m 13229.71,4522.78 c 0,0 -269.01,68.68 -349.15,246.12 -80.14,177.44 -105.89,386.37 -105.89,386.37 L 12892,4889.1 c 0,0 -74.41,188.89 -94.44,366.33 -20.03,177.44 -5.73,1219.22 -8.59,1336.56 -2.86,117.34 -82.99,257.57 -82.99,257.57 l 134.5,-160.27 c 0,0 -68.68,655.39 -251.85,689.73 -183.17,34.35 -420.71,-684.01 -681.15,-661.11 -260.43,22.89 -245.31,349.46 -245.31,349.46 0,0 -727.75,-292.19 -378.59,-1033.44 0,0 -105.87,-1342.24 208.95,-2069.18 314.81,-726.93 1144.78,-767 1144.78,-767 0,0 320.55,-1350.86 2014.83,-1379.48 0,0 709.76,-211.78 1465.32,108.76 755.56,320.54 1287.88,726.94 1287.88,726.94 0,0 652.53,28.62 749.83,589.56 0,0 818.53,898.66 51.52,1608.42 0,0 57.24,583.85 -157.41,1001.7 l 48.66,274.74 c 0,0 -108.76,157.42 -125.93,291.93 -17.18,134.5 -62.39,337.48 -62.39,337.48 l -46.65,-689.57 c -118.98,-79.27 -356.78,-272.46 -354.63,-549.41 0,0 -15.73,380.67 111.63,518.04 127.35,137.36 190.32,40.06 190.32,40.06 0,0 -211.81,191.77 -326.29,-117.32 -100.97,-272.63 -135.2,-1295.43 -348.05,-1680.29 -469.49,-190.75 -1067.15,57.51 -1067.15,57.51 l 226.1,-120.2 c 0,0 -764.14,160.27 -1222.05,177.45 -457.92,17.17 -1345.14,-191.75 -1345.14,-191.75 l 337.72,171.71 c 0,0 -724.09,8.59 -981.67,114.48 0,0 94.46,-2.86 145.95,34.27 z m 4624.22,1411.83 -33.18,-490.44 c 0,0 -11.94,-458.89 -280.62,-830.66 7,74.3 11.14,159.86 11.14,258.51 0,573.46 95.07,919.22 302.66,1062.59 z"
   id="path340" />
   <path
   class="fil14"
   d="m 13076.74,3606.82 c 0,0 -125.93,-515.16 286.2,-669.7 412.12,-154.55 641.07,-343.43 641.07,-343.43 0,0 -254.71,354.87 -609.6,446.46 0,0 538.05,-74.42 732.66,-432.16 194.62,-357.74 320.54,-623.91 772.74,-706.9 0,0 -440.75,74.41 -638.22,652.53 -197.48,578.11 -887.21,684.01 -887.21,684.01 0,0 359.78,-103.4 518.01,-311.96 0,0 -85.85,57.25 -440.74,200.34 -354.89,143.09 -372.05,323.4 -374.91,480.81 z m -1554.22,3212.59 c 0,0 -85.86,-246.14 -5.73,-480.82 80.14,-234.67 738.39,-1007.4 738.39,-1007.4 l -363.47,612.45 c 0,0 523.74,-532.33 632.49,-829.97 108.76,-297.64 194.61,-543.77 194.61,-543.77 0,0 -274.74,1070.36 -500.84,1379.46 -226.09,309.1 -457.91,540.92 -457.91,540.92 l 240.4,-492.26 c 0,0 -502.44,408.52 -477.94,821.39 z m -137.37,-801.37 c 0,0 128.79,-463.63 266.16,-761.28 137.38,-297.65 549.5,-732.67 549.5,-732.67 l -492.26,872.9 964.48,-1204.87 c 0,0 -343.44,709.76 -675.42,1247.81 -331.99,538.05 -658.26,950.18 -658.26,950.18 0,0 354.89,-663.98 472.23,-850 117.34,-186.03 206.06,-409.26 206.06,-409.26 0,0 -591.38,747.29 -632.49,887.19 z m 8.58,-661.11 c 0,0 34.35,-864.3 331.99,-1230.64 297.65,-366.33 675.43,-417.84 675.43,-417.84 0,0 -500.85,263.29 -701.19,701.17 0,0 497.99,-452.18 695.46,-523.74 197.48,-71.55 354.89,-131.65 354.89,-131.65 0,0 -492.26,383.5 -798.49,855.72 -306.23,472.23 -540.91,855.73 -540.91,855.73 l 598.15,-1187.72 c 0,0 -480.81,363.48 -615.33,1078.97 z M 15233.1,4111.97 c 0,0 477.94,-592.43 855.73,-646.81 377.78,-54.38 560.96,140.24 560.96,140.24 0,0 -413.57,-184.6 -736.97,80.14 0,0 369.2,-91.59 552.37,-71.55 183.16,20.03 326.26,74.41 326.26,74.41 0,0 -414.99,-95.88 -676.86,78.7 -261.87,174.59 -692.6,343.44 -692.6,343.44 l 410.7,-369.2 c 0,0 -406.41,206.06 -599.59,370.63 z m 2159.39,104.46 c 0,0 595.3,580.98 822.82,204.63 227.52,-376.36 34.34,-611.04 34.34,-611.04 0,0 68.69,413.56 -151.68,553.8 0,0 64.4,-161.7 87.29,-304.81 22.89,-143.1 8.58,-284.76 8.58,-284.76 0,0 -125.93,433.58 -293.35,496.55 -167.43,62.97 -362.04,-27.19 -362.04,-27.19 0,0 277.61,193.19 495.12,45.8 0,0 -234.68,243.27 -641.08,-72.98 z m -143.09,34.34 c 0,0 114.48,143.1 128.79,340.58 14.31,197.47 140.24,875.76 140.24,875.76 z m -1227.75,-163.13 c 0,0 398.21,-346.8 644.14,-293.6 245.93,53.2 417.65,264.99 417.65,264.99 0,0 -307.67,-200.34 -413.56,-151.69 -105.89,48.65 -470.8,210.36 -470.8,210.36 l 246.13,-196.05 z m 1259.28,-560.94 c 0,0 440.75,71.55 532.33,-148.82 91.58,-220.37 -100.17,-463.64 -100.17,-463.64 0,0 309.09,266.17 171.72,529.47 0,0 168.95,-102.31 85.86,-363.47 0,0 197.48,220.37 11.45,463.64 -186.03,243.26 -566.67,131.64 -566.67,131.64 0,0 322.07,-7 437.88,-171.71 0,0 -272.48,196.54 -572.4,22.89 z m -1977.62,-291.92 c 0,0 163.14,-861.45 855.73,-795.62 692.59,65.82 975.93,621.04 975.93,621.04 0,0 -432.16,-515.15 -970.21,-509.43 0,0 486.53,140.24 669.7,340.58 183.17,200.33 598.16,306.23 598.16,306.23 0,0 -452.2,-117.35 -887.22,-372.06 -435.01,-254.71 -1033.17,337.71 -1033.17,337.71 0,0 201.07,-579.31 684.01,-486.53 0,0 -566.67,-231.82 -892.93,558.08 z m -394.95,852.87 c 0,0 558.08,-1090.41 1325.09,-1159.09 767.01,-68.69 1110.46,907.23 1110.46,907.23 l -343.44,-377.78 c 0,0 80.15,518.03 455.07,569.55 374.93,51.52 712.64,-503.71 712.64,-503.71 0,0 -452.2,772.74 -875.77,583.85 -423.57,-188.9 -595.29,-821.39 -1036.03,-807.08 -440.74,14.31 -930.14,506.57 -930.14,506.57 0,0 455.06,-809.94 1156.24,-606.74 0,0 -706.92,-472.22 -1574.12,887.2 z m -672.56,-134.52 c 0,0 646.81,97.3 870.04,-417.85 223.23,-515.16 108.76,-775.59 108.76,-775.59 0,0 27.66,607.91 -300.51,892.93 0,0 154.55,-383.5 208.92,-726.94 54.38,-343.44 191.75,-692.6 724.08,-589.57 0,0 -580.97,-337.7 -784.17,297.65 -203.21,635.36 -815.67,1101.85 -1319.37,1150.51 0,0 706.2,185.1 1101.86,-523.74 0,0 34.34,586.71 -609.61,692.6 z m -818.5,-203.22 c -2.86,-22.89 -117.34,-357.74 97.3,-475.08 214.65,-117.34 663.98,-269.03 761.29,-394.96 0,0 -73.74,204.71 -460.78,340.58 0,0 464.39,23.65 646.8,-589.55 182.4,-613.2 601.01,-904.38 1222.06,-775.59 0,0 -652.52,-191.75 -947.31,475.08 0,0 363.44,-389.74 947.31,-363.47 583.86,26.27 850,357.75 850,357.75 0,0 -829.96,-503.7 -1356.57,-114.48 -526.61,389.23 -549.49,912.96 -875.76,1133.34 -326.27,220.37 -549.5,186.03 -549.5,186.03 0,0 417.85,20.03 632.49,-360.61 214.65,-380.64 249,-569.53 249,-569.53 0,0 -237.55,601.01 -626.78,712.63 -389.22,111.62 -572.39,217.51 -589.55,437.86 z m -486.53,-323.39 c -2.86,-25.76 -80.14,-560.94 194.62,-832.83 274.75,-271.89 764.14,-426.44 764.14,-426.44 0,0 -609.6,217.5 -764.14,646.8 0,0 323.4,-289.06 652.52,-503.7 329.13,-214.65 455.06,-317.68 455.06,-317.68 0,0 -94.45,234.69 -363.47,486.54 -269.03,251.84 -492.26,377.77 -492.26,377.77 l 374.92,-386.36 c 0,0 -821.39,352.02 -821.39,955.9 z"
   id="path342" />
   <path
   class="fil15"
   d="m 13155.05,3091.54 c 45.97,-63.54 112.5,-118.65 207.89,-154.42 149.39,-56.03 274.7,-116.55 373.77,-170.97 12.14,25.24 24.74,47.77 38.19,66.88 -64.28,53.56 -139.94,106.71 -224.17,148.28 -64.12,-30.23 -254,66.64 -395.68,110.23 z m 413.86,-92.01 c 77.83,-23.36 172.55,-58.7 264.61,-110.67 36.92,19.63 80.97,17.08 136.92,-16.25 72.25,-43.04 154,-115.4 236.26,-191.68 -151.29,286.59 -430.56,431.09 -623.63,499.97 -0.71,-8.21 -1.05,-16.49 -1.18,-24.8 108,-51.9 233.26,-128.62 310.5,-230.43 0,0 -63.97,42.64 -309.57,146.29 -0.73,-25.25 -3.94,-49.73 -13.9,-72.41 z m -18.57,-692.23 c 4.09,8.06 8.09,16.16 12.02,24.31 -170.93,108.03 -360.16,269.06 -436.97,482.44 0,0 219.1,-195.83 480.15,-384.8 13.11,32.11 25.33,64.17 37,95.63 -167.18,89.91 -482.07,289.13 -630.45,578.46 -21.45,-11.79 -30.19,-37.1 -20.45,-81.9 29.98,-137.9 108.56,-299.3 105.97,-397.96 8.85,-10.23 18.07,-20.19 27.78,-29.79 120.21,-118.97 281.52,-215.48 424.95,-286.39 z m 107.86,260.15 c 9.06,24.83 17.86,49.07 26.57,72.44 -179.25,144.71 -307.53,217.09 -307.53,217.09 z m 892.17,-170.7 c 77.64,-37.62 135.91,-24.17 158.45,86.64 14.48,71.19 20.99,152.14 24,235.15 -149.93,254.3 -236.63,493.58 -431.18,624.99 -30.99,20.93 -61.05,39.55 -90.08,56.14 -1.81,-8.43 -3.9,-15.49 -6.31,-21.43 65.73,-50.87 128.31,-118.72 179.38,-209.29 214.65,-380.64 249,-569.53 249,-569.53 0,0 -237.55,601.01 -626.78,712.63 -67.22,19.27 -128.28,38.38 -183.42,57.94 h -0.01 c -148.75,-29.66 -206.72,-79.15 -228.71,-135.78 230.76,-110.36 594.76,-242.51 681.18,-354.34 0,0 -73.74,204.71 -460.78,340.58 0,0 464.39,23.65 646.8,-589.55 25.05,-84.22 54.58,-162.33 88.46,-234.15 z m 196.15,802.01 c 9.03,66.31 25.75,114.09 56.78,131.95 -146.41,228.26 -326.9,350.37 -497.22,413.38 -37.57,-21.17 -61.66,-60.28 -74.04,-120.37 186.16,-102.04 365.52,-247.48 514.48,-424.96 z m 95.93,139.11 c 3.07,-0.37 6.21,-0.88 9.47,-1.62 58.34,-13.25 119.78,-16.42 176.56,-14.55 -32.59,107.72 -65.22,200.23 -87.25,259.84 -81.07,35.42 -154.22,66.57 -219.99,92.65 86.41,-122.75 113.2,-255.23 121.21,-336.32 z m 282.91,-8.28 c 19.92,2.53 38.23,5.39 54.38,8.24 -17.35,55.51 -39,114.98 -65.79,178.42 -28.64,8.01 -64.43,20.5 -109.01,38.46 51.77,-68.46 90.91,-145.97 120.42,-225.12 z m 597.24,-1009.98 c 17.12,-6.41 34.13,-12.52 51,-18.3 45.63,18.62 73.49,34.8 73.49,34.8 -44.18,-8.55 -85.57,-13.92 -124.49,-16.5 z m 494.43,126.37 c 3.47,36.32 8.12,71.97 14.03,106.77 -21.91,-1.47 -44.01,-2.22 -66.3,-1.98 0,0 26.67,7.69 69.87,22.04 12.46,67.01 29.83,130.62 52.87,189.34 -114.78,3.22 -230.72,40.91 -336.74,91.97 -25.87,-47.36 -57.09,-88.3 -98.82,-122.94 93.39,-53.1 207.53,-80.75 344.3,-54.48 0,0 -188.88,-77.26 -411.34,9.44 l -0.01,-0.01 c -51.24,-27.76 -91.35,-64.86 -124.34,-97.28 123.4,-102.73 285.99,-169.89 498.49,-149.69 19.67,1.86 38.98,4.18 57.99,6.82 z m 161.84,482.08 c 66.23,87.03 154.71,151.88 270.36,184.96 246.76,70.58 102.86,177.99 10.49,380.4 -115.31,-115.64 -241.09,-198.07 -403.34,-192.8 -45.48,1.48 -91.48,8.11 -137.4,18.7 -6.21,-19.85 -12.57,-39.07 -19.24,-57.48 -8.95,-24.69 -17.25,-48.68 -25.09,-71.98 123.77,-29.95 260.33,-32.15 407.83,10.59 0,0 -162.82,-108.62 -427.92,-71.56 -17.47,-53.88 -33.09,-103.64 -49.48,-149.31 73.71,-26.14 149.93,-44 228.37,-51.02 50.31,-4.51 98.74,-4.42 145.42,-0.5 z m 246.44,655.6 c -1.1,3.63 -2.02,7.31 -2.89,11.01 -66.01,-23.94 -242.97,-76.68 -435.44,-38.21 -9.94,-33.33 -19.2,-66.41 -28.18,-98.77 256.15,-17.7 410.19,80.79 466.51,125.97 z m -7.94,55.44 c -0.07,8.57 0.32,17.24 1.15,26.01 -108.25,-7.31 -251.26,-3.82 -380.77,41.57 -10.2,-26.07 -19.6,-52.4 -28.36,-78.78 91.89,-13.21 186.98,-21.44 255.8,-13.91 55.33,6.05 107.01,15.24 152.18,25.11 z m 36.19,152.65 c 15.35,36.54 34.17,72.99 53.72,108.05 -14.13,0.32 -26.8,2.67 -37.4,7.54 -46.33,21.29 -142.25,64.21 -235.49,105.77 -16.16,-14.82 -31.31,-30.37 -45.57,-46.54 l 56.39,-44.92 -70.99,27.82 c -18.42,-22.37 -35.24,-45.83 -50.69,-70.11 109.76,-58.99 231.05,-103.5 330.03,-87.61 z M 15441.61,2863.8 c -5.61,42.95 -9.6,86.46 -12.57,129.86 -44.42,67.29 -86.8,146.86 -125.73,241.12 0,0 34.34,-181.18 138.3,-370.98 z m -29.84,526.95 c -2.28,30.17 -5.25,58.68 -9.24,85.12 -58.96,54.43 -119.44,116.63 -181.22,187.64 -12.02,-6.95 -15.68,-18.97 -15.31,-33.4 60.72,-78.67 129.63,-160.49 205.77,-239.36 z"
   id="path344" />
  </g>
 </g>
</svg>
