<?xml version="1.0" encoding="UTF-8"?>
<svg width="130.94mm" height="146.93mm" clip-rule="evenodd" fill-rule="evenodd" image-rendering="optimizeQuality" shape-rendering="geometricPrecision" text-rendering="geometricPrecision" version="1.1" viewBox="0 0 13094 14693" xmlns="http://www.w3.org/2000/svg">
 <defs>
  <style type="text/css"><![CDATA[
    .fil1 {fill:#4D4D4D}
    .fil10 {fill:#736161}
    .fil12 {fill:#91726E}
    .fil9 {fill:#947C7C}
    .fil7 {fill:#C67D6A}
    .fil4 {fill:#CCCCCC}
    .fil8 {fill:#E6E6E6}
    .fil6 {fill:#E9A188}
    .fil2 {fill:#F5F258}
    .fil14 {fill:#F8D9C4}
    .fil3 {fill:#FACCAA}
    .fil0 {fill:white}
    .fil5 {fill:white}
    .fil11 {fill:#4D4D4D;fill-rule:nonzero}
    .fil13 {fill:#E6E6E6;fill-rule:nonzero}
   ]]></style>
 </defs>
 <g transform="translate(-8302.6 -2321.5)">
  <circle class="fil1" cx="14849" cy="10467" r="6546.9"/>
  <circle class="fil2" cx="14849" cy="10467" r="6339.3" fill="#ede9df" style="fill:#ede9df"/>
  <path class="fil3" d="m20811 12626c-370.89-165.3-743.66-326.56-1117.4-485.03-311.11-131.91-623.07-262.08-936.02-389.54l-40.03-16.3 16.48-39.95c8.67-21.02 17.34-42.05 26.02-63.07l-12.3-20.06c-138.04-225.09-276.87-449.76-415.93-674.23-90.85-146.63-181.83-293.21-273.67-439.22-32.14-51.11-64.36-102.2-97.08-152.93-14.17-21.95-30.79-50.07-46.98-70.31-43.11-53.89-193.42-131.11-258.2-163.06l-76.6-37.79 75.97-39.06c242.55-124.68 320.85-552.07 334.04-801.33l0.59-11.03 5.83-9.39c160.5-258.43 269.46-553.35 324.68-852.16 41.79-226.06 56.89-477.05 20.27-704.87-22.57-140.44-80.23-343.19-208.44-424.77-24.8-15.78-51.73-26.91-80.65-32.25-12.21-2.26-24.57-3.62-36.98-4.04l-51.85-1.76 11.33-50.63c44.73-199.95 83.22-403.92 109.64-607.06 20.34-156.3 39.02-340.17 22.17-497.05-15.54-144.72-44.09-291.05-78.1-432.48-45.45-189.04-103.34-375.97-172.61-557.63-115.78-303.57-266.04-598.9-456.1-862.88-52.9-73.47-105.26-147.34-157.68-221.14-103.59-145.85-207.15-291.88-314.65-434.88-98.51-131.05-200.89-260.84-311.4-382.02-149.31-163.73-369.95-374.97-598.51-409.61-96.31-14.59-193.18-39.26-286.94-65.43-108.55-30.29-216.18-64.25-323.47-98.69-33.28-10.68-66.53-21.44-99.79-32.19-140.76-45.52-282.57-92.3-425.57-130.21-84.22-22.32-209.68-53.92-296.83-47.04-53.19 4.19-109.47 17.93-160.77 32.24-65.71 18.34-130.72 40.5-194.72 64.07-20.46 7.53-40.85 15.24-61.18 23.1l-11.04 4.26-11.67-1.98c-67.03-11.37-138.57-16.31-206.36-18.12-136.29-3.64-274.02 7.08-407.99 32.35-59.39 11.2-121.51 29.59-179.15 47.49-100.74 31.3-200.27 67.88-297.67 108.36-162.08 67.35-320.28 146.29-470.49 237.15-188.94 114.28-374.44 234.85-557.65 358.09-442.28 297.47-877.27 612.82-1301.5 935.78l-2.29 1.74-2.51 1.43c-326.43 185.52-579.25 457.49-665.28 829.38-2.3 9.93-4.37 19.94-6.41 29.93-76.7 376.32-13.37 732.12 231.08 1032.8 129.81 159.68 313.36 302.48 500.53 389.81l27.71 12.93-3.09 30.41c-13.19 129.98-24.87 260.31-36.14 390.5l106.67 284.46-76.04-68.44 37.03 114.11 0.07 6.57c2.03 187.63 10.9 375.22 25.14 562.3l0.1 1.21 0.02 1.22c7.91 404.99 17.69 810.03 30.74 1214.9 6.62 205.37 14.03 410.79 23.76 616.03 7.17 151.17 14.43 304.66 29.3 455.26 20.02 202.65 50.8 405.62 90.81 605.25 50.35 251.21 116.52 501.92 205.21 742.4 113.2 306.92 273.36 623.92 503.48 859.99l3.15 3.23 2.41 3.82c42.79 67.7 86.72 134.68 131.74 200.91l27.79 40.9-44.33 21.87c-497.01 245.28-991.92 497.98-1480.2 760.21-303.27 162.88-607.6 330.25-901.5 509.89 1122.4 1780.5 3106.1 2963.5 5366.4 2963.5 2742.9 0 5078.4-1742.2 5961.6-4180.2z"/>
  <path class="fil4" d="m14181 8352.8s155.87-247.08 314.19-262.97c158.31-15.89 646.93 62.54 646.93 62.54l55.5 90.48s-471.72 293.18-1016.6 109.96zm-2556.9 55.37s155.14-129.69 341.44-139.96c186.28-10.26 440.71 31.27 487.58 55.45 46.88 24.18 164.08 141.34 164.08 141.34l-164.68 55.87s-486.98 179.25-828.42-112.71z"/>
  <path class="fil5" d="m11760 8497.7c-5.96-18.03-7.43-36.47-0.43-53.32 26.54-63.95 512.75-124.28 659.94-50.68 52.09 26.04 84.92 70.81 73.25 113.58l-39.88 13.53s-371.37 136.67-692.88-23.11z"/>
  <path class="fil5" d="m15035 8320c-153.62 59.71-402.16 124.65-683.94 75.83-30.63-37.88-52.84-94.16 21.23-143.29 125.48-83.25 528.44-107.37 634.61-2.41 22.3 22.04 31.83 46.16 28.1 69.88z"/>
  <path class="fil6" d="m13218 4328.9s727.08 109.39 1106.7 540.49c379.63 431.1 443.97 2392 443.97 2392s154.42-9.65 173.73-6.43c19.3 3.21 292.77 236.46 292.77 236.46l-1024.7 249.33-283.5-180.74s-491.88 637.61-511.18 695.52c-19.29 57.91-3.24 1534.6-3.24 1534.6s234.31 240.34 106.17 456.84c-128.16 216.5-444.73 263.9-646.67 183.38-201.93-80.53-193.03-228.42-193.03-228.42l14.47 175.33s-125.31 13.95-176.21-77.61c-50.91-91.55 26.6-226.43 29.82-266.64 3.22-40.22-13.71-115.92-13.71-115.92s-291.93 448.89-266.19 466.59 186.59-128.7 186.59-128.7 64.35 147.99 157.64 173.73c93.3 25.74 532.44 588.74 561.4 601.61 28.95 12.87 196.26 48.27 234.86 38.61 38.6-9.65 337.81-119.03 374.81-123.86 36.99-4.83 471.32 57.9 527.62 75.6 56.31 17.7 139.95 143.17 139.95 143.17l-222.67 454.12s-121.56 190.92-189.12 216.66c-67.57 25.73-653.1 196.23-1119.6 22.51 0 0-57.94 369.97 209.1 463.26 267.03 93.3 994.14-241.3 1354.5 241.28 360.33 482.57 173.73 1074.5-218.77 1183.9-392.51 109.39-1001.6-37.27-1001.6-37.27s982.33 687.16 1413.4 597.07c431.1-90.09 1087.4-469.71 1087.4-469.71s1640.8-1447.8 1872.4-3326.6l-32.16-463.28s315.3-341.03 341.04-836.48c0 0 682.06-1454.2 186.6-1898.2-495.45-443.97-746.4-463.27-746.4-463.27s-1975.4-2947-4166.2-2519.1zm4336.9 4016.9s55.49-395.71 221.98-260.59 176.02 784.66 3.56 801.32c-172.46 16.65-97.39-366.79-225.54-540.73zm-3714.5 1828.8s-101.35-220.37-32.18-361.94c69.18-141.55 395.73 112.61 328.17 281.51-67.57 168.9-295.99 80.43-295.99 80.43zm-1182.3 1118.8s-16.15 48.91-65.15-68.37c-49.01-117.27-131.11-130.29-127.09 20.12 4.02 150.39 192.23 48.25 192.23 48.25zm-976.5-2437.1s91.71-75.61 246.12-88.48c154.42-12.87 479.37-74 495.46-53.09 16.08 20.92-225.21 295.99-741.58 141.56zm2950.2-878.33s105.37-92.5 203.49-115.82c98.13-23.33 350.68 27.34 374.81 66.76 24.13 39.41-62.74 111-111 110.19s-217.97-73.19-467.3-61.13zm-453.58 581.52s172.12-67.57 331.38-59.52c159.25 8.05 706.18-65.95 731.92 0 25.73 65.96-543.72 390.9-1063.3 59.52zm3.21-206.72s124.68-255.78 334.6-264.62c209.93-8.85 603.25 73.2 624.16 99.74s29.76 78.83 29.76 78.83-506.72 249.32-988.51 86.06zm54.75 845.34s-45.05 350.68 128.68 608.05c173.73 257.38 739.96 572.66 984.46 778.57 244.51 205.9 707.79-463.29 482.58-939.43-225.2-476.14-620.92-482.59-1048.8-437.54-427.89 45.04-546.91-9.65-546.91-9.65zm-2202.2-1220.9 85.22-194.61s606.49 471.28 683.71 628.94c77.22 157.64 41.83 534.06 41.83 534.06s-67.56-80.43-77.22-231.64c-9.65-151.21-110.81-221.36-192.29-279.94s-189.78-201.64-270.65-205.9-529.59 45.09-601.97 99.78-90.14 125.44-90.14 125.44l127.06 64.49s-183.3 6.32-308.77 24.02c-125.48 17.69-149.59-125.48-104.56-165.69 45.04-40.21 101.28 44.63 172.89 33.58 71.62-11.05 211.56-136.52 280.73-144.56 69.17-8.05 229.53-34.93 229.53-34.93s-17.19-37.46-31.67-40.68-128.7 9.65-157.64-17.7c-28.96-27.34-59.52-135.12-149.6-164.07-90.09-28.96-276.68-17.69-276.68-17.69s-78.83 67.57-246.12 181.78c-167.3 114.21-188.21-57.92-111-183.39 77.22-125.47 760.87-136.74 760.87-136.74l236.47 125.48z"/>
  <path class="fil7" d="m13787 7975c158.39-116.62 367.14-224.7 471.98-242.41 171.31-28.95 511.54-65.15 699.75-113.41s692.51 161.67 697.34 263.01-301.61 36.19-516.36-86.87-593.58-21.71-762.48 69.98-294.38 115.82-277.49 205.1 180.96-16.89 361.94-43.44c148.35-21.76 429.68-19.19 580.75 1.05 25.53 6.42 44.48 10.87 56.22 11.06 1.53 0.03 3.1-0.02 4.71-0.13 6.34 1.57 12.07 3.21 17.05 4.91 98.94 33.78 200.28 229.23 313.69 221.99 113.4-7.24 173.72 55.5 86.86 115.82-86.86 60.33-226.81 31.37-323.33-118.24-14.56-22.56-30.77-42.75-48.57-60.79-2.8-5.39-5.9-10.43-9.33-14.78-2.11-2.68-8.09-5.94-17.27-9.61-99.53-82.57-240.81-110.27-417.08-110.27-38.05 0-81.68 7.49-128.1 19.88-21.81-0.59-42.54-0.55-61.72 0.26-90.84 3.82-165.69 53.89-221.41 109.46-140.86 65.81-258.18 131.06-276.45 126.18-36.2-9.65 9.65-45.84-7.25-71.17-7.43-11.13-41.21-12.71-81.03 0.81v-0.01c38.46-87.35 70.13-98.44-45.69-134.64-89.2-27.87-116.86-62.9-96.73-143.75zm-1971.8 889.35s28.96-36.19 152.01-44.64c123.06-8.45 315.12-26.85 324.54-9.65 9.41 17.2-237.68 160.46-476.55 54.29zm-149.6-523.62-20.29-34.69s-108.7 110.1-176.31 103.16c-67.62-6.94-123.12-22.62-126.74 19.6-3.62 42.23 173.73 94.11 232.85 53.09s90.49-141.15 90.49-141.15zm367.87-363.58 108.54-177.19 435.83 366.51s-196.82-48.93-220.95-36.86c-24.12 12.06 25.42 82.9 46.26 125.11 20.85 42.22-81.12 32.5-177.03 23.94-95.92-8.56-71.91-59.77-110.52-103.21-38.61-43.43-173.73-36.2-224.4-60.33s-91.69-108.58-91.69-108.58zm2539.1 3158.4s100.74-4.23 166.49-89.28c65.76-85.06 198.46-43.44 130.3 88.07s-296.79 1.21-296.79 1.21zm-1505.1-615.27s137.1 5.29 311.05-133.69 231.85-97.96 436.95-93.14c205.09 4.83 299.26-100.31 328.57-231.87 29.31-131.57-128.31-243.47-43.85-267.6 84.46-24.12 651.49 663.55 591.17 685.27s-352.29-386.06-419.85-325.74c-67.56 60.33-173.73 248.52-386.07 253.35s-335.4 0.01-487.41 77.22c-152.01 77.22-330.57 36.2-330.57 36.2zm-693.71-303.42s120.64-276.29 141.14-247.33c20.52 28.96-44.63 148.39-42.22 203.29 2.41 54.89 29.56 99.54 3.62 86.27-25.95-13.28-44.65-56.71-59.73-56.71s-42.82 14.48-42.82 14.48zm1717.6-1778c26.38-19.46 59.43-32.37 93.96-30.58 69.97 3.62 265.44 3.64 376.44 22.94 51.02 8.87 63.01 38.65 46.22 67.42-40.06 1.87-74.17 2.61-98.92 1.36-159.25-8.05-331.38 59.52-331.38 59.52 275.85 175.91 431.41 220.94 703.4 143.13l-0.1 0.05c-321.27 186.95-528.39 84.05-541.03 77.44l-0.46-0.25-0.13-0.07-0.02-0.01c-146.17-80.91-210.36-200.7-188.47-231.51 32.58-45.85 106.17-60.32 60.32-88.08-33.45-20.25-79.93-23.72-119.83-21.36z"/>
  <path class="fil8" d="m11836 15308-453.58 467.76c-71.45-46.76-141.74-95.13-211.15-144.65 200.23-884.73 615.36-1754.9 1122.1-2494.6l30.82-44.99 36.59 40.45c66.73 73.79 141.51 152.07 220.16 213.24 161.67 125.74 380.44 218.2 573.44 283.93l49.59 16.89-26.22 45.37c-109.58 189.58-194.55 412.4-255.64 621.67-120.57 412.98-166.86 847.06-150.03 1276.4l2.52 64.3-60.38-22.23c-292.76-107.83-585.48-215.72-878.23-323.59zm1360.4 1281-66.33-278.43 0.23-5.91c5.54-140.53 54.38-328.6 185.52-404.11l0.85-0.49 1514.6-782.52 1512.2 1512.2c-479.13 115.78-979.49 177.18-1494.2 177.18-571.82 0-1125.9-75.92-1652.8-217.87zm3546.8-70.1c640.75-1552.3 1281.5-3104.6 1922-4657l16.34-39.59 39.66 16.15c308.17 125.47 615.41 253.47 921.85 383.12 379.92 160.73 758.81 324.24 1135.8 491.86-685.96 1810.1-2176.8 3224.2-4035.7 3805.4zm-291.06-3165.5c-0.5 0.62-0.99 1.24-1.49 1.86-264.95 330.15-543.19 653.85-837.77 957.92-242.72 250.53-509.58 503.64-794.75 705.25l-2.44 1.72-746.21 385.55-42.68-64.13 29.51-24.74c69.84-58.55 139.55-117.25 209.24-175.94 84.97-71.56 169.88-143.2 255.29-214.24 53.84-44.79 108.55-91.11 164.49-133.2 418.94-315.22 799.67-686.06 1144.7-1080l1.14-1.31 1.24-1.21c241.95-234.98 468.93-496.08 673.13-764.1 318.49-418.03 596.69-876.89 796.27-1363.8l0.9-2.22 1.15-2.1c103.02-188.38 202.29-380.27 292.86-574.99 27.27-58.64 54.04-117.88 78.54-177.73 8.8-21.5 25.16-58.57 29.49-81.08 6.28-32.65 9.89-65.89 10.04-99.16l0.13-30.3-1.21-3.75-0.4-4.95c-3.57-43.52-14.26-90.57-34.68-129.54l-2.64-5.05-1.24-5.57c-13.23-59.47-23.52-119.64-31.16-180.07l-10.44-82.59 73.41 39.25c37.87 20.25 107.96 57.83 134.46 90.94 17.29 21.62 34.58 50.94 49.61 74.38 32.22 50.28 64.01 100.86 95.71 151.46 91.02 145.2 181.28 290.9 271.45 436.65 128.95 208.44 257.54 417.13 385.89 625.95l11.48 18.68-2027.6 4912.7c-58.93 17.21-118.3 33.37-177.92 48.88l-1536.7-1536.7 39.64-29.78c289.62-217.57 561.05-477.59 801.99-747.3 259.43-290.4 492.8-604.26 697.6-935.68zm-4989.2 2473.8 397.71-410.14 931.09 343.04 235.19 519.9 66.74 280.48c-582.35-167.52-1130.2-416.38-1630.7-733.28zm-1932.2-1909.5 8.47-5.14c301.5-182.54 613.56-352.48 924.62-518.17 484.14-257.89 974.33-507.17 1466.5-749.5l32.73-16.11 21.25 29.65c81.86 114.22 167.19 226.38 256.76 334.67l20.8 25.15-18.59 26.8c-275.56 397.32-518.94 825.63-718.96 1265.6-183.61 403.92-334.06 826.88-435.39 1260.4-613.23-452.63-1141.9-1013.1-1558.2-1653.4z"/>
  <path class="fil4" d="m15788 14252c6.78-7.48 12.92-14.47 18.29-20.87l0.1-0.12c238.95-274 455.04-568.09 646.24-877.49-0.5 0.62-0.99 1.24-1.49 1.86-107.45 133.89-217.08 266.71-329.1 397.6 318.98-511.8 760.09-1256.6 855.93-1427.3 139.52-248.48 326.36-746.8 326.36-746.8 103.02-188.38 202.29-380.27 292.86-574.99 27.27-58.64 54.04-117.88 78.54-177.73 8.8-21.5 25.16-58.57 29.49-81.08 6.28-32.65 9.89-65.89 10.04-99.16l0.13-30.3-1.21-3.75-0.4-4.95-0.41-4.58 865.09 1226v0.02l-1950.4 4725.8c-58.94 17.19-118.3 33.36-177.92 48.88l-1536.7-1536.7 39.64-29.78c289.62-217.57 561.05-477.59 801.99-747.3 11.04-12.36 22.03-24.76 32.97-37.2zm-4300.6 1135 974.83-2195.8 858.99 135.13-424.66 1259.6-126.71 906.95-910.86-414.71-371.59 308.85zm1960.2 1264c-21.72-167.42-35.24-307.17-35.24-307.17l815.68 432.93c-265.28-25.94-525.73-68.25-780.44-125.77zm804.28 128.09 579.84-1661.4 1512.2 1512.2c-479.12 115.82-979.48 177.18-1494.2 177.18-201.61 0-401.04-9.44-597.8-27.92zm2491.8-260.05c616.36-1493.2 1232.7-2986.4 1848.9-4479.7l2041.2 1025.7c-737.95 1640.7-2153.2 2910.9-3890 3454z"/>
  <path class="fil9" d="m15313 4807.9c-187.7-115.87-379.42-224.05-573.06-324.43-238.7-123.74-484.38-237.93-734.36-337.07-88.98-35.29-178.91-68.86-269.74-99.1-59.2-19.7-120.44-39.04-181.24-53.11-54.4-12.59-108.99-24.37-163.69-35.52-657.85-134.08-1400.2-174.71-2056.8-12.15l-179.6 44.47 149.58-108.92c255.91-186.33 514.68-369.27 777.4-545.89 182.02-122.39 366.32-242.11 554.02-355.64 145.98-88.3 299.65-165.1 457.18-230.56 93.1-38.69 188.14-73.88 284.37-104.03 55.43-17.37 115.14-35.17 172.27-45.94 72.59-13.69 146.04-22.91 219.76-27.72l83.27-5.44-94.96 115.87c109.14-34.71 218.76-68.08 328.69-99.8l7.39-2.13 5.19 0.71 0.45-2.36 21.56-6.14c87.57-24.92 175.71-48.86 264.34-69.69 66.29-15.59 139.61-32.18 207.49-37.54 81.07-6.39 204.52 26.95 282.95 48.48 134.66 36.96 268.24 80.96 401.11 123.92 36.39 11.77 72.79 23.54 109.22 35.22 108.87 34.92 218.12 69.27 328.3 99.84 94.27 26.15 191.52 50.68 288.31 65.34 214.51 32.51 428.5 250.34 565.87 405.5 103.55 116.96 200.09 241.1 293.47 366.26 101.6 136.17 199.94 274.81 298.33 413.32 52.51 73.94 105.1 147.82 158.08 221.43 184.91 256.84 330.69 544.82 443.31 840.14 67.53 177.05 124.13 359.17 168.58 543.39 33.26 137.82 61.17 280.39 76.32 421.44 16.87 157.07-3.21 342.4-24.48 498.8-22.55 165.75-53.22 331.3-88.15 494.88l-14.46 67.69-47.37-50.45c-164.85-175.56-339.78-343.15-518.59-504.38-213.28-192.32-434.13-376.77-660.48-553.49l-2.56-2-2.15-2.42c-6.64-7.41-13.25-14.85-19.84-22.3l-4.01 4.26-25.94-19.85c-0.59-0.46-1.17-0.92-1.76-1.37l-1.53-1.17-1.4-1.33c-76.9-73.04-159.73-143.29-241.4-210.79-192.94-159.45-394.63-309.67-601.64-450.29-612.82-416.33-1296.1-763.59-2010.1-966.45-75.44-21.44-158.12-36.26-235.35-49.59-132.93-22.96-267.16-40.68-401.36-54.34-350.89-35.73-713.7-45.16-1065-11.14-254.32 24.63-529.08 75.35-776.79 175.06 42.8-11.21 85.77-21.68 128.79-31.45 425.71-96.75 870.47-128.29 1305.8-100.49l32.9 2.1 2.01 65.89-32.7 4.1c-528.73 66.31-958.57 330.59-1288 743.43-215.65 270.22-384.48 600.99-488.52 930.84-15.68 49.74-28.35 102.23-40.99 152.85-15.3 61.26-29.99 122.67-44.45 184.12l-10.57 44.94-41.14-20.97c-174.49-88.94-338.25-222.54-455.08-379.74-201.05-270.52-250.39-587.17-183.7-914.37 1.89-9.28 4-18.53 6.13-27.75 74.04-320.01 286.68-561.06 561.93-731.34l27.78-17.19 3.18 4.11c9.39-7.19 18.78-14.36 28.19-21.52l2.01-1.53 2.2-1.24c140.43-78.95 291.64-139.52 445.73-185.97 673.05-202.9 1464.5-163.49 2146-24.59 53.93 11 107.71 22.8 161.32 35.21 620.35 143.51 1223.4 395.67 1782.2 709.05z"/>
  <path class="fil10" d="m15313 4807.9c-187.7-115.87-379.42-224.05-573.06-324.43-238.7-123.74-484.38-237.93-734.36-337.07-88.98-35.29-178.91-68.86-269.74-99.1-59.2-19.7-120.44-39.04-181.24-53.11-54.4-12.59-108.99-24.37-163.69-35.52-59.22-12.07-119.12-23.36-179.58-33.84 204.48 8.88 425.9 30.89 633.85 76.65 643.45 141.55 1151.8 527.63 1229 437.54s-842.91-714.22-2425.8-826.82c0 0 109.39-61.12 167.29-64.34 57.92-3.22 849.35 48.26 1145.3 80.43s868.66-109.39 868.66-109.39 495.44 315.29 617.7 424.67c122.26 109.39 714.23 585.52 797.88 637.01 83.64 51.48 128.69-398.95 115.82-463.28-12.87-64.34-64.35-199.46-64.35-257.37 0-57.92 19.3-154.43 19.3-154.43l263.82 463.28s-96.52-193.04-122.26-373.2-122.27-604.84-160.86-701.35c-38.6-96.52-546.93-257.37-810.74-283.11s-797.87 225.2-1319.1 328.15c-521.18 102.96-1447.8 160.86-1447.8 160.86s508.32-180.16 849.35-283.12c341.02-102.95 926.57-411.82 1016.6-424.67 90.08-12.86 386.06 25.74 527.62 45.05 37.65 5.13 102.19 6.16 176.6 4.92 32.14 10.39 64.27 20.77 96.44 31.09 108.87 34.92 218.12 69.27 328.3 99.84 94.27 26.15 191.52 50.68 288.31 65.34 214.51 32.51 428.5 250.34 565.87 405.5 103.55 116.96 200.09 241.1 293.47 366.26 50.81 68.09 100.79 136.79 150.37 205.78 0 0 248.33 725.5 557.18 1391.5 308.85 665.98 390.19 760.32 173.73 791.44-216.46 31.11-887.96-598.41-791.44-405.38 96.53 193.03 868.65 598.4 859 723.87-7.36 95.67-83.7 439.62-119.56 597.65-122.35-123.22-249.03-242.54-377.71-358.58-213.28-192.32-434.13-376.77-660.48-553.49l-2.56-2-2.15-2.42c-6.64-7.41-13.25-14.85-19.84-22.3l-4.01 4.26-25.94-19.85c-0.59-0.46-1.17-0.92-1.76-1.37l-1.53-1.17-1.4-1.33c-76.9-73.04-159.73-143.29-241.4-210.79-192.94-159.45-394.63-309.67-601.64-450.29-488.22-331.68-1021.2-619.52-1578.8-825.44l-17.82-44.24s-643.76-374.75-1538.8-466.22c258.44 17.91 513.22 54.57 754.27 103.7 53.93 11 107.71 22.8 161.32 35.21 620.35 143.51 1223.4 395.67 1782.2 709.05zm-2749.8-557.07c44.54 1.59 89.02 3.8 133.39 6.63l32.9 2.1 2.01 65.89-32.7 4.1c-528.73 66.31-958.57 330.59-1288 743.43-215.65 270.22-384.48 600.99-488.52 930.84-15.68 49.74-28.35 102.23-40.99 152.85-3.9 15.63-7.77 31.28-11.6 46.93l-2.28-7.11s-357.53-1778.8 1695.8-1945.7z"/>
  <path class="fil7" d="m12752 11303-115.83-4.83-3.12-40.33s431.01-155.92 450.31-152.7c19.31 3.22 312.09 24.13 336.21 24.13 24.13 0 371.59-117.43 394.12-117.43 22.52 0 819.61 104.56 819.61 104.56l45.04 19.72s-288.73 643.83-1173.5 711.39-912.09-585.53-912.09-585.53l159.21 41.02z"/>
  <path class="fil6" d="m13479 11849c-323.06 19.84-528.46-58.25-658.95-163.5-16.69-128.42 6.98-280.55 217.78-268.66 360.55 20.33 454.82 63.94 558.58 199.06 55.56 72.35 22.18 174.4-117.42 233.1z"/>
  <path class="fil1" d="m14197 8412.5-202.68 76.41s15.27-63.53 25.73-80.43c10.45-16.9 131.11-123.07 131.11-123.07l127.09-152.01-209.93 93.31s242.91-168.9 333-181.77c90.08-12.87 694.93 33.78 731.91 49.86 37 16.09 212.34 180.16 230.04 196.25 17.69 16.09 41.82 30.57 41.82 30.57s-125.49 3.22-151.21-3.22c-25.73-6.43-67.56-30.57-67.56-30.57l-78.83 28.96h-77.21l94.91-70.78s-77.22-67.57-109.39-77.22c-32.18-9.65-530.85-49.87-575.89-33.78s-202.69 170.5-204.29 177.75c-1.61 7.24 1.61 62.74 1.61 62.74l90.88 26.55-131.1 10.45z"/>
  <path class="fil1" d="m14557 8104.5s-78.82 217.16 127.08 313.68c0 0 192.63 12.1 301.22-81.21 0 0 75.6-79.61 51.47-189s-479.76-43.47-479.76-43.47z"/>
  <path class="fil1" d="m13811 7940.4s11.26-366.77 400.55-458.45l-164.07 154.43 217.16-170.51 632.18-98.12 212.33 72.39-172.11-90.09s498.65 48.27 739.94 514.77c0 0-167.29-241.29-756.05-119.04-588.76 122.26-1048.8 176.94-1048.8 176.94l41.01-123.07-102.12 140.73z"/>
  <path class="fil1" d="m13789 7904.3s4.82-286.34 238.07-387.69c0 0-267.03 45.05-238.07 387.69z"/>
  <path class="fil1" d="m12518 11199s130.3 69.18 156.03 77.22c25.74 8.04 286.33-46.65 307.25-46.65 20.91 0 450.41 36.99 500.28 35.39 49.87-1.61 509.95-139.95 564.65-143.16 54.69-3.21 506.7-8.04 566.23-17.69 59.52-9.65 181.77-51.48 181.77-51.48s14.47 70.79 3.21 80.44c-11.25 9.65-119.04 3.22-119.04 3.22s-164.08 67.56-178.55 69.17c-14.48 1.61-133.52-14.48-193.03 1.61-59.52 16.08-714.65 224.59-836.91 234.24s-498.24-110.38-549.72-110.38-232.45-1.63-259.8-5.65c-27.36-4.02-113.43-41.03-135.14-53.09s-7.24-73.19-7.24-73.19z"/>
  <path class="fil1" d="m13341 10493s183.38-120.64 310.47-125.47 231.64-14.48 231.64-14.48-137.54 43.44-272.66 50.68c-135.13 7.24-269.45 89.27-269.45 89.27z"/>
  <path class="fil1" d="m14011 10321s321.74-78.83 146.38-439.15c0 0 135.13 320.11-146.38 439.15z"/>
  <path class="fil1" d="m12533 9917.1s-265.42 411.81 80.44 464.89l51.47 8.05s194.65 178.54 403.77 170.5c0 0-352.29-32.16-406.99-352.28 0 0-1.6 111 8.05 141.55 0 0-355.51 16.08-136.74-432.72z"/>
  <path class="fil1" d="m11444 8455.2s173.23-154.74 285.84-188.52 526.01-59.52 619.32-30.56c93.31 28.95 295.99 119.04 295.99 119.04l-98.13-19.31s149.6 90.09 160.86 111c11.27 20.91-1.6 80.43-1.6 80.43s-38.62-12.86-54.7-14.47c-16.09-1.61-157.64 8.04-157.64 8.04h-41.83l125.48-45.04-3.22-41.83s-138.34-123.07-310.46-143.97c-172.12-20.91-476.96 49.87-504.31 65.96-27.34 16.09-85.26 67.57-85.26 67.57l95.72 110.2-158.44-80.44s-100.06 9.96-167.61 1.92z"/>
  <path class="fil1" d="m10994 8117.1c4.83-20.92 22.52-329.78 328.16-397.34l-111 75.61 149.59-75.61 612.9 59.52 109.39 94.91-75.61-99.73s130.3 94.91 170.51 147.99c40.22 53.08 119.04 228.42 119.04 228.42l-173.73-67.57 51.48 45.05s-455.24-115.84-756.05-101.35c-300.81 14.48-419.86 172.11-419.86 172.11l43.43-167.28s-39.41 64.34-48.25 85.26z"/>
  <path class="fil1" d="m12119 7782.6s105.38 76.42 136.74 118.24c31.37 41.82 44.24 141.55 44.24 141.55s-39.42-149.6-180.97-259.79z"/>
  <path class="fil11" d="m12885 11326-5.29-0.22c-42.88-1.22-99.12 23.31-128.65 47.32-28.64 23.31-47.74 58.18-50.07 102.56l-0.2 4.28c-0.43 14.93 0.63 29.24 2.92 42.78 6.27 37.1 21.83 66.95 41.04 87.45 5.99 6.41 12.22 11.83 18.5 16.19l92.14 85.32c-65.71 11.05-119.12 1.87-166.74-49.02-28.84-30.79-51.99-74.38-60.94-127.28-3.05-18.06-4.45-37.45-3.82-58.01l0.2-5.64c3.56-67.87 33.47-121.78 78.42-158.34 43.98-35.77 102.12-54.32 163.48-52.45l5.74 0.22 13.27 64.85z"/>
  <path class="fil1" d="m12021 11301s19.3-209.13 38.61-260.6c19.3-51.47 440.76-373.2 440.76-373.2l-96.53 151.2 386.07-267.03s379.64 212.34 508.33 196.26l45.04 250.94s-244.51-6.44-308.86-35.39c-64.34-28.96-167.29-22.53-167.29-22.53l-360.33 186.6 67.56-90.09s-270.24 228.43-270.24 366.77 51.48 572.66 51.48 572.66l3.22-183.38s96.52 527.63 270.24 704.58l-19.3-80.43s176.94 289.54 405.37 331.37c228.42 41.83 421.45-86.87 511.54-93.3v1122.8s-624.13-128.69-971.6-398.94-1093.8-1296.5-1338.4-2039.7l67.57 22.52s180.15 440.76 382.85 633.8l-54.69-102.96s186.59 128.69 225.2 173.73 125.48 176.94 125.48 176.94 109.39-276.69 125.48-427.89c16.08-151.2 3.21-228.42 3.21-228.42l-51.48 160.86s0-260.59 9.66-357.11c9.65-96.52 19.3-180.17 19.3-180.17l-48.28 90.09z"/>
  <path class="fil11" d="m11325 5413.9c-1.33 1.65-466.6 558.16-327.76 2382.1v5.28c0.09 5.06 32.09 1761.6 83.31 2280.1 30.3 306.86 109.35 827.96 288.59 1314 118.23 320.55 279.66 624.64 498.62 837.44l-125.27 128.79c-240.85-234.08-415.84-561.54-542.25-904.3-185.44-502.82-267.15-1041.3-298.46-1358.3-50.18-508.08-81.95-2184.2-83.91-2289.6l-0.1 0.01c-144.26-1895.1 365.72-2506.3 367.18-2508.1z"/>
  <path class="fil11" d="m17344 7881.7c1.01-2.38 304.77-799.89 715.78-723.92 33.98 6.28 66.02 19.24 95.93 38.27 113.43 72.18 192.91 236.99 227.82 454.23 32.38 201.44 28.69 453.66-20.44 719.52-53.03 286.91-159.21 591.36-330.44 867.04-8.29 156.51-119.62 989.96-684.71 862.82l39.41-175.23c407.42 91.67 466.83-715.19 466.88-717.51l0.68-24.71 13.4-21.04c165.42-259.95 267.55-550.11 318.13-823.74 45.37-245.49 49.1-476.32 19.74-659.01-26.82-166.89-78.26-287.38-146.89-331.06-10.25-6.53-20.92-10.91-31.89-12.94-267.82-49.5-666.79 784.55-667.64 786.55l-15.77-239.27z"/>
  <path class="fil1" d="m16629 5922.6-108.96 115.43 57.92 862.21 247.73 498.67-147.99-183.38 221.99 633.79-109.4-151.2 115.83 418.25-32.18-48.26 48.26 189.81s112.61 1568.4-35.39 2276.2l-9.66-234.86s-308.85 1074.6-701.34 1364.1l70.78-176.95s-443.97 405.37-717.44 456.84l74-73.99-199.47 51.48-99.73-183.4 93.3 80.43s-86.87-209.1-86.87-270.24c0-61.13-12.87-299.2-12.87-299.2l45.05 154.42s64.34-527.62-328.17-723.87l61.14 106.17s-220.4-210.73-498.69-268.63l91.7 56.3s-156.05-80.44-418.26-131.92c-262.2-51.48-456.84-16.09-529.23 43.43s-342.5 271.48-422.87 263.01l-48.46 121.45 93.5 129.5s96.33-12.05 126.89-26.54c30.57-14.48 230.04-91.69 281.51-94.91s791.44 65.94 791.44 65.94l-102.95-65.95s363.53 109.36 432.69 193c69.18 83.66 167.3 379.65 167.3 379.65l-83.66-131.92s46.65 638.62-104.56 979.64l-16.09-128.69s-366.78 595.19-595.2 727.09l80.44-170.51s-154.42 176.95-402.16 90.09c-247.72-86.87-260.17-159.18-392.29-160.02l-122.47 456.01 122.47 666.8s1203 66.73 1737.1-287.16c534.07-353.9 1943.2-1692.3 2078.3-3004.9 0 0 83.66-370 25.74-810.76-57.91-440.76-147.99-1251.5-96.52-1508.9 51.48-257.38 157.54-318.9 157.54-318.9s160.72-470.21 508.31-595.24c0 0-891.77-852.74-1308.1-1329.4z"/>
  <path class="fil1" d="m17361 8384.9s193.03-678.83 472.93-711c279.89-32.18 228.42 1155-260.59 1692.3 0 0 360.33-698.15 324.94-1081-35.4-382.86-225.02-520.98-537.28 99.72z"/>
  <path class="fil1" d="m17487 8475s109.39 96.53 86.87 212.34c-22.53 115.82-138.36 186.6-54.7 228.42 83.65 41.82 109.39 54.69 109.39 54.69l-279.9 122.26s115.83-258.98 112.61-360.33-72.39-123.87 25.74-257.38z"/>
  <path class="fil1" d="m11033 5865.2s-247.85 488.06-257.5 526.68c-9.64 38.61-51.47 521.19-51.47 521.19l48.25 128.69-64.34-57.91 183.63 565.92s-51.73-932.68 141.42-1684.6z"/>
  <path class="fil11" d="m10793 6526.4c-2.89-1.18-1008.6-400.69-787.72-1484.4 2.62-12.82 4.85-23.24 6.65-31.04 118.71-513.14 551.51-874 1170-1060.5 600.7-181.09 1380.8-197.45 2215.6-27.31 57.07 11.63 111.99 23.54 164.61 35.72 360.92 83.49 1830.4 650.23 2976.8 1738-3.82-3.35-1315.3-1169.2-3017-1562.8-56.14-12.98-109.61-24.65-160.4-35-805.14-164.09-1554.4-149.25-2128.3 23.78-556.14 167.65-943.4 483.88-1046.2 928.16-2.63 11.36-4.6 20.26-5.94 26.82-190.91 936.71 676.86 1281.4 679.34 1282.4l-67.56 166.08z"/>
  <path class="fil11" d="m10801 6332.5c0.21-0.89 59.34-254.55 86.16-339.57 138.16-438.02 681.94-1770.7 2172.4-1714.4 734.96 27.74 1572.6 373.09 2359.7 836.45 1074.6 632.54 2059.5 1487.4 2555.4 2049.4l-134.42 118.94c-486.56-551.47-1454.4-1391.1-2511.7-2013.5-764.58-450.06-1573.7-785.34-2275.3-811.81-1375.3-51.9-1873.5 1199-1996.5 1594.8-22.8 73.43-121.81 286.72-122 287.52l-133.72-7.77z"/>
  <path class="fil11" d="m13750 4294.6c1652.6 469.51 2866.6 1634.5 2870.1 1637.9l-123.87 130.2c-3.44-3.27-1185.6-1137.8-2794.8-1595-1600.3-454.65-2800 77.91-2803.5 79.42 845.31-621.31 2566.6-333.65 2852.1-252.55z"/>
  <path class="fil11" d="m10629 4207.1c3.12-2.41 1080.6-834.44 1932.4-1349.6 165.55-100.13 330.22-179.38 476.25-240.07 228.32-94.87 413.68-144.86 485.35-158.38 357.8-67.49 637.12-13.02 637.93-12.87l-33.08 176.64c-0.71-0.13-247.52-48.3-571.77 12.87-64.49 12.16-234.1 58.34-449.45 147.82-138.43 57.53-294.74 132.79-452.34 228.11-845.24 511.22-1912.4 1335.3-1915.5 1337.7z"/>
  <path class="fil11" d="m13771 2608.5c2.09-0.69 554.45-265.85 809.83-286 148.57-11.73 435.06 80.91 739.03 179.19 250.23 80.91 512.9 165.84 703.39 194.71 414.04 62.73 831.85 650.95 1253.2 1244.1 56.16 79.07 112.41 158.24 157.52 220.91 200.33 278.26 351.01 583.27 461.38 872.7 151.8 398.07 228.43 769.4 253.29 1000.8 43.46 404.62-153.33 1207.7-153.89 1210l-174.53-42.23c0.54-2.22 189.83-774.87 149.66-1148.8-23.58-219.52-96.89-573.38-242.72-955.81-105.84-277.51-249.36-568.67-438.87-831.88-60.15-83.55-109.22-152.61-158.22-221.61-399.05-561.79-794.78-1118.9-1133.6-1170.2-202.52-30.68-473.44-118.29-731.54-201.74-286.2-92.54-555.91-179.75-670.06-170.75-233.62 18.44-942.03 252.49-944.06 253.16z"/>
  <path class="fil1" d="m11932 8298.2s6.45 216.35 151.22 273.46c0 0 141.55 15.29 266.23-49.86 0 0 102.95-72.39 73.19-206.71-29.76-134.33-490.64-16.89-490.64-16.89z"/>
  <path class="fil0" d="m13159 11293s39.41 24.93 56.3 34.58 263 43.44 288.74 41.03c25.74-2.42 293.59-61.95 300.02-74.01s8.04-43.43 8.04-43.43-209.12 41.82-265.43 49.87c-56.3 8.05-123.05 12.07-156.83 4.83-33.79-7.24-230.83-12.87-230.83-12.87z"/>
  <path class="fil11" d="m17671 10015c-0.03 0.9-11.93 314.45 98.33 626.88l-169.61 59.83c-121.36-343.89-108.21-690.65-108.18-691.65z"/>
  <path class="fil11" d="m13299 13534c80.88 259.8 209.38 851.02-71.23 1168.8 92.43-505.3-99.94-1113.5-100.49-1115.3l171.71-53.5z"/>
  <path class="fil11" d="m17621 10048c0.74 0.35 261.96 119.32 327.12 200.76 55.62 69.54 834.49 1337.4 836.72 1341.1l23.75 38.72c-670.23 1624.3-1340.6 3248.6-2011.1 4872.8-73.4 23.67-147.41 45.97-221.95 67.05l2032.1-4923.6c-130.43-212.22-757.16-1231.1-799.59-1284.1-37.78-47.22-261.02-149.11-261.66-149.4l74.6-163.26zm-1326.3 6592.8-1470.9-1470.9-1485.8 767.66-82.35-159.75 1602.7-828.08 1640.2 1640.2c-67.49 18.12-135.48 35-203.83 50.95z"/>
  <path class="fil11" d="m17705 10437c0.22 0.32 81.63 110.14 42.12 315.63-19.44 101.12-517.02 1209.2-1365.3 2345.4-458.79 614.5-1021.8 1241.4-1670.5 1729.4-66.82 50.29-228.11 186.1-417.93 345.97-356.35 300.09-811.65 683.53-953.55 762.67-162.34 90.57-166.63 374.68-166.64 375.49l-179.46-3.51c0.02-1.11 5.42-387.54 258.84-528.91 127.79-71.29 575.22-448.08 925.39-742.97 192.85-162.41 356.72-300.41 425.68-352.3 631.88-475.43 1183.2-1089.9 1633.9-1693.5 831.42-1113.6 1314.6-2176.4 1332.9-2271.5 24.82-129.09-11.06-176.85-11.16-176.99l145.68-104.86z"/>
  <path class="fil11" d="m14892 15133-103.46-147.08c901.54-634.89 1983.7-2118 1986.8-2122.3-666.61 1318.7-1565.3 2045.4-1883.4 2269.4z"/>
  <path class="fil11" d="m18690 11678c5.99 2.41 1027.3 414.18 2136 908.06-19.93 56.23-40.79 112.02-62.25 167.49-1106.2-491.68-2134.6-906.34-2140.6-908.76z"/>
  <path class="fil11" d="m12600 12794c-3.28 3.97-1026.8 1232.5-1390.3 2863.7-53.25-37.41-105.97-75.5-157.99-114.49 388.18-1637.1 1406.3-2859.2 1409.6-2863.2l138.64 114.01zm-1253.6 2957.1 478.54-493.49c356.05 131.19 712.07 262.42 1068.2 393.53 87.61 193.76 175.08 387.61 262.94 581.25l87.87 368.83c-66.26-17.31-132.09-35.7-197.48-55.07l-60.08-252.48-226.06-499.74-887.93-327.13-372.1 383.74c-51.85-32.33-103.02-65.65-153.85-99.43z"/>
  <path class="fil11" d="m13319 13722c-1.4 2.15-490.7 737.77-402.72 1994.8l-179.46 11.96c-92.17-1316.8 430.08-2102.2 431.58-2104.5l150.59 97.82z"/>
  <path class="fil11" d="m12017 12650c-6 2.93-1609.3 785.78-2462.2 1303.3-32.01-48.52-63.25-97.57-93.95-147 883.21-539.2 2471.4-1314.5 2477.4-1317.4z"/>
  <path class="fil1" d="m11578 4941.2s400.54-480.18 1015.8-574.28c615.3-94.1 1990.7 301.63 1990.7 301.63l-458.45 142.35 103.76-125.47s-173.72 123.05-523.6 137.54c-349.88 14.48-484.99 50.67-484.99 50.67s325.74-123.06 400.54-219.57c74.81-96.52 74.81-96.52 74.81-96.52s-436.74-21.71-772.14 152.01c-335.39 173.72-518.77 212.33-518.77 212.33l164.07-178.55s-188.19 33.79-381.24 111c-193.03 77.21-376.42 178.55-376.42 178.55l154.42-164.08s-149.6 21.72-291.96 127.9c-142.36 106.17-330.57 231.63-330.57 231.63z"/>
  <path class="fil12" d="m14640 8231.1s71.8-11.64 77.27-9.58 30.1 66.35 108.06 75.92c77.96 9.56 99.17-79.33 99.17-79.33l48.54 12.31s-43.07 101.91-138.13 106c-95.06 4.1-128.57-48.56-128.57-48.56l-50.62 2.74z"/>
  <ellipse class="fil0" cx="14688" cy="8207.2" rx="76.93" ry="40.35"/>
  <path class="fil12" d="m12028 8391.3s71.8-11.64 77.27-9.58 30.1 66.36 108.06 75.92c77.96 9.57 99.17-79.33 99.17-79.33l48.55 12.31s-43.08 101.91-138.14 106c-95.06 4.1-128.57-48.56-128.57-48.56l-50.62 2.75z"/>
  <ellipse class="fil0" cx="12076" cy="8367.4" rx="76.93" ry="40.35"/>
  <path class="fil13" d="m12746 11308c6.18-3.44 14.01-1.21 17.44 4.98 3.44 6.19 1.21 14.01-4.98 17.44-0.4 0.22-139.94 75.59-71.38 261.86 2.44 6.66-0.98 14.05-7.64 16.48-6.67 2.44-14.06-0.98-16.49-7.64-76.21-207.03 82.6-292.87 83.05-293.12z"/>
  <path class="fil14" d="m12951 8940.4s53.09 28.96 38.61 125.47c-14.47 96.52-24.13 571.87-45.84 533.26-21.72-38.61 7.23-658.73 7.23-658.73zm-1451.4-3223.6s4.83-176.13 82.05-144.77c77.21 31.37 65.15 212.34 19.3 229.23s-101.35-84.46-101.35-84.46zm265.42 4556.8s-49.47-201.47 74.8-243.7 129.1 127.9 71.19 189.41c-57.92 61.53-145.98 54.29-145.98 54.29zm-113.4-2577s123.06-72.39 200.27-67.56c77.21 4.82 386.07 89.28 359.53 123.06-26.55 33.78-304.03-33.78-559.8-55.5zm1208.9 2467.2s57.91-12.06 77.21 25.34c19.31 37.4 0 88.07-41.02 80.83-41.01-7.23-66.35-63.94-36.19-106.17z"/>
 </g>
</svg>
