<?xml version="1.0" encoding="UTF-8" standalone="no"?>
<!-- Creator: CorelDRAW -->

<svg
   xml:space="preserve"
   width="412.62238"
   height="440.70267"
   version="1.1"
   style="clip-rule:evenodd;fill-rule:evenodd;image-rendering:optimizeQuality;shape-rendering:geometricPrecision;text-rendering:geometricPrecision"
   viewBox="0 0 10916.911 11659.842"
   id="svg39"
   sodipodi:docname="leonardo-olivo.svg"
   inkscape:version="1.4.2 (ebf0e940d0, 2025-05-08)"
   inkscape:export-filename="leonardo.png"
   inkscape:export-xdpi="96"
   inkscape:export-ydpi="96"
   xmlns:inkscape="http://www.inkscape.org/namespaces/inkscape"
   xmlns:sodipodi="http://sodipodi.sourceforge.net/DTD/sodipodi-0.dtd"
   xmlns="http://www.w3.org/2000/svg"
   xmlns:svg="http://www.w3.org/2000/svg"><sodipodi:namedview
   id="namedview39"
   pagecolor="#ffffff"
   bordercolor="#000000"
   borderopacity="0.25"
   inkscape:showpageshadow="2"
   inkscape:pageopacity="0.0"
   inkscape:pagecheckerboard="0"
   inkscape:deskcolor="#d1d1d1"
   inkscape:document-units="mm"
   inkscape:zoom="1.4615079"
   inkscape:cx="197.05675"
   inkscape:cy="247.68939"
   inkscape:window-width="1920"
   inkscape:window-height="1131"
   inkscape:window-x="0"
   inkscape:window-y="0"
   inkscape:window-maximized="1"
   inkscape:current-layer="Layer_x0020_1" />
 <defs
   id="defs1">
  <style
   type="text/css"
   id="style1">
   <![CDATA[
    .fil1 {fill:#4D4D4D}
    .fil4 {fill:#636161}
    .fil10 {fill:#736161}
    .fil12 {fill:#91726E}
    .fil11 {fill:#947C7C}
    .fil8 {fill:#C67D6A}
    .fil6 {fill:#E6E6E6}
    .fil5 {fill:#E9A188}
    .fil2 {fill:#F5F258}
    .fil7 {fill:#F8D9C4}
    .fil3 {fill:#FACCAA}
    .fil0 {fill:white}
    .fil9 {fill:#4D4D4D;fill-rule:nonzero}
   ]]>
  </style>
 </defs>
 <g
   id="Layer_x0020_1"
   inkscape:label="Layer 1"
   inkscape:groupmode="layer"
   transform="translate(-9617.1959,-3972.5434)">
  <metadata
   id="CorelCorpID_0Corel-Layer" />
  
  <g
   id="_2208369111520"
   transform="matrix(0.83374523,0,0,0.83374523,2694.9765,1446.8183)">
   <circle
   class="fil1"
   cx="14849.47"
   cy="10467.36"
   r="6546.9102"
   id="circle1" />
   <circle
   class="fil2"
   cx="14849.46"
   cy="10467.36"
   r="6339.3101"
   id="circle2"
   style="fill:#ede9df;fill-opacity:1" />
   <path
   class="fil3"
   d="m 20233.62,13814.05 c -180.7,-87.35 -362.13,-173.14 -543.7,-258 -390.18,-182.32 -782.57,-360.11 -1176.32,-534.56 -201.89,-89.45 -404.2,-178.26 -607.1,-265.37 -3.8,-1.63 -6.75,-3.68 -9.59,-6.65 -105.77,-110.45 -214.84,-219.34 -326.49,-323.79 -52.7,-49.3 -278.74,-258.83 -345.47,-264.93 -82.79,-7.57 -170.59,-24.72 -252.5,-40.12 -13.54,-2.55 -23.24,-13.75 -23.82,-27.51 -3.68,-86.78 -4.73,-173.67 -3.48,-260.5 3.96,-276.34 30.68,-554.94 75.34,-827.68 1.06,-6.53 3.85,-11.84 8.64,-16.42 78.27,-74.83 155.27,-153.02 225.39,-235.6 48.12,-56.64 101.43,-124.25 134.2,-191.21 33.36,-68.17 59.19,-143.55 81.7,-215.94 28.22,-90.8 52.29,-183.22 74.34,-275.7 43.66,-182.98 79.91,-368.45 112.3,-553.74 2.01,-11.48 10,-20.21 21.26,-23.22 203.05,-54.33 255.33,-377.37 258.24,-552.58 0.02,-1.87 0.2,-3.47 0.57,-5.31 30.29,-149.77 58.39,-300.36 84.25,-450.93 18.55,-108.01 36.01,-216.45 50.33,-325.1 10.75,-81.59 22.18,-170.69 22.18,-252.98 0,-110.99 -28.69,-218.23 -91.5,-310.27 -17.33,-25.38 -42.24,-56.14 -67.9,-79.63 l -55.51,78.01 c -7.46,10.49 -20.29,14.81 -32.58,10.96 -12.29,-3.85 -20.37,-14.71 -20.51,-27.58 l -2.33,-206.09 -10.5,-150.52 c -0.12,-1.69 -0.11,-3.13 0.05,-4.8 10.07,-105.95 20,-211.89 28.17,-318 0.38,-5.06 1.82,-9.31 4.55,-13.57 233.51,-363.19 631.87,-1065.08 628.36,-1499.72 -0.12,-15.56 11.91,-28.47 27.45,-29.43 15.53,-0.96 29.07,10.37 30.87,25.83 6.11,52.57 9.58,106.81 11.64,159.63 1.59,40.54 2.38,83.62 1.25,126.88 31.51,-77.28 55.66,-158.52 69.49,-240.56 46.44,-275.26 -30.43,-516.09 -248.33,-697.25 -10.4,-8.65 -13.52,-22.79 -7.74,-35.02 5.79,-12.22 18.69,-18.77 31.98,-16.2 l 178.79,34.42 -63,-28.76 c -12.06,-5.5 -18.76,-17.86 -16.79,-30.96 1.97,-13.11 12.01,-22.94 25.15,-24.66 38.99,-5.12 78.05,-10.95 116.9,-17.09 29.6,-4.67 60.61,-9.48 91.42,-15.13 -47.03,-22.52 -92.95,-48.39 -137.24,-75.45 -216.09,-132.02 -418.81,-308.19 -598.09,-485.81 -187.29,-185.55 -410.58,-345.13 -658.5,-438.56 -67.27,-25.34 -137.54,-46.34 -208.27,-59.48 -24.48,-4.56 -52.6,-9.3 -77.6,-10.32 -15.8,-0.63 -28.24,-13.75 -28.06,-29.56 0.17,-15.27 12.08,-27.75 27.12,-28.85 -153.34,-14.39 -308.12,-15.14 -450.38,-9.37 -211.17,8.58 -410.32,-22.47 -611.1,-86.77 -166.78,-53.41 -322.23,-126.47 -483.28,-193.65 -137.67,-57.43 -281.79,-110.38 -432.07,-119 -169.99,-9.75 -321.26,39.29 -466.53,125.32 -6.93,4.1 -14.34,5.17 -22.14,3.17 -50.7,-12.92 -104.15,-22.88 -155.63,-31.72 -123.54,-21.17 -249.32,-34.86 -374.58,-39.52 -293.3,-10.9 -642.41,27.04 -878.85,217.4 -320.65,258.15 -607.46,570.41 -819.99,923.76 -266.23,442.65 -401.04,924.75 -389.24,1435.9 5.71,-5.17 13.39,-7.97 21.63,-7.4 13.57,0.94 24.41,10.66 26.79,24.05 32.65,182.76 67.62,365.51 103.95,547.56 28.34,142.04 57.68,284.11 90.1,425.27 13.54,58.92 27.61,117.82 43.18,176.21 10.86,40.77 22.44,82.95 37.1,122.51 1.4,3.74 1.95,7.16 1.82,11.13 -4.87,149.67 -8.38,299.66 -10.5,449.38 -0.11,7.62 -2.76,14.15 -8,19.68 -94.46,99.92 -139.34,233.14 -139.34,369.59 0,82.29 11.42,171.38 22.18,252.97 14.32,108.65 31.78,217.1 50.33,325.11 25.86,150.57 53.96,301.17 84.25,450.92 0.38,1.85 0.54,3.45 0.57,5.32 2.9,175.33 55.24,498.73 258.72,552.7 11.22,2.98 19.2,11.64 21.28,23.06 38.65,213.39 82.27,427.04 134.63,637.49 27.72,111.36 58.03,222.74 93.91,331.75 28.14,85.43 61.23,176.68 104.36,255.75 6,11 12.36,21.81 18.95,32.46 1.74,2.81 2.85,5.46 3.6,8.69 36.15,153.37 62.61,313.46 83.5,469.44 40.23,300.6 58.89,608 46.24,911.13 -0.58,13.74 -10.24,24.94 -23.75,27.51 -45.91,8.78 -91.91,17.2 -137.99,24.96 -44.91,7.55 -91.1,15.18 -136.42,19.32 -66.74,6.1 -292.78,215.63 -345.47,264.93 -111.65,104.45 -220.72,213.34 -326.49,323.79 -2.85,2.97 -5.8,5.02 -9.59,6.65 -202.91,87.11 -405.22,175.92 -607.1,265.37 -393.76,174.45 -786.14,352.24 -1176.33,534.56 -252.23,117.87 -504.15,237.57 -754.28,360.7 1130.17,1739.37 3089.94,2889.93 5318.82,2889.93 2272.47,0 4265.19,-1195.98 5384.16,-2992.62 z"
   id="path2" />
   <path
   class="fil4"
   d="m 13047.86,14279.41 c -228.22,-177.21 -426.17,-391.78 -584.06,-646 -98.75,-158.98 -179.55,-330.24 -238.32,-507.96 -32.57,-98.44 -60.27,-203.13 -75.76,-305.85 -1.27,-8.48 1.22,-16.32 7.15,-22.52 133.41,-139.11 270.83,-279.72 413.02,-409.64 9,-8.22 21.9,-9.39 32.23,-2.93 10.32,6.46 14.93,18.56 11.48,30.25 -6.56,22.28 -8.7,47.18 -8.96,70.31 -0.98,91.06 22.42,198.63 46.53,285.94 39.13,141.72 95.77,280.79 163.79,411.01 182.66,349.76 451.23,645.78 785.54,856.32 417.25,262.78 897.32,370.14 1386.49,375.46 h 0.85 c 489.18,-5.32 969.24,-112.67 1386.49,-375.46 334.32,-210.54 602.88,-506.57 785.55,-856.32 68.02,-130.22 124.66,-269.28 163.78,-411 24.12,-87.32 47.51,-194.89 46.53,-285.95 -0.25,-23.13 -2.4,-48.03 -8.95,-70.31 -3.45,-11.69 1.15,-23.79 11.48,-30.25 10.33,-6.46 23.23,-5.29 32.22,2.93 141.67,129.44 278.57,269.47 411.49,408.06 6.23,6.5 8.7,14.88 6.94,23.71 -23.41,118.32 -59.34,237.95 -100.57,351.1 -72.16,197.99 -167.06,389.07 -283.44,564.81 -195.69,295.48 -440.19,530.43 -727.3,701.87 599.27,-304.59 1053.56,-871.68 1192.54,-1548.65 1.68,-8.17 6.47,-14.5 13.85,-18.35 7.39,-3.84 15.32,-4.15 22.97,-0.83 625.2,270.1 1247.91,549.89 1863.96,840.11 126.9,59.78 253.7,120.06 380.21,181.08 -1127.43,1754.18 -3095.94,2916.32 -5336.13,2916.32 -2196.57,0 -4131.93,-1117.32 -5269.32,-2814.53 193.51,-95.03 388.04,-188 582.77,-279.77 616.86,-290.73 1240.4,-570.91 1866.41,-841.44 7.81,-3.38 15.96,-3.01 23.43,1.07 7.47,4.07 12.19,10.71 13.58,19.11 67.35,405.72 280.3,764.95 568.92,1053.46 125.34,125.29 264.25,236.92 412.62,334.84 z"
   id="path3" />
   <path
   class="fil5"
   d="m 14325.59,4685.47 2053.15,932.13 288.57,81.4 652.54,-285.97 c 847.2,162.64 505.02,1557 481.6,2340.47 -23.42,783.46 -408.23,2685.14 -408.23,2685.14 0,0 129.78,-1880.43 129.78,-1998.2 0,-117.76 137.4,-346.74 157.01,-451.41 19.63,-104.68 -65.42,-405.63 -85.05,-497.21 -19.63,-91.59 129.05,-991.32 129.05,-991.32 0,0 -220.98,-299.49 -497.21,-473.95 -269.62,-170.28 -859.52,-10.45 -887.6,-2.7 -165.42,47.58 -354.05,106.04 -563.89,177.57 -863.46,294.36 -2052.89,-508.04 -2096.5,-499.32 -43.61,8.73 -161.35,67.6 -170.07,91.58 -8.72,23.99 -8.72,630.16 -8.72,630.16 0,0 -109.04,30.53 -130.84,50.15 -21.8,19.62 -228.94,252.93 -228.94,252.93 l 1168.72,26.17 -41.8,-141.1 c 0,0 464.88,358.2 513.95,443.23 49.06,85.04 114.48,421.91 114.48,421.91 0,0 -98.13,150.45 -94.86,206.05 3.27,55.61 -4.78,713.16 -4.78,713.16 0,0 -91.58,115.57 -95.94,152.63 -4.37,37.07 6.54,457.9 13.08,484.07 6.54,26.16 196.23,183.16 244.21,194.06 47.98,10.9 252.94,17.44 316.18,-13.09 63.23,-30.53 194.06,-154.81 248.57,-154.81 54.51,0 143.91,85.05 194.06,65.42 50.15,-19.63 115.58,-161.35 117.75,-194.06 2.18,-32.71 -93.76,-163.54 -87.22,-215.87 6.55,-52.33 30.53,-170.08 30.53,-170.08 0,0 340.16,529.87 340.16,545.13 0,15.26 -222.41,-17.45 -222.41,-17.45 0,0 -94.35,214.44 -267.29,273.32 -172.94,58.87 -253.9,106.7 -257.57,150.85 -3.68,44.16 -11.04,320.14 -11.04,320.14 0,0 -176.62,172.93 -504.11,36.79 l -496.75,110.4 -58.88,121.43 c 0,0 779.68,215.67 930.72,198.65 151.02,-17.01 723.83,-54.95 815.02,-93.71 91.2,-38.75 270.41,-111.21 309.65,-185.34 39.25,-74.15 235.51,287.84 63.24,364.16 -172.26,76.33 -549.3,-192.39 -549.3,-192.39 l -1484.15,164.57 c 0,0 164.62,307.46 413.23,402.32 248.59,94.87 932.22,22.9 1066.33,-35.98 0,0 -166.82,284.58 -343.45,330.37 -176.63,45.79 -897.49,-47.43 -1005.42,139.02 -107.95,186.44 -1.67,626.09 127.57,677.1 129.23,51 784.95,93.44 985.47,30.51 200.53,-62.92 830.26,-469.81 830.26,-469.81 0,0 -1098.17,1581.28 -1716.38,1879.35 -618.22,298.07 -1672.49,-918.16 -1672.49,-918.16 0,0 119.74,-1019.08 -111.57,-1689.22 0,0 -122.89,-224.97 -195.76,-528.88 -72.89,-303.91 -329.83,-1348.56 -349.97,-1943.2 -20.14,-594.63 -97.92,-2176.37 -97.92,-2176.37 0,0 235.52,-1547.23 785.06,-1625.74 549.55,-78.5 1226.17,273.04 1226.17,273.04 z m 1042.84,2748.34 c 0,0 29.08,-215.19 61.07,-276.25 31.99,-61.07 273.99,-362.94 273.99,-362.94 l 1307.93,-23.82 437.22,165.27 89.12,334.89 c 0,0 -273.35,-81.42 -372.22,-145.39 -98.88,-63.98 -418.75,-168.66 -482.72,-165.75 -63.98,2.91 -127.95,168.65 -148.3,174.47 -20.35,5.82 -151.21,37.81 -151.21,37.81 l -49.64,87.43 c 0,0 434.97,-22.82 553.93,17.71 118.96,40.52 487.32,281.62 487.32,281.62 l -221.01,139.59 c 0,0 -312.61,-221.38 -415.84,-299.52 -103.22,-78.15 -513.78,-22.88 -535.89,-14.64 -22.11,8.24 -313.23,218.19 -313.23,218.19 0,0 -125.04,-26.17 -162.84,-78.51 -37.8,-52.35 -84.33,-52.35 -84.33,-52.35 l -49.44,37.8 v 241.36 l -191.92,139.59 -31.99,-456.55 z m 575.77,353.82 c 0,0 242.33,-3.87 271.41,9.7 29.08,13.57 100.82,87.25 226.82,106.63 126.02,19.38 337.33,-21.33 337.33,-21.33 0,0 -172.54,112.45 -422.63,153.15 -250.08,40.72 -412.93,-248.15 -412.93,-248.15 z m -1496.15,-326.68 c 0,0 89.18,46.54 124.08,110.51 34.9,63.98 -3.88,158.97 -36.84,160.9 -32.96,1.94 -75.61,-21.32 -75.61,-21.32 0,0 57.28,-114.33 -11.63,-250.09 z m -7.29,456.57 c 0,0 26.16,567.01 -8.73,671.69 -34.89,104.68 -619.34,614.98 -780.72,662.96 -161.38,47.98 -763.27,-462.32 -785.08,-632.43 -21.82,-170.1 174.45,-562.65 239.88,-567.01 65.43,-4.36 436.15,222.45 1334.65,-135.21 z m -1273.68,-644.16 c 0,0 99.53,-175.76 235.22,-186.1 135.7,-10.33 453.63,12.93 513.08,63.33 59.45,50.41 87.88,115.03 87.88,115.03 0,0 -334.73,-77.54 -836.18,7.75 z m 138.38,282.47 c 0,0 124.06,-244.25 488.5,-231.33 364.45,12.92 535.04,239.08 535.04,239.08 l 6.46,34.9 c 0,0 -641.01,196.43 -1030,-42.65 z m -149.42,271.07 c 0,0 89.18,-75.61 145.38,-77.55 56.22,-1.94 517.86,28.08 752.13,-31.02 l 52.35,52.35 126,-21.33 c 0,0 -310.16,277.2 -589.3,288.84 -279.15,11.63 -486.56,-211.29 -486.56,-211.29 z m 1401.75,860.8 c 0,0 23.26,250.07 8.72,299.5 -14.54,49.43 -87.23,110.49 -87.23,110.49 0,0 -81.42,-203.53 78.51,-409.99 z"
   id="path4" />
   <path
   class="fil6"
   d="m 15896.61,7628.56 c 0,0 90.43,-211.14 310.01,-253.68 219.58,-42.55 599.26,-1.16 664.8,38.51 65.53,39.66 84.5,118.99 84.5,118.99 0,0 -282.6,226.37 -979.41,83.87 l -79.9,12.32 z m -1573.64,6.07 c 0,0 -90.44,-211.14 -310.02,-253.68 -219.58,-42.55 -599.26,-1.16 -664.79,38.51 -65.53,39.66 -84.5,118.99 -84.5,118.99 0,0 282.6,226.37 979.41,83.87 l 79.9,12.32 z"
   id="path5" />
   <path
   class="fil7"
   d="m 12242.9,6630.68 75.31,-513.79 488.02,-938.71 c 0,0 114.58,375.85 105.67,423.51 -8.91,47.67 -238.22,763.88 -238.22,808.07 0,44.18 82.85,320.32 82.85,320.32 0,0 -104.94,237.47 -110.46,287.18 -5.52,49.71 92.85,2426.8 92.85,2426.8 0,0 128.87,301.92 136.24,335.06 7.36,33.14 250.37,1089.84 419.74,1251.85 169.36,161.99 169.36,161.99 169.36,161.99 0,0 -141.72,49.23 -158.3,341.95 -16.57,292.71 -236.37,840.93 -236.37,840.93 l -56.06,-1495.59 c 0,0 -186.96,-450.76 -259.35,-756.11 -72.38,-305.36 -178.45,-955.72 -176,-933.63 2.45,22.09 -192.29,-1218.27 -203.11,-1430.44 -10.82,-212.18 -132.15,-1129.4 -132.15,-1129.4 z"
   id="path6" />
   <path
   class="fil8"
   d="m 14133.69,6935.54 180.51,-261.13 c 0,0 354.58,325.1 377.84,386.17 23.27,61.08 46.53,636.87 40.71,674.68 -5.81,37.81 -98.88,110.51 -104.69,130.87 -5.81,20.35 -14.54,116.32 -14.54,116.32 l -72.71,-110.51 -8.72,-101.78 c 0,0 55.26,-87.25 29.08,-165.76 -26.17,-78.52 -183.2,-200.65 -183.2,-200.65 L 14329,7563.6 c 0,0 -74.33,-161.89 -308.79,-199.98 -234.47,-38.09 -507.1,-22.88 -571.4,46.44 -64.29,69.31 -143.35,145.79 -143.35,145.79 l 131.46,82.45 c 0,0 -142.54,56.28 -200.7,59.19 -58.16,2.91 -189.03,0 -189.03,0 l -72.7,-55.26 c 0,0 172.02,-239.42 394.34,-274.81 222.31,-35.39 826.12,5.32 826.12,5.32 l 63.98,-58.16 -89.18,-23.27 c 0,0 162.85,-83.37 -36.05,-355.76 z m 61.08,-2023.01 550.94,710.03 c 0,0 -434.54,116.41 -904.02,-263.84 -469.47,-380.24 -911.79,77.6 -853.59,259.96 58.21,182.35 190.11,376.35 50.44,527.66 -139.68,151.32 -481.1,481.12 -481.1,481.12 0,0 42.68,-1295.9 256.07,-1645.1 213.39,-349.19 836.63,-536.56 1381.26,-69.84 z m 474.45,5901.27 c 0,0 115.39,-24.55 311.78,-14.73 196.39,9.83 702.11,-17.18 702.11,-17.18 0,0 -154.66,162.03 -277.41,201.31 -122.76,39.27 -240.59,54 -400.17,17.18 -159.56,-36.83 -243.03,-17.18 -336.32,-186.58 z m 1357.43,-2968.72 394.3,155.42 c 0,0 -225.78,109.62 -394.3,-155.42 z m 99.6,-916.41 11.95,156.89 c 0,0 -213.18,73.79 -249.99,105.7 -36.81,31.9 9.81,122.71 9.81,122.71 l -49.08,93.26 68.42,29.2 c 0,0 176.58,-118.89 352.25,-136.63 175.67,-17.74 610.73,-30.96 670.03,-0.32 59.29,30.65 391.58,250.08 391.58,250.08 l -88.35,51.54 c 0,0 -85.9,-88.36 -110.44,-103.08 -24.54,-14.73 -132.52,-31.9 -132.52,-31.9 l 176.69,125.16 c 0,0 -54.8,29.59 -85.9,12.27 -31.09,-17.32 -208.59,-164.42 -284.67,-201.23 -76.08,-36.82 -394.88,-88.14 -510.41,-48.96 -115.55,39.17 -328.89,164.29 -350.98,181.47 -22.09,17.18 -188.96,-68.71 -225.77,-100.62 -36.82,-31.9 -181.6,-2.45 -181.6,-2.45 0,0 12.27,110.43 -7.36,127.61 -19.64,17.18 -107.99,71.17 -107.99,71.17 0,0 2.46,-262.58 2.46,-279.76 0,-17.18 240.5,-400.02 240.5,-400.02 l 461.36,-22.09 z m -1565.86,1570.08 c 0,0 2.6,125.15 0,157.04 -2.6,31.91 -108.58,131.86 -110.52,174.5 -1.94,42.65 23.27,288.89 34.9,300.52 11.64,11.64 168.68,-38.77 201.64,-25.2 32.96,13.57 269.5,188.06 335.43,203.57 65.92,15.52 186.13,-11.63 186.13,-11.63 0,0 232.66,-168.67 302.46,-182.25 69.8,-13.57 92.82,13.92 205.69,9.3 112.88,-4.62 112.47,-143.99 116.26,-204.61 3.78,-60.62 -19.77,-193.51 -5.91,-235.11 13.86,-41.61 12.1,-44.37 12.1,-44.37 0,0 248.69,333.26 197.8,341.99 -50.9,8.72 -104.7,-24.72 -125.06,20.36 -20.37,45.08 -146.61,239.83 -225.27,254.42 -78.66,14.59 -215.34,-15.94 -251.7,4.42 -36.35,20.35 -261.75,139.6 -324.28,154.13 -62.53,14.55 -161.41,-31.99 -187.58,-46.53 -26.18,-14.55 -191.48,-42.31 -315.82,14.4 -124.34,56.72 -256.3,-49.08 -274.84,-229.04 l -149.16,-24.51 377.73,-631.41 z m 370.66,996.74 c 0,0 77.55,28.44 90.47,54.3 12.93,25.85 9.06,221.02 46.54,255.92 37.49,34.9 139.6,43.95 139.6,43.95 0,0 -187.41,59.46 -288.24,-6.46 -100.82,-65.92 11.64,-347.71 11.64,-347.71 z m -1860.11,-2608.44 176.92,72.74 c 0,0 -242.84,115.33 -304.88,208.38 -62.05,93.07 -200.48,-14.48 -200.48,-14.48 0,0 22.11,-258.89 328.44,-266.64 z"
   id="path7" />
   <path
   class="fil1"
   d="m 15822.34,7547.83 c 0,0 148.32,-225.12 371.7,-270.49 223.38,-45.37 654.42,-15.7 748.65,10.48 94.24,26.17 221.63,164.03 221.63,164.03 0,0 -167.53,-99.48 -256.54,-116.93 -89,-17.45 -612.52,-22.68 -708.5,1.75 -95.99,24.43 -376.94,211.15 -376.94,211.15 z"
   id="path8" />
   <path
   class="fil7"
   d="m 16386.35,6692.91 c 0,0 -589.13,81 -702.04,19.64 -112.92,-61.37 238.11,-397.66 731.5,-380.48 493.39,17.19 576.85,324.02 510.57,343.66 -66.27,19.64 -540.03,17.18 -540.03,17.18 z m -1110.22,4616.55 c 0,0 230.76,-49.1 274.95,88.39 44.2,137.48 -105.56,257.77 -274.95,184.12 -169.39,-73.66 0,-272.51 0,-272.51 z m -98.98,-1212.58 c 0,0 -122.75,21.28 -193.11,16.36 -70.38,-4.91 -261.86,-106.38 -310.96,-103.11 -49.1,3.28 -373.8,75.07 -373.8,75.07 0,0 383.62,-168.35 453.99,-163.44 70.37,4.91 286.41,60.56 342.05,65.47 55.65,4.91 392.79,-224.21 456.61,-220.94 63.83,3.27 646.67,391.49 646.67,391.49 l -1021.45,-60.89 z m 766.03,-1504.57 c 0,0 75.28,-22.9 140.74,1.64 65.47,24.55 288.05,171.84 211.12,268.4 -76.92,96.56 -291.31,-60.55 -351.87,-270.04 z m -759.77,115.16 c 0,0 117.84,-19.63 162.02,88.38 44.19,108.01 -96.56,237.3 -199.66,181.65 -103.11,-55.64 -81.83,-237.29 37.64,-270.03 z m -69.47,-1160.91 c 0,0 92.06,-3.69 125.2,99.42 33.14,103.11 110.46,832.17 29.45,843.21 -81,11.05 -154.64,-942.63 -154.64,-942.63 z m -1482.08,-903.04 c 0,0 222.56,-247.11 522.04,-153.83 299.48,93.28 327.3,235.66 168.56,253.66 -158.74,18 -360.03,-142.38 -690.61,-99.83 z"
   id="path9" />
   <path
   class="fil1"
   d="m 14421.11,7558.8 c 0,0 -148.32,-225.11 -371.71,-270.49 -223.37,-45.37 -654.42,-15.7 -748.65,10.48 -94.23,26.17 -221.62,164.03 -221.62,164.03 0,0 167.52,-99.47 256.53,-116.93 89,-17.45 612.52,-22.68 708.5,1.75 95.99,24.43 376.95,211.15 376.95,211.15 z"
   id="path10" />
   <path
   class="fil1"
   d="m 15813.61,7626.37 c 0,0 198.93,-273.99 362.98,-312.38 164.04,-38.39 556.69,-19.19 607.3,-10.47 50.61,8.73 343.79,246.06 343.79,246.06 l -68.06,36.65 -80.28,-3.49 c 0,0 -59.34,31.41 -73.3,36.65 -13.96,5.23 -120.42,8.72 -120.42,8.72 0,0 94.24,-52.35 104.71,-90.74 10.48,-38.4 -226.86,-172.77 -406.61,-178 -179.74,-5.24 -376.94,73.29 -404.87,94.24 -27.92,20.94 -113.44,115.17 -115.18,129.14 -1.75,13.96 31.41,64.57 31.41,64.57 0,0 -38.39,-6.98 -76.78,13.96 -38.4,20.94 -113.44,29.67 -104.71,-34.9 z"
   id="path11" />
   <path
   class="fil1"
   d="m 14429.83,7637.34 c 0,0 -198.94,-273.98 -362.99,-312.38 -164.04,-38.39 -556.68,-19.19 -607.29,-10.46 -50.62,8.72 -343.8,246.05 -343.8,246.05 l 68.07,36.65 80.28,-3.49 c 0,0 59.33,31.41 73.29,36.65 13.97,5.24 120.42,8.72 120.42,8.72 0,0 -94.24,-52.35 -104.71,-90.74 -10.47,-38.4 226.86,-172.77 406.61,-178 179.74,-5.23 376.94,73.3 404.87,94.24 27.93,20.94 113.44,115.18 115.18,129.14 1.75,13.96 -31.41,64.57 -31.41,64.57 0,0 38.39,-6.98 76.79,13.96 38.39,20.94 113.43,29.67 104.71,-34.9 z"
   id="path12" />
   <path
   class="fil1"
   d="m 16180.07,7392.53 c 0,0 -16.29,168.69 114.02,238.49 0,0 178,46.55 281.55,-12.79 0,0 122.16,-50.04 105.87,-232.69 -16.29,-182.65 -501.43,6.99 -501.43,6.99 z"
   id="path13" />
   <path
   class="fil8"
   d="m 14024.2,10160.23 c 0,0 701.9,-201.24 753.43,-188.97 51.54,12.27 277.33,103.08 336.23,103.08 58.9,0 247.87,-88.35 333.77,-80.99 85.9,7.36 750.97,164.42 750.97,164.42 0,0 -353.41,525.19 -959.59,566.92 -606.18,41.72 -1124.01,-427.02 -1214.82,-564.46 z"
   id="path14" />
   <path
   class="fil5"
   d="m 15883.45,10474.97 c -135.16,100.81 -311.17,196.09 -522.88,234.48 -15.42,-12.71 -29.77,-28.67 -42.62,-48.5 -118.99,-183.65 312.97,-439.72 509.54,-331.09 66.17,36.57 74.27,90.13 55.96,145.1 z"
   id="path15" />
   <path
   class="fil1"
   d="m 14063.36,7403.5 c 0,0 16.3,168.69 -114.01,238.49 0,0 -178.01,46.55 -281.55,-12.79 0,0 -122.17,-50.03 -105.88,-232.69 16.29,-182.65 501.43,6.99 501.43,6.99 z"
   id="path16" />
   <path
   class="fil1"
   d="m 15596.52,7131.13 c 1.75,-10.47 6.98,-434.54 392.67,-537.51 0,0 -226.88,122.16 -249.56,275.74 0,0 115.18,-212.91 335.07,-275.74 l 843.57,-13.29 221.63,139.62 -193.71,-153.58 c 0,0 535.57,131.35 554.77,576.38 0,0 -111.7,-232.12 -581.16,-144.85 l 89.01,-57.6 c 0,0 -246.07,87.27 -432.81,108.22 -186.74,20.94 -896.2,70.55 -896.2,70.55 l 104.71,-108.22 -173.35,143.11 52.36,-93.08 -66.98,70.26 z"
   id="path17" />
   <path
   class="fil1"
   d="m 14646.91,7142.1 c -1.74,-10.47 -6.98,-434.54 -392.66,-537.51 0,0 226.87,122.16 249.56,275.74 0,0 -115.19,-212.91 -335.08,-275.74 l -843.57,-13.29 -221.63,139.62 193.71,-153.58 c 0,0 -535.57,131.35 -554.76,576.38 0,0 111.69,-232.12 581.16,-144.85 l -89.01,-57.6 c 0,0 246.07,87.28 432.81,108.22 186.73,20.94 896.19,70.55 896.19,70.55 l -104.71,-108.21 173.35,143.1 -52.35,-93.08 66.97,70.26 z"
   id="path18" />
   <path
   class="fil9"
   d="m 13953.9,10189.72 c -67.07,5.26 -38.76,-149.39 37.51,-96.7 73.33,50.67 175.86,93.14 267,88.26 103.39,-5.54 297.87,-33.62 393.28,-13 195.46,42.25 371.96,111.08 573.55,82.72 l 9.36,65.75 -9.21,-65.78 c 148.57,-22.21 314.4,-99.09 461.87,-89.46 108.75,7.11 218.84,22.37 327.91,20.86 80.4,-13.36 163.28,-43.95 237.7,-75.99 38.77,-16.7 65.92,56.41 7.91,65.3 -81.02,12.43 -159.01,40.28 -239.66,52.69 l -5.85,-41.29 4.55,41.44 c -72.87,7.24 -283.77,-18.71 -386.3,-14 l -3.92,-51.45 3.15,51.53 c -183.64,30.05 -312.12,119.92 -542.51,114.06 -169.92,-4.33 -325.08,-83.04 -490.32,-113.84 l 0.69,-51.58 -3.3,51.17 c -121.67,-7.11 -251.72,11.54 -374.38,13.92 l -0.42,-20.77 0.39,20.77 -12.47,-0.24 3.11,-28.68 -3.36,28.66 c -93.89,-13.62 -152.49,-42.32 -256.28,-34.35 z"
   id="path19" />
   <path
   class="fil1"
   d="m 14603.49,9177.41 c 0,0 31.72,-45.52 67.41,-37.71 35.69,7.82 194.3,143.89 194.3,143.89 0,0 -71.38,-45.05 -107.63,-54.71 -36.26,-9.65 -57.23,-49.64 -84.41,-64.81 -27.19,-15.18 -69.68,13.33 -69.68,13.33 z"
   id="path20" />
   <path
   class="fil1"
   d="m 15603.17,9168.28 c 0,0 -35.54,-45.51 -75.53,-37.7 -39.99,7.82 -217.71,143.89 -217.71,143.89 0,0 79.98,-45.05 120.6,-54.71 40.62,-9.65 64.12,-49.64 94.58,-64.82 30.46,-15.17 78.07,13.33 78.07,13.33 z"
   id="path21" />
   <path
   class="fil1"
   d="m 14397.6,8782.49 c 0,0 -129.67,477.26 231.74,473.12 0,0 -393.14,91.05 -231.74,-473.12 z"
   id="path22" />
   <path
   class="fil1"
   d="m 15834.4,8779.98 c 0,0 129.67,477.27 -231.74,473.13 0,0 393.14,91.04 231.74,-473.13 z"
   id="path23" />
   <path
   class="fil1"
   d="m 13144.54,4814.2 c 0,0 474.88,-204.85 879.91,251.39 405.03,456.25 619.19,940.43 1010.25,1038.19 0,0 -353.83,-148.98 -572.63,-656.44 0,0 308.83,571.08 681.28,546.26 0,0 -189.33,-93.12 -363.15,-400.39 0,0 642.48,682.83 1008.71,360.04 0,0 605.64,-19.39 1105.34,-211.81 499.7,-192.43 701.44,332.1 701.44,332.1 l -158.29,-155.18 199.17,347.11 -144.84,-175.88 153.12,291.76 -88.98,-120.02 c 0,0 79.66,277.28 88.97,389.01 9.32,111.74 31.04,599.04 31.04,599.04 0,0 125.7,353.84 125.7,456.26 0,102.42 -4.65,730.94 -4.65,730.94 l 65.18,-242.1 -9.32,-824.06 -27.93,-400.39 c 0,0 683.23,-1007.96 678.58,-1585.27 0,0 31.59,270.55 -3.59,442.29 0,0 419.28,-675.61 -114.6,-1119.46 l 419.03,80.7 -285.56,-130.37 c 0,0 211.06,-27.93 301.08,-52.77 0,0 -308.44,-92.32 -811.28,-590.5 -502.83,-498.18 -963.77,-516.8 -963.77,-516.8 0,0 375.07,-6.73 716.5,185.71 0,0 -252.99,-290.75 -1170.21,-253.5 -917.22,37.25 -1299,-689.09 -2006.71,-270.04 0,0 -946.28,-241.45 -1434.64,151.72 -488.37,393.18 -1311.97,1246.78 -1212.64,2531.84 l 41.39,-127.62 c 0,0 184.63,1031.02 275.69,1276.59 0,0 -24.14,756.03 -3.45,813.98 20.7,57.95 182.11,769.82 182.11,769.82 v -972.63 c 0,0 45.53,-144.85 49.67,-219.35 4.14,-74.51 16.55,-1009.88 16.55,-1009.88 0,0 299.9,-404.06 352.33,-834.49 0,0 -22.08,427.68 -162.79,609.79 0,0 253.85,-347.66 237.29,-761.55 -16.55,-413.89 218.69,-574.06 218.69,-574.06 z"
   id="path24" />
   <path
   class="fil9"
   d="m 12442.06,7543.93 c 0.14,2.9 51.46,1010.44 116.53,1319.52 65.57,311.43 176.23,684.42 176.54,685.5 l -140.07,41.17 c -0.32,-1.09 -112.52,-379.25 -179.39,-696.94 -67.37,-320.03 -119.24,-1338.88 -119.4,-1341.82 l 145.78,-7.43 z"
   id="path25" />
   <path
   class="fil9"
   d="m 17892.06,7722.42 c -0.15,2.94 -52.02,1021.78 -119.4,1341.82 -66.88,317.68 -179.07,695.84 -179.39,696.93 L 17453.2,9720 c 0.31,-1.08 110.98,-374.07 176.54,-685.49 65.07,-309.08 116.39,-1316.62 116.53,-1319.53 l 145.78,7.44 z"
   id="path26" />
   <path
   class="fil9"
   d="m 12642.03,9214.35 c 0.47,3 163.49,1044 356.12,1397.15 83.85,153.71 306.18,377.75 548.81,587.7 303.63,262.72 634.02,499.34 764.96,548.81 133.12,50.29 452.76,95.79 775.82,101.85 250.98,4.72 500.94,-14.46 661.01,-73.91 192.93,-71.67 556.24,-322.01 885.62,-594.18 303.06,-250.42 573.6,-515.68 649.72,-671.25 163.25,-333.65 300.54,-1276.61 300.93,-1279.33 l 144.64,21.16 c -0.4,2.77 -140.68,966.65 -314.66,1322.2 -85.97,175.72 -371.22,458.53 -687.45,719.84 -339.69,280.68 -719.64,540.83 -927.92,618.19 -178.87,66.44 -447.69,88.06 -714.17,83.06 -338.99,-6.36 -679.35,-55.97 -825,-111 -144.59,-54.63 -494.05,-302.61 -808.97,-575.11 -253.75,-219.57 -488.35,-457.69 -581.41,-628.29 -204.71,-375.31 -371.65,-1441.54 -372.13,-1444.61 l 144.07,-22.29 z"
   id="path27" />
   <path
   class="fil9"
   d="m 12375.3,7518.79 c -0.38,0.26 -132.66,92.78 -132.66,313.38 0,252.15 154.82,1010.14 155.26,1012.33 l 1.4,6.87 0.03,7.42 c 0,1.26 -0.94,443.48 200.19,451.76 l -5.71,145.77 c -319.99,-13.15 -339.07,-521.11 -340.2,-589.36 -15.3,-75.65 -157.33,-784.14 -157.33,-1034.8 0,-296.12 193.84,-431.89 194.39,-432.28 l 84.62,118.91 z"
   id="path28" />
   <path
   class="fil9"
   d="m 17928.74,7473.91 c 0.55,0.39 194.38,136.18 194.38,432.28 0,250.66 -142.02,959.16 -157.33,1034.81 -1.13,68.24 -20.21,576.2 -340.19,589.36 l -5.71,-145.78 c 201.13,-8.27 200.19,-450.49 200.19,-451.76 l 0.03,-7.42 1.4,-6.87 c 0.44,-2.18 155.26,-760.17 155.26,-1012.33 0,-220.6 -132.28,-313.11 -132.66,-313.38 l 84.62,-118.91 z"
   id="path29" />
   <path
   class="fil9"
   d="m 13028.89,10669.48 c 81.86,335.47 318.05,1793.87 -140.9,2233.23 303.04,-974.08 -0.01,-2195.39 -0.87,-2198.93 z"
   id="path30" />
   <path
   class="fil9"
   d="m 17056.18,10968.83 c -35.64,208.28 -76.85,519.27 -81.78,864.21 -4.93,343.97 25.92,722.95 133.79,1069.67 l -172.63,-249.24 c -112.88,-362.84 -112.06,-464.75 -106.94,-822.14 5.11,-356.44 47.15,-674.65 83.5,-887.09 z"
   id="path31" />
   <path
   class="fil9"
   d="m 9514.64,13892.35 c 1109.74,-546.14 2397.49,-1101.01 2542.18,-1163.12 77.55,-80.99 565.96,-586.25 690.41,-597.62 100.97,-9.24 326.68,-54.62 327.33,-54.75 l 28.02,143.49 c -0.66,0.13 -228.43,46.07 -342.21,56.46 -79.65,7.27 -606.7,562.35 -608.21,563.94 l -10.36,10.9 -13.94,5.97 c -5.98,2.56 -1367.76,585.11 -2532.31,1157.04 -27.38,-40.48 -54.45,-81.18 -80.91,-122.32 z m 10656.02,20.76 c -1112.45,-537.3 -2318.05,-1053.07 -2323.68,-1055.48 l -13.93,-5.97 -10.36,-10.9 c -1.52,-1.59 -528.57,-556.67 -608.21,-563.94 -113.78,-10.39 -341.56,-56.33 -342.21,-56.46 l 28.02,-143.49 c 0.64,0.13 226.36,45.51 327.33,54.75 124.44,11.37 612.85,516.63 690.41,597.62 135.59,58.21 1275.03,549.16 2331.09,1060.13 -25.64,41.6 -51.89,82.79 -78.46,123.75 z"
   id="path32" />
   <path
   class="fil9"
   d="m 13040.04,12320.82 c -0.48,0 -241.61,15.82 -314.49,131.58 -1,1.57 -1.66,13.01 -1.88,33.54 -1.29,118.9 52.66,365.09 196.77,641.02 145.22,278.05 381.35,582.42 743.55,810.54 328.22,206.71 760.49,351.06 1323.41,357.27 562.94,-6.21 995.21,-150.55 1323.42,-357.27 362.22,-228.12 598.34,-532.49 743.56,-810.54 144.1,-275.92 198.06,-522.12 196.77,-641.02 -0.22,-20.53 -0.89,-31.97 -1.88,-33.54 -72.89,-115.76 -240.38,-113.17 -240.86,-113.17 l -1.14,-145.77 c 0.71,-0.01 248.91,-3.95 365.49,181.18 15.15,24.04 23.65,61.92 24.17,110.15 1.47,135.5 -56.99,410.25 -213.35,709.63 -155.24,297.25 -407.7,622.64 -795,866.56 -348.88,219.72 -806.71,373.12 -1400.6,379.57 h -1.15 c -593.88,-6.45 -1051.72,-159.84 -1400.6,-379.57 -387.31,-243.92 -639.75,-569.31 -795,-866.56 -156.36,-299.4 -214.82,-574.15 -213.35,-709.63 0.52,-48.23 9.03,-86.11 24.17,-110.15 116.59,-185.13 364.78,-181.19 365.5,-181.18 l 72.49,127.37 z"
   id="path33" />
   <path
   class="fil9"
   d="m 12171.88,12782.74 c 0.4,3.74 124.8,1300.82 1617.1,1880.56 -964.42,-315.35 -1672.93,-1028.92 -1762.31,-1865.13 l 145.2,-15.43 z"
   id="path34" />
   <path
   class="fil9"
   d="m 17947.61,12802.17 c -162.47,1003.17 -989.68,1756.94 -1944.87,1883.46 1562.45,-342.46 1800.07,-1902.41 1800.8,-1906.9 z"
   id="path35" />
   <path
   class="fil10"
   d="m 13048.32,4309.13 c 0,0 463.84,-375.5 993.95,-270.58 530.11,104.93 1452.27,1038.13 1452.27,1038.13 l -938.73,-601.9 c 0,0 814.06,776.73 1243.61,879.82 429.53,103.09 860.26,-46.01 827.12,-46.01 -33.13,0 -375.49,309.23 -1076.78,265.05 -701.28,-44.17 -1468.84,-1076.77 -1468.84,-1076.77 l 1021.56,668.16 c 0,0 -1270.05,-1424.66 -2054.17,-855.9 z m -573.04,1839.64 c 0,0 143.58,-250.34 195.12,-541.2 51.55,-290.86 55.23,-493.34 55.23,-493.34 l -169.35,541.2 c 0,0 33.13,-666.38 184.08,-843.1 150.94,-176.72 287.17,-324 287.17,-324 0,0 -353.44,143.59 -463.89,441.81 -110.46,298.21 -103.09,953.55 -103.09,953.55 l 73.63,-386.57 c 0,0 25.78,423.38 -58.9,651.65 z m 591.1,-2194.27 c 0,0 50.73,-204.53 117.82,-273.26 67.09,-68.73 94.91,-93.27 94.91,-93.27 l 85.09,260.17 -103.09,-121.09 -8.19,181.63 -50.72,-147.26 c 0,0 -109.64,130.9 -135.82,193.07 z m 774.77,-702.24 c 0,0 -412.35,105.54 -485.97,279.8 -73.64,174.25 316.61,247.89 316.61,247.89 0,0 -195.48,-35.51 -193.89,-206.17 0,0 147.27,81 468.79,108 321.52,27 498.23,88.36 498.23,88.36 0,0 -215.98,-117.81 -490.87,-220.89 -274.89,-103.09 -120.27,-250.35 -120.27,-250.35 0,0 -204.04,137.97 -73.64,257.71 0,0 -377.97,-122.72 81.01,-304.34 z m -1575.72,2815.5 c 0,0 -226.41,-668.21 -209.84,-911.2 16.57,-242.99 590.89,-1292.24 800.74,-1446.88 209.85,-154.62 414.19,-198.8 414.19,-198.8 0,0 -386.58,226.42 -546.72,524.63 -160.14,298.21 -342.39,905.68 -342.39,905.68 l 447.31,-673.74 c 0,0 -425.9,543.95 -430.74,960.9 -4.85,416.95 -16.57,1110 -16.57,1110 l -143.58,-988.5 c 0,0 -27.61,220.89 27.61,717.91 z m 5553.04,-1112.8 c 0,0 242.97,-105.53 454.04,49.09 211.07,154.62 159.53,478.59 159.53,478.59 0,0 -220.89,-532.59 -613.58,-527.68 z m -449.14,257.71 c 0,0 322.33,-219.26 679.03,-52.36 356.69,166.89 322.33,569.39 322.33,569.39 0,0 -71.99,-289.61 -214.34,-376.33 0,0 150.54,229.88 143.17,404.15 -7.36,174.25 -41.73,233.16 -41.73,233.16 0,0 27,-935.1 -888.46,-778.01 z m -466.5,440.95 c 0,0 775.55,-512.94 1119.15,-223.34 343.6,289.6 157.07,679.83 157.07,679.83 0,0 46.62,-417.23 -233.16,-576.75 0,0 174.88,251.57 172.42,467.55 -2.46,215.97 -142.35,549.75 -142.35,549.75 0,0 152.16,-157.07 -41.72,-532.58 -193.89,-375.5 -520.31,-434.4 -520.31,-434.4 0,0 466.31,-41.72 584.12,294.52 0,0 -137.44,-709.28 -1095.22,-224.57 z m -2342.59,-504.97 c 0,0 478.58,644.24 1251.68,629.51 773.09,-14.72 1174.36,-430.71 1174.36,-430.71 0,0 -478.2,592.2 -1240.62,555.89 -762.42,-36.32 -1185.42,-754.68 -1185.42,-754.68 z m 43.75,-1849.42 c 0,0 452.8,-95.72 739.94,-44.18 287.15,51.54 695.78,191.43 695.78,191.43 l -585.33,-55.22 c 0,0 544.85,143.56 990.28,150.93 445.44,7.36 1008.69,231.92 1008.69,231.92 0,0 -390.24,-73.63 -1074.96,-99.4 -684.73,-25.77 -1398.91,-279.78 -1398.91,-279.78 l 393.91,51.54 c 0,0 -400.84,-199.23 -769.4,-147.25 z m -375.51,139.9 c 0,0 684.75,-7.37 986.61,69.95 301.87,77.31 769.4,198.79 769.4,198.79 l -831.99,-55.23 c 0,0 552.21,198.8 1487.27,173.03 935.07,-25.78 1443.09,342.36 1443.09,342.36 0,0 -787.81,-246.64 -1487.27,-191.42 -699.46,55.22 -1914.3,-390.23 -1914.3,-390.23 l 342.36,33.13 c 0,0 -434.39,-150.93 -795.17,-180.38 z m 191.44,147.25 c 0,0 927.71,769.4 1884.85,912.98 957.15,143.56 1354.72,-117.81 1354.72,-117.81 0,0 -629.5,121.49 -1321.59,-3.68 0,0 559.56,-11.04 1141.22,-66.27 581.66,-55.22 894.57,173.02 894.57,173.02 0,0 -287.15,-416 -1483.59,-342.37 -1196.44,73.63 -2046.84,-434.39 -2046.84,-434.39 0,0 747.31,511.71 1387.87,526.43 0,0 -695.78,80.99 -1811.22,-647.92 z m -1459.95,579.18 c 0,0 612.94,-408.62 1225.87,-369.97 612.94,38.66 1027.08,612.94 1993.43,811.72 966.34,198.79 1424.66,99.4 1424.66,99.4 0,0 -795.15,336.85 -1628.97,0 0,0 563.23,314.75 1247.96,220.88 684.73,-93.88 844.86,-303.71 844.86,-303.71 0,0 -331.32,425.18 -1264.52,485.93 -933.21,60.74 -1446.76,-485.94 -2043.13,-844.86 -596.36,-358.93 -1124.63,-292.66 -1124.63,-292.66 0,0 574.29,-117.81 1158.39,184.06 0,0 -677.37,-586.55 -1833.9,9.2 z"
   id="path36" />
   <path
   class="fil11"
   d="m 14887.65,4531.96 c 94.59,76.07 184.26,152.7 264.22,223.52 l -76.91,52.17 -268.84,-172.37 c 28.82,-34.51 56.03,-68.96 81.53,-103.32 z m -113.34,140.62 c 65.03,56.79 141.03,121.44 222.99,187.89 -40.26,27.49 -79.19,54.28 -116.56,80.43 -56.23,-53.07 -121.35,-112.04 -193.53,-173.16 30.54,-31.77 59.55,-63.5 87.1,-95.16 z m 1587.37,701.32 c 171.44,-24.11 282.28,-65.32 264.86,-65.32 -18.59,0 -134.55,97.35 -356.62,175 32.46,-35.39 63.13,-71.98 91.76,-109.69 z m -1709.05,-264.02 c -58.06,-50.89 -113.24,-102.66 -164.8,-153.48 43.43,-37.61 84.56,-75.16 123.46,-112.66 l 211.36,138.25 c -61.61,44.04 -118.55,86.47 -170.01,127.9 z m 323.2,-706.46 c 49.31,-77.98 90.86,-155.5 125.66,-232.48 154.44,88.34 321.47,180.1 513.12,260.73 -101.24,74.29 -199.34,143.28 -293.14,207.97 -116.93,-78.22 -230.87,-158.96 -345.64,-236.22 z m 167.67,-333.46 c 9.69,-25.43 18.74,-50.81 27.11,-76.1 303.45,129.96 550,191.43 728.77,219.85 -56.96,45.59 -113.31,89.42 -168.87,131.54 -210.9,-79.18 -410.33,-176.76 -587.01,-275.29 z m 51.45,-155.83 c 3.53,-12.57 6.93,-25.12 10.17,-37.65 205.23,80.41 489.66,170.54 831.87,224.5 l -0.05,0.05 c -37.99,31.92 -75.75,62.91 -113.28,93.19 -267.04,-59.84 -529.4,-176.18 -728.71,-280.09 z m 35.91,-152.1 c 5.24,-27.14 9.86,-54.18 13.93,-81.13 159.66,44.5 521.34,127.5 1042.99,144.09 -27.97,44.87 -63.42,91.14 -106.64,138.59 -319.14,-36.01 -668.85,-121.19 -950.29,-201.55 z m 17.12,-103.06 c 6.46,-46.18 11.34,-92.09 14.85,-137.67 300.92,77.23 721.66,186.55 721.66,186.55 l -736.51,-48.89 z m 17.45,-175.56 c 1.04,-16.95 1.91,-33.86 2.61,-50.71 l 105.35,13.78 c 0,0 -39.16,-19.46 -104.24,-44.63 1.61,-52.69 1.73,-104.93 0.76,-156.66 25.56,2.38 50.36,5.62 74.02,9.86 287.15,51.54 695.78,191.43 695.78,191.43 l -585.33,-55.22 c 0,0 490.38,129.21 921.05,148.74 1.22,42.62 -4.4,87.28 -17.99,133.83 -408.89,-18.13 -825.52,-115.73 -1092,-190.42 z m -686.58,1688.69 -2.45,2.16 c -10.7,-16.35 -16.17,-25.61 -16.17,-25.61 0,0 6.35,8.52 18.62,23.45 z m 1127.68,728.7 c 75.91,-37.75 150.3,-80.63 221.82,-128.06 339.87,-24.93 599.87,-126.68 777.05,-224.41 -6.47,22.68 -12.79,45.01 -18.9,66.9 -215.53,151.46 -538.62,307.26 -940.86,288.1 -13.15,-0.63 -26.17,-1.5 -39.12,-2.53 z m 811.59,-791.39 c 28.01,-64.52 49.97,-131.13 64.61,-199.58 v -0.02 c 92.26,16.86 192.14,29.16 297.59,33.52 -15.51,55.63 -31.12,110.47 -46.64,164.29 -10.1,0.76 -20.19,1.52 -30.44,2.19 -99.64,6.48 -194.44,5.99 -285.12,-0.4 z m 77.9,-259.5 c 12.75,-55.82 26.35,-110.61 40.66,-163.98 111.19,15.07 212.53,25.63 304.15,32.75 -11.63,44.91 -23.48,89.51 -35.47,133.69 -96.99,5.62 -200.8,5.75 -309.34,-2.45 z m 83.02,-312.01 c 11.84,-38.83 23.96,-76.64 36.27,-113.34 103.11,7.3 201.94,10.09 294.28,9.88 -7.8,34.96 -15.83,69.87 -24.1,104.65 -91.87,4.5 -193.86,4.71 -306.45,-1.19 z m 57.4,-174.61 c 27.99,-79.17 56.66,-152.2 84.96,-217.48 22.78,-1 45.66,-2.13 68.71,-3.55 61.58,-3.78 120.62,-6.21 177.45,-7.53 -9.29,61.07 -22.14,131.59 -39.03,212.27 -105.25,6.73 -203.98,12.07 -292.09,16.29 z m 170.36,-393.18 c 34.88,-62.67 67.19,-108.73 94.55,-134.66 25.54,2.14 50.65,4.55 75.32,7.22 9.13,26.94 12.4,72.06 8.43,137.36 -58.79,-4.69 -118.4,-8.09 -178.29,-9.92 z m 512.42,1517.06 c 24.72,-35.71 49.39,-71.53 73.9,-107.18 194.21,-53.49 394.54,-62.93 528.85,50.29 72.39,61.02 121.18,126.51 153.21,191.86 -12.51,44.37 -26.98,88.87 -43.86,133.35 -34.47,-86.06 -91.57,-168.6 -185.44,-222.13 0,0 101.3,145.74 148.61,310.59 -35.63,78.76 -79.04,156.99 -131.58,233.65 -8.61,-19.2 -18.11,-39.01 -28.69,-59.52 -193.89,-375.5 -520.31,-434.4 -520.31,-434.4 0,0 466.31,-41.72 584.12,294.52 0,0 -84.08,-433.76 -578.82,-391.03 z m 200.4,-290.55 c 22.27,-32.03 44.31,-63.52 66.01,-94.16 107.02,-12.51 232.56,-3.05 362.72,57.85 79.66,37.27 139.78,86.31 185.16,139.98 -3.21,36.18 -7.54,72.79 -13.05,109.73 -19.49,-22.86 -40.87,-42.47 -64.13,-56.64 0,0 26.65,40.7 56.98,100.83 -8.3,47.48 -18.65,95.4 -31.42,143.55 -78.63,-190.23 -238.33,-381.9 -562.27,-401.14 z m 617.37,-216 c 3.91,63.12 5.44,129.3 3.56,197.66 -102.73,-118.34 -244.91,-225.54 -422.08,-223.32 0,0 216.65,-94.06 418.53,25.66 z m -5552.24,540.65 c -19.98,-28.76 -40.19,-56.37 -60.57,-82.86 l 101.45,-324.18 c 0,0 -2.98,163.21 -40.88,407.04 z m -104.09,-137.59 c -29.79,-36.23 -59.76,-70.22 -89.64,-102.28 15.33,-131.33 38.27,-258.55 72.61,-351.26 6.93,-18.73 14.83,-36.83 23.53,-54.33 29.7,14.51 60.73,29.43 93.14,44.78 -50.12,126.67 -81.16,310.79 -99.64,463.08 z m -181.01,-195 c -102.46,-98.46 -200.42,-175.76 -282.46,-241.46 30.01,-75.5 69.37,-162.85 114.61,-255.64 55.04,30.06 119.51,64.83 195.35,103.94 -28.51,88.21 -45.75,145.67 -45.75,145.67 l 83.78,-126.2 c 10.05,5.12 20.27,10.29 30.69,15.54 -50.02,118.16 -87.89,242.1 -96.22,358.15 z"
   id="path37" />
   <g
   id="g38">
    <path
   class="fil12"
   d="m 16594.95,7478.8 c 0,0 -63.13,-16.51 -68.19,-15.14 -5.06,1.37 -32.53,56.69 -102.97,58.59 -70.45,1.9 -81.81,-79.3 -81.81,-79.3 l -44.4,6.86 c 0,0 29.78,94.68 114.33,106.44 84.55,11.75 118.96,-32.41 118.96,-32.41 l 44.97,6.76 z"
   id="path38" />
    <ellipse
   class="fil0"
   transform="matrix(1.10799,0.105727,-0.105727,1.10799,16554.5,7453.38)"
   rx="62.009998"
   ry="32.52"
   id="ellipse38"
   cx="0"
   cy="0" />
   </g>
   <g
   id="g39">
    <path
   class="fil12"
   d="m 13946.71,7479.53 c 0,0 -63.13,-16.51 -68.19,-15.14 -5.06,1.38 -32.53,56.69 -102.97,58.59 -70.44,1.9 -81.8,-79.29 -81.8,-79.29 l -44.41,6.85 c 0,0 29.79,94.68 114.33,106.44 84.55,11.76 118.96,-32.41 118.96,-32.41 l 44.97,6.76 z"
   id="path39" />
    <ellipse
   class="fil0"
   transform="matrix(1.10799,0.105727,-0.105727,1.10799,13906.3,7454.11)"
   rx="62.009998"
   ry="32.52"
   id="ellipse39"
   cx="0"
   cy="0" />
   </g>
  </g>
 </g>
</svg>
