<svg xmlns:xlink="http://www.w3.org/1999/xlink" width="220.8261547910602" xmlns="http://www.w3.org/2000/svg" id="screenshot" version="1.1" viewBox="-0.8261547910597276 -0.09356106015936544 220.8261547910602 162.11254037593952" height="162.11254037593952" style="-webkit-print-color-adjust: exact;"><g id="shape-ac5fd6b0-698d-11ec-8dda-41b397486b5e"><g id="shape-ac60e820-698d-11ec-8dda-41b397486b5e"><defs><linearGradient x1="43.5" y1="1050.9" x2="43" y2="1006.4" id="c27de6f0-72b9-11ec-8a48-e572a1563a57-a" gradientUnits="userSpaceOnUse" gradientTransform="matrix(3.0083146474283087,0,0,3.000248428213801,-195.7641258478294,-367.66685776529266) matrix(1.21696 0 0 1.21696 62.45 -1102.001)"><stop offset="0" stop-color="#000606" stop-opacity=".063"/><stop offset=".053" stop-color="#000606" stop-opacity=".376"/><stop offset="1" stop-color="#000606" stop-opacity="0"/></linearGradient></defs><rect width="216" height="157" x="4" transform="matrix(1.0000000002189853,1.7453292471544047e-8,-1.7453292523765342e-8,0.9999999972269292,0.0000014328235806715384,-0.0000017232173519232674)" fill-rule="evenodd" ry="2.434" fill="url(#c27de6f0-72b9-11ec-8a48-e572a1563a57-a)" rx="2.434" y="5" color="#000" opacity=".528"/></g><g id="shape-ac615d50-698d-11ec-8dda-41b397486b5e"><rect width="216" height="157" x="0" stroke-linejoin="round" transform="matrix(1.0000000002189842,1.7453292430768185e-8,-1.745329256454115e-8,0.9999999972269262,0.0000013464331800605578,-0.0000016672692879637907)" fill-rule="evenodd" style="fill: rgb(255, 252, 238); stroke-width: 0.608; stroke: rgb(243, 145, 45);" ry="2.434" stroke-linecap="round" rx="2.434" y="0" color="#000"/></g><g id="shape-ac61ab70-698d-11ec-8dda-41b397486b5e"><rect width="209" height="150" x="3" transform="matrix(0.9999999999368411,0,0,1.0000000024744,6.789591111555637e-9,-1.9547759677607246e-7)" style="stroke-width: 1.217; stroke: rgb(255, 255, 255);" ry="1.217" fill="none" stroke-linecap="round" rx="1.217" y="4" color="#000"/></g><g id="shape-ac61f990-698d-11ec-8dda-41b397486b5e"><g id="shape-ac67ed00-698d-11ec-8dda-41b397486b5e"><path color="#000" opacity=".46" d="M17.894471282979566,11.31078295344878L10.578189222548417,18.627065013880383L25.210753343410943,18.627065013880383ZM43.501458494489725,11.31078295344878L36.185176434058576,18.627065013880383L50.8177405549211,18.627065013880383ZM69.10844570599988,11.31078295344878L61.79216364556851,18.627065013880383L76.42172189869893,18.627065013880383ZM94.71242704977749,11.31078295344878L87.39614498934611,18.627065013880383L102.02870911020864,18.627065013880383ZM120.31941426128742,11.31078295344878L113.00313220085627,18.627065013880383L127.6356963217188,18.627065013880383ZM145.9264014727978,11.31078295344878L138.61011941236598,18.627065013880383L153.24268353322896,18.627065013880383ZM171.53338868430728,11.31078295344878L164.21710662387613,18.627065013880383L178.84666487700633,18.627065013880383ZM197.13737002808534,11.31078295344878L189.8210879676535,18.627065013880383L204.45365208851672,18.627065013880383ZM23.38017989443756,13.138350534691199L30.69646195486871,20.45463259512144L38.012744015300086,13.138350534691199ZM48.99017297367959,13.138350534691199L56.303449166378414,20.45463259512144L63.61973122680979,13.138350534691199ZM74.5941543174572,13.138350534691199L81.9104363778888,20.45463259512144L89.22671843831995,13.138350534691199ZM125.80512287274496,13.138350534691199L133.1214049331761,20.45463259512144L140.4376869936077,13.138350534691199ZM151.41511595198745,13.138350534691199L158.7283921446865,20.45463259512144L166.04467420511764,13.138350534691199ZM177.01909729576482,13.138350534691199L184.33537935619643,20.45463259512144L191.6516614166278,13.138350534691199ZM16.066903701738056,21.371422253474975L8.75062164130668,28.684698446174934L16.066903701738056,36.000980506605174ZM198.96794347705918,21.371422253474975L198.96794347705918,36.000980506605174L206.28422553749033,28.684698446174934ZM10.578189222548417,34.17341292536412L10.578189222548417,48.80597704622778L17.894471282979566,41.48969498579618ZM204.45665795624882,34.17341292536412L197.1373700280849,41.48969498579618L204.45365208851626,48.80597704622778ZM16.066903701738056,46.97840946498536L8.75062164130668,54.2916856576835L16.066903701738056,61.607967718116925ZM198.96794347705918,46.97840946498536L198.96794347705918,61.607967718116925L206.28422553749033,54.2916856576835ZM10.578189222547962,59.780400136874505L10.578189222547962,74.41296425773635L17.894471282979566,67.09668219730611ZM204.45665795624836,59.780400136874505L197.1373700280849,67.09668219730611L204.45365208851626,74.41296425773635ZM16.066903701738056,72.58239080876183L8.75062164130668,79.89867286919525L16.066903701738056,87.21495492962549ZM198.96794347705918,72.58239080876183L198.96794347705918,87.21495492962549L206.28422553749033,79.89867286919525ZM10.578189222547962,85.38738734838444L10.578189222547962,100.01694560151464L17.894471282979566,92.7006635410844ZM204.45665795624836,85.38738734838444L197.1373700280849,92.7006635410844L204.45365208851626,100.01694560151464ZM16.066903701738056,98.18937802027358L8.75062164130668,105.50566008070382L16.066903701738056,112.82194214113542ZM198.96794347705918,98.18937802027358L198.96794347705918,112.82194214113542L206.28422553749033,105.50566008070382ZM10.578189222547962,110.994374559893L10.578189222547962,125.62393281302457L17.894471282979566,118.30765075259296ZM204.45665795624836,110.994374559893L197.1373700280849,118.30765075259296L204.45365208851626,125.62393281302457ZM16.066903701738056,123.79636523178215L8.75062164130668,131.1096414244821L16.066903701738056,138.4259234849137ZM198.96794347705918,123.79636523178215L198.96794347705918,138.4259234849137L206.28422553749033,131.1096414244821ZM30.699467822601036,139.34271314326588L23.380179894437106,146.65899520369794L38.012744015300086,146.65899520369794ZM56.303449166378414,139.34271314326588L48.98716710594681,146.65899520369794L63.61973122680979,146.65899520369794ZM81.9104363778888,139.34271314326588L74.59415431745697,146.65899520369794L89.22671843831995,146.65899520369794ZM107.51742358939873,139.34271314326588L100.20114152896713,146.65899520369794L114.83370564983011,146.65899520369794ZM133.12140493317588,139.34271314326588L125.8051228727445,146.65899520369794L140.4376869936077,146.65899520369794ZM158.7313980124186,139.34271314326588L151.41211008425466,146.65899520369794L166.04467420511764,146.65899520369794ZM184.3353793561962,139.34271314326588L177.01909729576482,146.65899520369794L191.6516614166278,146.65899520369794ZM10.578189222548417,141.1702807245083L17.894471282979566,148.48656278494036L25.210753343410943,141.1702807245083ZM36.185176434058576,141.1702807245083L43.501458494489725,148.48656278494036L50.8177405549211,141.1702807245083ZM61.79216364556851,141.1702807245083L69.10844570599988,148.48656278494036L76.42172189869893,141.1702807245083ZM87.39614498934566,141.1702807245083L94.71242704977749,148.48656278494036L102.02870911020864,141.1702807245083ZM113.00613806858837,141.1702807245083L120.31941426128742,148.48656278494036L127.6356963217188,141.1702807245083ZM138.61011941236598,141.1702807245083L145.9264014727978,148.48656278494036L153.24268353322896,141.1702807245083ZM164.21710662387568,141.1702807245083L171.53338868430728,148.48656278494036L178.84666487700633,141.1702807245083ZM189.8210879676535,141.1702807245083L197.1373700280849,148.48656278494036L204.45365208851672,141.1702807245083Z" style="fill: rgb(243, 145, 45);"/></g><g id="shape-ac6be4a0-698d-11ec-8dda-41b397486b5e"><path color="#000" opacity=".46" d="M30.69646195486871,11.31078295344878L23.38017989443756,18.627065013880383L38.012744015300086,18.627065013880383ZM56.30645503411074,11.31078295344878L48.987167105947265,18.627065013880383L63.61973122680979,18.627065013880383ZM81.9104363778888,11.31078295344878L74.5941543174572,18.627065013880383L89.22671843831995,18.627065013880383ZM133.12140493317588,11.31078295344878L125.8051228727445,18.627065013880383L140.4376869936077,18.627065013880383ZM158.7313980124186,11.31078295344878L151.41211008425466,18.627065013880383L166.04467420511764,18.627065013880383ZM184.3353793561962,11.31078295344878L177.01909729576482,18.627065013880383L191.6516614166278,18.627065013880383ZM10.578189222548417,13.138350534691199L17.894471282979566,20.45463259512144L25.210753343410943,13.138350534691199ZM36.185176434058576,13.138350534691199L43.501458494489725,20.45463259512144L50.8177405549211,13.138350534691199ZM61.79216364556851,13.138350534691199L69.10844570599988,20.45463259512144L76.42172189869893,13.138350534691199ZM87.39614498934566,13.138350534691199L94.71242704977749,20.45463259512144L102.02870911020864,13.138350534691199ZM113.00613806858837,13.138350534691199L120.31941426128742,20.45463259512144L127.6356963217188,13.138350534691199ZM138.61011941236598,13.138350534691199L145.9264014727978,20.45463259512144L153.24268353322896,13.138350534691199ZM164.21710662387568,13.138350534691199L171.53338868430728,20.45463259512144L178.84666487700633,13.138350534691199ZM189.8210879676535,13.138350534691199L197.1373700280849,20.45463259512144L204.45365208851672,13.138350534691199ZM10.581195090280517,21.371422253474975L10.581195090280517,36.000980506605174L17.894471282979566,28.684698446174934ZM204.45365208851672,21.371422253474975L197.1373700280849,28.684698446174934L204.45365208851672,36.000980506605174ZM16.066903701738056,34.17341292536412L8.75062164130668,41.48969498579618L16.066903701738056,48.80597704622778ZM198.96794347705918,34.17341292536412L198.96794347705918,48.80597704622778L206.28422553749033,41.48969498579618ZM10.578189222548417,46.97840946498536L10.578189222548417,61.607967718116925L17.894471282979566,54.2916856576835ZM204.45665795624882,46.97840946498536L197.1373700280849,54.2916856576835L204.45365208851672,61.607967718116925ZM16.066903701738056,59.780400136874505L8.75062164130668,67.09668219730611L16.066903701738056,74.41296425773635ZM198.96794347705918,59.780400136874505L198.96794347705918,74.41296425773635L206.28422553749033,67.09668219730611ZM10.578189222548417,72.58239080876183L10.578189222548417,87.21495492962549L17.894471282979566,79.89867286919525ZM204.45665795624882,72.58239080876183L197.1373700280849,79.89867286919525L204.45365208851672,87.21495492962549ZM16.066903701738056,85.38738734838444L8.75062164130668,92.7006635410844L16.066903701738056,100.01694560151464ZM198.96794347705918,85.38738734838444L198.96794347705918,100.01694560151464L206.28422553749033,92.7006635410844ZM10.578189222548417,98.18937802027358L10.578189222548417,112.82194214113542L17.894471282979566,105.50566008070382ZM204.45665795624882,98.18937802027358L197.1373700280849,105.50566008070382L204.45365208851672,112.82194214113542ZM16.066903701738056,110.994374559893L8.75062164130668,118.30765075259296L16.066903701738056,125.62393281302457ZM198.96794347705918,110.994374559893L198.96794347705918,125.62393281302457L206.28422553749033,118.30765075259296ZM10.578189222548417,123.79636523178215L10.578189222548417,138.4259234849137L17.894471282979566,131.1096414244821ZM204.45665795624882,123.79636523178215L197.1373700280849,131.1096414244821L204.45365208851672,138.4259234849137ZM17.894471282979566,139.34271314326588L10.578189222548417,146.65899520369794L25.210753343410943,146.65899520369794ZM43.501458494489725,139.34271314326588L36.185176434058576,146.65899520369794L50.8177405549211,146.65899520369794ZM69.10844570599988,139.34271314326588L61.79216364556851,146.65899520369794L76.42172189869893,146.65899520369794ZM94.71242704977749,139.34271314326588L87.39614498934611,146.65899520369794L102.02870911020864,146.65899520369794ZM120.31941426128742,139.34271314326588L113.00313220085627,146.65899520369794L127.6356963217188,146.65899520369794ZM145.9264014727978,139.34271314326588L138.61011941236598,146.65899520369794L153.24268353322896,146.65899520369794ZM171.53338868430728,139.34271314326588L164.21710662387613,146.65899520369794L178.84666487700633,146.65899520369794ZM197.13737002808534,139.34271314326588L189.8210879676535,146.65899520369794L204.45365208851672,146.65899520369794ZM23.38017989443756,141.1702807245083L30.69646195486871,148.48656278494036L38.012744015300086,141.1702807245083ZM48.99017297367959,141.1702807245083L56.303449166378414,148.48656278494036L63.61973122680979,141.1702807245083ZM74.5941543174572,141.1702807245083L81.9104363778888,148.48656278494036L89.22671843831995,141.1702807245083ZM100.20114152896758,141.1702807245083L107.51742358939873,148.48656278494036L114.83370564983011,141.1702807245083ZM125.80512287274496,141.1702807245083L133.1214049331761,148.48656278494036L140.4376869936077,141.1702807245083ZM151.41511595198745,141.1702807245083L158.7283921446865,148.48656278494036L166.04467420511764,141.1702807245083ZM177.01909729576482,141.1702807245083L184.33537935619643,148.48656278494036L191.6516614166278,141.1702807245083Z" style="fill: rgb(243, 145, 45);"/></g><g id="shape-ac6f6710-698d-11ec-8dda-41b397486b5e"><path color="#000" opacity=".7" d="M52.75953110999035,58.86361047852051C52.106067147386966,58.92482238177445,51.53489770805413,59.33000338970078,51.26117679511526,59.926525735752875C50.98745588217639,60.52304808180861,51.05276821450411,61.22028582953635,51.43251126824748,61.7555962634483C51.81225432199108,62.29090669736024,52.44873609267847,62.582963426773404,53.10220005370206,62.521751506654255L175.18852384679076,62.52175150873745C175.85967441947946,62.54896466212904,176.49182404853036,62.20641987627232,176.83550210551198,61.62929853713604C177.1791801624936,61.05217719799839,177.1791801624936,60.33318478925821,176.83550210551198,59.75606345012193C176.49182404853036,59.17894211098428,175.85967441947946,58.83639732513029,175.18852384679076,58.86361047852051L53.10220003147333,58.86361047852051C52.98822831404732,58.85289614170142,52.87350282741659,58.85289614170142,52.75953110999035,58.86361047852051ZZM52.64831400389539,65.13685643584313C51.97780850349591,65.17536623216165,51.381793622117584,65.57679506122986,51.094088155482495,66.18366094010844C50.80638268884695,66.79052681898565,50.872873549500355,67.50603908937683,51.26747613209068,68.04949969723293C51.66207871468032,68.59296030509131,52.32185680040902,68.87769126797184,52.987977057645594,68.7919915983266L175.18852384679076,68.7919915983266C175.85967441947946,68.81920475171682,176.49182404853036,68.47665996586147,176.83550210551198,67.89953862672519C177.1791801624936,67.3224172875889,177.1791801624936,66.60342487884918,176.83550210551198,66.02630353971108C176.49182404853036,65.44918220057525,175.85967441947946,65.10663741471808,175.18852384679076,65.13385056810966L52.987977057645594,65.13385056810966C52.874005340219355,65.12313623129103,52.759279853589305,65.12313623129103,52.64831400389539,65.13685643584313ZZM39.49764267505884,71.40709652543092C38.84417871245546,71.46830842868349,38.2730092731224,71.87348943661118,37.99928836018398,72.4700117826651C37.72556744724511,73.06653412871765,37.790879779572606,73.76377187644857,38.1706228333162,74.2990823103587C38.55036588705957,74.83439274427064,39.18684765774674,75.12644947368335,39.84031161877033,75.06523755356466L175.18852384679076,75.06523755564785C175.85967441947946,75.09245070903808,176.49182404853036,74.74990592318409,176.83550210551198,74.17278458404644C177.1791801624936,73.59566324491016,177.1791801624936,72.87667083616998,176.83550210551198,72.29954949703233C176.49182404853036,71.72242815789605,175.85967441947946,71.37988337203933,175.18852384679076,71.40709652543092L39.84331746427392,71.40709652543092C39.72934574684791,71.39638218861182,39.61462026021718,71.39638218861182,39.49764267505884,71.40709652543092ZZM39.49764267505884,83.94757670460967C38.84417871245546,84.00878860786179,38.2730092731224,84.41396961578948,37.99928836018398,85.0104919618434C37.72556744724511,85.60701430789595,37.790879779572606,86.30425205562688,38.1706228333162,86.83956248953746C38.55036588705957,87.3748729234494,39.18684765774674,87.66692965286211,39.84031161877033,87.60571773274341L175.18852384679076,87.60571773482616C175.85967441947946,87.63293088821638,176.49182404853036,87.29038610236285,176.83550210551198,86.71326476322474C177.1791801624936,86.13614342408891,177.1791801624936,85.41715101534874,176.83550210551198,84.84002967621063C176.49182404853036,84.2629083370748,175.85967441947946,83.92036355121763,175.18852384679076,83.94757670460967L39.84331746427392,83.94757670460967C39.72934574684791,83.93686236779058,39.61462026021718,83.93686236779058,39.49764267505884,83.94757670460967ZZM39.49764267505884,90.21781679419882C38.84417871245546,90.27902869745276,38.2730092731224,90.68420970537863,37.99928836018398,91.28073205143119C37.72556744724511,91.87725439748692,37.790879779572606,92.57449214521466,38.1706228333162,93.10980257912661C38.55036588705957,93.64511301303855,39.18684765774674,93.93716974245126,39.84031161877033,93.87595782233257L175.18852384679076,93.87595782441531C175.85967441947946,93.90317097780735,176.49182404853036,93.56062619195018,176.83550210551198,92.98350485281435C177.1791801624936,92.40638351367625,177.1791801624936,91.68739110493607,176.83550210551198,91.11026976580024C176.49182404853036,90.53314842666214,175.85967441947946,90.19060364080724,175.18852384679076,90.21781679419882L39.84331746427392,90.21781679419882C39.72934574684791,90.20710245737837,39.61462026021718,90.20710245737837,39.49764267505884,90.21781679419882ZZM39.49764267505884,96.49106275152144C38.84417871245546,96.55227465477401,38.2730092731224,96.95745566269989,37.99928836018398,97.5539780087538C37.72556744724511,98.15050035480817,37.790879779572606,98.84773810253591,38.1706228333162,99.38304853644922C38.55036588705957,99.9183589703598,39.18684765774674,100.21041569977251,39.84031161877033,100.14920377965382L175.18852384679076,100.14920378173656C175.85967441947946,100.1764169351286,176.49182404853036,99.83387214927143,176.83550210551198,99.25675081013515C177.1791801624936,98.67962947099932,177.1791801624936,97.96063706225732,176.83550210551198,97.38351572312104C176.49182404853036,96.80639438398521,175.85967441947946,96.46384959812985,175.18852384679076,96.49106275152144L39.84331746427392,96.49106275152144C39.72934574684791,96.48034841470098,39.61462026021718,96.48034841470098,39.49764267505884,96.49106275152144ZZM39.49764267505884,102.76130284110923C38.84417871245546,102.82251474436134,38.2730092731224,103.22769575228904,37.99928836018398,103.82421809834341C37.72556744724511,104.42074044439596,37.790879779572606,105.11797819212507,38.1706228333162,105.65328862603701C38.55036588705957,106.18859905994896,39.18684765774674,106.48065578936166,39.84031161877033,106.41944386924297L83.73800395913031,106.41944387132571C84.40915453181901,106.44665702471593,85.04130416086991,106.1041122388624,85.38498221785153,105.52699089972475C85.72866027483315,104.94986956058847,85.72866027483315,104.23087715184829,85.38498221785153,103.65375581271064C85.04130416086991,103.07663447357436,84.40915453181901,102.73408968771719,83.73800395913031,102.76130284110923L39.84331746427392,102.76130284110923C39.72934574684791,102.75058850429014,39.61462026021718,102.75058850429014,39.49764267505884,102.76130284110923ZZM48.97213776728563,58.39770098001418C43.624699071514215,56.131276709854774,39.28723193379756,59.08905055844434,38.70108772599815,62.90049084300745C38.409518555964496,64.80320511755735,39.28122019833313,67.0636176522512,41.216999017937724,68.16075937454116C43.14977196981022,69.2518893613692,45.54544855245763,69.81398662730953,48.85791479345835,69.18876613899101C49.80776899686634,69.0084140750514,50.384895601469225,67.83011392398703,50.117373373294186,66.90430666243765C49.802669354034606,65.95146880309676,48.806632218662344,65.40233780346534,47.83291389674196,65.64484808260204C45.0224275670364,66.52256146043555,43.696839897089376,65.32622610297858,43.044566599179234,64.95650437190397C42.39229330126909,64.58978850856238,42.254023385583196,64.15994942284306,42.35922875621395,63.47160571214454C42.56963949747524,62.091912423017675,43.89222129968948,60.25532723857805,47.60146208135461,61.827396062573825C48.50021653331373,62.185094322719124,49.64545213932206,61.695137882353265,50.00315039946645,60.79638343039369C50.34082375281628,59.850194672659654,49.89104859278041,58.803778994210006,48.97213776728563,58.39770098001418ZZM39.49764267505884,77.67733661502007C38.84417871245546,77.738548518274,38.2730092731224,78.14372952620033,37.99928836018398,78.74025187225425C37.72556744724511,79.33677421830862,37.790879779572606,80.0340119660359,38.1706228333162,80.56932239994785C38.55036588705957,81.1046328338598,39.18684765774674,81.39668956327296,39.84031161877033,81.33547764315381L175.18852384679076,81.335477645237C175.85967441947946,81.36269079862859,176.49182404853036,81.02014601277187,176.83550210551198,80.44302467363559C177.1791801624936,79.86590333449794,177.1791801624936,79.14691092575777,176.83550210551198,78.56978958662148C176.49182404853036,77.9926682474852,175.85967441947946,77.6501234616303,175.18852384679076,77.67733661502007L39.84331746427392,77.67733661502007C39.72934574684791,77.66662227820143,39.61462026021718,77.66662227820143,39.49764267505884,77.67733661502007ZZ" style="text-indent: 0px; text-transform: none; fill: rgb(243, 145, 45);"/></g></g><g id="shape-ac6fb530-698d-11ec-8dda-41b397486b5e"><path color="#000" opacity=".75" fill="none" stroke-linecap="round" d="M39.84331746427392,124.7101490224045L80.07986292891428,124.7101490224045" style="stroke-width: 0.608; stroke: rgb(0, 0, 0); stroke-linecap: round;"/></g><g id="shape-ac70c6a0-698d-11ec-8dda-41b397486b5e"><path color="#000" opacity=".75" d="M46.375068046573915,112.7798599928833C45.298967398408195,112.83997734752984,42.25702925331552,114.92905542148264,42.082688924841705,116.1674729271922C41.908348596368114,117.40288456516964,44.156737660132194,117.84474712181827,43.18283651486536,119.58514453882299C42.20893536959852,121.32554195582725,40.065751676464515,120.38169948788345,39.68100060672987,118.76754851563601C39.29324366926221,117.15640341111975,37.44764088162674,118.89980669585793,38.117949385930615,120.40574642974161C38.79426962569937,121.91469203136012,40.727042577571865,123.37554374926003,42.47645759777356,122.5699711970019C44.222866750243156,121.76740451247724,45.533425081528094,120.02400122773952,47.43012762061289,120.74540948349295C49.32683015969792,121.46681773924638,51.01312195752121,119.91278412164502,52.57316731058768,120.65823931925661C54.13621853138625,121.40670038459984,54.79149769702872,121.73433996742051,56.11107363151086,122.09504409529836C57.42764369826091,122.45574822317394,59.0808709510286,120.85362072185717,60.52969919799989,120.66425105472035C61.972515709506524,120.47187551985326,61.87332207434042,118.39181504909902,64.97838344181173,118.31967422352182C68.08344480928372,118.24753339794643,76.34056346992634,119.22143454321349,79.2141730220103,119.90076065071617C82.08778257409449,120.57708089048401,83.2540592542291,120.16527701115729,81.64892588517796,118.74951330924159C80.04679838385937,117.33675547505936,79.61395343040704,118.32869182671902,76.42773363416336,118.06417546627654C73.24151383791968,117.79665323810059,65.39920492433475,116.29672523968065,62.27610835046926,116.37187193298996C59.15000590887189,116.447018626297,58.99971252225646,120.44482271026345,57.13607452822748,120.16527701115729C55.27544240193038,119.88573131205385,52.603225987910946,119.48595090365734,51.97800549959129,118.37979157816835C51.349779143539536,117.26762051721607,50.88687551276439,116.83477556376465,50.219572876192615,117.75757695758057C49.55527610735294,118.6773724836662,46.561431845976585,119.4108042103503,47.1535877892411,118.0311109212198C47.74874960023749,116.65442349982641,47.56238580083459,114.0032481599319,47.08745869913014,113.20969907860308C46.60952572969336,112.4161499972738,47.451168694739636,112.71072503503956,46.375068046573915,112.7798599928833ZZM81.35735671514453,118.95090644730544C81.57377919187024,118.57817884850056,81.13792837068581,119.3206281783805,81.35735671514453,118.95090644730544ZZ" style="text-indent: 0px; text-transform: none; fill: rgb(34, 34, 33);"/></g><g id="shape-ac7114c0-698d-11ec-8dda-41b397486b5e"><path color="#000" opacity=".75" fill="none" stroke-linecap="round" d="M134.94897251441762,124.7101490224045L175.18852384679053,124.7101490224045" style="stroke-width: 0.608; stroke: rgb(0, 0, 0); stroke-linecap: round;"/></g><g id="shape-ac722630-698d-11ec-8dda-41b397486b5e"><path color="#000" opacity=".75" d="M146.26907039427988,110.55551787097784C143.46760166777108,111.46930166159837,140.84047326973632,113.21270494633472,139.35256874224547,115.80977466704644C138.27646809407975,117.06021564368666,137.39274298078226,119.30559883971773,138.97082354024224,120.44181684252999C135.75454506667575,122.08903235983462,137.91275809847093,123.3214381300786,140.8615143438626,121.98683285693596C142.33438953269228,121.90567442816291,144.0357106691772,119.71740271904491,145.21701668797323,121.1211429500313C146.23600584922497,122.05296194704579,147.7479573185742,122.04394434384903,148.64370590280168,123.27334424636092C150.03542266285876,123.50780192948196,151.63454429644526,120.89269700237583,152.9360850245339,122.14013211128213C157.26453455905312,123.52583713587455,157.411822077936,122.08001475663741,160.40867220704513,119.78954354461848C167.29210931402395,124.20215737564376,172.3780375170852,124.50274414887508,180.72232634196462,124.09995787274693C170.6226107614184,122.40164260399297,166.84122915417856,121.16623096601552,160.97678120845035,117.19247382390677C159.03198478564877,116.62135895476968,158.3797114877384,117.96798769884299,157.76651447034828,119.24848735280466C156.14935763036783,121.05801972765312,156.30566275244792,120.91373807650189,154.0272150113601,120.54101047769564C154.1143851755969,119.39276900395407,153.68454608987759,119.67832643852444,153.31783022653622,118.71344289645458C151.70668512202064,118.40985025549162,150.1406280334893,119.11322330485109,148.76694647982572,119.86168437019433C147.88622723426033,120.44482271026345,145.22002255570578,119.65127362893463,147.1347603011841,118.920847769984C148.63769416733658,117.8988527409997,148.76995234755805,115.99012673098605,149.49436647104358,114.46915765843823C150.04744613378807,112.93015337949964,149.56650729661897,110.54950613551273,147.60066979969133,110.46534183900803C147.15510889162624,110.41686177977272,146.7045086168241,110.44635931469156,146.26907039427988,110.55551787097784ZZM147.52552310638362,112.4973084260464C147.96968428907212,114.19452787850241,147.02983180258525,115.9470840492595,145.37031594232076,116.51615358413937C144.49861429995235,117.76659456077914,143.44656059364524,118.90281256358958,141.85044482779108,119.1222409080483C140.503816083718,119.84665503153337,139.5689912189714,118.35574463631065,140.6901798831209,117.36380828464917C142.16004920421847,114.86893806683611,144.5737609932596,112.83697147979638,147.52552310638362,112.4973084260464ZZ" style="text-indent: 0px; text-transform: none; fill: rgb(34, 34, 33);"/></g><g id="shape-ac727450-698d-11ec-8dda-41b397486b5e"><g id="shape-ac729b60-698d-11ec-8dda-41b397486b5e"><g id="shape-ac75a8a0-698d-11ec-8dda-41b397486b5e"><path fill-rule="evenodd" d="M66.5173877207526,37.76241899773731L71.5071281563794,37.76241899773731L72.55016425948907,32.92297194872435L75.37868579558881,32.92297194872435L72.68843417517564,45.442411053776596L69.85991263907636,45.442411053776596L70.95104262590257,40.377523924841626L65.95529045481135,40.377523924841626L64.88520154211074,45.442411053776596L62.05968587374332,45.442411053776596L64.73190228776275,32.92297194872435L67.55741795612971,32.92297194872435ZM79.34041946676734,40.485735163205845L82.91740206821078,40.485735163205845L82.2531052993711,35.67033505605241L79.34041946676734,40.485735163205845ZZM73.42787763732258,45.442411053776596L81.30926283142753,32.92297194872435L84.68485229480666,32.92297194872435L86.87312400392489,45.442411053776596L83.66285726582237,45.442411053776596L83.32018834433961,42.90245281997977L77.89159121979651,42.90245281997977L76.42773363416336,45.442411053776596ZM88.0063361390039,41.27026664133746L90.81982833644179,41.27026664133746L90.78976965911852,41.39350721836263C90.63910137504126,41.85204823377944,90.71137892606384,42.35465520397065,90.98515106171862,42.75215943336343C91.3736589855107,43.09754288931981,91.89015870101684,43.26242969067653,92.40692649909897,43.20604546094091C92.903204281743,43.22874413906084,93.39614960672088,43.114347544656994,93.8317078042121,42.87540001038815C94.1783606116478,42.65584655369321,94.41379735989767,42.29776368542434,94.47796936665782,41.89248126192433C94.61022754687906,41.25523730267514,94.02408333907943,40.789327804168806,92.70450740459728,40.46769995681143L92.10333385813624,40.335441776589505C90.81982833644179,40.00479632603674,89.96315603273479,39.56593963712021,89.51528174062105,39.003842371180326C89.0630609805562,38.321145582900044,88.94165946112344,37.47133494686932,89.18463629006783,36.68932421730369C89.39508595128063,35.5165058072148,90.04968480909929,34.47000894899111,91.0122038713098,33.7676207815025C92.09580479562374,33.047262166555356,93.37921239905154,32.68748724821671,94.6793625047219,32.739614017054464C96.13119661942551,32.739614017054464,97.12914470655096,33.05523012894628,97.69124197249198,33.6594095431401C98.25333923843323,34.26358895733256,98.43068543463937,35.21644902847311,98.22628642884274,36.51498388883101L95.55106414709098,36.51498388883101L95.55106414709098,36.48492521150774C95.69154619128108,36.117854084586725,95.61110847516693,35.702842099995905,95.34365927356157,35.41483629880713C95.00223370957292,35.14454741157215,94.5682362228099,35.01931430593959,94.13530044517483,35.066155641858586C93.65641957063463,35.049409070668844,93.18278971296286,35.170424629016,92.77063649470801,35.41483629880713C92.43955352889793,35.59010746067588,92.2061650182768,35.906453972701456,92.13639840319183,36.27451447024487C92.00113435523781,36.86366454577774,92.57224922437626,37.34460338294684,93.84673714287328,37.6391784207126C94.06015375186689,37.68126056896472,94.23749994807326,37.747389659075,94.38178159922381,37.774442468666166L94.48698696985457,37.774442468666166C95.87770177400125,38.13113877290016,96.75541515183431,38.56899350590538,97.1201271033542,39.0880066676832C97.34440785752213,39.41556912991609,97.48006520323611,39.7956168083665,97.51389577628629,40.19116012544009C97.57190308071449,40.666587261326185,97.54132847584742,41.14864686473402,97.42371974431694,41.612935562820894C97.20431729150027,42.809932819326605,96.53268045281288,43.87658683717791,95.54805827935843,44.5917504855347C94.4280936918683,45.34446361744085,93.09681920860385,45.71941117760025,91.7486414657244,45.661839398235315C90.19460784812236,45.661839398235315,89.10347786129546,45.313158741288134,88.46623390204695,44.633832633786824C87.82898994279776,43.95450652628597,87.66366721752115,42.91147042317516,87.97026572621644,41.5317771340483L88.0063361390039,41.27026664133746ZZM103.42944347346338,32.83279591675455L101.34337126724313,42.63192472407172L106.56456351825773,42.63192472407172L105.96940170726111,45.35223502180861L97.92569965561188,45.35223502180861L100.60693367282829,32.83279591675455ZM118.41970585447052,32.83279591675455L117.84257924986741,35.50801819850858L112.12541882302276,35.50801819850858L111.66251519224761,37.67224296576751L117.1031357877207,37.67224296576751L116.56207959590552,40.24526574462152L111.10041792630682,40.24526574462152L110.58641454408234,42.66198340139363L116.46889769620384,42.66198340139363L115.8977828270663,45.35223502180861L107.25891896442045,45.35223502180861L109.94917058483361,32.83279591675455ZM122.42652754163328,35.249513573528475L121.8073187887785,38.16821114159711L123.55973967671275,38.16821114159711C124.17469347270003,38.21888844279056,124.79204274126641,38.10475664523938,125.34823097743447,37.8375656910448C125.73987701112696,37.57131066818147,126.0033381674807,37.15434528436572,126.07565096865233,36.68631834957159C126.21465119886489,36.305944701968656,126.13891925410144,35.880239376102054,125.87726369832012,35.5711414208854C125.63479036791432,35.3607306796257,125.07469701379478,35.25552530899358,124.19698363596126,35.25552530899358ZM117.51193379931419,45.34922915407515L120.18715608106595,32.83279591675637L125.61575320560951,32.83279591675637C126.21329734409846,32.82009049456474,126.81079282789187,32.860325880678374,127.40123863859935,32.95303062604944C127.76026581413385,33.02571185723218,128.10270854928694,33.164319630984664,128.41121019665343,33.3618286376427C128.76712219632577,33.62365313714645,129.0193627405538,34.002546106536556,129.1236008492101,34.431917550341495C129.24465218350315,34.93777795092865,129.24465218350315,35.465061428697936,129.1236008492101,35.97092182928327C128.98816422480922,36.77906828150117,128.59608619048868,37.52211939493054,128.00541805279227,38.09005858055798C127.36009776389074,38.645577360874086,126.57545066967532,39.01451738530477,125.73598791490167,39.15714162552649C126.24875873342307,39.124658492334675,126.75954517087257,39.24607494058182,127.20285136826715,39.50582228247367C127.51964293724154,39.770583925432675,127.70154781947485,40.16305748952391,127.6988195440972,40.57591119517383C127.6988195440972,40.84643929108188,127.65673739584508,41.51073605992224,127.54852615748223,42.58683670808796C127.4472590241744,43.50495694166784,127.4070923620734,44.42879016999041,127.42829144818961,45.35223502180861L124.4975704091919,45.35223502180861C124.45601497058715,44.929758825746376,124.46610895968297,44.50379248589388,124.52762908651516,44.08375883877579C124.53347540754999,44.017758963620054,124.53347540754999,43.951371443597964,124.52762908651516,43.885371568442224L124.69595767952387,42.22312671247846C124.80688783286564,41.773742349842905,124.74689688117724,41.2991710713095,124.52762908651516,40.891527307065644C124.34727702257646,40.681116565806406,123.81323452213701,40.57591119517383,122.92550158519589,40.57591119517383L121.26025086149889,40.57591119517383L120.23524996478318,45.355240889540255Z" style="fill: rgb(243, 145, 45);"/></g><g id="shape-ac7867c0-698d-11ec-8dda-41b397486b5e"><path fill-rule="evenodd" d="M139.21730469429167,44.035664955058564C138.81694392521104,44.52612411217251,138.30173750495464,44.91020585232309,137.71737669587128,45.153847751476405C137.06381020801587,45.418376378241646,136.36327574973984,45.5472338114414,135.65835729924197,45.5325870857464C134.95590105566862,45.60318859072913,134.25994571604906,45.34719227949972,133.77067236335415,44.83823163958277C133.36640241485838,44.27161963194976,133.25279080695555,43.54762409139221,133.4640738546591,42.884417613585356C133.575835198787,42.37969661858642,133.77523839529908,41.898483802513965,134.05322393019105,41.462642176204554C134.320672592361,41.05303171140895,134.67083882905922,40.703889352594615,135.08123069463954,40.43764127948816C135.4666822230929,40.193924999693536,135.8986894701884,40.03320192435194,136.34970687767213,39.965720045516264C137.1465217356722,39.858205767110576,137.95060149353617,39.81398138042914,138.75440106351653,39.83346186529434L140.03790658521075,39.83346186529434C140.05643098373935,39.78989785155227,140.0705292411585,39.74458202413143,140.0799887334631,39.69819781734077C140.0939334321929,39.664115900379784,140.1049937475657,39.628923987828784,140.1130532785187,39.59299244671138C140.22379255897658,39.23671077318704,140.18585165226114,38.85079755059769,140.00784790788794,38.5229035340094C139.79769715636644,38.24631339109237,139.45716109607338,38.10118560700721,139.1120993236609,38.14115833200731C138.7234836744417,38.12100424542405,138.33703679791824,38.21058492300108,137.99692239497563,38.399662956986504C137.70915515283423,38.59035879531075,137.49498359866243,38.87344693869454,137.38973711305016,39.20222964151071L134.7145148312984,39.20222964151071C134.94716867617808,38.3045912350326,135.52521276666516,37.535306389374455,136.32265406808165,37.06205181610994C137.31557895860033,36.56369815385278,138.4202089269079,36.32972779505417,139.52991493845138,36.38272570860863C140.8314556665398,36.38272570860863,141.73922772169612,36.65325380451668,142.2351958975264,37.20032173179561C142.7341699410888,37.747389659075,142.87243985677492,38.592038491853145,142.63197043819082,39.72525062693194L141.67911036705004,44.170929003012134C141.63101648333281,44.42642776025923,141.58893433508047,44.63984436925239,141.57390499641906,44.81719056545671C141.55893557626723,44.98217443299518,141.55893557626723,45.14817487375012,141.57390499641906,45.313158741288134L139.09105824953485,45.313158741288134C139.07448820857326,45.1351954631582,139.07448820857326,44.956077563066174,139.09105824953485,44.778114284938056C139.1084175874273,44.57602295479592,139.1385363389586,44.37523127792065,139.18123428150398,44.1769407384777L139.21730469429167,44.035664955058564ZZM139.71327287012218,41.435589366613385L139.49685039339602,41.435589366613385C138.70159171637624,41.39570290700067,137.9052289914282,41.48813786614619,137.14025009126885,41.70912333025444C136.70443673550062,41.855345614228554,136.3814856561071,42.22541766962104,136.29560125849048,42.67701274005594C136.20244340407544,42.926115932929406,136.26757835324315,43.20678835025183,136.46092398376732,43.38940339261217C136.73752348763128,43.58630161712654,137.07578136772372,43.67700167961311,137.4137840549081,43.64490214985926C137.95164139903773,43.65688311440408,138.4742819883404,43.465856369239646,138.87764164054124,43.109857693509184C139.29171057433496,42.706617982653825,139.56740857553314,42.182581323887916,139.66517898640518,41.612935562820894L139.71327287012218,41.435589366613385ZZM130.12154893633556,32.799731371699636C130.72507469430866,32.787302557670046,131.3285345962272,32.827533217798646,131.92506957571868,32.91996608099407C132.28072639634138,32.99448347797261,132.61988535090586,33.13299884680373,132.92602353057623,33.32876409258597C133.28081174416366,33.59108745686717,133.53194749244335,33.96991934833977,133.63540831540035,34.39885300528658C133.75589655029876,34.90477968774758,133.75589655029876,35.43193060176691,133.63540831540035,35.93785728422836C133.49280929160705,36.742505999374316,133.09556798710219,37.480089323388256,132.50219618032156,38.04196469684075C131.85788521156633,38.597250130416796,131.07426569078257,38.96619566075924,130.23577191016284,39.10904774180926C130.75327763733821,39.07701069166296,131.2687400310458,39.19829596077034,131.71766470218927,39.45772839875781C132.02612039263568,39.72794510967833,132.2035004424249,40.117743243783025,132.20461527482325,40.527817311457966C132.20461527482325,40.798345407364195,132.15652139110625,41.462642176204554,132.0543218882076,42.538742824370274C131.9514984872867,43.45675315213339,131.9103260044658,44.38062349835627,131.93108131118333,45.30414113809093L129.0755069654931,45.30414113809093C129.05344431740946,44.38968890810338,129.093615290431,43.4747949975399,129.1957416747855,42.5657956339619C129.30395291314835,41.49570672125992,129.34603506140047,40.82840408468928,129.34603506140047,40.551864253316126C129.34786524771016,40.14006039841297,129.1660449867727,39.748871352153856,128.8500668855702,39.48478120834761C128.40762571076357,39.22561845307837,127.89797423671962,39.10422303010091,127.38620929993749,39.13610055140043C128.22492099938677,38.99208896647315,129.00849534981353,38.62212548006346,129.652633570096,38.066011638698455C129.75783894072651,37.960806268068154,129.86605017908937,37.85560089743876,129.9562262110585,37.75039552680846C130.26347336720073,37.48956694250501,130.4758850152316,37.13449075475319,130.56040562525186,36.74042396875302C130.65163741890046,36.48251140923003,130.72396946631216,36.218298513824266,130.77682810197803,35.94988075515721C130.89779406812931,35.442994429684404,130.89779406812931,34.914756933956596,130.77682810197803,34.407870608485155C130.6719461995665,33.979597591116544,130.4197667712308,33.601860472722365,130.0644374494218,33.34078756351664C129.75417715294407,33.15178114090304,129.4118407225942,33.02136726267463,129.05446589136682,32.956036493781085C128.46309822377816,32.86233637725991,127.86460513990232,32.82109567736188,127.26597459064487,32.83279591675455ZM148.64971763826634,32.799731371699636L148.13571425604187,35.249513573528475L145.2801399103514,35.249513573528475L145.8091726312373,32.799731371699636ZM147.75396905403886,36.59614231760361L145.884319324545,45.32518221221699L143.2391557201165,45.32518221221699L145.09678197868107,36.59614231760361ZM152.97516130505346,32.799731371699636L150.2999390233017,45.32518221221699L147.63674021247925,45.32518221221699L150.32699183289242,32.799731371699636Z" style="fill: rgb(34, 34, 33);"/></g></g></g><g id="shape-ac788ed0-698d-11ec-8dda-41b397486b5e" opacity=".6"><g id="shape-ac790400-698d-11ec-8dda-41b397486b5e"><defs><linearGradient x1="11.966" y1="-4.993" x2="11.966" y2="52.787" id="c28783e1-72b9-11ec-8a48-e572a1563a57-b" gradientUnits="userSpaceOnUse" gradientTransform="matrix(3,0,0,3,11.5,6.5)"><stop offset="0" stop-color="#fff" stop-opacity=".329"/><stop offset="1" stop-color="#fff" stop-opacity="0"/></linearGradient></defs><rect width="177" height="129" x="19" transform="matrix(1.216960001413728,0,0,1.2169600046053812,-23.323200151975755,-17.03136036152243)" fill-rule="evenodd" ry="2" fill="url(#c28783e1-72b9-11ec-8a48-e572a1563a57-b)" rx="2" y="14" color="#000"/></g><g id="shape-ac795220-698d-11ec-8dda-41b397486b5e"><defs><linearGradient x1="31.423" y1="38.134" x2="31.423" y2="-5.765" id="c287f910-72b9-11ec-8a48-e572a1563a57-c" gradientUnits="userSpaceOnUse" gradientTransform="matrix(3.6545454500561374,0,0,3.637098437261369,-9.445454401796397,-8.366943299689186)"><stop offset="0" stop-color="#fff"/><stop offset="1" stop-color="#fff" stop-opacity="0"/></linearGradient></defs><path color="#000" fill-rule="evenodd" fill="url(#c287f910-72b9-11ec-8a48-e572a1563a57-c)" d="M14.234045793287578,7.6536038009080585C10.180958751866683,7.6536038009080585,6.9180042022746875,10.916558350499145,6.9180042022746875,14.96964539192004L6.9180042022746875,80.06778346875399C34.55800933312116,63.36160249567456,65.38780859764961,63.782274887157655,107.51357607870091,63.782274887157655C149.6393435597529,63.782274887157655,180.4691428242811,63.36160249567456,208.10914795512758,80.06778346875399L208.10914795512758,14.96964539192004C208.10914795512758,10.916558350499145,204.84619340553604,7.6536038009080585,200.79310636411492,7.6536038009080585L14.234045793287578,7.6536038009080585ZZ"/></g></g><g id="shape-ac797930-698d-11ec-8dda-41b397486b5e"><g id="shape-ac7a6390-698d-11ec-8dda-41b397486b5e"><path d="M108.28091399340406,60.15312773568121C100.09839932242585,58.94240713023373,92.06629086215389,63.135604537890686,88.38206960554226,70.54140661852671C84.07606914743224,79.171439464169,86.85745634536579,89.65701166453027,94.87474390732177,95.01818756268995C95.36198176298467,95.3419060698593,96.01939178738348,95.20934744672104,96.34311029455307,94.72210959105723C96.66682880172266,94.23487173539661,96.53427017858371,93.57746171099689,96.04703232292104,93.25374320382753C88.91854536401843,88.48580088637073,86.44622183003389,79.16179322512971,90.27576627689405,71.48825495420351C93.55319044622024,64.90213393534896,100.69713733285016,61.17364399264898,107.974315484709,62.251223412829404C108.34910418080426,62.30599196612957,108.72464189277457,62.156652806248985,108.95946719783342,61.85946054986243C109.19429250289136,61.56226829347588,109.2527298506534,61.162373514600404,109.11276645759608,60.81041270747073C108.97280306453877,60.458451900341515,108.65570269982709,60.20789628478633,108.28091399340406,60.15312773568121ZZM118.98781485587574,65.5035722991829C118.56714256437726,65.12797032769777,117.92615054408793,65.14706156863804,117.52857788339543,65.54703406430326C117.1310052227036,65.94700655996849,117.11577181724351,66.5881018640498,117.49389859292023,67.0065061653363C122.72222719714341,72.17994314178122,124.0276663829236,80.13026190053188,120.72821227288114,86.70395741513312C116.89093995213352,94.37296377974417,107.9509348462243,97.99377529606545,99.85847260748415,95.15645747837698C99.31536526693435,94.99131019736933,98.73847808989012,95.28286882552538,98.54933854693309,95.81809348963816C98.3601990039765,96.35331815374911,98.62581100173702,96.94260205420505,99.15209369039258,97.15535952036043C103.155567881063,98.56900247625799,107.51668615198969,98.60391681467036,111.54228048295545,97.25455315552563C116.36559223034283,95.65265254051565,120.3531669143822,92.19718709014796,122.62491481196548,87.65080575081038C126.33453202120018,80.2594159501864,124.86652287258903,71.32033214277726,118.98781485587574,65.5035722991829ZZM115.1102454812019,62.54279258286169C114.42049310402854,62.14256995113146,113.70675200790492,61.785197475436235,112.973073523533,61.472703670161536C112.62459520872699,61.32450641538435,112.22352567241978,61.37347747436979,111.92094392956687,61.60116992287385C111.61836218671351,61.82886237137609,111.46023760289017,62.20068430935544,111.50613417935165,62.57657400924518C111.55203075581312,62.95246370913446,111.79497571065303,63.27531458258818,112.14345402928393,63.423511828372284C112.7975709320308,63.70188567225841,113.4340049550658,64.02010268377535,114.04917417169827,64.37637189956968C114.29256577415026,64.51774817764363,114.58225780744988,64.55631738147076,114.85416064453511,64.48354670515619C115.12606348162035,64.41077602883843,115.3577640616495,64.23266398866599,115.49800241866978,63.98861496210202C115.79092948902075,63.48310543579282,115.6186863883272,62.835848158969384,115.1102454812019,62.54279258286169ZZ" style="fill: rgb(51, 51, 51);"/></g><g id="shape-ac7e3420-698d-11ec-8dda-41b397486b5e"><path d="M129.82396803083702,72.98217121716016C130.12756067179998,71.65958941494591,129.67367464422205,70.29492546447818,128.63665027657635,69.42021795437677L126.59266021860913,67.69484987603482C126.3218136946698,67.46731252897052,126.14069390426494,67.15088560102822,126.08166270411675,66.80210715954036L125.63980014746812,64.1659611583068C125.41899500284308,62.82869339539366,124.46484830049667,61.729274661629006,123.17198273924487,61.32241028354656L120.62601276998248,60.51383186355679C120.28919548400586,60.40630919778005,120.00155162871579,60.18258619922062,119.8144284822597,59.88259963977316L118.39265304487935,57.619181237345856C117.67782570559848,56.4695417295834,116.37777900776132,55.81893748401626,115.02908705242999,55.93589530725467L112.36588824160731,56.16434125491014C112.01362510617582,56.19463467341393,111.66206039415442,56.09875338831853,111.37395188994651,55.89381315900209L109.19770365175714,54.339779541401185C108.09621038992418,53.54838772476205,106.64287644946307,53.44491034820112,105.44036898637569,54.0722573132266L103.06873934558666,55.30466308347104C102.75473830681085,55.46606901056839,102.39364709246138,55.510805975179665,102.0497501843347,55.4309095282274L99.44065699269413,54.829735981767044C98.11807519047943,54.52914920853618,96.75341124001284,54.983035236113665,95.87569786217955,56.02005960376073L94.15032978383624,58.06404966172795C93.9227924367733,58.334896185666366,93.60636550883055,58.516015976070776,93.25758706734155,58.57504717622032L90.62144106610958,59.01690973286895C89.27781818976928,59.24234981279096,88.18668820294238,60.18919814846777,87.77789019134889,61.48472714109039L86.97231763909099,64.0306971103546C86.86479497331356,64.36751439632963,86.64107197475437,64.65515825161992,86.34108541530668,64.84228139807783L84.07466114514864,66.26405683545681C82.92341380367543,66.98546509121024,82.2801581089625,68.27197648063702,82.39137521505722,69.62762282790618L82.6198211627127,72.29382750646164C82.65011458121671,72.6460906418938,82.55423329611995,72.99765535391498,82.34929306680488,73.28576385812266L80.79525944920351,75.4590062285788C80.00386763256301,76.56049949041244,79.90039025600208,78.01383343087309,80.52773722102802,79.21634089396048L81.76014299127314,81.59097640248228C81.91945398108533,81.90058077890899,81.96454199707023,82.26429077451803,81.88638943602973,82.60695969600147L81.28822175730147,85.21605288764204C80.98763498407061,86.53863468985764,81.43851514391645,87.90630450805565,82.47854537929425,88.78101201815707L84.52253543726192,90.50638009650083C84.79306353316952,90.7348260441563,84.97341559710776,91.05344802378022,85.03353295175384,91.3991228129953L85.47238964067037,94.03526881422749C85.69782972059352,95.37889169056734,86.64467805626964,96.47002167739402,87.9402070488934,96.87881968898728L90.48617701815579,97.68739810897705C90.82283420417389,97.79260347960917,91.11139750647544,98.01804355953118,91.29776130587834,98.3156244650304L92.71953674325914,100.58204873518798C93.44094499901212,101.73329607666119,94.73046225617122,102.37955763910713,96.08310273570851,102.26533466527962L97.1952737966617,102.16914689784426L95.4127942314044,120.04203643413393C95.37496496733706,120.42161990452678,95.5443880050318,120.79217991814721,95.8562213358,121.01189481986557C96.1680546665682,121.2316097215853,96.57401568133855,121.26646002836469,96.91873396528945,121.1031077436387L102.30224307384879,118.56314950983824L107.0815727682143,122.11608516942442C107.38762984627988,122.34093113113249,107.79051796059821,122.38506201437713,108.13799144456425,122.23180138841462C108.48546492853029,122.07854076245076,108.72453431592521,121.75126076684046,108.76485869830526,121.37363583954493L110.58641454408234,103.11900110125316L111.67153279544436,103.3684881230347C112.98905232080688,103.67178018677578,114.36549715463161,103.21219152387903,115.23649192595894,102.17816450104146L115.98194712357099,101.2974452554763L128.41121019665388,114.81783831538678C128.6691484711173,115.10046878399635,129.0595849497804,115.22181385659451,129.4322874012596,115.1351823503137C129.80498985273948,115.04855084403471,130.10187950734598,114.76744267356753,130.20871910057213,114.40002270059495L131.8920050306633,108.68887400921676L137.72338843133593,107.4895327840245C138.0959973884917,107.4116850444334,138.3983567385933,107.14020815585855,138.5157448147936,106.7781063123407C138.63313289099392,106.41600446882421,138.5475611784227,106.01876605221196,138.29149743274138,105.73711189609276L126.12675072010165,92.50828800621593L127.03752864298986,91.93717313707702C128.18877598446306,91.2157648813236,128.83503754690855,89.92624762416517,128.72081457308127,88.57360714462766L128.4923686254258,85.9074024660722C128.462075206922,85.55513933064049,128.55795649201855,85.20357461861931,128.76289672133362,84.915466114413L130.31693033893544,82.74222374395549C131.1104794202638,81.63606441846787,131.21267892316246,80.19625377469265,130.5874584348428,78.98488907857336L129.35505266459768,76.61025357005155C129.19335031580385,76.29747968398533,129.14756286860415,75.93756905250757,129.22580035210876,75.59427027653237ZM106.84410921736207,119.30259297198609L103.05671587465713,116.483089039084C102.74356762376738,116.25022351229563,102.32766277195651,116.20863302711632,101.97460349102721,116.37487780071979L97.70627131115361,118.38880918136556L99.3294398865985,102.10602367546744C99.47545608794371,102.15260647892683,99.61336193461693,102.22155940226367,99.73823789819198,102.31042268126339L101.91448613638136,103.86145043113265C102.12189100991031,104.011743817749,102.33831348663603,104.1319785270407,102.56375356655917,104.2311721622059L101.71008713058472,112.80390693474146C101.65198382194785,113.3857701933157,102.07657514653147,113.90456560323219,102.65843840395974,113.96266892333779C103.240301661388,114.02077224344339,103.75909707967367,113.5961809290884,103.81720041124981,113.01431767280474L104.67086684690548,104.47164158079022C105.01353576838778,104.40851835841386,105.35019295440657,104.2942953845859,105.6718208017628,104.1289726593086L108.04645631028416,102.89656688906325C108.18714988648935,102.82502176058642,108.33833135312307,102.77631900623419,108.49433060239744,102.75228523791202ZM135.46297589664232,105.79121751527418L130.84295719208853,106.74407758641473C130.45992042792432,106.82242446787814,130.15130517479952,107.10561074883617,130.04039050756273,107.48051518082912L128.70578523441964,112.00735198568054L117.44580470920346,99.75844097653726C117.57497012832187,99.6948481526315,117.7126656486987,99.65029960192032,117.85460272079695,99.62618279631397L120.49074872202891,99.18432023966534C120.86347632083448,99.12420288502017,121.21215697778189,99.0039681757271,121.53679069287114,98.83864545045162L127.3501388871498,105.16299115922038C127.59967757465483,105.46686321939615,127.99679763172367,105.6078268584497,128.3820770066127,105.5292928607023C128.7673563815015,105.4507588629549,129.0776181387755,105.16560499355273,129.1883090985027,104.78830498434036C129.29900005823015,104.41100497512844,129.1919694548326,104.00342732952322,128.9101842402165,103.72919225091255L123.05775976541781,97.36276439388985C123.16897687151322,97.15836538809208,123.26215877121444,96.94194291136728,123.3342995967896,96.71650283144345L124.14287801677983,94.17053286218106C124.19338222638862,94.01041672874817,124.27062162898983,93.86000315526098,124.3713239644353,93.72566443779897ZM127.75893689874329,72.51024998318826L127.16076922001434,75.11934317482883C126.96839368514702,75.95196853667812,127.07961079124198,76.82968191451027,127.47337946417429,77.58716058305026L128.70578523441964,79.96179609157207C128.96402646033198,80.45844006292918,128.92102715498618,81.05810605098713,128.59456812832423,81.51282384144315L127.04053451072241,83.68606621189883C126.54343111542562,84.38332465464737,126.31013626365302,85.2344780179642,126.38224947734739,86.08775453001044L126.6076895572703,88.7539592085659C126.65657749113143,89.31001209008537,126.38949132760013,89.84650690552553,125.91633997883991,90.14267010089134L123.64690984094955,91.56143967053868C122.92169943275462,92.01643772414582,122.38162022048141,92.7141731956217,122.12293490067032,93.53028303519886L121.31435648068009,96.07625300446261C121.14716557335805,96.6099020734332,120.69379799478884,97.00398312249672,120.14206806508128,97.0952421657139L117.50592206384954,97.53710472236253C116.66427909880395,97.67838050578166,115.89477695933374,98.11423132696473,115.3447031643218,98.76951049260788L113.61632921824639,100.81350055057555C113.25660953287706,101.24085584832119,112.68748816686252,101.43017581293452,112.14345402941672,101.30345699094141L109.53736670550825,100.70228344447924C108.70333645277856,100.51202073717741,107.82885162534899,100.62386106224403,107.069549297285,101.01789955637287L104.69491378876364,102.25030532661685C104.19785921713856,102.50838488316003,103.59777160980093,102.46419238494491,103.14388603889392,102.13608235278934L100.97064366843733,100.58505460292145C100.27378536015362,100.08688871070035,99.42259752588166,99.85251909425551,98.56895535032504,99.92376370181273L95.90275067177026,100.15220964946866C95.34669779025171,100.20109758332956,94.81020297481064,99.93401141979803,94.51403977944528,99.46086007103804L93.09527020979704,97.19142993314745C92.64027215619126,96.46621952495298,91.94253668471356,95.92614031267931,91.12642684513662,95.66745499286753L88.58045687587423,94.85887657287776C88.0468078069041,94.69168566555572,87.6527267578399,94.23831808698696,87.56146771462272,93.68658815728031L87.11960515797387,91.05044215604812C86.97828160182598,90.20577309031296,86.54151399033708,89.4387665530644,85.88719938772874,88.88621738878783L83.84320932976084,87.16084931044406C83.41585403201452,86.80112962507565,83.22653406740119,86.23200825906088,83.35325288939521,85.68797412161575L83.95442643585648,83.07888092997337C84.14395241512011,82.24580263539565,84.03212901564507,81.37251513473393,83.63881032396421,80.61406938948357L82.40941042145096,78.23943388096177C82.15116919553884,77.74278990960465,82.19416850088464,77.1431239215467,82.5206275275466,76.6884061310925L84.07165527741608,74.515163760635C84.5676234532466,73.8178024467411,84.8020811363665,72.96413601076574,84.73294617852343,72.11046957479039L84.50450023086819,69.44727076396839C84.45561229700706,68.89121788245029,84.72269846053837,68.35472306700831,85.19584980929835,68.0585598716425L87.46527994718895,66.63979030199516C88.1896940706747,66.18590427441586,88.73075026248989,65.48553709279031,88.98925488746818,64.67094693733497L89.7978333074584,62.12497696807259C89.96502421478021,61.59132789910245,90.41839179334966,61.19724685003894,90.97012172305722,61.10598780682176L93.60626772428895,60.664125250171764C94.44791068933455,60.52284946675263,95.21741282880475,60.08699864556911,95.7704924915488,59.43171947992596L97.4958605698921,57.38772942195874C97.85558025526143,56.96037412421265,98.42470162127574,56.771054159599316,98.96873575872178,56.897772981594244L101.57482308263025,57.4959406603225C102.40744844447931,57.6883161951896,103.2881676900447,57.577099089093736,104.0426404908535,57.18333041616279L106.41727599937485,55.950924645916984C106.91391997073106,55.69268342000396,107.51358595878992,55.735682725351126,107.96830374924457,56.062141752011485L110.14154611970116,57.61617536961421C110.83890743359643,58.11214354544563,111.69257386957088,58.34660122856485,112.54624030554578,58.27446040298901L115.209439116368,58.04902032306563C115.76549199788678,58.0001323892061,116.30198681332786,58.26721855273581,116.59815000869321,58.7403699014958L118.01691957834146,61.009800039386846C118.47080560591985,61.73421416287192,119.17117278754677,62.275270354687564,119.98576294300142,62.533774979666305L122.53173291226426,63.342353399656076C123.0665522805325,63.50859583708825,123.46195884350686,63.962150424029915,123.55372794124787,64.51464181525535L123.99258463016463,67.15078781648754C124.13386041358308,67.99243078153222,124.56971123476751,68.76193292100152,125.22499040040975,69.31200671601437L127.2689804583772,71.04038066208977C127.6958136763651,71.40108478996717,127.8851833435001,71.96318205590751,127.75893689874329,72.51024998318826ZZ" style="fill: rgb(51, 51, 51);"/></g><g id="shape-ac7f4590-698d-11ec-8dda-41b397486b5e"><path d="M116.27351629360419,72.05035222014385C115.83303531950605,71.44593481456968,115.07808331587944,71.15738061661523,114.34675507719612,71.31391462572947L108.05847978121346,72.61244948608692L103.66390115658305,67.93531929461915C103.15510435029819,67.38603977754474,102.37044881590509,67.18810865175237,101.6619932468675,67.43033351559052C100.95107114691609,67.6626032631334,100.44344920239155,68.29153625240406,100.36646425424397,69.03546688464303L99.66008533715194,75.41391821259458L93.85274887833793,78.14925784899197C93.17312870556134,78.46282742816675,92.74196448876728,79.14727117121902,92.75260128831405,79.89566700146179C92.75270349593757,80.64497506110911,93.19461781939754,81.32375546194316,93.87980168792888,81.6270468152693L99.72922029499523,84.2722104196987L100.5347928472529,90.6386382767214C100.63098061468668,91.3901052097981,101.13596639371417,91.99428462399192,101.8573746494676,92.22273057164739C102.56911729209332,92.45056002991396,103.34833708197448,92.24135773338458,103.85026495598595,91.68768611529731L108.1727027550412,86.93841509825234L114.47901325741782,88.14076219117487C115.21261538070394,88.28572148899366,115.96282453651247,87.98540228219326,116.39375100289658,87.37426591943722C116.83339331152433,86.76816780008858,116.87462960204311,85.95993650591208,116.49895637352711,85.3122406550774L113.31874831274808,79.73635601165006L116.41178620929009,74.10937161677339C116.77656096976852,73.4559961826103,116.72237453732373,72.6490895255597,116.27351629360419,72.05035222014385ZZM111.1785704873464,79.2343761003549C111.00113033699677,79.5567710993555,111.00340541539344,79.94808458357966,111.18458222281151,80.2683946002685L114.4399369768978,85.97653742391594L107.98633895563808,84.74713752140224C107.62398304298222,84.67748819386634,107.25151534077713,84.80164409460167,107.00342020717426,85.07477710422472L102.58178877295268,89.93225935963028L101.7581810143015,83.4155381159926C101.71196940940717,83.04955487933375,101.47848038300435,82.73405995097755,101.14197812917837,82.58291275414331L95.15428960642635,79.87763179506919L101.0998959809267,77.08217480402527C101.43271208970418,76.92489920799017,101.66023567452748,76.60636618923854,101.70106952738752,76.24053183897877L102.42247778314095,69.70878125667878L106.92226177840212,74.49712855424241C107.1717488001832,74.76465078241654,107.54748226672154,74.88187962397615,107.90818639459849,74.80673293066911L114.3407433417317,73.47813939298976Z" style="fill: rgb(51, 51, 51);"/></g></g></g></svg>